<?xml version='1.0' encoding='UTF-8'?>
<svg xmlns="http://www.w3.org/2000/svg" xmlns:xlink="http://www.w3.org/1999/xlink" xmlns:svg="http://www.w3.org/2000/svg" xmlns:serif="http://www.serif.com/" height="100%" style="fill-rule:evenodd;clip-rule:evenodd;" version="1.1" viewBox="55.0 140.0 50.0 100.0" width="100%">
    <g>
        <svg:rect x="55" y="140" width="50" height="100" style="fill:rgb(255,212,121);" />
        <svg:g>
            <svg:g transform="matrix(0.286609,0,0,0.286609,51.4354,133.73)">
                <svg:ellipse cx="100.234" cy="137.837" rx="71.821" ry="19.269" style="fill:rgb(188,214,231);" />
                <svg:path d="M130.57,132.196C138.925,132.16 145.513,128.679 150.578,124.099C137.617,120.68 119.848,118.568 100.235,118.568C60.569,118.568 28.414,127.195 28.414,137.837C28.414,143.979 39.139,149.446 55.824,152.974C79.927,144.129 115.114,132.263 130.57,132.196Z" style="fill:rgb(153,183,205);fill-rule:nonzero;" />
                <svg:ellipse cx="100.234" cy="137.837" rx="71.821" ry="19.269" style="fill:none;stroke-linecap:round;stroke-miterlimit:10;" />
                <svg:path d="M155.222,132.089C155.222,131.148 154.888,130.23 154.278,129.337C150.359,115.851 137.346,58.637 137.346,58.637C137.346,52.799 120.731,48.066 100.235,48.066C79.739,48.066 63.124,52.799 63.124,58.637L45.717,130.163C45.419,130.794 45.248,131.436 45.248,132.089C45.248,140.353 69.867,147.051 100.235,147.051C130.603,147.051 155.221,140.353 155.222,132.089Z" style="fill:rgb(238,219,157);fill-rule:nonzero;" />
                <svg:path d="M80.483,146.053C60.008,136.66 54.207,115.939 54.043,95.95L45.716,130.163C45.418,130.794 45.247,131.436 45.247,132.089C45.247,138.458 59.876,143.893 80.483,146.053Z" style="fill:rgb(231,191,133);fill-rule:nonzero;" />
                <svg:path d="M155.222,132.089C155.222,131.148 154.888,130.23 154.278,129.337C150.359,115.851 137.346,58.637 137.346,58.637C137.346,52.799 120.731,48.066 100.235,48.066C79.739,48.066 63.124,52.799 63.124,58.637L45.717,130.163C45.419,130.794 45.248,131.436 45.248,132.089C45.248,140.353 69.867,147.051 100.235,147.051C130.603,147.051 155.221,140.353 155.222,132.089Z" style="fill:none;fill-rule:nonzero;stroke-linecap:round;stroke-miterlimit:10;" />
                <svg:path d="M138.055,57.553C138.055,51.949 121.122,47.406 100.234,47.406C79.346,47.406 62.413,51.949 62.413,57.553C62.413,57.553 47.611,97.559 50.551,103.172C52.671,107.217 64.267,110.284 67.936,97.56C71.606,84.836 68.213,76.719 76.453,76.719C85.929,76.719 75.398,92.289 86.203,91.624C96.741,90.975 89.344,79.332 104.023,78.72C118.702,78.108 101.935,105.905 118.111,109C131.335,111.53 121.726,81.066 126.927,80.075C135.342,78.472 133.539,92.033 135.743,94.065C142.356,100.161 146.279,93.952 146.542,91.169C147.358,82.538 138.055,57.553 138.055,57.553Z" style="fill:rgb(155,104,106);fill-rule:nonzero;" />
                <svg:path d="M138.055,57.553C138.055,51.949 121.122,47.406 100.234,47.406C79.346,47.406 62.413,51.949 62.413,57.553C62.413,57.553 47.611,97.559 50.551,103.172C52.671,107.217 64.267,110.284 67.936,97.56C71.606,84.836 68.213,76.719 76.453,76.719C85.929,76.719 75.398,92.289 86.203,91.624C96.741,90.975 89.344,79.332 104.023,78.72C118.702,78.108 101.935,105.905 118.111,109C131.335,111.53 121.726,81.066 126.927,80.075C135.342,78.472 133.539,92.033 135.743,94.065C142.356,100.161 146.279,93.952 146.542,91.169C147.358,82.538 138.055,57.553 138.055,57.553Z" style="fill:none;fill-rule:nonzero;stroke-linecap:round;stroke-miterlimit:10;" />
                <svg:path d="M78.98,128.944C77.495,128.944 76.291,127.74 76.291,126.256L76.291,119.244C76.291,117.759 77.495,116.556 78.98,116.556C80.465,116.556 81.668,117.76 81.668,119.244L81.668,126.256C81.668,127.741 80.465,128.944 78.98,128.944Z" style="fill:rgb(91,21,64);fill-rule:nonzero;" />
                <svg:path d="M123.127,128.944C121.642,128.944 120.439,127.74 120.439,126.256L120.439,119.244C120.439,117.759 121.643,116.556 123.127,116.556C124.612,116.556 125.816,117.76 125.816,119.244L125.816,126.256C125.816,127.741 124.612,128.944 123.127,128.944Z" style="fill:rgb(91,21,64);fill-rule:nonzero;" />
                <svg:path d="M92.885,126.77C92.885,126.77 94.641,129.918 100.721,129.918C106.801,129.918 109.223,126.77 109.223,126.77" style="fill:none;fill-rule:nonzero;stroke-linecap:round;stroke-miterlimit:10;" />
                <svg:path d="M106.797,50.768C106.797,50.768 126.179,51.472 130.57,56.401C134.961,61.33 134.257,72.243 134.257,72.243C134.257,72.243 130.613,63.57 124.432,58.115C119.241,53.532 106.797,50.768 106.797,50.768Z" style="fill:rgb(188,126,128);fill-rule:nonzero;" />
            </svg:g>
            <svg:g transform="matrix(0.286609,0,0,0.286609,50.4512,176.106)">
                <svg:ellipse cx="100.234" cy="137.837" rx="71.821" ry="19.269" style="fill:rgb(188,214,231);" />
                <svg:path d="M130.57,132.196C138.925,132.16 145.513,128.679 150.578,124.099C137.617,120.68 119.848,118.568 100.235,118.568C60.569,118.568 28.414,127.195 28.414,137.837C28.414,143.979 39.139,149.446 55.824,152.974C79.927,144.129 115.114,132.263 130.57,132.196Z" style="fill:rgb(153,183,205);fill-rule:nonzero;" />
                <svg:ellipse cx="100.234" cy="137.837" rx="71.821" ry="19.269" style="fill:none;stroke-linecap:round;stroke-miterlimit:10;" />
                <svg:path d="M155.222,132.089C155.222,131.148 154.888,130.23 154.278,129.337C150.359,115.851 137.346,58.637 137.346,58.637C137.346,52.799 120.731,48.066 100.235,48.066C79.739,48.066 63.124,52.799 63.124,58.637L45.717,130.163C45.419,130.794 45.248,131.436 45.248,132.089C45.248,140.353 69.867,147.051 100.235,147.051C130.603,147.051 155.221,140.353 155.222,132.089Z" style="fill:rgb(238,219,157);fill-rule:nonzero;" />
                <svg:path d="M80.483,146.053C60.008,136.66 54.207,115.939 54.043,95.95L45.716,130.163C45.418,130.794 45.247,131.436 45.247,132.089C45.247,138.458 59.876,143.893 80.483,146.053Z" style="fill:rgb(231,191,133);fill-rule:nonzero;" />
                <svg:path d="M155.222,132.089C155.222,131.148 154.888,130.23 154.278,129.337C150.359,115.851 137.346,58.637 137.346,58.637C137.346,52.799 120.731,48.066 100.235,48.066C79.739,48.066 63.124,52.799 63.124,58.637L45.717,130.163C45.419,130.794 45.248,131.436 45.248,132.089C45.248,140.353 69.867,147.051 100.235,147.051C130.603,147.051 155.221,140.353 155.222,132.089Z" style="fill:none;fill-rule:nonzero;stroke-linecap:round;stroke-miterlimit:10;" />
                <svg:path d="M138.055,57.553C138.055,51.949 121.122,47.406 100.234,47.406C79.346,47.406 62.413,51.949 62.413,57.553C62.413,57.553 47.611,97.559 50.551,103.172C52.671,107.217 64.267,110.284 67.936,97.56C71.606,84.836 68.213,76.719 76.453,76.719C85.929,76.719 75.398,92.289 86.203,91.624C96.741,90.975 89.344,79.332 104.023,78.72C118.702,78.108 101.935,105.905 118.111,109C131.335,111.53 121.726,81.066 126.927,80.075C135.342,78.472 133.539,92.033 135.743,94.065C142.356,100.161 146.279,93.952 146.542,91.169C147.358,82.538 138.055,57.553 138.055,57.553Z" style="fill:rgb(155,104,106);fill-rule:nonzero;" />
                <svg:path d="M138.055,57.553C138.055,51.949 121.122,47.406 100.234,47.406C79.346,47.406 62.413,51.949 62.413,57.553C62.413,57.553 47.611,97.559 50.551,103.172C52.671,107.217 64.267,110.284 67.936,97.56C71.606,84.836 68.213,76.719 76.453,76.719C85.929,76.719 75.398,92.289 86.203,91.624C96.741,90.975 89.344,79.332 104.023,78.72C118.702,78.108 101.935,105.905 118.111,109C131.335,111.53 121.726,81.066 126.927,80.075C135.342,78.472 133.539,92.033 135.743,94.065C142.356,100.161 146.279,93.952 146.542,91.169C147.358,82.538 138.055,57.553 138.055,57.553Z" style="fill:none;fill-rule:nonzero;stroke-linecap:round;stroke-miterlimit:10;" />
                <svg:path d="M78.98,128.944C77.495,128.944 76.291,127.74 76.291,126.256L76.291,119.244C76.291,117.759 77.495,116.556 78.98,116.556C80.465,116.556 81.668,117.76 81.668,119.244L81.668,126.256C81.668,127.741 80.465,128.944 78.98,128.944Z" style="fill:rgb(91,21,64);fill-rule:nonzero;" />
                <svg:path d="M123.127,128.944C121.642,128.944 120.439,127.74 120.439,126.256L120.439,119.244C120.439,117.759 121.643,116.556 123.127,116.556C124.612,116.556 125.816,117.76 125.816,119.244L125.816,126.256C125.816,127.741 124.612,128.944 123.127,128.944Z" style="fill:rgb(91,21,64);fill-rule:nonzero;" />
                <svg:path d="M92.885,126.77C92.885,126.77 94.641,129.918 100.721,129.918C106.801,129.918 109.223,126.77 109.223,126.77" style="fill:none;fill-rule:nonzero;stroke-linecap:round;stroke-miterlimit:10;" />
                <svg:path d="M106.797,50.768C106.797,50.768 126.179,51.472 130.57,56.401C134.961,61.33 134.257,72.243 134.257,72.243C134.257,72.243 130.613,63.57 124.432,58.115C119.241,53.532 106.797,50.768 106.797,50.768Z" style="fill:rgb(188,126,128);fill-rule:nonzero;" />
            </svg:g>
        </svg:g>
    </g>
</svg>