<?xml version='1.0' encoding='UTF-8'?>
<svg xmlns="http://www.w3.org/2000/svg" xmlns:xlink="http://www.w3.org/1999/xlink" xmlns:svg="http://www.w3.org/2000/svg" xmlns:serif="http://www.serif.com/" height="100%" style="fill-rule:evenodd;clip-rule:evenodd;" version="1.1" viewBox="63.333 260.0 33.333 100.0" width="100%">
    <g>
        <svg:rect x="63.333" y="260" width="33.333" height="100" style="fill:rgb(255,252,121);" />
        <svg:g>
            <svg:g transform="matrix(0.213068,0,0,0.213068,-5.73227,256.407)">
                <svg:path d="M455.638,91.15L443.484,91.15C438.381,91.15 434.044,94.879 433.28,99.925L429.526,124.702C428.58,130.947 433.415,136.569 439.73,136.569L451.884,136.569C456.987,136.569 461.324,132.84 462.089,127.794L465.843,103.017C466.788,96.773 461.954,91.15 455.638,91.15ZM458.303,107.519L456.108,122.009C455.661,124.96 453.125,127.141 450.14,127.141L443.032,127.141C439.338,127.141 436.511,123.853 437.064,120.201L439.259,105.711C439.706,102.76 442.242,100.579 445.227,100.579L452.335,100.579C456.029,100.579 458.856,103.867 458.303,107.519Z" style="fill:rgb(236,204,205);fill-rule:nonzero;" />
                <svg:path d="M455.638,91.15L443.484,91.15C438.381,91.15 434.044,94.879 433.28,99.925L429.526,124.702C428.58,130.947 433.415,136.569 439.73,136.569L451.884,136.569C456.987,136.569 461.324,132.84 462.089,127.794L465.843,103.017C466.788,96.773 461.954,91.15 455.638,91.15ZM458.303,107.519L456.108,122.009C455.661,124.96 453.125,127.141 450.14,127.141L443.032,127.141C439.338,127.141 436.511,123.853 437.064,120.201L439.259,105.711C439.706,102.76 442.242,100.579 445.227,100.579L452.335,100.579C456.029,100.579 458.856,103.867 458.303,107.519Z" style="fill:none;fill-rule:nonzero;stroke-linecap:round;stroke-linejoin:round;stroke-miterlimit:10;" />
                <svg:path d="M337.702,72.745C339.556,75.526 356.236,147.832 356.236,147.832C356.236,153.8 373.463,158.638 394.713,158.638C415.963,158.638 433.189,153.8 433.189,147.832L451.723,72.745L337.702,72.745Z" style="fill:rgb(236,204,205);fill-rule:nonzero;" />
                <svg:path d="M356.236,147.831C356.236,153.799 373.463,158.637 394.713,158.637C395.429,158.637 396.139,158.63 396.846,158.62C391.784,156.615 386.129,154.25 379.868,151.457C358.891,142.099 352.056,100.633 349.839,72.744L337.703,72.744C339.556,75.526 356.236,147.831 356.236,147.831Z" style="fill:rgb(233,160,187);fill-rule:nonzero;" />
                <svg:path d="M337.702,72.745C339.556,75.526 356.236,147.832 356.236,147.832C356.236,153.8 373.463,158.638 394.713,158.638C415.963,158.638 433.189,153.8 433.189,147.832L451.723,72.745L337.702,72.745Z" style="fill:none;fill-rule:nonzero;stroke-linecap:round;stroke-linejoin:round;stroke-miterlimit:10;" />
                <svg:ellipse cx="394.712" cy="72.745" rx="57.01" ry="15.295" style="fill:rgb(233,160,187);" />
                <svg:path d="M395.545,63.204C366.562,63.204 343.066,69.294 343.066,76.806C343.066,77.913 343.589,78.989 344.553,80.019C354.197,84.796 373.042,88.04 394.713,88.04C418.71,88.04 439.23,84.06 447.64,78.428C447.884,77.896 448.024,77.355 448.024,76.806C448.023,69.294 424.528,63.204 395.545,63.204Z" style="fill:rgb(160,99,99);fill-rule:nonzero;" />
                <svg:path d="M395.545,63.204C366.562,63.204 343.066,69.294 343.066,76.806C343.066,77.913 343.589,78.989 344.553,80.019C354.197,84.796 373.042,88.04 394.713,88.04C418.71,88.04 439.23,84.06 447.64,78.428C447.884,77.896 448.024,77.355 448.024,76.806C448.023,69.294 424.528,63.204 395.545,63.204Z" style="fill:none;fill-rule:nonzero;stroke-linecap:round;stroke-linejoin:round;stroke-miterlimit:10;" />
                <svg:ellipse cx="394.712" cy="72.745" rx="57.01" ry="15.295" style="fill:none;stroke-linecap:round;stroke-linejoin:round;stroke-miterlimit:10;" />
                <svg:path d="M359.344,79.154C359.344,79.154 356.001,74.782 358.058,73.239C360.115,71.696 370.401,68.61 372.201,71.182C374.001,73.754 373.744,76.6 371.687,77.877C369.63,79.154 359.344,79.154 359.344,79.154Z" style="fill:rgb(248,232,196);fill-rule:nonzero;" />
                <svg:path d="M418.12,76.707C418.12,76.707 415.151,72.073 417.329,70.706C419.507,69.339 430.014,67.117 431.594,69.828C433.174,72.539 432.682,75.355 430.526,76.457C428.371,77.56 418.12,76.707 418.12,76.707Z" style="fill:rgb(248,232,196);fill-rule:nonzero;" />
                <svg:path d="M402.526,71.612C402.526,71.612 401.17,67.886 402.917,67.268C404.664,66.65 412.401,66.745 413.085,68.901C413.769,71.057 412.978,72.959 411.289,73.393C409.598,73.828 402.526,71.612 402.526,71.612Z" style="fill:rgb(248,232,196);fill-rule:nonzero;" />
                <svg:path d="M389.561,81.898C389.561,81.898 388.204,78.172 389.952,77.554C391.699,76.936 399.436,77.031 400.12,79.187C400.804,81.343 400.013,83.245 398.324,83.679C396.633,84.115 389.561,81.898 389.561,81.898Z" style="fill:rgb(248,232,196);fill-rule:nonzero;" />
                <svg:path d="M381.216,71.365C381.216,71.365 378.511,66.572 380.762,65.329C383.013,64.086 393.628,62.455 395.054,65.251C396.48,68.047 395.831,70.83 393.617,71.81C391.403,72.79 381.216,71.365 381.216,71.365Z" style="fill:rgb(248,232,196);fill-rule:nonzero;" />
                <svg:path d="M359.344,79.154C359.344,79.154 356.001,74.782 358.058,73.239C360.115,71.696 370.401,68.61 372.201,71.182C374.001,73.754 373.744,76.6 371.687,77.877C369.63,79.154 359.344,79.154 359.344,79.154Z" style="fill:none;fill-rule:nonzero;stroke-linecap:round;stroke-miterlimit:10;" />
                <svg:path d="M418.12,76.707C418.12,76.707 415.151,72.073 417.329,70.706C419.507,69.339 430.014,67.117 431.594,69.828C433.174,72.539 432.682,75.355 430.526,76.457C428.371,77.56 418.12,76.707 418.12,76.707Z" style="fill:none;fill-rule:nonzero;stroke-linecap:round;stroke-miterlimit:10;" />
                <svg:path d="M402.526,71.612C402.526,71.612 401.17,67.886 402.917,67.268C404.664,66.65 412.401,66.745 413.085,68.901C413.769,71.057 412.978,72.959 411.289,73.393C409.598,73.828 402.526,71.612 402.526,71.612Z" style="fill:none;fill-rule:nonzero;stroke-linecap:round;stroke-miterlimit:10;" />
                <svg:path d="M389.561,81.898C389.561,81.898 388.204,78.172 389.952,77.554C391.699,76.936 399.436,77.031 400.12,79.187C400.804,81.343 400.013,83.245 398.324,83.679C396.633,84.115 389.561,81.898 389.561,81.898Z" style="fill:none;fill-rule:nonzero;stroke-linecap:round;stroke-miterlimit:10;" />
                <svg:path d="M381.216,71.365C381.216,71.365 378.511,66.572 380.762,65.329C383.013,64.086 393.628,62.455 395.054,65.251C396.48,68.047 395.831,70.83 393.617,71.81C391.403,72.79 381.216,71.365 381.216,71.365Z" style="fill:none;fill-rule:nonzero;stroke-linecap:round;stroke-miterlimit:10;" />
                <svg:path d="M372.638,136.171C371.153,136.171 369.949,134.967 369.949,133.482L369.949,126.47C369.949,124.985 371.153,123.782 372.638,123.782C374.123,123.782 375.326,124.986 375.326,126.47L375.326,133.482C375.327,134.967 374.123,136.171 372.638,136.171Z" style="fill:rgb(91,21,64);fill-rule:nonzero;" />
                <svg:path d="M416.786,136.171C415.301,136.171 414.098,134.967 414.098,133.482L414.098,126.47C414.098,124.985 415.302,123.782 416.786,123.782C418.271,123.782 419.475,124.986 419.475,126.47L419.475,133.482C419.474,134.967 418.271,136.171 416.786,136.171Z" style="fill:rgb(91,21,64);fill-rule:nonzero;" />
                <svg:path d="M386.543,133.997C386.543,133.997 388.299,137.145 394.379,137.145C400.459,137.145 402.881,133.997 402.881,133.997" style="fill:none;fill-rule:nonzero;stroke-linecap:round;stroke-miterlimit:10;" />
            </svg:g>
            <svg:g transform="matrix(0.213068,0,0,0.213068,-5.3269,282.502)">
                <svg:path d="M455.638,91.15L443.484,91.15C438.381,91.15 434.044,94.879 433.28,99.925L429.526,124.702C428.58,130.947 433.415,136.569 439.73,136.569L451.884,136.569C456.987,136.569 461.324,132.84 462.089,127.794L465.843,103.017C466.788,96.773 461.954,91.15 455.638,91.15ZM458.303,107.519L456.108,122.009C455.661,124.96 453.125,127.141 450.14,127.141L443.032,127.141C439.338,127.141 436.511,123.853 437.064,120.201L439.259,105.711C439.706,102.76 442.242,100.579 445.227,100.579L452.335,100.579C456.029,100.579 458.856,103.867 458.303,107.519Z" style="fill:rgb(236,204,205);fill-rule:nonzero;" />
                <svg:path d="M455.638,91.15L443.484,91.15C438.381,91.15 434.044,94.879 433.28,99.925L429.526,124.702C428.58,130.947 433.415,136.569 439.73,136.569L451.884,136.569C456.987,136.569 461.324,132.84 462.089,127.794L465.843,103.017C466.788,96.773 461.954,91.15 455.638,91.15ZM458.303,107.519L456.108,122.009C455.661,124.96 453.125,127.141 450.14,127.141L443.032,127.141C439.338,127.141 436.511,123.853 437.064,120.201L439.259,105.711C439.706,102.76 442.242,100.579 445.227,100.579L452.335,100.579C456.029,100.579 458.856,103.867 458.303,107.519Z" style="fill:none;fill-rule:nonzero;stroke-linecap:round;stroke-linejoin:round;stroke-miterlimit:10;" />
                <svg:path d="M337.702,72.745C339.556,75.526 356.236,147.832 356.236,147.832C356.236,153.8 373.463,158.638 394.713,158.638C415.963,158.638 433.189,153.8 433.189,147.832L451.723,72.745L337.702,72.745Z" style="fill:rgb(236,204,205);fill-rule:nonzero;" />
                <svg:path d="M356.236,147.831C356.236,153.799 373.463,158.637 394.713,158.637C395.429,158.637 396.139,158.63 396.846,158.62C391.784,156.615 386.129,154.25 379.868,151.457C358.891,142.099 352.056,100.633 349.839,72.744L337.703,72.744C339.556,75.526 356.236,147.831 356.236,147.831Z" style="fill:rgb(233,160,187);fill-rule:nonzero;" />
                <svg:path d="M337.702,72.745C339.556,75.526 356.236,147.832 356.236,147.832C356.236,153.8 373.463,158.638 394.713,158.638C415.963,158.638 433.189,153.8 433.189,147.832L451.723,72.745L337.702,72.745Z" style="fill:none;fill-rule:nonzero;stroke-linecap:round;stroke-linejoin:round;stroke-miterlimit:10;" />
                <svg:ellipse cx="394.712" cy="72.745" rx="57.01" ry="15.295" style="fill:rgb(233,160,187);" />
                <svg:path d="M395.545,63.204C366.562,63.204 343.066,69.294 343.066,76.806C343.066,77.913 343.589,78.989 344.553,80.019C354.197,84.796 373.042,88.04 394.713,88.04C418.71,88.04 439.23,84.06 447.64,78.428C447.884,77.896 448.024,77.355 448.024,76.806C448.023,69.294 424.528,63.204 395.545,63.204Z" style="fill:rgb(160,99,99);fill-rule:nonzero;" />
                <svg:path d="M395.545,63.204C366.562,63.204 343.066,69.294 343.066,76.806C343.066,77.913 343.589,78.989 344.553,80.019C354.197,84.796 373.042,88.04 394.713,88.04C418.71,88.04 439.23,84.06 447.64,78.428C447.884,77.896 448.024,77.355 448.024,76.806C448.023,69.294 424.528,63.204 395.545,63.204Z" style="fill:none;fill-rule:nonzero;stroke-linecap:round;stroke-linejoin:round;stroke-miterlimit:10;" />
                <svg:ellipse cx="394.712" cy="72.745" rx="57.01" ry="15.295" style="fill:none;stroke-linecap:round;stroke-linejoin:round;stroke-miterlimit:10;" />
                <svg:path d="M359.344,79.154C359.344,79.154 356.001,74.782 358.058,73.239C360.115,71.696 370.401,68.61 372.201,71.182C374.001,73.754 373.744,76.6 371.687,77.877C369.63,79.154 359.344,79.154 359.344,79.154Z" style="fill:rgb(248,232,196);fill-rule:nonzero;" />
                <svg:path d="M418.12,76.707C418.12,76.707 415.151,72.073 417.329,70.706C419.507,69.339 430.014,67.117 431.594,69.828C433.174,72.539 432.682,75.355 430.526,76.457C428.371,77.56 418.12,76.707 418.12,76.707Z" style="fill:rgb(248,232,196);fill-rule:nonzero;" />
                <svg:path d="M402.526,71.612C402.526,71.612 401.17,67.886 402.917,67.268C404.664,66.65 412.401,66.745 413.085,68.901C413.769,71.057 412.978,72.959 411.289,73.393C409.598,73.828 402.526,71.612 402.526,71.612Z" style="fill:rgb(248,232,196);fill-rule:nonzero;" />
                <svg:path d="M389.561,81.898C389.561,81.898 388.204,78.172 389.952,77.554C391.699,76.936 399.436,77.031 400.12,79.187C400.804,81.343 400.013,83.245 398.324,83.679C396.633,84.115 389.561,81.898 389.561,81.898Z" style="fill:rgb(248,232,196);fill-rule:nonzero;" />
                <svg:path d="M381.216,71.365C381.216,71.365 378.511,66.572 380.762,65.329C383.013,64.086 393.628,62.455 395.054,65.251C396.48,68.047 395.831,70.83 393.617,71.81C391.403,72.79 381.216,71.365 381.216,71.365Z" style="fill:rgb(248,232,196);fill-rule:nonzero;" />
                <svg:path d="M359.344,79.154C359.344,79.154 356.001,74.782 358.058,73.239C360.115,71.696 370.401,68.61 372.201,71.182C374.001,73.754 373.744,76.6 371.687,77.877C369.63,79.154 359.344,79.154 359.344,79.154Z" style="fill:none;fill-rule:nonzero;stroke-linecap:round;stroke-miterlimit:10;" />
                <svg:path d="M418.12,76.707C418.12,76.707 415.151,72.073 417.329,70.706C419.507,69.339 430.014,67.117 431.594,69.828C433.174,72.539 432.682,75.355 430.526,76.457C428.371,77.56 418.12,76.707 418.12,76.707Z" style="fill:none;fill-rule:nonzero;stroke-linecap:round;stroke-miterlimit:10;" />
                <svg:path d="M402.526,71.612C402.526,71.612 401.17,67.886 402.917,67.268C404.664,66.65 412.401,66.745 413.085,68.901C413.769,71.057 412.978,72.959 411.289,73.393C409.598,73.828 402.526,71.612 402.526,71.612Z" style="fill:none;fill-rule:nonzero;stroke-linecap:round;stroke-miterlimit:10;" />
                <svg:path d="M389.561,81.898C389.561,81.898 388.204,78.172 389.952,77.554C391.699,76.936 399.436,77.031 400.12,79.187C400.804,81.343 400.013,83.245 398.324,83.679C396.633,84.115 389.561,81.898 389.561,81.898Z" style="fill:none;fill-rule:nonzero;stroke-linecap:round;stroke-miterlimit:10;" />
                <svg:path d="M381.216,71.365C381.216,71.365 378.511,66.572 380.762,65.329C383.013,64.086 393.628,62.455 395.054,65.251C396.48,68.047 395.831,70.83 393.617,71.81C391.403,72.79 381.216,71.365 381.216,71.365Z" style="fill:none;fill-rule:nonzero;stroke-linecap:round;stroke-miterlimit:10;" />
                <svg:path d="M372.638,136.171C371.153,136.171 369.949,134.967 369.949,133.482L369.949,126.47C369.949,124.985 371.153,123.782 372.638,123.782C374.123,123.782 375.326,124.986 375.326,126.47L375.326,133.482C375.327,134.967 374.123,136.171 372.638,136.171Z" style="fill:rgb(91,21,64);fill-rule:nonzero;" />
                <svg:path d="M416.786,136.171C415.301,136.171 414.098,134.967 414.098,133.482L414.098,126.47C414.098,124.985 415.302,123.782 416.786,123.782C418.271,123.782 419.475,124.986 419.475,126.47L419.475,133.482C419.474,134.967 418.271,136.171 416.786,136.171Z" style="fill:rgb(91,21,64);fill-rule:nonzero;" />
                <svg:path d="M386.543,133.997C386.543,133.997 388.299,137.145 394.379,137.145C400.459,137.145 402.881,133.997 402.881,133.997" style="fill:none;fill-rule:nonzero;stroke-linecap:round;stroke-miterlimit:10;" />
            </svg:g>
            <svg:g transform="matrix(0.213068,0,0,0.213068,-4.92355,311.82)">
                <svg:path d="M455.638,91.15L443.484,91.15C438.381,91.15 434.044,94.879 433.28,99.925L429.526,124.702C428.58,130.947 433.415,136.569 439.73,136.569L451.884,136.569C456.987,136.569 461.324,132.84 462.089,127.794L465.843,103.017C466.788,96.773 461.954,91.15 455.638,91.15ZM458.303,107.519L456.108,122.009C455.661,124.96 453.125,127.141 450.14,127.141L443.032,127.141C439.338,127.141 436.511,123.853 437.064,120.201L439.259,105.711C439.706,102.76 442.242,100.579 445.227,100.579L452.335,100.579C456.029,100.579 458.856,103.867 458.303,107.519Z" style="fill:rgb(236,204,205);fill-rule:nonzero;" />
                <svg:path d="M455.638,91.15L443.484,91.15C438.381,91.15 434.044,94.879 433.28,99.925L429.526,124.702C428.58,130.947 433.415,136.569 439.73,136.569L451.884,136.569C456.987,136.569 461.324,132.84 462.089,127.794L465.843,103.017C466.788,96.773 461.954,91.15 455.638,91.15ZM458.303,107.519L456.108,122.009C455.661,124.96 453.125,127.141 450.14,127.141L443.032,127.141C439.338,127.141 436.511,123.853 437.064,120.201L439.259,105.711C439.706,102.76 442.242,100.579 445.227,100.579L452.335,100.579C456.029,100.579 458.856,103.867 458.303,107.519Z" style="fill:none;fill-rule:nonzero;stroke-linecap:round;stroke-linejoin:round;stroke-miterlimit:10;" />
                <svg:path d="M337.702,72.745C339.556,75.526 356.236,147.832 356.236,147.832C356.236,153.8 373.463,158.638 394.713,158.638C415.963,158.638 433.189,153.8 433.189,147.832L451.723,72.745L337.702,72.745Z" style="fill:rgb(236,204,205);fill-rule:nonzero;" />
                <svg:path d="M356.236,147.831C356.236,153.799 373.463,158.637 394.713,158.637C395.429,158.637 396.139,158.63 396.846,158.62C391.784,156.615 386.129,154.25 379.868,151.457C358.891,142.099 352.056,100.633 349.839,72.744L337.703,72.744C339.556,75.526 356.236,147.831 356.236,147.831Z" style="fill:rgb(233,160,187);fill-rule:nonzero;" />
                <svg:path d="M337.702,72.745C339.556,75.526 356.236,147.832 356.236,147.832C356.236,153.8 373.463,158.638 394.713,158.638C415.963,158.638 433.189,153.8 433.189,147.832L451.723,72.745L337.702,72.745Z" style="fill:none;fill-rule:nonzero;stroke-linecap:round;stroke-linejoin:round;stroke-miterlimit:10;" />
                <svg:ellipse cx="394.712" cy="72.745" rx="57.01" ry="15.295" style="fill:rgb(233,160,187);" />
                <svg:path d="M395.545,63.204C366.562,63.204 343.066,69.294 343.066,76.806C343.066,77.913 343.589,78.989 344.553,80.019C354.197,84.796 373.042,88.04 394.713,88.04C418.71,88.04 439.23,84.06 447.64,78.428C447.884,77.896 448.024,77.355 448.024,76.806C448.023,69.294 424.528,63.204 395.545,63.204Z" style="fill:rgb(160,99,99);fill-rule:nonzero;" />
                <svg:path d="M395.545,63.204C366.562,63.204 343.066,69.294 343.066,76.806C343.066,77.913 343.589,78.989 344.553,80.019C354.197,84.796 373.042,88.04 394.713,88.04C418.71,88.04 439.23,84.06 447.64,78.428C447.884,77.896 448.024,77.355 448.024,76.806C448.023,69.294 424.528,63.204 395.545,63.204Z" style="fill:none;fill-rule:nonzero;stroke-linecap:round;stroke-linejoin:round;stroke-miterlimit:10;" />
                <svg:ellipse cx="394.712" cy="72.745" rx="57.01" ry="15.295" style="fill:none;stroke-linecap:round;stroke-linejoin:round;stroke-miterlimit:10;" />
                <svg:path d="M359.344,79.154C359.344,79.154 356.001,74.782 358.058,73.239C360.115,71.696 370.401,68.61 372.201,71.182C374.001,73.754 373.744,76.6 371.687,77.877C369.63,79.154 359.344,79.154 359.344,79.154Z" style="fill:rgb(248,232,196);fill-rule:nonzero;" />
                <svg:path d="M418.12,76.707C418.12,76.707 415.151,72.073 417.329,70.706C419.507,69.339 430.014,67.117 431.594,69.828C433.174,72.539 432.682,75.355 430.526,76.457C428.371,77.56 418.12,76.707 418.12,76.707Z" style="fill:rgb(248,232,196);fill-rule:nonzero;" />
                <svg:path d="M402.526,71.612C402.526,71.612 401.17,67.886 402.917,67.268C404.664,66.65 412.401,66.745 413.085,68.901C413.769,71.057 412.978,72.959 411.289,73.393C409.598,73.828 402.526,71.612 402.526,71.612Z" style="fill:rgb(248,232,196);fill-rule:nonzero;" />
                <svg:path d="M389.561,81.898C389.561,81.898 388.204,78.172 389.952,77.554C391.699,76.936 399.436,77.031 400.12,79.187C400.804,81.343 400.013,83.245 398.324,83.679C396.633,84.115 389.561,81.898 389.561,81.898Z" style="fill:rgb(248,232,196);fill-rule:nonzero;" />
                <svg:path d="M381.216,71.365C381.216,71.365 378.511,66.572 380.762,65.329C383.013,64.086 393.628,62.455 395.054,65.251C396.48,68.047 395.831,70.83 393.617,71.81C391.403,72.79 381.216,71.365 381.216,71.365Z" style="fill:rgb(248,232,196);fill-rule:nonzero;" />
                <svg:path d="M359.344,79.154C359.344,79.154 356.001,74.782 358.058,73.239C360.115,71.696 370.401,68.61 372.201,71.182C374.001,73.754 373.744,76.6 371.687,77.877C369.63,79.154 359.344,79.154 359.344,79.154Z" style="fill:none;fill-rule:nonzero;stroke-linecap:round;stroke-miterlimit:10;" />
                <svg:path d="M418.12,76.707C418.12,76.707 415.151,72.073 417.329,70.706C419.507,69.339 430.014,67.117 431.594,69.828C433.174,72.539 432.682,75.355 430.526,76.457C428.371,77.56 418.12,76.707 418.12,76.707Z" style="fill:none;fill-rule:nonzero;stroke-linecap:round;stroke-miterlimit:10;" />
                <svg:path d="M402.526,71.612C402.526,71.612 401.17,67.886 402.917,67.268C404.664,66.65 412.401,66.745 413.085,68.901C413.769,71.057 412.978,72.959 411.289,73.393C409.598,73.828 402.526,71.612 402.526,71.612Z" style="fill:none;fill-rule:nonzero;stroke-linecap:round;stroke-miterlimit:10;" />
                <svg:path d="M389.561,81.898C389.561,81.898 388.204,78.172 389.952,77.554C391.699,76.936 399.436,77.031 400.12,79.187C400.804,81.343 400.013,83.245 398.324,83.679C396.633,84.115 389.561,81.898 389.561,81.898Z" style="fill:none;fill-rule:nonzero;stroke-linecap:round;stroke-miterlimit:10;" />
                <svg:path d="M381.216,71.365C381.216,71.365 378.511,66.572 380.762,65.329C383.013,64.086 393.628,62.455 395.054,65.251C396.48,68.047 395.831,70.83 393.617,71.81C391.403,72.79 381.216,71.365 381.216,71.365Z" style="fill:none;fill-rule:nonzero;stroke-linecap:round;stroke-miterlimit:10;" />
                <svg:path d="M372.638,136.171C371.153,136.171 369.949,134.967 369.949,133.482L369.949,126.47C369.949,124.985 371.153,123.782 372.638,123.782C374.123,123.782 375.326,124.986 375.326,126.47L375.326,133.482C375.327,134.967 374.123,136.171 372.638,136.171Z" style="fill:rgb(91,21,64);fill-rule:nonzero;" />
                <svg:path d="M416.786,136.171C415.301,136.171 414.098,134.967 414.098,133.482L414.098,126.47C414.098,124.985 415.302,123.782 416.786,123.782C418.271,123.782 419.475,124.986 419.475,126.47L419.475,133.482C419.474,134.967 418.271,136.171 416.786,136.171Z" style="fill:rgb(91,21,64);fill-rule:nonzero;" />
                <svg:path d="M386.543,133.997C386.543,133.997 388.299,137.145 394.379,137.145C400.459,137.145 402.881,133.997 402.881,133.997" style="fill:none;fill-rule:nonzero;stroke-linecap:round;stroke-miterlimit:10;" />
            </svg:g>
        </svg:g>
    </g>
</svg>