<?xml version='1.0' encoding='UTF-8'?>
<svg xmlns="http://www.w3.org/2000/svg" xmlns:xlink="http://www.w3.org/1999/xlink" xmlns:svg="http://www.w3.org/2000/svg" xmlns:serif="http://www.serif.com/" height="100%" style="fill-rule:evenodd;clip-rule:evenodd;" version="1.1" viewBox="67.5 380.0 25.0 100.0" width="100%">
    <g>
        <svg:rect x="67.5" y="380" width="25" height="100" style="fill:rgb(255,212,121);" />
        <svg:g transform="matrix(0.156369,0,0,0.156369,40.8295,354.695)">
            <svg:rect x="197.824" y="341.731" width="77.661" height="97.69" style="fill:rgb(193,198,230);" />
            <svg:path d="M311.163,425.595L275.483,439.423L275.483,341.733L311.163,327.905L311.163,425.595Z" style="fill:rgb(171,180,233);fill-rule:nonzero;" />
            <svg:path d="M275.483,409.95L311.163,396.122L311.163,351.009L275.483,364.837L275.483,409.95Z" style="fill:rgb(233,160,187);fill-rule:nonzero;" />
            <svg:path d="M311.163,425.595L275.483,439.423L275.483,341.733L311.163,327.905L311.163,425.595Z" style="fill:none;fill-rule:nonzero;stroke-linecap:round;stroke-linejoin:round;stroke-miterlimit:10;" />
            <svg:path d="M197.824,341.731L221.817,311.325L287.15,311.325L275.483,341.733L197.824,341.731Z" style="fill:rgb(204,207,230);fill-rule:nonzero;" />
            <svg:path d="M311.163,327.905L275.483,341.733L287.15,311.325L311.163,327.905Z" style="fill:rgb(153,162,209);fill-rule:nonzero;" />
            <svg:path d="M197.824,341.731L221.817,311.325L287.15,311.325L275.483,341.733L197.824,341.731Z" style="fill:none;fill-rule:nonzero;stroke-linecap:round;stroke-miterlimit:10;" />
            <svg:path d="M311.163,327.905L275.483,341.733L287.15,311.325L311.163,327.905Z" style="fill:none;fill-rule:nonzero;stroke-linecap:round;stroke-linejoin:round;stroke-miterlimit:10;" />
            <svg:rect x="221.817" y="302.483" width="65.333" height="8.842" style="fill:rgb(171,180,233);" />
            <svg:rect x="221.817" y="302.483" width="65.333" height="8.842" style="fill:none;stroke-linecap:round;stroke-linejoin:round;stroke-miterlimit:10;" />
            <svg:rect x="197.824" y="364.69" width="77.238" height="45.26" style="fill:rgb(252,218,219);" />
            <svg:rect x="197.824" y="341.731" width="77.661" height="97.69" style="fill:none;stroke-linecap:round;stroke-linejoin:round;stroke-miterlimit:10;" />
            <svg:path d="M210.972,398.161C209.487,398.161 208.284,396.957 208.284,395.472L208.284,388.46C208.284,386.975 209.488,385.771 210.972,385.771C212.457,385.771 213.66,386.975 213.66,388.46L213.66,395.472C213.66,396.957 212.456,398.161 210.972,398.161Z" style="fill:rgb(91,21,64);fill-rule:nonzero;" />
            <svg:path d="M255.119,398.161C253.634,398.161 252.43,396.957 252.43,395.472L252.43,388.46C252.43,386.975 253.634,385.771 255.119,385.771C256.604,385.771 257.807,386.975 257.807,388.46L257.807,395.472C257.807,396.957 256.604,398.161 255.119,398.161Z" style="fill:rgb(91,21,64);fill-rule:nonzero;" />
            <svg:path d="M224.876,395.986C224.876,395.986 226.632,399.134 232.712,399.134C238.792,399.134 241.213,395.986 241.213,395.986" style="fill:none;fill-rule:nonzero;stroke-linecap:round;stroke-miterlimit:10;" />
        </svg:g>
        <svg:g transform="matrix(0.156369,0,0,0.156369,40.1762,386.356)">
            <svg:rect x="197.824" y="341.731" width="77.661" height="97.69" style="fill:rgb(193,198,230);" />
            <svg:path d="M311.163,425.595L275.483,439.423L275.483,341.733L311.163,327.905L311.163,425.595Z" style="fill:rgb(171,180,233);fill-rule:nonzero;" />
            <svg:path d="M275.483,409.95L311.163,396.122L311.163,351.009L275.483,364.837L275.483,409.95Z" style="fill:rgb(233,160,187);fill-rule:nonzero;" />
            <svg:path d="M311.163,425.595L275.483,439.423L275.483,341.733L311.163,327.905L311.163,425.595Z" style="fill:none;fill-rule:nonzero;stroke-linecap:round;stroke-linejoin:round;stroke-miterlimit:10;" />
            <svg:path d="M197.824,341.731L221.817,311.325L287.15,311.325L275.483,341.733L197.824,341.731Z" style="fill:rgb(204,207,230);fill-rule:nonzero;" />
            <svg:path d="M311.163,327.905L275.483,341.733L287.15,311.325L311.163,327.905Z" style="fill:rgb(153,162,209);fill-rule:nonzero;" />
            <svg:path d="M197.824,341.731L221.817,311.325L287.15,311.325L275.483,341.733L197.824,341.731Z" style="fill:none;fill-rule:nonzero;stroke-linecap:round;stroke-miterlimit:10;" />
            <svg:path d="M311.163,327.905L275.483,341.733L287.15,311.325L311.163,327.905Z" style="fill:none;fill-rule:nonzero;stroke-linecap:round;stroke-linejoin:round;stroke-miterlimit:10;" />
            <svg:rect x="221.817" y="302.483" width="65.333" height="8.842" style="fill:rgb(171,180,233);" />
            <svg:rect x="221.817" y="302.483" width="65.333" height="8.842" style="fill:none;stroke-linecap:round;stroke-linejoin:round;stroke-miterlimit:10;" />
            <svg:rect x="197.824" y="364.69" width="77.238" height="45.26" style="fill:rgb(252,218,219);" />
            <svg:rect x="197.824" y="341.731" width="77.661" height="97.69" style="fill:none;stroke-linecap:round;stroke-linejoin:round;stroke-miterlimit:10;" />
            <svg:path d="M210.972,398.161C209.487,398.161 208.284,396.957 208.284,395.472L208.284,388.46C208.284,386.975 209.488,385.771 210.972,385.771C212.457,385.771 213.66,386.975 213.66,388.46L213.66,395.472C213.66,396.957 212.456,398.161 210.972,398.161Z" style="fill:rgb(91,21,64);fill-rule:nonzero;" />
            <svg:path d="M255.119,398.161C253.634,398.161 252.43,396.957 252.43,395.472L252.43,388.46C252.43,386.975 253.634,385.771 255.119,385.771C256.604,385.771 257.807,386.975 257.807,388.46L257.807,395.472C257.807,396.957 256.604,398.161 255.119,398.161Z" style="fill:rgb(91,21,64);fill-rule:nonzero;" />
            <svg:path d="M224.876,395.986C224.876,395.986 226.632,399.134 232.712,399.134C238.792,399.134 241.213,395.986 241.213,395.986" style="fill:none;fill-rule:nonzero;stroke-linecap:round;stroke-miterlimit:10;" />
        </svg:g>
    </g>
</svg>