<?xml version='1.0' encoding='UTF-8'?>
<svg xmlns="http://www.w3.org/2000/svg" xmlns:xlink="http://www.w3.org/1999/xlink" xmlns:svg="http://www.w3.org/2000/svg" xmlns:serif="http://www.serif.com/" height="100%" style="fill-rule:evenodd;clip-rule:evenodd;" version="1.1" viewBox="71.667 620.0 16.667 100.0" width="100%">
    <g>
        <svg:rect x="71.667" y="620" width="16.667" height="100" style="fill:rgb(255,212,121);" />
        <svg:g>
            <svg:g transform="matrix(0.145348,0,0,0.145348,68.2966,623.458)">
                <svg:g>
                    <svg:g>
                        <svg:g>
                            <svg:g>
                                <svg:g>
                                    <svg:path d="M109.806,97.955C105.126,90.523 99.942,83.851 96.043,65.751C92.442,49.034 78.977,48.531 78.977,48.531L78.977,48.533L78.977,48.531C78.977,48.531 65.22,48.516 61.912,65.751C58.421,83.935 52.829,90.523 48.149,97.955C43.47,105.387 35.214,122.452 42.37,137.866C49.526,153.279 71.27,156.857 78.977,156.857L78.977,156.854L78.977,156.857C86.683,156.857 108.428,153.279 115.585,137.866C122.741,122.452 114.483,105.387 109.806,97.955Z" style="fill:rgb(118,221,159);fill-rule:nonzero;" />
                                </svg:g>
                                <svg:g>
                                    <svg:g>
                                        <svg:g>
                                            <svg:path d="M105.686,98.565C101.633,91.966 96.863,86.101 93.761,69.971C90.662,53.841 78.977,54.571 78.977,54.571L78.977,54.573L78.977,54.571C78.977,54.571 67.292,53.842 64.191,69.971C61.09,86.101 56.321,91.966 52.267,98.565C48.212,105.164 41.058,120.317 47.259,134.004C53.459,147.689 72.3,150.819 78.977,150.819L78.977,150.816L78.977,150.819C85.654,150.819 104.495,147.688 110.694,134.004C116.895,120.317 109.741,105.164 105.686,98.565Z" style="fill:rgb(239,222,137);fill-rule:nonzero;" />
                                        </svg:g>
                                    </svg:g>
                                    <svg:g>
                                        <svg:path d="M105.686,98.565C101.633,91.966 96.863,86.101 93.761,69.971C90.662,53.841 78.977,54.571 78.977,54.571L78.977,54.573L78.977,54.571C78.977,54.571 78.092,54.518 76.751,54.772C80.298,55.443 87.06,58.27 89.309,69.971C92.41,86.101 97.18,91.966 101.234,98.565C105.288,105.164 112.442,120.317 106.242,134.004C100.635,146.381 84.687,150.124 76.751,150.727C77.59,150.79 78.34,150.82 78.978,150.82L78.978,150.817L78.978,150.82C85.655,150.82 104.496,147.689 110.695,134.005C116.895,120.317 109.741,105.164 105.686,98.565Z" style="fill:rgb(234,212,117);fill-rule:nonzero;" />
                                    </svg:g>
                                </svg:g>
                            </svg:g>
                            <svg:g>
                                <svg:g>
                                    <svg:g>
                                        <svg:path d="M92.738,127.802C92.738,135.402 86.577,141.563 78.977,141.563C71.377,141.563 65.215,135.402 65.215,127.802C65.215,120.201 71.376,114.04 78.977,114.04C86.577,114.04 92.738,120.201 92.738,127.802Z" style="fill:rgb(237,137,110);fill-rule:nonzero;" />
                                    </svg:g>
                                    <svg:g>
                                        <svg:path d="M86.611,116.354C87.45,118.132 87.932,120.112 87.932,122.208C87.932,129.808 81.771,135.969 74.171,135.969C71.347,135.969 68.722,135.115 66.537,133.655C68.738,138.324 73.474,141.562 78.976,141.562C86.576,141.562 92.737,135.401 92.737,127.801C92.738,123.026 90.304,118.822 86.611,116.354Z" style="fill:rgb(232,119,93);fill-rule:nonzero;" />
                                    </svg:g>
                                </svg:g>
                                <svg:g>
                                    <svg:path d="M75.385,125.973C73.637,129.115 70.809,130.878 69.07,129.911C67.331,128.942 67.338,125.61 69.087,122.467C70.836,119.324 73.663,117.562 75.402,118.529C77.141,119.497 77.134,122.829 75.385,125.973Z" style="fill:rgb(255,183,160);fill-rule:nonzero;" />
                                </svg:g>
                            </svg:g>
                            <svg:path d="M67.341,54.115C65.003,56.659 62.947,60.361 61.912,65.751C58.421,83.935 52.829,90.523 48.149,97.955C45.043,102.889 40.364,112.071 39.661,122.196C44.314,127.204 50.104,130.176 56.382,130.176C71.729,130.176 84.171,112.432 84.171,90.543C84.172,74.205 77.239,60.18 67.341,54.115Z" style="fill:white;fill-opacity:0.2;fill-rule:nonzero;" />
                        </svg:g>
                        <svg:g>
                            <svg:g>
                                <svg:g>
                                    <svg:path d="M64.623,100.146C64.339,100.71 64.155,101.323 64.086,101.905C64.005,102.616 65.117,102.609 65.197,101.905C65.38,100.349 66.441,99.054 68.086,99.075C69.752,99.096 70.501,100.974 70.467,102.355C70.45,103.072 71.561,103.07 71.579,102.355C71.634,100.148 70.474,97.94 68.086,97.963C67.293,97.972 66.525,98.249 65.943,98.646C65.111,99.281 64.623,100.146 64.623,100.146Z" style="fill:rgb(21,47,71);fill-rule:nonzero;" />
                                </svg:g>
                                <svg:g>
                                    <svg:path d="M93.332,100.146C93.615,100.71 93.8,101.323 93.868,101.905C93.95,102.616 92.837,102.609 92.757,101.905C92.574,100.349 91.514,99.054 89.868,99.075C88.203,99.096 87.453,100.974 87.487,102.355C87.504,103.072 86.393,103.07 86.375,102.355C86.321,100.148 87.48,97.94 89.868,97.963C90.661,97.972 91.429,98.249 92.01,98.646C92.844,99.281 93.332,100.146 93.332,100.146Z" style="fill:rgb(21,47,71);fill-rule:nonzero;" />
                                </svg:g>
                            </svg:g>
                            <svg:g>
                                <svg:g>
                                    <svg:path d="M66.984,94.19C66.984,94.19 67.028,93.912 67.27,93.601C67.393,93.445 67.561,93.275 67.79,93.15C68.019,93.019 68.305,92.931 68.606,92.932C68.758,92.927 68.904,92.966 69.048,92.998C69.192,93.027 69.31,93.116 69.431,93.173C69.654,93.322 69.821,93.496 69.922,93.673C70.042,93.83 70.077,94 70.116,94.105C70.147,94.216 70.156,94.283 70.156,94.283C70.156,94.283 70.09,94.26 69.986,94.215C69.88,94.172 69.756,94.093 69.595,94.033C69.445,93.959 69.273,93.905 69.105,93.844C68.934,93.814 68.771,93.762 68.601,93.778C68.433,93.758 68.255,93.802 68.078,93.837C67.896,93.875 67.724,93.937 67.56,93.985C67.214,94.108 66.984,94.19 66.984,94.19Z" style="fill:rgb(21,47,71);fill-rule:nonzero;" />
                                </svg:g>
                                <svg:g>
                                    <svg:path d="M87.819,93.944C87.819,93.944 87.89,93.673 88.168,93.387C88.303,93.244 88.489,93.094 88.73,92.991C88.968,92.887 89.264,92.827 89.563,92.861C89.715,92.87 89.856,92.926 89.998,92.969C90.137,93.015 90.244,93.115 90.36,93.183C90.564,93.358 90.714,93.548 90.793,93.731C90.897,93.902 90.917,94.074 90.944,94.18C90.964,94.296 90.967,94.361 90.967,94.361C90.967,94.361 90.904,94.334 90.804,94.276C90.704,94.227 90.585,94.131 90.435,94.057C90.29,93.969 90.126,93.892 89.967,93.817C89.797,93.767 89.644,93.7 89.471,93.699C89.304,93.665 89.124,93.69 88.944,93.703C88.761,93.724 88.583,93.767 88.414,93.801C88.057,93.886 87.819,93.944 87.819,93.944Z" style="fill:rgb(21,47,71);fill-rule:nonzero;" />
                                </svg:g>
                            </svg:g>
                            <svg:g>
                                <svg:g>
                                    <svg:path d="M76.633,102.605C76.972,103.093 77.463,103.515 78.016,103.737C79.274,104.244 80.406,103.589 81.279,102.685C81.629,102.32 81.077,101.766 80.724,102.129C80.037,102.841 79.172,103.431 78.184,102.958C77.851,102.797 77.514,102.502 77.31,102.209C77.023,101.799 76.343,102.188 76.633,102.605Z" style="fill:rgb(21,47,71);fill-rule:nonzero;" />
                                </svg:g>
                            </svg:g>
                            <svg:g>
                                <svg:g>
                                    <svg:path d="M69.643,105.788C69.643,107.191 68.505,108.329 67.102,108.329C65.699,108.329 64.562,107.191 64.562,105.788C64.562,104.386 65.699,103.248 67.102,103.248C68.505,103.248 69.643,104.386 69.643,105.788Z" style="fill:rgb(255,129,206);fill-rule:nonzero;" />
                                </svg:g>
                                <svg:g>
                                    <svg:path d="M93.394,105.788C93.394,107.191 92.256,108.329 90.854,108.329C89.45,108.329 88.313,107.191 88.313,105.788C88.313,104.386 89.45,103.248 90.854,103.248C92.256,103.248 93.394,104.386 93.394,105.788Z" style="fill:rgb(255,129,206);fill-rule:nonzero;" />
                                </svg:g>
                            </svg:g>
                        </svg:g>
                    </svg:g>
                    <svg:g>
                        <svg:g>
                            <svg:path d="M78.977,157.348L78.551,157.345C74.335,157.281 67.204,156.274 60.289,153.6C51.393,150.159 45.043,144.789 41.924,138.073C34.199,121.436 44.418,102.961 47.734,97.694C48.35,96.716 48.982,95.753 49.623,94.775C53.744,88.487 58.416,81.361 61.431,65.66C63.173,56.584 67.828,52.277 71.426,50.262C75.347,48.067 78.831,48.041 78.978,48.041C79.116,48.041 92.834,48.52 96.523,65.648C100,81.794 104.45,88.711 108.755,95.4C109.248,96.166 109.736,96.925 110.221,97.693C113.536,102.96 123.753,121.435 116.031,138.072C112.912,144.789 106.561,150.158 97.665,153.599C90.785,156.26 83.692,157.27 79.469,157.343L79.469,157.344L79.354,157.345C79.225,157.347 79.1,157.348 78.977,157.348ZM78.957,49.023C78.836,49.023 65.594,49.176 62.394,65.843C59.342,81.735 54.615,88.947 50.443,95.312C49.805,96.285 49.177,97.243 48.564,98.216C45.315,103.376 35.298,121.47 42.814,137.658C49.904,152.929 71.848,156.366 78.977,156.366L78.977,156.819L78.977,156.366C86.105,156.366 108.049,152.928 115.14,137.658C122.655,121.471 112.638,103.376 109.389,98.216C108.908,97.45 108.42,96.693 107.929,95.93C103.577,89.167 99.077,82.174 95.563,65.855C93.746,57.419 89.335,53.294 85.956,51.321C82.593,49.356 79.548,49.062 79.034,49.026L78.957,49.023Z" style="fill:rgb(21,47,71);fill-rule:nonzero;" />
                        </svg:g>
                    </svg:g>
                    <svg:g>
                        <svg:g>
                            <svg:g>
                                <svg:path d="M78.977,151.311L78.562,151.307C74.888,151.244 68.721,150.353 62.758,148C55.033,144.952 49.52,140.183 46.812,134.206C40.11,119.413 48.973,102.99 51.848,98.309C52.361,97.476 52.884,96.655 53.414,95.823C57.151,89.955 61.017,83.886 63.709,69.88C66.6,54.839 76.743,54.077 78.746,54.077C78.879,54.077 78.963,54.081 78.994,54.082C78.991,54.081 79.075,54.077 79.206,54.077C81.21,54.077 91.352,54.839 94.243,69.88C96.935,83.886 100.8,89.953 104.538,95.821C105.068,96.654 105.592,97.475 106.103,98.309C108.979,102.991 117.841,119.413 111.14,134.206C108.432,140.183 102.918,144.952 95.193,148C89.271,150.337 83.148,151.231 79.466,151.305L79.466,151.308L79.249,151.309C79.158,151.31 79.067,151.311 78.977,151.311ZM78.486,55.062C76.131,55.137 67.308,56.353 64.673,70.064C61.945,84.255 57.852,90.68 54.242,96.35C53.715,97.177 53.194,97.994 52.685,98.823C49.873,103.4 41.204,119.449 47.706,133.801C50.991,141.053 57.901,145.029 63.119,147.088C69.184,149.48 75.452,150.329 78.977,150.329L78.977,150.776L78.977,150.329C82.502,150.329 88.769,149.479 94.835,147.088C100.053,145.028 106.963,141.053 110.248,133.801C116.75,119.448 108.081,103.4 105.269,98.823C104.759,97.994 104.239,97.176 103.711,96.348C100.1,90.679 96.008,84.254 93.279,70.064C90.603,56.137 81.542,55.102 79.36,55.059L78.486,55.062Z" style="fill:rgb(21,47,71);fill-rule:nonzero;" />
                            </svg:g>
                        </svg:g>
                    </svg:g>
                </svg:g>
                <svg:g>
                    <svg:g>
                        <svg:path d="M67.206,71.179C67.43,73.702 66.955,76.367 66.387,78.808C64.79,85.672 61.365,91.99 57.055,97.522C56.566,98.149 57.445,99.04 57.939,98.406C62.329,92.772 65.855,86.385 67.531,79.402C68.159,76.783 68.697,73.892 68.457,71.18C68.386,70.384 67.135,70.377 67.206,71.179Z" style="fill:white;fill-rule:nonzero;" />
                    </svg:g>
                    <svg:path d="M56.057,101.22C56.057,101.657 55.703,102.012 55.265,102.012C54.828,102.012 54.473,101.658 54.473,101.22C54.473,100.783 54.827,100.428 55.265,100.428C55.703,100.428 56.057,100.783 56.057,101.22Z" style="fill:white;fill-rule:nonzero;" />
                </svg:g>
            </svg:g>
            <svg:g transform="matrix(0.145348,0,0,0.145348,68.2966,651.876)">
                <svg:g>
                    <svg:g>
                        <svg:g>
                            <svg:g>
                                <svg:g>
                                    <svg:path d="M109.806,97.955C105.126,90.523 99.942,83.851 96.043,65.751C92.442,49.034 78.977,48.531 78.977,48.531L78.977,48.533L78.977,48.531C78.977,48.531 65.22,48.516 61.912,65.751C58.421,83.935 52.829,90.523 48.149,97.955C43.47,105.387 35.214,122.452 42.37,137.866C49.526,153.279 71.27,156.857 78.977,156.857L78.977,156.854L78.977,156.857C86.683,156.857 108.428,153.279 115.585,137.866C122.741,122.452 114.483,105.387 109.806,97.955Z" style="fill:rgb(118,221,159);fill-rule:nonzero;" />
                                </svg:g>
                                <svg:g>
                                    <svg:g>
                                        <svg:g>
                                            <svg:path d="M105.686,98.565C101.633,91.966 96.863,86.101 93.761,69.971C90.662,53.841 78.977,54.571 78.977,54.571L78.977,54.573L78.977,54.571C78.977,54.571 67.292,53.842 64.191,69.971C61.09,86.101 56.321,91.966 52.267,98.565C48.212,105.164 41.058,120.317 47.259,134.004C53.459,147.689 72.3,150.819 78.977,150.819L78.977,150.816L78.977,150.819C85.654,150.819 104.495,147.688 110.694,134.004C116.895,120.317 109.741,105.164 105.686,98.565Z" style="fill:rgb(239,222,137);fill-rule:nonzero;" />
                                        </svg:g>
                                    </svg:g>
                                    <svg:g>
                                        <svg:path d="M105.686,98.565C101.633,91.966 96.863,86.101 93.761,69.971C90.662,53.841 78.977,54.571 78.977,54.571L78.977,54.573L78.977,54.571C78.977,54.571 78.092,54.518 76.751,54.772C80.298,55.443 87.06,58.27 89.309,69.971C92.41,86.101 97.18,91.966 101.234,98.565C105.288,105.164 112.442,120.317 106.242,134.004C100.635,146.381 84.687,150.124 76.751,150.727C77.59,150.79 78.34,150.82 78.978,150.82L78.978,150.817L78.978,150.82C85.655,150.82 104.496,147.689 110.695,134.005C116.895,120.317 109.741,105.164 105.686,98.565Z" style="fill:rgb(234,212,117);fill-rule:nonzero;" />
                                    </svg:g>
                                </svg:g>
                            </svg:g>
                            <svg:g>
                                <svg:g>
                                    <svg:g>
                                        <svg:path d="M92.738,127.802C92.738,135.402 86.577,141.563 78.977,141.563C71.377,141.563 65.215,135.402 65.215,127.802C65.215,120.201 71.376,114.04 78.977,114.04C86.577,114.04 92.738,120.201 92.738,127.802Z" style="fill:rgb(237,137,110);fill-rule:nonzero;" />
                                    </svg:g>
                                    <svg:g>
                                        <svg:path d="M86.611,116.354C87.45,118.132 87.932,120.112 87.932,122.208C87.932,129.808 81.771,135.969 74.171,135.969C71.347,135.969 68.722,135.115 66.537,133.655C68.738,138.324 73.474,141.562 78.976,141.562C86.576,141.562 92.737,135.401 92.737,127.801C92.738,123.026 90.304,118.822 86.611,116.354Z" style="fill:rgb(232,119,93);fill-rule:nonzero;" />
                                    </svg:g>
                                </svg:g>
                                <svg:g>
                                    <svg:path d="M75.385,125.973C73.637,129.115 70.809,130.878 69.07,129.911C67.331,128.942 67.338,125.61 69.087,122.467C70.836,119.324 73.663,117.562 75.402,118.529C77.141,119.497 77.134,122.829 75.385,125.973Z" style="fill:rgb(255,183,160);fill-rule:nonzero;" />
                                </svg:g>
                            </svg:g>
                            <svg:path d="M67.341,54.115C65.003,56.659 62.947,60.361 61.912,65.751C58.421,83.935 52.829,90.523 48.149,97.955C45.043,102.889 40.364,112.071 39.661,122.196C44.314,127.204 50.104,130.176 56.382,130.176C71.729,130.176 84.171,112.432 84.171,90.543C84.172,74.205 77.239,60.18 67.341,54.115Z" style="fill:white;fill-opacity:0.2;fill-rule:nonzero;" />
                        </svg:g>
                        <svg:g>
                            <svg:g>
                                <svg:g>
                                    <svg:path d="M64.623,100.146C64.339,100.71 64.155,101.323 64.086,101.905C64.005,102.616 65.117,102.609 65.197,101.905C65.38,100.349 66.441,99.054 68.086,99.075C69.752,99.096 70.501,100.974 70.467,102.355C70.45,103.072 71.561,103.07 71.579,102.355C71.634,100.148 70.474,97.94 68.086,97.963C67.293,97.972 66.525,98.249 65.943,98.646C65.111,99.281 64.623,100.146 64.623,100.146Z" style="fill:rgb(21,47,71);fill-rule:nonzero;" />
                                </svg:g>
                                <svg:g>
                                    <svg:path d="M93.332,100.146C93.615,100.71 93.8,101.323 93.868,101.905C93.95,102.616 92.837,102.609 92.757,101.905C92.574,100.349 91.514,99.054 89.868,99.075C88.203,99.096 87.453,100.974 87.487,102.355C87.504,103.072 86.393,103.07 86.375,102.355C86.321,100.148 87.48,97.94 89.868,97.963C90.661,97.972 91.429,98.249 92.01,98.646C92.844,99.281 93.332,100.146 93.332,100.146Z" style="fill:rgb(21,47,71);fill-rule:nonzero;" />
                                </svg:g>
                            </svg:g>
                            <svg:g>
                                <svg:g>
                                    <svg:path d="M66.984,94.19C66.984,94.19 67.028,93.912 67.27,93.601C67.393,93.445 67.561,93.275 67.79,93.15C68.019,93.019 68.305,92.931 68.606,92.932C68.758,92.927 68.904,92.966 69.048,92.998C69.192,93.027 69.31,93.116 69.431,93.173C69.654,93.322 69.821,93.496 69.922,93.673C70.042,93.83 70.077,94 70.116,94.105C70.147,94.216 70.156,94.283 70.156,94.283C70.156,94.283 70.09,94.26 69.986,94.215C69.88,94.172 69.756,94.093 69.595,94.033C69.445,93.959 69.273,93.905 69.105,93.844C68.934,93.814 68.771,93.762 68.601,93.778C68.433,93.758 68.255,93.802 68.078,93.837C67.896,93.875 67.724,93.937 67.56,93.985C67.214,94.108 66.984,94.19 66.984,94.19Z" style="fill:rgb(21,47,71);fill-rule:nonzero;" />
                                </svg:g>
                                <svg:g>
                                    <svg:path d="M87.819,93.944C87.819,93.944 87.89,93.673 88.168,93.387C88.303,93.244 88.489,93.094 88.73,92.991C88.968,92.887 89.264,92.827 89.563,92.861C89.715,92.87 89.856,92.926 89.998,92.969C90.137,93.015 90.244,93.115 90.36,93.183C90.564,93.358 90.714,93.548 90.793,93.731C90.897,93.902 90.917,94.074 90.944,94.18C90.964,94.296 90.967,94.361 90.967,94.361C90.967,94.361 90.904,94.334 90.804,94.276C90.704,94.227 90.585,94.131 90.435,94.057C90.29,93.969 90.126,93.892 89.967,93.817C89.797,93.767 89.644,93.7 89.471,93.699C89.304,93.665 89.124,93.69 88.944,93.703C88.761,93.724 88.583,93.767 88.414,93.801C88.057,93.886 87.819,93.944 87.819,93.944Z" style="fill:rgb(21,47,71);fill-rule:nonzero;" />
                                </svg:g>
                            </svg:g>
                            <svg:g>
                                <svg:g>
                                    <svg:path d="M76.633,102.605C76.972,103.093 77.463,103.515 78.016,103.737C79.274,104.244 80.406,103.589 81.279,102.685C81.629,102.32 81.077,101.766 80.724,102.129C80.037,102.841 79.172,103.431 78.184,102.958C77.851,102.797 77.514,102.502 77.31,102.209C77.023,101.799 76.343,102.188 76.633,102.605Z" style="fill:rgb(21,47,71);fill-rule:nonzero;" />
                                </svg:g>
                            </svg:g>
                            <svg:g>
                                <svg:g>
                                    <svg:path d="M69.643,105.788C69.643,107.191 68.505,108.329 67.102,108.329C65.699,108.329 64.562,107.191 64.562,105.788C64.562,104.386 65.699,103.248 67.102,103.248C68.505,103.248 69.643,104.386 69.643,105.788Z" style="fill:rgb(255,129,206);fill-rule:nonzero;" />
                                </svg:g>
                                <svg:g>
                                    <svg:path d="M93.394,105.788C93.394,107.191 92.256,108.329 90.854,108.329C89.45,108.329 88.313,107.191 88.313,105.788C88.313,104.386 89.45,103.248 90.854,103.248C92.256,103.248 93.394,104.386 93.394,105.788Z" style="fill:rgb(255,129,206);fill-rule:nonzero;" />
                                </svg:g>
                            </svg:g>
                        </svg:g>
                    </svg:g>
                    <svg:g>
                        <svg:g>
                            <svg:path d="M78.977,157.348L78.551,157.345C74.335,157.281 67.204,156.274 60.289,153.6C51.393,150.159 45.043,144.789 41.924,138.073C34.199,121.436 44.418,102.961 47.734,97.694C48.35,96.716 48.982,95.753 49.623,94.775C53.744,88.487 58.416,81.361 61.431,65.66C63.173,56.584 67.828,52.277 71.426,50.262C75.347,48.067 78.831,48.041 78.978,48.041C79.116,48.041 92.834,48.52 96.523,65.648C100,81.794 104.45,88.711 108.755,95.4C109.248,96.166 109.736,96.925 110.221,97.693C113.536,102.96 123.753,121.435 116.031,138.072C112.912,144.789 106.561,150.158 97.665,153.599C90.785,156.26 83.692,157.27 79.469,157.343L79.469,157.344L79.354,157.345C79.225,157.347 79.1,157.348 78.977,157.348ZM78.957,49.023C78.836,49.023 65.594,49.176 62.394,65.843C59.342,81.735 54.615,88.947 50.443,95.312C49.805,96.285 49.177,97.243 48.564,98.216C45.315,103.376 35.298,121.47 42.814,137.658C49.904,152.929 71.848,156.366 78.977,156.366L78.977,156.819L78.977,156.366C86.105,156.366 108.049,152.928 115.14,137.658C122.655,121.471 112.638,103.376 109.389,98.216C108.908,97.45 108.42,96.693 107.929,95.93C103.577,89.167 99.077,82.174 95.563,65.855C93.746,57.419 89.335,53.294 85.956,51.321C82.593,49.356 79.548,49.062 79.034,49.026L78.957,49.023Z" style="fill:rgb(21,47,71);fill-rule:nonzero;" />
                        </svg:g>
                    </svg:g>
                    <svg:g>
                        <svg:g>
                            <svg:g>
                                <svg:path d="M78.977,151.311L78.562,151.307C74.888,151.244 68.721,150.353 62.758,148C55.033,144.952 49.52,140.183 46.812,134.206C40.11,119.413 48.973,102.99 51.848,98.309C52.361,97.476 52.884,96.655 53.414,95.823C57.151,89.955 61.017,83.886 63.709,69.88C66.6,54.839 76.743,54.077 78.746,54.077C78.879,54.077 78.963,54.081 78.994,54.082C78.991,54.081 79.075,54.077 79.206,54.077C81.21,54.077 91.352,54.839 94.243,69.88C96.935,83.886 100.8,89.953 104.538,95.821C105.068,96.654 105.592,97.475 106.103,98.309C108.979,102.991 117.841,119.413 111.14,134.206C108.432,140.183 102.918,144.952 95.193,148C89.271,150.337 83.148,151.231 79.466,151.305L79.466,151.308L79.249,151.309C79.158,151.31 79.067,151.311 78.977,151.311ZM78.486,55.062C76.131,55.137 67.308,56.353 64.673,70.064C61.945,84.255 57.852,90.68 54.242,96.35C53.715,97.177 53.194,97.994 52.685,98.823C49.873,103.4 41.204,119.449 47.706,133.801C50.991,141.053 57.901,145.029 63.119,147.088C69.184,149.48 75.452,150.329 78.977,150.329L78.977,150.776L78.977,150.329C82.502,150.329 88.769,149.479 94.835,147.088C100.053,145.028 106.963,141.053 110.248,133.801C116.75,119.448 108.081,103.4 105.269,98.823C104.759,97.994 104.239,97.176 103.711,96.348C100.1,90.679 96.008,84.254 93.279,70.064C90.603,56.137 81.542,55.102 79.36,55.059L78.486,55.062Z" style="fill:rgb(21,47,71);fill-rule:nonzero;" />
                            </svg:g>
                        </svg:g>
                    </svg:g>
                </svg:g>
                <svg:g>
                    <svg:g>
                        <svg:path d="M67.206,71.179C67.43,73.702 66.955,76.367 66.387,78.808C64.79,85.672 61.365,91.99 57.055,97.522C56.566,98.149 57.445,99.04 57.939,98.406C62.329,92.772 65.855,86.385 67.531,79.402C68.159,76.783 68.697,73.892 68.457,71.18C68.386,70.384 67.135,70.377 67.206,71.179Z" style="fill:white;fill-rule:nonzero;" />
                    </svg:g>
                    <svg:path d="M56.057,101.22C56.057,101.657 55.703,102.012 55.265,102.012C54.828,102.012 54.473,101.658 54.473,101.22C54.473,100.783 54.827,100.428 55.265,100.428C55.703,100.428 56.057,100.783 56.057,101.22Z" style="fill:white;fill-rule:nonzero;" />
                </svg:g>
            </svg:g>
            <svg:g transform="matrix(0.145348,0,0,0.145348,68.2966,680.025)">
                <svg:g>
                    <svg:g>
                        <svg:g>
                            <svg:g>
                                <svg:g>
                                    <svg:path d="M109.806,97.955C105.126,90.523 99.942,83.851 96.043,65.751C92.442,49.034 78.977,48.531 78.977,48.531L78.977,48.533L78.977,48.531C78.977,48.531 65.22,48.516 61.912,65.751C58.421,83.935 52.829,90.523 48.149,97.955C43.47,105.387 35.214,122.452 42.37,137.866C49.526,153.279 71.27,156.857 78.977,156.857L78.977,156.854L78.977,156.857C86.683,156.857 108.428,153.279 115.585,137.866C122.741,122.452 114.483,105.387 109.806,97.955Z" style="fill:rgb(118,221,159);fill-rule:nonzero;" />
                                </svg:g>
                                <svg:g>
                                    <svg:g>
                                        <svg:g>
                                            <svg:path d="M105.686,98.565C101.633,91.966 96.863,86.101 93.761,69.971C90.662,53.841 78.977,54.571 78.977,54.571L78.977,54.573L78.977,54.571C78.977,54.571 67.292,53.842 64.191,69.971C61.09,86.101 56.321,91.966 52.267,98.565C48.212,105.164 41.058,120.317 47.259,134.004C53.459,147.689 72.3,150.819 78.977,150.819L78.977,150.816L78.977,150.819C85.654,150.819 104.495,147.688 110.694,134.004C116.895,120.317 109.741,105.164 105.686,98.565Z" style="fill:rgb(239,222,137);fill-rule:nonzero;" />
                                        </svg:g>
                                    </svg:g>
                                    <svg:g>
                                        <svg:path d="M105.686,98.565C101.633,91.966 96.863,86.101 93.761,69.971C90.662,53.841 78.977,54.571 78.977,54.571L78.977,54.573L78.977,54.571C78.977,54.571 78.092,54.518 76.751,54.772C80.298,55.443 87.06,58.27 89.309,69.971C92.41,86.101 97.18,91.966 101.234,98.565C105.288,105.164 112.442,120.317 106.242,134.004C100.635,146.381 84.687,150.124 76.751,150.727C77.59,150.79 78.34,150.82 78.978,150.82L78.978,150.817L78.978,150.82C85.655,150.82 104.496,147.689 110.695,134.005C116.895,120.317 109.741,105.164 105.686,98.565Z" style="fill:rgb(234,212,117);fill-rule:nonzero;" />
                                    </svg:g>
                                </svg:g>
                            </svg:g>
                            <svg:g>
                                <svg:g>
                                    <svg:g>
                                        <svg:path d="M92.738,127.802C92.738,135.402 86.577,141.563 78.977,141.563C71.377,141.563 65.215,135.402 65.215,127.802C65.215,120.201 71.376,114.04 78.977,114.04C86.577,114.04 92.738,120.201 92.738,127.802Z" style="fill:rgb(237,137,110);fill-rule:nonzero;" />
                                    </svg:g>
                                    <svg:g>
                                        <svg:path d="M86.611,116.354C87.45,118.132 87.932,120.112 87.932,122.208C87.932,129.808 81.771,135.969 74.171,135.969C71.347,135.969 68.722,135.115 66.537,133.655C68.738,138.324 73.474,141.562 78.976,141.562C86.576,141.562 92.737,135.401 92.737,127.801C92.738,123.026 90.304,118.822 86.611,116.354Z" style="fill:rgb(232,119,93);fill-rule:nonzero;" />
                                    </svg:g>
                                </svg:g>
                                <svg:g>
                                    <svg:path d="M75.385,125.973C73.637,129.115 70.809,130.878 69.07,129.911C67.331,128.942 67.338,125.61 69.087,122.467C70.836,119.324 73.663,117.562 75.402,118.529C77.141,119.497 77.134,122.829 75.385,125.973Z" style="fill:rgb(255,183,160);fill-rule:nonzero;" />
                                </svg:g>
                            </svg:g>
                            <svg:path d="M67.341,54.115C65.003,56.659 62.947,60.361 61.912,65.751C58.421,83.935 52.829,90.523 48.149,97.955C45.043,102.889 40.364,112.071 39.661,122.196C44.314,127.204 50.104,130.176 56.382,130.176C71.729,130.176 84.171,112.432 84.171,90.543C84.172,74.205 77.239,60.18 67.341,54.115Z" style="fill:white;fill-opacity:0.2;fill-rule:nonzero;" />
                        </svg:g>
                        <svg:g>
                            <svg:g>
                                <svg:g>
                                    <svg:path d="M64.623,100.146C64.339,100.71 64.155,101.323 64.086,101.905C64.005,102.616 65.117,102.609 65.197,101.905C65.38,100.349 66.441,99.054 68.086,99.075C69.752,99.096 70.501,100.974 70.467,102.355C70.45,103.072 71.561,103.07 71.579,102.355C71.634,100.148 70.474,97.94 68.086,97.963C67.293,97.972 66.525,98.249 65.943,98.646C65.111,99.281 64.623,100.146 64.623,100.146Z" style="fill:rgb(21,47,71);fill-rule:nonzero;" />
                                </svg:g>
                                <svg:g>
                                    <svg:path d="M93.332,100.146C93.615,100.71 93.8,101.323 93.868,101.905C93.95,102.616 92.837,102.609 92.757,101.905C92.574,100.349 91.514,99.054 89.868,99.075C88.203,99.096 87.453,100.974 87.487,102.355C87.504,103.072 86.393,103.07 86.375,102.355C86.321,100.148 87.48,97.94 89.868,97.963C90.661,97.972 91.429,98.249 92.01,98.646C92.844,99.281 93.332,100.146 93.332,100.146Z" style="fill:rgb(21,47,71);fill-rule:nonzero;" />
                                </svg:g>
                            </svg:g>
                            <svg:g>
                                <svg:g>
                                    <svg:path d="M66.984,94.19C66.984,94.19 67.028,93.912 67.27,93.601C67.393,93.445 67.561,93.275 67.79,93.15C68.019,93.019 68.305,92.931 68.606,92.932C68.758,92.927 68.904,92.966 69.048,92.998C69.192,93.027 69.31,93.116 69.431,93.173C69.654,93.322 69.821,93.496 69.922,93.673C70.042,93.83 70.077,94 70.116,94.105C70.147,94.216 70.156,94.283 70.156,94.283C70.156,94.283 70.09,94.26 69.986,94.215C69.88,94.172 69.756,94.093 69.595,94.033C69.445,93.959 69.273,93.905 69.105,93.844C68.934,93.814 68.771,93.762 68.601,93.778C68.433,93.758 68.255,93.802 68.078,93.837C67.896,93.875 67.724,93.937 67.56,93.985C67.214,94.108 66.984,94.19 66.984,94.19Z" style="fill:rgb(21,47,71);fill-rule:nonzero;" />
                                </svg:g>
                                <svg:g>
                                    <svg:path d="M87.819,93.944C87.819,93.944 87.89,93.673 88.168,93.387C88.303,93.244 88.489,93.094 88.73,92.991C88.968,92.887 89.264,92.827 89.563,92.861C89.715,92.87 89.856,92.926 89.998,92.969C90.137,93.015 90.244,93.115 90.36,93.183C90.564,93.358 90.714,93.548 90.793,93.731C90.897,93.902 90.917,94.074 90.944,94.18C90.964,94.296 90.967,94.361 90.967,94.361C90.967,94.361 90.904,94.334 90.804,94.276C90.704,94.227 90.585,94.131 90.435,94.057C90.29,93.969 90.126,93.892 89.967,93.817C89.797,93.767 89.644,93.7 89.471,93.699C89.304,93.665 89.124,93.69 88.944,93.703C88.761,93.724 88.583,93.767 88.414,93.801C88.057,93.886 87.819,93.944 87.819,93.944Z" style="fill:rgb(21,47,71);fill-rule:nonzero;" />
                                </svg:g>
                            </svg:g>
                            <svg:g>
                                <svg:g>
                                    <svg:path d="M76.633,102.605C76.972,103.093 77.463,103.515 78.016,103.737C79.274,104.244 80.406,103.589 81.279,102.685C81.629,102.32 81.077,101.766 80.724,102.129C80.037,102.841 79.172,103.431 78.184,102.958C77.851,102.797 77.514,102.502 77.31,102.209C77.023,101.799 76.343,102.188 76.633,102.605Z" style="fill:rgb(21,47,71);fill-rule:nonzero;" />
                                </svg:g>
                            </svg:g>
                            <svg:g>
                                <svg:g>
                                    <svg:path d="M69.643,105.788C69.643,107.191 68.505,108.329 67.102,108.329C65.699,108.329 64.562,107.191 64.562,105.788C64.562,104.386 65.699,103.248 67.102,103.248C68.505,103.248 69.643,104.386 69.643,105.788Z" style="fill:rgb(255,129,206);fill-rule:nonzero;" />
                                </svg:g>
                                <svg:g>
                                    <svg:path d="M93.394,105.788C93.394,107.191 92.256,108.329 90.854,108.329C89.45,108.329 88.313,107.191 88.313,105.788C88.313,104.386 89.45,103.248 90.854,103.248C92.256,103.248 93.394,104.386 93.394,105.788Z" style="fill:rgb(255,129,206);fill-rule:nonzero;" />
                                </svg:g>
                            </svg:g>
                        </svg:g>
                    </svg:g>
                    <svg:g>
                        <svg:g>
                            <svg:path d="M78.977,157.348L78.551,157.345C74.335,157.281 67.204,156.274 60.289,153.6C51.393,150.159 45.043,144.789 41.924,138.073C34.199,121.436 44.418,102.961 47.734,97.694C48.35,96.716 48.982,95.753 49.623,94.775C53.744,88.487 58.416,81.361 61.431,65.66C63.173,56.584 67.828,52.277 71.426,50.262C75.347,48.067 78.831,48.041 78.978,48.041C79.116,48.041 92.834,48.52 96.523,65.648C100,81.794 104.45,88.711 108.755,95.4C109.248,96.166 109.736,96.925 110.221,97.693C113.536,102.96 123.753,121.435 116.031,138.072C112.912,144.789 106.561,150.158 97.665,153.599C90.785,156.26 83.692,157.27 79.469,157.343L79.469,157.344L79.354,157.345C79.225,157.347 79.1,157.348 78.977,157.348ZM78.957,49.023C78.836,49.023 65.594,49.176 62.394,65.843C59.342,81.735 54.615,88.947 50.443,95.312C49.805,96.285 49.177,97.243 48.564,98.216C45.315,103.376 35.298,121.47 42.814,137.658C49.904,152.929 71.848,156.366 78.977,156.366L78.977,156.819L78.977,156.366C86.105,156.366 108.049,152.928 115.14,137.658C122.655,121.471 112.638,103.376 109.389,98.216C108.908,97.45 108.42,96.693 107.929,95.93C103.577,89.167 99.077,82.174 95.563,65.855C93.746,57.419 89.335,53.294 85.956,51.321C82.593,49.356 79.548,49.062 79.034,49.026L78.957,49.023Z" style="fill:rgb(21,47,71);fill-rule:nonzero;" />
                        </svg:g>
                    </svg:g>
                    <svg:g>
                        <svg:g>
                            <svg:g>
                                <svg:path d="M78.977,151.311L78.562,151.307C74.888,151.244 68.721,150.353 62.758,148C55.033,144.952 49.52,140.183 46.812,134.206C40.11,119.413 48.973,102.99 51.848,98.309C52.361,97.476 52.884,96.655 53.414,95.823C57.151,89.955 61.017,83.886 63.709,69.88C66.6,54.839 76.743,54.077 78.746,54.077C78.879,54.077 78.963,54.081 78.994,54.082C78.991,54.081 79.075,54.077 79.206,54.077C81.21,54.077 91.352,54.839 94.243,69.88C96.935,83.886 100.8,89.953 104.538,95.821C105.068,96.654 105.592,97.475 106.103,98.309C108.979,102.991 117.841,119.413 111.14,134.206C108.432,140.183 102.918,144.952 95.193,148C89.271,150.337 83.148,151.231 79.466,151.305L79.466,151.308L79.249,151.309C79.158,151.31 79.067,151.311 78.977,151.311ZM78.486,55.062C76.131,55.137 67.308,56.353 64.673,70.064C61.945,84.255 57.852,90.68 54.242,96.35C53.715,97.177 53.194,97.994 52.685,98.823C49.873,103.4 41.204,119.449 47.706,133.801C50.991,141.053 57.901,145.029 63.119,147.088C69.184,149.48 75.452,150.329 78.977,150.329L78.977,150.776L78.977,150.329C82.502,150.329 88.769,149.479 94.835,147.088C100.053,145.028 106.963,141.053 110.248,133.801C116.75,119.448 108.081,103.4 105.269,98.823C104.759,97.994 104.239,97.176 103.711,96.348C100.1,90.679 96.008,84.254 93.279,70.064C90.603,56.137 81.542,55.102 79.36,55.059L78.486,55.062Z" style="fill:rgb(21,47,71);fill-rule:nonzero;" />
                            </svg:g>
                        </svg:g>
                    </svg:g>
                </svg:g>
                <svg:g>
                    <svg:g>
                        <svg:path d="M67.206,71.179C67.43,73.702 66.955,76.367 66.387,78.808C64.79,85.672 61.365,91.99 57.055,97.522C56.566,98.149 57.445,99.04 57.939,98.406C62.329,92.772 65.855,86.385 67.531,79.402C68.159,76.783 68.697,73.892 68.457,71.18C68.386,70.384 67.135,70.377 67.206,71.179Z" style="fill:white;fill-rule:nonzero;" />
                    </svg:g>
                    <svg:path d="M56.057,101.22C56.057,101.657 55.703,102.012 55.265,102.012C54.828,102.012 54.473,101.658 54.473,101.22C54.473,100.783 54.827,100.428 55.265,100.428C55.703,100.428 56.057,100.783 56.057,101.22Z" style="fill:white;fill-rule:nonzero;" />
                </svg:g>
            </svg:g>
        </svg:g>
    </g>
</svg>