<?xml version='1.0' encoding='UTF-8'?>
<svg xmlns="http://www.w3.org/2000/svg" xmlns:xlink="http://www.w3.org/1999/xlink" xmlns:svg="http://www.w3.org/2000/svg" xmlns:serif="http://www.serif.com/" height="100%" style="fill-rule:evenodd;clip-rule:evenodd;" version="1.1" viewBox="73.75 860.0 12.5 100.0" width="100%">
    <g>
        <svg:rect x="73.75" y="860" width="12.5" height="100" style="fill:rgb(115,252,214);" />
        <svg:g transform="matrix(0.852132,0,0,0.852132,12.0971,238.104)">
            <svg:g transform="matrix(0.127031,0,0,0.127031,55.5591,720.394)">
                <svg:g>
                    <svg:g>
                        <svg:g>
                            <svg:g>
                                <svg:path d="M204.937,200.366C203.902,200.083 198.818,204.74 194.219,209.228C192.4,201.689 189.239,190.684 186.292,190.684C182.957,190.684 180.318,203.479 179.185,210.034C174.39,205.316 168.743,200.066 167.646,200.366C165.674,200.904 174.997,222.775 174.997,222.775L184.499,224.748L185.725,219.602L186.773,219.24L188.085,224.748L197.587,222.775C197.587,222.775 206.909,200.904 204.937,200.366Z" style="fill:rgb(85,198,126);fill-rule:nonzero;" />
                            </svg:g>
                            <svg:g>
                                <svg:path d="M187.711,225.336L186.415,219.893L186.148,219.985L184.874,225.336L174.641,223.212L174.539,222.972C173.093,219.579 165.934,202.544 167.011,200.321C167.118,200.099 167.298,199.944 167.517,199.884C168.033,199.748 169.086,199.454 178.86,209.012C181.086,196.518 183.586,190.185 186.295,190.185C187.231,190.185 190.052,190.184 194.5,208.26C203.563,199.471 204.581,199.752 205.071,199.884C205.29,199.944 205.469,200.099 205.577,200.321C206.653,202.544 199.495,219.579 198.049,222.972L197.946,223.212L187.711,225.336ZM175.355,222.339L184.126,224.16L185.303,219.22L187.132,218.588L188.459,224.16L197.229,222.339C201.251,212.879 205.045,202.525 204.713,200.875C204.167,201.032 202.109,202.227 194.568,209.586L193.939,210.2L193.733,209.346C189.666,192.494 187.009,191.185 186.292,191.185C184.231,191.185 181.697,198.44 179.678,210.119L179.515,211.06L178.834,210.39C170.631,202.319 168.44,201.037 167.87,200.874C167.539,202.524 171.333,212.878 175.355,222.339Z" style="fill:rgb(21,47,71);fill-rule:nonzero;" />
                            </svg:g>
                        </svg:g>
                        <svg:g>
                            <svg:g>
                                <svg:path d="M193.038,222.196C193.038,222.196 189.699,204.489 186.293,204.489C182.886,204.489 179.547,222.196 179.547,222.196C179.547,222.196 164.958,212.916 165.138,216.142C165.301,219.06 173.379,227.99 174.923,229.672C175.087,229.85 175.178,229.946 175.178,229.946L197.407,229.946C197.407,229.946 197.498,229.849 197.661,229.672C199.206,227.989 207.284,219.06 207.447,216.142C207.626,212.916 193.038,222.196 193.038,222.196Z" style="fill:rgb(118,221,159);fill-rule:nonzero;" />
                            </svg:g>
                            <svg:g>
                                <svg:path d="M197.622,230.447L174.961,230.447L174.555,230.012C172.27,227.522 164.806,219.168 164.638,216.17C164.603,215.555 164.94,215.263 165.143,215.144C167.074,214.019 175.715,219.2 179.194,221.382C180.015,217.21 182.887,203.989 186.292,203.989C189.696,203.989 192.568,217.21 193.389,221.382C196.868,219.199 205.513,214.01 207.439,215.144C207.643,215.263 207.979,215.555 207.945,216.17C207.777,219.173 200.312,227.523 198.028,230.011L197.622,230.447ZM175.395,229.447L197.188,229.447L197.292,229.335C201.672,224.564 206.829,218.24 206.948,216.115C206.952,216.036 206.939,216.008 206.938,216.008C206.216,215.351 199.968,218.382 193.306,222.618L192.683,223.014L192.546,222.288C191.191,215.104 188.355,204.988 186.292,204.988C184.228,204.988 181.392,215.104 180.037,222.288L179.9,223.013L179.277,222.617C172.619,218.382 166.376,215.355 165.642,216.01C165.643,216.01 165.631,216.04 165.635,216.114C165.754,218.235 170.91,224.561 175.29,229.334L175.395,229.447Z" style="fill:rgb(21,47,71);fill-rule:nonzero;" />
                            </svg:g>
                        </svg:g>
                    </svg:g>
                    <svg:g>
                        <svg:g>
                            <svg:g>
                                <svg:g>
                                    <svg:path d="M218.53,258.639C207.432,221.501 187.367,224.916 187.367,224.916C187.367,224.916 167.303,221.501 156.205,258.639C145.106,295.779 146.388,323.525 187.367,323.525C228.349,323.524 229.629,295.778 218.53,258.639Z" style="fill:rgb(239,222,137);fill-rule:nonzero;" />
                                </svg:g>
                                <svg:g>
                                    <svg:g>
                                        <svg:clipPath id="_clip3">
                                            <svg:path d="M218.53,258.639C207.432,221.501 187.367,224.916 187.367,224.916C187.367,224.916 167.303,221.501 156.205,258.639C145.106,295.779 146.388,323.525 187.367,323.525C228.349,323.524 229.629,295.778 218.53,258.639Z" />
                                        </svg:clipPath>
                                        <svg:g clip-path="url(#_clip3)">
                                            <svg:g>
                                                <svg:g>
                                                    <svg:g>
                                                        <svg:g transform="matrix(0.7084,-0.7058,0.7058,0.7084,-125.5,175.386)">
                                                            <svg:g>
                                                                <svg:rect x="47.058" y="238.808" width="204.886" height="1.53" style="fill:rgb(224,199,95);" />
                                                            </svg:g>
                                                        </svg:g>
                                                        <svg:g transform="matrix(0.7067,-0.7075,0.7075,0.7067,-130.13,186.849)">
                                                            <svg:g>
                                                                <svg:rect x="57.876" y="249.627" width="204.886" height="1.529" style="fill:rgb(224,199,95);" />
                                                            </svg:g>
                                                        </svg:g>
                                                    </svg:g>
                                                    <svg:g>
                                                        <svg:g transform="matrix(0.7065,-0.7077,0.7077,0.7065,-134.635,197.788)">
                                                            <svg:g>
                                                                <svg:rect x="68.695" y="260.446" width="204.886" height="1.53" style="fill:rgb(224,199,95);" />
                                                            </svg:g>
                                                        </svg:g>
                                                        <svg:g transform="matrix(0.7071,-0.7071,0.7071,0.7071,-139.06,208.339)">
                                                            <svg:g>
                                                                <svg:rect x="79.515" y="271.264" width="204.885" height="1.531" style="fill:rgb(224,199,95);" />
                                                            </svg:g>
                                                        </svg:g>
                                                    </svg:g>
                                                </svg:g>
                                                <svg:g>
                                                    <svg:g>
                                                        <svg:g transform="matrix(0.7078,-0.7065,0.7065,0.7078,-143.482,218.847)">
                                                            <svg:g>
                                                                <svg:rect x="90.333" y="282.083" width="204.887" height="1.53" style="fill:rgb(224,199,95);" />
                                                            </svg:g>
                                                        </svg:g>
                                                        <svg:g transform="matrix(0.7071,-0.7071,0.7071,0.7071,-148.025,229.993)">
                                                            <svg:g>
                                                                <svg:rect x="101.152" y="292.902" width="204.886" height="1.53" style="fill:rgb(224,199,95);" />
                                                            </svg:g>
                                                        </svg:g>
                                                    </svg:g>
                                                    <svg:g>
                                                        <svg:g transform="matrix(0.7071,-0.7071,0.7071,0.7071,-152.504,240.795)">
                                                            <svg:g>
                                                                <svg:rect x="111.97" y="303.721" width="204.886" height="1.531" style="fill:rgb(224,199,95);" />
                                                            </svg:g>
                                                        </svg:g>
                                                        <svg:g transform="matrix(0.7075,-0.7067,0.7067,0.7075,-156.953,251.42)">
                                                            <svg:g>
                                                                <svg:rect x="122.79" y="314.54" width="204.886" height="1.53" style="fill:rgb(224,199,95);" />
                                                            </svg:g>
                                                        </svg:g>
                                                    </svg:g>
                                                </svg:g>
                                            </svg:g>
                                            <svg:g>
                                                <svg:g>
                                                    <svg:g>
                                                        <svg:g transform="matrix(0.7068,-0.7074,0.7074,0.7068,-103.439,229.585)">
                                                            <svg:g>
                                                                <svg:rect x="224.467" y="137.13" width="1.531" height="204.886" style="fill:rgb(224,199,95);" />
                                                            </svg:g>
                                                        </svg:g>
                                                        <svg:g transform="matrix(0.7075,-0.7067,0.7067,0.7075,-114.24,224.784)">
                                                            <svg:g>
                                                                <svg:rect x="213.649" y="147.948" width="1.53" height="204.887" style="fill:rgb(224,199,95);" />
                                                            </svg:g>
                                                        </svg:g>
                                                    </svg:g>
                                                    <svg:g>
                                                        <svg:g transform="matrix(0.7071,-0.7071,0.7071,0.7071,-125.072,220.47)">
                                                            <svg:g>
                                                                <svg:rect x="202.831" y="158.767" width="1.529" height="204.887" style="fill:rgb(224,199,95);" />
                                                            </svg:g>
                                                        </svg:g>
                                                        <svg:g transform="matrix(0.7071,-0.7071,0.7071,0.7071,-135.888,215.974)">
                                                            <svg:g>
                                                                <svg:rect x="192.012" y="169.586" width="1.529" height="204.886" style="fill:rgb(224,199,95);" />
                                                            </svg:g>
                                                        </svg:g>
                                                    </svg:g>
                                                </svg:g>
                                                <svg:g>
                                                    <svg:g>
                                                        <svg:g transform="matrix(0.7078,-0.7065,0.7065,0.7078,-146.644,211.204)">
                                                            <svg:g>
                                                                <svg:rect x="181.192" y="180.405" width="1.531" height="204.887" style="fill:rgb(224,199,95);" />
                                                            </svg:g>
                                                        </svg:g>
                                                        <svg:g transform="matrix(0.7068,-0.7074,0.7074,0.7068,-157.565,207.163)">
                                                            <svg:g>
                                                                <svg:rect x="170.373" y="191.224" width="1.53" height="204.886" style="fill:rgb(224,199,95);" />
                                                            </svg:g>
                                                        </svg:g>
                                                    </svg:g>
                                                    <svg:g>
                                                        <svg:g transform="matrix(0.7065,-0.7077,0.7077,0.7065,-168.437,202.834)">
                                                            <svg:g>
                                                                <svg:rect x="159.554" y="202.043" width="1.53" height="204.886" style="fill:rgb(224,199,95);" />
                                                            </svg:g>
                                                        </svg:g>
                                                        <svg:g transform="matrix(0.7065,-0.7078,0.7078,0.7065,-179.275,198.368)">
                                                            <svg:g>
                                                                <svg:rect x="148.736" y="212.862" width="1.529" height="204.886" style="fill:rgb(224,199,95);" />
                                                            </svg:g>
                                                        </svg:g>
                                                    </svg:g>
                                                </svg:g>
                                            </svg:g>
                                        </svg:g>
                                    </svg:g>
                                </svg:g>
                                <svg:path d="M179.762,226.03C172.913,228.549 162.918,236.172 156.205,258.639C147.63,287.335 146.451,310.418 165.257,319.433C179.953,309.65 190.09,288.937 190.09,264.964C190.091,250.13 186.203,236.551 179.762,226.03Z" style="fill:white;fill-opacity:0.2;fill-rule:nonzero;" />
                            </svg:g>
                            <svg:g opacity="0.1">
                                <svg:path d="M218.53,258.639C210.999,233.435 199.343,226.915 192.626,225.323C197.352,230.299 202.189,238.247 205.98,250.933C217.079,288.073 215.798,315.819 174.818,315.819C167.822,315.819 162.008,314.993 157.19,313.465C162.916,319.872 172.528,323.524 187.367,323.524C228.349,323.524 229.629,295.778 218.53,258.639Z" style="fill:rgb(232,119,93);fill-rule:nonzero;" />
                            </svg:g>
                        </svg:g>
                        <svg:g>
                            <svg:g>
                                <svg:g>
                                    <svg:path d="M203.581,284.2C203.902,283.561 204.11,282.87 204.188,282.213C204.281,281.409 203.024,281.418 202.933,282.213C202.727,283.97 201.528,285.434 199.67,285.408C197.788,285.385 196.941,283.263 196.98,281.704C197.001,280.894 195.746,280.895 195.725,281.704C195.662,284.196 196.973,286.691 199.67,286.665C200.566,286.653 201.433,286.341 202.09,285.894C203.031,285.177 203.581,284.2 203.581,284.2Z" style="fill:rgb(21,47,71);fill-rule:nonzero;" />
                                </svg:g>
                                <svg:g>
                                    <svg:path d="M171.153,284.2C170.834,283.561 170.626,282.87 170.548,282.213C170.455,281.409 171.712,281.418 171.805,282.213C172.01,283.97 173.208,285.434 175.067,285.408C176.948,285.385 177.794,283.263 177.756,281.704C177.736,280.894 178.991,280.895 179.013,281.704C179.074,284.196 177.763,286.691 175.067,286.665C174.171,286.653 173.304,286.341 172.647,285.894C171.706,285.177 171.153,284.2 171.153,284.2Z" style="fill:rgb(21,47,71);fill-rule:nonzero;" />
                                </svg:g>
                            </svg:g>
                            <svg:g>
                                <svg:g>
                                    <svg:path d="M173.819,276.837C173.819,276.837 173.869,276.522 174.142,276.17C174.281,275.994 174.47,275.803 174.728,275.661C174.988,275.513 175.31,275.414 175.651,275.415C175.823,275.41 175.987,275.454 176.151,275.49C176.312,275.523 176.447,275.624 176.584,275.687C176.835,275.855 177.022,276.052 177.139,276.252C177.275,276.43 177.315,276.621 177.359,276.739C177.394,276.864 177.404,276.94 177.404,276.94C177.404,276.94 177.33,276.913 177.212,276.862C177.092,276.814 176.953,276.724 176.771,276.658C176.602,276.573 176.408,276.511 176.217,276.442C176.025,276.409 175.84,276.351 175.649,276.369C175.46,276.347 175.258,276.397 175.057,276.434C174.852,276.478 174.657,276.546 174.472,276.604C174.078,276.743 173.819,276.837 173.819,276.837Z" style="fill:rgb(21,47,71);fill-rule:nonzero;" />
                                </svg:g>
                                <svg:g>
                                    <svg:path d="M197.353,276.557C197.353,276.557 197.433,276.253 197.747,275.929C197.9,275.768 198.11,275.598 198.383,275.484C198.653,275.366 198.987,275.299 199.325,275.336C199.494,275.347 199.654,275.411 199.814,275.459C199.971,275.511 200.093,275.625 200.223,275.7C200.454,275.898 200.623,276.112 200.712,276.32C200.83,276.51 200.854,276.707 200.884,276.826C200.906,276.958 200.91,277.03 200.91,277.03C200.91,277.03 200.839,277 200.725,276.934C200.614,276.879 200.478,276.772 200.308,276.687C200.145,276.587 199.959,276.501 199.779,276.416C199.588,276.359 199.415,276.283 199.22,276.281C199.031,276.244 198.828,276.271 198.623,276.287C198.417,276.311 198.215,276.359 198.024,276.396C197.621,276.491 197.353,276.557 197.353,276.557Z" style="fill:rgb(21,47,71);fill-rule:nonzero;" />
                                </svg:g>
                            </svg:g>
                            <svg:g>
                                <svg:g>
                                    <svg:path d="M184.719,286.341C185.101,286.893 185.657,287.369 186.281,287.621C187.701,288.191 188.98,287.452 189.965,286.432C190.36,286.02 189.736,285.394 189.339,285.805C188.564,286.609 187.587,287.274 186.469,286.741C186.093,286.558 185.713,286.226 185.483,285.895C185.16,285.429 184.392,285.87 184.719,286.341Z" style="fill:rgb(21,47,71);fill-rule:nonzero;" />
                                </svg:g>
                            </svg:g>
                            <svg:g>
                                <svg:g>
                                    <svg:path d="M176.821,289.935C176.821,291.522 175.537,292.805 173.951,292.805C172.367,292.805 171.082,291.522 171.082,289.935C171.082,288.351 172.367,287.066 173.951,287.066C175.537,287.066 176.821,288.352 176.821,289.935Z" style="fill:rgb(255,129,206);fill-rule:nonzero;" />
                                </svg:g>
                                <svg:g>
                                    <svg:path d="M203.65,289.935C203.65,291.522 202.364,292.805 200.781,292.805C199.194,292.805 197.911,291.522 197.911,289.935C197.911,288.351 199.194,287.066 200.781,287.066C202.364,287.066 203.65,288.352 203.65,289.935Z" style="fill:rgb(255,129,206);fill-rule:nonzero;" />
                                </svg:g>
                            </svg:g>
                        </svg:g>
                        <svg:g>
                            <svg:path d="M187.367,324.024C171.834,324.024 161.394,320.146 155.452,312.169C147.776,301.863 147.863,284.808 155.726,258.495C161.505,239.156 169.774,230.922 175.693,227.42C181.821,223.794 186.676,224.311 187.372,224.411C188.862,224.228 208.289,222.616 219.009,258.495C226.872,284.808 226.959,301.863 219.283,312.169C213.341,320.147 202.901,324.024 187.367,324.024ZM186.157,225.346C181.821,225.346 166.006,227.586 156.684,258.782C148.919,284.765 148.783,301.54 156.254,311.571C161.994,319.278 172.172,323.024 187.367,323.024C202.563,323.024 212.741,319.278 218.481,311.571C225.953,301.54 225.816,284.766 218.051,258.782C207.227,222.559 187.648,225.373 187.45,225.409L187.368,225.423L187.284,225.409C187.257,225.405 186.856,225.346 186.157,225.346Z" style="fill:rgb(21,47,71);fill-rule:nonzero;" />
                        </svg:g>
                    </svg:g>
                </svg:g>
                <svg:g>
                    <svg:g>
                        <svg:path d="M172.312,236.463C170.906,237.452 169.804,238.976 168.832,240.36C165.685,244.842 163.575,250.056 161.886,255.234C160.219,260.343 159.001,265.588 158.025,270.869C157.88,271.655 159.084,271.993 159.23,271.201C160.704,263.218 162.691,255.186 166.096,247.784C167.603,244.507 169.393,241.167 171.895,238.528C172.161,238.247 172.438,237.979 172.726,237.722C172.916,237.552 172.966,237.526 172.942,237.542C173.596,237.083 172.972,235.998 172.312,236.463Z" style="fill:white;fill-rule:nonzero;" />
                    </svg:g>
                    <svg:path d="M158.583,274.873C158.583,275.258 158.271,275.569 157.887,275.569C157.502,275.569 157.191,275.257 157.191,274.873C157.191,274.488 157.503,274.177 157.887,274.177C158.271,274.177 158.583,274.488 158.583,274.873Z" style="fill:white;fill-rule:nonzero;" />
                </svg:g>
            </svg:g>
            <svg:g transform="matrix(0.127031,0,0,0.127031,55.2794,740.632)">
                <svg:g>
                    <svg:g>
                        <svg:g>
                            <svg:g>
                                <svg:path d="M204.937,200.366C203.902,200.083 198.818,204.74 194.219,209.228C192.4,201.689 189.239,190.684 186.292,190.684C182.957,190.684 180.318,203.479 179.185,210.034C174.39,205.316 168.743,200.066 167.646,200.366C165.674,200.904 174.997,222.775 174.997,222.775L184.499,224.748L185.725,219.602L186.773,219.24L188.085,224.748L197.587,222.775C197.587,222.775 206.909,200.904 204.937,200.366Z" style="fill:rgb(85,198,126);fill-rule:nonzero;" />
                            </svg:g>
                            <svg:g>
                                <svg:path d="M187.711,225.336L186.415,219.893L186.148,219.985L184.874,225.336L174.641,223.212L174.539,222.972C173.093,219.579 165.934,202.544 167.011,200.321C167.118,200.099 167.298,199.944 167.517,199.884C168.033,199.748 169.086,199.454 178.86,209.012C181.086,196.518 183.586,190.185 186.295,190.185C187.231,190.185 190.052,190.184 194.5,208.26C203.563,199.471 204.581,199.752 205.071,199.884C205.29,199.944 205.469,200.099 205.577,200.321C206.653,202.544 199.495,219.579 198.049,222.972L197.946,223.212L187.711,225.336ZM175.355,222.339L184.126,224.16L185.303,219.22L187.132,218.588L188.459,224.16L197.229,222.339C201.251,212.879 205.045,202.525 204.713,200.875C204.167,201.032 202.109,202.227 194.568,209.586L193.939,210.2L193.733,209.346C189.666,192.494 187.009,191.185 186.292,191.185C184.231,191.185 181.697,198.44 179.678,210.119L179.515,211.06L178.834,210.39C170.631,202.319 168.44,201.037 167.87,200.874C167.539,202.524 171.333,212.878 175.355,222.339Z" style="fill:rgb(21,47,71);fill-rule:nonzero;" />
                            </svg:g>
                        </svg:g>
                        <svg:g>
                            <svg:g>
                                <svg:path d="M193.038,222.196C193.038,222.196 189.699,204.489 186.293,204.489C182.886,204.489 179.547,222.196 179.547,222.196C179.547,222.196 164.958,212.916 165.138,216.142C165.301,219.06 173.379,227.99 174.923,229.672C175.087,229.85 175.178,229.946 175.178,229.946L197.407,229.946C197.407,229.946 197.498,229.849 197.661,229.672C199.206,227.989 207.284,219.06 207.447,216.142C207.626,212.916 193.038,222.196 193.038,222.196Z" style="fill:rgb(118,221,159);fill-rule:nonzero;" />
                            </svg:g>
                            <svg:g>
                                <svg:path d="M197.622,230.447L174.961,230.447L174.555,230.012C172.27,227.522 164.806,219.168 164.638,216.17C164.603,215.555 164.94,215.263 165.143,215.144C167.074,214.019 175.715,219.2 179.194,221.382C180.015,217.21 182.887,203.989 186.292,203.989C189.696,203.989 192.568,217.21 193.389,221.382C196.868,219.199 205.513,214.01 207.439,215.144C207.643,215.263 207.979,215.555 207.945,216.17C207.777,219.173 200.312,227.523 198.028,230.011L197.622,230.447ZM175.395,229.447L197.188,229.447L197.292,229.335C201.672,224.564 206.829,218.24 206.948,216.115C206.952,216.036 206.939,216.008 206.938,216.008C206.216,215.351 199.968,218.382 193.306,222.618L192.683,223.014L192.546,222.288C191.191,215.104 188.355,204.988 186.292,204.988C184.228,204.988 181.392,215.104 180.037,222.288L179.9,223.013L179.277,222.617C172.619,218.382 166.376,215.355 165.642,216.01C165.643,216.01 165.631,216.04 165.635,216.114C165.754,218.235 170.91,224.561 175.29,229.334L175.395,229.447Z" style="fill:rgb(21,47,71);fill-rule:nonzero;" />
                            </svg:g>
                        </svg:g>
                    </svg:g>
                    <svg:g>
                        <svg:g>
                            <svg:g>
                                <svg:g>
                                    <svg:path d="M218.53,258.639C207.432,221.501 187.367,224.916 187.367,224.916C187.367,224.916 167.303,221.501 156.205,258.639C145.106,295.779 146.388,323.525 187.367,323.525C228.349,323.524 229.629,295.778 218.53,258.639Z" style="fill:rgb(239,222,137);fill-rule:nonzero;" />
                                </svg:g>
                                <svg:g>
                                    <svg:g>
                                        <svg:clipPath id="_clip4">
                                            <svg:path d="M218.53,258.639C207.432,221.501 187.367,224.916 187.367,224.916C187.367,224.916 167.303,221.501 156.205,258.639C145.106,295.779 146.388,323.525 187.367,323.525C228.349,323.524 229.629,295.778 218.53,258.639Z" />
                                        </svg:clipPath>
                                        <svg:g clip-path="url(#_clip4)">
                                            <svg:g>
                                                <svg:g>
                                                    <svg:g>
                                                        <svg:g transform="matrix(0.7084,-0.7058,0.7058,0.7084,-125.5,175.386)">
                                                            <svg:g>
                                                                <svg:rect x="47.058" y="238.808" width="204.886" height="1.53" style="fill:rgb(224,199,95);" />
                                                            </svg:g>
                                                        </svg:g>
                                                        <svg:g transform="matrix(0.7067,-0.7075,0.7075,0.7067,-130.13,186.849)">
                                                            <svg:g>
                                                                <svg:rect x="57.876" y="249.627" width="204.886" height="1.529" style="fill:rgb(224,199,95);" />
                                                            </svg:g>
                                                        </svg:g>
                                                    </svg:g>
                                                    <svg:g>
                                                        <svg:g transform="matrix(0.7065,-0.7077,0.7077,0.7065,-134.635,197.788)">
                                                            <svg:g>
                                                                <svg:rect x="68.695" y="260.446" width="204.886" height="1.53" style="fill:rgb(224,199,95);" />
                                                            </svg:g>
                                                        </svg:g>
                                                        <svg:g transform="matrix(0.7071,-0.7071,0.7071,0.7071,-139.06,208.339)">
                                                            <svg:g>
                                                                <svg:rect x="79.515" y="271.264" width="204.885" height="1.531" style="fill:rgb(224,199,95);" />
                                                            </svg:g>
                                                        </svg:g>
                                                    </svg:g>
                                                </svg:g>
                                                <svg:g>
                                                    <svg:g>
                                                        <svg:g transform="matrix(0.7078,-0.7065,0.7065,0.7078,-143.482,218.847)">
                                                            <svg:g>
                                                                <svg:rect x="90.333" y="282.083" width="204.887" height="1.53" style="fill:rgb(224,199,95);" />
                                                            </svg:g>
                                                        </svg:g>
                                                        <svg:g transform="matrix(0.7071,-0.7071,0.7071,0.7071,-148.025,229.993)">
                                                            <svg:g>
                                                                <svg:rect x="101.152" y="292.902" width="204.886" height="1.53" style="fill:rgb(224,199,95);" />
                                                            </svg:g>
                                                        </svg:g>
                                                    </svg:g>
                                                    <svg:g>
                                                        <svg:g transform="matrix(0.7071,-0.7071,0.7071,0.7071,-152.504,240.795)">
                                                            <svg:g>
                                                                <svg:rect x="111.97" y="303.721" width="204.886" height="1.531" style="fill:rgb(224,199,95);" />
                                                            </svg:g>
                                                        </svg:g>
                                                        <svg:g transform="matrix(0.7075,-0.7067,0.7067,0.7075,-156.953,251.42)">
                                                            <svg:g>
                                                                <svg:rect x="122.79" y="314.54" width="204.886" height="1.53" style="fill:rgb(224,199,95);" />
                                                            </svg:g>
                                                        </svg:g>
                                                    </svg:g>
                                                </svg:g>
                                            </svg:g>
                                            <svg:g>
                                                <svg:g>
                                                    <svg:g>
                                                        <svg:g transform="matrix(0.7068,-0.7074,0.7074,0.7068,-103.439,229.585)">
                                                            <svg:g>
                                                                <svg:rect x="224.467" y="137.13" width="1.531" height="204.886" style="fill:rgb(224,199,95);" />
                                                            </svg:g>
                                                        </svg:g>
                                                        <svg:g transform="matrix(0.7075,-0.7067,0.7067,0.7075,-114.24,224.784)">
                                                            <svg:g>
                                                                <svg:rect x="213.649" y="147.948" width="1.53" height="204.887" style="fill:rgb(224,199,95);" />
                                                            </svg:g>
                                                        </svg:g>
                                                    </svg:g>
                                                    <svg:g>
                                                        <svg:g transform="matrix(0.7071,-0.7071,0.7071,0.7071,-125.072,220.47)">
                                                            <svg:g>
                                                                <svg:rect x="202.831" y="158.767" width="1.529" height="204.887" style="fill:rgb(224,199,95);" />
                                                            </svg:g>
                                                        </svg:g>
                                                        <svg:g transform="matrix(0.7071,-0.7071,0.7071,0.7071,-135.888,215.974)">
                                                            <svg:g>
                                                                <svg:rect x="192.012" y="169.586" width="1.529" height="204.886" style="fill:rgb(224,199,95);" />
                                                            </svg:g>
                                                        </svg:g>
                                                    </svg:g>
                                                </svg:g>
                                                <svg:g>
                                                    <svg:g>
                                                        <svg:g transform="matrix(0.7078,-0.7065,0.7065,0.7078,-146.644,211.204)">
                                                            <svg:g>
                                                                <svg:rect x="181.192" y="180.405" width="1.531" height="204.887" style="fill:rgb(224,199,95);" />
                                                            </svg:g>
                                                        </svg:g>
                                                        <svg:g transform="matrix(0.7068,-0.7074,0.7074,0.7068,-157.565,207.163)">
                                                            <svg:g>
                                                                <svg:rect x="170.373" y="191.224" width="1.53" height="204.886" style="fill:rgb(224,199,95);" />
                                                            </svg:g>
                                                        </svg:g>
                                                    </svg:g>
                                                    <svg:g>
                                                        <svg:g transform="matrix(0.7065,-0.7077,0.7077,0.7065,-168.437,202.834)">
                                                            <svg:g>
                                                                <svg:rect x="159.554" y="202.043" width="1.53" height="204.886" style="fill:rgb(224,199,95);" />
                                                            </svg:g>
                                                        </svg:g>
                                                        <svg:g transform="matrix(0.7065,-0.7078,0.7078,0.7065,-179.275,198.368)">
                                                            <svg:g>
                                                                <svg:rect x="148.736" y="212.862" width="1.529" height="204.886" style="fill:rgb(224,199,95);" />
                                                            </svg:g>
                                                        </svg:g>
                                                    </svg:g>
                                                </svg:g>
                                            </svg:g>
                                        </svg:g>
                                    </svg:g>
                                </svg:g>
                                <svg:path d="M179.762,226.03C172.913,228.549 162.918,236.172 156.205,258.639C147.63,287.335 146.451,310.418 165.257,319.433C179.953,309.65 190.09,288.937 190.09,264.964C190.091,250.13 186.203,236.551 179.762,226.03Z" style="fill:white;fill-opacity:0.2;fill-rule:nonzero;" />
                            </svg:g>
                            <svg:g opacity="0.1">
                                <svg:path d="M218.53,258.639C210.999,233.435 199.343,226.915 192.626,225.323C197.352,230.299 202.189,238.247 205.98,250.933C217.079,288.073 215.798,315.819 174.818,315.819C167.822,315.819 162.008,314.993 157.19,313.465C162.916,319.872 172.528,323.524 187.367,323.524C228.349,323.524 229.629,295.778 218.53,258.639Z" style="fill:rgb(232,119,93);fill-rule:nonzero;" />
                            </svg:g>
                        </svg:g>
                        <svg:g>
                            <svg:g>
                                <svg:g>
                                    <svg:path d="M203.581,284.2C203.902,283.561 204.11,282.87 204.188,282.213C204.281,281.409 203.024,281.418 202.933,282.213C202.727,283.97 201.528,285.434 199.67,285.408C197.788,285.385 196.941,283.263 196.98,281.704C197.001,280.894 195.746,280.895 195.725,281.704C195.662,284.196 196.973,286.691 199.67,286.665C200.566,286.653 201.433,286.341 202.09,285.894C203.031,285.177 203.581,284.2 203.581,284.2Z" style="fill:rgb(21,47,71);fill-rule:nonzero;" />
                                </svg:g>
                                <svg:g>
                                    <svg:path d="M171.153,284.2C170.834,283.561 170.626,282.87 170.548,282.213C170.455,281.409 171.712,281.418 171.805,282.213C172.01,283.97 173.208,285.434 175.067,285.408C176.948,285.385 177.794,283.263 177.756,281.704C177.736,280.894 178.991,280.895 179.013,281.704C179.074,284.196 177.763,286.691 175.067,286.665C174.171,286.653 173.304,286.341 172.647,285.894C171.706,285.177 171.153,284.2 171.153,284.2Z" style="fill:rgb(21,47,71);fill-rule:nonzero;" />
                                </svg:g>
                            </svg:g>
                            <svg:g>
                                <svg:g>
                                    <svg:path d="M173.819,276.837C173.819,276.837 173.869,276.522 174.142,276.17C174.281,275.994 174.47,275.803 174.728,275.661C174.988,275.513 175.31,275.414 175.651,275.415C175.823,275.41 175.987,275.454 176.151,275.49C176.312,275.523 176.447,275.624 176.584,275.687C176.835,275.855 177.022,276.052 177.139,276.252C177.275,276.43 177.315,276.621 177.359,276.739C177.394,276.864 177.404,276.94 177.404,276.94C177.404,276.94 177.33,276.913 177.212,276.862C177.092,276.814 176.953,276.724 176.771,276.658C176.602,276.573 176.408,276.511 176.217,276.442C176.025,276.409 175.84,276.351 175.649,276.369C175.46,276.347 175.258,276.397 175.057,276.434C174.852,276.478 174.657,276.546 174.472,276.604C174.078,276.743 173.819,276.837 173.819,276.837Z" style="fill:rgb(21,47,71);fill-rule:nonzero;" />
                                </svg:g>
                                <svg:g>
                                    <svg:path d="M197.353,276.557C197.353,276.557 197.433,276.253 197.747,275.929C197.9,275.768 198.11,275.598 198.383,275.484C198.653,275.366 198.987,275.299 199.325,275.336C199.494,275.347 199.654,275.411 199.814,275.459C199.971,275.511 200.093,275.625 200.223,275.7C200.454,275.898 200.623,276.112 200.712,276.32C200.83,276.51 200.854,276.707 200.884,276.826C200.906,276.958 200.91,277.03 200.91,277.03C200.91,277.03 200.839,277 200.725,276.934C200.614,276.879 200.478,276.772 200.308,276.687C200.145,276.587 199.959,276.501 199.779,276.416C199.588,276.359 199.415,276.283 199.22,276.281C199.031,276.244 198.828,276.271 198.623,276.287C198.417,276.311 198.215,276.359 198.024,276.396C197.621,276.491 197.353,276.557 197.353,276.557Z" style="fill:rgb(21,47,71);fill-rule:nonzero;" />
                                </svg:g>
                            </svg:g>
                            <svg:g>
                                <svg:g>
                                    <svg:path d="M184.719,286.341C185.101,286.893 185.657,287.369 186.281,287.621C187.701,288.191 188.98,287.452 189.965,286.432C190.36,286.02 189.736,285.394 189.339,285.805C188.564,286.609 187.587,287.274 186.469,286.741C186.093,286.558 185.713,286.226 185.483,285.895C185.16,285.429 184.392,285.87 184.719,286.341Z" style="fill:rgb(21,47,71);fill-rule:nonzero;" />
                                </svg:g>
                            </svg:g>
                            <svg:g>
                                <svg:g>
                                    <svg:path d="M176.821,289.935C176.821,291.522 175.537,292.805 173.951,292.805C172.367,292.805 171.082,291.522 171.082,289.935C171.082,288.351 172.367,287.066 173.951,287.066C175.537,287.066 176.821,288.352 176.821,289.935Z" style="fill:rgb(255,129,206);fill-rule:nonzero;" />
                                </svg:g>
                                <svg:g>
                                    <svg:path d="M203.65,289.935C203.65,291.522 202.364,292.805 200.781,292.805C199.194,292.805 197.911,291.522 197.911,289.935C197.911,288.351 199.194,287.066 200.781,287.066C202.364,287.066 203.65,288.352 203.65,289.935Z" style="fill:rgb(255,129,206);fill-rule:nonzero;" />
                                </svg:g>
                            </svg:g>
                        </svg:g>
                        <svg:g>
                            <svg:path d="M187.367,324.024C171.834,324.024 161.394,320.146 155.452,312.169C147.776,301.863 147.863,284.808 155.726,258.495C161.505,239.156 169.774,230.922 175.693,227.42C181.821,223.794 186.676,224.311 187.372,224.411C188.862,224.228 208.289,222.616 219.009,258.495C226.872,284.808 226.959,301.863 219.283,312.169C213.341,320.147 202.901,324.024 187.367,324.024ZM186.157,225.346C181.821,225.346 166.006,227.586 156.684,258.782C148.919,284.765 148.783,301.54 156.254,311.571C161.994,319.278 172.172,323.024 187.367,323.024C202.563,323.024 212.741,319.278 218.481,311.571C225.953,301.54 225.816,284.766 218.051,258.782C207.227,222.559 187.648,225.373 187.45,225.409L187.368,225.423L187.284,225.409C187.257,225.405 186.856,225.346 186.157,225.346Z" style="fill:rgb(21,47,71);fill-rule:nonzero;" />
                        </svg:g>
                    </svg:g>
                </svg:g>
                <svg:g>
                    <svg:g>
                        <svg:path d="M172.312,236.463C170.906,237.452 169.804,238.976 168.832,240.36C165.685,244.842 163.575,250.056 161.886,255.234C160.219,260.343 159.001,265.588 158.025,270.869C157.88,271.655 159.084,271.993 159.23,271.201C160.704,263.218 162.691,255.186 166.096,247.784C167.603,244.507 169.393,241.167 171.895,238.528C172.161,238.247 172.438,237.979 172.726,237.722C172.916,237.552 172.966,237.526 172.942,237.542C173.596,237.083 172.972,235.998 172.312,236.463Z" style="fill:white;fill-rule:nonzero;" />
                    </svg:g>
                    <svg:path d="M158.583,274.873C158.583,275.258 158.271,275.569 157.887,275.569C157.502,275.569 157.191,275.257 157.191,274.873C157.191,274.488 157.503,274.177 157.887,274.177C158.271,274.177 158.583,274.488 158.583,274.873Z" style="fill:white;fill-rule:nonzero;" />
                </svg:g>
            </svg:g>
            <svg:g transform="matrix(0.127031,0,0,0.127031,56.2327,761.729)">
                <svg:g>
                    <svg:g>
                        <svg:g>
                            <svg:g>
                                <svg:path d="M204.937,200.366C203.902,200.083 198.818,204.74 194.219,209.228C192.4,201.689 189.239,190.684 186.292,190.684C182.957,190.684 180.318,203.479 179.185,210.034C174.39,205.316 168.743,200.066 167.646,200.366C165.674,200.904 174.997,222.775 174.997,222.775L184.499,224.748L185.725,219.602L186.773,219.24L188.085,224.748L197.587,222.775C197.587,222.775 206.909,200.904 204.937,200.366Z" style="fill:rgb(85,198,126);fill-rule:nonzero;" />
                            </svg:g>
                            <svg:g>
                                <svg:path d="M187.711,225.336L186.415,219.893L186.148,219.985L184.874,225.336L174.641,223.212L174.539,222.972C173.093,219.579 165.934,202.544 167.011,200.321C167.118,200.099 167.298,199.944 167.517,199.884C168.033,199.748 169.086,199.454 178.86,209.012C181.086,196.518 183.586,190.185 186.295,190.185C187.231,190.185 190.052,190.184 194.5,208.26C203.563,199.471 204.581,199.752 205.071,199.884C205.29,199.944 205.469,200.099 205.577,200.321C206.653,202.544 199.495,219.579 198.049,222.972L197.946,223.212L187.711,225.336ZM175.355,222.339L184.126,224.16L185.303,219.22L187.132,218.588L188.459,224.16L197.229,222.339C201.251,212.879 205.045,202.525 204.713,200.875C204.167,201.032 202.109,202.227 194.568,209.586L193.939,210.2L193.733,209.346C189.666,192.494 187.009,191.185 186.292,191.185C184.231,191.185 181.697,198.44 179.678,210.119L179.515,211.06L178.834,210.39C170.631,202.319 168.44,201.037 167.87,200.874C167.539,202.524 171.333,212.878 175.355,222.339Z" style="fill:rgb(21,47,71);fill-rule:nonzero;" />
                            </svg:g>
                        </svg:g>
                        <svg:g>
                            <svg:g>
                                <svg:path d="M193.038,222.196C193.038,222.196 189.699,204.489 186.293,204.489C182.886,204.489 179.547,222.196 179.547,222.196C179.547,222.196 164.958,212.916 165.138,216.142C165.301,219.06 173.379,227.99 174.923,229.672C175.087,229.85 175.178,229.946 175.178,229.946L197.407,229.946C197.407,229.946 197.498,229.849 197.661,229.672C199.206,227.989 207.284,219.06 207.447,216.142C207.626,212.916 193.038,222.196 193.038,222.196Z" style="fill:rgb(118,221,159);fill-rule:nonzero;" />
                            </svg:g>
                            <svg:g>
                                <svg:path d="M197.622,230.447L174.961,230.447L174.555,230.012C172.27,227.522 164.806,219.168 164.638,216.17C164.603,215.555 164.94,215.263 165.143,215.144C167.074,214.019 175.715,219.2 179.194,221.382C180.015,217.21 182.887,203.989 186.292,203.989C189.696,203.989 192.568,217.21 193.389,221.382C196.868,219.199 205.513,214.01 207.439,215.144C207.643,215.263 207.979,215.555 207.945,216.17C207.777,219.173 200.312,227.523 198.028,230.011L197.622,230.447ZM175.395,229.447L197.188,229.447L197.292,229.335C201.672,224.564 206.829,218.24 206.948,216.115C206.952,216.036 206.939,216.008 206.938,216.008C206.216,215.351 199.968,218.382 193.306,222.618L192.683,223.014L192.546,222.288C191.191,215.104 188.355,204.988 186.292,204.988C184.228,204.988 181.392,215.104 180.037,222.288L179.9,223.013L179.277,222.617C172.619,218.382 166.376,215.355 165.642,216.01C165.643,216.01 165.631,216.04 165.635,216.114C165.754,218.235 170.91,224.561 175.29,229.334L175.395,229.447Z" style="fill:rgb(21,47,71);fill-rule:nonzero;" />
                            </svg:g>
                        </svg:g>
                    </svg:g>
                    <svg:g>
                        <svg:g>
                            <svg:g>
                                <svg:g>
                                    <svg:path d="M218.53,258.639C207.432,221.501 187.367,224.916 187.367,224.916C187.367,224.916 167.303,221.501 156.205,258.639C145.106,295.779 146.388,323.525 187.367,323.525C228.349,323.524 229.629,295.778 218.53,258.639Z" style="fill:rgb(239,222,137);fill-rule:nonzero;" />
                                </svg:g>
                                <svg:g>
                                    <svg:g>
                                        <svg:clipPath id="_clip5">
                                            <svg:path d="M218.53,258.639C207.432,221.501 187.367,224.916 187.367,224.916C187.367,224.916 167.303,221.501 156.205,258.639C145.106,295.779 146.388,323.525 187.367,323.525C228.349,323.524 229.629,295.778 218.53,258.639Z" />
                                        </svg:clipPath>
                                        <svg:g clip-path="url(#_clip5)">
                                            <svg:g>
                                                <svg:g>
                                                    <svg:g>
                                                        <svg:g transform="matrix(0.7084,-0.7058,0.7058,0.7084,-125.5,175.386)">
                                                            <svg:g>
                                                                <svg:rect x="47.058" y="238.808" width="204.886" height="1.53" style="fill:rgb(224,199,95);" />
                                                            </svg:g>
                                                        </svg:g>
                                                        <svg:g transform="matrix(0.7067,-0.7075,0.7075,0.7067,-130.13,186.849)">
                                                            <svg:g>
                                                                <svg:rect x="57.876" y="249.627" width="204.886" height="1.529" style="fill:rgb(224,199,95);" />
                                                            </svg:g>
                                                        </svg:g>
                                                    </svg:g>
                                                    <svg:g>
                                                        <svg:g transform="matrix(0.7065,-0.7077,0.7077,0.7065,-134.635,197.788)">
                                                            <svg:g>
                                                                <svg:rect x="68.695" y="260.446" width="204.886" height="1.53" style="fill:rgb(224,199,95);" />
                                                            </svg:g>
                                                        </svg:g>
                                                        <svg:g transform="matrix(0.7071,-0.7071,0.7071,0.7071,-139.06,208.339)">
                                                            <svg:g>
                                                                <svg:rect x="79.515" y="271.264" width="204.885" height="1.531" style="fill:rgb(224,199,95);" />
                                                            </svg:g>
                                                        </svg:g>
                                                    </svg:g>
                                                </svg:g>
                                                <svg:g>
                                                    <svg:g>
                                                        <svg:g transform="matrix(0.7078,-0.7065,0.7065,0.7078,-143.482,218.847)">
                                                            <svg:g>
                                                                <svg:rect x="90.333" y="282.083" width="204.887" height="1.53" style="fill:rgb(224,199,95);" />
                                                            </svg:g>
                                                        </svg:g>
                                                        <svg:g transform="matrix(0.7071,-0.7071,0.7071,0.7071,-148.025,229.993)">
                                                            <svg:g>
                                                                <svg:rect x="101.152" y="292.902" width="204.886" height="1.53" style="fill:rgb(224,199,95);" />
                                                            </svg:g>
                                                        </svg:g>
                                                    </svg:g>
                                                    <svg:g>
                                                        <svg:g transform="matrix(0.7071,-0.7071,0.7071,0.7071,-152.504,240.795)">
                                                            <svg:g>
                                                                <svg:rect x="111.97" y="303.721" width="204.886" height="1.531" style="fill:rgb(224,199,95);" />
                                                            </svg:g>
                                                        </svg:g>
                                                        <svg:g transform="matrix(0.7075,-0.7067,0.7067,0.7075,-156.953,251.42)">
                                                            <svg:g>
                                                                <svg:rect x="122.79" y="314.54" width="204.886" height="1.53" style="fill:rgb(224,199,95);" />
                                                            </svg:g>
                                                        </svg:g>
                                                    </svg:g>
                                                </svg:g>
                                            </svg:g>
                                            <svg:g>
                                                <svg:g>
                                                    <svg:g>
                                                        <svg:g transform="matrix(0.7068,-0.7074,0.7074,0.7068,-103.439,229.585)">
                                                            <svg:g>
                                                                <svg:rect x="224.467" y="137.13" width="1.531" height="204.886" style="fill:rgb(224,199,95);" />
                                                            </svg:g>
                                                        </svg:g>
                                                        <svg:g transform="matrix(0.7075,-0.7067,0.7067,0.7075,-114.24,224.784)">
                                                            <svg:g>
                                                                <svg:rect x="213.649" y="147.948" width="1.53" height="204.887" style="fill:rgb(224,199,95);" />
                                                            </svg:g>
                                                        </svg:g>
                                                    </svg:g>
                                                    <svg:g>
                                                        <svg:g transform="matrix(0.7071,-0.7071,0.7071,0.7071,-125.072,220.47)">
                                                            <svg:g>
                                                                <svg:rect x="202.831" y="158.767" width="1.529" height="204.887" style="fill:rgb(224,199,95);" />
                                                            </svg:g>
                                                        </svg:g>
                                                        <svg:g transform="matrix(0.7071,-0.7071,0.7071,0.7071,-135.888,215.974)">
                                                            <svg:g>
                                                                <svg:rect x="192.012" y="169.586" width="1.529" height="204.886" style="fill:rgb(224,199,95);" />
                                                            </svg:g>
                                                        </svg:g>
                                                    </svg:g>
                                                </svg:g>
                                                <svg:g>
                                                    <svg:g>
                                                        <svg:g transform="matrix(0.7078,-0.7065,0.7065,0.7078,-146.644,211.204)">
                                                            <svg:g>
                                                                <svg:rect x="181.192" y="180.405" width="1.531" height="204.887" style="fill:rgb(224,199,95);" />
                                                            </svg:g>
                                                        </svg:g>
                                                        <svg:g transform="matrix(0.7068,-0.7074,0.7074,0.7068,-157.565,207.163)">
                                                            <svg:g>
                                                                <svg:rect x="170.373" y="191.224" width="1.53" height="204.886" style="fill:rgb(224,199,95);" />
                                                            </svg:g>
                                                        </svg:g>
                                                    </svg:g>
                                                    <svg:g>
                                                        <svg:g transform="matrix(0.7065,-0.7077,0.7077,0.7065,-168.437,202.834)">
                                                            <svg:g>
                                                                <svg:rect x="159.554" y="202.043" width="1.53" height="204.886" style="fill:rgb(224,199,95);" />
                                                            </svg:g>
                                                        </svg:g>
                                                        <svg:g transform="matrix(0.7065,-0.7078,0.7078,0.7065,-179.275,198.368)">
                                                            <svg:g>
                                                                <svg:rect x="148.736" y="212.862" width="1.529" height="204.886" style="fill:rgb(224,199,95);" />
                                                            </svg:g>
                                                        </svg:g>
                                                    </svg:g>
                                                </svg:g>
                                            </svg:g>
                                        </svg:g>
                                    </svg:g>
                                </svg:g>
                                <svg:path d="M179.762,226.03C172.913,228.549 162.918,236.172 156.205,258.639C147.63,287.335 146.451,310.418 165.257,319.433C179.953,309.65 190.09,288.937 190.09,264.964C190.091,250.13 186.203,236.551 179.762,226.03Z" style="fill:white;fill-opacity:0.2;fill-rule:nonzero;" />
                            </svg:g>
                            <svg:g opacity="0.1">
                                <svg:path d="M218.53,258.639C210.999,233.435 199.343,226.915 192.626,225.323C197.352,230.299 202.189,238.247 205.98,250.933C217.079,288.073 215.798,315.819 174.818,315.819C167.822,315.819 162.008,314.993 157.19,313.465C162.916,319.872 172.528,323.524 187.367,323.524C228.349,323.524 229.629,295.778 218.53,258.639Z" style="fill:rgb(232,119,93);fill-rule:nonzero;" />
                            </svg:g>
                        </svg:g>
                        <svg:g>
                            <svg:g>
                                <svg:g>
                                    <svg:path d="M203.581,284.2C203.902,283.561 204.11,282.87 204.188,282.213C204.281,281.409 203.024,281.418 202.933,282.213C202.727,283.97 201.528,285.434 199.67,285.408C197.788,285.385 196.941,283.263 196.98,281.704C197.001,280.894 195.746,280.895 195.725,281.704C195.662,284.196 196.973,286.691 199.67,286.665C200.566,286.653 201.433,286.341 202.09,285.894C203.031,285.177 203.581,284.2 203.581,284.2Z" style="fill:rgb(21,47,71);fill-rule:nonzero;" />
                                </svg:g>
                                <svg:g>
                                    <svg:path d="M171.153,284.2C170.834,283.561 170.626,282.87 170.548,282.213C170.455,281.409 171.712,281.418 171.805,282.213C172.01,283.97 173.208,285.434 175.067,285.408C176.948,285.385 177.794,283.263 177.756,281.704C177.736,280.894 178.991,280.895 179.013,281.704C179.074,284.196 177.763,286.691 175.067,286.665C174.171,286.653 173.304,286.341 172.647,285.894C171.706,285.177 171.153,284.2 171.153,284.2Z" style="fill:rgb(21,47,71);fill-rule:nonzero;" />
                                </svg:g>
                            </svg:g>
                            <svg:g>
                                <svg:g>
                                    <svg:path d="M173.819,276.837C173.819,276.837 173.869,276.522 174.142,276.17C174.281,275.994 174.47,275.803 174.728,275.661C174.988,275.513 175.31,275.414 175.651,275.415C175.823,275.41 175.987,275.454 176.151,275.49C176.312,275.523 176.447,275.624 176.584,275.687C176.835,275.855 177.022,276.052 177.139,276.252C177.275,276.43 177.315,276.621 177.359,276.739C177.394,276.864 177.404,276.94 177.404,276.94C177.404,276.94 177.33,276.913 177.212,276.862C177.092,276.814 176.953,276.724 176.771,276.658C176.602,276.573 176.408,276.511 176.217,276.442C176.025,276.409 175.84,276.351 175.649,276.369C175.46,276.347 175.258,276.397 175.057,276.434C174.852,276.478 174.657,276.546 174.472,276.604C174.078,276.743 173.819,276.837 173.819,276.837Z" style="fill:rgb(21,47,71);fill-rule:nonzero;" />
                                </svg:g>
                                <svg:g>
                                    <svg:path d="M197.353,276.557C197.353,276.557 197.433,276.253 197.747,275.929C197.9,275.768 198.11,275.598 198.383,275.484C198.653,275.366 198.987,275.299 199.325,275.336C199.494,275.347 199.654,275.411 199.814,275.459C199.971,275.511 200.093,275.625 200.223,275.7C200.454,275.898 200.623,276.112 200.712,276.32C200.83,276.51 200.854,276.707 200.884,276.826C200.906,276.958 200.91,277.03 200.91,277.03C200.91,277.03 200.839,277 200.725,276.934C200.614,276.879 200.478,276.772 200.308,276.687C200.145,276.587 199.959,276.501 199.779,276.416C199.588,276.359 199.415,276.283 199.22,276.281C199.031,276.244 198.828,276.271 198.623,276.287C198.417,276.311 198.215,276.359 198.024,276.396C197.621,276.491 197.353,276.557 197.353,276.557Z" style="fill:rgb(21,47,71);fill-rule:nonzero;" />
                                </svg:g>
                            </svg:g>
                            <svg:g>
                                <svg:g>
                                    <svg:path d="M184.719,286.341C185.101,286.893 185.657,287.369 186.281,287.621C187.701,288.191 188.98,287.452 189.965,286.432C190.36,286.02 189.736,285.394 189.339,285.805C188.564,286.609 187.587,287.274 186.469,286.741C186.093,286.558 185.713,286.226 185.483,285.895C185.16,285.429 184.392,285.87 184.719,286.341Z" style="fill:rgb(21,47,71);fill-rule:nonzero;" />
                                </svg:g>
                            </svg:g>
                            <svg:g>
                                <svg:g>
                                    <svg:path d="M176.821,289.935C176.821,291.522 175.537,292.805 173.951,292.805C172.367,292.805 171.082,291.522 171.082,289.935C171.082,288.351 172.367,287.066 173.951,287.066C175.537,287.066 176.821,288.352 176.821,289.935Z" style="fill:rgb(255,129,206);fill-rule:nonzero;" />
                                </svg:g>
                                <svg:g>
                                    <svg:path d="M203.65,289.935C203.65,291.522 202.364,292.805 200.781,292.805C199.194,292.805 197.911,291.522 197.911,289.935C197.911,288.351 199.194,287.066 200.781,287.066C202.364,287.066 203.65,288.352 203.65,289.935Z" style="fill:rgb(255,129,206);fill-rule:nonzero;" />
                                </svg:g>
                            </svg:g>
                        </svg:g>
                        <svg:g>
                            <svg:path d="M187.367,324.024C171.834,324.024 161.394,320.146 155.452,312.169C147.776,301.863 147.863,284.808 155.726,258.495C161.505,239.156 169.774,230.922 175.693,227.42C181.821,223.794 186.676,224.311 187.372,224.411C188.862,224.228 208.289,222.616 219.009,258.495C226.872,284.808 226.959,301.863 219.283,312.169C213.341,320.147 202.901,324.024 187.367,324.024ZM186.157,225.346C181.821,225.346 166.006,227.586 156.684,258.782C148.919,284.765 148.783,301.54 156.254,311.571C161.994,319.278 172.172,323.024 187.367,323.024C202.563,323.024 212.741,319.278 218.481,311.571C225.953,301.54 225.816,284.766 218.051,258.782C207.227,222.559 187.648,225.373 187.45,225.409L187.368,225.423L187.284,225.409C187.257,225.405 186.856,225.346 186.157,225.346Z" style="fill:rgb(21,47,71);fill-rule:nonzero;" />
                        </svg:g>
                    </svg:g>
                </svg:g>
                <svg:g>
                    <svg:g>
                        <svg:path d="M172.312,236.463C170.906,237.452 169.804,238.976 168.832,240.36C165.685,244.842 163.575,250.056 161.886,255.234C160.219,260.343 159.001,265.588 158.025,270.869C157.88,271.655 159.084,271.993 159.23,271.201C160.704,263.218 162.691,255.186 166.096,247.784C167.603,244.507 169.393,241.167 171.895,238.528C172.161,238.247 172.438,237.979 172.726,237.722C172.916,237.552 172.966,237.526 172.942,237.542C173.596,237.083 172.972,235.998 172.312,236.463Z" style="fill:white;fill-rule:nonzero;" />
                    </svg:g>
                    <svg:path d="M158.583,274.873C158.583,275.258 158.271,275.569 157.887,275.569C157.502,275.569 157.191,275.257 157.191,274.873C157.191,274.488 157.503,274.177 157.887,274.177C158.271,274.177 158.583,274.488 158.583,274.873Z" style="fill:white;fill-rule:nonzero;" />
                </svg:g>
            </svg:g>
            <svg:g transform="matrix(0.127031,0,0,0.127031,56.146,785.809)">
                <svg:g>
                    <svg:g>
                        <svg:g>
                            <svg:g>
                                <svg:path d="M204.937,200.366C203.902,200.083 198.818,204.74 194.219,209.228C192.4,201.689 189.239,190.684 186.292,190.684C182.957,190.684 180.318,203.479 179.185,210.034C174.39,205.316 168.743,200.066 167.646,200.366C165.674,200.904 174.997,222.775 174.997,222.775L184.499,224.748L185.725,219.602L186.773,219.24L188.085,224.748L197.587,222.775C197.587,222.775 206.909,200.904 204.937,200.366Z" style="fill:rgb(85,198,126);fill-rule:nonzero;" />
                            </svg:g>
                            <svg:g>
                                <svg:path d="M187.711,225.336L186.415,219.893L186.148,219.985L184.874,225.336L174.641,223.212L174.539,222.972C173.093,219.579 165.934,202.544 167.011,200.321C167.118,200.099 167.298,199.944 167.517,199.884C168.033,199.748 169.086,199.454 178.86,209.012C181.086,196.518 183.586,190.185 186.295,190.185C187.231,190.185 190.052,190.184 194.5,208.26C203.563,199.471 204.581,199.752 205.071,199.884C205.29,199.944 205.469,200.099 205.577,200.321C206.653,202.544 199.495,219.579 198.049,222.972L197.946,223.212L187.711,225.336ZM175.355,222.339L184.126,224.16L185.303,219.22L187.132,218.588L188.459,224.16L197.229,222.339C201.251,212.879 205.045,202.525 204.713,200.875C204.167,201.032 202.109,202.227 194.568,209.586L193.939,210.2L193.733,209.346C189.666,192.494 187.009,191.185 186.292,191.185C184.231,191.185 181.697,198.44 179.678,210.119L179.515,211.06L178.834,210.39C170.631,202.319 168.44,201.037 167.87,200.874C167.539,202.524 171.333,212.878 175.355,222.339Z" style="fill:rgb(21,47,71);fill-rule:nonzero;" />
                            </svg:g>
                        </svg:g>
                        <svg:g>
                            <svg:g>
                                <svg:path d="M193.038,222.196C193.038,222.196 189.699,204.489 186.293,204.489C182.886,204.489 179.547,222.196 179.547,222.196C179.547,222.196 164.958,212.916 165.138,216.142C165.301,219.06 173.379,227.99 174.923,229.672C175.087,229.85 175.178,229.946 175.178,229.946L197.407,229.946C197.407,229.946 197.498,229.849 197.661,229.672C199.206,227.989 207.284,219.06 207.447,216.142C207.626,212.916 193.038,222.196 193.038,222.196Z" style="fill:rgb(118,221,159);fill-rule:nonzero;" />
                            </svg:g>
                            <svg:g>
                                <svg:path d="M197.622,230.447L174.961,230.447L174.555,230.012C172.27,227.522 164.806,219.168 164.638,216.17C164.603,215.555 164.94,215.263 165.143,215.144C167.074,214.019 175.715,219.2 179.194,221.382C180.015,217.21 182.887,203.989 186.292,203.989C189.696,203.989 192.568,217.21 193.389,221.382C196.868,219.199 205.513,214.01 207.439,215.144C207.643,215.263 207.979,215.555 207.945,216.17C207.777,219.173 200.312,227.523 198.028,230.011L197.622,230.447ZM175.395,229.447L197.188,229.447L197.292,229.335C201.672,224.564 206.829,218.24 206.948,216.115C206.952,216.036 206.939,216.008 206.938,216.008C206.216,215.351 199.968,218.382 193.306,222.618L192.683,223.014L192.546,222.288C191.191,215.104 188.355,204.988 186.292,204.988C184.228,204.988 181.392,215.104 180.037,222.288L179.9,223.013L179.277,222.617C172.619,218.382 166.376,215.355 165.642,216.01C165.643,216.01 165.631,216.04 165.635,216.114C165.754,218.235 170.91,224.561 175.29,229.334L175.395,229.447Z" style="fill:rgb(21,47,71);fill-rule:nonzero;" />
                            </svg:g>
                        </svg:g>
                    </svg:g>
                    <svg:g>
                        <svg:g>
                            <svg:g>
                                <svg:g>
                                    <svg:path d="M218.53,258.639C207.432,221.501 187.367,224.916 187.367,224.916C187.367,224.916 167.303,221.501 156.205,258.639C145.106,295.779 146.388,323.525 187.367,323.525C228.349,323.524 229.629,295.778 218.53,258.639Z" style="fill:rgb(239,222,137);fill-rule:nonzero;" />
                                </svg:g>
                                <svg:g>
                                    <svg:g>
                                        <svg:clipPath id="_clip6">
                                            <svg:path d="M218.53,258.639C207.432,221.501 187.367,224.916 187.367,224.916C187.367,224.916 167.303,221.501 156.205,258.639C145.106,295.779 146.388,323.525 187.367,323.525C228.349,323.524 229.629,295.778 218.53,258.639Z" />
                                        </svg:clipPath>
                                        <svg:g clip-path="url(#_clip6)">
                                            <svg:g>
                                                <svg:g>
                                                    <svg:g>
                                                        <svg:g transform="matrix(0.7084,-0.7058,0.7058,0.7084,-125.5,175.386)">
                                                            <svg:g>
                                                                <svg:rect x="47.058" y="238.808" width="204.886" height="1.53" style="fill:rgb(224,199,95);" />
                                                            </svg:g>
                                                        </svg:g>
                                                        <svg:g transform="matrix(0.7067,-0.7075,0.7075,0.7067,-130.13,186.849)">
                                                            <svg:g>
                                                                <svg:rect x="57.876" y="249.627" width="204.886" height="1.529" style="fill:rgb(224,199,95);" />
                                                            </svg:g>
                                                        </svg:g>
                                                    </svg:g>
                                                    <svg:g>
                                                        <svg:g transform="matrix(0.7065,-0.7077,0.7077,0.7065,-134.635,197.788)">
                                                            <svg:g>
                                                                <svg:rect x="68.695" y="260.446" width="204.886" height="1.53" style="fill:rgb(224,199,95);" />
                                                            </svg:g>
                                                        </svg:g>
                                                        <svg:g transform="matrix(0.7071,-0.7071,0.7071,0.7071,-139.06,208.339)">
                                                            <svg:g>
                                                                <svg:rect x="79.515" y="271.264" width="204.885" height="1.531" style="fill:rgb(224,199,95);" />
                                                            </svg:g>
                                                        </svg:g>
                                                    </svg:g>
                                                </svg:g>
                                                <svg:g>
                                                    <svg:g>
                                                        <svg:g transform="matrix(0.7078,-0.7065,0.7065,0.7078,-143.482,218.847)">
                                                            <svg:g>
                                                                <svg:rect x="90.333" y="282.083" width="204.887" height="1.53" style="fill:rgb(224,199,95);" />
                                                            </svg:g>
                                                        </svg:g>
                                                        <svg:g transform="matrix(0.7071,-0.7071,0.7071,0.7071,-148.025,229.993)">
                                                            <svg:g>
                                                                <svg:rect x="101.152" y="292.902" width="204.886" height="1.53" style="fill:rgb(224,199,95);" />
                                                            </svg:g>
                                                        </svg:g>
                                                    </svg:g>
                                                    <svg:g>
                                                        <svg:g transform="matrix(0.7071,-0.7071,0.7071,0.7071,-152.504,240.795)">
                                                            <svg:g>
                                                                <svg:rect x="111.97" y="303.721" width="204.886" height="1.531" style="fill:rgb(224,199,95);" />
                                                            </svg:g>
                                                        </svg:g>
                                                        <svg:g transform="matrix(0.7075,-0.7067,0.7067,0.7075,-156.953,251.42)">
                                                            <svg:g>
                                                                <svg:rect x="122.79" y="314.54" width="204.886" height="1.53" style="fill:rgb(224,199,95);" />
                                                            </svg:g>
                                                        </svg:g>
                                                    </svg:g>
                                                </svg:g>
                                            </svg:g>
                                            <svg:g>
                                                <svg:g>
                                                    <svg:g>
                                                        <svg:g transform="matrix(0.7068,-0.7074,0.7074,0.7068,-103.439,229.585)">
                                                            <svg:g>
                                                                <svg:rect x="224.467" y="137.13" width="1.531" height="204.886" style="fill:rgb(224,199,95);" />
                                                            </svg:g>
                                                        </svg:g>
                                                        <svg:g transform="matrix(0.7075,-0.7067,0.7067,0.7075,-114.24,224.784)">
                                                            <svg:g>
                                                                <svg:rect x="213.649" y="147.948" width="1.53" height="204.887" style="fill:rgb(224,199,95);" />
                                                            </svg:g>
                                                        </svg:g>
                                                    </svg:g>
                                                    <svg:g>
                                                        <svg:g transform="matrix(0.7071,-0.7071,0.7071,0.7071,-125.072,220.47)">
                                                            <svg:g>
                                                                <svg:rect x="202.831" y="158.767" width="1.529" height="204.887" style="fill:rgb(224,199,95);" />
                                                            </svg:g>
                                                        </svg:g>
                                                        <svg:g transform="matrix(0.7071,-0.7071,0.7071,0.7071,-135.888,215.974)">
                                                            <svg:g>
                                                                <svg:rect x="192.012" y="169.586" width="1.529" height="204.886" style="fill:rgb(224,199,95);" />
                                                            </svg:g>
                                                        </svg:g>
                                                    </svg:g>
                                                </svg:g>
                                                <svg:g>
                                                    <svg:g>
                                                        <svg:g transform="matrix(0.7078,-0.7065,0.7065,0.7078,-146.644,211.204)">
                                                            <svg:g>
                                                                <svg:rect x="181.192" y="180.405" width="1.531" height="204.887" style="fill:rgb(224,199,95);" />
                                                            </svg:g>
                                                        </svg:g>
                                                        <svg:g transform="matrix(0.7068,-0.7074,0.7074,0.7068,-157.565,207.163)">
                                                            <svg:g>
                                                                <svg:rect x="170.373" y="191.224" width="1.53" height="204.886" style="fill:rgb(224,199,95);" />
                                                            </svg:g>
                                                        </svg:g>
                                                    </svg:g>
                                                    <svg:g>
                                                        <svg:g transform="matrix(0.7065,-0.7077,0.7077,0.7065,-168.437,202.834)">
                                                            <svg:g>
                                                                <svg:rect x="159.554" y="202.043" width="1.53" height="204.886" style="fill:rgb(224,199,95);" />
                                                            </svg:g>
                                                        </svg:g>
                                                        <svg:g transform="matrix(0.7065,-0.7078,0.7078,0.7065,-179.275,198.368)">
                                                            <svg:g>
                                                                <svg:rect x="148.736" y="212.862" width="1.529" height="204.886" style="fill:rgb(224,199,95);" />
                                                            </svg:g>
                                                        </svg:g>
                                                    </svg:g>
                                                </svg:g>
                                            </svg:g>
                                        </svg:g>
                                    </svg:g>
                                </svg:g>
                                <svg:path d="M179.762,226.03C172.913,228.549 162.918,236.172 156.205,258.639C147.63,287.335 146.451,310.418 165.257,319.433C179.953,309.65 190.09,288.937 190.09,264.964C190.091,250.13 186.203,236.551 179.762,226.03Z" style="fill:white;fill-opacity:0.2;fill-rule:nonzero;" />
                            </svg:g>
                            <svg:g opacity="0.1">
                                <svg:path d="M218.53,258.639C210.999,233.435 199.343,226.915 192.626,225.323C197.352,230.299 202.189,238.247 205.98,250.933C217.079,288.073 215.798,315.819 174.818,315.819C167.822,315.819 162.008,314.993 157.19,313.465C162.916,319.872 172.528,323.524 187.367,323.524C228.349,323.524 229.629,295.778 218.53,258.639Z" style="fill:rgb(232,119,93);fill-rule:nonzero;" />
                            </svg:g>
                        </svg:g>
                        <svg:g>
                            <svg:g>
                                <svg:g>
                                    <svg:path d="M203.581,284.2C203.902,283.561 204.11,282.87 204.188,282.213C204.281,281.409 203.024,281.418 202.933,282.213C202.727,283.97 201.528,285.434 199.67,285.408C197.788,285.385 196.941,283.263 196.98,281.704C197.001,280.894 195.746,280.895 195.725,281.704C195.662,284.196 196.973,286.691 199.67,286.665C200.566,286.653 201.433,286.341 202.09,285.894C203.031,285.177 203.581,284.2 203.581,284.2Z" style="fill:rgb(21,47,71);fill-rule:nonzero;" />
                                </svg:g>
                                <svg:g>
                                    <svg:path d="M171.153,284.2C170.834,283.561 170.626,282.87 170.548,282.213C170.455,281.409 171.712,281.418 171.805,282.213C172.01,283.97 173.208,285.434 175.067,285.408C176.948,285.385 177.794,283.263 177.756,281.704C177.736,280.894 178.991,280.895 179.013,281.704C179.074,284.196 177.763,286.691 175.067,286.665C174.171,286.653 173.304,286.341 172.647,285.894C171.706,285.177 171.153,284.2 171.153,284.2Z" style="fill:rgb(21,47,71);fill-rule:nonzero;" />
                                </svg:g>
                            </svg:g>
                            <svg:g>
                                <svg:g>
                                    <svg:path d="M173.819,276.837C173.819,276.837 173.869,276.522 174.142,276.17C174.281,275.994 174.47,275.803 174.728,275.661C174.988,275.513 175.31,275.414 175.651,275.415C175.823,275.41 175.987,275.454 176.151,275.49C176.312,275.523 176.447,275.624 176.584,275.687C176.835,275.855 177.022,276.052 177.139,276.252C177.275,276.43 177.315,276.621 177.359,276.739C177.394,276.864 177.404,276.94 177.404,276.94C177.404,276.94 177.33,276.913 177.212,276.862C177.092,276.814 176.953,276.724 176.771,276.658C176.602,276.573 176.408,276.511 176.217,276.442C176.025,276.409 175.84,276.351 175.649,276.369C175.46,276.347 175.258,276.397 175.057,276.434C174.852,276.478 174.657,276.546 174.472,276.604C174.078,276.743 173.819,276.837 173.819,276.837Z" style="fill:rgb(21,47,71);fill-rule:nonzero;" />
                                </svg:g>
                                <svg:g>
                                    <svg:path d="M197.353,276.557C197.353,276.557 197.433,276.253 197.747,275.929C197.9,275.768 198.11,275.598 198.383,275.484C198.653,275.366 198.987,275.299 199.325,275.336C199.494,275.347 199.654,275.411 199.814,275.459C199.971,275.511 200.093,275.625 200.223,275.7C200.454,275.898 200.623,276.112 200.712,276.32C200.83,276.51 200.854,276.707 200.884,276.826C200.906,276.958 200.91,277.03 200.91,277.03C200.91,277.03 200.839,277 200.725,276.934C200.614,276.879 200.478,276.772 200.308,276.687C200.145,276.587 199.959,276.501 199.779,276.416C199.588,276.359 199.415,276.283 199.22,276.281C199.031,276.244 198.828,276.271 198.623,276.287C198.417,276.311 198.215,276.359 198.024,276.396C197.621,276.491 197.353,276.557 197.353,276.557Z" style="fill:rgb(21,47,71);fill-rule:nonzero;" />
                                </svg:g>
                            </svg:g>
                            <svg:g>
                                <svg:g>
                                    <svg:path d="M184.719,286.341C185.101,286.893 185.657,287.369 186.281,287.621C187.701,288.191 188.98,287.452 189.965,286.432C190.36,286.02 189.736,285.394 189.339,285.805C188.564,286.609 187.587,287.274 186.469,286.741C186.093,286.558 185.713,286.226 185.483,285.895C185.16,285.429 184.392,285.87 184.719,286.341Z" style="fill:rgb(21,47,71);fill-rule:nonzero;" />
                                </svg:g>
                            </svg:g>
                            <svg:g>
                                <svg:g>
                                    <svg:path d="M176.821,289.935C176.821,291.522 175.537,292.805 173.951,292.805C172.367,292.805 171.082,291.522 171.082,289.935C171.082,288.351 172.367,287.066 173.951,287.066C175.537,287.066 176.821,288.352 176.821,289.935Z" style="fill:rgb(255,129,206);fill-rule:nonzero;" />
                                </svg:g>
                                <svg:g>
                                    <svg:path d="M203.65,289.935C203.65,291.522 202.364,292.805 200.781,292.805C199.194,292.805 197.911,291.522 197.911,289.935C197.911,288.351 199.194,287.066 200.781,287.066C202.364,287.066 203.65,288.352 203.65,289.935Z" style="fill:rgb(255,129,206);fill-rule:nonzero;" />
                                </svg:g>
                            </svg:g>
                        </svg:g>
                        <svg:g>
                            <svg:path d="M187.367,324.024C171.834,324.024 161.394,320.146 155.452,312.169C147.776,301.863 147.863,284.808 155.726,258.495C161.505,239.156 169.774,230.922 175.693,227.42C181.821,223.794 186.676,224.311 187.372,224.411C188.862,224.228 208.289,222.616 219.009,258.495C226.872,284.808 226.959,301.863 219.283,312.169C213.341,320.147 202.901,324.024 187.367,324.024ZM186.157,225.346C181.821,225.346 166.006,227.586 156.684,258.782C148.919,284.765 148.783,301.54 156.254,311.571C161.994,319.278 172.172,323.024 187.367,323.024C202.563,323.024 212.741,319.278 218.481,311.571C225.953,301.54 225.816,284.766 218.051,258.782C207.227,222.559 187.648,225.373 187.45,225.409L187.368,225.423L187.284,225.409C187.257,225.405 186.856,225.346 186.157,225.346Z" style="fill:rgb(21,47,71);fill-rule:nonzero;" />
                        </svg:g>
                    </svg:g>
                </svg:g>
                <svg:g>
                    <svg:g>
                        <svg:path d="M172.312,236.463C170.906,237.452 169.804,238.976 168.832,240.36C165.685,244.842 163.575,250.056 161.886,255.234C160.219,260.343 159.001,265.588 158.025,270.869C157.88,271.655 159.084,271.993 159.23,271.201C160.704,263.218 162.691,255.186 166.096,247.784C167.603,244.507 169.393,241.167 171.895,238.528C172.161,238.247 172.438,237.979 172.726,237.722C172.916,237.552 172.966,237.526 172.942,237.542C173.596,237.083 172.972,235.998 172.312,236.463Z" style="fill:white;fill-rule:nonzero;" />
                    </svg:g>
                    <svg:path d="M158.583,274.873C158.583,275.258 158.271,275.569 157.887,275.569C157.502,275.569 157.191,275.257 157.191,274.873C157.191,274.488 157.503,274.177 157.887,274.177C158.271,274.177 158.583,274.488 158.583,274.873Z" style="fill:white;fill-rule:nonzero;" />
                </svg:g>
            </svg:g>
        </svg:g>
    </g>
</svg>