<?xml version='1.0' encoding='UTF-8'?>
<svg xmlns="http://www.w3.org/2000/svg" xmlns:xlink="http://www.w3.org/1999/xlink" xmlns:svg="http://www.w3.org/2000/svg" xmlns:serif="http://www.serif.com/" height="100%" style="fill-rule:evenodd;clip-rule:evenodd;" version="1.1" viewBox="170.0 140.0 100.0 100.0" width="100%">
    <g>
        <svg:g id="_2-2" serif:id="2-2">
            <svg:g transform="matrix(1,0,0,1,0,0.189788)">
                <svg:rect x="170" y="140" width="100" height="100" style="fill:rgb(255,252,121);" />
            </svg:g>
            <svg:g transform="matrix(0.75546,0,0,0.75546,145.665,97.1228)">
                <svg:g>
                    <svg:g>
                        <svg:g>
                            <svg:g>
                                <svg:g>
                                    <svg:g>
                                        <svg:g>
                                            <svg:path d="M143.369,108.811L53.414,108.811C53.414,108.811 65.066,167.732 67.502,171.387C69.938,175.041 71.375,176.868 80.553,176.868L116.23,176.868C125.407,176.868 126.845,175.041 129.281,171.387C131.717,167.733 143.369,108.811 143.369,108.811Z" style="fill:rgb(248,229,229);fill-rule:nonzero;" />
                                        </svg:g>
                                        <svg:g>
                                            <svg:g>
                                                <svg:clipPath id="_clip97">
                                                    <svg:path d="M143.369,108.811L53.414,108.811C53.414,108.811 65.066,167.732 67.502,171.387C69.938,175.041 71.375,176.868 80.553,176.868L116.23,176.868C125.407,176.868 126.845,175.041 129.281,171.387C131.717,167.733 143.369,108.811 143.369,108.811Z" />
                                                </svg:clipPath>
                                                <svg:g clip-path="url(#_clip97)">
                                                    <svg:g>
                                                        <svg:g>
                                                            <svg:path d="M91.719,186.443C79.285,168.577 76.537,97.663 76.426,94.653L81.208,94.476C81.235,95.199 84.009,166.989 95.646,183.71L91.719,186.443Z" style="fill:rgb(247,176,222);fill-rule:nonzero;" />
                                                        </svg:g>
                                                    </svg:g>
                                                    <svg:g>
                                                        <svg:g>
                                                            <svg:g>
                                                                <svg:path d="M84.05,187.465C66.366,179.093 60.247,104.022 59.607,95.49L64.379,95.132C66.809,127.526 74.598,177.697 86.098,183.14L84.05,187.465Z" style="fill:rgb(247,176,222);fill-rule:nonzero;" />
                                                            </svg:g>
                                                        </svg:g>
                                                        <svg:g>
                                                            <svg:g>
                                                                <svg:path d="M112.585,187.465L110.538,183.14C122.037,177.696 129.827,127.526 132.256,95.132L137.028,95.49C136.389,104.021 130.269,179.093 112.585,187.465Z" style="fill:rgb(247,176,222);fill-rule:nonzero;" />
                                                            </svg:g>
                                                        </svg:g>
                                                        <svg:g>
                                                            <svg:g>
                                                                <svg:path d="M104.916,186.443L100.989,183.71C112.629,166.986 115.4,95.199 115.428,94.476L120.209,94.652C120.099,97.663 117.351,168.578 104.916,186.443Z" style="fill:rgb(247,176,222);fill-rule:nonzero;" />
                                                            </svg:g>
                                                        </svg:g>
                                                        <svg:g>
                                                            <svg:g>
                                                                <svg:rect x="95.998" y="95.828" width="4.785" height="91.393" style="fill:rgb(247,176,222);" />
                                                            </svg:g>
                                                        </svg:g>
                                                    </svg:g>
                                                </svg:g>
                                            </svg:g>
                                        </svg:g>
                                        <svg:g opacity="0.25">
                                            <svg:path d="M103.543,108.812L53.414,108.812C53.414,108.812 57.479,129.368 61.309,146.95C64.82,148.137 68.613,148.785 72.57,148.785C90.648,148.785 105.303,135.262 105.303,118.581C105.303,115.161 104.678,111.877 103.543,108.812Z" style="fill:white;fill-rule:nonzero;" />
                                        </svg:g>
                                    </svg:g>
                                    <svg:g opacity="0.1">
                                        <svg:path d="M126.769,108.811C129.315,114.659 130.736,121.109 130.736,127.894C130.736,154.324 109.31,175.751 82.879,175.751C78.15,175.751 73.586,175.054 69.272,173.777C71.135,175.837 73.662,176.868 80.553,176.868L116.23,176.868C125.407,176.868 126.845,175.041 129.281,171.387C131.717,167.733 143.369,108.811 143.369,108.811L126.769,108.811Z" style="fill:rgb(193,66,45);fill-rule:nonzero;" />
                                    </svg:g>
                                </svg:g>
                                <svg:g>
                                    <svg:path d="M116.229,177.368L80.552,177.368C71.298,177.368 69.653,175.516 67.085,171.664C64.623,167.97 53.399,111.318 52.923,108.909L52.805,108.312L143.977,108.312L143.859,108.909C143.382,111.319 132.159,167.971 129.696,171.664C127.128,175.516 125.483,177.368 116.229,177.368ZM54.022,109.312C58.084,129.818 66.052,168.312 67.917,171.11C70.177,174.501 71.422,176.368 80.552,176.368L116.229,176.368C125.358,176.368 126.604,174.5 128.864,171.11C130.729,168.313 138.697,129.818 142.759,109.312L54.022,109.312Z" style="fill:rgb(21,47,71);fill-rule:nonzero;" />
                                </svg:g>
                            </svg:g>
                            <svg:g>
                                <svg:g>
                                    <svg:g>
                                        <svg:g>
                                            <svg:path d="M141.766,88.535C141.507,88.535 141.254,88.558 141.003,88.591C141.843,87.657 142.359,86.425 142.359,85.07C142.359,82.157 139.998,79.796 137.085,79.796C135.577,79.796 134.22,80.432 133.259,81.447C132.776,80.887 132.477,80.543 132.477,80.543L128.729,77.503C129.211,76.707 129.493,75.777 129.493,74.779C129.493,71.866 127.132,69.505 124.219,69.505C123.388,69.505 122.605,69.703 121.906,70.045C121.418,68.628 120.216,67.548 118.718,67.26C118.865,66.775 118.946,66.262 118.946,65.729C118.946,62.816 116.585,60.455 113.672,60.455C111.692,60.455 109.97,61.547 109.068,63.16C108.303,62.729 107.422,62.48 106.482,62.48C105,62.48 103.663,63.093 102.705,64.077C102.061,62.556 100.554,61.488 98.798,61.488C97.686,61.488 96.682,61.925 95.926,62.626C95.121,60.743 93.252,59.423 91.075,59.423C88.162,59.423 85.801,61.784 85.801,64.697C85.801,65.15 85.864,65.586 85.971,66.005C85.513,65.836 85.024,65.73 84.507,65.73C82.412,65.73 80.682,67.253 80.338,69.25C79.783,69.052 79.188,68.938 78.565,68.938C75.869,68.938 73.649,70.962 73.333,73.573C72.632,73.228 71.845,73.029 71.01,73.029C68.097,73.029 65.736,75.39 65.736,78.303C65.736,78.928 65.85,79.525 66.05,80.081C63.927,80.212 62.24,81.892 62.097,84.012C61.416,83.734 60.671,83.578 59.89,83.578C56.661,83.578 54.044,86.195 54.044,89.424C54.044,90.042 54.141,90.637 54.319,91.196C54.071,91.15 53.818,91.119 53.557,91.119C51.264,91.119 49.406,92.977 49.406,95.27C49.406,97.563 51.265,99.421 53.557,99.421C54.559,99.421 55.465,99.052 56.182,98.461C56.986,100.346 58.856,101.667 61.035,101.667C95.471,111.285 141.768,100.175 141.768,100.175C144.982,100.175 147.587,97.57 147.587,94.356C147.584,91.141 144.979,88.535 141.766,88.535Z" style="fill:rgb(246,240,205);fill-rule:nonzero;" />
                                        </svg:g>
                                        <svg:g>
                                            <svg:g>
                                                <svg:path d="M64.609,92.475C64.194,92.64 63.82,92.891 63.49,93.18C63.398,93.264 63.312,93.347 63.229,93.432C63.141,93.381 63.06,93.322 62.97,93.274C62.609,93.139 62.279,92.942 61.882,92.876C61.132,92.648 60.282,92.674 59.516,92.867C58.744,93.069 58.051,93.478 57.537,94.016C57.017,94.541 56.624,95.171 56.453,95.866C57.632,95.106 58.764,94.617 59.827,94.572C60.356,94.552 60.867,94.587 61.383,94.753C61.901,94.886 62.41,95.139 62.939,95.391L63.915,95.856L64.246,95.032C64.331,94.82 64.506,94.504 64.671,94.258C64.843,93.997 65.04,93.761 65.256,93.533C65.697,93.091 66.28,92.766 67.076,92.609C66.738,92.415 66.331,92.244 65.9,92.244C65.47,92.218 65.017,92.3 64.609,92.475Z" style="fill:rgb(234,218,143);fill-rule:nonzero;" />
                                            </svg:g>
                                            <svg:g>
                                                <svg:path d="M70.137,87.36C70.257,87.474 70.342,87.643 70.456,87.769C70.553,87.918 70.642,88.078 70.746,88.224L71.775,89.669L72.491,88.041C72.612,87.765 72.832,87.355 73.052,87.049C73.28,86.725 73.539,86.437 73.838,86.18C74.14,85.934 74.48,85.683 74.898,85.526C75.309,85.322 75.778,85.236 76.306,85.086C75.862,84.787 75.339,84.589 74.771,84.537C74.206,84.478 73.595,84.567 73.046,84.813C72.49,85.047 71.995,85.418 71.598,85.858C71.533,85.933 71.474,86.009 71.413,86.084C71.396,86.07 71.384,86.052 71.366,86.039C70.96,85.686 70.437,85.444 69.915,85.307C68.845,85.054 67.75,85.357 67.077,86.045C68.025,86.08 68.814,86.284 69.383,86.684C69.667,86.883 69.921,87.09 70.137,87.36Z" style="fill:rgb(234,218,143);fill-rule:nonzero;" />
                                            </svg:g>
                                            <svg:g>
                                                <svg:path d="M77.56,97.803C77.079,97.466 76.406,97.304 75.791,97.393C75.174,97.472 74.634,97.724 74.162,98.023C74.08,98.077 74.013,98.138 73.936,98.194C73.86,98.093 73.783,97.993 73.694,97.899C73.296,97.442 72.765,97.083 72.203,96.893C71.644,96.689 71.06,96.655 70.522,96.712C69.982,96.796 69.468,96.95 69.035,97.261C70.048,97.477 70.912,97.786 71.517,98.264C72.131,98.72 72.469,99.332 72.749,100.064L73.362,101.669L74.434,100.347C74.648,100.083 74.967,99.761 75.253,99.511C75.548,99.254 75.853,99.026 76.164,98.874C76.473,98.729 76.797,98.632 77.186,98.677C77.594,98.684 77.997,98.908 78.478,99.122C78.323,98.639 78.055,98.142 77.56,97.803Z" style="fill:rgb(234,218,143);fill-rule:nonzero;" />
                                            </svg:g>
                                            <svg:g>
                                                <svg:path d="M83.177,89.153C82.9,89.137 82.608,89.19 82.346,89.302C82.079,89.408 81.838,89.57 81.626,89.755C81.567,89.809 81.517,89.866 81.463,89.92C81.405,89.886 81.351,89.847 81.291,89.815C81.059,89.728 80.847,89.601 80.591,89.559C80.109,89.412 79.562,89.429 79.069,89.553C78.573,89.683 78.127,89.946 77.796,90.292C77.461,90.63 77.209,91.035 77.099,91.482C77.857,90.993 78.586,90.678 79.269,90.65C79.609,90.637 79.938,90.66 80.27,90.767C80.603,90.853 80.93,91.015 81.271,91.177L81.899,91.476L82.112,90.946C82.167,90.81 82.279,90.607 82.385,90.448C82.496,90.28 82.622,90.128 82.762,89.982C83.046,89.698 83.421,89.489 83.932,89.387C83.716,89.263 83.454,89.154 83.177,89.153Z" style="fill:rgb(234,218,143);fill-rule:nonzero;" />
                                            </svg:g>
                                            <svg:g>
                                                <svg:path d="M85.118,77.413C84.672,77.376 84.226,77.435 83.802,77.547C83.683,77.581 83.568,77.618 83.456,77.657C83.4,77.572 83.354,77.483 83.294,77.4C83.031,77.119 82.823,76.796 82.496,76.56C81.926,76.022 81.152,75.668 80.38,75.501C79.599,75.339 78.796,75.397 78.097,75.651C77.397,75.89 76.766,76.281 76.304,76.827C77.698,76.67 78.93,76.735 79.902,77.167C80.385,77.384 80.826,77.643 81.215,78.021C81.62,78.37 81.963,78.823 82.326,79.284L82.994,80.134L83.657,79.543C83.827,79.391 84.125,79.186 84.382,79.038C84.652,78.881 84.933,78.756 85.229,78.649C85.82,78.449 86.487,78.417 87.27,78.629C87.053,78.305 86.765,77.971 86.379,77.779C86.004,77.566 85.561,77.438 85.118,77.413Z" style="fill:rgb(234,218,143);fill-rule:nonzero;" />
                                            </svg:g>
                                            <svg:g>
                                                <svg:path d="M90.703,72.273C90.802,72.406 90.857,72.586 90.948,72.729C91.018,72.893 91.08,73.065 91.157,73.227L91.928,74.824L92.907,73.34C93.073,73.088 93.358,72.721 93.627,72.456C93.906,72.175 94.211,71.935 94.548,71.732C94.887,71.54 95.265,71.35 95.702,71.265C96.142,71.133 96.618,71.128 97.164,71.068C96.776,70.698 96.294,70.415 95.743,70.268C95.196,70.115 94.579,70.1 93.997,70.25C93.409,70.387 92.859,70.67 92.394,71.036C92.317,71.099 92.246,71.164 92.174,71.228C92.16,71.211 92.151,71.192 92.136,71.176C91.795,70.759 91.32,70.433 90.829,70.21C89.816,69.78 88.686,69.895 87.907,70.46C88.836,70.654 89.579,70.988 90.073,71.478C90.321,71.724 90.536,71.97 90.703,72.273Z" style="fill:rgb(234,218,143);fill-rule:nonzero;" />
                                            </svg:g>
                                            <svg:g>
                                                <svg:path d="M97.015,84.67C96.534,84.333 95.861,84.171 95.246,84.26C94.629,84.339 94.089,84.591 93.617,84.89C93.535,84.944 93.468,85.005 93.391,85.061C93.315,84.96 93.238,84.86 93.149,84.766C92.751,84.309 92.22,83.95 91.658,83.76C91.099,83.556 90.515,83.522 89.977,83.579C89.437,83.663 88.922,83.817 88.49,84.128C89.503,84.344 90.367,84.653 90.972,85.131C91.586,85.587 91.924,86.199 92.203,86.931L92.816,88.536L93.888,87.214C94.102,86.95 94.421,86.628 94.707,86.378C95.002,86.121 95.307,85.893 95.618,85.741C95.927,85.596 96.251,85.499 96.64,85.544C97.048,85.551 97.451,85.775 97.932,85.989C97.778,85.505 97.51,85.008 97.015,84.67Z" style="fill:rgb(234,218,143);fill-rule:nonzero;" />
                                            </svg:g>
                                            <svg:g>
                                                <svg:path d="M92.38,96.689C92.103,96.673 91.811,96.726 91.549,96.838C91.282,96.944 91.041,97.106 90.829,97.291C90.77,97.345 90.72,97.401 90.666,97.456C90.608,97.422 90.554,97.383 90.494,97.351C90.262,97.264 90.05,97.137 89.794,97.095C89.312,96.948 88.765,96.965 88.272,97.089C87.776,97.219 87.33,97.482 86.999,97.828C86.664,98.166 86.412,98.571 86.302,99.018C87.06,98.529 87.789,98.214 88.472,98.186C88.812,98.173 89.14,98.196 89.473,98.303C89.806,98.388 90.133,98.551 90.474,98.713L91.102,99.012L91.315,98.482C91.37,98.346 91.482,98.143 91.588,97.984C91.698,97.816 91.825,97.664 91.965,97.518C92.249,97.234 92.624,97.025 93.135,96.923C92.919,96.8 92.657,96.69 92.38,96.689Z" style="fill:rgb(234,218,143);fill-rule:nonzero;" />
                                            </svg:g>
                                            <svg:g>
                                                <svg:path d="M104.547,75.084C104.27,75.068 103.978,75.121 103.716,75.234C103.449,75.34 103.208,75.502 102.996,75.687C102.937,75.741 102.887,75.797 102.833,75.852C102.775,75.818 102.721,75.779 102.661,75.747C102.429,75.66 102.217,75.533 101.961,75.491C101.479,75.344 100.932,75.361 100.439,75.485C99.943,75.615 99.497,75.878 99.166,76.224C98.831,76.562 98.579,76.967 98.469,77.414C99.227,76.925 99.956,76.611 100.639,76.582C100.979,76.569 101.308,76.592 101.64,76.699C101.973,76.785 102.3,76.947 102.641,77.109L103.269,77.408L103.482,76.878C103.537,76.742 103.649,76.539 103.755,76.38C103.865,76.212 103.992,76.06 104.132,75.914C104.416,75.63 104.791,75.421 105.302,75.319C105.086,75.195 104.824,75.085 104.547,75.084Z" style="fill:rgb(234,218,143);fill-rule:nonzero;" />
                                            </svg:g>
                                            <svg:g>
                                                <svg:path d="M110.017,98.716C109.572,98.679 109.125,98.738 108.701,98.85C108.582,98.884 108.467,98.921 108.355,98.959C108.299,98.874 108.253,98.785 108.193,98.702C107.93,98.421 107.722,98.098 107.395,97.862C106.825,97.324 106.051,96.97 105.28,96.802C104.499,96.64 103.696,96.698 102.997,96.952C102.297,97.191 101.666,97.582 101.204,98.128C102.598,97.971 103.83,98.036 104.802,98.468C105.285,98.685 105.726,98.944 106.115,99.322C106.52,99.671 106.863,100.124 107.226,100.585L107.894,101.435L108.557,100.845C108.727,100.693 109.024,100.488 109.282,100.34C109.552,100.183 109.833,100.058 110.129,99.951C110.72,99.751 111.387,99.719 112.17,99.931C111.953,99.607 111.665,99.274 111.279,99.081C110.903,98.869 110.46,98.741 110.017,98.716Z" style="fill:rgb(234,218,143);fill-rule:nonzero;" />
                                            </svg:g>
                                            <svg:g>
                                                <svg:path d="M110.152,86.047C109.875,86.031 109.583,86.084 109.321,86.196C109.054,86.302 108.813,86.464 108.601,86.649C108.542,86.703 108.492,86.759 108.438,86.814C108.38,86.78 108.326,86.741 108.266,86.709C108.034,86.622 107.822,86.495 107.566,86.453C107.084,86.306 106.537,86.323 106.044,86.447C105.548,86.577 105.102,86.84 104.771,87.186C104.436,87.524 104.184,87.929 104.074,88.376C104.832,87.887 105.561,87.573 106.244,87.544C106.584,87.531 106.913,87.554 107.245,87.661C107.578,87.747 107.905,87.909 108.246,88.071L108.874,88.37L109.087,87.84C109.142,87.704 109.254,87.501 109.36,87.342C109.47,87.174 109.597,87.022 109.736,86.876C110.02,86.592 110.395,86.383 110.906,86.281C110.691,86.157 110.429,86.048 110.152,86.047Z" style="fill:rgb(234,218,143);fill-rule:nonzero;" />
                                            </svg:g>
                                            <svg:g>
                                                <svg:path d="M115.302,69.545C114.821,69.208 114.148,69.046 113.533,69.135C112.916,69.214 112.376,69.466 111.903,69.765C111.821,69.819 111.754,69.88 111.677,69.936C111.601,69.835 111.524,69.735 111.435,69.641C111.037,69.184 110.506,68.825 109.944,68.635C109.385,68.431 108.801,68.397 108.263,68.454C107.723,68.538 107.209,68.692 106.776,69.003C107.789,69.219 108.653,69.528 109.258,70.006C109.872,70.462 110.211,71.074 110.49,71.806L111.103,73.412L112.175,72.09C112.389,71.826 112.708,71.504 112.994,71.254C113.289,70.997 113.594,70.769 113.905,70.617C114.214,70.472 114.538,70.375 114.927,70.42C115.335,70.427 115.738,70.651 116.219,70.865C116.065,70.38 115.796,69.883 115.302,69.545Z" style="fill:rgb(234,218,143);fill-rule:nonzero;" />
                                            </svg:g>
                                            <svg:g>
                                                <svg:path d="M120.873,76.608C120.596,76.592 120.304,76.645 120.042,76.757C119.775,76.863 119.534,77.025 119.322,77.21C119.263,77.264 119.213,77.32 119.159,77.375C119.101,77.341 119.047,77.302 118.987,77.27C118.755,77.183 118.543,77.056 118.287,77.014C117.805,76.867 117.258,76.884 116.765,77.008C116.269,77.138 115.823,77.401 115.492,77.747C115.157,78.085 114.905,78.49 114.795,78.937C115.553,78.448 116.282,78.134 116.965,78.105C117.305,78.092 117.634,78.115 117.966,78.222C118.299,78.308 118.626,78.471 118.967,78.632L119.595,78.931L119.808,78.401C119.863,78.265 119.975,78.062 120.081,77.903C120.191,77.735 120.318,77.583 120.457,77.437C120.741,77.153 121.116,76.944 121.627,76.842C121.412,76.718 121.151,76.609 120.873,76.608Z" style="fill:rgb(234,218,143);fill-rule:nonzero;" />
                                            </svg:g>
                                            <svg:g>
                                                <svg:path d="M122.715,90.319C122.438,90.303 122.146,90.356 121.884,90.468C121.617,90.574 121.376,90.736 121.164,90.921C121.105,90.975 121.055,91.031 121.001,91.086C120.943,91.052 120.889,91.013 120.829,90.981C120.597,90.894 120.385,90.767 120.129,90.725C119.647,90.578 119.1,90.595 118.607,90.719C118.111,90.849 117.665,91.112 117.334,91.458C116.999,91.796 116.747,92.201 116.637,92.648C117.395,92.159 118.124,91.844 118.807,91.816C119.147,91.803 119.475,91.826 119.808,91.933C120.141,92.019 120.468,92.181 120.809,92.343L121.437,92.642L121.65,92.112C121.705,91.976 121.817,91.773 121.923,91.614C122.033,91.446 122.16,91.294 122.299,91.148C122.583,90.864 122.958,90.655 123.469,90.553C123.254,90.429 122.993,90.32 122.715,90.319Z" style="fill:rgb(234,218,143);fill-rule:nonzero;" />
                                            </svg:g>
                                            <svg:g>
                                                <svg:path d="M131.388,84.716C130.943,84.679 130.496,84.738 130.072,84.85C129.953,84.884 129.838,84.921 129.726,84.959C129.67,84.874 129.624,84.785 129.564,84.702C129.301,84.421 129.093,84.098 128.766,83.862C128.196,83.324 127.422,82.97 126.651,82.802C125.87,82.64 125.067,82.698 124.368,82.952C123.668,83.191 123.037,83.582 122.575,84.128C123.969,83.971 125.201,84.036 126.173,84.468C126.656,84.685 127.097,84.944 127.486,85.322C127.891,85.671 128.234,86.124 128.597,86.585L129.265,87.435L129.928,86.844C130.098,86.692 130.396,86.487 130.653,86.339C130.923,86.182 131.204,86.057 131.5,85.95C132.091,85.75 132.758,85.718 133.541,85.93C133.324,85.606 133.036,85.273 132.65,85.08C132.275,84.868 131.832,84.74 131.388,84.716Z" style="fill:rgb(234,218,143);fill-rule:nonzero;" />
                                            </svg:g>
                                            <svg:g>
                                                <svg:path d="M137.705,93.766C137.224,93.429 136.551,93.267 135.936,93.356C135.319,93.435 134.779,93.687 134.307,93.986C134.225,94.04 134.158,94.101 134.081,94.157C134.005,94.056 133.928,93.956 133.839,93.862C133.441,93.405 132.91,93.046 132.348,92.856C131.789,92.652 131.205,92.618 130.667,92.675C130.127,92.759 129.612,92.913 129.18,93.224C130.193,93.44 131.057,93.749 131.662,94.227C132.276,94.683 132.614,95.295 132.894,96.027L133.507,97.633L134.579,96.311C134.793,96.047 135.112,95.725 135.398,95.475C135.693,95.218 135.998,94.99 136.309,94.838C136.618,94.693 136.942,94.596 137.331,94.641C137.739,94.648 138.142,94.872 138.623,95.086C138.468,94.601 138.2,94.104 137.705,93.766Z" style="fill:rgb(234,218,143);fill-rule:nonzero;" />
                                            </svg:g>
                                        </svg:g>
                                        <svg:g>
                                            <svg:g>
                                                <svg:path d="M76.804,71.504C77.427,71.504 78.022,71.618 78.577,71.816C78.76,70.755 79.341,69.837 80.153,69.2C79.649,69.039 79.119,68.937 78.562,68.937C76.186,68.937 74.184,70.511 73.525,72.672C74.426,71.949 75.558,71.504 76.804,71.504Z" style="fill:rgb(237,228,180);fill-rule:nonzero;" />
                                            </svg:g>
                                            <svg:g>
                                                <svg:path d="M69.249,75.594C70.084,75.594 70.87,75.793 71.572,76.138C71.701,75.077 72.155,74.123 72.816,73.352C72.252,73.144 71.644,73.026 71.007,73.026C68.636,73.026 66.631,74.59 65.967,76.743C66.868,76.026 68.008,75.594 69.249,75.594Z" style="fill:rgb(237,228,180);fill-rule:nonzero;" />
                                            </svg:g>
                                            <svg:g>
                                                <svg:path d="M82.746,68.295C83.263,68.295 83.752,68.401 84.21,68.57C84.103,68.151 84.04,67.714 84.04,67.262C84.04,66.736 84.119,66.229 84.263,65.75C82.358,65.859 80.807,67.22 80.394,69.028C81.067,68.573 81.87,68.295 82.746,68.295Z" style="fill:rgb(237,228,180);fill-rule:nonzero;" />
                                            </svg:g>
                                            <svg:g>
                                                <svg:path d="M64.289,82.646C64.09,82.09 63.975,81.493 63.975,80.868C63.975,80.837 63.979,80.807 63.98,80.776C63.09,81.365 62.443,82.28 62.199,83.356C62.803,82.952 63.516,82.694 64.289,82.646Z" style="fill:rgb(237,228,180);fill-rule:nonzero;" />
                                            </svg:g>
                                            <svg:g>
                                                <svg:path d="M141.766,88.535C141.507,88.535 141.254,88.558 141.003,88.591C141.843,87.657 142.359,86.425 142.359,85.07C142.359,82.157 139.998,79.796 137.085,79.796C135.577,79.796 134.22,80.432 133.259,81.447C132.776,80.887 132.477,80.543 132.477,80.543L128.729,77.503C129.211,76.707 129.493,75.777 129.493,74.779C129.493,71.866 127.132,69.505 124.219,69.505C123.388,69.505 122.605,69.703 121.906,70.045C121.418,68.628 120.216,67.548 118.718,67.26C118.865,66.775 118.946,66.262 118.946,65.729C118.946,62.816 116.585,60.455 113.672,60.455C111.692,60.455 109.97,61.547 109.068,63.16C108.303,62.729 107.422,62.48 106.482,62.48C105,62.48 103.663,63.093 102.705,64.077C102.061,62.556 100.554,61.488 98.798,61.488C97.686,61.488 96.682,61.925 95.926,62.626C95.121,60.743 93.252,59.423 91.075,59.423C88.704,59.423 86.699,60.987 86.035,63.14C86.936,62.422 88.076,61.99 89.317,61.99C91.495,61.99 93.363,63.31 94.168,65.193C94.924,64.493 95.928,64.056 97.04,64.056C98.796,64.056 100.303,65.123 100.947,66.645C101.905,65.661 103.242,65.048 104.724,65.048C105.665,65.048 106.546,65.297 107.31,65.728C108.212,64.115 109.935,63.023 111.914,63.023C114.827,63.023 117.188,65.384 117.188,68.297C117.188,68.83 117.107,69.343 116.961,69.828C118.459,70.116 119.661,71.197 120.149,72.613C120.848,72.27 121.631,72.073 122.463,72.073C125.376,72.073 127.737,74.434 127.737,77.347C127.737,78.345 127.455,79.275 126.973,80.071L130.721,83.111C130.721,83.111 131.02,83.455 131.503,84.015C132.464,83 133.821,82.364 135.329,82.364C138.242,82.364 140.603,84.725 140.603,87.638C140.603,88.993 140.087,90.225 139.247,91.159C139.497,91.126 139.75,91.103 140.01,91.103C143.223,91.103 145.828,93.708 145.828,96.921C145.828,97.582 145.713,98.214 145.51,98.806C146.778,97.739 147.586,96.141 147.586,94.354C147.584,91.141 144.979,88.535 141.766,88.535Z" style="fill:rgb(237,228,180);fill-rule:nonzero;" />
                                            </svg:g>
                                            <svg:g>
                                                <svg:path d="M58.129,86.143C58.911,86.143 59.655,86.299 60.336,86.577C60.409,85.501 60.882,84.541 61.605,83.837C61.062,83.669 60.485,83.576 59.887,83.576C57.325,83.576 55.153,85.227 54.364,87.521C55.381,86.662 56.694,86.143 58.129,86.143Z" style="fill:rgb(237,228,180);fill-rule:nonzero;" />
                                            </svg:g>
                                            <svg:g>
                                                <svg:path d="M51.797,93.683C52.058,93.683 52.311,93.714 52.559,93.76C52.381,93.201 52.284,92.606 52.284,91.988C52.284,91.763 52.3,91.541 52.325,91.322C50.915,91.762 49.825,92.917 49.506,94.376C50.162,93.94 50.949,93.683 51.797,93.683Z" style="fill:rgb(237,228,180);fill-rule:nonzero;" />
                                            </svg:g>
                                        </svg:g>
                                        <svg:g opacity="0.25">
                                            <svg:path d="M89.719,93.352C89.719,83.47 80.826,75.238 69.042,73.409C67.103,74.189 65.733,76.083 65.733,78.301C65.733,78.926 65.847,79.523 66.047,80.079C63.924,80.21 62.237,81.89 62.094,84.01C61.413,83.732 60.668,83.576 59.887,83.576C56.658,83.576 54.041,86.193 54.041,89.422C54.041,90.04 54.138,90.635 54.316,91.194C54.068,91.148 53.815,91.117 53.554,91.117C51.261,91.117 49.403,92.976 49.403,95.268C49.403,97.56 51.262,99.419 53.554,99.419C54.556,99.419 55.462,99.05 56.179,98.459C56.983,100.344 58.853,101.665 61.032,101.665C68.584,103.774 76.706,104.886 84.785,105.338C87.886,101.977 89.719,97.835 89.719,93.352Z" style="fill:white;fill-rule:nonzero;" />
                                        </svg:g>
                                    </svg:g>
                                    <svg:g>
                                        <svg:path d="M93.763,106.055C82.789,106.055 71.321,105.049 60.963,102.165C58.881,102.14 56.995,101.004 55.993,99.21C55.255,99.675 54.423,99.919 53.555,99.919C50.99,99.919 48.904,97.832 48.904,95.268C48.904,92.67 51.039,90.546 53.656,90.619C53.58,90.225 53.542,89.824 53.542,89.422C53.542,85.923 56.389,83.076 59.888,83.076C60.499,83.076 61.101,83.163 61.684,83.336C62.069,81.483 63.541,80.024 65.399,79.659C65.289,79.212 65.233,78.757 65.233,78.301C65.233,75.117 67.823,72.527 71.007,72.527C71.674,72.527 72.324,72.641 72.948,72.866C73.559,70.3 75.867,68.436 78.561,68.436C79.034,68.436 79.505,68.496 79.97,68.614C80.635,66.365 82.896,64.846 85.332,65.307C85.309,65.101 85.297,64.896 85.297,64.694C85.297,61.51 87.887,58.92 91.071,58.92C93.168,58.92 95.075,60.049 96.093,61.844C96.886,61.287 97.825,60.986 98.794,60.986C100.47,60.986 101.995,61.861 102.847,63.264C104.505,61.913 106.91,61.599 108.881,62.503C109.949,60.919 111.742,59.953 113.669,59.953C116.853,59.953 119.444,62.543 119.444,65.727C119.444,66.12 119.404,66.512 119.324,66.896C120.57,67.288 121.606,68.192 122.173,69.381C122.829,69.13 123.515,69.003 124.218,69.003C127.402,69.003 129.992,71.593 129.992,74.777C129.992,75.679 129.778,76.57 129.368,77.377L132.791,80.153L133.289,80.721C134.341,79.797 135.67,79.293 137.084,79.293C140.268,79.293 142.858,81.883 142.858,85.067C142.858,86.121 142.568,87.145 142.029,88.038C145.391,88.177 148.083,90.956 148.083,94.351C148.083,97.815 145.281,100.637 141.824,100.669C140.52,100.978 118.401,106.054 93.763,106.055ZM56.378,97.648L56.64,98.262C57.393,100.026 59.117,101.165 61.033,101.165L61.167,101.184C95.08,110.657 141.187,99.797 141.649,99.686L141.766,99.672C144.699,99.672 147.084,97.286 147.084,94.354C147.084,91.421 144.698,89.036 141.766,89.036C141.529,89.036 141.298,89.057 141.069,89.087L139.725,89.265L140.632,88.257C141.424,87.377 141.86,86.245 141.86,85.07C141.86,82.437 139.718,80.296 137.086,80.296C135.766,80.296 134.536,80.827 133.623,81.791L133.243,82.192L132.1,80.871L128.076,77.617L128.302,77.244C128.755,76.497 128.994,75.645 128.994,74.78C128.994,72.147 126.852,70.006 124.22,70.006C123.494,70.006 122.79,70.17 122.126,70.495L121.618,70.744L121.434,70.209C120.998,68.943 119.921,68.002 118.624,67.753L118.079,67.648L118.24,67.117C118.377,66.666 118.446,66.199 118.446,65.731C118.446,63.098 116.304,60.957 113.671,60.957C111.946,60.957 110.348,61.895 109.504,63.406L109.259,63.844L108.822,63.597C108.108,63.194 107.299,62.981 106.482,62.981C105.185,62.981 103.971,63.495 103.063,64.427L102.538,64.967L102.244,64.274C101.657,62.887 100.304,61.991 98.798,61.991C97.864,61.991 96.965,62.347 96.266,62.995L95.745,63.477L95.466,62.825C94.713,61.063 92.989,59.925 91.075,59.925C88.442,59.925 86.301,62.067 86.301,64.699C86.301,65.084 86.353,65.483 86.456,65.884L86.692,66.807L85.798,66.477C83.443,65.606 81.213,67.12 80.831,69.337L80.73,69.924L80.169,69.723C79.644,69.535 79.104,69.44 78.564,69.44C76.154,69.44 74.118,71.244 73.829,73.635L73.744,74.335L73.112,74.024C72.447,73.697 71.74,73.531 71.01,73.531C68.377,73.531 66.236,75.673 66.236,78.305C66.236,78.847 66.332,79.388 66.521,79.914L66.746,80.541L66.081,80.582C64.22,80.697 62.722,82.187 62.597,84.048L62.55,84.739L61.909,84.477C61.263,84.213 60.584,84.08 59.891,84.08C56.943,84.08 54.545,86.478 54.545,89.426C54.545,89.975 54.63,90.521 54.797,91.047L55.05,91.843L54.228,91.69C53.983,91.644 53.764,91.622 53.558,91.622C51.545,91.622 49.907,93.26 49.907,95.273C49.907,97.286 51.545,98.924 53.558,98.924C54.396,98.924 55.194,98.631 55.866,98.078L56.378,97.648Z" style="fill:rgb(21,47,71);fill-rule:nonzero;" />
                                    </svg:g>
                                </svg:g>
                                <svg:g>
                                    <svg:g>
                                        <svg:path d="M147.55,95.828C129.28,102.28 98.392,102.02 98.391,102.02C98.39,102.02 67.501,102.28 49.232,95.828C49.232,95.828 45.984,100.338 49.232,107.037C49.232,107.037 54.06,113.678 98.391,113.678C142.722,113.678 147.55,107.037 147.55,107.037C150.798,100.338 147.55,95.828 147.55,95.828Z" style="fill:rgb(244,201,201);fill-rule:nonzero;" />
                                    </svg:g>
                                    <svg:g>
                                        <svg:path d="M147.55,103.209C147.55,103.209 142.722,109.85 98.391,109.85C54.059,109.85 49.232,103.209 49.232,103.209C48.539,101.78 48.154,100.458 47.958,99.251C47.618,101.195 47.694,103.866 49.232,107.037C49.232,107.037 54.06,113.678 98.391,113.678C142.722,113.678 147.55,107.037 147.55,107.037C149.087,103.866 149.164,101.195 148.824,99.251C148.628,100.458 148.243,101.78 147.55,103.209Z" style="fill:rgb(234,181,181);fill-rule:nonzero;" />
                                    </svg:g>
                                </svg:g>
                                <svg:g>
                                    <svg:path d="M98.391,114.178C54.311,114.178 49.031,107.611 48.827,107.331C45.442,100.367 48.686,95.73 48.826,95.537L49.045,95.233L49.398,95.357C67.362,101.701 98.082,101.525 98.386,101.521C98.709,101.525 129.419,101.701 147.383,95.357L147.737,95.233L147.956,95.537C148.096,95.731 151.339,100.368 148,107.256C147.751,107.61 142.471,114.178 98.391,114.178ZM49.653,106.759C50.087,107.208 56.691,113.177 98.391,113.177C140.091,113.177 146.695,107.208 147.129,106.759C149.72,101.36 147.969,97.524 147.339,96.431C129.173,102.7 99.644,102.531 98.387,102.52C97.139,102.523 67.606,102.699 49.443,96.431C48.813,97.524 47.061,101.359 49.653,106.759Z" style="fill:rgb(21,47,71);fill-rule:nonzero;" />
                                </svg:g>
                            </svg:g>
                        </svg:g>
                    </svg:g>
                    <svg:g>
                        <svg:g>
                            <svg:g>
                                <svg:path d="M59.338,121.691C60.011,125.861 60.685,130.031 61.358,134.2C61.453,134.79 61.549,135.379 61.644,135.969C61.767,136.729 62.948,136.539 62.825,135.778C62.152,131.608 61.478,127.438 60.805,123.269C60.71,122.679 60.615,122.089 60.519,121.5C60.397,120.74 59.216,120.93 59.338,121.691Z" style="fill:white;fill-rule:nonzero;" />
                            </svg:g>
                        </svg:g>
                        <svg:g>
                            <svg:path d="M63.124,138.044C63.171,138.335 62.973,138.608 62.683,138.655C62.393,138.702 62.119,138.504 62.072,138.214C62.025,137.924 62.223,137.65 62.513,137.603C62.804,137.555 63.078,137.753 63.124,138.044Z" style="fill:white;fill-rule:nonzero;" />
                        </svg:g>
                    </svg:g>
                </svg:g>
                <svg:g>
                    <svg:g>
                        <svg:g>
                            <svg:g>
                                <svg:g>
                                    <svg:g>
                                        <svg:path d="M79.512,139.683C79.518,138.137 79.699,136.591 80.164,135.113C80.487,134.088 80.963,132.966 81.808,132.257C82.404,131.757 83.048,131.687 83.682,132.09C84.531,132.629 85.043,133.69 85.379,134.599C85.978,136.223 86.2,137.959 86.207,139.683C86.21,140.453 87.406,140.454 87.403,139.683C87.396,137.92 87.178,136.119 86.593,134.449C86.166,133.23 85.541,131.977 84.479,131.191C83.604,130.544 82.482,130.452 81.531,130.997C80.438,131.625 79.772,132.825 79.314,133.955C78.582,135.757 78.325,137.749 78.317,139.683C78.312,140.453 79.508,140.454 79.512,139.683Z" style="fill:rgb(21,47,71);fill-rule:nonzero;" />
                                    </svg:g>
                                </svg:g>
                            </svg:g>
                            <svg:g>
                                <svg:g>
                                    <svg:g>
                                        <svg:path d="M109.541,139.683C109.547,138.137 109.728,136.591 110.194,135.113C110.517,134.088 110.993,132.966 111.838,132.257C112.434,131.757 113.078,131.687 113.712,132.09C114.561,132.629 115.073,133.69 115.408,134.599C116.007,136.223 116.229,137.959 116.236,139.683C116.239,140.453 117.435,140.454 117.432,139.683C117.425,137.92 117.207,136.119 116.622,134.449C116.195,133.23 115.57,131.977 114.508,131.191C113.633,130.544 112.511,130.452 111.56,130.997C110.467,131.625 109.801,132.825 109.343,133.955C108.611,135.757 108.354,137.749 108.346,139.683C108.342,140.453 109.538,140.454 109.541,139.683Z" style="fill:rgb(21,47,71);fill-rule:nonzero;" />
                                    </svg:g>
                                </svg:g>
                            </svg:g>
                        </svg:g>
                        <svg:g>
                            <svg:g>
                                <svg:path d="M95.028,141.534C95.028,141.534 95.709,145.722 98.28,145.722C100.851,145.722 101.375,141.534 101.375,141.534C101.375,141.534 98.637,140.683 98.28,138.129C98.28,138.129 97.581,141.364 95.028,141.534Z" style="fill:rgb(255,129,206);fill-rule:nonzero;" />
                            </svg:g>
                            <svg:g>
                                <svg:path d="M105.533,137.077C105.557,136.403 104.514,136.406 104.491,137.077C104.432,138.774 103.628,140.85 101.666,140.966C99.713,141.081 98.894,138.594 98.841,137.077C98.829,136.731 98.549,136.566 98.283,136.576C98.014,136.566 97.734,136.731 97.721,137.077C97.663,138.774 96.858,140.85 94.897,140.966C92.944,141.081 92.123,138.594 92.072,137.077C92.048,136.406 91.004,136.403 91.027,137.077C91.105,139.345 92.286,141.751 94.743,141.992C95.249,143.748 96.292,145.993 98.281,146.129C100.198,146.26 101.277,143.652 101.723,142.008C104.238,142.111 105.464,139.137 105.533,137.077ZM98.281,145.285C96.898,145.379 96.026,143.299 95.615,141.958C96.899,141.714 97.778,140.615 98.275,139.364C98.758,140.554 99.621,141.528 100.886,141.874C100.512,143.247 99.746,145.183 98.281,145.285Z" style="fill:rgb(21,47,71);fill-rule:nonzero;" />
                            </svg:g>
                        </svg:g>
                    </svg:g>
                    <svg:g>
                        <svg:g>
                            <svg:path d="M84.087,142.931C83.783,143.729 81.686,143.669 79.403,142.798C77.12,141.927 75.517,140.574 75.821,139.777C76.125,138.979 78.222,139.039 80.505,139.91C82.788,140.781 84.392,142.133 84.087,142.931Z" style="fill:rgb(255,129,206);fill-rule:nonzero;" />
                        </svg:g>
                        <svg:g>
                            <svg:path d="M111.66,142.931C111.964,143.729 114.061,143.669 116.344,142.798C118.627,141.927 120.23,140.574 119.926,139.777C119.622,138.979 117.525,139.039 115.242,139.91C112.959,140.781 111.355,142.133 111.66,142.931Z" style="fill:rgb(255,129,206);fill-rule:nonzero;" />
                        </svg:g>
                    </svg:g>
                </svg:g>
            </svg:g>
        </svg:g>
    </g>
</svg>