<?xml version='1.0' encoding='UTF-8'?>
<svg xmlns="http://www.w3.org/2000/svg" xmlns:xlink="http://www.w3.org/1999/xlink" xmlns:svg="http://www.w3.org/2000/svg" xmlns:serif="http://www.serif.com/" height="100%" style="fill-rule:evenodd;clip-rule:evenodd;" version="1.1" viewBox="186.667 260.0 66.667 100.0" width="100%">
    <g>
        <svg:rect x="186.667" y="260" width="66.667" height="100" style="fill:rgb(212,251,121);" />
        <svg:g transform="matrix(0.626815,0,0,0.626815,65.2571,242.961)">
            <svg:g>
                <svg:g>
                    <svg:g transform="matrix(0.0885,-0.9961,0.9961,0.0885,133.59,327.245)">
                        <svg:rect x="187.475" y="87.713" width="116.251" height="5.832" style="fill:rgb(195,197,244);" />
                    </svg:g>
                    <svg:g>
                        <svg:g>
                            <svg:clipPath id="_clip47">
                                <svg:path d="M247.841,32.466L253.65,32.982L243.362,148.78L237.553,148.264L247.841,32.466Z" />
                            </svg:clipPath>
                            <svg:g clip-path="url(#_clip47)">
                                <svg:g>
                                    <svg:g transform="matrix(0.9077,-0.4197,0.4197,0.9077,-34.6833,115.187)">
                                        <svg:rect x="164.175" y="134.211" width="160.566" height="4.423" style="fill:rgb(117,126,234);" />
                                    </svg:g>
                                    <svg:g transform="matrix(0.9077,-0.4197,0.4197,0.9077,-28.5133,114.392)">
                                        <svg:rect x="165.457" y="119.792" width="160.566" height="4.421" style="fill:rgb(117,126,234);" />
                                    </svg:g>
                                </svg:g>
                                <svg:g>
                                    <svg:g transform="matrix(0.9077,-0.4196,0.4196,0.9077,-22.343,113.593)">
                                        <svg:rect x="166.739" y="105.371" width="160.565" height="4.421" style="fill:rgb(117,126,234);" />
                                    </svg:g>
                                    <svg:g transform="matrix(0.9077,-0.4197,0.4197,0.9077,-16.173,112.808)">
                                        <svg:rect x="168.02" y="90.951" width="160.565" height="4.423" style="fill:rgb(117,126,234);" />
                                    </svg:g>
                                </svg:g>
                                <svg:g>
                                    <svg:g transform="matrix(0.9077,-0.4197,0.4197,0.9077,-10.0032,112.011)">
                                        <svg:rect x="169.301" y="76.53" width="160.566" height="4.423" style="fill:rgb(117,126,234);" />
                                    </svg:g>
                                    <svg:g transform="matrix(0.9077,-0.4197,0.4197,0.9077,-3.8327,111.22)">
                                        <svg:rect x="170.583" y="62.11" width="160.566" height="4.423" style="fill:rgb(117,126,234);" />
                                    </svg:g>
                                </svg:g>
                                <svg:g>
                                    <svg:g transform="matrix(0.9077,-0.4197,0.4197,0.9077,2.3377,110.426)">
                                        <svg:rect x="171.864" y="47.689" width="160.567" height="4.422" style="fill:rgb(117,126,234);" />
                                    </svg:g>
                                    <svg:g transform="matrix(0.9077,-0.4197,0.4197,0.9077,8.5075,109.631)">
                                        <svg:rect x="173.147" y="33.268" width="160.565" height="4.422" style="fill:rgb(117,126,234);" />
                                    </svg:g>
                                </svg:g>
                            </svg:g>
                        </svg:g>
                    </svg:g>
                    <svg:g>
                        <svg:path d="M243.813,149.327L237.008,148.722L247.387,31.931L254.192,32.537L254.148,33.035L243.813,149.327ZM238.093,147.815L242.906,148.242L253.109,33.445L248.295,33.016L238.093,147.815Z" style="fill:rgb(21,47,71);fill-rule:nonzero;" />
                    </svg:g>
                </svg:g>
                <svg:g>
                    <svg:g>
                        <svg:g>
                            <svg:g>
                                <svg:g>
                                    <svg:path d="M244.517,92.168C232.083,92.168 220.871,90.085 212.906,87.573C214.291,102.311 220.495,168.64 221.186,172.463C221.964,176.77 227.796,176.868 227.796,176.868L261.234,176.868C261.234,176.868 267.067,176.77 267.845,172.463C268.535,168.641 274.741,102.312 276.124,87.574C268.162,90.086 256.949,92.168 244.517,92.168Z" style="fill:rgb(241,193,247);fill-rule:nonzero;" />
                                </svg:g>
                                <svg:g>
                                    <svg:path d="M262.162,90.785C267.187,99.091 270.162,109.356 270.162,120.472C270.162,148.108 251.803,170.511 229.157,170.511C226.298,170.511 223.509,170.152 220.816,169.473C220.989,171.032 221.117,172.074 221.187,172.463C221.965,176.77 227.797,176.868 227.797,176.868L261.235,176.868C261.235,176.868 267.068,176.77 267.846,172.463C268.536,168.641 274.742,102.312 276.125,87.574C272.185,88.817 267.447,89.953 262.162,90.785Z" style="fill:rgb(231,180,239);fill-rule:nonzero;" />
                                </svg:g>
                                <svg:g opacity="0.25">
                                    <svg:path d="M212.906,87.573C213.682,95.823 215.967,120.239 217.95,140.808C233.057,138.595 244.708,124.485 244.708,107.396C244.708,101.894 243.493,96.706 241.351,92.118C230.188,91.803 220.188,89.87 212.906,87.573Z" style="fill:white;fill-rule:nonzero;" />
                                </svg:g>
                            </svg:g>
                            <svg:g>
                                <svg:path d="M245.683,177.368L227.797,177.368C227.726,177.367 221.536,177.209 220.694,172.552C220.048,168.976 214.757,112.636 212.766,91.426L212.338,86.869L213.057,87.096C218.47,88.804 229.754,91.668 244.517,91.668C259.278,91.668 270.562,88.804 275.975,87.097L276.694,86.87L276.422,89.767C271.499,142.256 268.779,170.108 268.338,172.551C267.496,177.208 261.306,177.366 261.243,177.367L245.683,177.367L245.683,177.368ZM213.474,88.273L213.762,91.333C215.562,110.503 221.04,168.84 221.679,172.374C222.374,176.221 227.752,176.367 227.806,176.368L261.235,176.368C261.28,176.367 266.659,176.222 267.354,172.374C267.791,169.96 270.506,142.135 275.426,89.675L275.558,88.274C269.847,90.013 258.788,92.669 244.517,92.669C230.243,92.668 219.184,90.012 213.474,88.273Z" style="fill:rgb(21,47,71);fill-rule:nonzero;" />
                            </svg:g>
                        </svg:g>
                        <svg:g>
                            <svg:g>
                                <svg:path d="M268.118,73.12C266.474,72.791 250.332,73.12 244.511,73.12C238.69,73.12 222.548,72.791 220.904,73.12C219.26,73.449 215.631,83.024 215.631,83.024C227.784,90.133 244.51,88.722 244.51,88.722C244.51,88.722 261.236,90.133 273.389,83.024C273.391,83.024 269.762,73.449 268.118,73.12Z" style="fill:rgb(241,193,247);fill-rule:nonzero;" />
                            </svg:g>
                            <svg:g>
                                <svg:path d="M268.118,73.12C267.886,73.074 267.357,73.041 266.617,73.018C265.412,80.678 251.299,86.725 234.053,86.725C229.284,86.725 224.758,86.259 220.674,85.428C231.939,89.779 244.511,88.722 244.511,88.722C244.511,88.722 261.237,90.133 273.39,83.024C273.391,83.024 269.762,73.449 268.118,73.12Z" style="fill:rgb(233,177,242);fill-rule:nonzero;" />
                            </svg:g>
                            <svg:g>
                                <svg:path d="M247.946,89.327C245.822,89.327 244.516,89.223 244.469,89.22C244.386,89.235 227.53,90.563 215.38,83.456L215.015,83.243L215.164,82.847C216.038,80.54 219.029,72.986 220.806,72.63C221.918,72.407 228.559,72.462 237.122,72.558C240.069,72.591 242.759,72.621 244.511,72.621C246.264,72.621 248.953,72.591 251.901,72.558C260.464,72.463 267.106,72.409 268.215,72.63L268.216,72.63C269.992,72.986 272.983,80.54 273.858,82.847L274.007,83.243L273.643,83.456C264.834,88.608 253.549,89.327 247.946,89.327ZM216.252,82.804C228.094,89.51 244.306,88.236 244.469,88.224C244.715,88.236 260.927,89.511 272.771,82.804C271.085,78.431 268.823,73.788 268.02,73.611C266.921,73.392 258.248,73.488 251.912,73.558C248.96,73.591 246.267,73.621 244.511,73.621C242.756,73.621 240.062,73.591 237.111,73.558C230.777,73.488 222.101,73.392 221.003,73.611C220.2,73.787 217.938,78.43 216.252,82.804Z" style="fill:rgb(21,47,71);fill-rule:nonzero;" />
                            </svg:g>
                        </svg:g>
                        <svg:g>
                            <svg:g>
                                <svg:path d="M212.898,108.742C214.196,122.49 215.76,138.941 217.046,152.084C240.75,159.823 262.585,154.87 272.004,151.911C273.283,138.83 274.835,122.514 276.125,108.847C247.473,114.621 223.371,110.989 212.898,108.742Z" style="fill:rgb(248,229,229);fill-rule:nonzero;" />
                            </svg:g>
                            <svg:g>
                                <svg:g>
                                    <svg:path d="M238.149,115.499C238.117,114.732 236.92,114.728 236.953,115.499C237.422,126.648 237.89,137.797 238.359,148.946C238.426,150.535 238.493,152.124 238.559,153.714C238.591,154.481 239.788,154.485 239.755,153.714C239.286,142.565 238.818,131.416 238.349,120.267C238.282,118.678 238.215,117.089 238.149,115.499Z" style="fill:rgb(247,210,210);fill-rule:nonzero;" />
                                </svg:g>
                                <svg:g>
                                    <svg:path d="M230.18,114.89C230.12,114.128 228.923,114.121 228.984,114.89C229.855,125.938 230.726,136.986 231.597,148.034C231.722,149.623 231.847,151.211 231.973,152.8C232.033,153.562 233.23,153.569 233.169,152.8C232.298,141.752 231.427,130.704 230.556,119.656C230.43,118.068 230.305,116.479 230.18,114.89Z" style="fill:rgb(247,210,210);fill-rule:nonzero;" />
                                </svg:g>
                                <svg:g>
                                    <svg:path d="M222.548,114.89C222.461,114.134 221.264,114.125 221.352,114.89C222.58,125.607 223.808,136.325 225.036,147.042C225.209,148.555 225.383,150.069 225.556,151.582C225.643,152.338 226.84,152.347 226.752,151.582C225.524,140.865 224.296,130.147 223.068,119.43C222.895,117.917 222.721,116.404 222.548,114.89Z" style="fill:rgb(247,210,210);fill-rule:nonzero;" />
                                </svg:g>
                                <svg:g>
                                    <svg:path d="M217.187,114.89C217.119,114.129 215.922,114.122 215.991,114.89C216.903,125.08 217.815,135.27 218.726,145.461C218.857,146.926 218.988,148.391 219.119,149.855C219.187,150.616 220.384,150.623 220.315,149.855C219.403,139.665 218.491,129.475 217.58,119.284C217.449,117.82 217.318,116.355 217.187,114.89Z" style="fill:rgb(247,210,210);fill-rule:nonzero;" />
                                </svg:g>
                                <svg:g>
                                    <svg:path d="M244.708,114.316C244.402,114.307 244.09,114.496 244.09,114.89L244.09,154.475C244.09,154.868 244.402,155.058 244.708,155.05C245.014,155.059 245.326,154.869 245.326,154.475L245.326,114.89C245.326,114.496 245.014,114.307 244.708,114.316Z" style="fill:rgb(247,210,210);fill-rule:nonzero;" />
                                </svg:g>
                                <svg:g>
                                    <svg:path d="M251.268,115.499C251.201,117.088 251.134,118.678 251.068,120.267C250.599,131.416 250.131,142.565 249.662,153.714C249.63,154.485 250.826,154.481 250.858,153.714C250.925,152.125 250.992,150.536 251.058,148.946C251.527,137.797 251.995,126.648 252.464,115.499C252.496,114.728 251.3,114.732 251.268,115.499Z" style="fill:rgb(247,210,210);fill-rule:nonzero;" />
                                </svg:g>
                                <svg:g>
                                    <svg:path d="M259.236,114.89C259.111,116.479 258.986,118.067 258.86,119.656C257.989,130.704 257.118,141.752 256.248,152.8C256.187,153.569 257.384,153.562 257.444,152.8C257.569,151.211 257.694,149.623 257.82,148.034C258.691,136.986 259.562,125.938 260.432,114.89C260.493,114.121 259.296,114.128 259.236,114.89Z" style="fill:rgb(247,210,210);fill-rule:nonzero;" />
                                </svg:g>
                                <svg:g>
                                    <svg:path d="M266.869,114.89C266.696,116.403 266.522,117.917 266.349,119.43C265.121,130.147 263.893,140.865 262.665,151.582C262.577,152.347 263.774,152.338 263.861,151.582C264.034,150.069 264.208,148.555 264.381,147.042C265.609,136.325 266.837,125.607 268.065,114.89C268.152,114.126 266.955,114.134 266.869,114.89Z" style="fill:rgb(247,210,210);fill-rule:nonzero;" />
                                </svg:g>
                                <svg:g>
                                    <svg:path d="M272.229,114.89C272.098,116.355 271.967,117.82 271.836,119.284C270.924,129.474 270.012,139.664 269.1,149.855C269.031,150.623 270.228,150.616 270.296,149.855C270.427,148.39 270.558,146.925 270.689,145.461C271.601,135.271 272.513,125.081 273.425,114.89C273.494,114.122 272.297,114.13 272.229,114.89Z" style="fill:rgb(247,210,210);fill-rule:nonzero;" />
                                </svg:g>
                            </svg:g>
                        </svg:g>
                        <svg:g>
                            <svg:g>
                                <svg:g>
                                    <svg:path d="M211.532,92.555C218.503,94.862 225.988,95.995 233.26,96.745C245.584,98.015 258.093,97.123 270.185,94.469C272.639,93.93 275.109,93.347 277.497,92.557C280.058,91.71 281.995,88.951 281.106,86.201C280.28,83.648 277.498,81.683 274.75,82.593C272.894,83.207 270.985,83.681 269.085,84.13C266.984,84.626 264.868,85.058 262.743,85.433C261.49,85.654 260.234,85.848 258.975,86.034C257.668,86.228 259.78,85.936 258.938,86.042C258.593,86.085 258.249,86.131 257.904,86.173C257.049,86.277 256.192,86.372 255.335,86.457C248.883,87.096 242.389,87.17 235.925,86.656C234.463,86.54 233.003,86.395 231.546,86.223C231.198,86.182 230.851,86.139 230.503,86.095C230.074,86.04 229.38,86.201 230.453,86.09C229.745,86.163 228.816,85.852 228.121,85.741C225.885,85.383 223.658,84.962 221.447,84.473C219.041,83.941 216.62,83.367 214.278,82.592C211.71,81.742 208.52,83.575 207.923,86.201C207.275,89.046 208.783,91.646 211.532,92.555Z" style="fill:rgb(228,148,242);fill-rule:nonzero;" />
                                </svg:g>
                            </svg:g>
                            <svg:g>
                                <svg:path d="M280.724,85.307C280.047,86.555 278.864,87.553 277.498,88.005C275.11,88.795 272.64,89.378 270.186,89.917C258.093,92.572 245.584,93.464 233.261,92.193C225.988,91.443 218.504,90.31 211.533,88.003C210.021,87.503 208.905,86.482 208.296,85.199C208.132,85.516 208.004,85.849 207.925,86.198C207.277,89.044 208.784,91.644 211.534,92.553C218.505,94.86 225.99,95.993 233.262,96.743C245.586,98.013 258.095,97.121 270.187,94.467C272.641,93.928 275.111,93.345 277.499,92.555C280.06,91.708 281.997,88.949 281.107,86.2C281.007,85.893 280.878,85.593 280.724,85.307Z" style="fill:rgb(215,130,232);fill-rule:nonzero;" />
                            </svg:g>
                        </svg:g>
                        <svg:g opacity="0.1">
                            <svg:path d="M269.914,109.962C269.923,110.289 269.943,110.615 269.943,110.944C269.943,133.911 248.225,152.529 221.435,152.529C220.324,152.529 219.226,152.485 218.134,152.423C241.416,159.663 262.729,154.826 272.004,151.912C273.283,138.831 274.835,122.515 276.125,108.848C274.028,109.269 271.958,109.636 269.914,109.962Z" style="fill:rgb(193,66,45);fill-rule:nonzero;" />
                        </svg:g>
                    </svg:g>
                    <svg:g>
                        <svg:path d="M243.572,156.691C235.412,156.691 226.28,155.625 216.89,152.559L216.579,152.458L216.547,152.133C215.484,141.273 214.089,126.691 212.4,108.789L212.336,108.11L213.003,108.253C224.497,110.719 247.971,114.011 276.027,108.357L276.687,108.224L276.623,108.894C274.959,126.523 273.572,141.013 272.502,151.96L272.47,152.289L272.154,152.388C266.92,154.032 256.457,156.691 243.572,156.691ZM217.511,151.709C241.044,159.285 262.893,154.208 271.538,151.532C272.591,140.765 273.945,126.618 275.564,109.468C248.154,114.869 225.161,111.815 213.459,109.371C215.104,126.785 216.466,141.023 217.511,151.709Z" style="fill:rgb(21,47,71);fill-rule:nonzero;" />
                    </svg:g>
                    <svg:g>
                        <svg:g>
                            <svg:path d="M244.499,97.818C240.701,97.818 236.935,97.626 233.209,97.242C227.053,96.607 219.008,95.555 211.375,93.03C208.352,92.03 206.733,89.176 207.436,86.089C207.755,84.689 208.74,83.434 210.139,82.645C211.523,81.863 213.089,81.67 214.436,82.117C216.795,82.897 219.252,83.476 221.556,83.984C223.721,84.463 225.957,84.887 228.202,85.247C228.424,85.283 228.668,85.337 228.922,85.394C229.274,85.474 229.66,85.56 230.001,85.59C230.217,85.563 230.439,85.582 230.569,85.599L231.607,85.727C233.056,85.898 234.522,86.043 235.967,86.158C242.342,86.665 248.842,86.597 255.288,85.96C256.142,85.875 256.994,85.781 257.846,85.677L258.76,85.562C258.807,85.555 258.856,85.547 258.905,85.54C260.158,85.354 261.411,85.161 262.659,84.941C264.809,84.561 266.933,84.125 268.972,83.644C271.095,83.143 272.864,82.692 274.595,82.119C275.867,81.698 277.258,81.814 278.51,82.449C279.94,83.174 281.089,84.519 281.584,86.048C282.61,89.22 280.345,92.143 277.656,93.032C275.212,93.842 272.673,94.436 270.294,94.958C261.616,96.862 252.979,97.818 244.499,97.818ZM211.689,92.081C219.23,94.576 227.206,95.619 233.312,96.248C245.25,97.48 257.62,96.716 270.078,93.981C272.431,93.465 274.939,92.877 277.341,92.082C279.585,91.34 281.443,88.861 280.632,86.355C280.217,85.074 279.254,83.947 278.058,83.34C277.342,82.977 276.214,82.636 274.909,83.067C273.143,83.651 271.35,84.109 269.202,84.616C267.143,85.101 265.001,85.542 262.832,85.924C261.628,86.136 260.421,86.323 259.212,86.504C259.202,86.506 259.192,86.509 259.182,86.511L259.183,86.515L259.13,86.521C259.047,86.538 258.96,86.549 258.876,86.561C258.814,86.569 258.744,86.579 258.671,86.584C258.656,86.586 258.647,86.588 258.64,86.589L258.639,86.586C258.627,86.587 258.616,86.587 258.603,86.588L257.967,86.668C257.108,86.772 256.247,86.868 255.386,86.954C248.883,87.599 242.322,87.666 235.888,87.154C234.43,87.038 232.951,86.891 231.49,86.719L230.455,86.592C230.014,86.636 229.776,86.658 229.611,86.55C229.302,86.504 228.993,86.435 228.703,86.369C228.471,86.317 228.247,86.266 228.045,86.234C225.782,85.872 223.526,85.444 221.342,84.961C219.012,84.447 216.526,83.861 214.124,83.066C213.044,82.71 211.773,82.872 210.632,83.516C209.478,84.167 208.67,85.186 208.413,86.311C207.827,88.876 209.175,91.248 211.689,92.081Z" style="fill:rgb(21,47,71);fill-rule:nonzero;" />
                        </svg:g>
                    </svg:g>
                </svg:g>
                <svg:g>
                    <svg:g>
                        <svg:g>
                            <svg:path d="M217.801,100.925C218.265,105.123 218.729,109.321 219.193,113.52C219.259,114.114 219.324,114.708 219.39,115.301C219.475,116.066 220.664,115.936 220.579,115.17C220.115,110.972 219.651,106.774 219.187,102.575C219.121,101.981 219.056,101.387 218.99,100.794C218.906,100.029 217.717,100.159 217.801,100.925Z" style="fill:white;fill-rule:nonzero;" />
                        </svg:g>
                    </svg:g>
                    <svg:g>
                        <svg:path d="M220.765,117.447C220.797,117.74 220.586,118.003 220.294,118.035C220.002,118.067 219.738,117.856 219.706,117.564C219.674,117.271 219.885,117.008 220.177,116.976C220.469,116.943 220.733,117.155 220.765,117.447Z" style="fill:white;fill-rule:nonzero;" />
                    </svg:g>
                </svg:g>
            </svg:g>
            <svg:g>
                <svg:g>
                    <svg:g>
                        <svg:g>
                            <svg:g>
                                <svg:path d="M233.527,129.914C233.527,133.176 231.761,135.82 229.582,135.82C227.403,135.82 225.637,133.176 225.637,129.914C225.637,126.652 227.403,124.008 229.582,124.008C231.761,124.008 233.527,126.652 233.527,129.914Z" style="fill:rgb(21,47,71);fill-rule:nonzero;" />
                            </svg:g>
                            <svg:g>
                                <svg:g>
                                    <svg:circle cx="228.749" cy="127.491" r="1.638" style="fill:white;" />
                                </svg:g>
                                <svg:g>
                                    <svg:circle cx="230.975" cy="130.098" r="1.078" style="fill:white;" />
                                </svg:g>
                            </svg:g>
                        </svg:g>
                        <svg:g>
                            <svg:g>
                                <svg:path d="M263.557,129.914C263.557,133.176 261.791,135.82 259.612,135.82C257.433,135.82 255.667,133.176 255.667,129.914C255.667,126.652 257.433,124.008 259.612,124.008C261.791,124.008 263.557,126.652 263.557,129.914Z" style="fill:rgb(21,47,71);fill-rule:nonzero;" />
                            </svg:g>
                            <svg:g>
                                <svg:g>
                                    <svg:path d="M260.417,127.491C260.417,128.396 259.684,129.129 258.779,129.129C257.874,129.129 257.141,128.396 257.141,127.491C257.141,126.586 257.874,125.853 258.779,125.853C259.684,125.853 260.417,126.587 260.417,127.491Z" style="fill:white;fill-rule:nonzero;" />
                                </svg:g>
                                <svg:g>
                                    <svg:circle cx="261.005" cy="130.098" r="1.078" style="fill:white;" />
                                </svg:g>
                            </svg:g>
                        </svg:g>
                    </svg:g>
                    <svg:g>
                        <svg:g>
                            <svg:path d="M240.897,132.335C240.897,132.335 239.932,140.219 244.631,140.219C249.329,140.219 248.508,132.261 248.508,132.261C248.508,132.261 244.174,133.693 240.897,132.335Z" style="fill:rgb(255,201,226);fill-rule:nonzero;" />
                        </svg:g>
                        <svg:g>
                            <svg:g>
                                <svg:path d="M239.323,131.918C242.466,134.015 246.64,133.464 249.85,131.918C250.272,131.715 249.904,131.09 249.484,131.292C246.498,132.73 242.608,133.239 239.689,131.292C239.298,131.031 238.935,131.66 239.323,131.918Z" style="fill:rgb(21,47,71);fill-rule:nonzero;" />
                            </svg:g>
                        </svg:g>
                        <svg:g>
                            <svg:path d="M248.87,132.261C248.837,131.797 248.112,131.794 248.143,132.261C248.311,134.716 248.075,139.334 244.994,139.822L244.994,136.009C244.994,135.541 244.268,135.541 244.268,136.009L244.268,139.864C241.277,139.664 240.938,134.975 241.127,132.668C241.165,132.201 240.439,132.205 240.401,132.668C240.154,135.671 240.815,140.421 244.547,140.556C244.592,140.565 244.637,140.567 244.682,140.561C244.755,140.562 244.821,140.573 244.895,140.569C248.609,140.419 249.058,135.004 248.87,132.261Z" style="fill:rgb(21,47,71);fill-rule:nonzero;" />
                        </svg:g>
                    </svg:g>
                </svg:g>
                <svg:g>
                    <svg:g>
                        <svg:path d="M230.764,136.671C230.46,137.469 228.363,137.409 226.08,136.538C223.798,135.667 222.194,134.315 222.498,133.517C222.802,132.719 224.899,132.779 227.182,133.65C229.465,134.521 231.069,135.873 230.764,136.671Z" style="fill:rgb(255,129,206);fill-rule:nonzero;" />
                    </svg:g>
                    <svg:g>
                        <svg:path d="M258.336,136.671C258.64,137.469 260.737,137.409 263.02,136.538C265.303,135.667 266.906,134.315 266.602,133.517C266.298,132.719 264.201,132.779 261.918,133.65C259.635,134.521 258.032,135.873 258.336,136.671Z" style="fill:rgb(255,129,206);fill-rule:nonzero;" />
                    </svg:g>
                </svg:g>
            </svg:g>
        </svg:g>
    </g>
</svg>