<?xml version='1.0' encoding='UTF-8'?>
<svg xmlns="http://www.w3.org/2000/svg" xmlns:xlink="http://www.w3.org/1999/xlink" xmlns:svg="http://www.w3.org/2000/svg" xmlns:serif="http://www.serif.com/" height="100%" style="fill-rule:evenodd;clip-rule:evenodd;" version="1.1" viewBox="195.0 380.0 50.0 100.0" width="100%">
    <g>
        <svg:rect x="195" y="380" width="50" height="100" style="fill:rgb(115,252,214);" />
        <svg:g transform="matrix(0.702575,0,0,0.702575,89.1407,356.893)">
            <svg:g>
                <svg:g>
                    <svg:g>
                        <svg:g>
                            <svg:g>
                                <svg:path d="M196.399,157.627C196.507,159.939 194.705,161.831 192.39,161.831L183.974,161.831C181.661,161.831 179.857,159.938 179.965,157.627L181.672,121.504C181.781,119.192 183.764,117.301 186.078,117.301L190.286,117.301C192.6,117.301 194.583,119.193 194.691,121.504L196.399,157.627Z" style="fill:rgb(255,183,160);fill-rule:nonzero;" />
                            </svg:g>
                            <svg:g>
                                <svg:g>
                                    <svg:clipPath id="_clip50">
                                        <svg:path d="M196.399,157.627C196.507,159.939 194.705,161.831 192.39,161.831L183.974,161.831C181.661,161.831 179.857,159.938 179.965,157.627L181.672,121.504C181.781,119.192 183.764,117.301 186.078,117.301L190.286,117.301C192.6,117.301 194.583,119.193 194.691,121.504L196.399,157.627Z" />
                                    </svg:clipPath>
                                    <svg:g clip-path="url(#_clip50)">
                                        <svg:g>
                                            <svg:g>
                                                <svg:path d="M181.896,173.667C181.565,173.667 181.24,173.61 180.919,173.5C177.621,172.349 176.199,165.471 175.647,161.474C174.347,152.086 175.142,140.014 178.151,137.908C178.819,137.442 180.151,136.913 181.593,138.603C185.549,143.245 187.302,160.867 183.296,165.001L182.539,164.27C186.116,160.581 184.321,143.428 180.791,139.286C179.874,138.209 179.219,138.444 178.755,138.771C176.366,140.442 175.343,151.618 176.689,161.331C177.561,167.635 179.272,171.813 181.265,172.509C182.163,172.82 183.186,172.433 184.313,171.358C192.386,163.651 189.874,152.788 186.962,140.209C186.487,138.164 186.006,136.085 185.564,133.979C182.416,119.025 185.448,109.392 185.579,108.99L186.579,109.313C186.549,109.41 183.508,119.104 186.594,133.762C187.035,135.861 187.516,137.933 187.987,139.971C190.847,152.327 193.548,163.998 185.041,172.117C183.958,173.148 182.905,173.667 181.896,173.667Z" style="fill:rgb(232,119,93);fill-rule:nonzero;" />
                                            </svg:g>
                                        </svg:g>
                                        <svg:g>
                                            <svg:g>
                                                <svg:path d="M195.326,148.483C194.389,148.483 193.541,148.158 192.79,147.511C186.262,141.889 189.603,112.191 189.748,110.929L190.794,111.049C190.759,111.353 187.367,141.453 193.478,146.714C194.272,147.4 195.181,147.589 196.268,147.296C198.93,146.577 200.391,144.061 200.61,139.817C201.052,131.186 196.026,118.685 194.56,117.84C193.969,118.249 192.925,121.766 192.956,126.518C192.976,129.654 193.544,137.156 198.369,139.076L197.981,140.054C192.784,137.987 191.486,130.29 192.004,123.777C192.058,123.103 192.578,117.19 194.379,116.788C196.341,116.331 199.263,124.772 200.399,129.377C201.644,134.422 203.758,146.364 196.541,148.313C196.122,148.426 195.717,148.483 195.326,148.483Z" style="fill:rgb(232,119,93);fill-rule:nonzero;" />
                                            </svg:g>
                                        </svg:g>
                                    </svg:g>
                                </svg:g>
                            </svg:g>
                        </svg:g>
                        <svg:g opacity="0.4">
                            <svg:path d="M194.692,121.504C194.584,119.192 192.6,117.301 190.287,117.301L186.079,117.301C185.899,117.301 185.727,117.333 185.553,117.355C187.632,117.618 189.332,119.372 189.433,121.504L191.14,157.627C191.249,159.939 189.446,161.831 187.132,161.831L192.391,161.831C194.705,161.831 196.508,159.938 196.4,157.627L194.692,121.504Z" style="fill:rgb(232,119,93);fill-rule:nonzero;" />
                        </svg:g>
                    </svg:g>
                    <svg:g>
                        <svg:path d="M192.391,162.331L183.975,162.331C182.719,162.331 181.557,161.838 180.702,160.942C179.847,160.046 179.407,158.859 179.467,157.603L181.174,121.48C181.296,118.899 183.497,116.8 186.08,116.8L190.288,116.8C192.872,116.8 195.072,118.899 195.193,121.48L196.9,157.603C196.959,158.86 196.52,160.045 195.665,160.942C194.81,161.838 193.647,162.331 192.391,162.331ZM186.079,117.801C184.022,117.801 182.269,119.473 182.172,121.528L180.465,157.651C180.419,158.632 180.76,159.556 181.425,160.253C182.089,160.949 182.995,161.332 183.975,161.332L192.391,161.332C193.371,161.332 194.277,160.949 194.941,160.253C195.606,159.557 195.946,158.632 195.901,157.651L194.194,121.528C194.098,119.473 192.345,117.801 190.288,117.801L186.079,117.801Z" style="fill:rgb(21,47,71);fill-rule:nonzero;" />
                    </svg:g>
                </svg:g>
                <svg:g>
                    <svg:g>
                        <svg:g>
                            <svg:path d="M187.132,43.559C142.527,43.559 162.179,110.931 164.986,123.719C167.793,136.507 187.132,135.804 187.132,135.804C187.132,135.804 206.469,136.507 209.276,123.719C212.083,110.931 231.734,43.559 187.132,43.559Z" style="fill:rgb(255,201,226);fill-rule:nonzero;" />
                        </svg:g>
                        <svg:g>
                            <svg:path d="M187.132,43.559C185.557,43.559 184.07,43.652 182.652,43.814C221.401,48.257 203.026,111.382 200.319,123.719C198.378,132.558 188.544,134.95 182.652,135.586C185.285,135.869 187.132,135.804 187.132,135.804C187.132,135.804 206.469,136.507 209.276,123.719C212.083,110.931 231.734,43.559 187.132,43.559Z" style="fill:rgb(249,189,220);fill-rule:nonzero;" />
                        </svg:g>
                    </svg:g>
                </svg:g>
                <svg:g>
                    <svg:g>
                        <svg:path d="M188.878,43.559C188.364,43.559 187.866,43.577 187.37,43.596C186.873,43.577 186.375,43.559 185.861,43.559C157.971,43.559 156.361,72.378 159.334,95.897C160.115,100.854 161.849,107.208 165.583,106.448C171.615,105.22 162.062,83.833 167.594,82.956C173.124,82.08 166.755,96.806 173.459,96.806C180.163,96.806 170.442,75.594 177.314,75.594C184.185,75.594 174.464,103.643 183.514,103.643C192.565,103.643 182.34,82.606 188.039,82.606C193.738,82.606 186.866,96.105 193.738,96.105C200.609,96.105 192.565,75.594 199.771,75.594C206.977,75.594 196.616,94.702 204.631,94.702C212.646,94.702 205.199,81.379 209.323,81.379C213.447,81.379 208.631,101.099 211.646,101.099C214.448,101.099 215.941,91.24 216.252,87.004C216.27,86.72 216.286,86.436 216.302,86.15C216.302,86.143 216.304,86.135 216.304,86.128C216.329,85.489 216.386,83.736 216.461,81.312C216.659,61.932 211.146,43.559 188.878,43.559Z" style="fill:rgb(255,129,206);fill-rule:nonzero;" />
                    </svg:g>
                    <svg:g>
                        <svg:g>
                            <svg:path d="M166.609,83.466C163.95,85.948 163.864,91.108 165.372,97.682C166.851,104.124 163.502,105.9 163.367,105.967C164.014,106.415 164.746,106.617 165.583,106.448C171.171,105.311 163.394,86.885 166.613,83.479L166.609,83.466Z" style="fill:rgb(239,96,195);fill-rule:nonzero;" />
                        </svg:g>
                        <svg:g>
                            <svg:path d="M175.861,76.069L175.86,76.063C173.4,77.191 172.537,80.72 174.046,88.213C175.555,95.708 172.592,96.695 172.592,96.695C172.856,96.759 173.138,96.803 173.459,96.803C179.569,96.805 172.04,79.189 175.861,76.069Z" style="fill:rgb(239,96,195);fill-rule:nonzero;" />
                        </svg:g>
                        <svg:g>
                            <svg:path d="M186.868,83.09L186.867,83.085C183.43,84.616 183.766,90.757 184.688,96.191C185.602,101.584 182.706,103.512 182.662,103.542C182.927,103.604 183.208,103.642 183.515,103.642C191.752,103.642 184.028,86.222 186.868,83.09Z" style="fill:rgb(239,96,195);fill-rule:nonzero;" />
                        </svg:g>
                        <svg:g>
                            <svg:path d="M198.791,75.761L198.791,75.749C194.541,76.605 194.158,82.605 194.912,88.127C195.666,93.649 192.771,95.987 192.771,95.987C193.06,96.058 193.377,96.103 193.739,96.103C200.259,96.104 193.36,77.651 198.791,75.761Z" style="fill:rgb(239,96,195);fill-rule:nonzero;" />
                        </svg:g>
                        <svg:g>
                            <svg:path d="M208.724,81.511C206.28,82.257 205.387,85.585 206.393,89.53C207.394,93.46 203.987,94.64 203.96,94.648C204.17,94.683 204.391,94.702 204.633,94.702C212.184,94.701 206.016,82.88 208.724,81.511Z" style="fill:rgb(239,96,195);fill-rule:nonzero;" />
                        </svg:g>
                        <svg:g>
                            <svg:path d="M216.305,86.149C216.305,86.142 216.307,86.134 216.307,86.127C216.332,85.488 216.389,83.735 216.464,81.311C216.468,81.029 216.464,80.748 216.464,80.466C216.171,89.42 210.983,100.582 210.983,100.582L210.984,100.584C211.143,100.913 211.36,101.098 211.649,101.098C214.451,101.098 215.944,91.239 216.255,87.003C216.272,86.719 216.289,86.435 216.305,86.149Z" style="fill:rgb(239,96,195);fill-rule:nonzero;" />
                        </svg:g>
                    </svg:g>
                </svg:g>
                <svg:g>
                    <svg:g>
                        <svg:g>
                            <svg:path d="M175.323,110.045C175.323,110.045 175.37,109.746 175.629,109.414C175.762,109.246 175.942,109.063 176.187,108.93C176.433,108.788 176.739,108.695 177.062,108.697C177.227,108.691 177.382,108.733 177.538,108.768C177.692,108.799 177.819,108.895 177.949,108.956C178.187,109.115 178.366,109.302 178.475,109.491C178.603,109.661 178.641,109.843 178.682,109.955C178.716,110.073 178.725,110.145 178.725,110.145C178.725,110.145 178.655,110.12 178.543,110.072C178.429,110.025 178.296,109.941 178.124,109.878C177.964,109.798 177.778,109.74 177.599,109.674C177.416,109.642 177.242,109.586 177.059,109.605C176.879,109.584 176.689,109.631 176.496,109.667C176.303,109.708 176.116,109.774 175.941,109.827C175.569,109.957 175.323,110.045 175.323,110.045Z" style="fill:rgb(21,47,71);fill-rule:nonzero;" />
                        </svg:g>
                        <svg:g>
                            <svg:path d="M197.664,109.78C197.664,109.78 197.74,109.49 198.038,109.183C198.183,109.031 198.383,108.87 198.642,108.76C198.897,108.649 199.213,108.583 199.535,108.619C199.699,108.629 199.849,108.689 200.001,108.735C200.15,108.785 200.266,108.893 200.391,108.964C200.61,109.152 200.77,109.356 200.856,109.553C200.967,109.736 200.989,109.919 201.018,110.034C201.038,110.157 201.042,110.227 201.042,110.227C201.042,110.227 200.974,110.198 200.868,110.135C200.761,110.083 200.634,109.981 200.47,109.901C200.314,109.806 200.14,109.723 199.97,109.643C199.786,109.59 199.622,109.518 199.437,109.516C199.259,109.48 199.066,109.507 198.873,109.521C198.677,109.544 198.484,109.59 198.304,109.625C197.919,109.718 197.664,109.78 197.664,109.78Z" style="fill:rgb(21,47,71);fill-rule:nonzero;" />
                        </svg:g>
                    </svg:g>
                    <svg:g>
                        <svg:g>
                            <svg:path d="M185.67,119.068C186.032,119.591 186.56,120.045 187.151,120.282C188.501,120.825 189.714,120.123 190.651,119.153C191.026,118.762 190.433,118.169 190.055,118.558C189.32,119.322 188.392,119.954 187.331,119.447C186.975,119.274 186.613,118.959 186.394,118.643C186.089,118.202 185.358,118.622 185.67,119.068Z" style="fill:rgb(21,47,71);fill-rule:nonzero;" />
                        </svg:g>
                    </svg:g>
                    <svg:g>
                        <svg:g>
                            <svg:g>
                                <svg:path d="M180.267,117.301C180.267,119.166 178.755,120.678 176.89,120.678C175.025,120.678 173.514,119.166 173.514,117.301C173.514,115.437 175.025,113.925 176.89,113.925C178.755,113.925 180.267,115.437 180.267,117.301Z" style="fill:rgb(21,47,71);fill-rule:nonzero;" />
                            </svg:g>
                            <svg:g>
                                <svg:g>
                                    <svg:path d="M176.755,116.063C176.755,116.544 176.364,116.936 175.882,116.936C175.401,116.936 175.01,116.544 175.01,116.063C175.01,115.581 175.401,115.19 175.882,115.19C176.364,115.19 176.755,115.581 176.755,116.063Z" style="fill:white;fill-rule:nonzero;" />
                                </svg:g>
                                <svg:g>
                                    <svg:circle cx="175.009" cy="117.742" r="0.441" style="fill:white;" />
                                </svg:g>
                            </svg:g>
                        </svg:g>
                        <svg:g>
                            <svg:g>
                                <svg:path d="M202.852,117.301C202.852,119.166 201.34,120.678 199.475,120.678C197.611,120.678 196.099,119.166 196.099,117.301C196.099,115.437 197.611,113.925 199.475,113.925C201.34,113.925 202.852,115.437 202.852,117.301Z" style="fill:rgb(21,47,71);fill-rule:nonzero;" />
                            </svg:g>
                            <svg:g>
                                <svg:g>
                                    <svg:path d="M199.34,116.063C199.34,116.544 198.949,116.936 198.467,116.936C197.986,116.936 197.595,116.544 197.595,116.063C197.595,115.581 197.986,115.19 198.467,115.19C198.949,115.19 199.34,115.581 199.34,116.063Z" style="fill:white;fill-rule:nonzero;" />
                                </svg:g>
                                <svg:g>
                                    <svg:path d="M198.036,117.742C198.036,117.986 197.839,118.183 197.594,118.183C197.351,118.183 197.154,117.986 197.154,117.742C197.154,117.498 197.351,117.301 197.594,117.301C197.839,117.301 198.036,117.498 198.036,117.742Z" style="fill:white;fill-rule:nonzero;" />
                                </svg:g>
                            </svg:g>
                        </svg:g>
                    </svg:g>
                    <svg:g>
                        <svg:g>
                            <svg:path d="M178.173,124.585C178.173,126.09 176.953,127.309 175.448,127.309C173.943,127.309 172.723,126.09 172.723,124.585C172.723,123.081 173.943,121.86 175.448,121.86C176.953,121.86 178.173,123.081 178.173,124.585Z" style="fill:rgb(255,129,206);fill-rule:nonzero;" />
                        </svg:g>
                        <svg:g>
                            <svg:path d="M203.641,124.585C203.641,126.09 202.422,127.309 200.917,127.309C199.412,127.309 198.192,126.09 198.192,124.585C198.192,123.081 199.412,121.86 200.917,121.86C202.422,121.86 203.641,123.081 203.641,124.585Z" style="fill:rgb(255,129,206);fill-rule:nonzero;" />
                        </svg:g>
                    </svg:g>
                </svg:g>
                <svg:g>
                    <svg:g>
                        <svg:path d="M178.538,49.793C178.653,50.119 178.483,50.479 178.156,50.595L175.615,51.495C175.289,51.61 174.93,51.438 174.814,51.112C174.699,50.785 174.87,50.427 175.197,50.311L177.738,49.411C178.064,49.296 178.423,49.467 178.538,49.793Z" style="fill:rgb(239,222,137);fill-rule:nonzero;" />
                    </svg:g>
                    <svg:g>
                        <svg:path d="M185.016,54.587C184.888,54.908 184.522,55.066 184.201,54.937L181.698,53.935C181.376,53.806 181.219,53.441 181.348,53.12C181.478,52.798 181.842,52.642 182.163,52.769L184.667,53.772C184.987,53.9 185.144,54.266 185.016,54.587Z" style="fill:rgb(239,222,137);fill-rule:nonzero;" />
                    </svg:g>
                    <svg:g>
                        <svg:path d="M187.387,48.792C187.363,49.138 187.063,49.397 186.717,49.373L184.029,49.185C183.682,49.16 183.423,48.86 183.447,48.514C183.471,48.168 183.771,47.909 184.117,47.932L186.806,48.123C187.15,48.146 187.411,48.445 187.387,48.792Z" style="fill:rgb(45,140,246);fill-rule:nonzero;" />
                    </svg:g>
                    <svg:g>
                        <svg:path d="M192.362,50.871C192.477,51.197 192.307,51.556 191.98,51.672L189.439,52.572C189.112,52.688 188.753,52.517 188.638,52.19C188.522,51.864 188.694,51.506 189.02,51.389L191.561,50.489C191.889,50.374 192.247,50.544 192.362,50.871Z" style="fill:rgb(255,201,226);fill-rule:nonzero;" />
                    </svg:g>
                    <svg:g>
                        <svg:path d="M173.08,54.069C172.951,54.391 172.586,54.548 172.264,54.42L169.762,53.418C169.44,53.288 169.284,52.924 169.412,52.603C169.541,52.281 169.905,52.124 170.227,52.253L172.73,53.255C173.053,53.383 173.209,53.748 173.08,54.069Z" style="fill:rgb(255,201,226);fill-rule:nonzero;" />
                    </svg:g>
                    <svg:g>
                        <svg:path d="M178.538,55.707C178.653,56.034 178.483,56.392 178.156,56.509L175.615,57.408C175.289,57.524 174.93,57.353 174.814,57.026C174.699,56.7 174.87,56.341 175.197,56.225L177.738,55.325C178.064,55.21 178.423,55.381 178.538,55.707Z" style="fill:rgb(45,140,246);fill-rule:nonzero;" />
                    </svg:g>
                    <svg:g>
                        <svg:path d="M192.471,56.506C192.447,56.851 192.147,57.112 191.801,57.088L189.112,56.898C188.766,56.874 188.507,56.575 188.531,56.229C188.555,55.883 188.854,55.623 189.2,55.646L191.89,55.836C192.234,55.861 192.495,56.16 192.471,56.506Z" style="fill:rgb(45,140,246);fill-rule:nonzero;" />
                    </svg:g>
                    <svg:g>
                        <svg:path d="M198.987,50.515C198.858,50.836 198.494,50.994 198.172,50.865L195.669,49.863C195.347,49.734 195.192,49.37 195.32,49.049C195.448,48.727 195.813,48.57 196.135,48.699L198.637,49.7C198.959,49.828 199.116,50.193 198.987,50.515Z" style="fill:rgb(239,222,137);fill-rule:nonzero;" />
                    </svg:g>
                    <svg:g>
                        <svg:path d="M199.584,53.993C199.56,54.337 199.26,54.598 198.914,54.574L196.226,54.384C195.88,54.361 195.621,54.061 195.644,53.715C195.668,53.369 195.967,53.109 196.314,53.133L199.003,53.322C199.349,53.348 199.609,53.646 199.584,53.993Z" style="fill:rgb(255,201,226);fill-rule:nonzero;" />
                    </svg:g>
                    <svg:g>
                        <svg:path d="M205.669,54.63C205.784,54.956 205.614,55.315 205.287,55.431L202.746,56.331C202.42,56.447 202.061,56.275 201.945,55.949C201.829,55.622 202.001,55.263 202.328,55.147L204.868,54.248C205.195,54.132 205.554,54.303 205.669,54.63Z" style="fill:rgb(239,222,137);fill-rule:nonzero;" />
                    </svg:g>
                    <svg:g>
                        <svg:path d="M171.228,58.778C171.344,59.105 171.173,59.464 170.847,59.58L168.305,60.48C167.979,60.595 167.62,60.424 167.505,60.097C167.389,59.771 167.56,59.412 167.886,59.296L170.428,58.397C170.755,58.281 171.113,58.452 171.228,58.778Z" style="fill:rgb(239,222,137);fill-rule:nonzero;" />
                    </svg:g>
                    <svg:g>
                        <svg:path d="M183.137,60.173C183.008,60.494 182.643,60.652 182.322,60.523L179.819,59.521C179.497,59.393 179.34,59.027 179.469,58.706C179.598,58.384 179.962,58.227 180.285,58.356L182.787,59.358C183.109,59.486 183.266,59.851 183.137,60.173Z" style="fill:rgb(255,201,226);fill-rule:nonzero;" />
                    </svg:g>
                    <svg:g>
                        <svg:path d="M207.557,60.655C207.532,61.001 207.232,61.261 206.886,61.236L204.198,61.047C203.851,61.023 203.592,60.723 203.617,60.377C203.64,60.031 203.94,59.772 204.286,59.795L206.975,59.986C207.319,60.009 207.581,60.31 207.557,60.655Z" style="fill:rgb(45,140,246);fill-rule:nonzero;" />
                    </svg:g>
                    <svg:g>
                        <svg:path d="M197.689,59.134C197.804,59.461 197.633,59.82 197.307,59.936L194.765,60.836C194.439,60.951 194.081,60.78 193.965,60.453C193.849,60.127 194.02,59.768 194.346,59.652L196.888,58.752C197.215,58.637 197.573,58.808 197.689,59.134Z" style="fill:rgb(239,222,137);fill-rule:nonzero;" />
                    </svg:g>
                </svg:g>
            </svg:g>
            <svg:path d="M189.068,80.426C189.068,65.959 182.098,53.421 171.909,47.212C151.037,59.468 159.231,99.341 163.422,117.112C178.03,113.795 189.068,98.636 189.068,80.426Z" style="fill:white;fill-opacity:0.2;fill-rule:nonzero;" />
            <svg:g>
                <svg:path d="M164.98,107.01C164.306,107.01 163.667,106.803 163.073,106.39C161.142,105.05 159.718,101.545 158.84,95.974C156.14,74.61 158.553,59.495 166.011,51.036C170.677,45.743 177.356,43.059 185.862,43.059C186.382,43.059 186.886,43.077 187.389,43.097C187.854,43.078 188.358,43.059 188.878,43.059C196.846,43.059 203.219,45.416 207.821,50.064C214.034,56.339 217.11,66.854 216.964,81.315C216.888,83.753 216.832,85.507 216.806,86.147L216.754,87.034C216.743,87.185 215.637,101.598 211.649,101.598C211.33,101.598 211.042,101.47 210.815,101.228C209.867,100.216 210.013,97.198 210.33,92.358C210.594,88.318 210.923,83.29 209.803,82.094C209.663,81.944 209.516,81.878 209.326,81.878C209.001,81.878 208.864,81.991 208.789,82.075C208.271,82.663 208.509,84.536 208.74,86.346C209.089,89.088 209.485,92.196 207.952,93.936C207.213,94.775 206.097,95.2 204.633,95.2C203.481,95.2 202.581,94.836 201.959,94.116C200.364,92.274 200.92,88.42 201.459,84.693C201.935,81.398 202.428,77.99 201.294,76.681C200.95,76.284 200.453,76.091 199.772,76.091C199.101,76.091 198.58,76.296 198.179,76.716C196.755,78.212 196.95,82.174 197.138,86.005C197.34,90.121 197.531,94.009 195.896,95.727C195.343,96.308 194.617,96.602 193.739,96.602C192.622,96.602 191.737,96.27 191.11,95.613C189.73,94.168 189.853,91.468 189.971,88.857C190.069,86.696 190.171,84.462 189.311,83.563C189.015,83.253 188.599,83.103 188.039,83.103C187.675,83.103 187.414,83.209 187.217,83.437C186.297,84.5 186.793,87.927 187.272,91.242C187.936,95.831 188.622,100.575 186.646,102.858C185.909,103.709 184.855,104.141 183.514,104.141C182.395,104.141 181.466,103.754 180.751,102.991C178.385,100.465 178.795,94.2 179.191,88.14C179.514,83.2 179.848,78.092 178.402,76.549C178.11,76.237 177.764,76.092 177.313,76.092C176.734,76.092 176.298,76.269 175.98,76.635C174.707,78.096 175.278,82.231 175.831,86.228C176.433,90.58 177.001,94.69 175.47,96.448C174.975,97.016 174.298,97.304 173.458,97.304C172.424,97.304 171.585,96.984 170.966,96.352C169.481,94.837 169.539,91.879 169.595,89.018C169.639,86.758 169.685,84.421 168.832,83.678C168.562,83.442 168.182,83.368 167.67,83.448C167.316,83.504 167.054,83.666 166.845,83.956C165.751,85.478 166.488,89.856 167.2,94.091C168.203,100.05 169.241,106.213 165.68,106.937C165.445,106.986 165.21,107.01 164.98,107.01ZM185.861,44.059C177.655,44.059 171.228,46.629 166.76,51.697C159.501,59.932 157.169,74.782 159.83,95.834C160.65,101.035 161.969,104.407 163.643,105.569C164.216,105.966 164.817,106.092 165.483,105.958C168.096,105.426 167.097,99.493 166.216,94.258C165.435,89.617 164.697,85.234 166.035,83.374C166.399,82.867 166.897,82.56 167.515,82.462C168.326,82.334 168.99,82.49 169.49,82.925C170.695,83.975 170.647,86.435 170.595,89.039C170.545,91.569 170.488,94.437 171.68,95.652C172.11,96.091 172.692,96.304 173.458,96.304C174.004,96.304 174.415,96.136 174.716,95.791C175.948,94.377 175.385,90.304 174.841,86.365C174.231,81.951 173.654,77.783 175.226,75.978C175.738,75.39 176.44,75.092 177.313,75.092C178.04,75.092 178.651,75.352 179.132,75.865C180.874,77.725 180.556,82.581 180.188,88.205C179.823,93.779 179.41,100.098 181.48,102.307C182.005,102.868 182.671,103.141 183.513,103.141C184.566,103.141 185.344,102.834 185.889,102.204C187.566,100.267 186.883,95.549 186.281,91.386C185.723,87.526 185.241,84.191 186.46,82.783C186.85,82.333 187.381,82.104 188.038,82.104C188.874,82.104 189.545,82.363 190.033,82.874C191.188,84.082 191.081,86.424 190.969,88.904C190.86,91.305 190.747,93.788 191.832,94.924C192.269,95.382 192.893,95.604 193.738,95.604C194.34,95.604 194.809,95.419 195.171,95.04C196.51,93.633 196.321,89.781 196.138,86.057C195.93,81.829 195.734,77.836 197.454,76.03C198.045,75.409 198.825,75.094 199.771,75.094C200.745,75.094 201.512,75.408 202.049,76.029C203.482,77.683 202.979,81.159 202.447,84.839C201.941,88.344 201.417,91.968 202.713,93.465C203.143,93.962 203.77,94.203 204.631,94.203C205.811,94.203 206.652,93.9 207.2,93.278C208.434,91.877 208.069,89.007 207.746,86.475C207.464,84.259 207.22,82.344 208.036,81.416C208.349,81.061 208.783,80.88 209.323,80.88C209.786,80.88 210.203,81.064 210.529,81.412C211.946,82.924 211.644,87.539 211.324,92.425C211.098,95.881 210.842,99.799 211.542,100.546C211.592,100.6 211.622,100.6 211.646,100.6C213.645,100.6 215.344,92.54 215.754,86.969L215.803,86.125C215.83,85.472 215.887,83.721 215.961,81.298C216.104,67.124 213.125,56.849 207.107,50.771C202.7,46.319 196.565,44.062 188.875,44.062C188.368,44.062 187.876,44.08 187.386,44.099C186.86,44.077 186.369,44.059 185.861,44.059Z" style="fill:rgb(21,47,71);fill-rule:nonzero;" />
            </svg:g>
            <svg:g>
                <svg:g>
                    <svg:path d="M187.554,136.309C187.284,136.309 187.13,136.305 187.114,136.304C186.948,136.312 167.361,136.872 164.498,123.827C164.297,122.91 164.009,121.714 163.665,120.281C160.344,106.469 151.522,69.78 165.174,52.458C170.088,46.222 177.476,43.06 187.133,43.06C196.789,43.06 204.176,46.222 209.09,52.457C222.741,69.779 213.92,106.469 210.598,120.281C210.254,121.714 209.966,122.911 209.765,123.827C207.142,135.773 190.49,136.309 187.554,136.309ZM187.114,135.304C187.335,135.31 206.103,135.84 208.787,123.611C208.989,122.69 209.279,121.487 209.625,120.046C212.915,106.363 221.654,70.017 208.303,53.075C203.589,47.093 196.465,44.059 187.132,44.059C177.798,44.059 170.674,47.093 165.959,53.076C152.607,70.018 161.347,106.364 164.637,120.047C164.983,121.488 165.273,122.692 165.475,123.612C168.159,135.842 186.924,135.314 187.114,135.304Z" style="fill:rgb(21,47,71);fill-rule:nonzero;" />
                </svg:g>
            </svg:g>
            <svg:g>
                <svg:g>
                    <svg:path d="M166.226,55.925C165.155,57.271 164.475,58.978 163.886,60.572C162.075,65.472 161.391,70.784 161.166,75.977C160.952,80.918 161.215,85.867 161.742,90.781C161.827,91.573 163.078,91.581 162.992,90.781C162.194,83.34 161.943,75.712 163.19,68.303C163.775,64.823 164.653,61.251 166.324,58.116C166.518,57.752 166.725,57.395 166.949,57.049C167.006,56.961 167.311,56.555 167.11,56.808C167.606,56.185 166.727,55.295 166.226,55.925Z" style="fill:white;fill-rule:nonzero;" />
                </svg:g>
                <svg:path d="M163.95,94.155C163.95,94.592 163.596,94.947 163.158,94.947C162.721,94.947 162.366,94.593 162.366,94.155C162.366,93.717 162.72,93.363 163.158,93.363C163.596,93.363 163.95,93.718 163.95,94.155Z" style="fill:white;fill-rule:nonzero;" />
            </svg:g>
        </svg:g>
    </g>
</svg>