<?xml version='1.0' encoding='UTF-8'?>
<svg xmlns="http://www.w3.org/2000/svg" xmlns:xlink="http://www.w3.org/1999/xlink" xmlns:svg="http://www.w3.org/2000/svg" xmlns:serif="http://www.serif.com/" height="100%" style="fill-rule:evenodd;clip-rule:evenodd;" version="1.1" viewBox="203.333 620.0 33.333 100.0" width="100%">
    <g>
        <svg:rect x="203.333" y="620" width="33.333" height="100" style="fill:rgb(115,253,255);" />
        <svg:g transform="matrix(0.421707,0,0,0.421707,115.764,497.823)">
            <svg:g>
                <svg:g>
                    <svg:g>
                        <svg:g>
                            <svg:g>
                                <svg:path d="M248.941,464.57C248.956,465.096 248.537,465.527 248.011,465.527L241.089,465.527C240.563,465.527 240.144,465.096 240.159,464.57L242.019,398.757C242.034,398.231 242.477,397.8 243.003,397.8L246.097,397.8C246.623,397.8 247.066,398.23 247.081,398.757L248.941,464.57Z" style="fill:rgb(255,183,160);fill-rule:nonzero;" />
                            </svg:g>
                            <svg:g>
                                <svg:g>
                                    <svg:clipPath id="_clip61">
                                        <svg:path d="M248.941,464.57C248.956,465.096 248.537,465.527 248.011,465.527L241.089,465.527C240.563,465.527 240.144,465.096 240.159,464.57L242.019,398.757C242.034,398.231 242.477,397.8 243.003,397.8L246.097,397.8C246.623,397.8 247.066,398.23 247.081,398.757L248.941,464.57Z" />
                                    </svg:clipPath>
                                    <svg:g clip-path="url(#_clip61)">
                                        <svg:g>
                                            <svg:path d="M243.041,441.413C242.27,439.896 241.289,437.482 239.747,436.552C238.131,435.577 238.022,438.424 238.026,439.335C238.042,443.083 239.002,446.889 239.875,450.509C241.073,455.474 242.907,460.351 243.532,465.432C243.834,467.889 243.939,470.363 243.99,472.837C244.007,473.654 243.72,475.388 244.241,476.113C244.508,476.485 245.131,476.127 244.861,475.751C244.486,475.229 244.725,473.704 244.713,473.097C244.677,471.291 244.621,469.486 244.477,467.685C244.153,463.638 243.129,459.872 242.045,455.981C241.033,452.348 240.098,448.682 239.412,444.971C239.115,443.366 238.853,441.745 238.768,440.113C238.743,439.635 238.514,437.402 239.097,437.109C239.75,436.782 241.223,439.574 241.464,439.993C242.735,442.208 243.795,444.554 244.738,446.924C245.609,449.114 246.438,451.374 246.886,453.694C247.01,454.334 247.415,457.283 246.074,455.847C244.396,454.051 243.539,451.16 242.693,448.914C242.065,447.248 241.475,445.564 240.943,443.864C240.805,443.425 240.112,443.612 240.251,444.055C240.783,445.754 241.373,447.438 242.001,449.105C242.879,451.437 243.763,454.059 245.313,456.046C246.118,457.077 247.505,457.455 247.757,455.81C248.065,453.793 247.101,451.396 246.466,449.532C245.519,446.754 244.371,444.028 243.041,441.413Z" style="fill:rgb(244,152,127);fill-rule:nonzero;" />
                                        </svg:g>
                                        <svg:g>
                                            <svg:path d="M250.427,443.569C249.761,439.068 248.812,434.602 247.727,430.185C246.648,425.793 245.455,421.381 243.775,417.175C243.207,415.753 242.597,414.296 241.72,413.032C241.274,412.39 240.631,411.543 239.772,411.494C237.073,411.341 238.196,416.282 238.497,417.584C239.54,422.091 241.365,426.438 243.188,430.676C244.583,433.918 246.06,437.127 247.62,440.292C247.704,440.462 247.788,440.633 247.873,440.802C248.08,441.215 248.699,440.852 248.493,440.44C245.49,434.451 242.693,428.275 240.526,421.932C239.903,420.108 239.323,418.252 238.971,416.354C238.777,415.308 238.414,413.657 239.026,412.671C240.174,410.82 242.118,415.149 242.428,415.828C244.088,419.453 245.193,423.355 246.221,427.197C247.362,431.46 248.336,435.773 249.129,440.115C249.656,443.004 250.348,446.101 250.21,449.058C250.201,449.253 250.203,449.613 250.115,449.8C250.024,449.747 249.939,449.667 249.872,449.595C248.985,448.641 248.396,447.355 247.815,446.204C244.317,439.262 241.611,431.871 238.919,424.586C238.856,424.415 238.793,424.244 238.73,424.073C238.572,423.643 237.879,423.829 238.038,424.264C240.639,431.375 243.336,438.518 246.601,445.353C246.903,445.985 249.281,451.645 250.605,450.369C251.105,449.887 250.944,448.671 250.919,448.07C250.855,446.563 250.648,445.059 250.427,443.569Z" style="fill:rgb(244,152,127);fill-rule:nonzero;" />
                                        </svg:g>
                                        <svg:g>
                                            <svg:path d="M253.578,413.81C252.605,409.735 251.37,405.691 249.741,401.828C249.082,400.265 248.362,398.704 247.436,397.279C246.872,396.411 246.179,395.417 245.224,394.943C243.038,393.858 242.829,396.494 243.061,397.96C243.604,401.384 245.068,404.719 246.411,407.89C247.547,410.572 248.761,413.222 250.045,415.837C250.118,415.985 250.191,416.134 250.265,416.281C250.471,416.694 251.091,416.331 250.885,415.919C248.487,411.122 246.196,406.161 244.579,401.042C244.331,400.257 242.651,395.493 244.368,395.43C245.233,395.398 246.023,396.512 246.461,397.119C247.324,398.312 247.989,399.653 248.597,400.989C250.216,404.546 251.411,408.312 252.405,412.087C253.272,415.377 254.07,418.78 254.254,422.188C254.3,423.027 254.463,424.332 254.008,425.101C253.646,425.714 253.106,425.308 252.653,424.958C250.395,423.211 248.771,420.375 247.237,418.023C245.01,414.609 242.945,411.09 240.903,407.563C240.153,406.267 239.412,404.966 238.65,403.677C238.372,403.206 238.058,402.4 237.58,402.088C237.192,401.835 236.832,402.456 237.218,402.708C237.131,402.651 237.417,403.026 237.499,403.157C237.751,403.555 237.987,403.965 238.226,404.371C238.987,405.67 239.734,406.977 240.489,408.279C242.503,411.753 244.542,415.218 246.744,418.578C248.313,420.973 250.015,423.951 252.391,425.655C254.086,426.871 254.876,425.429 254.981,423.793C255.192,420.485 254.34,416.998 253.578,413.81Z" style="fill:rgb(244,152,127);fill-rule:nonzero;" />
                                        </svg:g>
                                    </svg:g>
                                </svg:g>
                            </svg:g>
                        </svg:g>
                        <svg:g opacity="0.4">
                            <svg:path d="M247.081,398.757C247.066,398.231 246.623,397.8 246.097,397.8L243.226,397.8C243.752,397.8 244.195,398.23 244.21,398.757L246.07,464.57C246.085,465.096 245.666,465.527 245.14,465.527L248.011,465.527C248.537,465.527 248.956,465.096 248.941,464.57L247.081,398.757Z" style="fill:rgb(232,119,93);fill-rule:nonzero;" />
                        </svg:g>
                        <svg:g>
                            <svg:path d="M248.011,466.026L241.089,466.026C240.698,466.026 240.334,465.873 240.062,465.593C239.791,465.314 239.648,464.945 239.659,464.555L241.519,398.742C241.542,397.946 242.207,397.3 243.003,397.3L246.097,397.3C246.892,397.3 247.558,397.946 247.581,398.741L249.441,464.555C249.452,464.945 249.308,465.314 249.037,465.592C248.767,465.873 248.402,466.026 248.011,466.026ZM243.003,398.301C242.748,398.301 242.526,398.516 242.519,398.771L240.659,464.585C240.656,464.703 240.698,464.814 240.779,464.898C240.86,464.982 240.97,465.028 241.089,465.028L248.011,465.028C248.129,465.028 248.239,464.982 248.321,464.898C248.402,464.815 248.445,464.704 248.442,464.585L246.582,398.771C246.575,398.517 246.353,398.301 246.098,398.301L243.003,398.301Z" style="fill:rgb(21,47,71);fill-rule:nonzero;" />
                        </svg:g>
                    </svg:g>
                    <svg:g>
                        <svg:g>
                            <svg:g>
                                <svg:g>
                                    <svg:g transform="matrix(0.9208,-0.3901,0.3901,0.9208,-126.983,125.126)">
                                        <svg:circle cx="244.55" cy="375.178" r="31.35" style="fill:rgb(241,193,247);" />
                                    </svg:g>
                                    <svg:g>
                                        <svg:g>
                                            <svg:clipPath id="_clip62">
                                                <svg:path d="M232.326,346.323C248.258,339.574 266.673,347.029 273.422,362.961C280.172,378.893 272.717,397.308 256.785,404.058C240.853,410.807 222.438,403.352 215.688,387.42C208.939,371.488 216.394,353.073 232.326,346.323Z" />
                                            </svg:clipPath>
                                            <svg:g clip-path="url(#_clip62)">
                                                <svg:g>
                                                    <svg:path d="M259.3,342.163C254.684,342.254 249.928,343.294 245.56,344.718C236.586,347.642 228.458,353.006 223.23,360.985C220.247,365.538 218.248,370.888 218.443,376.392C218.62,381.379 220.499,386.047 223.602,389.924C229.695,397.537 240.282,401.097 249.727,398.691C259.292,396.254 267.443,388.285 269.1,378.439C270.238,371.681 269.163,363.557 263.489,359.036C256.149,353.188 245.286,353.75 237.973,359.343C233.658,362.643 230.111,367.574 229.464,373.066C228.941,377.501 230.803,382.022 234.267,384.833C237.813,387.71 242.606,388.784 247.016,387.464C252.041,385.96 256.221,381.591 258.008,376.719C259.365,373.02 258.251,369.044 254.88,366.91C252.062,365.126 248.179,364.929 245.193,366.386C243.828,367.052 242.593,368.197 241.979,369.601C241.461,370.784 241.631,372.169 242.837,372.874C243.851,373.467 245.59,373.206 246.11,372.016C246.237,371.726 246.39,371.463 246.563,371.198C246.241,371.692 246.623,371.186 246.798,370.996C247.205,370.555 246.502,371.081 247.054,370.815C247.189,370.75 247.339,370.666 247.465,370.586C247.887,370.32 247.037,370.725 247.478,370.572C247.788,370.465 248.097,370.367 248.418,370.296C248.526,370.272 248.635,370.254 248.744,370.232C249.311,370.119 248.193,370.261 248.775,370.233C249.059,370.219 249.34,370.2 249.625,370.206C249.854,370.21 250.84,370.351 250.185,370.229C250.524,370.292 250.858,370.359 251.189,370.457C251.367,370.51 252.178,370.844 251.576,370.567C251.831,370.684 252.081,370.809 252.322,370.953C252.465,371.039 252.602,371.132 252.741,371.225C253.195,371.529 252.386,370.88 252.774,371.261C252.916,371.4 253.557,372.166 253.173,371.622C253.333,371.849 253.464,372.086 253.604,372.325C253.877,372.791 253.497,371.967 253.595,372.295C253.636,372.433 253.687,372.566 253.724,372.706C253.77,372.877 253.804,373.051 253.834,373.226C253.729,372.601 253.82,373.204 253.814,373.328C253.806,373.523 253.806,373.72 253.799,373.916C253.776,374.557 253.87,373.604 253.792,374.002C253.711,374.414 253.61,374.817 253.475,375.215C253.244,375.898 252.75,376.798 252.206,377.622C251.025,379.409 249.513,380.98 247.66,382.026C246.149,382.879 244.542,383.277 242.873,383.243C242.626,383.238 242.381,383.222 242.135,383.204C241.361,383.148 242.372,383.255 241.922,383.184C241.483,383.115 241.048,383.017 240.62,382.895C239.649,382.619 239.421,382.52 238.546,382.013C235.814,380.43 234.12,377.578 234.156,374.406C234.2,370.441 237.04,366.349 240.177,363.667C243.075,361.19 246.869,359.802 250.415,359.661C253.984,359.52 257.085,360.324 260.024,362.369C260.4,362.631 261,363.147 261.572,363.748C261.705,363.888 261.833,364.032 261.962,364.175C261.975,364.189 262.451,364.777 262.17,364.409C262.348,364.642 262.512,364.885 262.666,365.135C262.936,365.574 263.154,366.034 263.377,366.498C263.528,366.812 263.159,365.933 263.356,366.444C263.416,366.6 263.478,366.755 263.536,366.911C263.657,367.239 263.768,367.572 263.869,367.907C264.061,368.538 264.22,369.18 264.351,369.826C264.424,370.186 264.485,370.547 264.543,370.91C264.616,371.37 264.554,370.975 264.542,370.886C264.577,371.164 264.607,371.442 264.632,371.721C264.778,373.357 264.752,375.002 264.568,376.634C264.484,377.379 264.613,376.369 264.543,376.814C264.512,377.01 264.481,377.205 264.446,377.4C264.368,377.835 264.278,378.268 264.175,378.698C263.954,379.623 263.674,380.533 263.336,381.422C263.12,381.99 262.808,382.668 262.396,383.43C261.883,384.38 261.301,385.307 260.64,386.162C258.145,389.391 254.145,392.197 250.165,393.566C242.56,396.181 234.022,393.938 228.447,388.2C225.754,385.429 223.932,381.975 223.359,378.049C222.761,373.952 223.915,369.449 226.02,365.629C228.12,361.819 230.97,358.504 234.383,355.809C237.127,353.642 240.969,351.547 244,350.351C246.985,349.173 250.087,348.29 253.238,347.684C253.833,347.569 254.43,347.465 255.029,347.37C255.287,347.329 255.546,347.293 255.804,347.254C255.961,347.23 256.5,347.172 255.748,347.261C255.885,347.245 256.022,347.225 256.159,347.209C256.925,347.121 257.692,347.04 258.462,346.99C258.74,346.972 259.019,346.955 259.297,346.949C262.375,346.887 262.385,342.102 259.3,342.163Z" style="fill:rgb(251,230,255);fill-rule:nonzero;" />
                                                </svg:g>
                                            </svg:g>
                                        </svg:g>
                                    </svg:g>
                                </svg:g>
                                <svg:g opacity="0.2">
                                    <svg:path d="M253.373,345.096C262.264,350.629 268.187,360.485 268.187,371.728C268.187,389.042 254.151,403.078 236.837,403.078C233.772,403.078 230.814,402.63 228.014,401.81C232.815,404.798 238.48,406.529 244.551,406.529C261.865,406.529 275.901,392.493 275.901,375.179C275.901,360.929 266.39,348.908 253.373,345.096Z" style="fill:rgb(211,161,161);fill-rule:nonzero;" />
                                </svg:g>
                            </svg:g>
                            <svg:g opacity="0.25">
                                <svg:g transform="matrix(0.6232,-0.7821,0.7821,0.6232,-198.079,320.242)">
                                    <svg:ellipse cx="233.305" cy="365.686" rx="18.728" ry="13.888" style="fill:white;" />
                                </svg:g>
                            </svg:g>
                            <svg:g>
                                <svg:g>
                                    <svg:g>
                                        <svg:path d="M236.362,348.707C234.547,349.347 232.812,350.486 231.243,351.569C227.864,353.902 224.87,356.838 222.693,360.334C221.169,362.783 220.092,365.486 219.502,368.308C219.345,369.059 220.498,369.38 220.656,368.626C222.304,360.746 227.978,354.441 234.953,350.701C235.367,350.479 235.787,350.265 236.213,350.067C236.345,350.006 236.478,349.946 236.612,349.887C236.697,349.85 236.521,349.917 236.681,349.86C237.401,349.606 237.091,348.45 236.362,348.707Z" style="fill:white;fill-rule:nonzero;" />
                                    </svg:g>
                                </svg:g>
                                <svg:g>
                                    <svg:path d="M220.682,371.438C220.682,371.898 220.309,372.272 219.849,372.272C219.389,372.272 219.015,371.899 219.015,371.438C219.015,370.978 219.388,370.604 219.849,370.604C220.308,370.605 220.682,370.978 220.682,371.438Z" style="fill:white;fill-rule:nonzero;" />
                                </svg:g>
                            </svg:g>
                        </svg:g>
                        <svg:g>
                            <svg:path d="M244.55,407.028C226.988,407.028 212.7,392.74 212.7,375.178C212.7,357.615 226.988,343.327 244.55,343.327C262.112,343.327 276.4,357.615 276.4,375.178C276.4,392.74 262.112,407.028 244.55,407.028ZM244.55,344.328C227.539,344.328 213.7,358.168 213.7,375.179C213.7,392.19 227.539,406.029 244.55,406.029C261.561,406.029 275.4,392.19 275.4,375.179C275.4,358.168 261.561,344.328 244.55,344.328Z" style="fill:rgb(21,47,71);fill-rule:nonzero;" />
                        </svg:g>
                    </svg:g>
                </svg:g>
                <svg:g>
                    <svg:g>
                        <svg:g>
                            <svg:g>
                                <svg:g>
                                    <svg:path d="M245.983,406.216C245.983,406.216 257.326,394.569 263.187,396.472C269.048,398.375 271.18,416.036 265.775,419.842C260.37,423.648 245.983,412.306 245.983,412.306L245.983,406.216Z" style="fill:rgb(239,106,191);fill-rule:nonzero;" />
                                </svg:g>
                                <svg:g>
                                    <svg:path d="M246.45,408.443C246.45,408.443 256.412,401.142 257.097,403.146C257.782,405.15 246.45,408.443 246.45,408.443Z" style="fill:rgb(255,201,226);fill-rule:nonzero;" />
                                </svg:g>
                                <svg:g>
                                    <svg:path d="M246.777,409.859C246.777,409.859 261.027,406.977 260.737,411.164C260.446,415.351 246.777,409.859 246.777,409.859Z" style="fill:rgb(255,201,226);fill-rule:nonzero;" />
                                </svg:g>
                            </svg:g>
                            <svg:g>
                                <svg:g>
                                    <svg:path d="M243.118,406.216C243.118,406.216 231.776,394.569 225.914,396.472C220.052,398.375 217.921,416.036 223.326,419.842C228.731,423.648 243.118,412.306 243.118,412.306L243.118,406.216Z" style="fill:rgb(239,106,191);fill-rule:nonzero;" />
                                </svg:g>
                                <svg:g>
                                    <svg:path d="M242.651,408.443C242.651,408.443 232.689,401.142 232.004,403.146C231.319,405.15 242.651,408.443 242.651,408.443Z" style="fill:rgb(255,201,226);fill-rule:nonzero;" />
                                </svg:g>
                                <svg:g>
                                    <svg:path d="M242.324,409.859C242.324,409.859 228.074,406.977 228.364,411.164C228.655,415.351 242.324,409.859 242.324,409.859Z" style="fill:rgb(255,201,226);fill-rule:nonzero;" />
                                </svg:g>
                            </svg:g>
                        </svg:g>
                        <svg:g>
                            <svg:g>
                                <svg:path d="M246.076,415.557L243.025,415.557C240.451,415.557 238.345,413.451 238.345,410.877L238.345,407.826C238.345,405.252 240.451,403.146 243.025,403.146L246.076,403.146C248.65,403.146 250.756,405.252 250.756,407.826L250.756,410.877C250.756,413.451 248.65,415.557 246.076,415.557Z" style="fill:rgb(255,129,206);fill-rule:nonzero;" />
                            </svg:g>
                            <svg:g>
                                <svg:path d="M248.673,403.857C248.673,403.871 248.676,403.886 248.676,403.9C248.676,408.56 244.505,412.444 238.972,413.322C239.751,414.651 241.18,415.558 242.823,415.558L246.277,415.558C248.74,415.558 250.756,413.542 250.756,411.079L250.756,407.625C250.756,406.043 249.92,404.654 248.673,403.857Z" style="fill:rgb(239,106,191);fill-rule:nonzero;" />
                            </svg:g>
                        </svg:g>
                    </svg:g>
                    <svg:g>
                        <svg:path d="M262.937,421.13C258.935,421.13 253.492,418.126 249.091,415.157C248.249,415.747 247.283,416.057 246.277,416.057L242.823,416.057C241.817,416.057 240.851,415.747 240.01,415.157C234.297,419.01 226.83,422.918 223.038,420.251C219.854,418.009 219.234,411.676 220.031,406.394C220.686,402.053 222.535,397.043 225.76,395.996C229.818,394.679 236.027,399.117 240.62,403.182C241.317,402.83 242.072,402.646 242.823,402.646L246.277,402.646C247.04,402.646 247.78,402.826 248.481,403.181C253.074,399.117 259.283,394.682 263.34,395.996C266.566,397.044 268.415,402.055 269.069,406.394C269.866,411.675 269.246,418.008 266.062,420.251C265.192,420.863 264.129,421.13 262.937,421.13ZM249.05,413.921L249.358,414.13C257,419.337 262.882,421.271 265.487,419.433C267.903,417.732 268.969,412.432 268.082,406.544C267.314,401.461 265.333,397.694 263.032,396.947C260.203,396.032 255.042,398.658 248.883,404.162L248.61,404.406L248.294,404.218C247.655,403.837 246.977,403.645 246.277,403.645L242.823,403.645C242.124,403.645 241.446,403.837 240.807,404.218L240.492,404.406L240.219,404.162C234.058,398.657 228.9,396.032 226.069,396.947C223.769,397.694 221.787,401.461 221.02,406.543C220.132,412.432 221.199,417.731 223.615,419.433C226.222,421.273 232.102,419.336 239.744,414.13L240.052,413.92L240.341,414.154C241.07,414.745 241.929,415.057 242.824,415.057L246.278,415.057C247.174,415.057 248.032,414.744 248.762,414.154L249.05,413.921Z" style="fill:rgb(21,47,71);fill-rule:nonzero;" />
                    </svg:g>
                </svg:g>
            </svg:g>
            <svg:g>
                <svg:g>
                    <svg:g>
                        <svg:g>
                            <svg:g>
                                <svg:path d="M233.481,375.044C233.481,378.306 231.715,380.95 229.536,380.95C227.357,380.95 225.591,378.306 225.591,375.044C225.591,371.782 227.357,369.138 229.536,369.138C231.714,369.138 233.481,371.782 233.481,375.044Z" style="fill:rgb(21,47,71);fill-rule:nonzero;" />
                            </svg:g>
                            <svg:g>
                                <svg:g>
                                    <svg:path d="M230.341,372.622C230.341,373.527 229.608,374.26 228.703,374.26C227.798,374.26 227.065,373.527 227.065,372.622C227.065,371.717 227.798,370.984 228.703,370.984C229.607,370.984 230.341,371.717 230.341,372.622Z" style="fill:white;fill-rule:nonzero;" />
                                </svg:g>
                                <svg:g>
                                    <svg:path d="M232.006,375.229C232.006,375.824 231.523,376.307 230.928,376.307C230.333,376.307 229.85,375.824 229.85,375.229C229.85,374.634 230.333,374.151 230.928,374.151C231.524,374.151 232.006,374.633 232.006,375.229Z" style="fill:white;fill-rule:nonzero;" />
                                </svg:g>
                            </svg:g>
                        </svg:g>
                        <svg:g>
                            <svg:path d="M262.12,377.445C261.457,377.13 260.803,376.796 260.155,376.452C259.582,376.149 259.014,375.835 258.457,375.504C258.196,375.349 257.938,375.19 257.684,375.024C257.555,374.94 257.427,374.854 257.301,374.766C257.241,374.724 257.183,374.681 257.124,374.639C257.111,374.63 257.081,374.607 257.054,374.587C256.917,374.478 256.791,374.361 256.664,374.242C256.669,374.236 256.675,374.227 256.68,374.222C256.761,374.136 256.846,374.055 256.933,373.976C257.727,373.251 258.795,372.575 259.844,371.921C260.593,371.454 261.351,371 262.12,370.57C263.061,370.044 262.217,368.596 261.275,369.124C259.388,370.18 257.411,371.302 255.796,372.75C255.441,373.069 255.052,373.456 254.919,373.929C254.76,374.499 255.056,375.005 255.443,375.401C256.327,376.307 257.556,376.943 258.654,377.547C259.514,378.02 260.388,378.472 261.275,378.893C261.683,379.087 262.179,379.006 262.421,378.593C262.634,378.226 262.531,377.64 262.12,377.445ZM256.577,374.162C256.562,374.146 256.547,374.13 256.533,374.113C256.531,374.11 256.529,374.109 256.527,374.106C256.523,374.099 256.524,374.102 256.52,374.096C256.581,374.155 256.591,374.172 256.577,374.162ZM256.546,374.394C256.538,374.419 256.522,374.448 256.487,374.481C256.504,374.465 256.526,374.43 256.546,374.394Z" style="fill:rgb(21,47,71);fill-rule:nonzero;" />
                        </svg:g>
                    </svg:g>
                    <svg:g>
                        <svg:g>
                            <svg:path d="M251.402,381.126C248.763,380.95 241.043,380.95 237.698,381.126C237.698,381.126 237.386,386.961 244.55,386.961C251.714,386.961 251.402,381.126 251.402,381.126Z" style="fill:rgb(21,47,71);fill-rule:nonzero;" />
                        </svg:g>
                        <svg:g>
                            <svg:path d="M244.55,386.961C246.423,386.961 247.773,386.559 248.764,385.97C247.978,384.804 246.389,384.003 244.55,384.003C242.714,384.003 241.125,384.804 240.338,385.97C241.327,386.558 242.679,386.961 244.55,386.961Z" style="fill:rgb(255,129,206);fill-rule:nonzero;" />
                        </svg:g>
                    </svg:g>
                </svg:g>
                <svg:g>
                    <svg:g>
                        <svg:path d="M230.764,381.801C230.46,382.599 228.363,382.539 226.08,381.668C223.798,380.797 222.194,379.445 222.498,378.647C222.802,377.849 224.899,377.909 227.182,378.78C229.465,379.651 231.069,381.004 230.764,381.801Z" style="fill:rgb(255,129,206);fill-rule:nonzero;" />
                    </svg:g>
                    <svg:g>
                        <svg:path d="M258.336,381.801C258.64,382.599 260.737,382.539 263.02,381.668C265.303,380.797 266.906,379.445 266.602,378.647C266.298,377.849 264.201,377.909 261.918,378.78C259.636,379.651 258.032,381.004 258.336,381.801Z" style="fill:rgb(255,129,206);fill-rule:nonzero;" />
                    </svg:g>
                </svg:g>
            </svg:g>
        </svg:g>
    </g>
</svg>