<?xml version='1.0' encoding='UTF-8'?>
<svg xmlns="http://www.w3.org/2000/svg" xmlns:xlink="http://www.w3.org/1999/xlink" xmlns:svg="http://www.w3.org/2000/svg" xmlns:serif="http://www.serif.com/" height="100%" style="fill-rule:evenodd;clip-rule:evenodd;" version="1.1" viewBox="207.5 860.0 25.0 100.0" width="100%">
    <g>
        <svg:rect x="207.5" y="860" width="25" height="100" style="fill:rgb(255,212,121);" />
        <svg:g>
            <svg:g transform="matrix(0.201385,0,0,0.201385,132.104,825.13)">
                <svg:g>
                    <svg:g>
                        <svg:g>
                            <svg:g>
                                <svg:path d="M440.497,229.072L395.528,229.072C395.528,229.072 387.675,228.341 388.389,238.603C389.103,248.867 395.17,296.885 418.012,296.885C440.855,296.885 446.923,248.866 447.636,238.603C448.351,228.341 440.497,229.072 440.497,229.072Z" style="fill:rgb(179,225,244);fill-rule:nonzero;" />
                            </svg:g>
                            <svg:g>
                                <svg:g>
                                    <svg:path d="M421.403,315.603L421.403,292.602L414.621,292.602L414.621,315.603C407.68,316.244 402.487,318.803 402.487,321.869C402.487,325.418 409.438,325.438 418.011,325.438C426.586,325.438 433.537,325.417 433.537,321.869C433.538,318.804 428.345,316.244 421.403,315.603Z" style="fill:rgb(179,225,244);fill-rule:nonzero;" />
                                </svg:g>
                                <svg:g>
                                    <svg:path d="M418.012,322.582C410.698,322.582 404.578,322.559 402.937,320.35C402.65,320.838 402.488,321.345 402.488,321.87C402.488,325.419 409.439,325.439 418.012,325.439C426.587,325.439 433.538,325.418 433.538,321.87C433.538,321.346 433.376,320.839 433.089,320.35C431.446,322.559 425.328,322.582 418.012,322.582Z" style="fill:rgb(146,213,234);fill-rule:nonzero;" />
                                </svg:g>
                            </svg:g>
                            <svg:g>
                                <svg:path d="M430.983,244.254C422.651,248.315 423.841,250.67 408.366,245.764C402.372,243.864 397.383,243.996 393.513,244.868C394.684,256.564 400.289,291.24 418.012,291.24C437.052,291.24 442.11,251.216 442.703,242.661C442.714,242.514 442.706,242.389 442.712,242.246C438.53,240.67 436.753,241.443 430.983,244.254Z" style="fill:rgb(255,201,226);fill-rule:nonzero;" />
                            </svg:g>
                            <svg:g opacity="0.1">
                                <svg:path d="M440.497,229.072L438.866,229.072C439.085,230.151 439.171,231.43 439.065,232.958C438.351,243.222 432.284,291.24 409.441,291.24C407.902,291.24 406.441,291.015 405.049,290.605C408.613,294.466 412.889,296.885 418.011,296.885C440.854,296.885 446.922,248.866 447.635,238.603C448.351,228.341 440.497,229.072 440.497,229.072Z" style="fill:rgb(193,66,45);fill-rule:nonzero;" />
                            </svg:g>
                            <svg:g>
                                <svg:path d="M418.012,325.939C409.059,325.939 401.988,325.939 401.988,321.87C401.988,318.64 406.954,315.905 414.122,315.151L414.122,296.907C391.809,291.34 387.928,239.168 387.89,238.639C387.636,234.984 388.41,232.25 390.189,230.511C392.441,228.31 395.447,228.565 395.574,228.575L440.498,228.573C440.577,228.563 443.583,228.309 445.838,230.511C447.617,232.249 448.39,234.984 448.136,238.639C448.099,239.175 444.215,291.34 421.905,296.907L421.905,315.151C429.073,315.905 434.04,318.639 434.04,321.87C434.038,325.939 426.966,325.939 418.012,325.939ZM395.227,229.563C394.467,229.563 392.428,229.714 390.879,231.234C389.325,232.758 388.655,235.226 388.888,238.568C389.903,253.173 396.525,291.964 414.73,296.022L415.122,296.11L415.122,316.059L414.668,316.101C407.9,316.725 402.988,319.151 402.988,321.869C402.988,324.938 410.286,324.938 418.012,324.938C425.74,324.938 433.038,324.938 433.038,321.869C433.038,319.151 428.126,316.725 421.357,316.101L420.903,316.059L420.903,296.11L421.295,296.022C439.5,291.964 446.122,253.173 447.137,238.568C447.37,235.226 446.7,232.758 445.147,231.234C443.234,229.356 440.569,229.568 440.543,229.569L395.528,229.571C395.514,229.571 395.405,229.563 395.227,229.563Z" style="fill:rgb(21,47,71);fill-rule:nonzero;" />
                            </svg:g>
                            <svg:path d="M422.089,250.453C422.089,242.482 420.467,235.108 417.717,229.072L395.527,229.072C395.527,229.072 387.674,228.341 388.388,238.603C388.896,245.903 392.114,272.295 402.146,286.933C413.447,284.153 422.089,268.881 422.089,250.453Z" style="fill:white;fill-opacity:0.2;fill-rule:nonzero;" />
                        </svg:g>
                        <svg:g>
                            <svg:g>
                                <svg:g>
                                    <svg:g>
                                        <svg:g transform="matrix(0.7407,-0.6718,0.6718,0.7407,-27.7567,351.223)">
                                            <svg:rect x="421.486" y="209.243" width="39.37" height="4.66" style="fill:rgb(255,183,160);" />
                                        </svg:g>
                                        <svg:g>
                                            <svg:g>
                                                <svg:clipPath id="_clip7">
                                                    <svg:path d="M454.169,196.606L457.299,200.058L428.138,226.507L425.007,223.055L454.169,196.606Z" />
                                                </svg:clipPath>
                                                <svg:g clip-path="url(#_clip7)">
                                                    <svg:g>
                                                        <svg:g transform="matrix(0.3816,-0.9243,0.9243,0.3816,61.5968,534.72)">
                                                            <svg:rect x="428.449" y="206.979" width="3.941" height="28.693" style="fill:rgb(249,153,128);" />
                                                        </svg:g>
                                                        <svg:g transform="matrix(0.3816,-0.9243,0.9243,0.3816,72.1815,537.361)">
                                                            <svg:rect x="435.713" y="200.389" width="3.942" height="28.693" style="fill:rgb(249,153,128);" />
                                                        </svg:g>
                                                    </svg:g>
                                                    <svg:g>
                                                        <svg:g transform="matrix(0.3816,-0.9243,0.9243,0.3816,82.7795,540.015)">
                                                            <svg:rect x="442.98" y="193.799" width="3.941" height="28.692" style="fill:rgb(249,153,128);" />
                                                        </svg:g>
                                                        <svg:g transform="matrix(0.3816,-0.9243,0.9243,0.3816,93.3568,542.647)">
                                                            <svg:rect x="450.246" y="187.209" width="3.941" height="28.693" style="fill:rgb(249,153,128);" />
                                                        </svg:g>
                                                    </svg:g>
                                                </svg:g>
                                            </svg:g>
                                        </svg:g>
                                    </svg:g>
                                    <svg:g opacity="0.3">
                                        <svg:g transform="matrix(0.7408,-0.6717,0.6717,0.7408,-28.1535,351.905)">
                                            <svg:rect x="422.269" y="211.272" width="39.37" height="2.33" style="fill:rgb(232,119,93);" />
                                        </svg:g>
                                    </svg:g>
                                </svg:g>
                                <svg:g>
                                    <svg:path d="M428.121,227.23L424.319,223.038L454.219,195.915L458.023,200.107L428.121,227.23ZM425.731,223.108L428.189,225.819L456.611,200.041L454.151,197.329L425.731,223.108Z" style="fill:rgb(21,47,71);fill-rule:nonzero;" />
                                </svg:g>
                            </svg:g>
                            <svg:g>
                                <svg:g>
                                    <svg:g>
                                        <svg:g transform="matrix(0.297,-0.9549,0.9549,0.297,104.432,564.263)">
                                            <svg:rect x="415.743" y="208.879" width="39.368" height="4.659" style="fill:rgb(255,183,160);" />
                                        </svg:g>
                                        <svg:g>
                                            <svg:g>
                                                <svg:clipPath id="_clip8">
                                                    <svg:path d="M439.058,191.714L443.507,193.098L431.815,230.691L427.366,229.307L439.058,191.714Z" />
                                                </svg:clipPath>
                                                <svg:g clip-path="url(#_clip8)">
                                                    <svg:g>
                                                        <svg:g transform="matrix(0.9901,-0.1405,0.1405,0.9901,-27.3511,62.8194)">
                                                            <svg:rect x="416.769" y="223.098" width="28.693" height="3.941" style="fill:rgb(249,153,128);" />
                                                        </svg:g>
                                                        <svg:g transform="matrix(0.9901,-0.1406,0.1406,0.9901,-26.0107,63.1502)">
                                                            <svg:rect x="419.682" y="213.731" width="28.694" height="3.941" style="fill:rgb(249,153,128);" />
                                                        </svg:g>
                                                    </svg:g>
                                                    <svg:g>
                                                        <svg:g transform="matrix(0.9901,-0.1406,0.1406,0.9901,-24.6658,63.4691)">
                                                            <svg:rect x="422.597" y="204.365" width="28.692" height="3.941" style="fill:rgb(249,153,128);" />
                                                        </svg:g>
                                                        <svg:g transform="matrix(0.9901,-0.1405,0.1405,0.9901,-23.3104,63.7515)">
                                                            <svg:rect x="425.51" y="194.999" width="28.693" height="3.941" style="fill:rgb(249,153,128);" />
                                                        </svg:g>
                                                    </svg:g>
                                                </svg:g>
                                            </svg:g>
                                        </svg:g>
                                    </svg:g>
                                    <svg:g opacity="0.3">
                                        <svg:g transform="matrix(0.2968,-0.9549,0.9549,0.2968,104.956,565.636)">
                                            <svg:rect x="416.856" y="210.389" width="39.368" height="2.329" style="fill:rgb(232,119,93);" />
                                        </svg:g>
                                    </svg:g>
                                </svg:g>
                                <svg:g>
                                    <svg:path d="M432.134,231.321L426.73,229.64L438.722,191.094L444.125,192.775L432.134,231.321ZM427.981,228.982L431.475,230.069L442.872,193.433L439.379,192.346L427.981,228.982Z" style="fill:rgb(21,47,71);fill-rule:nonzero;" />
                                </svg:g>
                            </svg:g>
                        </svg:g>
                        <svg:g>
                            <svg:g>
                                <svg:path d="M388.476,235.357C388.476,235.357 384.083,223.052 396.486,222.065C396.486,222.065 396.421,209.529 408.287,211.466C408.287,211.466 405.206,204.957 413.685,200.356C422.162,195.754 418.487,188.77 418.487,188.77C418.487,188.77 436.168,195.067 430.355,207.176C430.355,207.176 441.063,208.847 439.159,219.561C439.159,219.561 451.162,223.767 447.518,235.142C447.518,235.142 438.349,239.63 416.066,239.63C393.782,239.631 388.476,235.357 388.476,235.357Z" style="fill:rgb(248,229,229);fill-rule:nonzero;" />
                            </svg:g>
                            <svg:g>
                                <svg:g>
                                    <svg:path d="M437.215,220.928C434.017,227.191 427.441,228.189 421.13,226.612C413.451,224.692 406.522,220.42 398.368,221.924C397.614,222.063 397.933,223.21 398.684,223.072C410.823,220.832 430.082,237.502 438.243,221.529C438.591,220.846 437.564,220.243 437.215,220.928Z" style="fill:rgb(234,185,185);fill-rule:nonzero;" />
                                </svg:g>
                            </svg:g>
                            <svg:g>
                                <svg:g>
                                    <svg:path d="M409.477,212.3C414.011,211.889 417.777,214.553 422.118,214.624C425.58,214.68 428.195,211.282 429.831,208.672C430.239,208.02 429.209,207.423 428.803,208.071C426.071,212.432 422.874,214.311 417.757,212.335C415.249,211.367 412.179,210.864 409.478,211.109C408.72,211.179 408.713,212.369 409.477,212.3Z" style="fill:rgb(234,185,185);fill-rule:nonzero;" />
                                </svg:g>
                            </svg:g>
                            <svg:g opacity="0.1">
                                <svg:g>
                                    <svg:path d="M439.157,219.561C441.061,208.847 430.353,207.176 430.353,207.176C436.166,195.067 418.485,188.77 418.485,188.77C418.485,188.77 419.618,190.928 419.171,193.633C424.025,196.795 429.409,202.323 425.671,210.113C425.671,210.113 437.081,211.893 435.052,223.308C435.052,223.308 445.177,226.865 444.663,236.197C446.604,235.587 447.515,235.141 447.515,235.141C451.16,223.768 439.157,219.561 439.157,219.561Z" style="fill:rgb(193,66,45);fill-rule:nonzero;" />
                                </svg:g>
                            </svg:g>
                            <svg:g>
                                <svg:path d="M416.064,240.131C393.861,240.131 388.383,235.926 388.162,235.747L388.052,235.658L388.005,235.525C387.919,235.285 385.937,229.598 388.596,225.488C390.028,223.275 392.517,221.971 395.999,221.607C396.074,220.143 396.568,215.584 399.775,212.844C401.744,211.16 404.363,210.494 407.552,210.86C407.013,208.878 406.445,203.716 413.445,199.917C421.371,195.615 418.181,189.27 418.042,189.002L417.454,187.873L418.653,188.299C419.053,188.442 428.484,191.867 431.269,198.632C432.342,201.237 432.273,203.987 431.066,206.814C432.493,207.157 435.964,208.268 438.117,211.283C439.656,213.437 440.193,216.114 439.716,219.245C441.805,220.125 451.357,224.794 447.993,235.294L447.928,235.497L447.737,235.591C447.357,235.777 438.209,240.131 416.064,240.131ZM388.898,235.043C389.771,235.611 395.999,239.131 416.064,239.131C436.228,239.131 445.681,235.397 447.106,234.779C450.346,224.166 439.46,220.198 438.991,220.033L438.591,219.892L438.665,219.474C439.203,216.448 438.746,213.889 437.309,211.871C434.857,208.43 430.322,207.678 430.277,207.671L429.613,207.566L429.903,206.961C431.23,204.198 431.379,201.525 430.347,199.016C428.257,193.937 421.878,190.752 419.358,189.663C420.041,191.928 420.673,197.132 413.922,200.796C405.983,205.105 408.622,211.005 408.738,211.254L409.138,212.111L408.204,211.96C404.946,211.428 402.328,211.979 400.428,213.601C397.004,216.523 396.985,222.008 396.985,222.063L396.987,222.527L396.525,222.564C393.136,222.834 390.752,223.999 389.437,226.028C387.267,229.379 388.616,234.149 388.898,235.043Z" style="fill:rgb(21,47,71);fill-rule:nonzero;" />
                            </svg:g>
                        </svg:g>
                        <svg:g>
                            <svg:g opacity="0.3">
                                <svg:path d="M408.849,201.321C410.23,202.341 411.328,204.319 411.336,207.697C411.358,215.561 405.277,215.975 405.277,215.975C405.277,215.975 403.752,217.154 401.494,217.139C405.402,219.218 408.499,216.834 408.499,216.834C408.499,216.834 414.58,216.42 414.56,208.557C414.542,202.665 411.222,201.011 408.849,201.321Z" style="fill:rgb(140,35,21);fill-rule:nonzero;" />
                            </svg:g>
                            <svg:g>
                                <svg:g>
                                    <svg:path d="M406.947,202.206C405.265,204.034 404.955,204.783 404.048,205.128C403.14,205.474 402.411,205.12 399.94,204.871C397.469,204.621 393.262,208.783 398.471,214.675C403.68,220.567 408.499,216.835 408.499,216.835C408.499,216.835 414.58,216.421 414.56,208.558C414.538,200.692 408.627,200.379 406.947,202.206Z" style="fill:rgb(193,66,45);fill-rule:nonzero;" />
                                </svg:g>
                                <svg:g>
                                    <svg:path d="M404.737,218.486C402.851,218.487 400.498,217.723 398.095,215.006C394.672,211.134 395.341,208.254 396.044,206.882C396.865,205.281 398.522,204.226 399.989,204.373C400.828,204.457 401.469,204.554 401.985,204.632C402.951,204.778 403.39,204.843 403.869,204.66C404.349,204.477 404.634,204.136 405.257,203.388C405.592,202.987 406.007,202.489 406.578,201.868C407.575,200.784 409.517,200.471 411.194,201.123C412.63,201.681 415.045,203.389 415.058,208.557C415.078,216.09 409.657,217.182 408.681,217.317C408.258,217.601 406.769,218.486 404.737,218.486ZM399.728,205.361C398.827,205.361 397.587,206.066 396.934,207.339C396.347,208.484 395.815,210.917 398.845,214.344C403.688,219.823 408.011,216.581 408.193,216.44L408.311,216.348L408.463,216.337C408.693,216.32 414.077,215.838 414.059,208.56C414.046,203.985 412.033,202.521 410.832,202.056C409.419,201.507 407.934,201.873 407.314,202.546C406.756,203.152 406.351,203.639 406.025,204.03C405.354,204.835 404.949,205.321 404.224,205.597C403.499,205.874 402.872,205.78 401.836,205.623C401.332,205.547 400.707,205.453 399.888,205.371C399.837,205.363 399.783,205.361 399.728,205.361Z" style="fill:rgb(21,47,71);fill-rule:nonzero;" />
                                </svg:g>
                                <svg:g>
                                    <svg:g>
                                        <svg:path d="M402.483,206.873C402.483,206.873 402.789,206.738 403.168,206.565C403.359,206.498 403.567,206.391 403.788,206.333C403.997,206.233 404.23,206.187 404.441,206.094C404.648,206.002 404.888,205.967 405.076,205.865C405.264,205.765 405.512,205.746 405.671,205.646C406.028,205.49 406.376,205.393 406.376,205.393C406.376,205.393 406.359,205.704 406.168,206.163C406.09,206.408 405.871,206.581 405.657,206.799C405.451,207.037 405.137,207.126 404.851,207.272C404.244,207.475 403.601,207.448 403.165,207.279C402.721,207.12 402.483,206.873 402.483,206.873Z" style="fill:rgb(140,35,21);fill-rule:nonzero;" />
                                    </svg:g>
                                    <svg:g>
                                        <svg:g>
                                            <svg:path d="M404.126,206.193C404.126,206.193 398.876,199.222 400.403,190.788C400.403,190.788 400.98,191.571 402.244,191.091C402.244,191.091 400.249,199.758 404.871,205.909L404.126,206.193Z" style="fill:rgb(237,137,110);fill-rule:nonzero;" />
                                        </svg:g>
                                        <svg:g>
                                            <svg:path d="M402.247,191.12C402.178,191.454 401.714,191.638 401.213,191.535C400.709,191.43 400.356,191.079 400.425,190.749C400.493,190.416 400.953,190.232 401.458,190.335C401.963,190.439 402.314,190.79 402.247,191.12Z" style="fill:rgb(229,97,66);fill-rule:nonzero;" />
                                        </svg:g>
                                    </svg:g>
                                </svg:g>
                            </svg:g>
                        </svg:g>
                    </svg:g>
                    <svg:g>
                        <svg:g>
                            <svg:g>
                                <svg:path d="M404.132,265.424C403.848,265.989 403.663,266.602 403.595,267.184C403.513,267.895 404.625,267.888 404.706,267.184C404.889,265.628 405.949,264.332 407.594,264.354C409.26,264.376 410.01,266.253 409.976,267.634C409.958,268.351 411.07,268.349 411.087,267.634C411.143,265.427 409.982,263.218 407.594,263.242C406.801,263.25 406.034,263.527 405.452,263.924C404.619,264.559 404.132,265.424 404.132,265.424Z" style="fill:rgb(21,47,71);fill-rule:nonzero;" />
                            </svg:g>
                            <svg:g>
                                <svg:path d="M432.84,265.424C433.123,265.989 433.308,266.602 433.377,267.184C433.458,267.895 432.346,267.888 432.265,267.184C432.083,265.628 431.022,264.332 429.377,264.354C427.711,264.376 426.962,266.253 426.995,267.634C427.013,268.351 425.902,268.349 425.883,267.634C425.829,265.427 426.99,263.218 429.377,263.242C430.169,263.25 430.937,263.527 431.519,263.924C432.352,264.559 432.84,265.424 432.84,265.424Z" style="fill:rgb(21,47,71);fill-rule:nonzero;" />
                            </svg:g>
                        </svg:g>
                        <svg:g>
                            <svg:g>
                                <svg:path d="M406.492,259.468C406.492,259.468 406.537,259.191 406.779,258.88C406.901,258.724 407.069,258.553 407.298,258.428C407.527,258.297 407.814,258.209 408.114,258.21C408.266,258.205 408.412,258.244 408.556,258.276C408.7,258.305 408.819,258.395 408.94,258.452C409.162,258.6 409.329,258.774 409.431,258.952C409.55,259.109 409.586,259.279 409.625,259.384C409.656,259.494 409.665,259.562 409.665,259.562C409.665,259.562 409.599,259.539 409.494,259.493C409.389,259.45 409.265,259.371 409.103,259.311C408.954,259.237 408.782,259.183 408.613,259.122C408.442,259.093 408.28,259.04 408.109,259.058C407.942,259.037 407.764,259.081 407.586,259.116C407.404,259.155 407.232,259.216 407.068,259.265C406.723,259.386 406.492,259.468 406.492,259.468Z" style="fill:rgb(21,47,71);fill-rule:nonzero;" />
                            </svg:g>
                            <svg:g>
                                <svg:path d="M427.328,259.222C427.328,259.222 427.398,258.952 427.676,258.666C427.812,258.523 427.997,258.372 428.24,258.271C428.478,258.166 428.774,258.106 429.073,258.14C429.224,258.149 429.365,258.206 429.507,258.248C429.647,258.294 429.754,258.396 429.869,258.463C430.074,258.637 430.224,258.827 430.303,259.011C430.407,259.181 430.428,259.353 430.454,259.46C430.474,259.575 430.477,259.641 430.477,259.641C430.477,259.641 430.414,259.613 430.315,259.555C430.215,259.506 430.096,259.411 429.946,259.337C429.8,259.248 429.636,259.172 429.477,259.097C429.307,259.047 429.154,258.98 428.982,258.979C428.815,258.944 428.635,258.969 428.454,258.982C428.271,259.004 428.094,259.047 427.924,259.081C427.564,259.163 427.328,259.222 427.328,259.222Z" style="fill:rgb(21,47,71);fill-rule:nonzero;" />
                            </svg:g>
                        </svg:g>
                        <svg:g>
                            <svg:g>
                                <svg:path d="M416.142,267.884C416.48,268.371 416.972,268.793 417.525,269.016C418.782,269.523 419.915,268.868 420.787,267.964C421.137,267.599 420.585,267.045 420.233,267.407C419.546,268.12 418.681,268.709 417.692,268.237C417.359,268.075 417.022,267.781 416.819,267.487C416.532,267.076 415.852,267.467 416.142,267.884Z" style="fill:rgb(21,47,71);fill-rule:nonzero;" />
                            </svg:g>
                        </svg:g>
                        <svg:g>
                            <svg:g>
                                <svg:path d="M409.15,271.066C409.15,272.469 408.012,273.606 406.609,273.606C405.207,273.606 404.069,272.469 404.069,271.066C404.069,269.664 405.207,268.525 406.609,268.525C408.013,268.525 409.15,269.664 409.15,271.066Z" style="fill:rgb(255,129,206);fill-rule:nonzero;" />
                            </svg:g>
                            <svg:g>
                                <svg:path d="M432.902,271.066C432.902,272.469 431.763,273.606 430.361,273.606C428.957,273.606 427.82,272.469 427.82,271.066C427.82,269.664 428.957,268.525 430.361,268.525C431.764,268.525 432.902,269.664 432.902,271.066Z" style="fill:rgb(255,129,206);fill-rule:nonzero;" />
                            </svg:g>
                        </svg:g>
                    </svg:g>
                </svg:g>
                <svg:g>
                    <svg:g>
                        <svg:path d="M392.888,244.868C392.891,247.875 393.177,250.901 393.552,253.881C394.32,259.978 395.636,266.071 398.024,271.752C399.434,275.105 401.238,278.279 403.627,281.033C404.155,281.642 405.036,280.754 404.511,280.149C400.311,275.307 397.978,269.083 396.464,262.934C395.251,258.005 394.541,252.947 394.247,247.881C394.189,246.879 394.138,245.873 394.137,244.869C394.137,244.064 392.887,244.063 392.888,244.868Z" style="fill:white;fill-rule:nonzero;" />
                    </svg:g>
                    <svg:path d="M407.108,282.568C407.108,283.09 406.684,283.514 406.162,283.514C405.64,283.514 405.216,283.091 405.216,282.568C405.216,282.045 405.639,281.622 406.162,281.622C406.685,281.622 407.108,282.045 407.108,282.568Z" style="fill:white;fill-rule:nonzero;" />
                </svg:g>
            </svg:g>
            <svg:g transform="matrix(0.201385,0,0,0.201385,137.185,857.557)">
                <svg:g>
                    <svg:g>
                        <svg:g>
                            <svg:g>
                                <svg:path d="M440.497,229.072L395.528,229.072C395.528,229.072 387.675,228.341 388.389,238.603C389.103,248.867 395.17,296.885 418.012,296.885C440.855,296.885 446.923,248.866 447.636,238.603C448.351,228.341 440.497,229.072 440.497,229.072Z" style="fill:rgb(179,225,244);fill-rule:nonzero;" />
                            </svg:g>
                            <svg:g>
                                <svg:g>
                                    <svg:path d="M421.403,315.603L421.403,292.602L414.621,292.602L414.621,315.603C407.68,316.244 402.487,318.803 402.487,321.869C402.487,325.418 409.438,325.438 418.011,325.438C426.586,325.438 433.537,325.417 433.537,321.869C433.538,318.804 428.345,316.244 421.403,315.603Z" style="fill:rgb(179,225,244);fill-rule:nonzero;" />
                                </svg:g>
                                <svg:g>
                                    <svg:path d="M418.012,322.582C410.698,322.582 404.578,322.559 402.937,320.35C402.65,320.838 402.488,321.345 402.488,321.87C402.488,325.419 409.439,325.439 418.012,325.439C426.587,325.439 433.538,325.418 433.538,321.87C433.538,321.346 433.376,320.839 433.089,320.35C431.446,322.559 425.328,322.582 418.012,322.582Z" style="fill:rgb(146,213,234);fill-rule:nonzero;" />
                                </svg:g>
                            </svg:g>
                            <svg:g>
                                <svg:path d="M430.983,244.254C422.651,248.315 423.841,250.67 408.366,245.764C402.372,243.864 397.383,243.996 393.513,244.868C394.684,256.564 400.289,291.24 418.012,291.24C437.052,291.24 442.11,251.216 442.703,242.661C442.714,242.514 442.706,242.389 442.712,242.246C438.53,240.67 436.753,241.443 430.983,244.254Z" style="fill:rgb(255,201,226);fill-rule:nonzero;" />
                            </svg:g>
                            <svg:g opacity="0.1">
                                <svg:path d="M440.497,229.072L438.866,229.072C439.085,230.151 439.171,231.43 439.065,232.958C438.351,243.222 432.284,291.24 409.441,291.24C407.902,291.24 406.441,291.015 405.049,290.605C408.613,294.466 412.889,296.885 418.011,296.885C440.854,296.885 446.922,248.866 447.635,238.603C448.351,228.341 440.497,229.072 440.497,229.072Z" style="fill:rgb(193,66,45);fill-rule:nonzero;" />
                            </svg:g>
                            <svg:g>
                                <svg:path d="M418.012,325.939C409.059,325.939 401.988,325.939 401.988,321.87C401.988,318.64 406.954,315.905 414.122,315.151L414.122,296.907C391.809,291.34 387.928,239.168 387.89,238.639C387.636,234.984 388.41,232.25 390.189,230.511C392.441,228.31 395.447,228.565 395.574,228.575L440.498,228.573C440.577,228.563 443.583,228.309 445.838,230.511C447.617,232.249 448.39,234.984 448.136,238.639C448.099,239.175 444.215,291.34 421.905,296.907L421.905,315.151C429.073,315.905 434.04,318.639 434.04,321.87C434.038,325.939 426.966,325.939 418.012,325.939ZM395.227,229.563C394.467,229.563 392.428,229.714 390.879,231.234C389.325,232.758 388.655,235.226 388.888,238.568C389.903,253.173 396.525,291.964 414.73,296.022L415.122,296.11L415.122,316.059L414.668,316.101C407.9,316.725 402.988,319.151 402.988,321.869C402.988,324.938 410.286,324.938 418.012,324.938C425.74,324.938 433.038,324.938 433.038,321.869C433.038,319.151 428.126,316.725 421.357,316.101L420.903,316.059L420.903,296.11L421.295,296.022C439.5,291.964 446.122,253.173 447.137,238.568C447.37,235.226 446.7,232.758 445.147,231.234C443.234,229.356 440.569,229.568 440.543,229.569L395.528,229.571C395.514,229.571 395.405,229.563 395.227,229.563Z" style="fill:rgb(21,47,71);fill-rule:nonzero;" />
                            </svg:g>
                            <svg:path d="M422.089,250.453C422.089,242.482 420.467,235.108 417.717,229.072L395.527,229.072C395.527,229.072 387.674,228.341 388.388,238.603C388.896,245.903 392.114,272.295 402.146,286.933C413.447,284.153 422.089,268.881 422.089,250.453Z" style="fill:white;fill-opacity:0.2;fill-rule:nonzero;" />
                        </svg:g>
                        <svg:g>
                            <svg:g>
                                <svg:g>
                                    <svg:g>
                                        <svg:g transform="matrix(0.7407,-0.6718,0.6718,0.7407,-27.7567,351.223)">
                                            <svg:rect x="421.486" y="209.243" width="39.37" height="4.66" style="fill:rgb(255,183,160);" />
                                        </svg:g>
                                        <svg:g>
                                            <svg:g>
                                                <svg:clipPath id="_clip9">
                                                    <svg:path d="M454.169,196.606L457.299,200.058L428.138,226.507L425.007,223.055L454.169,196.606Z" />
                                                </svg:clipPath>
                                                <svg:g clip-path="url(#_clip9)">
                                                    <svg:g>
                                                        <svg:g transform="matrix(0.3816,-0.9243,0.9243,0.3816,61.5968,534.72)">
                                                            <svg:rect x="428.449" y="206.979" width="3.941" height="28.693" style="fill:rgb(249,153,128);" />
                                                        </svg:g>
                                                        <svg:g transform="matrix(0.3816,-0.9243,0.9243,0.3816,72.1815,537.361)">
                                                            <svg:rect x="435.713" y="200.389" width="3.942" height="28.693" style="fill:rgb(249,153,128);" />
                                                        </svg:g>
                                                    </svg:g>
                                                    <svg:g>
                                                        <svg:g transform="matrix(0.3816,-0.9243,0.9243,0.3816,82.7795,540.015)">
                                                            <svg:rect x="442.98" y="193.799" width="3.941" height="28.692" style="fill:rgb(249,153,128);" />
                                                        </svg:g>
                                                        <svg:g transform="matrix(0.3816,-0.9243,0.9243,0.3816,93.3568,542.647)">
                                                            <svg:rect x="450.246" y="187.209" width="3.941" height="28.693" style="fill:rgb(249,153,128);" />
                                                        </svg:g>
                                                    </svg:g>
                                                </svg:g>
                                            </svg:g>
                                        </svg:g>
                                    </svg:g>
                                    <svg:g opacity="0.3">
                                        <svg:g transform="matrix(0.7408,-0.6717,0.6717,0.7408,-28.1535,351.905)">
                                            <svg:rect x="422.269" y="211.272" width="39.37" height="2.33" style="fill:rgb(232,119,93);" />
                                        </svg:g>
                                    </svg:g>
                                </svg:g>
                                <svg:g>
                                    <svg:path d="M428.121,227.23L424.319,223.038L454.219,195.915L458.023,200.107L428.121,227.23ZM425.731,223.108L428.189,225.819L456.611,200.041L454.151,197.329L425.731,223.108Z" style="fill:rgb(21,47,71);fill-rule:nonzero;" />
                                </svg:g>
                            </svg:g>
                            <svg:g>
                                <svg:g>
                                    <svg:g>
                                        <svg:g transform="matrix(0.297,-0.9549,0.9549,0.297,104.432,564.263)">
                                            <svg:rect x="415.743" y="208.879" width="39.368" height="4.659" style="fill:rgb(255,183,160);" />
                                        </svg:g>
                                        <svg:g>
                                            <svg:g>
                                                <svg:clipPath id="_clip10">
                                                    <svg:path d="M439.058,191.714L443.507,193.098L431.815,230.691L427.366,229.307L439.058,191.714Z" />
                                                </svg:clipPath>
                                                <svg:g clip-path="url(#_clip10)">
                                                    <svg:g>
                                                        <svg:g transform="matrix(0.9901,-0.1405,0.1405,0.9901,-27.3511,62.8194)">
                                                            <svg:rect x="416.769" y="223.098" width="28.693" height="3.941" style="fill:rgb(249,153,128);" />
                                                        </svg:g>
                                                        <svg:g transform="matrix(0.9901,-0.1406,0.1406,0.9901,-26.0107,63.1502)">
                                                            <svg:rect x="419.682" y="213.731" width="28.694" height="3.941" style="fill:rgb(249,153,128);" />
                                                        </svg:g>
                                                    </svg:g>
                                                    <svg:g>
                                                        <svg:g transform="matrix(0.9901,-0.1406,0.1406,0.9901,-24.6658,63.4691)">
                                                            <svg:rect x="422.597" y="204.365" width="28.692" height="3.941" style="fill:rgb(249,153,128);" />
                                                        </svg:g>
                                                        <svg:g transform="matrix(0.9901,-0.1405,0.1405,0.9901,-23.3104,63.7515)">
                                                            <svg:rect x="425.51" y="194.999" width="28.693" height="3.941" style="fill:rgb(249,153,128);" />
                                                        </svg:g>
                                                    </svg:g>
                                                </svg:g>
                                            </svg:g>
                                        </svg:g>
                                    </svg:g>
                                    <svg:g opacity="0.3">
                                        <svg:g transform="matrix(0.2968,-0.9549,0.9549,0.2968,104.956,565.636)">
                                            <svg:rect x="416.856" y="210.389" width="39.368" height="2.329" style="fill:rgb(232,119,93);" />
                                        </svg:g>
                                    </svg:g>
                                </svg:g>
                                <svg:g>
                                    <svg:path d="M432.134,231.321L426.73,229.64L438.722,191.094L444.125,192.775L432.134,231.321ZM427.981,228.982L431.475,230.069L442.872,193.433L439.379,192.346L427.981,228.982Z" style="fill:rgb(21,47,71);fill-rule:nonzero;" />
                                </svg:g>
                            </svg:g>
                        </svg:g>
                        <svg:g>
                            <svg:g>
                                <svg:path d="M388.476,235.357C388.476,235.357 384.083,223.052 396.486,222.065C396.486,222.065 396.421,209.529 408.287,211.466C408.287,211.466 405.206,204.957 413.685,200.356C422.162,195.754 418.487,188.77 418.487,188.77C418.487,188.77 436.168,195.067 430.355,207.176C430.355,207.176 441.063,208.847 439.159,219.561C439.159,219.561 451.162,223.767 447.518,235.142C447.518,235.142 438.349,239.63 416.066,239.63C393.782,239.631 388.476,235.357 388.476,235.357Z" style="fill:rgb(248,229,229);fill-rule:nonzero;" />
                            </svg:g>
                            <svg:g>
                                <svg:g>
                                    <svg:path d="M437.215,220.928C434.017,227.191 427.441,228.189 421.13,226.612C413.451,224.692 406.522,220.42 398.368,221.924C397.614,222.063 397.933,223.21 398.684,223.072C410.823,220.832 430.082,237.502 438.243,221.529C438.591,220.846 437.564,220.243 437.215,220.928Z" style="fill:rgb(234,185,185);fill-rule:nonzero;" />
                                </svg:g>
                            </svg:g>
                            <svg:g>
                                <svg:g>
                                    <svg:path d="M409.477,212.3C414.011,211.889 417.777,214.553 422.118,214.624C425.58,214.68 428.195,211.282 429.831,208.672C430.239,208.02 429.209,207.423 428.803,208.071C426.071,212.432 422.874,214.311 417.757,212.335C415.249,211.367 412.179,210.864 409.478,211.109C408.72,211.179 408.713,212.369 409.477,212.3Z" style="fill:rgb(234,185,185);fill-rule:nonzero;" />
                                </svg:g>
                            </svg:g>
                            <svg:g opacity="0.1">
                                <svg:g>
                                    <svg:path d="M439.157,219.561C441.061,208.847 430.353,207.176 430.353,207.176C436.166,195.067 418.485,188.77 418.485,188.77C418.485,188.77 419.618,190.928 419.171,193.633C424.025,196.795 429.409,202.323 425.671,210.113C425.671,210.113 437.081,211.893 435.052,223.308C435.052,223.308 445.177,226.865 444.663,236.197C446.604,235.587 447.515,235.141 447.515,235.141C451.16,223.768 439.157,219.561 439.157,219.561Z" style="fill:rgb(193,66,45);fill-rule:nonzero;" />
                                </svg:g>
                            </svg:g>
                            <svg:g>
                                <svg:path d="M416.064,240.131C393.861,240.131 388.383,235.926 388.162,235.747L388.052,235.658L388.005,235.525C387.919,235.285 385.937,229.598 388.596,225.488C390.028,223.275 392.517,221.971 395.999,221.607C396.074,220.143 396.568,215.584 399.775,212.844C401.744,211.16 404.363,210.494 407.552,210.86C407.013,208.878 406.445,203.716 413.445,199.917C421.371,195.615 418.181,189.27 418.042,189.002L417.454,187.873L418.653,188.299C419.053,188.442 428.484,191.867 431.269,198.632C432.342,201.237 432.273,203.987 431.066,206.814C432.493,207.157 435.964,208.268 438.117,211.283C439.656,213.437 440.193,216.114 439.716,219.245C441.805,220.125 451.357,224.794 447.993,235.294L447.928,235.497L447.737,235.591C447.357,235.777 438.209,240.131 416.064,240.131ZM388.898,235.043C389.771,235.611 395.999,239.131 416.064,239.131C436.228,239.131 445.681,235.397 447.106,234.779C450.346,224.166 439.46,220.198 438.991,220.033L438.591,219.892L438.665,219.474C439.203,216.448 438.746,213.889 437.309,211.871C434.857,208.43 430.322,207.678 430.277,207.671L429.613,207.566L429.903,206.961C431.23,204.198 431.379,201.525 430.347,199.016C428.257,193.937 421.878,190.752 419.358,189.663C420.041,191.928 420.673,197.132 413.922,200.796C405.983,205.105 408.622,211.005 408.738,211.254L409.138,212.111L408.204,211.96C404.946,211.428 402.328,211.979 400.428,213.601C397.004,216.523 396.985,222.008 396.985,222.063L396.987,222.527L396.525,222.564C393.136,222.834 390.752,223.999 389.437,226.028C387.267,229.379 388.616,234.149 388.898,235.043Z" style="fill:rgb(21,47,71);fill-rule:nonzero;" />
                            </svg:g>
                        </svg:g>
                        <svg:g>
                            <svg:g opacity="0.3">
                                <svg:path d="M408.849,201.321C410.23,202.341 411.328,204.319 411.336,207.697C411.358,215.561 405.277,215.975 405.277,215.975C405.277,215.975 403.752,217.154 401.494,217.139C405.402,219.218 408.499,216.834 408.499,216.834C408.499,216.834 414.58,216.42 414.56,208.557C414.542,202.665 411.222,201.011 408.849,201.321Z" style="fill:rgb(140,35,21);fill-rule:nonzero;" />
                            </svg:g>
                            <svg:g>
                                <svg:g>
                                    <svg:path d="M406.947,202.206C405.265,204.034 404.955,204.783 404.048,205.128C403.14,205.474 402.411,205.12 399.94,204.871C397.469,204.621 393.262,208.783 398.471,214.675C403.68,220.567 408.499,216.835 408.499,216.835C408.499,216.835 414.58,216.421 414.56,208.558C414.538,200.692 408.627,200.379 406.947,202.206Z" style="fill:rgb(193,66,45);fill-rule:nonzero;" />
                                </svg:g>
                                <svg:g>
                                    <svg:path d="M404.737,218.486C402.851,218.487 400.498,217.723 398.095,215.006C394.672,211.134 395.341,208.254 396.044,206.882C396.865,205.281 398.522,204.226 399.989,204.373C400.828,204.457 401.469,204.554 401.985,204.632C402.951,204.778 403.39,204.843 403.869,204.66C404.349,204.477 404.634,204.136 405.257,203.388C405.592,202.987 406.007,202.489 406.578,201.868C407.575,200.784 409.517,200.471 411.194,201.123C412.63,201.681 415.045,203.389 415.058,208.557C415.078,216.09 409.657,217.182 408.681,217.317C408.258,217.601 406.769,218.486 404.737,218.486ZM399.728,205.361C398.827,205.361 397.587,206.066 396.934,207.339C396.347,208.484 395.815,210.917 398.845,214.344C403.688,219.823 408.011,216.581 408.193,216.44L408.311,216.348L408.463,216.337C408.693,216.32 414.077,215.838 414.059,208.56C414.046,203.985 412.033,202.521 410.832,202.056C409.419,201.507 407.934,201.873 407.314,202.546C406.756,203.152 406.351,203.639 406.025,204.03C405.354,204.835 404.949,205.321 404.224,205.597C403.499,205.874 402.872,205.78 401.836,205.623C401.332,205.547 400.707,205.453 399.888,205.371C399.837,205.363 399.783,205.361 399.728,205.361Z" style="fill:rgb(21,47,71);fill-rule:nonzero;" />
                                </svg:g>
                                <svg:g>
                                    <svg:g>
                                        <svg:path d="M402.483,206.873C402.483,206.873 402.789,206.738 403.168,206.565C403.359,206.498 403.567,206.391 403.788,206.333C403.997,206.233 404.23,206.187 404.441,206.094C404.648,206.002 404.888,205.967 405.076,205.865C405.264,205.765 405.512,205.746 405.671,205.646C406.028,205.49 406.376,205.393 406.376,205.393C406.376,205.393 406.359,205.704 406.168,206.163C406.09,206.408 405.871,206.581 405.657,206.799C405.451,207.037 405.137,207.126 404.851,207.272C404.244,207.475 403.601,207.448 403.165,207.279C402.721,207.12 402.483,206.873 402.483,206.873Z" style="fill:rgb(140,35,21);fill-rule:nonzero;" />
                                    </svg:g>
                                    <svg:g>
                                        <svg:g>
                                            <svg:path d="M404.126,206.193C404.126,206.193 398.876,199.222 400.403,190.788C400.403,190.788 400.98,191.571 402.244,191.091C402.244,191.091 400.249,199.758 404.871,205.909L404.126,206.193Z" style="fill:rgb(237,137,110);fill-rule:nonzero;" />
                                        </svg:g>
                                        <svg:g>
                                            <svg:path d="M402.247,191.12C402.178,191.454 401.714,191.638 401.213,191.535C400.709,191.43 400.356,191.079 400.425,190.749C400.493,190.416 400.953,190.232 401.458,190.335C401.963,190.439 402.314,190.79 402.247,191.12Z" style="fill:rgb(229,97,66);fill-rule:nonzero;" />
                                        </svg:g>
                                    </svg:g>
                                </svg:g>
                            </svg:g>
                        </svg:g>
                    </svg:g>
                    <svg:g>
                        <svg:g>
                            <svg:g>
                                <svg:path d="M404.132,265.424C403.848,265.989 403.663,266.602 403.595,267.184C403.513,267.895 404.625,267.888 404.706,267.184C404.889,265.628 405.949,264.332 407.594,264.354C409.26,264.376 410.01,266.253 409.976,267.634C409.958,268.351 411.07,268.349 411.087,267.634C411.143,265.427 409.982,263.218 407.594,263.242C406.801,263.25 406.034,263.527 405.452,263.924C404.619,264.559 404.132,265.424 404.132,265.424Z" style="fill:rgb(21,47,71);fill-rule:nonzero;" />
                            </svg:g>
                            <svg:g>
                                <svg:path d="M432.84,265.424C433.123,265.989 433.308,266.602 433.377,267.184C433.458,267.895 432.346,267.888 432.265,267.184C432.083,265.628 431.022,264.332 429.377,264.354C427.711,264.376 426.962,266.253 426.995,267.634C427.013,268.351 425.902,268.349 425.883,267.634C425.829,265.427 426.99,263.218 429.377,263.242C430.169,263.25 430.937,263.527 431.519,263.924C432.352,264.559 432.84,265.424 432.84,265.424Z" style="fill:rgb(21,47,71);fill-rule:nonzero;" />
                            </svg:g>
                        </svg:g>
                        <svg:g>
                            <svg:g>
                                <svg:path d="M406.492,259.468C406.492,259.468 406.537,259.191 406.779,258.88C406.901,258.724 407.069,258.553 407.298,258.428C407.527,258.297 407.814,258.209 408.114,258.21C408.266,258.205 408.412,258.244 408.556,258.276C408.7,258.305 408.819,258.395 408.94,258.452C409.162,258.6 409.329,258.774 409.431,258.952C409.55,259.109 409.586,259.279 409.625,259.384C409.656,259.494 409.665,259.562 409.665,259.562C409.665,259.562 409.599,259.539 409.494,259.493C409.389,259.45 409.265,259.371 409.103,259.311C408.954,259.237 408.782,259.183 408.613,259.122C408.442,259.093 408.28,259.04 408.109,259.058C407.942,259.037 407.764,259.081 407.586,259.116C407.404,259.155 407.232,259.216 407.068,259.265C406.723,259.386 406.492,259.468 406.492,259.468Z" style="fill:rgb(21,47,71);fill-rule:nonzero;" />
                            </svg:g>
                            <svg:g>
                                <svg:path d="M427.328,259.222C427.328,259.222 427.398,258.952 427.676,258.666C427.812,258.523 427.997,258.372 428.24,258.271C428.478,258.166 428.774,258.106 429.073,258.14C429.224,258.149 429.365,258.206 429.507,258.248C429.647,258.294 429.754,258.396 429.869,258.463C430.074,258.637 430.224,258.827 430.303,259.011C430.407,259.181 430.428,259.353 430.454,259.46C430.474,259.575 430.477,259.641 430.477,259.641C430.477,259.641 430.414,259.613 430.315,259.555C430.215,259.506 430.096,259.411 429.946,259.337C429.8,259.248 429.636,259.172 429.477,259.097C429.307,259.047 429.154,258.98 428.982,258.979C428.815,258.944 428.635,258.969 428.454,258.982C428.271,259.004 428.094,259.047 427.924,259.081C427.564,259.163 427.328,259.222 427.328,259.222Z" style="fill:rgb(21,47,71);fill-rule:nonzero;" />
                            </svg:g>
                        </svg:g>
                        <svg:g>
                            <svg:g>
                                <svg:path d="M416.142,267.884C416.48,268.371 416.972,268.793 417.525,269.016C418.782,269.523 419.915,268.868 420.787,267.964C421.137,267.599 420.585,267.045 420.233,267.407C419.546,268.12 418.681,268.709 417.692,268.237C417.359,268.075 417.022,267.781 416.819,267.487C416.532,267.076 415.852,267.467 416.142,267.884Z" style="fill:rgb(21,47,71);fill-rule:nonzero;" />
                            </svg:g>
                        </svg:g>
                        <svg:g>
                            <svg:g>
                                <svg:path d="M409.15,271.066C409.15,272.469 408.012,273.606 406.609,273.606C405.207,273.606 404.069,272.469 404.069,271.066C404.069,269.664 405.207,268.525 406.609,268.525C408.013,268.525 409.15,269.664 409.15,271.066Z" style="fill:rgb(255,129,206);fill-rule:nonzero;" />
                            </svg:g>
                            <svg:g>
                                <svg:path d="M432.902,271.066C432.902,272.469 431.763,273.606 430.361,273.606C428.957,273.606 427.82,272.469 427.82,271.066C427.82,269.664 428.957,268.525 430.361,268.525C431.764,268.525 432.902,269.664 432.902,271.066Z" style="fill:rgb(255,129,206);fill-rule:nonzero;" />
                            </svg:g>
                        </svg:g>
                    </svg:g>
                </svg:g>
                <svg:g>
                    <svg:g>
                        <svg:path d="M392.888,244.868C392.891,247.875 393.177,250.901 393.552,253.881C394.32,259.978 395.636,266.071 398.024,271.752C399.434,275.105 401.238,278.279 403.627,281.033C404.155,281.642 405.036,280.754 404.511,280.149C400.311,275.307 397.978,269.083 396.464,262.934C395.251,258.005 394.541,252.947 394.247,247.881C394.189,246.879 394.138,245.873 394.137,244.869C394.137,244.064 392.887,244.063 392.888,244.868Z" style="fill:white;fill-rule:nonzero;" />
                    </svg:g>
                    <svg:path d="M407.108,282.568C407.108,283.09 406.684,283.514 406.162,283.514C405.64,283.514 405.216,283.091 405.216,282.568C405.216,282.045 405.639,281.622 406.162,281.622C406.685,281.622 407.108,282.045 407.108,282.568Z" style="fill:white;fill-rule:nonzero;" />
                </svg:g>
            </svg:g>
            <svg:g transform="matrix(0.201385,0,0,0.201385,132.768,890.63)">
                <svg:g>
                    <svg:g>
                        <svg:g>
                            <svg:g>
                                <svg:path d="M440.497,229.072L395.528,229.072C395.528,229.072 387.675,228.341 388.389,238.603C389.103,248.867 395.17,296.885 418.012,296.885C440.855,296.885 446.923,248.866 447.636,238.603C448.351,228.341 440.497,229.072 440.497,229.072Z" style="fill:rgb(179,225,244);fill-rule:nonzero;" />
                            </svg:g>
                            <svg:g>
                                <svg:g>
                                    <svg:path d="M421.403,315.603L421.403,292.602L414.621,292.602L414.621,315.603C407.68,316.244 402.487,318.803 402.487,321.869C402.487,325.418 409.438,325.438 418.011,325.438C426.586,325.438 433.537,325.417 433.537,321.869C433.538,318.804 428.345,316.244 421.403,315.603Z" style="fill:rgb(179,225,244);fill-rule:nonzero;" />
                                </svg:g>
                                <svg:g>
                                    <svg:path d="M418.012,322.582C410.698,322.582 404.578,322.559 402.937,320.35C402.65,320.838 402.488,321.345 402.488,321.87C402.488,325.419 409.439,325.439 418.012,325.439C426.587,325.439 433.538,325.418 433.538,321.87C433.538,321.346 433.376,320.839 433.089,320.35C431.446,322.559 425.328,322.582 418.012,322.582Z" style="fill:rgb(146,213,234);fill-rule:nonzero;" />
                                </svg:g>
                            </svg:g>
                            <svg:g>
                                <svg:path d="M430.983,244.254C422.651,248.315 423.841,250.67 408.366,245.764C402.372,243.864 397.383,243.996 393.513,244.868C394.684,256.564 400.289,291.24 418.012,291.24C437.052,291.24 442.11,251.216 442.703,242.661C442.714,242.514 442.706,242.389 442.712,242.246C438.53,240.67 436.753,241.443 430.983,244.254Z" style="fill:rgb(255,201,226);fill-rule:nonzero;" />
                            </svg:g>
                            <svg:g opacity="0.1">
                                <svg:path d="M440.497,229.072L438.866,229.072C439.085,230.151 439.171,231.43 439.065,232.958C438.351,243.222 432.284,291.24 409.441,291.24C407.902,291.24 406.441,291.015 405.049,290.605C408.613,294.466 412.889,296.885 418.011,296.885C440.854,296.885 446.922,248.866 447.635,238.603C448.351,228.341 440.497,229.072 440.497,229.072Z" style="fill:rgb(193,66,45);fill-rule:nonzero;" />
                            </svg:g>
                            <svg:g>
                                <svg:path d="M418.012,325.939C409.059,325.939 401.988,325.939 401.988,321.87C401.988,318.64 406.954,315.905 414.122,315.151L414.122,296.907C391.809,291.34 387.928,239.168 387.89,238.639C387.636,234.984 388.41,232.25 390.189,230.511C392.441,228.31 395.447,228.565 395.574,228.575L440.498,228.573C440.577,228.563 443.583,228.309 445.838,230.511C447.617,232.249 448.39,234.984 448.136,238.639C448.099,239.175 444.215,291.34 421.905,296.907L421.905,315.151C429.073,315.905 434.04,318.639 434.04,321.87C434.038,325.939 426.966,325.939 418.012,325.939ZM395.227,229.563C394.467,229.563 392.428,229.714 390.879,231.234C389.325,232.758 388.655,235.226 388.888,238.568C389.903,253.173 396.525,291.964 414.73,296.022L415.122,296.11L415.122,316.059L414.668,316.101C407.9,316.725 402.988,319.151 402.988,321.869C402.988,324.938 410.286,324.938 418.012,324.938C425.74,324.938 433.038,324.938 433.038,321.869C433.038,319.151 428.126,316.725 421.357,316.101L420.903,316.059L420.903,296.11L421.295,296.022C439.5,291.964 446.122,253.173 447.137,238.568C447.37,235.226 446.7,232.758 445.147,231.234C443.234,229.356 440.569,229.568 440.543,229.569L395.528,229.571C395.514,229.571 395.405,229.563 395.227,229.563Z" style="fill:rgb(21,47,71);fill-rule:nonzero;" />
                            </svg:g>
                            <svg:path d="M422.089,250.453C422.089,242.482 420.467,235.108 417.717,229.072L395.527,229.072C395.527,229.072 387.674,228.341 388.388,238.603C388.896,245.903 392.114,272.295 402.146,286.933C413.447,284.153 422.089,268.881 422.089,250.453Z" style="fill:white;fill-opacity:0.2;fill-rule:nonzero;" />
                        </svg:g>
                        <svg:g>
                            <svg:g>
                                <svg:g>
                                    <svg:g>
                                        <svg:g transform="matrix(0.7407,-0.6718,0.6718,0.7407,-27.7567,351.223)">
                                            <svg:rect x="421.486" y="209.243" width="39.37" height="4.66" style="fill:rgb(255,183,160);" />
                                        </svg:g>
                                        <svg:g>
                                            <svg:g>
                                                <svg:clipPath id="_clip11">
                                                    <svg:path d="M454.169,196.606L457.299,200.058L428.138,226.507L425.007,223.055L454.169,196.606Z" />
                                                </svg:clipPath>
                                                <svg:g clip-path="url(#_clip11)">
                                                    <svg:g>
                                                        <svg:g transform="matrix(0.3816,-0.9243,0.9243,0.3816,61.5968,534.72)">
                                                            <svg:rect x="428.449" y="206.979" width="3.941" height="28.693" style="fill:rgb(249,153,128);" />
                                                        </svg:g>
                                                        <svg:g transform="matrix(0.3816,-0.9243,0.9243,0.3816,72.1815,537.361)">
                                                            <svg:rect x="435.713" y="200.389" width="3.942" height="28.693" style="fill:rgb(249,153,128);" />
                                                        </svg:g>
                                                    </svg:g>
                                                    <svg:g>
                                                        <svg:g transform="matrix(0.3816,-0.9243,0.9243,0.3816,82.7795,540.015)">
                                                            <svg:rect x="442.98" y="193.799" width="3.941" height="28.692" style="fill:rgb(249,153,128);" />
                                                        </svg:g>
                                                        <svg:g transform="matrix(0.3816,-0.9243,0.9243,0.3816,93.3568,542.647)">
                                                            <svg:rect x="450.246" y="187.209" width="3.941" height="28.693" style="fill:rgb(249,153,128);" />
                                                        </svg:g>
                                                    </svg:g>
                                                </svg:g>
                                            </svg:g>
                                        </svg:g>
                                    </svg:g>
                                    <svg:g opacity="0.3">
                                        <svg:g transform="matrix(0.7408,-0.6717,0.6717,0.7408,-28.1535,351.905)">
                                            <svg:rect x="422.269" y="211.272" width="39.37" height="2.33" style="fill:rgb(232,119,93);" />
                                        </svg:g>
                                    </svg:g>
                                </svg:g>
                                <svg:g>
                                    <svg:path d="M428.121,227.23L424.319,223.038L454.219,195.915L458.023,200.107L428.121,227.23ZM425.731,223.108L428.189,225.819L456.611,200.041L454.151,197.329L425.731,223.108Z" style="fill:rgb(21,47,71);fill-rule:nonzero;" />
                                </svg:g>
                            </svg:g>
                            <svg:g>
                                <svg:g>
                                    <svg:g>
                                        <svg:g transform="matrix(0.297,-0.9549,0.9549,0.297,104.432,564.263)">
                                            <svg:rect x="415.743" y="208.879" width="39.368" height="4.659" style="fill:rgb(255,183,160);" />
                                        </svg:g>
                                        <svg:g>
                                            <svg:g>
                                                <svg:clipPath id="_clip12">
                                                    <svg:path d="M439.058,191.714L443.507,193.098L431.815,230.691L427.366,229.307L439.058,191.714Z" />
                                                </svg:clipPath>
                                                <svg:g clip-path="url(#_clip12)">
                                                    <svg:g>
                                                        <svg:g transform="matrix(0.9901,-0.1405,0.1405,0.9901,-27.3511,62.8194)">
                                                            <svg:rect x="416.769" y="223.098" width="28.693" height="3.941" style="fill:rgb(249,153,128);" />
                                                        </svg:g>
                                                        <svg:g transform="matrix(0.9901,-0.1406,0.1406,0.9901,-26.0107,63.1502)">
                                                            <svg:rect x="419.682" y="213.731" width="28.694" height="3.941" style="fill:rgb(249,153,128);" />
                                                        </svg:g>
                                                    </svg:g>
                                                    <svg:g>
                                                        <svg:g transform="matrix(0.9901,-0.1406,0.1406,0.9901,-24.6658,63.4691)">
                                                            <svg:rect x="422.597" y="204.365" width="28.692" height="3.941" style="fill:rgb(249,153,128);" />
                                                        </svg:g>
                                                        <svg:g transform="matrix(0.9901,-0.1405,0.1405,0.9901,-23.3104,63.7515)">
                                                            <svg:rect x="425.51" y="194.999" width="28.693" height="3.941" style="fill:rgb(249,153,128);" />
                                                        </svg:g>
                                                    </svg:g>
                                                </svg:g>
                                            </svg:g>
                                        </svg:g>
                                    </svg:g>
                                    <svg:g opacity="0.3">
                                        <svg:g transform="matrix(0.2968,-0.9549,0.9549,0.2968,104.956,565.636)">
                                            <svg:rect x="416.856" y="210.389" width="39.368" height="2.329" style="fill:rgb(232,119,93);" />
                                        </svg:g>
                                    </svg:g>
                                </svg:g>
                                <svg:g>
                                    <svg:path d="M432.134,231.321L426.73,229.64L438.722,191.094L444.125,192.775L432.134,231.321ZM427.981,228.982L431.475,230.069L442.872,193.433L439.379,192.346L427.981,228.982Z" style="fill:rgb(21,47,71);fill-rule:nonzero;" />
                                </svg:g>
                            </svg:g>
                        </svg:g>
                        <svg:g>
                            <svg:g>
                                <svg:path d="M388.476,235.357C388.476,235.357 384.083,223.052 396.486,222.065C396.486,222.065 396.421,209.529 408.287,211.466C408.287,211.466 405.206,204.957 413.685,200.356C422.162,195.754 418.487,188.77 418.487,188.77C418.487,188.77 436.168,195.067 430.355,207.176C430.355,207.176 441.063,208.847 439.159,219.561C439.159,219.561 451.162,223.767 447.518,235.142C447.518,235.142 438.349,239.63 416.066,239.63C393.782,239.631 388.476,235.357 388.476,235.357Z" style="fill:rgb(248,229,229);fill-rule:nonzero;" />
                            </svg:g>
                            <svg:g>
                                <svg:g>
                                    <svg:path d="M437.215,220.928C434.017,227.191 427.441,228.189 421.13,226.612C413.451,224.692 406.522,220.42 398.368,221.924C397.614,222.063 397.933,223.21 398.684,223.072C410.823,220.832 430.082,237.502 438.243,221.529C438.591,220.846 437.564,220.243 437.215,220.928Z" style="fill:rgb(234,185,185);fill-rule:nonzero;" />
                                </svg:g>
                            </svg:g>
                            <svg:g>
                                <svg:g>
                                    <svg:path d="M409.477,212.3C414.011,211.889 417.777,214.553 422.118,214.624C425.58,214.68 428.195,211.282 429.831,208.672C430.239,208.02 429.209,207.423 428.803,208.071C426.071,212.432 422.874,214.311 417.757,212.335C415.249,211.367 412.179,210.864 409.478,211.109C408.72,211.179 408.713,212.369 409.477,212.3Z" style="fill:rgb(234,185,185);fill-rule:nonzero;" />
                                </svg:g>
                            </svg:g>
                            <svg:g opacity="0.1">
                                <svg:g>
                                    <svg:path d="M439.157,219.561C441.061,208.847 430.353,207.176 430.353,207.176C436.166,195.067 418.485,188.77 418.485,188.77C418.485,188.77 419.618,190.928 419.171,193.633C424.025,196.795 429.409,202.323 425.671,210.113C425.671,210.113 437.081,211.893 435.052,223.308C435.052,223.308 445.177,226.865 444.663,236.197C446.604,235.587 447.515,235.141 447.515,235.141C451.16,223.768 439.157,219.561 439.157,219.561Z" style="fill:rgb(193,66,45);fill-rule:nonzero;" />
                                </svg:g>
                            </svg:g>
                            <svg:g>
                                <svg:path d="M416.064,240.131C393.861,240.131 388.383,235.926 388.162,235.747L388.052,235.658L388.005,235.525C387.919,235.285 385.937,229.598 388.596,225.488C390.028,223.275 392.517,221.971 395.999,221.607C396.074,220.143 396.568,215.584 399.775,212.844C401.744,211.16 404.363,210.494 407.552,210.86C407.013,208.878 406.445,203.716 413.445,199.917C421.371,195.615 418.181,189.27 418.042,189.002L417.454,187.873L418.653,188.299C419.053,188.442 428.484,191.867 431.269,198.632C432.342,201.237 432.273,203.987 431.066,206.814C432.493,207.157 435.964,208.268 438.117,211.283C439.656,213.437 440.193,216.114 439.716,219.245C441.805,220.125 451.357,224.794 447.993,235.294L447.928,235.497L447.737,235.591C447.357,235.777 438.209,240.131 416.064,240.131ZM388.898,235.043C389.771,235.611 395.999,239.131 416.064,239.131C436.228,239.131 445.681,235.397 447.106,234.779C450.346,224.166 439.46,220.198 438.991,220.033L438.591,219.892L438.665,219.474C439.203,216.448 438.746,213.889 437.309,211.871C434.857,208.43 430.322,207.678 430.277,207.671L429.613,207.566L429.903,206.961C431.23,204.198 431.379,201.525 430.347,199.016C428.257,193.937 421.878,190.752 419.358,189.663C420.041,191.928 420.673,197.132 413.922,200.796C405.983,205.105 408.622,211.005 408.738,211.254L409.138,212.111L408.204,211.96C404.946,211.428 402.328,211.979 400.428,213.601C397.004,216.523 396.985,222.008 396.985,222.063L396.987,222.527L396.525,222.564C393.136,222.834 390.752,223.999 389.437,226.028C387.267,229.379 388.616,234.149 388.898,235.043Z" style="fill:rgb(21,47,71);fill-rule:nonzero;" />
                            </svg:g>
                        </svg:g>
                        <svg:g>
                            <svg:g opacity="0.3">
                                <svg:path d="M408.849,201.321C410.23,202.341 411.328,204.319 411.336,207.697C411.358,215.561 405.277,215.975 405.277,215.975C405.277,215.975 403.752,217.154 401.494,217.139C405.402,219.218 408.499,216.834 408.499,216.834C408.499,216.834 414.58,216.42 414.56,208.557C414.542,202.665 411.222,201.011 408.849,201.321Z" style="fill:rgb(140,35,21);fill-rule:nonzero;" />
                            </svg:g>
                            <svg:g>
                                <svg:g>
                                    <svg:path d="M406.947,202.206C405.265,204.034 404.955,204.783 404.048,205.128C403.14,205.474 402.411,205.12 399.94,204.871C397.469,204.621 393.262,208.783 398.471,214.675C403.68,220.567 408.499,216.835 408.499,216.835C408.499,216.835 414.58,216.421 414.56,208.558C414.538,200.692 408.627,200.379 406.947,202.206Z" style="fill:rgb(193,66,45);fill-rule:nonzero;" />
                                </svg:g>
                                <svg:g>
                                    <svg:path d="M404.737,218.486C402.851,218.487 400.498,217.723 398.095,215.006C394.672,211.134 395.341,208.254 396.044,206.882C396.865,205.281 398.522,204.226 399.989,204.373C400.828,204.457 401.469,204.554 401.985,204.632C402.951,204.778 403.39,204.843 403.869,204.66C404.349,204.477 404.634,204.136 405.257,203.388C405.592,202.987 406.007,202.489 406.578,201.868C407.575,200.784 409.517,200.471 411.194,201.123C412.63,201.681 415.045,203.389 415.058,208.557C415.078,216.09 409.657,217.182 408.681,217.317C408.258,217.601 406.769,218.486 404.737,218.486ZM399.728,205.361C398.827,205.361 397.587,206.066 396.934,207.339C396.347,208.484 395.815,210.917 398.845,214.344C403.688,219.823 408.011,216.581 408.193,216.44L408.311,216.348L408.463,216.337C408.693,216.32 414.077,215.838 414.059,208.56C414.046,203.985 412.033,202.521 410.832,202.056C409.419,201.507 407.934,201.873 407.314,202.546C406.756,203.152 406.351,203.639 406.025,204.03C405.354,204.835 404.949,205.321 404.224,205.597C403.499,205.874 402.872,205.78 401.836,205.623C401.332,205.547 400.707,205.453 399.888,205.371C399.837,205.363 399.783,205.361 399.728,205.361Z" style="fill:rgb(21,47,71);fill-rule:nonzero;" />
                                </svg:g>
                                <svg:g>
                                    <svg:g>
                                        <svg:path d="M402.483,206.873C402.483,206.873 402.789,206.738 403.168,206.565C403.359,206.498 403.567,206.391 403.788,206.333C403.997,206.233 404.23,206.187 404.441,206.094C404.648,206.002 404.888,205.967 405.076,205.865C405.264,205.765 405.512,205.746 405.671,205.646C406.028,205.49 406.376,205.393 406.376,205.393C406.376,205.393 406.359,205.704 406.168,206.163C406.09,206.408 405.871,206.581 405.657,206.799C405.451,207.037 405.137,207.126 404.851,207.272C404.244,207.475 403.601,207.448 403.165,207.279C402.721,207.12 402.483,206.873 402.483,206.873Z" style="fill:rgb(140,35,21);fill-rule:nonzero;" />
                                    </svg:g>
                                    <svg:g>
                                        <svg:g>
                                            <svg:path d="M404.126,206.193C404.126,206.193 398.876,199.222 400.403,190.788C400.403,190.788 400.98,191.571 402.244,191.091C402.244,191.091 400.249,199.758 404.871,205.909L404.126,206.193Z" style="fill:rgb(237,137,110);fill-rule:nonzero;" />
                                        </svg:g>
                                        <svg:g>
                                            <svg:path d="M402.247,191.12C402.178,191.454 401.714,191.638 401.213,191.535C400.709,191.43 400.356,191.079 400.425,190.749C400.493,190.416 400.953,190.232 401.458,190.335C401.963,190.439 402.314,190.79 402.247,191.12Z" style="fill:rgb(229,97,66);fill-rule:nonzero;" />
                                        </svg:g>
                                    </svg:g>
                                </svg:g>
                            </svg:g>
                        </svg:g>
                    </svg:g>
                    <svg:g>
                        <svg:g>
                            <svg:g>
                                <svg:path d="M404.132,265.424C403.848,265.989 403.663,266.602 403.595,267.184C403.513,267.895 404.625,267.888 404.706,267.184C404.889,265.628 405.949,264.332 407.594,264.354C409.26,264.376 410.01,266.253 409.976,267.634C409.958,268.351 411.07,268.349 411.087,267.634C411.143,265.427 409.982,263.218 407.594,263.242C406.801,263.25 406.034,263.527 405.452,263.924C404.619,264.559 404.132,265.424 404.132,265.424Z" style="fill:rgb(21,47,71);fill-rule:nonzero;" />
                            </svg:g>
                            <svg:g>
                                <svg:path d="M432.84,265.424C433.123,265.989 433.308,266.602 433.377,267.184C433.458,267.895 432.346,267.888 432.265,267.184C432.083,265.628 431.022,264.332 429.377,264.354C427.711,264.376 426.962,266.253 426.995,267.634C427.013,268.351 425.902,268.349 425.883,267.634C425.829,265.427 426.99,263.218 429.377,263.242C430.169,263.25 430.937,263.527 431.519,263.924C432.352,264.559 432.84,265.424 432.84,265.424Z" style="fill:rgb(21,47,71);fill-rule:nonzero;" />
                            </svg:g>
                        </svg:g>
                        <svg:g>
                            <svg:g>
                                <svg:path d="M406.492,259.468C406.492,259.468 406.537,259.191 406.779,258.88C406.901,258.724 407.069,258.553 407.298,258.428C407.527,258.297 407.814,258.209 408.114,258.21C408.266,258.205 408.412,258.244 408.556,258.276C408.7,258.305 408.819,258.395 408.94,258.452C409.162,258.6 409.329,258.774 409.431,258.952C409.55,259.109 409.586,259.279 409.625,259.384C409.656,259.494 409.665,259.562 409.665,259.562C409.665,259.562 409.599,259.539 409.494,259.493C409.389,259.45 409.265,259.371 409.103,259.311C408.954,259.237 408.782,259.183 408.613,259.122C408.442,259.093 408.28,259.04 408.109,259.058C407.942,259.037 407.764,259.081 407.586,259.116C407.404,259.155 407.232,259.216 407.068,259.265C406.723,259.386 406.492,259.468 406.492,259.468Z" style="fill:rgb(21,47,71);fill-rule:nonzero;" />
                            </svg:g>
                            <svg:g>
                                <svg:path d="M427.328,259.222C427.328,259.222 427.398,258.952 427.676,258.666C427.812,258.523 427.997,258.372 428.24,258.271C428.478,258.166 428.774,258.106 429.073,258.14C429.224,258.149 429.365,258.206 429.507,258.248C429.647,258.294 429.754,258.396 429.869,258.463C430.074,258.637 430.224,258.827 430.303,259.011C430.407,259.181 430.428,259.353 430.454,259.46C430.474,259.575 430.477,259.641 430.477,259.641C430.477,259.641 430.414,259.613 430.315,259.555C430.215,259.506 430.096,259.411 429.946,259.337C429.8,259.248 429.636,259.172 429.477,259.097C429.307,259.047 429.154,258.98 428.982,258.979C428.815,258.944 428.635,258.969 428.454,258.982C428.271,259.004 428.094,259.047 427.924,259.081C427.564,259.163 427.328,259.222 427.328,259.222Z" style="fill:rgb(21,47,71);fill-rule:nonzero;" />
                            </svg:g>
                        </svg:g>
                        <svg:g>
                            <svg:g>
                                <svg:path d="M416.142,267.884C416.48,268.371 416.972,268.793 417.525,269.016C418.782,269.523 419.915,268.868 420.787,267.964C421.137,267.599 420.585,267.045 420.233,267.407C419.546,268.12 418.681,268.709 417.692,268.237C417.359,268.075 417.022,267.781 416.819,267.487C416.532,267.076 415.852,267.467 416.142,267.884Z" style="fill:rgb(21,47,71);fill-rule:nonzero;" />
                            </svg:g>
                        </svg:g>
                        <svg:g>
                            <svg:g>
                                <svg:path d="M409.15,271.066C409.15,272.469 408.012,273.606 406.609,273.606C405.207,273.606 404.069,272.469 404.069,271.066C404.069,269.664 405.207,268.525 406.609,268.525C408.013,268.525 409.15,269.664 409.15,271.066Z" style="fill:rgb(255,129,206);fill-rule:nonzero;" />
                            </svg:g>
                            <svg:g>
                                <svg:path d="M432.902,271.066C432.902,272.469 431.763,273.606 430.361,273.606C428.957,273.606 427.82,272.469 427.82,271.066C427.82,269.664 428.957,268.525 430.361,268.525C431.764,268.525 432.902,269.664 432.902,271.066Z" style="fill:rgb(255,129,206);fill-rule:nonzero;" />
                            </svg:g>
                        </svg:g>
                    </svg:g>
                </svg:g>
                <svg:g>
                    <svg:g>
                        <svg:path d="M392.888,244.868C392.891,247.875 393.177,250.901 393.552,253.881C394.32,259.978 395.636,266.071 398.024,271.752C399.434,275.105 401.238,278.279 403.627,281.033C404.155,281.642 405.036,280.754 404.511,280.149C400.311,275.307 397.978,269.083 396.464,262.934C395.251,258.005 394.541,252.947 394.247,247.881C394.189,246.879 394.138,245.873 394.137,244.869C394.137,244.064 392.887,244.063 392.888,244.868Z" style="fill:white;fill-rule:nonzero;" />
                    </svg:g>
                    <svg:path d="M407.108,282.568C407.108,283.09 406.684,283.514 406.162,283.514C405.64,283.514 405.216,283.091 405.216,282.568C405.216,282.045 405.639,281.622 406.162,281.622C406.685,281.622 407.108,282.045 407.108,282.568Z" style="fill:white;fill-rule:nonzero;" />
                </svg:g>
            </svg:g>
        </svg:g>
    </g>
</svg>