<?xml version='1.0' encoding='UTF-8'?>
<svg xmlns="http://www.w3.org/2000/svg" xmlns:xlink="http://www.w3.org/1999/xlink" xmlns:svg="http://www.w3.org/2000/svg" xmlns:serif="http://www.serif.com/" height="100%" style="fill-rule:evenodd;clip-rule:evenodd;" version="1.1" viewBox="300.0 50.0 120.0 40.0" width="100%">
    <g>
        <svg:rect x="300" y="50" width="120" height="40" style="fill:rgb(212,251,121);" />
        <svg:g transform="matrix(0.412737,0,0,0.412737,252.231,22.117)">
            <svg:path d="M195.462,146.525L275.798,154.466C277.165,154.601 278.543,154.368 279.789,153.792L320.121,135.136C327.243,131.842 325.454,121.253 317.645,120.481L237.309,112.54C235.942,112.405 234.564,112.638 233.318,113.214L192.986,131.869C185.864,135.164 187.653,145.753 195.462,146.525Z" style="fill:rgb(131,103,104);fill-rule:nonzero;" />
            <svg:path d="M192.986,131.87L233.318,113.215C234.565,112.639 235.943,112.406 237.309,112.541L275.595,116.325L278.138,154.324C277.371,154.485 276.584,154.543 275.797,154.466L195.461,146.525C187.653,145.753 185.864,135.164 192.986,131.87Z" style="fill:rgb(105,83,83);fill-rule:nonzero;" />
            <svg:path d="M273.459,116.113L317.644,120.48C325.452,121.252 327.241,131.841 320.12,135.135L279.788,153.791C278.542,154.368 277.164,154.6 275.797,154.465L272.96,154.184C272.356,143.113 272.626,126.783 273.459,116.113Z" style="fill:rgb(119,93,93);fill-rule:nonzero;" />
            <svg:path d="M195.462,146.525L275.798,154.466C277.165,154.601 278.543,154.368 279.789,153.792L320.121,135.136C327.243,131.842 325.454,121.253 317.645,120.481L237.309,112.54C235.942,112.405 234.564,112.638 233.318,113.214L192.986,131.869C185.864,135.164 187.653,145.753 195.462,146.525Z" style="fill:none;fill-rule:nonzero;stroke-linecap:round;stroke-miterlimit:10;" />
            <svg:path d="M192.986,108.092L233.318,89.437C234.564,88.861 235.942,88.628 237.309,88.763L317.645,96.704C324.404,97.372 325.363,119.551 320.121,121.975L279.789,140.631C278.543,141.207 277.165,141.44 275.798,141.305L195.462,133.364C188.703,132.695 187.744,110.516 192.986,108.092Z" style="fill:rgb(248,232,196);fill-rule:nonzero;" />
            <svg:path d="M278.858,140.987C291.988,130.434 300.638,110.851 305.734,95.525L317.645,96.702C324.404,97.37 325.363,119.549 320.121,121.973L279.789,140.628C279.486,140.77 279.174,140.888 278.858,140.987Z" style="fill:rgb(245,220,163);fill-rule:nonzero;" />
            <svg:path d="M192.986,108.092L233.318,89.437C234.564,88.861 235.942,88.628 237.309,88.763L317.645,96.704C324.404,97.372 325.363,119.551 320.121,121.975L279.789,140.631C278.543,141.207 277.165,141.44 275.798,141.305L195.462,133.364C188.703,132.695 187.744,110.516 192.986,108.092Z" style="fill:none;fill-rule:nonzero;stroke-linecap:round;stroke-miterlimit:10;" />
            <svg:path d="M195.462,110.589L275.798,118.53C277.165,118.665 278.543,118.432 279.789,117.856L320.121,99.2C327.243,95.906 325.454,85.317 317.645,84.545L237.309,76.604C235.942,76.469 234.564,76.702 233.318,77.278L192.986,95.933C185.864,99.228 187.653,109.817 195.462,110.589Z" style="fill:rgb(131,103,104);fill-rule:nonzero;" />
            <svg:path d="M274.911,106.106L275.742,118.525L195.461,110.59C188.673,109.919 186.438,101.832 190.647,97.565C211.918,97.466 274.911,106.106 274.911,106.106Z" style="fill:rgb(105,83,83);fill-rule:nonzero;" />
            <svg:path d="M274.911,106.106C277.027,100.678 306.192,90.365 321.435,85.943C325.809,89.095 325.883,96.535 320.12,99.201L279.788,117.857C278.542,118.433 277.164,118.666 275.797,118.531L273.302,118.284C273.696,112.382 274.247,107.811 274.911,106.106Z" style="fill:rgb(119,93,93);fill-rule:nonzero;" />
            <svg:path d="M195.462,110.589L275.798,118.53C277.165,118.665 278.543,118.432 279.789,117.856L320.121,99.2C327.243,95.906 325.454,85.317 317.645,84.545L237.309,76.604C235.942,76.469 234.564,76.702 233.318,77.278L192.986,95.933C185.864,99.228 187.653,109.817 195.462,110.589Z" style="fill:none;fill-rule:nonzero;stroke-linecap:round;stroke-miterlimit:10;" />
            <svg:path d="M254.568,132.409C256.053,132.409 257.257,131.205 257.257,129.72L257.257,122.708C257.257,121.223 256.053,120.02 254.568,120.02C253.083,120.02 251.88,121.224 251.88,122.708L251.88,129.72C251.879,131.205 253.083,132.409 254.568,132.409Z" style="fill:rgb(91,21,64);fill-rule:nonzero;" />
            <svg:path d="M210.831,128.339C212.316,128.339 213.519,127.135 213.519,125.651L213.519,118.639C213.519,117.154 212.315,115.951 210.831,115.951C209.346,115.951 208.143,117.155 208.143,118.639L208.143,125.651C208.142,127.136 209.346,128.339 210.831,128.339Z" style="fill:rgb(91,21,64);fill-rule:nonzero;" />
            <svg:path d="M232.887,120.46C232.887,120.46 228.296,117.352 226.838,120.785C225.38,124.218 230.231,125.81 230.231,125.81C230.231,125.81 226.13,125.824 227.129,129.289C228.128,132.754 232.972,131.096 232.972,131.096" style="fill:none;fill-rule:nonzero;stroke-linecap:round;stroke-linejoin:round;stroke-miterlimit:10;" />
        </svg:g>
    </g>
</svg>