<?xml version='1.0' encoding='UTF-8'?>
<svg xmlns="http://www.w3.org/2000/svg" xmlns:xlink="http://www.w3.org/1999/xlink" xmlns:svg="http://www.w3.org/2000/svg" xmlns:serif="http://www.serif.com/" height="100%" style="fill-rule:evenodd;clip-rule:evenodd;" version="1.1" viewBox="300.0 150.0 120.0 80.0" width="100%">
    <g>
        <svg:rect x="300" y="150" width="120" height="80" style="fill:rgb(212,251,121);" />
        <svg:g>
            <svg:g transform="matrix(0.551279,0,0,0.551279,193.808,42.0476)">
                <svg:g>
                    <svg:g>
                        <svg:g>
                            <svg:g>
                                <svg:rect x="205.169" y="245.349" width="52.373" height="66.083" style="fill:rgb(248,229,229);" />
                            </svg:g>
                            <svg:g>
                                <svg:path d="M271.288,217.182L257.542,245.349L257.542,311.431L283.932,289.906L283.932,231.654L271.288,217.182Z" style="fill:rgb(248,229,229);fill-rule:nonzero;" />
                            </svg:g>
                            <svg:g>
                                <svg:rect x="218.915" y="208.004" width="52.373" height="9.178" style="fill:rgb(248,229,229);" />
                            </svg:g>
                            <svg:g>
                                <svg:path d="M205.169,275.044C205.169,275.044 213.543,270.324 230.594,276.11C247.646,281.895 255.41,276.136 257.542,273.23L257.542,245.349L205.169,245.349L205.169,275.044Z" style="fill:rgb(179,225,244);fill-rule:nonzero;" />
                            </svg:g>
                            <svg:g>
                                <svg:path d="M257.542,273.23C257.542,273.23 259.572,265.293 267.286,264.307C275,263.321 274.797,267.831 283.932,263.445L283.932,231.654L271.288,217.183L257.542,245.349L257.542,273.23Z" style="fill:rgb(137,214,232);fill-rule:nonzero;" />
                            </svg:g>
                            <svg:g opacity="0.2">
                                <svg:path d="M248.773,245.349C250.685,252.114 253.668,259.588 253.668,267.456C253.668,285.454 248.114,301.427 239.534,311.431L257.542,311.431L257.542,245.348L248.773,245.348L248.773,245.349Z" style="fill:rgb(211,161,161);fill-rule:nonzero;" />
                            </svg:g>
                            <svg:g>
                                <svg:g>
                                    <svg:path d="M271.288,217.182L218.915,217.182L205.169,245.349L257.542,245.349L271.288,217.182Z" style="fill:rgb(158,222,242);fill-rule:nonzero;" />
                                </svg:g>
                            </svg:g>
                            <svg:g opacity="0.25">
                                <svg:path d="M207.632,240.301C210.351,241.145 213.331,241.613 216.458,241.613C229.202,241.613 239.534,233.874 239.534,224.327C239.534,221.778 238.791,219.36 237.469,217.181L218.914,217.181L207.632,240.301Z" style="fill:white;fill-rule:nonzero;" />
                            </svg:g>
                            <svg:g opacity="0.25">
                                <svg:path d="M205.169,292.927C205.769,292.978 206.372,293.012 206.983,293.012C220.268,293.012 231.038,280.809 231.038,265.757C231.038,257.632 227.897,250.343 222.92,245.349L205.169,245.349L205.169,292.927Z" style="fill:white;fill-rule:nonzero;" />
                            </svg:g>
                        </svg:g>
                        <svg:g>
                            <svg:g>
                                <svg:path d="M247.747,262.491L246.784,261.528L247.779,260.512C248.489,259.759 248.834,258.946 248.805,258.088C248.774,257.228 248.347,256.421 247.586,255.734C247.104,255.272 246.61,254.973 246.068,254.817C245.36,254.615 244.604,254.686 243.944,255.017C243.697,255.14 243.46,255.297 243.219,255.5C243.19,255.477 243.16,255.455 243.131,255.433C242.578,255.031 241.881,254.835 240.998,254.835C240.125,254.835 239.431,255.026 238.882,255.417C238.255,255.861 237.832,256.514 237.691,257.254C237.631,257.568 237.6,257.893 237.6,258.221L237.6,261.825C237.458,261.813 237.322,261.79 237.175,261.79L236.277,261.79L236.277,258.233C236.277,257.898 236.247,257.568 236.186,257.254C236.047,256.526 235.636,255.881 235.025,255.434C234.472,255.032 233.775,254.836 232.892,254.836C232.019,254.836 231.326,255.027 230.776,255.418C230.764,255.426 230.755,255.438 230.743,255.446C230.738,255.442 230.734,255.438 230.729,255.434C230.176,255.032 229.479,254.836 228.596,254.836C227.769,254.836 227.108,255.014 226.57,255.365C226.289,255.185 225.98,255.045 225.627,254.961L225.276,254.895C224.713,254.814 224.058,254.839 223.601,254.933C223.18,255.02 222.803,255.179 222.466,255.416C222.261,255.562 222.068,255.737 221.876,255.948L220.925,257.161L220.071,256.064L219.986,255.961C219.873,255.833 219.764,255.721 219.651,255.616C219.334,255.324 218.936,255.11 218.469,254.981C218.143,254.891 217.771,254.849 217.296,254.849C217.041,254.849 216.801,254.865 216.575,254.898L216.225,254.965C215.829,255.061 215.482,255.216 215.178,255.433C214.555,255.876 214.134,256.522 213.991,257.252C213.93,257.565 213.899,257.892 213.899,258.222L213.899,264.818C213.899,265.162 213.929,265.496 213.99,265.81C214.134,266.563 214.567,267.22 215.211,267.661C215.757,268.034 216.43,268.216 217.272,268.216C218.128,268.216 218.81,268.035 219.358,267.661C219.96,267.249 220.379,266.647 220.549,265.949C220.798,265.972 221.064,265.972 221.312,265.949C221.48,266.627 221.885,267.22 222.466,267.632C223.019,268.025 223.708,268.216 224.572,268.216C225.391,268.216 226.046,268.046 226.581,267.704C227.116,268.052 227.77,268.228 228.586,268.228C229.459,268.228 230.152,268.037 230.701,267.646C230.715,267.636 230.725,267.623 230.739,267.613C230.752,267.622 230.762,267.635 230.775,267.644C231.327,268.037 232.016,268.228 232.881,268.228L237.163,268.228C237.466,268.228 237.767,268.199 238.073,268.139C238.42,268.068 238.748,267.931 239.042,267.739C239.566,268.062 240.2,268.228 240.985,268.228C241.858,268.228 242.551,268.037 243.104,267.644C243.144,267.615 243.184,267.586 243.222,267.555C243.407,267.718 243.595,267.855 243.788,267.968C244.228,268.226 244.718,268.357 245.217,268.357C245.484,268.357 245.755,268.32 246.023,268.243C246.491,268.108 246.956,267.852 247.478,267.435C248.3,266.753 248.755,265.969 248.83,265.099C248.885,264.458 248.741,263.485 247.747,262.491Z" style="fill:rgb(234,167,167);fill-rule:nonzero;" />
                            </svg:g>
                            <svg:g>
                                <svg:g>
                                    <svg:path d="M217.273,265.993C216.898,265.993 216.629,265.937 216.468,265.826C216.306,265.715 216.208,265.571 216.174,265.391C216.14,265.212 216.123,265.02 216.123,264.815L216.123,258.219C216.123,258.031 216.14,257.85 216.174,257.675C216.208,257.5 216.306,257.356 216.468,257.241C216.63,257.126 216.907,257.068 217.299,257.068C217.563,257.068 217.757,257.085 217.881,257.12C218.005,257.154 218.094,257.196 218.149,257.247C218.204,257.299 218.262,257.358 218.322,257.426L220.968,260.826L220.892,260.826L223.525,257.439C223.61,257.345 223.689,257.273 223.762,257.221C223.835,257.17 223.933,257.131 224.056,257.106C224.18,257.081 224.357,257.068 224.587,257.068C224.97,257.068 225.243,257.126 225.405,257.241C225.567,257.356 225.665,257.503 225.699,257.682C225.733,257.861 225.75,258.048 225.75,258.244L225.75,264.84C225.75,265.028 225.733,265.211 225.699,265.39C225.665,265.569 225.567,265.714 225.405,265.825C225.243,265.936 224.966,265.992 224.574,265.992C224.191,265.992 223.918,265.934 223.756,265.819C223.594,265.704 223.496,265.555 223.462,265.372C223.428,265.189 223.411,265.003 223.411,264.815L223.411,261.185L221.916,263.217C221.882,263.26 221.831,263.324 221.762,263.409C221.694,263.494 221.596,263.571 221.468,263.639C221.34,263.707 221.161,263.742 220.931,263.742C220.701,263.742 220.52,263.708 220.388,263.639C220.256,263.571 220.155,263.496 220.087,263.415C220.019,263.334 219.968,263.268 219.934,263.217L218.451,261.198L218.451,264.841C218.451,265.029 218.434,265.212 218.4,265.391C218.366,265.57 218.268,265.715 218.106,265.826C217.942,265.937 217.665,265.993 217.273,265.993Z" style="fill:rgb(248,229,229);fill-rule:nonzero;" />
                                </svg:g>
                                <svg:g>
                                    <svg:path d="M228.586,266.005C228.203,266.005 227.929,265.948 227.768,265.833C227.606,265.718 227.508,265.569 227.474,265.385C227.44,265.202 227.423,265.017 227.423,264.829L227.423,258.22C227.423,258.032 227.44,257.849 227.474,257.67C227.508,257.491 227.606,257.344 227.768,257.229C227.93,257.114 228.207,257.056 228.599,257.056C228.991,257.056 229.266,257.114 229.423,257.229C229.581,257.344 229.676,257.491 229.71,257.67C229.744,257.849 229.762,258.037 229.762,258.233L229.762,264.842C229.762,265.03 229.745,265.213 229.71,265.392C229.676,265.571 229.578,265.718 229.416,265.833C229.255,265.948 228.978,266.005 228.586,266.005Z" style="fill:rgb(248,229,229);fill-rule:nonzero;" />
                                </svg:g>
                                <svg:g>
                                    <svg:path d="M232.881,266.005C232.498,266.005 232.225,265.948 232.063,265.833C231.901,265.718 231.803,265.569 231.769,265.385C231.735,265.202 231.718,265.017 231.718,264.829L231.718,258.22C231.718,258.032 231.735,257.849 231.769,257.67C231.803,257.491 231.901,257.344 232.063,257.229C232.225,257.114 232.502,257.056 232.894,257.056C233.286,257.056 233.561,257.114 233.719,257.229C233.876,257.344 233.972,257.491 234.006,257.67C234.04,257.849 234.057,258.037 234.057,258.233L234.057,264.011L237.177,264.011C237.339,264.011 237.494,264.024 237.643,264.049C237.792,264.075 237.916,264.158 238.013,264.299C238.111,264.44 238.16,264.676 238.16,265.009C238.16,265.333 238.109,265.565 238.007,265.706C237.905,265.847 237.779,265.932 237.629,265.962C237.48,265.991 237.324,266.006 237.163,266.006L232.881,266.006L232.881,266.005Z" style="fill:rgb(248,229,229);fill-rule:nonzero;" />
                                </svg:g>
                                <svg:g>
                                    <svg:path d="M240.986,266.005C240.602,266.005 240.33,265.948 240.168,265.833C240.006,265.718 239.908,265.569 239.874,265.385C239.84,265.202 239.823,265.017 239.823,264.829L239.823,258.22C239.823,258.032 239.84,257.849 239.874,257.67C239.908,257.491 240.006,257.344 240.168,257.229C240.33,257.114 240.607,257.056 240.999,257.056C241.391,257.056 241.666,257.114 241.823,257.229C241.981,257.344 242.076,257.491 242.111,257.67C242.145,257.849 242.162,258.037 242.162,258.233L242.162,259.997L244.386,257.453C244.582,257.24 244.765,257.091 244.936,257.006C245.106,256.921 245.281,256.904 245.46,256.954C245.639,257.006 245.835,257.133 246.048,257.337C246.397,257.653 246.576,257.93 246.585,258.168C246.593,258.407 246.453,258.68 246.163,258.987L243.658,261.543L246.176,264.061C246.491,264.376 246.638,264.66 246.617,264.911C246.595,265.163 246.41,265.433 246.061,265.723C245.805,265.927 245.588,266.055 245.409,266.106C245.23,266.157 245.064,266.138 244.911,266.049C244.757,265.959 244.587,265.804 244.399,265.582L242.162,263.038L242.162,264.84C242.162,265.028 242.145,265.211 242.111,265.39C242.077,265.569 241.979,265.716 241.817,265.831C241.655,265.948 241.378,266.005 240.986,266.005Z" style="fill:rgb(248,229,229);fill-rule:nonzero;" />
                                </svg:g>
                            </svg:g>
                        </svg:g>
                        <svg:g>
                            <svg:g>
                                <svg:path d="M261.852,263.223C261.852,263.223 264.302,264.896 263.498,268.798C262.694,272.701 260.967,276.675 264.522,276.225C268.077,275.775 263.362,263.436 265.784,261.969L261.852,263.223Z" style="fill:rgb(137,214,232);fill-rule:nonzero;" />
                            </svg:g>
                            <svg:g>
                                <svg:path d="M266.397,263.646C266.397,263.646 269.054,265.794 268.599,271.105C268.009,277.993 267.526,283.043 271.882,281.041C277.214,278.591 268.416,263.932 271.656,261.97L266.397,263.646Z" style="fill:rgb(137,214,232);fill-rule:nonzero;" />
                            </svg:g>
                        </svg:g>
                        <svg:g>
                            <svg:path d="M258.042,311.932L204.669,311.932L204.669,244.849L258.042,244.849L258.042,311.932ZM205.669,310.932L257.042,310.932L257.042,245.849L205.669,245.849L205.669,310.932Z" style="fill:rgb(21,47,71);fill-rule:nonzero;" />
                        </svg:g>
                        <svg:g>
                            <svg:path d="M257.854,245.849L204.368,245.849L218.601,216.683L272.088,216.683L257.854,245.849ZM205.969,244.849L257.229,244.849L270.487,217.683L219.227,217.683L205.969,244.849Z" style="fill:rgb(21,47,71);fill-rule:nonzero;" />
                        </svg:g>
                        <svg:g>
                            <svg:path d="M271.788,217.683L218.414,217.683L218.414,207.505L271.788,207.505L271.788,217.683ZM219.415,216.683L270.789,216.683L270.789,208.505L219.415,208.505L219.415,216.683Z" style="fill:rgb(21,47,71);fill-rule:nonzero;" />
                        </svg:g>
                        <svg:g>
                            <svg:path d="M257.042,312.484L257.042,245.232L257.093,245.128L271.169,216.285L284.432,231.464L284.432,290.142L284.248,290.292L257.042,312.484ZM258.042,245.464L258.042,310.379L283.432,289.669L283.432,231.841L271.408,218.079L258.042,245.464Z" style="fill:rgb(21,47,71);fill-rule:nonzero;" />
                        </svg:g>
                        <svg:g transform="matrix(0.8875,-0.4609,0.4609,0.8875,-79.452,151.617)">
                            <svg:rect x="255.871" y="238.001" width="29.732" height="1" style="fill:rgb(21,47,71);" />
                        </svg:g>
                        <svg:g>
                            <svg:path d="M272.049,254.641L257.42,247.326L257.867,246.431L271.658,253.326L283.5,233.025L284.363,233.529L272.049,254.641Z" style="fill:rgb(21,47,71);fill-rule:nonzero;" />
                        </svg:g>
                        <svg:g>
                            <svg:rect x="271.353" y="253.983" width="1" height="45.774" style="fill:rgb(21,47,71);" />
                        </svg:g>
                    </svg:g>
                    <svg:g>
                        <svg:g>
                            <svg:g>
                                <svg:path d="M219.769,222.978C217.469,227.682 215.169,232.387 212.869,237.091C212.539,237.766 212.209,238.441 211.879,239.117C211.542,239.806 212.573,240.413 212.912,239.721C215.212,235.017 217.512,230.312 219.812,225.608C220.142,224.933 220.472,224.258 220.802,223.582C221.139,222.893 220.108,222.286 219.769,222.978Z" style="fill:white;fill-rule:nonzero;" />
                            </svg:g>
                        </svg:g>
                        <svg:g>
                            <svg:g>
                                <svg:g>
                                    <svg:path d="M207.92,248.401L207.92,262.864C207.92,263.634 209.116,263.635 209.116,262.864L209.116,248.401C209.116,247.631 207.92,247.63 207.92,248.401Z" style="fill:white;fill-rule:nonzero;" />
                                </svg:g>
                            </svg:g>
                            <svg:g>
                                <svg:circle cx="208.518" cy="265.148" r="0.533" style="fill:white;" />
                            </svg:g>
                        </svg:g>
                    </svg:g>
                </svg:g>
                <svg:g>
                    <svg:g>
                        <svg:g>
                            <svg:g>
                                <svg:g>
                                    <svg:path d="M220.286,290.71C220.286,293.972 218.52,296.616 216.341,296.616C214.162,296.616 212.396,293.972 212.396,290.71C212.396,287.448 214.162,284.804 216.341,284.804C218.519,284.804 220.286,287.448 220.286,290.71Z" style="fill:rgb(21,47,71);fill-rule:nonzero;" />
                                </svg:g>
                                <svg:g>
                                    <svg:g>
                                        <svg:path d="M217.146,288.288C217.146,289.193 216.413,289.926 215.508,289.926C214.603,289.926 213.87,289.193 213.87,288.288C213.87,287.383 214.603,286.65 215.508,286.65C216.413,286.65 217.146,287.383 217.146,288.288Z" style="fill:white;fill-rule:nonzero;" />
                                    </svg:g>
                                    <svg:g>
                                        <svg:circle cx="217.733" cy="290.895" r="1.078" style="fill:white;" />
                                    </svg:g>
                                </svg:g>
                            </svg:g>
                            <svg:g>
                                <svg:g>
                                    <svg:path d="M250.316,290.71C250.316,293.972 248.55,296.616 246.371,296.616C244.192,296.616 242.426,293.972 242.426,290.71C242.426,287.448 244.192,284.804 246.371,284.804C248.549,284.804 250.316,287.448 250.316,290.71Z" style="fill:rgb(21,47,71);fill-rule:nonzero;" />
                                </svg:g>
                                <svg:g>
                                    <svg:g>
                                        <svg:path d="M247.176,288.288C247.176,289.193 246.443,289.926 245.538,289.926C244.633,289.926 243.9,289.193 243.9,288.288C243.9,287.383 244.633,286.65 245.538,286.65C246.442,286.65 247.176,287.383 247.176,288.288Z" style="fill:white;fill-rule:nonzero;" />
                                    </svg:g>
                                    <svg:g>
                                        <svg:path d="M248.841,290.895C248.841,291.49 248.358,291.973 247.763,291.973C247.168,291.973 246.685,291.49 246.685,290.895C246.685,290.3 247.168,289.817 247.763,289.817C248.358,289.817 248.841,290.299 248.841,290.895Z" style="fill:white;fill-rule:nonzero;" />
                                    </svg:g>
                                </svg:g>
                            </svg:g>
                        </svg:g>
                        <svg:g>
                            <svg:path d="M236.862,293.132C236.811,294.636 236.097,296.479 234.357,296.582C232.627,296.684 231.898,294.478 231.852,293.132C231.841,292.827 231.592,292.681 231.355,292.688C231.118,292.681 230.869,292.827 230.859,293.132C230.808,294.636 230.093,296.479 228.354,296.582C226.622,296.684 225.895,294.478 225.849,293.132C225.828,292.537 224.903,292.535 224.923,293.132C224.993,295.184 226.08,297.373 228.354,297.507C229.846,297.595 230.83,296.466 231.349,295.159C231.862,296.42 232.844,297.418 234.356,297.507C236.623,297.642 237.724,294.972 237.786,293.132C237.808,292.535 236.882,292.537 236.862,293.132Z" style="fill:rgb(21,47,71);fill-rule:nonzero;" />
                        </svg:g>
                    </svg:g>
                    <svg:g>
                        <svg:g>
                            <svg:path d="M217.569,297.467C217.265,298.265 215.168,298.205 212.885,297.334C210.602,296.463 208.999,295.111 209.303,294.313C209.607,293.515 211.704,293.575 213.987,294.446C216.27,295.317 217.874,296.67 217.569,297.467Z" style="fill:rgb(255,129,206);fill-rule:nonzero;" />
                        </svg:g>
                        <svg:g>
                            <svg:path d="M245.142,297.467C245.446,298.265 247.543,298.205 249.826,297.334C252.109,296.463 253.712,295.111 253.408,294.313C253.104,293.515 251.007,293.575 248.724,294.446C246.441,295.317 244.837,296.67 245.142,297.467Z" style="fill:rgb(255,129,206);fill-rule:nonzero;" />
                        </svg:g>
                    </svg:g>
                </svg:g>
            </svg:g>
            <svg:g transform="matrix(0.365989,0,0,0.365989,294.588,49.1439)">
                <svg:path d="M243.299,451.181C243.299,451.181 277.071,449.135 278.463,460.388C279.856,471.642 257.225,477.78 235.291,476.501C213.357,475.222 208.366,468.573 208.831,461.411C209.295,454.25 243.299,451.181 243.299,451.181Z" style="fill:rgb(186,154,197);fill-rule:nonzero;stroke-linecap:round;stroke-linejoin:round;stroke-miterlimit:10;" />
                <svg:path d="M243.408,447.228C243.408,447.228 264.172,445.687 265.028,454.164C265.884,462.641 251.97,467.264 238.484,466.301C224.998,465.338 221.93,460.329 222.215,454.934C222.501,449.54 243.408,447.228 243.408,447.228Z" style="fill:rgb(195,82,78);fill-rule:nonzero;stroke-linecap:round;stroke-linejoin:round;stroke-miterlimit:10;" />
                <svg:path d="M310.603,384.955C310.603,384.955 320.988,381.278 327.759,389.085C334.529,396.892 328.206,410.359 316.002,421.997C309.076,428.602 308.558,431.556 308.902,434.182C309.768,440.802 301.073,443.297 299.071,436.972C298.431,434.95 298.338,432.376 299.093,429.306C301.585,419.162 315.409,411.811 317.224,402.135C319.038,392.459 307.448,396.538 307.448,396.538" style="fill:rgb(195,82,78);fill-rule:nonzero;stroke-linecap:round;stroke-linejoin:round;stroke-miterlimit:10;" />
                <svg:path d="M173.877,371.702C173.877,371.702 168.694,459.851 243.632,459.851C318.57,459.851 313.452,370.695 313.452,370.695L173.877,371.702Z" style="fill:rgb(186,154,197);fill-rule:nonzero;stroke-linecap:round;stroke-linejoin:round;stroke-miterlimit:10;" />
                <svg:g>
                    <svg:path id="XMLID_00000063593087430619676090000014494771010304135848_" d="M244.362,380.768C244.362,380.768 176.668,382.783 173.877,371.701C171.085,360.619 216.447,354.575 260.413,355.834C304.379,357.093 314.382,363.642 313.452,370.693C312.521,377.746 244.362,380.768 244.362,380.768Z" style="fill:rgb(186,154,197);fill-rule:nonzero;" />
                    <svg:clipPath id="_clip31">
                        <svg:path d="M244.362,380.768C244.362,380.768 176.668,382.783 173.877,371.701C171.085,360.619 216.447,354.575 260.413,355.834C304.379,357.093 314.382,363.642 313.452,370.693C312.521,377.746 244.362,380.768 244.362,380.768Z" />
                    </svg:clipPath>
                    <svg:g clip-path="url(#_clip31)">
                        <svg:path d="M245.26,390.904C245.26,390.904 177.566,392.919 174.775,381.837C171.983,370.755 217.345,364.711 261.311,365.97C305.277,367.229 315.28,373.778 314.349,380.829C313.42,387.882 245.26,390.904 245.26,390.904Z" style="fill:rgb(109,72,47);fill-rule:nonzero;" />
                    </svg:g>
                    <svg:path id="XMLID_00000063593087430619676090000014494771010304135848_1" serif:id="XMLID_00000063593087430619676090000014494771010304135848_" d="M244.362,380.768C244.362,380.768 176.668,382.783 173.877,371.701C171.085,360.619 216.447,354.575 260.413,355.834C304.379,357.093 314.382,363.642 313.452,370.693C312.521,377.746 244.362,380.768 244.362,380.768Z" style="fill:none;fill-rule:nonzero;stroke-linecap:round;stroke-linejoin:round;stroke-miterlimit:10;" />
                </svg:g>
                <svg:g>
                    <svg:ellipse cx="221.571" cy="406.98" rx="3.665" ry="6.169" style="fill:rgb(84,57,43);" />
                    <svg:ellipse cx="264.105" cy="406.98" rx="3.665" ry="6.169" style="fill:rgb(84,57,43);" />
                    <svg:path d="M235.842,413.116C238.239,419.715 248.361,419.715 250.757,413.116L235.842,413.116Z" style="fill:rgb(195,82,78);fill-rule:nonzero;stroke-linecap:round;stroke-linejoin:round;stroke-miterlimit:10;" />
                    <svg:ellipse cx="207.217" cy="413.148" rx="7.67" ry="6.376" style="fill:rgb(255,136,185);" />
                    <svg:ellipse cx="278.458" cy="413.148" rx="7.67" ry="6.376" style="fill:rgb(255,136,185);" />
                </svg:g>
                <svg:g opacity="0.3">
                    <svg:path d="M181.254,385.516C189.654,410.173 198.327,430.112 219.106,446.921C219.216,446.99 219.271,447.157 219.171,447.262C219.106,447.338 218.998,447.358 218.912,447.316C201.48,439.184 189.756,422.208 184.422,404.112C182.582,398.068 181.28,391.857 180.815,385.542C180.806,385.423 180.895,385.32 181.014,385.311C181.147,385.308 181.226,385.396 181.254,385.516Z" style="fill:white;fill-rule:nonzero;" />
                </svg:g>
                <svg:path d="M188.981,386.655C188.981,386.655 215.885,393.017 255.206,386.894" style="fill:none;fill-rule:nonzero;stroke-linecap:round;stroke-linejoin:round;stroke-miterlimit:10;" />
                <svg:path d="M298.558,419.524C298.558,419.524 290.389,438.46 274.867,445.445" style="fill:none;fill-rule:nonzero;stroke-linecap:round;stroke-linejoin:round;stroke-miterlimit:10;" />
            </svg:g>
        </svg:g>
    </g>
</svg>