<?xml version='1.0' encoding='UTF-8'?>
<svg xmlns="http://www.w3.org/2000/svg" xmlns:xlink="http://www.w3.org/1999/xlink" xmlns:svg="http://www.w3.org/2000/svg" xmlns:serif="http://www.serif.com/" height="100%" style="fill-rule:evenodd;clip-rule:evenodd;" version="1.1" viewBox="335.0 620.0 50.0 100.0" width="100%">
    <g>
        <svg:rect x="335" y="620" width="50" height="100" style="fill:rgb(255,64,255);" />
        <svg:g transform="matrix(0.692694,0,0,0.692694,148.093,597.195)">
            <svg:g>
                <svg:g>
                    <svg:g>
                        <svg:g>
                            <svg:g>
                                <svg:path d="M304.905,92.678C294.449,92.678 285.02,90.88 278.323,88.711C279.488,101.434 284.705,158.695 285.286,161.995C285.94,165.713 290.845,165.798 290.845,165.798L318.964,165.798C318.964,165.798 323.869,165.713 324.524,161.995C325.104,158.695 330.323,101.434 331.486,88.712C324.789,90.88 315.36,92.678 304.905,92.678Z" style="fill:rgb(195,197,244);fill-rule:nonzero;" />
                            </svg:g>
                            <svg:g>
                                <svg:path d="M319.85,91.467C321.747,97.591 322.808,104.348 322.808,111.454C322.808,139.12 306.85,161.548 287.166,161.548C286.51,161.548 285.858,161.519 285.21,161.47C285.241,161.703 285.266,161.883 285.286,161.995C285.94,165.713 290.845,165.798 290.845,165.798L318.964,165.798C318.964,165.798 323.869,165.713 324.524,161.995C325.104,158.695 330.323,101.434 331.486,88.712C328.199,89.775 324.25,90.749 319.85,91.467Z" style="fill:rgb(182,187,239);fill-rule:nonzero;" />
                            </svg:g>
                            <svg:path d="M304.047,114.904C304.047,105.748 301.208,97.596 296.786,92.317C289.613,91.688 283.233,90.301 278.324,88.711C279.091,97.085 281.613,124.754 283.413,143.631C283.904,143.688 284.399,143.726 284.9,143.726C295.474,143.726 304.047,130.822 304.047,114.904Z" style="fill:white;fill-opacity:0.2;fill-rule:nonzero;" />
                        </svg:g>
                        <svg:g>
                            <svg:path d="M318.974,166.298L290.845,166.298C288.997,166.266 285.368,165.344 284.794,162.082C284.248,158.984 279.631,108.499 278.113,91.909L277.756,88.002L278.478,88.235C283.024,89.707 292.503,92.177 304.906,92.177C317.306,92.177 326.785,89.707 331.332,88.236L332.054,88.003L331.803,90.74C330.263,107.601 325.574,158.911 325.017,162.082C324.443,165.344 320.813,166.267 318.974,166.298ZM278.89,89.415L279.11,91.817C280.627,108.397 285.241,158.851 285.779,161.908C286.353,165.171 290.809,165.297 290.855,165.298L318.964,165.298C319,165.297 323.457,165.172 324.031,161.909C324.396,159.831 326.676,135.856 330.806,90.649L330.918,89.416C326.078,90.919 316.82,93.178 304.904,93.178C292.987,93.178 283.729,90.919 278.89,89.415Z" style="fill:rgb(21,47,71);fill-rule:nonzero;" />
                        </svg:g>
                    </svg:g>
                    <svg:g>
                        <svg:g>
                            <svg:g>
                                <svg:path d="M278.323,82.033C278.323,82.033 282.098,57.284 304.905,57.284C327.713,57.284 331.485,82.033 331.485,82.033C331.485,82.033 304.469,95.978 278.323,82.033Z" style="fill:rgb(195,197,244);fill-rule:nonzero;" />
                            </svg:g>
                            <svg:g>
                                <svg:path d="M294.623,61.361C315.975,61.361 320.644,83.05 321.152,85.819C327.512,84.078 331.485,82.033 331.485,82.033C331.485,82.033 327.713,57.284 304.905,57.284C298.795,57.284 294.059,59.069 290.389,61.671C291.723,61.473 293.13,61.361 294.623,61.361Z" style="fill:rgb(182,187,239);fill-rule:nonzero;" />
                            </svg:g>
                        </svg:g>
                        <svg:g>
                            <svg:ellipse cx="304.047" cy="64.597" rx="7.234" ry="3.078" style="fill:rgb(150,157,234);" />
                        </svg:g>
                        <svg:g>
                            <svg:g>
                                <svg:g>
                                    <svg:path d="M305.71,67.591L309.665,40.367L304.325,39.592L300.308,67.233C300.314,67.234 302.75,68.219 305.71,67.591Z" style="fill:rgb(255,201,226);fill-rule:nonzero;" />
                                </svg:g>
                                <svg:g>
                                    <svg:g>
                                        <svg:clipPath id="_clip63">
                                            <svg:path d="M305.71,67.591L309.665,40.367L304.325,39.592L300.308,67.233C300.314,67.234 302.75,68.219 305.71,67.591Z" />
                                        </svg:clipPath>
                                        <svg:g clip-path="url(#_clip63)">
                                            <svg:g transform="matrix(0.9401,-0.3409,0.3409,0.9401,-3.7502,107.854)">
                                                <svg:rect x="289.599" y="62.941" width="30.777" height="3.311" style="fill:rgb(249,157,203);" />
                                            </svg:g>
                                            <svg:g transform="matrix(0.9401,-0.3409,0.3409,0.9401,-0.4056,107.266)">
                                                <svg:rect x="289.599" y="53.132" width="30.777" height="3.311" style="fill:rgb(249,157,203);" />
                                            </svg:g>
                                            <svg:g transform="matrix(0.9401,-0.3409,0.3409,0.9401,2.937,106.67)">
                                                <svg:rect x="289.599" y="43.323" width="30.777" height="3.311" style="fill:rgb(249,157,203);" />
                                            </svg:g>
                                        </svg:g>
                                    </svg:g>
                                </svg:g>
                            </svg:g>
                            <svg:g opacity="0.4">
                                <svg:path d="M309.665,40.367L307.907,40.111C305.923,62.204 302.651,66.31 300.453,66.243L300.308,67.232C300.314,67.234 302.749,68.218 305.709,67.59L309.665,40.367Z" style="fill:rgb(249,157,203);fill-rule:nonzero;" />
                            </svg:g>
                        </svg:g>
                        <svg:g>
                            <svg:path d="M303.644,88.688C295.698,88.688 286.826,87.135 278.088,82.475L277.775,82.308L277.829,81.958C277.863,81.73 281.539,59.137 301.678,56.956L301.786,57.95C283.767,59.902 279.426,78.942 278.881,81.762C302.859,94.331 327.785,83.248 330.927,81.75C330.366,78.849 325.893,59.356 307.238,57.875L307.318,56.878C328.172,58.535 331.946,81.724 331.981,81.959L332.036,82.314L331.717,82.478C331.533,82.571 319.412,88.687 303.644,88.688Z" style="fill:rgb(21,47,71);fill-rule:nonzero;" />
                        </svg:g>
                        <svg:g>
                            <svg:path d="M303.671,68.302C301.733,68.302 300.327,67.777 300.127,67.698L299.759,67.553L299.814,67.16L303.903,39.024L310.232,39.943L306.155,68.006L305.814,68.078C305.056,68.241 304.332,68.302 303.671,68.302ZM300.863,66.893C301.586,67.112 303.28,67.508 305.266,67.167L309.098,40.79L304.747,40.158L300.863,66.893Z" style="fill:rgb(21,47,71);fill-rule:nonzero;" />
                        </svg:g>
                        <svg:g>
                            <svg:path d="M304.047,68.175C299.638,68.175 296.313,66.637 296.313,64.597C296.313,63.11 298.112,61.844 301.006,61.293L301.194,62.275C298.909,62.71 297.313,63.664 297.313,64.596C297.313,65.815 300.079,67.174 304.047,67.174C308.016,67.174 310.781,65.815 310.781,64.596C310.781,63.603 308.975,62.597 306.488,62.204L306.644,61.217C309.764,61.71 311.781,63.036 311.781,64.596C311.781,66.637 308.456,68.175 304.047,68.175Z" style="fill:rgb(21,47,71);fill-rule:nonzero;" />
                        </svg:g>
                    </svg:g>
                    <svg:g>
                        <svg:g>
                            <svg:g>
                                <svg:path d="M333.435,77.513C332.823,77.292 327.306,80.53 320.674,81.892C313.366,83.394 304.906,83.481 304.906,83.481C304.906,83.481 296.444,83.394 289.137,81.892C282.504,80.53 276.989,77.292 276.375,77.513C274.332,78.249 272.941,85.137 274.087,86.638C275.232,88.14 280.791,92.678 304.905,92.678C329.019,92.678 334.578,88.14 335.723,86.638C336.868,85.137 335.478,78.249 333.435,77.513Z" style="fill:rgb(179,225,244);fill-rule:nonzero;" />
                            </svg:g>
                            <svg:g>
                                <svg:path d="M335.724,82.282C334.579,83.784 329.02,88.322 304.906,88.322C280.792,88.322 275.232,83.784 274.088,82.282C274.045,82.226 274.014,82.149 273.978,82.079C273.578,83.989 273.543,85.923 274.088,86.638C275.233,88.14 280.792,92.678 304.906,92.678C329.02,92.678 334.579,88.14 335.724,86.638C336.269,85.923 336.235,83.99 335.834,82.079C335.799,82.149 335.767,82.227 335.724,82.282Z" style="fill:rgb(146,213,234);fill-rule:nonzero;" />
                            </svg:g>
                        </svg:g>
                        <svg:g>
                            <svg:path d="M304.905,93.178C281.02,93.178 275.118,88.816 273.689,86.941C272.874,85.872 273.119,83.029 273.784,80.773C274.136,79.579 274.918,77.506 276.205,77.042C276.598,76.899 277.108,77.108 278.991,77.922C281.261,78.902 285.058,80.543 289.237,81.401C296.411,82.876 304.826,82.979 304.91,82.98C304.984,82.979 313.398,82.876 320.573,81.401C324.752,80.543 328.55,78.901 330.819,77.921C332.702,77.108 333.211,76.9 333.604,77.042C334.89,77.505 335.672,79.576 336.024,80.769C336.69,83.026 336.937,85.87 336.121,86.94C334.691,88.816 328.786,93.178 304.905,93.178ZM276.448,78.002C275.926,78.206 275.236,79.383 274.743,81.056C274.029,83.48 274.033,85.743 274.484,86.334C275.529,87.705 280.809,92.177 304.905,92.177C328.997,92.177 334.28,87.704 335.326,86.334C335.778,85.742 335.781,83.477 335.065,81.052C334.588,79.433 333.925,78.279 333.322,78.006C333.035,78.054 332.111,78.453 331.215,78.839C328.91,79.835 325.053,81.502 320.774,82.381C313.503,83.876 304.995,83.979 304.91,83.98C304.815,83.979 296.306,83.876 289.036,82.381C284.757,81.502 280.899,79.836 278.595,78.84C277.653,78.434 276.68,78.013 276.448,78.002Z" style="fill:rgb(21,47,71);fill-rule:nonzero;" />
                        </svg:g>
                    </svg:g>
                </svg:g>
                <svg:g>
                    <svg:g>
                        <svg:g>
                            <svg:path d="M293.036,109.127C293.036,109.127 293.079,108.85 293.321,108.539C293.445,108.383 293.612,108.212 293.842,108.087C294.07,107.956 294.355,107.868 294.658,107.869C294.811,107.864 294.955,107.903 295.1,107.936C295.243,107.964 295.363,108.054 295.483,108.111C295.706,108.26 295.872,108.433 295.973,108.61C296.094,108.768 296.128,108.938 296.167,109.043C296.199,109.153 296.207,109.221 296.207,109.221C296.207,109.221 296.143,109.197 296.038,109.152C295.93,109.109 295.808,109.031 295.647,108.971C295.498,108.897 295.325,108.842 295.157,108.782C294.986,108.752 294.823,108.7 294.653,108.716C294.485,108.695 294.308,108.74 294.129,108.774C293.948,108.813 293.776,108.874 293.611,108.923C293.265,109.045 293.036,109.127 293.036,109.127Z" style="fill:rgb(21,47,71);fill-rule:nonzero;" />
                        </svg:g>
                        <svg:g>
                            <svg:path d="M313.87,108.881C313.87,108.881 313.941,108.61 314.22,108.324C314.356,108.181 314.541,108.032 314.783,107.929C315.019,107.825 315.314,107.765 315.615,107.798C315.767,107.808 315.907,107.864 316.05,107.906C316.19,107.953 316.296,108.053 316.412,108.12C316.616,108.295 316.766,108.485 316.847,108.669C316.95,108.839 316.969,109.011 316.997,109.118C317.017,109.233 317.02,109.299 317.02,109.299C317.02,109.299 316.956,109.271 316.857,109.213C316.757,109.164 316.638,109.069 316.487,108.995C316.342,108.907 316.179,108.829 316.02,108.754C315.849,108.705 315.696,108.638 315.524,108.637C315.357,108.602 315.176,108.627 314.997,108.641C314.814,108.662 314.635,108.705 314.467,108.739C314.108,108.822 313.87,108.881 313.87,108.881Z" style="fill:rgb(21,47,71);fill-rule:nonzero;" />
                        </svg:g>
                    </svg:g>
                    <svg:g>
                        <svg:g>
                            <svg:g>
                                <svg:path d="M297.646,115.895C297.646,117.634 296.237,119.043 294.497,119.043C292.757,119.043 291.348,117.634 291.348,115.895C291.348,114.156 292.757,112.747 294.497,112.747C296.237,112.746 297.646,114.155 297.646,115.895Z" style="fill:rgb(21,47,71);fill-rule:nonzero;" />
                            </svg:g>
                            <svg:g>
                                <svg:g>
                                    <svg:path d="M294.371,114.741C294.371,115.189 294.007,115.554 293.556,115.554C293.107,115.554 292.743,115.189 292.743,114.741C292.743,114.291 293.106,113.927 293.556,113.927C294.007,113.927 294.371,114.291 294.371,114.741Z" style="fill:white;fill-rule:nonzero;" />
                                </svg:g>
                                <svg:g>
                                    <svg:path d="M293.155,116.306C293.155,116.534 292.97,116.718 292.743,116.718C292.516,116.718 292.332,116.533 292.332,116.306C292.332,116.078 292.517,115.895 292.743,115.895C292.971,115.895 293.155,116.078 293.155,116.306Z" style="fill:white;fill-rule:nonzero;" />
                                </svg:g>
                            </svg:g>
                        </svg:g>
                        <svg:g>
                            <svg:path d="M318.654,115.271C318.938,115.835 319.122,116.449 319.191,117.031C319.273,117.742 318.16,117.734 318.08,117.031C317.898,115.474 316.837,114.179 315.192,114.201C313.525,114.222 312.777,116.099 312.811,117.481C312.828,118.198 311.717,118.196 311.698,117.481C311.644,115.274 312.803,113.065 315.192,113.089C315.984,113.098 316.752,113.375 317.334,113.772C318.166,114.407 318.654,115.271 318.654,115.271Z" style="fill:rgb(21,47,71);fill-rule:nonzero;" />
                        </svg:g>
                    </svg:g>
                    <svg:g>
                        <svg:g>
                            <svg:path d="M295.693,122.688C295.693,124.091 294.556,125.228 293.152,125.228C291.75,125.228 290.611,124.091 290.611,122.688C290.611,121.285 291.75,120.147 293.152,120.147C294.557,120.146 295.693,121.284 295.693,122.688Z" style="fill:rgb(255,129,206);fill-rule:nonzero;" />
                        </svg:g>
                        <svg:g>
                            <svg:path d="M319.444,122.688C319.444,124.091 318.307,125.228 316.903,125.228C315.501,125.228 314.363,124.091 314.363,122.688C314.363,121.285 315.501,120.147 316.903,120.147C318.308,120.146 319.444,121.284 319.444,122.688Z" style="fill:rgb(255,129,206);fill-rule:nonzero;" />
                        </svg:g>
                    </svg:g>
                    <svg:g>
                        <svg:g>
                            <svg:path d="M300.876,116.848C301.309,118.035 302.045,119.19 303.12,119.879C305.388,121.332 307.55,118.606 308.64,116.966C308.992,116.438 308.141,115.946 307.792,116.47C306.795,117.971 304.967,120.365 303.105,118.634C302.533,118.102 302.089,117.323 301.822,116.588C301.607,115.998 300.659,116.253 300.876,116.848Z" style="fill:rgb(21,47,71);fill-rule:nonzero;" />
                        </svg:g>
                    </svg:g>
                </svg:g>
            </svg:g>
            <svg:g>
                <svg:g>
                    <svg:path d="M282.15,97.024C283.404,107.084 284.659,117.144 285.913,127.204C286.09,128.628 286.268,130.052 286.446,131.476C286.544,132.264 287.796,132.274 287.696,131.476C286.442,121.416 285.187,111.356 283.933,101.296C283.756,99.872 283.578,98.448 283.4,97.024C283.302,96.236 282.051,96.226 282.15,97.024Z" style="fill:white;fill-rule:nonzero;" />
                </svg:g>
                <svg:path d="M288.493,134.583C288.493,135.02 288.138,135.375 287.701,135.375C287.264,135.375 286.909,135.021 286.909,134.583C286.909,134.146 287.263,133.791 287.701,133.791C288.138,133.791 288.493,134.146 288.493,134.583Z" style="fill:white;fill-rule:nonzero;" />
            </svg:g>
        </svg:g>
    </g>
</svg>