<?xml version='1.0' encoding='UTF-8'?>
<svg xmlns="http://www.w3.org/2000/svg" xmlns:xlink="http://www.w3.org/1999/xlink" xmlns:svg="http://www.w3.org/2000/svg" xmlns:serif="http://www.serif.com/" height="100%" style="fill-rule:evenodd;clip-rule:evenodd;" version="1.1" viewBox="440.0 55.0 120.0 30.0" width="100%">
    <g>
        <svg:rect x="440" y="55" width="120" height="30" style="fill:rgb(255,252,121);" />
        <svg:g transform="matrix(0.307476,0,0,0.307476,373.107,-50.2744)">
            <svg:path d="M476.715,395.447C476.715,418.713 444.328,423.607 404.376,423.607C364.425,423.607 332.037,418.713 332.037,395.447C332.037,372.181 364.424,353.32 404.376,353.32C444.328,353.319 476.715,372.18 476.715,395.447Z" style="fill:rgb(223,191,143);fill-rule:nonzero;" />
            <svg:path d="M382.348,413.123C354.198,407.775 343.659,390.439 339.803,376.465C334.848,382.171 332.038,388.616 332.038,395.447C332.038,418.713 364.425,423.607 404.377,423.607C422.063,423.607 438.26,422.643 450.827,419.556C434.84,419.577 410.361,418.445 382.348,413.123Z" style="fill:rgb(197,156,120);fill-rule:nonzero;" />
            <svg:g>
                <svg:path d="M362.106,361.27C358.882,362.625 355.849,364.124 353.054,365.763L365.067,397.463L362.106,361.27Z" style="fill:rgb(238,221,164);fill-rule:nonzero;" />
                <svg:path d="M386.854,354.571C383.765,355.019 380.759,355.587 377.841,356.257L382.302,387.335L386.854,354.571Z" style="fill:rgb(238,221,164);fill-rule:nonzero;" />
                <svg:path d="M436.204,357.612C433.407,356.813 430.505,356.121 427.52,355.534L431.938,387.334L436.204,357.612Z" style="fill:rgb(238,221,164);fill-rule:nonzero;" />
                <svg:path d="M414.235,353.719C411.742,353.521 409.209,353.399 406.642,353.353L410.403,380.422L414.235,353.719Z" style="fill:rgb(238,221,164);fill-rule:nonzero;" />
                <svg:path d="M458.609,367.582C456.024,365.877 453.214,364.29 450.191,362.847L447.379,397.215L458.609,367.582Z" style="fill:rgb(238,221,164);fill-rule:nonzero;" />
            </svg:g>
            <svg:path d="M476.715,395.447C476.715,418.713 444.328,423.607 404.376,423.607C364.425,423.607 332.037,418.713 332.037,395.447C332.037,372.181 364.424,353.32 404.376,353.32C444.328,353.319 476.715,372.18 476.715,395.447Z" style="fill:none;fill-rule:nonzero;stroke-linecap:round;stroke-linejoin:round;stroke-miterlimit:10;" />
            <svg:path d="M420.407,406.318C418.922,406.318 417.719,405.114 417.719,403.63L417.719,396.618C417.719,395.133 418.923,393.93 420.407,393.93C421.892,393.93 423.095,395.134 423.095,396.618L423.095,403.63C423.095,405.115 421.891,406.318 420.407,406.318Z" style="fill:rgb(91,21,64);fill-rule:nonzero;" />
            <svg:path d="M464.144,406.318C462.659,406.318 461.456,405.114 461.456,403.63L461.456,396.618C461.456,395.133 462.66,393.93 464.144,393.93C465.629,393.93 466.832,395.134 466.832,396.618L466.832,403.63C466.832,405.115 465.628,406.318 464.144,406.318Z" style="fill:rgb(91,21,64);fill-rule:nonzero;" />
            <svg:g>
                <svg:path d="M442.275,404.306C442.275,404.306 441.281,405.398 438.499,405.497C435.717,405.596 433.618,403.112 433.618,403.112" style="fill:none;fill-rule:nonzero;stroke-linecap:round;stroke-miterlimit:10;" />
                <svg:path d="M450.932,403.112C450.932,403.112 448.833,405.596 446.051,405.497C443.268,405.398 442.275,404.306 442.275,404.306" style="fill:none;fill-rule:nonzero;stroke-linecap:round;stroke-miterlimit:10;" />
            </svg:g>
        </svg:g>
    </g>
</svg>