<?xml version='1.0' encoding='UTF-8'?>
<svg xmlns="http://www.w3.org/2000/svg" xmlns:xlink="http://www.w3.org/1999/xlink" xmlns:svg="http://www.w3.org/2000/svg" xmlns:serif="http://www.serif.com/" height="100%" style="fill-rule:evenodd;clip-rule:evenodd;" version="1.1" viewBox="440.0 160.0 120.0 60.0" width="100%">
    <g>
        <svg:rect x="440" y="160" width="120" height="60" style="fill:rgb(115,252,214);" />
        <svg:g>
            <svg:g transform="matrix(0.294828,0,0,0.294828,401.504,65.2034)">
                <svg:path d="M243.299,451.181C243.299,451.181 277.071,449.135 278.463,460.388C279.856,471.642 257.225,477.78 235.291,476.501C213.357,475.222 208.366,468.573 208.831,461.411C209.295,454.25 243.299,451.181 243.299,451.181Z" style="fill:rgb(186,154,197);fill-rule:nonzero;stroke-linecap:round;stroke-linejoin:round;stroke-miterlimit:10;" />
                <svg:path d="M243.408,447.228C243.408,447.228 264.172,445.687 265.028,454.164C265.884,462.641 251.97,467.264 238.484,466.301C224.998,465.338 221.93,460.329 222.215,454.934C222.501,449.54 243.408,447.228 243.408,447.228Z" style="fill:rgb(195,82,78);fill-rule:nonzero;stroke-linecap:round;stroke-linejoin:round;stroke-miterlimit:10;" />
                <svg:path d="M310.603,384.955C310.603,384.955 320.988,381.278 327.759,389.085C334.529,396.892 328.206,410.359 316.002,421.997C309.076,428.602 308.558,431.556 308.902,434.182C309.768,440.802 301.073,443.297 299.071,436.972C298.431,434.95 298.338,432.376 299.093,429.306C301.585,419.162 315.409,411.811 317.224,402.135C319.038,392.459 307.448,396.538 307.448,396.538" style="fill:rgb(195,82,78);fill-rule:nonzero;stroke-linecap:round;stroke-linejoin:round;stroke-miterlimit:10;" />
                <svg:path d="M173.877,371.702C173.877,371.702 168.694,459.851 243.632,459.851C318.57,459.851 313.452,370.695 313.452,370.695L173.877,371.702Z" style="fill:rgb(186,154,197);fill-rule:nonzero;stroke-linecap:round;stroke-linejoin:round;stroke-miterlimit:10;" />
                <svg:g>
                    <svg:path id="XMLID_00000063593087430619676090000014494771010304135848_2" serif:id="XMLID_00000063593087430619676090000014494771010304135848_" d="M244.362,380.768C244.362,380.768 176.668,382.783 173.877,371.701C171.085,360.619 216.447,354.575 260.413,355.834C304.379,357.093 314.382,363.642 313.452,370.693C312.521,377.746 244.362,380.768 244.362,380.768Z" style="fill:rgb(186,154,197);fill-rule:nonzero;" />
                    <svg:clipPath id="_clip32">
                        <svg:path d="M244.362,380.768C244.362,380.768 176.668,382.783 173.877,371.701C171.085,360.619 216.447,354.575 260.413,355.834C304.379,357.093 314.382,363.642 313.452,370.693C312.521,377.746 244.362,380.768 244.362,380.768Z" />
                    </svg:clipPath>
                    <svg:g clip-path="url(#_clip32)">
                        <svg:path d="M245.26,390.904C245.26,390.904 177.566,392.919 174.775,381.837C171.983,370.755 217.345,364.711 261.311,365.97C305.277,367.229 315.28,373.778 314.349,380.829C313.42,387.882 245.26,390.904 245.26,390.904Z" style="fill:rgb(109,72,47);fill-rule:nonzero;" />
                    </svg:g>
                    <svg:path id="XMLID_00000063593087430619676090000014494771010304135848_3" serif:id="XMLID_00000063593087430619676090000014494771010304135848_" d="M244.362,380.768C244.362,380.768 176.668,382.783 173.877,371.701C171.085,360.619 216.447,354.575 260.413,355.834C304.379,357.093 314.382,363.642 313.452,370.693C312.521,377.746 244.362,380.768 244.362,380.768Z" style="fill:none;fill-rule:nonzero;stroke-linecap:round;stroke-linejoin:round;stroke-miterlimit:10;" />
                </svg:g>
                <svg:g>
                    <svg:ellipse cx="221.571" cy="406.98" rx="3.665" ry="6.169" style="fill:rgb(84,57,43);" />
                    <svg:ellipse cx="264.105" cy="406.98" rx="3.665" ry="6.169" style="fill:rgb(84,57,43);" />
                    <svg:path d="M235.842,413.116C238.239,419.715 248.361,419.715 250.757,413.116L235.842,413.116Z" style="fill:rgb(195,82,78);fill-rule:nonzero;stroke-linecap:round;stroke-linejoin:round;stroke-miterlimit:10;" />
                    <svg:ellipse cx="207.217" cy="413.148" rx="7.67" ry="6.376" style="fill:rgb(255,136,185);" />
                    <svg:ellipse cx="278.458" cy="413.148" rx="7.67" ry="6.376" style="fill:rgb(255,136,185);" />
                </svg:g>
                <svg:g opacity="0.3">
                    <svg:path d="M181.254,385.516C189.654,410.173 198.327,430.112 219.106,446.921C219.216,446.99 219.271,447.157 219.171,447.262C219.106,447.338 218.998,447.358 218.912,447.316C201.48,439.184 189.756,422.208 184.422,404.112C182.582,398.068 181.28,391.857 180.815,385.542C180.806,385.423 180.895,385.32 181.014,385.311C181.147,385.308 181.226,385.396 181.254,385.516Z" style="fill:white;fill-rule:nonzero;" />
                </svg:g>
                <svg:path d="M188.981,386.655C188.981,386.655 215.885,393.017 255.206,386.894" style="fill:none;fill-rule:nonzero;stroke-linecap:round;stroke-linejoin:round;stroke-miterlimit:10;" />
                <svg:path d="M298.558,419.524C298.558,419.524 290.389,438.46 274.867,445.445" style="fill:none;fill-rule:nonzero;stroke-linecap:round;stroke-linejoin:round;stroke-miterlimit:10;" />
            </svg:g>
            <svg:g transform="matrix(0.294828,0,0,0.294828,454.655,73.292)">
                <svg:path d="M243.299,451.181C243.299,451.181 277.071,449.135 278.463,460.388C279.856,471.642 257.225,477.78 235.291,476.501C213.357,475.222 208.366,468.573 208.831,461.411C209.295,454.25 243.299,451.181 243.299,451.181Z" style="fill:rgb(186,154,197);fill-rule:nonzero;stroke-linecap:round;stroke-linejoin:round;stroke-miterlimit:10;" />
                <svg:path d="M243.408,447.228C243.408,447.228 264.172,445.687 265.028,454.164C265.884,462.641 251.97,467.264 238.484,466.301C224.998,465.338 221.93,460.329 222.215,454.934C222.501,449.54 243.408,447.228 243.408,447.228Z" style="fill:rgb(195,82,78);fill-rule:nonzero;stroke-linecap:round;stroke-linejoin:round;stroke-miterlimit:10;" />
                <svg:path d="M310.603,384.955C310.603,384.955 320.988,381.278 327.759,389.085C334.529,396.892 328.206,410.359 316.002,421.997C309.076,428.602 308.558,431.556 308.902,434.182C309.768,440.802 301.073,443.297 299.071,436.972C298.431,434.95 298.338,432.376 299.093,429.306C301.585,419.162 315.409,411.811 317.224,402.135C319.038,392.459 307.448,396.538 307.448,396.538" style="fill:rgb(195,82,78);fill-rule:nonzero;stroke-linecap:round;stroke-linejoin:round;stroke-miterlimit:10;" />
                <svg:path d="M173.877,371.702C173.877,371.702 168.694,459.851 243.632,459.851C318.57,459.851 313.452,370.695 313.452,370.695L173.877,371.702Z" style="fill:rgb(186,154,197);fill-rule:nonzero;stroke-linecap:round;stroke-linejoin:round;stroke-miterlimit:10;" />
                <svg:g>
                    <svg:path id="XMLID_00000063593087430619676090000014494771010304135848_4" serif:id="XMLID_00000063593087430619676090000014494771010304135848_" d="M244.362,380.768C244.362,380.768 176.668,382.783 173.877,371.701C171.085,360.619 216.447,354.575 260.413,355.834C304.379,357.093 314.382,363.642 313.452,370.693C312.521,377.746 244.362,380.768 244.362,380.768Z" style="fill:rgb(186,154,197);fill-rule:nonzero;" />
                    <svg:clipPath id="_clip33">
                        <svg:path d="M244.362,380.768C244.362,380.768 176.668,382.783 173.877,371.701C171.085,360.619 216.447,354.575 260.413,355.834C304.379,357.093 314.382,363.642 313.452,370.693C312.521,377.746 244.362,380.768 244.362,380.768Z" />
                    </svg:clipPath>
                    <svg:g clip-path="url(#_clip33)">
                        <svg:path d="M245.26,390.904C245.26,390.904 177.566,392.919 174.775,381.837C171.983,370.755 217.345,364.711 261.311,365.97C305.277,367.229 315.28,373.778 314.349,380.829C313.42,387.882 245.26,390.904 245.26,390.904Z" style="fill:rgb(109,72,47);fill-rule:nonzero;" />
                    </svg:g>
                    <svg:path id="XMLID_00000063593087430619676090000014494771010304135848_5" serif:id="XMLID_00000063593087430619676090000014494771010304135848_" d="M244.362,380.768C244.362,380.768 176.668,382.783 173.877,371.701C171.085,360.619 216.447,354.575 260.413,355.834C304.379,357.093 314.382,363.642 313.452,370.693C312.521,377.746 244.362,380.768 244.362,380.768Z" style="fill:none;fill-rule:nonzero;stroke-linecap:round;stroke-linejoin:round;stroke-miterlimit:10;" />
                </svg:g>
                <svg:g>
                    <svg:ellipse cx="221.571" cy="406.98" rx="3.665" ry="6.169" style="fill:rgb(84,57,43);" />
                    <svg:ellipse cx="264.105" cy="406.98" rx="3.665" ry="6.169" style="fill:rgb(84,57,43);" />
                    <svg:path d="M235.842,413.116C238.239,419.715 248.361,419.715 250.757,413.116L235.842,413.116Z" style="fill:rgb(195,82,78);fill-rule:nonzero;stroke-linecap:round;stroke-linejoin:round;stroke-miterlimit:10;" />
                    <svg:ellipse cx="207.217" cy="413.148" rx="7.67" ry="6.376" style="fill:rgb(255,136,185);" />
                    <svg:ellipse cx="278.458" cy="413.148" rx="7.67" ry="6.376" style="fill:rgb(255,136,185);" />
                </svg:g>
                <svg:g opacity="0.3">
                    <svg:path d="M181.254,385.516C189.654,410.173 198.327,430.112 219.106,446.921C219.216,446.99 219.271,447.157 219.171,447.262C219.106,447.338 218.998,447.358 218.912,447.316C201.48,439.184 189.756,422.208 184.422,404.112C182.582,398.068 181.28,391.857 180.815,385.542C180.806,385.423 180.895,385.32 181.014,385.311C181.147,385.308 181.226,385.396 181.254,385.516Z" style="fill:white;fill-rule:nonzero;" />
                </svg:g>
                <svg:path d="M188.981,386.655C188.981,386.655 215.885,393.017 255.206,386.894" style="fill:none;fill-rule:nonzero;stroke-linecap:round;stroke-linejoin:round;stroke-miterlimit:10;" />
                <svg:path d="M298.558,419.524C298.558,419.524 290.389,438.46 274.867,445.445" style="fill:none;fill-rule:nonzero;stroke-linecap:round;stroke-linejoin:round;stroke-miterlimit:10;" />
            </svg:g>
        </svg:g>
    </g>
</svg>