<?xml version='1.0' encoding='UTF-8'?>
<svg xmlns="http://www.w3.org/2000/svg" xmlns:xlink="http://www.w3.org/1999/xlink" xmlns:svg="http://www.w3.org/2000/svg" xmlns:serif="http://www.serif.com/" height="100%" style="fill-rule:evenodd;clip-rule:evenodd;" version="1.1" viewBox="460.0 500.0 80.0 100.0" width="100%">
    <g>
        <svg:rect x="460" y="500" width="80" height="100" style="fill:rgb(115,253,255);" />
        <svg:g transform="matrix(0.852263,0,0,0.852263,338.606,206.669)">
            <svg:g>
                <svg:g>
                    <svg:g>
                        <svg:g>
                            <svg:g transform="matrix(0.899,-0.438,0.438,0.899,-144.946,111.07)">
                                <svg:rect x="165.944" y="350.023" width="4.66" height="39.37" style="fill:rgb(255,183,160);" />
                            </svg:g>
                            <svg:g>
                                <svg:g>
                                    <svg:clipPath id="_clip56">
                                        <svg:path d="M161.737,351.016L178.982,386.41L174.792,388.451L157.548,353.058L161.737,351.016Z" />
                                    </svg:clipPath>
                                    <svg:g clip-path="url(#_clip56)">
                                        <svg:g>
                                            <svg:g transform="matrix(0.6248,-0.7808,0.7808,0.6248,-233.325,279.939)">
                                                <svg:rect x="160.284" y="380.787" width="28.693" height="3.941" style="fill:rgb(249,153,128);" />
                                            </svg:g>
                                            <svg:g transform="matrix(0.6248,-0.7808,0.7808,0.6248,-228.055,273.296)">
                                                <svg:rect x="155.989" y="371.968" width="28.692" height="3.942" style="fill:rgb(249,153,128);" />
                                            </svg:g>
                                        </svg:g>
                                        <svg:g>
                                            <svg:g transform="matrix(0.6248,-0.7808,0.7808,0.6248,-222.785,266.645)">
                                                <svg:rect x="151.693" y="363.149" width="28.692" height="3.941" style="fill:rgb(249,153,128);" />
                                            </svg:g>
                                            <svg:g transform="matrix(0.6248,-0.7808,0.7808,0.6248,-217.509,259.973)">
                                                <svg:rect x="147.397" y="354.331" width="28.693" height="3.941" style="fill:rgb(249,153,128);" />
                                            </svg:g>
                                        </svg:g>
                                    </svg:g>
                                </svg:g>
                            </svg:g>
                        </svg:g>
                        <svg:g opacity="0.3">
                            <svg:g transform="matrix(0.899,-0.438,0.438,0.899,-144.59,111.445)">
                                <svg:rect x="168.156" y="349.512" width="2.33" height="39.37" style="fill:rgb(232,119,93);" />
                            </svg:g>
                        </svg:g>
                    </svg:g>
                    <svg:g>
                        <svg:path d="M174.57,389.094L156.89,352.801L161.978,350.321L179.657,386.614L174.57,389.094ZM158.227,353.262L175.031,387.756L178.321,386.153L161.518,351.659L158.227,353.262Z" style="fill:rgb(21,47,71);fill-rule:nonzero;" />
                    </svg:g>
                </svg:g>
                <svg:g>
                    <svg:g>
                        <svg:g>
                            <svg:g transform="matrix(0.5521,-0.8338,0.8338,0.5521,-238.274,306.693)">
                                <svg:rect x="163.987" y="355.435" width="4.66" height="39.368" style="fill:rgb(255,183,160);" />
                            </svg:g>
                            <svg:g>
                                <svg:g>
                                    <svg:clipPath id="_clip57">
                                        <svg:path d="M151.198,362.311L184.023,384.046L181.45,387.932L148.625,366.197L151.198,362.311Z" />
                                    </svg:clipPath>
                                    <svg:g clip-path="url(#_clip57)">
                                        <svg:g>
                                            <svg:g transform="matrix(0.1419,-0.9899,0.9899,0.1419,-226.156,505.386)">
                                                <svg:rect x="164.072" y="381.165" width="28.693" height="3.94" style="fill:rgb(249,153,128);" />
                                            </svg:g>
                                            <svg:g transform="matrix(0.1419,-0.9899,0.9899,0.1419,-227.811,492.642)">
                                                <svg:rect x="155.894" y="375.748" width="28.693" height="3.942" style="fill:rgb(249,153,128);" />
                                            </svg:g>
                                        </svg:g>
                                        <svg:g>
                                            <svg:g transform="matrix(0.1419,-0.9899,0.9899,0.1419,-229.468,479.896)">
                                                <svg:rect x="147.717" y="370.331" width="28.692" height="3.942" style="fill:rgb(249,153,128);" />
                                            </svg:g>
                                            <svg:g transform="matrix(0.1419,-0.9899,0.9899,0.1419,-231.125,467.154)">
                                                <svg:rect x="139.537" y="364.915" width="28.693" height="3.941" style="fill:rgb(249,153,128);" />
                                            </svg:g>
                                        </svg:g>
                                    </svg:g>
                                </svg:g>
                            </svg:g>
                        </svg:g>
                        <svg:g opacity="0.3">
                            <svg:g transform="matrix(0.5519,-0.8339,0.8339,0.5519,-237.191,306.883)">
                                <svg:rect x="165.795" y="354.464" width="2.33" height="39.368" style="fill:rgb(232,119,93);" />
                            </svg:g>
                        </svg:g>
                    </svg:g>
                    <svg:g>
                        <svg:path d="M181.582,388.624L147.927,366.333L151.052,361.613L184.707,383.905L181.582,388.624ZM149.313,366.052L181.301,387.238L183.321,384.187L151.333,363L149.313,366.052Z" style="fill:rgb(21,47,71);fill-rule:nonzero;" />
                    </svg:g>
                </svg:g>
            </svg:g>
            <svg:g>
                <svg:g>
                    <svg:g>
                        <svg:g>
                            <svg:g>
                                <svg:path d="M191.422,415.311C184.34,415.311 177.892,415.074 173.049,413.123C173.885,426.912 176.469,452.049 176.632,453.48C177.046,457.123 180.151,457.206 180.151,457.206L202.695,457.206C202.695,457.206 205.799,457.123 206.213,453.48C206.375,452.048 208.959,426.912 209.796,413.123C204.952,415.074 198.503,415.311 191.422,415.311Z" style="fill:rgb(255,183,160);fill-rule:nonzero;" />
                            </svg:g>
                            <svg:g>
                                <svg:g>
                                    <svg:clipPath id="_clip58">
                                        <svg:path d="M191.422,415.311C184.34,415.311 177.892,415.074 173.049,413.123C173.885,426.912 176.469,452.049 176.632,453.48C177.046,457.123 180.151,457.206 180.151,457.206L202.695,457.206C202.695,457.206 205.799,457.123 206.213,453.48C206.375,452.048 208.959,426.912 209.796,413.123C204.952,415.074 198.503,415.311 191.422,415.311Z" />
                                    </svg:clipPath>
                                    <svg:g clip-path="url(#_clip58)">
                                        <svg:g>
                                            <svg:g>
                                                <svg:g>
                                                    <svg:g transform="matrix(0.7087,-0.7055,0.7055,0.7087,-243.318,238.914)">
                                                        <svg:g>
                                                            <svg:rect x="103.293" y="413.606" width="128.689" height="0.961" style="fill:rgb(232,119,93);" />
                                                        </svg:g>
                                                    </svg:g>
                                                    <svg:g transform="matrix(0.7072,-0.7071,0.7071,0.7072,-246.506,246.585)">
                                                        <svg:g>
                                                            <svg:rect x="110.088" y="420.402" width="128.691" height="0.961" style="fill:rgb(232,119,93);" />
                                                        </svg:g>
                                                    </svg:g>
                                                </svg:g>
                                                <svg:g>
                                                    <svg:g transform="matrix(0.7071,-0.7071,0.7071,0.7071,-249.333,253.411)">
                                                        <svg:g>
                                                            <svg:rect x="116.883" y="427.196" width="128.69" height="0.962" style="fill:rgb(232,119,93);" />
                                                        </svg:g>
                                                    </svg:g>
                                                    <svg:g transform="matrix(0.7066,-0.7076,0.7076,0.7066,-252.275,260.531)">
                                                        <svg:g>
                                                            <svg:rect x="123.68" y="433.992" width="128.689" height="0.961" style="fill:rgb(232,119,93);" />
                                                        </svg:g>
                                                    </svg:g>
                                                </svg:g>
                                            </svg:g>
                                            <svg:g>
                                                <svg:g>
                                                    <svg:g transform="matrix(0.7076,-0.7066,0.7066,0.7076,-254.847,266.705)">
                                                        <svg:g>
                                                            <svg:rect x="130.474" y="440.788" width="128.69" height="0.961" style="fill:rgb(232,119,93);" />
                                                        </svg:g>
                                                    </svg:g>
                                                    <svg:g transform="matrix(0.7066,-0.7076,0.7076,0.7066,-257.905,274.136)">
                                                        <svg:g>
                                                            <svg:rect x="137.269" y="447.583" width="128.691" height="0.961" style="fill:rgb(232,119,93);" />
                                                        </svg:g>
                                                    </svg:g>
                                                </svg:g>
                                                <svg:g>
                                                    <svg:g transform="matrix(0.7071,-0.7071,0.7071,0.7071,-260.594,280.598)">
                                                        <svg:g>
                                                            <svg:rect x="144.065" y="454.378" width="128.69" height="0.962" style="fill:rgb(232,119,93);" />
                                                        </svg:g>
                                                    </svg:g>
                                                    <svg:g>
                                                        <svg:g>
                                                            <svg:path d="M170.047,507.493L169.367,506.811L260.363,415.816L261.044,416.495L170.047,507.493Z" style="fill:rgb(232,119,93);fill-rule:nonzero;" />
                                                        </svg:g>
                                                    </svg:g>
                                                </svg:g>
                                            </svg:g>
                                        </svg:g>
                                        <svg:g>
                                            <svg:g>
                                                <svg:g>
                                                    <svg:g transform="matrix(0.7065,-0.7077,0.7077,0.7065,-229.885,273.816)">
                                                        <svg:g>
                                                            <svg:rect x="214.724" y="349.742" width="0.962" height="128.689" style="fill:rgb(232,119,93);" />
                                                        </svg:g>
                                                    </svg:g>
                                                    <svg:g transform="matrix(0.7076,-0.7066,0.7066,0.7076,-236.465,270.342)">
                                                        <svg:g>
                                                            <svg:rect x="207.929" y="356.537" width="0.961" height="128.69" style="fill:rgb(232,119,93);" />
                                                        </svg:g>
                                                    </svg:g>
                                                </svg:g>
                                                <svg:g>
                                                    <svg:g transform="matrix(0.7066,-0.7076,0.7076,0.7066,-243.479,268.154)">
                                                        <svg:g>
                                                            <svg:rect x="201.134" y="363.332" width="0.961" height="128.69" style="fill:rgb(232,119,93);" />
                                                        </svg:g>
                                                    </svg:g>
                                                    <svg:g transform="matrix(0.7076,-0.7066,0.7066,0.7076,-250.032,264.685)">
                                                        <svg:g>
                                                            <svg:rect x="194.339" y="370.128" width="0.96" height="128.689" style="fill:rgb(232,119,93);" />
                                                        </svg:g>
                                                    </svg:g>
                                                </svg:g>
                                            </svg:g>
                                            <svg:g>
                                                <svg:g>
                                                    <svg:g transform="matrix(0.7071,-0.7071,0.7071,0.7071,-256.953,262.197)">
                                                        <svg:g>
                                                            <svg:rect x="187.543" y="376.924" width="0.961" height="128.69" style="fill:rgb(232,119,93);" />
                                                        </svg:g>
                                                    </svg:g>
                                                    <svg:g transform="matrix(0.7076,-0.7066,0.7066,0.7076,-263.609,259.055)">
                                                        <svg:g>
                                                            <svg:rect x="180.748" y="383.718" width="0.961" height="128.69" style="fill:rgb(232,119,93);" />
                                                        </svg:g>
                                                    </svg:g>
                                                </svg:g>
                                                <svg:g>
                                                    <svg:g transform="matrix(0.7066,-0.7076,0.7076,0.7066,-270.689,256.896)">
                                                        <svg:g>
                                                            <svg:rect x="173.952" y="390.513" width="0.962" height="128.69" style="fill:rgb(232,119,93);" />
                                                        </svg:g>
                                                    </svg:g>
                                                    <svg:g transform="matrix(0.7055,-0.7087,0.7087,0.7055,-277.796,254.735)">
                                                        <svg:g>
                                                            <svg:rect x="167.157" y="397.31" width="0.961" height="128.689" style="fill:rgb(232,119,93);" />
                                                        </svg:g>
                                                    </svg:g>
                                                </svg:g>
                                            </svg:g>
                                        </svg:g>
                                    </svg:g>
                                </svg:g>
                            </svg:g>
                            <svg:path d="M196.605,437.574C196.605,428.197 192.551,419.963 186.438,415.248C181.333,415.097 176.726,414.605 173.048,413.124C173.884,426.913 176.468,452.05 176.631,453.481C177.045,457.124 180.15,457.207 180.15,457.207L189.372,457.207C193.815,452.356 196.605,445.357 196.605,437.574Z" style="fill:white;fill-opacity:0.2;fill-rule:nonzero;" />
                        </svg:g>
                        <svg:g opacity="0.4">
                            <svg:path d="M202.118,414.868C200.866,431.684 198.459,455.145 198.231,457.207L202.693,457.207C202.693,457.207 205.797,457.124 206.211,453.481C206.373,452.049 208.957,426.913 209.794,413.124C207.552,414.027 204.953,414.553 202.118,414.868Z" style="fill:rgb(232,119,93);fill-rule:nonzero;" />
                        </svg:g>
                    </svg:g>
                    <svg:g>
                        <svg:path d="M202.708,457.707L180.151,457.707C180.102,457.706 176.593,457.565 176.136,453.538C175.97,452.081 173.383,426.898 172.551,413.154L172.503,412.364L173.237,412.66C178.167,414.645 184.924,414.811 191.423,414.811C197.922,414.811 204.679,414.645 209.609,412.66L210.343,412.364L210.295,413.154C209.46,426.92 206.9,451.862 206.71,453.538C206.252,457.565 202.744,457.706 202.708,457.707ZM173.596,413.866C174.475,427.741 176.966,451.996 177.129,453.425C177.487,456.573 180.058,456.703 180.167,456.707L202.694,456.707C202.787,456.703 205.357,456.573 205.716,453.425C205.902,451.783 208.369,427.752 209.249,413.866C204.239,415.655 197.708,415.811 191.423,415.811C185.136,415.811 178.606,415.655 173.596,413.866Z" style="fill:rgb(21,47,71);fill-rule:nonzero;" />
                    </svg:g>
                </svg:g>
                <svg:g>
                    <svg:g>
                        <svg:g>
                            <svg:path d="M191.422,401.9C191.422,401.9 170.556,401.578 160.398,399.71C160.398,399.71 163.862,414.842 168.652,416.828C173.441,418.814 183.719,419.758 191.423,419.758C199.127,419.758 209.404,418.815 214.193,416.828C218.983,414.842 222.447,399.71 222.447,399.71C212.288,401.578 191.422,401.9 191.422,401.9Z" style="fill:rgb(255,183,160);fill-rule:nonzero;" />
                        </svg:g>
                        <svg:g opacity="0.4">
                            <svg:g>
                                <svg:path d="M214.715,400.827C213.387,405.742 209.965,416.792 205.609,418.599C205.33,418.715 205.022,418.827 204.712,418.936C208.521,418.454 211.957,417.756 214.193,416.829C218.983,414.843 222.447,399.711 222.447,399.711C220.261,400.112 217.578,400.486 214.715,400.827Z" style="fill:rgb(232,119,93);fill-rule:nonzero;" />
                            </svg:g>
                        </svg:g>
                        <svg:path d="M168.651,416.828C170.719,417.686 173.813,418.348 177.279,418.825C181.055,414.155 183.32,408.214 183.32,401.741C183.32,401.715 183.318,401.689 183.318,401.663C176.339,401.389 166.461,400.825 160.397,399.71C160.397,399.71 163.861,414.842 168.651,416.828Z" style="fill:white;fill-opacity:0.2;fill-rule:nonzero;" />
                    </svg:g>
                    <svg:g>
                        <svg:path d="M191.422,420.258C183.809,420.258 173.376,419.329 168.46,417.29C163.489,415.228 160.054,400.449 159.91,399.821L159.741,399.081L160.488,399.218C170.417,401.044 190.923,401.393 191.422,401.401C191.92,401.393 212.427,401.045 222.356,399.218L223.103,399.081L222.934,399.821C222.79,400.449 219.355,415.228 214.384,417.29C209.468,419.329 199.035,420.258 191.422,420.258ZM161.064,400.335C161.826,403.361 164.928,414.743 168.842,416.366C173.632,418.352 183.904,419.258 191.421,419.258C198.938,419.258 209.21,418.353 214,416.366C217.914,414.743 221.016,403.361 221.778,400.335C211.448,402.072 191.633,402.398 191.428,402.4L191.412,402.4C191.21,402.397 171.394,402.072 161.064,400.335Z" style="fill:rgb(21,47,71);fill-rule:nonzero;" />
                    </svg:g>
                </svg:g>
            </svg:g>
            <svg:g>
                <svg:g>
                    <svg:g>
                        <svg:g>
                            <svg:path d="M212.504,371.796C212.731,380.691 203.362,385.026 192.959,385.291C182.556,385.556 172.979,381.703 172.753,372.808C172.526,363.913 181.763,354.38 192.166,354.117C202.569,353.852 212.277,362.9 212.504,371.796Z" style="fill:rgb(195,197,244);fill-rule:nonzero;" />
                        </svg:g>
                        <svg:g>
                            <svg:path d="M199.289,355.373C203.548,358.775 206.441,363.603 206.562,368.399C206.79,377.295 197.42,381.629 187.018,381.895C183.137,381.994 179.372,381.519 176.164,380.422C179.9,383.918 186.256,385.461 192.959,385.29C203.362,385.025 212.73,380.689 212.504,371.795C212.331,364.999 206.614,358.126 199.289,355.373Z" style="fill:rgb(182,187,239);fill-rule:nonzero;" />
                        </svg:g>
                        <svg:g>
                            <svg:path d="M195.175,360.883C196.609,363.52 194.293,367.546 190.005,369.875C185.716,372.205 181.079,371.957 179.647,369.323C178.215,366.687 180.532,362.66 184.82,360.332C189.106,358.002 193.745,358.249 195.175,360.883Z" style="fill:rgb(215,218,249);fill-rule:nonzero;" />
                        </svg:g>
                    </svg:g>
                    <svg:g>
                        <svg:path d="M192.016,385.803C182.839,385.803 172.498,382.442 172.253,372.821C172.14,368.377 174.279,363.656 178.123,359.87C182.027,356.023 187.141,353.744 192.154,353.617C202.413,353.327 212.764,362.354 213.005,371.784C213.115,376.104 211.032,379.708 206.981,382.206C203.459,384.378 198.484,385.651 192.973,385.792C192.655,385.799 192.336,385.803 192.016,385.803ZM192.598,354.61C192.458,354.61 192.319,354.612 192.179,354.616C187.418,354.736 182.55,356.911 178.825,360.581C175.178,364.174 173.147,368.626 173.254,372.795C173.489,382.014 184.014,385.019 192.947,384.791C198.284,384.655 203.082,383.435 206.456,381.355C210.186,379.054 212.105,375.753 212.005,371.809C211.78,363.012 202.235,354.61 192.598,354.61Z" style="fill:rgb(21,47,71);fill-rule:nonzero;" />
                    </svg:g>
                </svg:g>
                <svg:g>
                    <svg:g>
                        <svg:g>
                            <svg:path d="M196.053,394.031C195.248,402.893 185.442,406.115 175.077,405.173C164.713,404.232 155.647,399.297 156.451,390.435C157.256,381.573 167.534,373.174 177.897,374.117C188.262,375.058 196.857,385.17 196.053,394.031Z" style="fill:rgb(239,222,137);fill-rule:nonzero;" />
                        </svg:g>
                        <svg:g>
                            <svg:path d="M184.827,376.19C188.664,380.063 190.978,385.193 190.544,389.971C189.74,398.833 179.933,402.055 169.569,401.114C165.703,400.763 162.017,399.856 158.958,398.396C162.266,402.3 168.399,404.568 175.077,405.174C185.441,406.115 195.248,402.894 196.053,394.032C196.668,387.261 191.785,379.772 184.827,376.19Z" style="fill:rgb(229,207,112);fill-rule:nonzero;" />
                        </svg:g>
                        <svg:g>
                            <svg:path d="M180.103,381.186C181.221,383.97 178.455,387.702 173.925,389.519C169.397,391.336 164.82,390.554 163.702,387.771C162.585,384.988 165.351,381.256 169.88,379.44C174.409,377.622 178.987,378.405 180.103,381.186Z" style="fill:rgb(252,235,162);fill-rule:nonzero;" />
                        </svg:g>
                    </svg:g>
                    <svg:g>
                        <svg:path d="M178.467,405.83C177.346,405.83 176.198,405.777 175.031,405.672C165.668,404.821 155.053,400.309 155.952,390.391C156.354,385.962 159.026,381.521 163.282,378.206C167.606,374.837 172.948,373.165 177.942,373.62C182.935,374.073 187.89,376.68 191.536,380.772C195.125,384.799 196.952,389.649 196.55,394.077C196.159,398.382 193.673,401.72 189.361,403.733C186.408,405.11 182.624,405.83 178.467,405.83ZM176.311,374.546C172.025,374.546 167.579,376.125 163.897,378.994C159.859,382.14 157.326,386.327 156.949,390.48C156.116,399.664 166.218,403.867 175.122,404.675C180.442,405.158 185.346,404.5 188.938,402.825C192.91,400.971 195.197,397.915 195.554,393.985C195.931,389.832 194.195,385.257 190.789,381.435C187.31,377.531 182.595,375.044 177.851,374.614C177.342,374.568 176.828,374.546 176.311,374.546Z" style="fill:rgb(21,47,71);fill-rule:nonzero;" />
                    </svg:g>
                </svg:g>
                <svg:g>
                    <svg:g>
                        <svg:g>
                            <svg:path d="M226.112,392.893C226.338,401.788 216.969,406.123 206.566,406.388C196.163,406.653 186.586,402.8 186.36,393.905C186.133,385.009 195.37,375.477 205.773,375.214C216.177,374.948 225.885,383.997 226.112,392.893Z" style="fill:rgb(242,165,204);fill-rule:nonzero;" />
                        </svg:g>
                        <svg:g>
                            <svg:path d="M212.896,376.47C217.155,379.872 220.048,384.7 220.169,389.496C220.397,398.393 211.027,402.726 200.625,402.992C196.744,403.091 192.979,402.616 189.77,401.519C193.506,405.015 199.862,406.558 206.565,406.387C216.968,406.122 226.336,401.787 226.111,392.892C225.939,386.096 220.222,379.223 212.896,376.47Z" style="fill:rgb(232,142,191);fill-rule:nonzero;" />
                        </svg:g>
                        <svg:g>
                            <svg:path d="M208.783,381.979C210.216,384.616 207.9,388.642 203.612,390.971C199.323,393.301 194.686,393.053 193.255,390.419C191.822,387.783 194.139,383.756 198.427,381.428C202.714,379.099 207.352,379.346 208.783,381.979Z" style="fill:rgb(249,178,217);fill-rule:nonzero;" />
                        </svg:g>
                    </svg:g>
                    <svg:g>
                        <svg:path d="M205.623,406.899C196.446,406.899 186.105,403.538 185.86,393.917C185.747,389.473 187.886,384.752 191.73,380.966C195.634,377.119 200.748,374.84 205.761,374.713C216.068,374.461 226.371,383.451 226.613,392.88C226.865,402.836 215.979,406.648 206.58,406.888C206.262,406.896 205.943,406.899 205.623,406.899ZM206.205,375.707C206.065,375.707 205.926,375.709 205.786,375.713C201.025,375.833 196.157,378.008 192.431,381.678C188.784,385.271 186.753,389.723 186.86,393.892C187.095,403.111 197.619,406.112 206.553,405.888C215.491,405.66 225.846,402.124 225.612,392.906C225.387,384.108 215.842,375.707 206.205,375.707Z" style="fill:rgb(21,47,71);fill-rule:nonzero;" />
                    </svg:g>
                </svg:g>
            </svg:g>
        </svg:g>
    </g>
</svg>