<?xml version='1.0' encoding='UTF-8'?>
<svg xmlns="http://www.w3.org/2000/svg" xmlns:xlink="http://www.w3.org/1999/xlink" xmlns:svg="http://www.w3.org/2000/svg" xmlns:serif="http://www.serif.com/" height="100%" style="fill-rule:evenodd;clip-rule:evenodd;" version="1.1" viewBox="466.667 620.0 66.667 100.0" width="100%">
    <g>
        <svg:rect x="466.667" y="620" width="66.667" height="100" style="fill:rgb(255,126,121);" />
        <svg:g transform="matrix(0.726556,0,0,0.726556,192.033,594.076)">
            <svg:g>
                <svg:g>
                    <svg:g>
                        <svg:g>
                            <svg:g>
                                <svg:g>
                                    <svg:g transform="matrix(0.8816,-0.4719,0.4719,0.8816,19.4805,199.127)">
                                        <svg:rect x="404.378" y="41.044" width="4.66" height="39.37" style="fill:rgb(255,183,160);" />
                                    </svg:g>
                                    <svg:g>
                                        <svg:g>
                                            <svg:clipPath id="_clip64">
                                                <svg:path d="M399.457,42.287L418.036,76.995L413.928,79.194L395.349,44.486L399.457,42.287Z" />
                                            </svg:clipPath>
                                            <svg:g clip-path="url(#_clip64)">
                                                <svg:g>
                                                    <svg:g transform="matrix(0.5946,-0.804,0.804,0.5946,108.538,362.317)">
                                                        <svg:rect x="399.212" y="71.557" width="28.693" height="3.94" style="fill:rgb(249,153,128);" />
                                                    </svg:g>
                                                    <svg:g transform="matrix(0.5946,-0.804,0.804,0.5946,113.622,355.096)">
                                                        <svg:rect x="394.583" y="62.908" width="28.693" height="3.942" style="fill:rgb(249,153,128);" />
                                                    </svg:g>
                                                </svg:g>
                                                <svg:g>
                                                    <svg:g transform="matrix(0.5946,-0.804,0.804,0.5946,118.701,347.87)">
                                                        <svg:rect x="389.954" y="54.259" width="28.692" height="3.942" style="fill:rgb(249,153,128);" />
                                                    </svg:g>
                                                    <svg:g transform="matrix(0.5946,-0.804,0.804,0.5946,123.77,340.634)">
                                                        <svg:rect x="385.325" y="45.612" width="28.693" height="3.94" style="fill:rgb(249,153,128);" />
                                                    </svg:g>
                                                </svg:g>
                                            </svg:g>
                                        </svg:g>
                                    </svg:g>
                                </svg:g>
                                <svg:g opacity="0.3">
                                    <svg:g transform="matrix(0.8816,-0.472,0.472,0.8816,19.8734,199.58)">
                                        <svg:rect x="406.571" y="40.494" width="2.33" height="39.37" style="fill:rgb(232,119,93);" />
                                    </svg:g>
                                </svg:g>
                            </svg:g>
                            <svg:g>
                                <svg:path d="M413.738,79.86L394.688,44.267L399.678,41.596L418.728,77.189L413.738,79.86ZM396.042,44.678L414.148,78.507L417.375,76.779L399.269,42.95L396.042,44.678Z" style="fill:rgb(21,47,71);fill-rule:nonzero;" />
                            </svg:g>
                        </svg:g>
                        <svg:g>
                            <svg:g>
                                <svg:g>
                                    <svg:g transform="matrix(0.5199,-0.8542,0.8542,0.5199,137.845,377.701)">
                                        <svg:rect x="402.63" y="46.527" width="4.66" height="39.368" style="fill:rgb(255,183,160);" />
                                    </svg:g>
                                    <svg:g>
                                        <svg:g>
                                            <svg:clipPath id="_clip65">
                                                <svg:path d="M389.339,53.984L422.967,74.451L420.544,78.432L386.916,57.964L389.339,53.984Z" />
                                            </svg:clipPath>
                                            <svg:g clip-path="url(#_clip65)">
                                                <svg:g>
                                                    <svg:g transform="matrix(0.1041,-0.9946,0.9946,0.1041,300.561,481.175)">
                                                        <svg:rect x="403.012" y="71.79" width="28.692" height="3.94" style="fill:rgb(249,153,128);" />
                                                    </svg:g>
                                                    <svg:g transform="matrix(0.104,-0.9946,0.9946,0.104,298.141,468.277)">
                                                        <svg:rect x="394.633" y="66.689" width="28.693" height="3.941" style="fill:rgb(249,153,128);" />
                                                    </svg:g>
                                                </svg:g>
                                                <svg:g>
                                                    <svg:g transform="matrix(0.104,-0.9946,0.9946,0.104,295.721,455.376)">
                                                        <svg:rect x="386.254" y="61.588" width="28.693" height="3.941" style="fill:rgb(249,153,128);" />
                                                    </svg:g>
                                                    <svg:g transform="matrix(0.1041,-0.9946,0.9946,0.1041,293.259,442.465)">
                                                        <svg:rect x="377.876" y="56.487" width="28.692" height="3.941" style="fill:rgb(249,153,128);" />
                                                    </svg:g>
                                                </svg:g>
                                            </svg:g>
                                        </svg:g>
                                    </svg:g>
                                </svg:g>
                                <svg:g opacity="0.3">
                                    <svg:g transform="matrix(0.5196,-0.8544,0.8544,0.5196,139.103,377.842)">
                                        <svg:rect x="404.4" y="45.532" width="2.33" height="39.369" style="fill:rgb(232,119,93);" />
                                    </svg:g>
                                </svg:g>
                            </svg:g>
                            <svg:g>
                                <svg:path d="M420.728,79.124L386.247,58.132L389.19,53.298L423.672,74.29L420.728,79.124ZM387.622,57.799L420.394,77.751L422.296,74.624L389.524,54.672L387.622,57.799Z" style="fill:rgb(21,47,71);fill-rule:nonzero;" />
                            </svg:g>
                        </svg:g>
                    </svg:g>
                    <svg:g>
                        <svg:g>
                            <svg:g>
                                <svg:g>
                                    <svg:path d="M401.986,96.408C401.986,96.408 423.594,163.848 427.775,163.848C431.956,163.848 454.958,96.408 454.958,96.408C454.958,96.408 433.7,101.313 401.986,96.408Z" style="fill:rgb(255,183,160);fill-rule:nonzero;" />
                                </svg:g>
                                <svg:g>
                                    <svg:g>
                                        <svg:clipPath id="_clip66">
                                            <svg:path d="M401.986,96.408C401.986,96.408 423.594,163.848 427.775,163.848C431.956,163.848 454.958,96.408 454.958,96.408C454.958,96.408 433.7,101.313 401.986,96.408Z" />
                                        </svg:clipPath>
                                        <svg:g clip-path="url(#_clip66)">
                                            <svg:g>
                                                <svg:g>
                                                    <svg:g>
                                                        <svg:g transform="matrix(0.7076,-0.7066,0.7066,0.7076,48.6598,314.402)">
                                                            <svg:g>
                                                                <svg:rect x="338.516" y="97.919" width="131.358" height="0.981" style="fill:rgb(232,119,93);" />
                                                            </svg:g>
                                                        </svg:g>
                                                        <svg:g transform="matrix(0.7071,-0.7071,0.7071,0.7071,45.9269,321.569)">
                                                            <svg:g>
                                                                <svg:rect x="345.452" y="104.855" width="131.36" height="0.981" style="fill:rgb(232,119,93);" />
                                                            </svg:g>
                                                        </svg:g>
                                                    </svg:g>
                                                    <svg:g>
                                                        <svg:g transform="matrix(0.7066,-0.7076,0.7076,0.7066,43.2096,328.776)">
                                                            <svg:g>
                                                                <svg:rect x="352.388" y="111.792" width="131.359" height="0.981" style="fill:rgb(232,119,93);" />
                                                            </svg:g>
                                                        </svg:g>
                                                        <svg:g transform="matrix(0.7071,-0.7072,0.7072,0.7071,40.1962,335.469)">
                                                            <svg:g>
                                                                <svg:rect x="359.325" y="118.728" width="131.358" height="0.981" style="fill:rgb(232,119,93);" />
                                                            </svg:g>
                                                        </svg:g>
                                                    </svg:g>
                                                </svg:g>
                                                <svg:g>
                                                    <svg:g>
                                                        <svg:g transform="matrix(0.7076,-0.7066,0.7066,0.7076,37.1671,342.122)">
                                                            <svg:g>
                                                                <svg:rect x="366.261" y="125.665" width="131.359" height="0.981" style="fill:rgb(232,119,93);" />
                                                            </svg:g>
                                                        </svg:g>
                                                        <svg:g transform="matrix(0.7071,-0.7071,0.7071,0.7071,34.4342,349.314)">
                                                            <svg:g>
                                                                <svg:rect x="373.197" y="132.601" width="131.359" height="0.981" style="fill:rgb(232,119,93);" />
                                                            </svg:g>
                                                        </svg:g>
                                                    </svg:g>
                                                    <svg:g>
                                                        <svg:g transform="matrix(0.7066,-0.7076,0.7076,0.7066,31.7171,356.549)">
                                                            <svg:g>
                                                                <svg:rect x="380.134" y="139.537" width="131.359" height="0.982" style="fill:rgb(232,119,93);" />
                                                            </svg:g>
                                                        </svg:g>
                                                        <svg:g transform="matrix(0.7076,-0.7066,0.7066,0.7076,28.5481,362.912)">
                                                            <svg:g>
                                                                <svg:rect x="387.071" y="146.473" width="131.358" height="0.981" style="fill:rgb(232,119,93);" />
                                                            </svg:g>
                                                        </svg:g>
                                                    </svg:g>
                                                </svg:g>
                                            </svg:g>
                                            <svg:g>
                                                <svg:g>
                                                    <svg:g>
                                                        <svg:g transform="matrix(0.7072,-0.7071,0.7071,0.7072,63.0032,348.938)">
                                                            <svg:g>
                                                                <svg:rect x="452.259" y="32.731" width="0.981" height="131.358" style="fill:rgb(232,119,93);" />
                                                            </svg:g>
                                                        </svg:g>
                                                        <svg:g transform="matrix(0.7071,-0.7072,0.7072,0.7071,56.1024,346.121)">
                                                            <svg:g>
                                                                <svg:rect x="445.323" y="39.666" width="0.981" height="131.359" style="fill:rgb(232,119,93);" />
                                                            </svg:g>
                                                        </svg:g>
                                                    </svg:g>
                                                    <svg:g>
                                                        <svg:g transform="matrix(0.7071,-0.7071,0.7071,0.7071,49.1615,343.241)">
                                                            <svg:g>
                                                                <svg:rect x="438.386" y="46.603" width="0.981" height="131.359" style="fill:rgb(232,119,93);" />
                                                            </svg:g>
                                                        </svg:g>
                                                        <svg:g transform="matrix(0.7072,-0.7071,0.7071,0.7072,42.1964,340.318)">
                                                            <svg:g>
                                                                <svg:rect x="431.45" y="53.539" width="0.981" height="131.359" style="fill:rgb(232,119,93);" />
                                                            </svg:g>
                                                        </svg:g>
                                                    </svg:g>
                                                </svg:g>
                                                <svg:g>
                                                    <svg:g>
                                                        <svg:g transform="matrix(0.7072,-0.707,0.707,0.7072,35.2572,337.439)">
                                                            <svg:g>
                                                                <svg:rect x="424.513" y="60.476" width="0.981" height="131.359" style="fill:rgb(232,119,93);" />
                                                            </svg:g>
                                                        </svg:g>
                                                        <svg:g transform="matrix(0.7065,-0.7077,0.7077,0.7065,28.4994,334.909)">
                                                            <svg:g>
                                                                <svg:rect x="417.578" y="67.412" width="0.981" height="131.359" style="fill:rgb(232,119,93);" />
                                                            </svg:g>
                                                        </svg:g>
                                                    </svg:g>
                                                    <svg:g>
                                                        <svg:g transform="matrix(0.7071,-0.7071,0.7071,0.7071,21.4032,331.727)">
                                                            <svg:g>
                                                                <svg:rect x="410.641" y="74.348" width="0.981" height="131.359" style="fill:rgb(232,119,93);" />
                                                            </svg:g>
                                                        </svg:g>
                                                        <svg:g transform="matrix(0.7066,-0.7076,0.7076,0.7066,14.588,329.113)">
                                                            <svg:g>
                                                                <svg:rect x="403.705" y="81.285" width="0.981" height="131.358" style="fill:rgb(232,119,93);" />
                                                            </svg:g>
                                                        </svg:g>
                                                    </svg:g>
                                                </svg:g>
                                            </svg:g>
                                        </svg:g>
                                    </svg:g>
                                </svg:g>
                                <svg:path d="M431.62,98.575C423.424,98.664 413.386,98.171 401.986,96.408C401.986,96.408 411.251,125.325 418.821,145.289C427.566,142.02 434.089,129.3 434.089,114.096C434.09,108.463 433.192,103.173 431.62,98.575Z" style="fill:white;fill-opacity:0.2;fill-rule:nonzero;" />
                            </svg:g>
                            <svg:g opacity="0.3">
                                <svg:path d="M445.419,97.822C440.536,111.84 428.711,145.149 422.984,155.685C425.136,160.664 426.866,163.848 427.775,163.848C431.957,163.848 454.958,96.408 454.958,96.408C454.958,96.408 451.542,97.194 445.419,97.822Z" style="fill:rgb(232,119,93);fill-rule:nonzero;" />
                            </svg:g>
                        </svg:g>
                        <svg:g>
                            <svg:path d="M427.775,164.349C426.887,164.349 424.807,164.349 412.84,130.294C406.981,113.621 401.564,96.73 401.509,96.561L401.263,95.791L402.062,95.915C433.305,100.746 454.633,95.971 454.845,95.922L455.721,95.72L455.431,96.571C455.373,96.739 449.607,113.63 443.403,130.304C430.736,164.349 428.661,164.349 427.775,164.349ZM402.709,97.024C412.943,128.902 425.14,162.784 427.789,163.35C430.419,162.807 443.306,128.957 454.202,97.074C449.923,97.9 430.191,101.153 402.709,97.024Z" style="fill:rgb(21,47,71);fill-rule:nonzero;" />
                        </svg:g>
                    </svg:g>
                    <svg:g>
                        <svg:g>
                            <svg:g>
                                <svg:path d="M458.064,94.072C457.37,88.653 451.535,87.959 451.535,87.959C451.535,87.959 442.088,92.683 428.472,92.683C414.856,92.683 405.409,87.959 405.409,87.959C405.409,87.959 399.573,88.653 398.88,94.072C398.184,99.49 407.354,101.991 407.354,101.991C418.191,104.769 428.472,104.458 428.472,104.458C428.472,104.458 438.752,104.77 449.59,101.991C449.591,101.991 458.761,99.49 458.064,94.072Z" style="fill:rgb(249,153,128);fill-rule:nonzero;" />
                            </svg:g>
                            <svg:g>
                                <svg:path d="M457.197,91.484C455.006,94.63 449.591,96.11 449.591,96.11C438.753,98.888 428.473,98.577 428.473,98.577C428.473,98.577 418.192,98.889 407.355,96.11C407.355,96.11 401.94,94.63 399.748,91.484C399.326,92.197 399.012,93.049 398.881,94.072C398.185,99.49 407.355,101.991 407.355,101.991C418.192,104.769 428.473,104.458 428.473,104.458C428.473,104.458 438.753,104.77 449.591,101.991C449.591,101.991 458.761,99.49 458.065,94.072C457.934,93.05 457.619,92.197 457.197,91.484Z" style="fill:rgb(244,135,113);fill-rule:nonzero;" />
                            </svg:g>
                        </svg:g>
                        <svg:g>
                            <svg:path d="M427.56,104.967C424.813,104.967 416.162,104.766 407.23,102.476C406.831,102.367 397.641,99.792 398.384,94.009C399.118,88.27 405.288,87.47 405.351,87.463L405.499,87.445L405.633,87.512C405.727,87.559 415.144,92.183 428.472,92.183C441.8,92.183 451.217,87.559 451.311,87.512L451.445,87.445L451.593,87.463C451.656,87.47 457.824,88.27 458.56,94.009C459.303,99.792 450.114,102.367 449.722,102.474C438.935,105.24 428.566,104.962 428.456,104.958C428.445,104.959 428.129,104.967 427.56,104.967ZM405.331,88.476C404.46,88.617 399.962,89.564 399.377,94.136C398.744,99.059 407.398,101.485 407.486,101.509C418.117,104.234 428.354,103.964 428.458,103.958C428.59,103.966 438.827,104.234 449.467,101.507C449.547,101.485 458.201,99.059 457.569,94.136L457.569,94.135C456.983,89.563 452.486,88.616 451.615,88.475C450.362,89.064 441.143,93.182 428.473,93.182C415.802,93.183 406.584,89.064 405.331,88.476Z" style="fill:rgb(21,47,71);fill-rule:nonzero;" />
                        </svg:g>
                    </svg:g>
                    <svg:g>
                        <svg:g>
                            <svg:path d="M405.056,89.377C405.056,89.377 397.13,85.599 398.729,76.82C400.327,68.042 410.895,66.749 410.895,66.749C410.895,66.749 404.454,60.423 411.605,54.094C418.756,47.766 425.206,46.067 426.897,41.541C426.897,41.541 446.732,52.627 440.701,63.965C440.701,63.965 452.781,66.02 454.526,75.905C456.269,85.791 450.898,89.063 450.898,89.063C450.898,89.063 426.97,99.682 405.056,89.377Z" style="fill:rgb(255,201,226);fill-rule:nonzero;" />
                            <svg:path d="M414.287,51.892C413.409,52.562 412.513,53.29 411.604,54.094C404.453,60.423 410.894,66.749 410.894,66.749C410.894,66.749 400.326,68.042 398.728,76.82C397.129,85.598 405.055,89.377 405.055,89.377C412.138,92.707 419.427,93.845 426.054,93.87C429.072,89.272 430.799,83.978 430.799,78.339C430.8,67.335 424.251,57.633 414.287,51.892Z" style="fill:white;fill-opacity:0.2;fill-rule:nonzero;" />
                        </svg:g>
                        <svg:g>
                            <svg:g>
                                <svg:path d="M438.442,64.777C432.396,75.307 421.979,66.025 413.563,66.272C412.773,66.294 412.771,67.521 413.563,67.498C419.825,67.314 425.036,71.921 431.523,71.083C434.768,70.664 437.896,68.191 439.501,65.396C439.894,64.709 438.836,64.092 438.442,64.777Z" style="fill:rgb(247,169,208);fill-rule:nonzero;" />
                            </svg:g>
                        </svg:g>
                        <svg:g opacity="0.4">
                            <svg:path d="M454.525,75.905C452.78,66.019 440.7,63.965 440.7,63.965C446.731,52.627 426.896,41.541 426.896,41.541C426.371,42.948 425.383,44.082 424.058,45.167C429.835,49.909 438.455,61.242 434.367,68.93C434.367,68.93 445.779,67.457 447.718,78.44C448.847,84.846 447.29,88.74 445.794,90.882C449.003,89.903 450.898,89.064 450.898,89.064C450.898,89.064 456.269,85.791 454.525,75.905Z" style="fill:rgb(247,169,208);fill-rule:nonzero;" />
                        </svg:g>
                        <svg:g>
                            <svg:path d="M426.194,94.343C419.447,94.343 412.023,93.206 404.842,89.83L404.84,89.829C404.757,89.79 396.588,85.782 398.235,76.732C399.598,69.24 407.286,66.978 409.935,66.416C409.086,65.348 407.661,63.135 407.732,60.388C407.795,57.988 408.985,55.744 411.272,53.721C414.271,51.068 417.096,49.253 419.589,47.652C423.018,45.449 425.495,43.858 426.426,41.368L426.63,40.822L427.139,41.106C427.189,41.134 432.206,43.96 436.411,48.148C441.856,53.572 443.582,58.904 441.431,63.612C444.01,64.225 453.469,67.054 455.016,75.819C456.798,85.925 451.387,89.35 451.156,89.491C450.957,89.582 439.995,94.343 426.194,94.343ZM405.269,88.924C426.715,99.01 450.457,88.711 450.695,88.606C450.843,88.509 455.69,85.386 454.034,75.992C452.369,66.562 440.734,64.477 440.617,64.458L439.934,64.342L440.259,63.73C445.475,53.926 430.094,44.043 427.134,42.261C425.952,44.753 423.359,46.419 420.131,48.491C417.668,50.073 414.877,51.866 411.936,54.468C409.869,56.298 408.791,58.295 408.734,60.403C408.642,63.781 411.22,66.367 411.246,66.392L411.981,67.118L410.956,67.245C410.854,67.258 400.733,68.603 399.222,76.91C397.714,85.186 404.945,88.768 405.272,88.926L405.269,88.924Z" style="fill:rgb(21,47,71);fill-rule:nonzero;" />
                        </svg:g>
                    </svg:g>
                </svg:g>
                <svg:g>
                    <svg:g>
                        <svg:g>
                            <svg:path d="M412.34,80.44C412.057,81.003 411.873,81.617 411.804,82.199C411.722,82.91 412.835,82.902 412.915,82.199C413.098,80.642 414.158,79.347 415.803,79.369C417.469,79.39 418.219,81.268 418.185,82.649C418.167,83.366 419.279,83.364 419.297,82.649C419.351,80.442 418.19,78.233 415.803,78.258C415.011,78.266 414.244,78.543 413.661,78.94C412.829,79.575 412.34,80.44 412.34,80.44Z" style="fill:rgb(21,47,71);fill-rule:nonzero;" />
                        </svg:g>
                        <svg:g>
                            <svg:path d="M441.049,80.44C441.332,81.003 441.516,81.617 441.585,82.199C441.667,82.91 440.554,82.902 440.474,82.199C440.292,80.642 439.231,79.347 437.586,79.369C435.92,79.39 435.171,81.268 435.205,82.649C435.223,83.366 434.111,83.364 434.092,82.649C434.038,80.442 435.197,78.233 437.586,78.258C438.378,78.266 439.147,78.543 439.728,78.94C440.56,79.575 441.049,80.44 441.049,80.44Z" style="fill:rgb(21,47,71);fill-rule:nonzero;" />
                        </svg:g>
                    </svg:g>
                    <svg:g>
                        <svg:g>
                            <svg:path d="M414.701,74.484C414.701,74.484 414.745,74.206 414.987,73.895C415.11,73.739 415.278,73.569 415.508,73.443C415.736,73.312 416.022,73.225 416.323,73.226C416.476,73.22 416.622,73.26 416.765,73.292C416.91,73.321 417.028,73.41 417.149,73.467C417.371,73.615 417.538,73.789 417.64,73.967C417.759,74.124 417.794,74.294 417.834,74.399C417.865,74.509 417.873,74.577 417.873,74.577C417.873,74.577 417.808,74.554 417.704,74.508C417.597,74.466 417.472,74.388 417.312,74.328C417.164,74.253 416.991,74.199 416.822,74.138C416.652,74.108 416.489,74.057 416.318,74.073C416.151,74.053 415.973,74.097 415.795,74.131C415.613,74.17 415.442,74.232 415.277,74.281C414.932,74.402 414.701,74.484 414.701,74.484Z" style="fill:rgb(21,47,71);fill-rule:nonzero;" />
                        </svg:g>
                        <svg:g>
                            <svg:path d="M435.537,74.237C435.537,74.237 435.607,73.967 435.885,73.68C436.022,73.538 436.207,73.388 436.448,73.285C436.686,73.181 436.981,73.121 437.28,73.154C437.433,73.164 437.572,73.219 437.715,73.262C437.855,73.309 437.962,73.409 438.077,73.477C438.282,73.651 438.431,73.841 438.512,74.026C438.615,74.196 438.636,74.368 438.663,74.474C438.681,74.59 438.685,74.655 438.685,74.655C438.685,74.655 438.622,74.628 438.523,74.569C438.423,74.521 438.304,74.426 438.154,74.351C438.008,74.263 437.844,74.185 437.685,74.111C437.515,74.061 437.362,73.994 437.189,73.993C437.023,73.959 436.843,73.983 436.663,73.997C436.479,74.018 436.302,74.061 436.132,74.095C435.774,74.18 435.537,74.237 435.537,74.237Z" style="fill:rgb(21,47,71);fill-rule:nonzero;" />
                        </svg:g>
                    </svg:g>
                    <svg:g>
                        <svg:g>
                            <svg:path d="M417.36,86.082C417.36,87.485 416.221,88.623 414.818,88.623C413.415,88.623 412.278,87.485 412.278,86.082C412.278,84.68 413.415,83.542 414.818,83.542C416.222,83.542 417.36,84.68 417.36,86.082Z" style="fill:rgb(255,129,206);fill-rule:nonzero;" />
                        </svg:g>
                        <svg:g>
                            <svg:path d="M441.111,86.082C441.111,87.485 439.973,88.623 438.57,88.623C437.167,88.623 436.029,87.485 436.029,86.082C436.029,84.68 437.167,83.542 438.57,83.542C439.973,83.542 441.111,84.68 441.111,86.082Z" style="fill:rgb(255,129,206);fill-rule:nonzero;" />
                        </svg:g>
                    </svg:g>
                    <svg:g>
                        <svg:g>
                            <svg:g>
                                <svg:path d="M426.559,83.728C426.559,83.728 427.559,82.009 428.486,81.883C429.414,81.757 430.709,83.074 430.8,83.346C430.8,83.346 428.263,84.175 426.559,83.728Z" style="fill:rgb(255,129,206);fill-rule:nonzero;" />
                            </svg:g>
                            <svg:g>
                                <svg:g>
                                    <svg:path d="M426.936,83.868C427.117,83.445 427.38,83.052 427.694,82.717C428.66,81.685 429.727,82.394 430.478,83.296C430.709,83.573 431.101,83.176 430.874,82.9C430.1,81.97 429.028,81.216 427.84,81.885C427.217,82.235 426.731,82.941 426.453,83.585C426.313,83.914 426.794,84.198 426.936,83.868Z" style="fill:rgb(21,47,71);fill-rule:nonzero;" />
                                </svg:g>
                            </svg:g>
                        </svg:g>
                        <svg:g>
                            <svg:g>
                                <svg:path d="M422.005,83.438C424.991,84.394 428.443,84.574 431.39,83.438C431.723,83.31 431.579,82.77 431.243,82.9C428.38,84.002 425.054,83.828 422.153,82.9C421.809,82.789 421.662,83.329 422.005,83.438Z" style="fill:rgb(21,47,71);fill-rule:nonzero;" />
                            </svg:g>
                        </svg:g>
                    </svg:g>
                </svg:g>
            </svg:g>
            <svg:g>
                <svg:g>
                    <svg:g>
                        <svg:path d="M410.948,109.804C414.039,119.459 417.13,129.114 420.22,138.769C420.658,140.136 421.095,141.503 421.533,142.869C421.775,143.625 423.007,143.404 422.762,142.638C419.671,132.983 416.58,123.328 413.489,113.672C413.051,112.305 412.614,110.939 412.176,109.572C411.934,108.817 410.703,109.039 410.948,109.804Z" style="fill:white;fill-rule:nonzero;" />
                    </svg:g>
                    <svg:path d="M424.119,145.546C424.2,145.976 423.917,146.39 423.487,146.47C423.057,146.551 422.643,146.268 422.563,145.838C422.482,145.408 422.765,144.994 423.195,144.914C423.624,144.833 424.038,145.116 424.119,145.546Z" style="fill:white;fill-rule:nonzero;" />
                </svg:g>
                <svg:g>
                    <svg:path d="M407.42,71.117C404.498,72.393 402.05,75.251 401.747,78.468C401.593,80.103 402.019,81.709 402.67,83.196C402.992,83.931 404.069,83.296 403.749,82.565C402.804,80.405 402.635,77.992 403.843,75.904C404.626,74.55 405.83,73.469 407.163,72.67C407.449,72.498 407.744,72.331 408.05,72.197C408.787,71.875 408.151,70.797 407.42,71.117Z" style="fill:white;fill-rule:nonzero;" />
                </svg:g>
            </svg:g>
        </svg:g>
    </g>
</svg>