<?xml version='1.0' encoding='UTF-8'?>
<svg xmlns="http://www.w3.org/2000/svg" xmlns:xlink="http://www.w3.org/1999/xlink" xmlns:svg="http://www.w3.org/2000/svg" xmlns:serif="http://www.serif.com/" height="100%" style="fill-rule:evenodd;clip-rule:evenodd;" version="1.1" viewBox="580.0 58.0 120.0 24.0" width="100%">
    <g>
        <svg:rect x="580" y="58" width="120" height="24" style="fill:rgb(255,138,216);" />
        <svg:g transform="matrix(1,0,0,1,-1.287,0.537234)">
            <svg:g transform="matrix(0.157337,0,0,0.157337,596.893,5.60491)">
                <svg:g>
                    <svg:g>
                        <svg:g>
                            <svg:g>
                                <svg:g>
                                    <svg:g>
                                        <svg:g>
                                            <svg:path d="M64.977,371.677C64.977,371.677 58.293,368.343 59.931,366.244C61.569,364.145 65.935,368.274 65.935,368.274C65.935,368.274 61.786,360.128 65.962,360.066C70.138,360.003 69.291,366.428 69.061,367.403C69.061,367.403 71.616,361.064 74.067,363.202C76.518,365.34 72.085,370.617 71.703,370.526L64.977,371.677Z" style="fill:rgb(255,129,206);fill-rule:nonzero;" />
                                        </svg:g>
                                        <svg:g>
                                            <svg:g>
                                                <svg:path d="M69.501,369.627C69.501,369.627 72.056,363.288 74.507,365.426C74.591,365.5 74.649,365.585 74.717,365.666C74.903,364.719 74.783,363.825 74.068,363.201C72.344,361.698 70.573,364.381 69.672,366.11C69.828,367.661 69.604,369.19 69.501,369.627Z" style="fill:rgb(247,97,194);fill-rule:nonzero;" />
                                            </svg:g>
                                            <svg:g>
                                                <svg:path d="M66.375,370.498C66.375,370.498 65.715,369.193 65.186,367.627C63.866,366.558 61.148,364.685 59.932,366.243C59.416,366.903 59.726,367.686 60.391,368.449C62.043,366.404 66.375,370.498 66.375,370.498Z" style="fill:rgb(247,97,194);fill-rule:nonzero;" />
                                            </svg:g>
                                            <svg:g>
                                                <svg:path d="M66.402,362.29C67.954,362.267 68.81,363.14 69.264,364.296C69.142,362.263 68.435,360.028 65.963,360.066C63.665,360.1 63.891,362.582 64.556,364.807C64.468,363.418 64.877,362.313 66.402,362.29Z" style="fill:rgb(247,97,194);fill-rule:nonzero;" />
                                            </svg:g>
                                        </svg:g>
                                    </svg:g>
                                    <svg:g>
                                        <svg:path d="M71.788,371.019L64.9,372.197L64.754,372.124C64.239,371.867 59.713,369.554 59.22,367.376C59.101,366.853 59.211,366.355 59.538,365.937C59.906,365.464 60.402,365.207 61.013,365.156C62.183,365.068 63.569,365.825 64.63,366.572C63.9,364.718 63.116,362.025 63.988,360.577C64.261,360.126 64.823,359.584 65.955,359.566C67.093,359.549 68.003,359.954 68.658,360.77C69.522,361.845 69.775,363.468 69.79,364.876C70.494,363.744 71.456,362.58 72.545,362.319C73.191,362.163 73.836,362.339 74.397,362.828C75.565,363.846 75.598,365.594 74.489,367.749C74.268,368.179 72.715,370.814 71.787,371.013L71.788,371.019ZM65.056,371.155L71.584,370.039C72.077,369.682 74.103,367.206 74.291,365.203C74.358,364.491 74.177,363.96 73.74,363.579C73.422,363.302 73.125,363.223 72.779,363.29C71.402,363.62 69.964,366.506 69.527,367.59L68.576,367.288C68.727,366.649 69.212,363.053 67.88,361.396C67.421,360.825 66.796,360.553 65.971,360.565C65.241,360.574 64.98,360.871 64.845,361.091C63.955,362.569 65.653,366.612 66.382,368.045L67.69,370.616L65.593,368.636C64.823,367.909 62.512,366.044 61.088,366.152C60.762,366.175 60.52,366.303 60.327,366.55C60.183,366.734 60.143,366.92 60.196,367.154C60.481,368.416 63.267,370.241 65.056,371.155Z" style="fill:rgb(21,47,71);fill-rule:nonzero;" />
                                    </svg:g>
                                </svg:g>
                                <svg:g>
                                    <svg:g>
                                        <svg:g>
                                            <svg:g>
                                                <svg:path d="M68.057,368.951L68.052,368.924C67.983,368.938 67.919,368.962 67.851,368.978C67.782,368.989 67.714,368.991 67.645,369.005L67.65,369.032C52.732,373.171 69.769,437.43 69.769,437.43L81.634,439.928L81.668,440.101L81.854,439.974L82.074,440.02L82.04,439.847L92.067,433.031C92.068,433.031 83.429,367.116 68.057,368.951Z" style="fill:rgb(118,221,159);fill-rule:nonzero;" />
                                            </svg:g>
                                            <svg:g>
                                                <svg:g>
                                                    <svg:clipPath id="_clip17">
                                                        <svg:path d="M68.057,368.951L68.052,368.924C67.983,368.938 67.919,368.962 67.851,368.978C67.782,368.989 67.714,368.991 67.645,369.005L67.65,369.032C52.732,373.171 69.769,437.43 69.769,437.43L81.634,439.928L81.668,440.101L81.854,439.974L82.074,440.02L82.04,439.847L92.067,433.031C92.068,433.031 83.429,367.116 68.057,368.951Z" />
                                                    </svg:clipPath>
                                                    <svg:g clip-path="url(#_clip17)">
                                                        <svg:g>
                                                            <svg:g>
                                                                <svg:path d="M66.141,363.006C66.756,366.122 67.37,369.237 67.985,372.353C69.47,379.883 70.956,387.414 72.441,394.944C74.23,404.014 76.019,413.084 77.808,422.153C79.356,430.002 80.904,437.85 82.452,445.699C82.966,448.303 83.48,450.908 83.993,453.513C84.23,454.715 84.375,456.054 84.725,457.227C84.74,457.279 84.747,457.337 84.757,457.391C84.931,458.275 85.955,458.074 85.781,457.189C85.166,454.073 84.552,450.958 83.937,447.842C82.452,440.312 80.966,432.781 79.481,425.251C77.692,416.181 75.903,407.111 74.114,398.042C72.566,390.193 71.018,382.345 69.47,374.496C68.956,371.892 68.443,369.287 67.929,366.682C67.692,365.48 67.547,364.141 67.197,362.968C67.182,362.916 67.175,362.858 67.165,362.804C66.991,361.921 65.967,362.121 66.141,363.006Z" style="fill:rgb(85,198,126);fill-rule:nonzero;" />
                                                            </svg:g>
                                                        </svg:g>
                                                        <svg:g>
                                                            <svg:g>
                                                                <svg:path d="M63.178,366.064C63.723,373.113 64.586,380.184 65.531,387.215C67.618,402.736 70.372,418.256 74.208,433.456C76.542,442.702 79.292,451.854 82.735,460.64C83.06,461.468 83.975,460.91 83.65,460.08C77.583,444.599 73.595,428.03 70.489,411.533C68.113,398.916 66.268,386.189 64.924,373.461C64.67,371.053 64.423,368.643 64.237,366.234C64.168,365.35 63.109,365.172 63.178,366.064Z" style="fill:rgb(85,198,126);fill-rule:nonzero;" />
                                                            </svg:g>
                                                        </svg:g>
                                                        <svg:g>
                                                            <svg:g>
                                                                <svg:path d="M70.463,365.007C72.614,371.667 74.474,378.471 76.25,385.266C80.159,400.226 83.462,415.431 85.678,430.75C87.047,440.211 87.988,449.737 88.139,459.195C88.153,460.084 89.213,460.256 89.198,459.365C88.931,442.687 86.339,425.781 82.945,409.287C80.33,396.576 77.171,383.965 73.536,371.55C72.841,369.174 72.137,366.797 71.378,364.447C71.103,363.597 70.19,364.161 70.463,365.007Z" style="fill:rgb(85,198,126);fill-rule:nonzero;" />
                                                            </svg:g>
                                                        </svg:g>
                                                    </svg:g>
                                                </svg:g>
                                            </svg:g>
                                            <svg:g opacity="0.25">
                                                <svg:path d="M62.194,377.478C60.297,387.684 62.818,404.953 65.451,418.346C65.795,418.341 66.138,418.309 66.478,418.241C72.374,417.078 75.331,406.898 73.083,395.502C71.319,386.56 66.875,379.53 62.194,377.478Z" style="fill:white;fill-rule:nonzero;" />
                                            </svg:g>
                                        </svg:g>
                                        <svg:g opacity="0.55">
                                            <svg:path d="M68.057,368.951L68.052,368.924C67.983,368.938 67.919,368.962 67.851,368.978C67.782,368.989 67.714,368.991 67.645,369.005L67.65,369.032C65.699,369.573 64.299,371.15 63.331,373.47C77.469,371.848 85.905,427.522 87.155,436.37L92.067,433.031C92.068,433.031 83.429,367.116 68.057,368.951Z" style="fill:rgb(85,198,126);fill-rule:nonzero;" />
                                        </svg:g>
                                    </svg:g>
                                    <svg:g>
                                        <svg:path d="M81.324,440.939L81.208,440.349L69.365,437.855L69.286,437.557C68.592,434.94 52.617,373.996 67.074,368.692L67.063,368.637L68.445,368.336L68.461,368.417C83.848,367.834 92.212,430.279 92.564,432.964L92.604,433.27L82.596,440.074L82.712,440.663L81.96,440.506L81.324,440.939ZM70.175,437.003L81.75,439.44L81.76,439.433L91.531,432.79C91.213,430.464 89.067,415.251 85.34,400.416C80.071,379.44 74.115,368.731 68.116,369.447L67.9,369.473L67.784,369.513C61.962,371.128 60.519,383.297 63.609,404.703C65.795,419.842 69.586,434.731 70.175,437.003Z" style="fill:rgb(21,47,71);fill-rule:nonzero;" />
                                    </svg:g>
                                </svg:g>
                            </svg:g>
                            <svg:g>
                                <svg:g>
                                    <svg:g>
                                        <svg:path d="M62.958,387.245C63.53,391.43 64.102,395.615 64.675,399.8C64.756,400.392 64.837,400.984 64.918,401.576C65.022,402.339 66.208,402.178 66.103,401.414C65.531,397.229 64.959,393.044 64.386,388.859C64.305,388.267 64.224,387.675 64.143,387.083C64.039,386.321 62.853,386.481 62.958,387.245Z" style="fill:white;fill-rule:nonzero;" />
                                    </svg:g>
                                </svg:g>
                                <svg:g>
                                    <svg:path d="M66.347,403.685C66.387,403.977 66.183,404.245 65.891,404.285C65.599,404.325 65.331,404.121 65.291,403.829C65.251,403.537 65.455,403.269 65.747,403.229C66.039,403.189 66.307,403.393 66.347,403.685Z" style="fill:white;fill-rule:nonzero;" />
                                </svg:g>
                            </svg:g>
                        </svg:g>
                        <svg:g>
                            <svg:g>
                                <svg:g>
                                    <svg:g>
                                        <svg:g>
                                            <svg:path d="M94.959,349.786C94.959,349.786 89.047,345.222 91.06,343.479C93.074,341.737 96.558,346.632 96.558,346.632C96.558,346.632 94.064,337.837 98.173,338.584C102.282,339.331 100.208,345.47 99.793,346.382C99.793,346.382 103.526,340.658 105.517,343.23C107.508,345.802 102.137,350.121 101.78,349.958L94.959,349.786Z" style="fill:rgb(255,129,206);fill-rule:nonzero;" />
                                        </svg:g>
                                        <svg:g>
                                            <svg:g>
                                                <svg:path d="M99.793,348.651C99.793,348.651 103.526,342.927 105.517,345.499C105.586,345.587 105.625,345.682 105.677,345.775C106.043,344.882 106.098,343.982 105.517,343.232C104.117,341.423 101.86,343.714 100.641,345.235C100.494,346.785 99.979,348.242 99.793,348.651Z" style="fill:rgb(247,97,194);fill-rule:nonzero;" />
                                            </svg:g>
                                            <svg:g>
                                                <svg:path d="M96.558,348.901C96.558,348.901 96.163,347.493 95.947,345.855C94.859,344.551 92.555,342.187 91.06,343.481C90.426,344.029 90.579,344.857 91.083,345.734C93.1,344.046 96.558,348.901 96.558,348.901Z" style="fill:rgb(247,97,194);fill-rule:nonzero;" />
                                            </svg:g>
                                            <svg:g>
                                                <svg:path d="M98.173,340.853C99.7,341.13 100.371,342.153 100.593,343.375C100.867,341.357 100.606,339.028 98.173,338.586C95.912,338.175 95.653,340.653 95.875,342.965C96.058,341.585 96.672,340.58 98.173,340.853Z" style="fill:rgb(247,97,194);fill-rule:nonzero;" />
                                            </svg:g>
                                        </svg:g>
                                    </svg:g>
                                    <svg:g>
                                        <svg:path d="M101.768,350.459L94.783,350.282L94.654,350.181C94.199,349.829 90.206,346.684 90.143,344.451C90.128,343.915 90.332,343.447 90.733,343.101C91.185,342.708 91.723,342.551 92.331,342.621C93.496,342.761 94.709,343.772 95.606,344.71C95.248,342.75 95.001,339.956 96.137,338.704C96.491,338.314 97.149,337.89 98.262,338.093C99.382,338.297 100.197,338.87 100.682,339.798C101.321,341.02 101.255,342.659 100.998,344.042C101.908,343.068 103.077,342.113 104.195,342.068C104.865,342.016 105.458,342.337 105.913,342.924C106.862,344.15 106.556,345.871 105.05,347.772C104.75,348.15 102.717,350.435 101.768,350.451L101.768,350.459ZM95.137,349.29L101.757,349.458C102.31,349.203 104.776,347.166 105.348,345.237C105.552,344.551 105.478,343.995 105.122,343.536C104.863,343.202 104.583,343.054 104.236,343.067C102.821,343.124 100.852,345.676 100.213,346.656L99.339,346.176C99.61,345.578 100.783,342.146 99.797,340.262C99.457,339.613 98.897,339.225 98.085,339.077C97.369,338.944 97.053,339.185 96.879,339.376C95.719,340.653 96.603,344.949 97.041,346.496L97.827,349.271L96.153,346.922C95.538,346.06 93.632,343.783 92.214,343.613C91.889,343.573 91.627,343.651 91.39,343.856C91.214,344.008 91.139,344.183 91.145,344.423C91.178,345.717 93.558,348.047 95.137,349.29Z" style="fill:rgb(21,47,71);fill-rule:nonzero;" />
                                    </svg:g>
                                </svg:g>
                                <svg:g>
                                    <svg:g>
                                        <svg:g>
                                            <svg:g>
                                                <svg:path d="M98.451,349.122L98.451,349.094C98.356,349.094 98.266,349.105 98.173,349.108C98.08,349.105 97.989,349.094 97.895,349.094L97.895,349.122C77.189,350.296 82.93,416.637 82.93,416.637L97.895,421.384L97.895,421.56L98.173,421.472L98.451,421.56L98.451,421.384L113.416,416.637C113.416,416.637 119.157,350.296 98.451,349.122Z" style="fill:rgb(118,221,159);fill-rule:nonzero;" />
                                            </svg:g>
                                            <svg:g>
                                                <svg:g>
                                                    <svg:clipPath id="_clip18">
                                                        <svg:path d="M98.451,349.122L98.451,349.094C98.356,349.094 98.266,349.105 98.173,349.108C98.08,349.105 97.989,349.094 97.895,349.094L97.895,349.122C77.189,350.296 82.93,416.637 82.93,416.637L97.895,421.384L97.895,421.56L98.173,421.472L98.451,421.56L98.451,421.384L113.416,416.637C113.416,416.637 119.157,350.296 98.451,349.122Z" />
                                                    </svg:clipPath>
                                                    <svg:g clip-path="url(#_clip18)">
                                                        <svg:g>
                                                            <svg:g>
                                                                <svg:path d="M97.473,342.919L97.473,435.169C97.473,436.394 97.316,437.736 97.473,438.954C97.48,439.008 97.473,439.067 97.473,439.121C97.473,440.022 98.873,440.023 98.873,439.121L98.873,346.871C98.873,345.646 99.03,344.304 98.873,343.086C98.866,343.032 98.873,342.974 98.873,342.919C98.873,342.018 97.473,342.017 97.473,342.919Z" style="fill:rgb(85,198,126);fill-rule:nonzero;" />
                                                            </svg:g>
                                                        </svg:g>
                                                        <svg:g>
                                                            <svg:g>
                                                                <svg:path d="M92.779,345.346C91.666,352.367 90.967,359.471 90.386,366.552C89.103,382.183 88.699,397.943 89.802,413.598C90.473,423.121 91.716,432.632 93.967,441.918C94.179,442.793 95.529,442.422 95.317,441.546C91.351,425.183 90.404,408.156 90.599,391.37C90.748,378.531 91.622,365.688 93.158,352.941C93.448,350.53 93.75,348.117 94.13,345.718C94.269,344.837 92.92,344.457 92.779,345.346Z" style="fill:rgb(85,198,126);fill-rule:nonzero;" />
                                                            </svg:g>
                                                        </svg:g>
                                                        <svg:g>
                                                            <svg:g>
                                                                <svg:path d="M102.641,345.718C103.743,352.669 104.425,359.704 104.998,366.714C106.258,382.148 106.659,397.705 105.599,413.163C104.944,422.711 103.71,432.238 101.454,441.547C101.242,442.422 102.591,442.796 102.804,441.919C106.782,425.504 107.759,408.417 107.575,391.578C107.433,378.601 106.549,365.617 104.989,352.734C104.69,350.268 104.381,347.801 103.992,345.347C103.85,344.458 102.501,344.835 102.641,345.718Z" style="fill:rgb(85,198,126);fill-rule:nonzero;" />
                                                            </svg:g>
                                                        </svg:g>
                                                    </svg:g>
                                                </svg:g>
                                            </svg:g>
                                            <svg:g opacity="0.25">
                                                <svg:path d="M87.654,358.132C82.702,369.251 82.009,388.298 82.238,401.633C83.643,402.885 85.197,403.586 86.834,403.586C93.097,403.586 98.174,393.396 98.174,380.826C98.173,368.81 93.533,358.976 87.654,358.132Z" style="fill:white;fill-rule:nonzero;" />
                                            </svg:g>
                                        </svg:g>
                                        <svg:g opacity="0.55">
                                            <svg:path d="M98.451,349.122L98.451,349.094C98.356,349.094 98.266,349.105 98.173,349.108C98.08,349.105 97.989,349.094 97.895,349.094L97.895,349.122C95.187,349.276 92.935,350.552 91.06,352.64C110.086,353.784 106.737,410.039 106.085,418.962L113.416,416.637C113.416,416.637 119.157,350.296 98.451,349.122Z" style="fill:rgb(85,198,126);fill-rule:nonzero;" />
                                        </svg:g>
                                    </svg:g>
                                    <svg:g>
                                        <svg:path d="M97.395,422.243L97.395,421.75L82.46,417.013L82.431,416.68C82.42,416.556 81.359,404.072 81.812,390.02C82.423,371.078 85.349,358.454 90.508,352.498C92.48,350.223 94.794,348.933 97.394,348.662L97.394,348.623L97.894,348.596C97.957,348.596 98.019,348.6 98.081,348.604L98.182,348.61L98.263,348.604C98.325,348.6 98.386,348.596 98.45,348.596L98.95,348.596L98.95,348.662C101.55,348.933 103.864,350.223 105.836,352.498C110.995,358.453 113.921,371.078 114.532,390.02C114.985,404.072 113.924,416.556 113.913,416.68L113.884,417.013L98.949,421.75L98.949,422.243L98.171,421.997L97.395,422.243ZM83.401,416.262L98.173,420.948L112.945,416.262C113.286,411.903 116.538,366.376 105.081,353.152C103.175,350.952 100.935,349.764 98.423,349.622L98.078,349.604L97.923,349.622C95.411,349.765 93.171,350.953 91.264,353.153C79.808,366.376 83.06,411.902 83.401,416.262Z" style="fill:rgb(21,47,71);fill-rule:nonzero;" />
                                    </svg:g>
                                </svg:g>
                            </svg:g>
                            <svg:g>
                                <svg:g>
                                    <svg:g>
                                        <svg:path d="M88.626,360.444C87.954,364.614 87.283,368.784 86.612,372.954C86.517,373.544 86.422,374.134 86.327,374.723C86.205,375.483 87.385,375.674 87.508,374.913C88.179,370.743 88.851,366.573 89.522,362.403C89.617,361.813 89.712,361.223 89.807,360.634C89.929,359.875 88.749,359.683 88.626,360.444Z" style="fill:white;fill-rule:nonzero;" />
                                    </svg:g>
                                </svg:g>
                                <svg:g>
                                    <svg:path d="M87.08,377.159C87.033,377.45 86.76,377.647 86.469,377.6C86.178,377.553 85.981,377.28 86.028,376.989C86.075,376.698 86.348,376.501 86.639,376.548C86.93,376.595 87.127,376.868 87.08,377.159Z" style="fill:white;fill-rule:nonzero;" />
                                </svg:g>
                            </svg:g>
                        </svg:g>
                        <svg:g>
                            <svg:g>
                                <svg:g>
                                    <svg:g>
                                        <svg:g>
                                            <svg:path d="M124.127,380.833C124.127,380.833 119.033,375.371 121.302,373.978C123.571,372.585 126.216,377.981 126.216,377.981C126.216,377.981 125.18,368.898 129.114,370.301C133.048,371.704 130.006,377.425 129.449,378.259C129.449,378.259 134.061,373.216 135.609,376.076C137.157,378.936 131.157,382.328 130.831,382.109L124.127,380.833Z" style="fill:rgb(255,129,206);fill-rule:nonzero;" />
                                        </svg:g>
                                        <svg:g>
                                            <svg:g>
                                                <svg:path d="M129.081,380.496C129.081,380.496 133.693,375.452 135.241,378.313C135.294,378.411 135.318,378.512 135.354,378.611C135.859,377.789 136.06,376.91 135.608,376.075C134.52,374.063 131.921,375.958 130.472,377.261C130.076,378.768 129.331,380.123 129.081,380.496Z" style="fill:rgb(247,97,194);fill-rule:nonzero;" />
                                            </svg:g>
                                            <svg:g>
                                                <svg:path d="M125.848,380.218C125.848,380.218 125.687,378.765 125.739,377.113C124.876,375.65 122.987,372.944 121.301,373.978C120.587,374.416 120.603,375.258 120.959,376.205C123.224,374.867 125.848,380.218 125.848,380.218Z" style="fill:rgb(247,97,194);fill-rule:nonzero;" />
                                            </svg:g>
                                            <svg:g>
                                                <svg:path d="M128.747,372.539C130.209,373.06 130.705,374.178 130.726,375.419C131.324,373.472 131.443,371.131 129.115,370.301C126.95,369.529 126.294,371.932 126.138,374.25C126.54,372.918 127.31,372.026 128.747,372.539Z" style="fill:rgb(247,97,194);fill-rule:nonzero;" />
                                            </svg:g>
                                        </svg:g>
                                    </svg:g>
                                    <svg:g>
                                        <svg:path d="M130.737,382.601L123.873,381.294L123.762,381.174C123.37,380.753 119.939,377.002 120.24,374.789C120.312,374.257 120.589,373.829 121.041,373.552C121.551,373.238 122.108,373.17 122.696,373.337C123.822,373.664 124.856,374.859 125.589,375.929C125.554,373.937 125.763,371.139 127.087,370.089C127.5,369.76 128.217,369.449 129.283,369.83C130.355,370.213 131.066,370.911 131.395,371.905C131.828,373.214 131.497,374.821 131.019,376.144C132.074,375.331 133.383,374.578 134.493,374.715C135.166,374.781 135.695,375.185 136.05,375.839C136.786,377.2 136.208,378.846 134.422,380.474C133.823,381.021 131.625,382.72 130.74,382.594L130.737,382.601ZM124.383,380.372L130.888,381.611C131.476,381.448 134.24,379.838 135.117,378.027C135.429,377.383 135.445,376.823 135.17,376.313C134.969,375.942 134.716,375.746 134.371,375.707C132.965,375.534 130.609,377.733 129.819,378.596L129.034,377.98C129.399,377.434 131.112,374.237 130.444,372.218C130.214,371.522 129.724,371.049 128.946,370.772C128.261,370.527 127.909,370.712 127.707,370.871C126.505,371.825 126.459,375.703 126.713,377.923L127.04,380.792L125.767,378.2C125.3,377.249 123.788,374.694 122.416,374.297C122.101,374.206 121.831,374.24 121.563,374.403C121.364,374.525 121.262,374.685 121.229,374.923C121.056,376.205 123.027,378.89 124.383,380.372Z" style="fill:rgb(21,47,71);fill-rule:nonzero;" />
                                    </svg:g>
                                </svg:g>
                                <svg:g>
                                    <svg:g>
                                        <svg:g>
                                            <svg:g>
                                                <svg:g>
                                                    <svg:path d="M127.56,379.214L127.565,379.187C127.495,379.176 127.427,379.176 127.358,379.167C127.29,379.153 127.225,379.131 127.156,379.12L127.151,379.147C111.728,377.803 105.199,443.961 105.199,443.961L115.439,450.454L115.41,450.628L115.629,450.575L115.819,450.696L115.848,450.522L127.627,447.646C127.627,447.645 142.602,382.875 127.56,379.214Z" style="fill:rgb(118,221,159);fill-rule:nonzero;" />
                                                </svg:g>
                                                <svg:g>
                                                    <svg:g>
                                                        <svg:clipPath id="_clip19">
                                                            <svg:path d="M127.56,379.214L127.565,379.187C127.495,379.176 127.427,379.176 127.358,379.167C127.29,379.153 127.225,379.131 127.156,379.12L127.151,379.147C111.728,377.803 105.199,443.961 105.199,443.961L115.439,450.454L115.41,450.628L115.629,450.575L115.819,450.696L115.848,450.522L127.627,447.646C127.627,447.645 142.602,382.875 127.56,379.214Z" />
                                                        </svg:clipPath>
                                                        <svg:g clip-path="url(#_clip19)">
                                                            <svg:g>
                                                                <svg:g>
                                                                    <svg:path d="M127.846,372.974C127.331,376.108 126.817,379.241 126.302,382.375C125.058,389.949 123.814,397.523 122.57,405.097C121.072,414.219 119.573,423.342 118.075,432.464C116.778,440.358 115.482,448.252 114.185,456.146C113.755,458.766 113.324,461.385 112.894,464.005C112.695,465.214 112.363,466.519 112.28,467.74C112.276,467.794 112.262,467.851 112.253,467.905C112.107,468.794 113.136,468.964 113.283,468.074C113.798,464.941 114.312,461.807 114.827,458.673C116.071,451.099 117.315,443.525 118.559,435.951C120.057,426.829 121.556,417.706 123.054,408.584C124.351,400.69 125.647,392.796 126.944,384.902C127.374,382.282 127.804,379.663 128.235,377.043C128.434,375.834 128.767,374.529 128.849,373.308C128.853,373.254 128.867,373.197 128.876,373.143C129.022,372.255 127.993,372.084 127.846,372.974Z" style="fill:rgb(85,198,126);fill-rule:nonzero;" />
                                                                </svg:g>
                                                            </svg:g>
                                                            <svg:g>
                                                                <svg:g>
                                                                    <svg:path d="M124,374.802C122.043,381.596 120.377,388.522 118.802,395.439C115.324,410.709 112.473,426.211 110.747,441.792C109.697,451.27 109.07,460.806 109.221,470.241C109.235,471.13 110.289,470.927 110.274,470.037C110.009,453.411 112.072,436.494 114.935,419.954C117.125,407.303 119.851,394.735 123.046,382.342C123.65,379.998 124.263,377.653 124.932,375.332C125.178,374.48 124.247,373.942 124,374.802Z" style="fill:rgb(85,198,126);fill-rule:nonzero;" />
                                                                </svg:g>
                                                            </svg:g>
                                                            <svg:g>
                                                                <svg:g>
                                                                    <svg:path d="M131.194,376.361C130.878,383.353 130.24,390.377 129.525,397.364C127.951,412.746 125.724,428.146 122.438,443.271C120.409,452.613 117.957,461.866 114.788,470.779C114.49,471.617 115.422,472.149 115.721,471.309C121.308,455.592 124.796,438.848 127.39,422.21C129.389,409.387 130.843,396.469 131.783,383.567C131.963,381.098 132.136,378.625 132.247,376.157C132.288,375.264 131.235,375.473 131.194,376.361Z" style="fill:rgb(85,198,126);fill-rule:nonzero;" />
                                                                </svg:g>
                                                            </svg:g>
                                                        </svg:g>
                                                    </svg:g>
                                                </svg:g>
                                            </svg:g>
                                            <svg:g opacity="0.25">
                                                <svg:path d="M115.333,393.295C111.07,404.889 108.246,421.094 106.686,432.032C107.095,432.17 107.515,432.278 107.947,432.349C114.732,433.464 121.677,425.573 123.459,414.724C125.157,404.386 121.548,395.111 115.333,393.295Z" style="fill:white;fill-rule:nonzero;" />
                                            </svg:g>
                                        </svg:g>
                                        <svg:g opacity="0.55">
                                            <svg:path d="M127.56,379.214L127.565,379.187C127.495,379.176 127.427,379.176 127.358,379.167C127.29,379.153 127.225,379.131 127.156,379.12L127.151,379.147C125.134,378.971 123.27,379.959 121.552,381.793C135.364,385.221 123.781,440.327 121.856,449.053L127.626,447.644C127.627,447.645 142.602,382.875 127.56,379.214Z" style="fill:rgb(85,198,126);fill-rule:nonzero;" />
                                        </svg:g>
                                    </svg:g>
                                    <svg:g>
                                        <svg:path d="M114.794,451.292L114.891,450.698L104.67,444.217L104.7,443.91C104.966,441.215 111.331,378.535 126.729,378.626L126.738,378.571L127.236,378.625C127.289,378.634 127.341,378.646 127.392,378.659C127.538,378.678 127.591,378.683 127.645,378.692L128.138,378.773L128.125,378.855C142.743,383.695 128.723,445.117 128.113,447.755L128.043,448.055L116.287,450.926L116.19,451.519L115.54,451.109L114.794,451.292ZM105.728,443.704L115.717,450.038L115.729,450.035L127.207,447.232C127.724,444.942 131.037,429.94 132.738,414.739C135.143,393.245 133.312,381.129 127.442,379.7L127.228,379.648L127.108,379.645C121.088,379.12 115.477,390.017 110.88,411.156C107.63,426.102 105.971,441.368 105.728,443.704Z" style="fill:rgb(21,47,71);fill-rule:nonzero;" />
                                    </svg:g>
                                </svg:g>
                            </svg:g>
                            <svg:g>
                                <svg:g>
                                    <svg:g>
                                        <svg:path d="M115.259,398.746C114.422,402.886 113.585,407.026 112.747,411.166C112.629,411.752 112.51,412.337 112.392,412.923C112.239,413.678 113.412,413.916 113.565,413.16C114.402,409.02 115.239,404.88 116.077,400.74C116.195,400.154 116.314,399.569 116.432,398.983C116.584,398.229 115.412,397.991 115.259,398.746Z" style="fill:white;fill-rule:nonzero;" />
                                    </svg:g>
                                </svg:g>
                                <svg:g>
                                    <svg:path d="M113.048,415.386C112.99,415.674 112.708,415.861 112.42,415.803C112.132,415.745 111.945,415.463 112.003,415.175C112.061,414.886 112.343,414.7 112.631,414.758C112.92,414.816 113.106,415.097 113.048,415.386Z" style="fill:white;fill-rule:nonzero;" />
                                </svg:g>
                            </svg:g>
                        </svg:g>
                    </svg:g>
                    <svg:g>
                        <svg:g>
                            <svg:path d="M98.391,421.114C98.391,421.114 65.665,419.619 54.529,414.394C54.529,414.394 55.936,448.595 58.008,454.658C60.079,460.72 66.532,465.527 98.391,465.527C130.25,465.527 136.702,460.72 138.774,454.658C140.846,448.596 142.253,414.394 142.253,414.394C131.116,419.62 98.391,421.114 98.391,421.114Z" style="fill:rgb(255,201,226);fill-rule:nonzero;" />
                        </svg:g>
                        <svg:g>
                            <svg:path d="M130.263,417.728C129.717,428.178 128.595,446.112 127.149,450.344C125.078,456.406 118.625,461.213 86.766,461.213C75.416,461.213 67.303,460.6 61.452,459.541C65.99,463.109 75.8,465.527 98.391,465.527C130.25,465.527 136.702,460.72 138.774,454.658C140.846,448.595 142.253,414.394 142.253,414.394C139.382,415.741 135.073,416.838 130.263,417.728Z" style="fill:rgb(244,193,221);fill-rule:nonzero;" />
                        </svg:g>
                        <svg:g>
                            <svg:path d="M98.391,466.026C67.661,466.026 59.833,461.546 57.535,454.819C55.464,448.758 54.087,415.813 54.03,414.414L53.996,413.591L54.742,413.941C65.539,419.007 97.367,420.566 98.391,420.614C99.416,420.566 131.244,419.007 142.04,413.941L142.786,413.591L142.752,414.414C142.694,415.813 141.318,448.758 139.247,454.819C136.948,461.546 129.121,466.026 98.391,466.026ZM55.063,415.178C55.293,420.377 56.632,449.084 58.481,454.495C60.222,459.591 64.885,465.026 98.391,465.026C131.896,465.026 136.559,459.59 138.301,454.495C140.15,449.084 141.49,420.377 141.719,415.178C130.016,420.118 99.725,421.554 98.414,421.614L98.391,421.616L98.368,421.614C97.057,421.554 66.767,420.118 55.063,415.178Z" style="fill:rgb(21,47,71);fill-rule:nonzero;" />
                        </svg:g>
                        <svg:path d="M98.613,421.103C98.481,421.11 98.391,421.114 98.391,421.114C98.391,421.114 65.665,419.619 54.529,414.394C54.529,414.394 55.552,439.225 57.136,450.318C77.805,447.568 94.205,435.961 98.613,421.103Z" style="fill:white;fill-opacity:0.25;fill-rule:nonzero;" />
                    </svg:g>
                    <svg:g>
                        <svg:g>
                            <svg:g>
                                <svg:path d="M146.48,409.885C146.141,405.031 142.529,403.451 139.707,404.805C136.885,406.16 119.388,412.255 98.391,412.255C77.395,412.255 59.898,406.159 57.075,404.805C54.253,403.45 50.641,405.031 50.302,409.885C49.963,414.739 54.027,416.094 54.027,416.094C71.298,424.335 98.39,424.447 98.39,424.447C98.39,424.447 125.482,424.334 142.753,416.094C142.754,416.094 146.818,414.739 146.48,409.885Z" style="fill:rgb(255,201,226);fill-rule:nonzero;" />
                            </svg:g>
                            <svg:g>
                                <svg:path d="M146.317,408.729C145.579,411.867 142.754,412.82 142.754,412.82C125.483,421.061 98.391,421.173 98.391,421.173C98.391,421.173 71.299,421.06 54.028,412.82C54.028,412.82 51.203,411.867 50.465,408.729C50.392,409.094 50.332,409.473 50.303,409.885C49.964,414.739 54.028,416.094 54.028,416.094C71.299,424.335 98.391,424.447 98.391,424.447C98.391,424.447 125.483,424.334 142.754,416.094C142.754,416.094 146.818,414.739 146.479,409.885C146.451,409.474 146.391,409.094 146.317,408.729Z" style="fill:rgb(242,167,205);fill-rule:nonzero;" />
                            </svg:g>
                        </svg:g>
                        <svg:g>
                            <svg:path d="M98.393,424.947C98.117,424.946 70.986,424.738 53.812,416.545C53.801,416.545 49.443,415.018 49.803,409.85C49.977,407.365 50.994,405.46 52.666,404.488C54.053,403.68 55.782,403.632 57.292,404.355C59.828,405.573 77.174,411.756 98.391,411.756C119.605,411.756 136.953,405.572 139.49,404.355C140.999,403.633 142.729,403.681 144.116,404.488C145.788,405.461 146.805,407.365 146.978,409.85C147.339,415.032 142.957,416.554 142.912,416.569C125.796,424.738 98.665,424.946 98.393,424.947ZM55.072,404.838C54.408,404.838 53.757,405.01 53.169,405.352C51.792,406.153 50.951,407.776 50.801,409.92C50.494,414.313 54.036,415.568 54.187,415.62C71.216,423.741 98.123,423.946 98.393,423.947C98.659,423.946 125.569,423.739 142.539,415.642C142.745,415.568 146.287,414.312 145.98,409.919C145.831,407.774 144.99,406.152 143.613,405.351C142.496,404.701 141.151,404.666 139.923,405.256C137.353,406.489 119.794,412.755 98.391,412.755C76.986,412.755 59.429,406.489 56.859,405.256C56.277,404.978 55.669,404.838 55.072,404.838Z" style="fill:rgb(21,47,71);fill-rule:nonzero;" />
                        </svg:g>
                    </svg:g>
                    <svg:g>
                        <svg:g>
                            <svg:g>
                                <svg:path d="M57.917,425.077C58.282,429.285 58.648,433.493 59.014,437.701C59.066,438.296 59.117,438.891 59.169,439.486C59.236,440.253 60.427,440.15 60.361,439.382C59.996,435.174 59.63,430.966 59.264,426.758C59.212,426.163 59.161,425.568 59.109,424.973C59.042,424.207 57.851,424.309 57.917,425.077Z" style="fill:white;fill-rule:nonzero;" />
                            </svg:g>
                        </svg:g>
                        <svg:g>
                            <svg:path d="M60.493,441.664C60.519,441.957 60.301,442.216 60.008,442.241C59.715,442.266 59.457,442.049 59.431,441.756C59.406,441.463 59.623,441.204 59.916,441.179C60.21,441.154 60.468,441.371 60.493,441.664Z" style="fill:white;fill-rule:nonzero;" />
                        </svg:g>
                    </svg:g>
                </svg:g>
                <svg:g>
                    <svg:g>
                        <svg:g>
                            <svg:g>
                                <svg:path d="M105.243,446.593C102.604,446.418 94.884,446.418 91.539,446.593C91.539,446.593 91.228,452.428 98.391,452.428C105.555,452.428 105.243,446.593 105.243,446.593Z" style="fill:rgb(21,47,71);fill-rule:nonzero;" />
                            </svg:g>
                            <svg:g>
                                <svg:path d="M98.39,452.428C100.263,452.428 101.613,452.026 102.604,451.437C101.818,450.271 100.229,449.47 98.39,449.47C96.554,449.47 94.965,450.271 94.178,451.437C95.168,452.026 96.519,452.428 98.39,452.428Z" style="fill:rgb(255,129,206);fill-rule:nonzero;" />
                            </svg:g>
                        </svg:g>
                        <svg:g>
                            <svg:g>
                                <svg:g>
                                    <svg:g>
                                        <svg:path d="M80.029,444.927C80.035,443.381 80.216,441.835 80.681,440.357C81.004,439.332 81.48,438.21 82.325,437.501C82.921,437.001 83.565,436.931 84.199,437.334C85.048,437.873 85.56,438.934 85.895,439.843C86.494,441.467 86.716,443.203 86.723,444.927C86.726,445.697 87.922,445.698 87.919,444.927C87.912,443.164 87.694,441.363 87.109,439.693C86.682,438.474 86.057,437.221 84.995,436.435C84.12,435.788 82.998,435.696 82.047,436.241C80.954,436.869 80.288,438.069 79.83,439.199C79.098,441.001 78.841,442.993 78.833,444.927C78.83,445.697 80.026,445.698 80.029,444.927Z" style="fill:rgb(21,47,71);fill-rule:nonzero;" />
                                    </svg:g>
                                </svg:g>
                            </svg:g>
                            <svg:g>
                                <svg:g>
                                    <svg:g>
                                        <svg:path d="M110.059,444.927C110.065,443.381 110.246,441.835 110.712,440.357C111.035,439.332 111.511,438.21 112.356,437.501C112.952,437.001 113.596,436.931 114.23,437.334C115.079,437.873 115.592,438.934 115.927,439.843C116.526,441.467 116.748,443.203 116.755,444.927C116.758,445.697 117.954,445.698 117.951,444.927C117.944,443.164 117.726,441.363 117.141,439.693C116.714,438.474 116.089,437.221 115.027,436.435C114.152,435.788 113.03,435.696 112.079,436.241C110.986,436.869 110.32,438.069 109.862,439.199C109.13,441.001 108.873,442.993 108.865,444.927C108.86,445.697 110.056,445.698 110.059,444.927Z" style="fill:rgb(21,47,71);fill-rule:nonzero;" />
                                    </svg:g>
                                </svg:g>
                            </svg:g>
                        </svg:g>
                    </svg:g>
                    <svg:g>
                        <svg:g>
                            <svg:path d="M84.605,447.269C84.301,448.067 82.204,448.007 79.921,447.136C77.638,446.265 76.035,444.913 76.339,444.115C76.643,443.317 78.74,443.377 81.023,444.248C83.306,445.119 84.909,446.471 84.605,447.269Z" style="fill:rgb(255,129,206);fill-rule:nonzero;" />
                        </svg:g>
                        <svg:g>
                            <svg:path d="M112.177,447.269C112.481,448.067 114.578,448.007 116.861,447.136C119.143,446.265 120.747,444.913 120.443,444.115C120.139,443.317 118.042,443.377 115.759,444.248C113.476,445.119 111.873,446.471 112.177,447.269Z" style="fill:rgb(255,129,206);fill-rule:nonzero;" />
                        </svg:g>
                    </svg:g>
                </svg:g>
            </svg:g>
            <svg:g transform="matrix(0.157337,0,0,0.157337,639.524,5.60491)">
                <svg:g>
                    <svg:g>
                        <svg:g>
                            <svg:g>
                                <svg:g>
                                    <svg:g>
                                        <svg:g>
                                            <svg:path d="M64.977,371.677C64.977,371.677 58.293,368.343 59.931,366.244C61.569,364.145 65.935,368.274 65.935,368.274C65.935,368.274 61.786,360.128 65.962,360.066C70.138,360.003 69.291,366.428 69.061,367.403C69.061,367.403 71.616,361.064 74.067,363.202C76.518,365.34 72.085,370.617 71.703,370.526L64.977,371.677Z" style="fill:rgb(255,129,206);fill-rule:nonzero;" />
                                        </svg:g>
                                        <svg:g>
                                            <svg:g>
                                                <svg:path d="M69.501,369.627C69.501,369.627 72.056,363.288 74.507,365.426C74.591,365.5 74.649,365.585 74.717,365.666C74.903,364.719 74.783,363.825 74.068,363.201C72.344,361.698 70.573,364.381 69.672,366.11C69.828,367.661 69.604,369.19 69.501,369.627Z" style="fill:rgb(247,97,194);fill-rule:nonzero;" />
                                            </svg:g>
                                            <svg:g>
                                                <svg:path d="M66.375,370.498C66.375,370.498 65.715,369.193 65.186,367.627C63.866,366.558 61.148,364.685 59.932,366.243C59.416,366.903 59.726,367.686 60.391,368.449C62.043,366.404 66.375,370.498 66.375,370.498Z" style="fill:rgb(247,97,194);fill-rule:nonzero;" />
                                            </svg:g>
                                            <svg:g>
                                                <svg:path d="M66.402,362.29C67.954,362.267 68.81,363.14 69.264,364.296C69.142,362.263 68.435,360.028 65.963,360.066C63.665,360.1 63.891,362.582 64.556,364.807C64.468,363.418 64.877,362.313 66.402,362.29Z" style="fill:rgb(247,97,194);fill-rule:nonzero;" />
                                            </svg:g>
                                        </svg:g>
                                    </svg:g>
                                    <svg:g>
                                        <svg:path d="M71.788,371.019L64.9,372.197L64.754,372.124C64.239,371.867 59.713,369.554 59.22,367.376C59.101,366.853 59.211,366.355 59.538,365.937C59.906,365.464 60.402,365.207 61.013,365.156C62.183,365.068 63.569,365.825 64.63,366.572C63.9,364.718 63.116,362.025 63.988,360.577C64.261,360.126 64.823,359.584 65.955,359.566C67.093,359.549 68.003,359.954 68.658,360.77C69.522,361.845 69.775,363.468 69.79,364.876C70.494,363.744 71.456,362.58 72.545,362.319C73.191,362.163 73.836,362.339 74.397,362.828C75.565,363.846 75.598,365.594 74.489,367.749C74.268,368.179 72.715,370.814 71.787,371.013L71.788,371.019ZM65.056,371.155L71.584,370.039C72.077,369.682 74.103,367.206 74.291,365.203C74.358,364.491 74.177,363.96 73.74,363.579C73.422,363.302 73.125,363.223 72.779,363.29C71.402,363.62 69.964,366.506 69.527,367.59L68.576,367.288C68.727,366.649 69.212,363.053 67.88,361.396C67.421,360.825 66.796,360.553 65.971,360.565C65.241,360.574 64.98,360.871 64.845,361.091C63.955,362.569 65.653,366.612 66.382,368.045L67.69,370.616L65.593,368.636C64.823,367.909 62.512,366.044 61.088,366.152C60.762,366.175 60.52,366.303 60.327,366.55C60.183,366.734 60.143,366.92 60.196,367.154C60.481,368.416 63.267,370.241 65.056,371.155Z" style="fill:rgb(21,47,71);fill-rule:nonzero;" />
                                    </svg:g>
                                </svg:g>
                                <svg:g>
                                    <svg:g>
                                        <svg:g>
                                            <svg:g>
                                                <svg:path d="M68.057,368.951L68.052,368.924C67.983,368.938 67.919,368.962 67.851,368.978C67.782,368.989 67.714,368.991 67.645,369.005L67.65,369.032C52.732,373.171 69.769,437.43 69.769,437.43L81.634,439.928L81.668,440.101L81.854,439.974L82.074,440.02L82.04,439.847L92.067,433.031C92.068,433.031 83.429,367.116 68.057,368.951Z" style="fill:rgb(118,221,159);fill-rule:nonzero;" />
                                            </svg:g>
                                            <svg:g>
                                                <svg:g>
                                                    <svg:clipPath id="_clip20">
                                                        <svg:path d="M68.057,368.951L68.052,368.924C67.983,368.938 67.919,368.962 67.851,368.978C67.782,368.989 67.714,368.991 67.645,369.005L67.65,369.032C52.732,373.171 69.769,437.43 69.769,437.43L81.634,439.928L81.668,440.101L81.854,439.974L82.074,440.02L82.04,439.847L92.067,433.031C92.068,433.031 83.429,367.116 68.057,368.951Z" />
                                                    </svg:clipPath>
                                                    <svg:g clip-path="url(#_clip20)">
                                                        <svg:g>
                                                            <svg:g>
                                                                <svg:path d="M66.141,363.006C66.756,366.122 67.37,369.237 67.985,372.353C69.47,379.883 70.956,387.414 72.441,394.944C74.23,404.014 76.019,413.084 77.808,422.153C79.356,430.002 80.904,437.85 82.452,445.699C82.966,448.303 83.48,450.908 83.993,453.513C84.23,454.715 84.375,456.054 84.725,457.227C84.74,457.279 84.747,457.337 84.757,457.391C84.931,458.275 85.955,458.074 85.781,457.189C85.166,454.073 84.552,450.958 83.937,447.842C82.452,440.312 80.966,432.781 79.481,425.251C77.692,416.181 75.903,407.111 74.114,398.042C72.566,390.193 71.018,382.345 69.47,374.496C68.956,371.892 68.443,369.287 67.929,366.682C67.692,365.48 67.547,364.141 67.197,362.968C67.182,362.916 67.175,362.858 67.165,362.804C66.991,361.921 65.967,362.121 66.141,363.006Z" style="fill:rgb(85,198,126);fill-rule:nonzero;" />
                                                            </svg:g>
                                                        </svg:g>
                                                        <svg:g>
                                                            <svg:g>
                                                                <svg:path d="M63.178,366.064C63.723,373.113 64.586,380.184 65.531,387.215C67.618,402.736 70.372,418.256 74.208,433.456C76.542,442.702 79.292,451.854 82.735,460.64C83.06,461.468 83.975,460.91 83.65,460.08C77.583,444.599 73.595,428.03 70.489,411.533C68.113,398.916 66.268,386.189 64.924,373.461C64.67,371.053 64.423,368.643 64.237,366.234C64.168,365.35 63.109,365.172 63.178,366.064Z" style="fill:rgb(85,198,126);fill-rule:nonzero;" />
                                                            </svg:g>
                                                        </svg:g>
                                                        <svg:g>
                                                            <svg:g>
                                                                <svg:path d="M70.463,365.007C72.614,371.667 74.474,378.471 76.25,385.266C80.159,400.226 83.462,415.431 85.678,430.75C87.047,440.211 87.988,449.737 88.139,459.195C88.153,460.084 89.213,460.256 89.198,459.365C88.931,442.687 86.339,425.781 82.945,409.287C80.33,396.576 77.171,383.965 73.536,371.55C72.841,369.174 72.137,366.797 71.378,364.447C71.103,363.597 70.19,364.161 70.463,365.007Z" style="fill:rgb(85,198,126);fill-rule:nonzero;" />
                                                            </svg:g>
                                                        </svg:g>
                                                    </svg:g>
                                                </svg:g>
                                            </svg:g>
                                            <svg:g opacity="0.25">
                                                <svg:path d="M62.194,377.478C60.297,387.684 62.818,404.953 65.451,418.346C65.795,418.341 66.138,418.309 66.478,418.241C72.374,417.078 75.331,406.898 73.083,395.502C71.319,386.56 66.875,379.53 62.194,377.478Z" style="fill:white;fill-rule:nonzero;" />
                                            </svg:g>
                                        </svg:g>
                                        <svg:g opacity="0.55">
                                            <svg:path d="M68.057,368.951L68.052,368.924C67.983,368.938 67.919,368.962 67.851,368.978C67.782,368.989 67.714,368.991 67.645,369.005L67.65,369.032C65.699,369.573 64.299,371.15 63.331,373.47C77.469,371.848 85.905,427.522 87.155,436.37L92.067,433.031C92.068,433.031 83.429,367.116 68.057,368.951Z" style="fill:rgb(85,198,126);fill-rule:nonzero;" />
                                        </svg:g>
                                    </svg:g>
                                    <svg:g>
                                        <svg:path d="M81.324,440.939L81.208,440.349L69.365,437.855L69.286,437.557C68.592,434.94 52.617,373.996 67.074,368.692L67.063,368.637L68.445,368.336L68.461,368.417C83.848,367.834 92.212,430.279 92.564,432.964L92.604,433.27L82.596,440.074L82.712,440.663L81.96,440.506L81.324,440.939ZM70.175,437.003L81.75,439.44L81.76,439.433L91.531,432.79C91.213,430.464 89.067,415.251 85.34,400.416C80.071,379.44 74.115,368.731 68.116,369.447L67.9,369.473L67.784,369.513C61.962,371.128 60.519,383.297 63.609,404.703C65.795,419.842 69.586,434.731 70.175,437.003Z" style="fill:rgb(21,47,71);fill-rule:nonzero;" />
                                    </svg:g>
                                </svg:g>
                            </svg:g>
                            <svg:g>
                                <svg:g>
                                    <svg:g>
                                        <svg:path d="M62.958,387.245C63.53,391.43 64.102,395.615 64.675,399.8C64.756,400.392 64.837,400.984 64.918,401.576C65.022,402.339 66.208,402.178 66.103,401.414C65.531,397.229 64.959,393.044 64.386,388.859C64.305,388.267 64.224,387.675 64.143,387.083C64.039,386.321 62.853,386.481 62.958,387.245Z" style="fill:white;fill-rule:nonzero;" />
                                    </svg:g>
                                </svg:g>
                                <svg:g>
                                    <svg:path d="M66.347,403.685C66.387,403.977 66.183,404.245 65.891,404.285C65.599,404.325 65.331,404.121 65.291,403.829C65.251,403.537 65.455,403.269 65.747,403.229C66.039,403.189 66.307,403.393 66.347,403.685Z" style="fill:white;fill-rule:nonzero;" />
                                </svg:g>
                            </svg:g>
                        </svg:g>
                        <svg:g>
                            <svg:g>
                                <svg:g>
                                    <svg:g>
                                        <svg:g>
                                            <svg:path d="M94.959,349.786C94.959,349.786 89.047,345.222 91.06,343.479C93.074,341.737 96.558,346.632 96.558,346.632C96.558,346.632 94.064,337.837 98.173,338.584C102.282,339.331 100.208,345.47 99.793,346.382C99.793,346.382 103.526,340.658 105.517,343.23C107.508,345.802 102.137,350.121 101.78,349.958L94.959,349.786Z" style="fill:rgb(255,129,206);fill-rule:nonzero;" />
                                        </svg:g>
                                        <svg:g>
                                            <svg:g>
                                                <svg:path d="M99.793,348.651C99.793,348.651 103.526,342.927 105.517,345.499C105.586,345.587 105.625,345.682 105.677,345.775C106.043,344.882 106.098,343.982 105.517,343.232C104.117,341.423 101.86,343.714 100.641,345.235C100.494,346.785 99.979,348.242 99.793,348.651Z" style="fill:rgb(247,97,194);fill-rule:nonzero;" />
                                            </svg:g>
                                            <svg:g>
                                                <svg:path d="M96.558,348.901C96.558,348.901 96.163,347.493 95.947,345.855C94.859,344.551 92.555,342.187 91.06,343.481C90.426,344.029 90.579,344.857 91.083,345.734C93.1,344.046 96.558,348.901 96.558,348.901Z" style="fill:rgb(247,97,194);fill-rule:nonzero;" />
                                            </svg:g>
                                            <svg:g>
                                                <svg:path d="M98.173,340.853C99.7,341.13 100.371,342.153 100.593,343.375C100.867,341.357 100.606,339.028 98.173,338.586C95.912,338.175 95.653,340.653 95.875,342.965C96.058,341.585 96.672,340.58 98.173,340.853Z" style="fill:rgb(247,97,194);fill-rule:nonzero;" />
                                            </svg:g>
                                        </svg:g>
                                    </svg:g>
                                    <svg:g>
                                        <svg:path d="M101.768,350.459L94.783,350.282L94.654,350.181C94.199,349.829 90.206,346.684 90.143,344.451C90.128,343.915 90.332,343.447 90.733,343.101C91.185,342.708 91.723,342.551 92.331,342.621C93.496,342.761 94.709,343.772 95.606,344.71C95.248,342.75 95.001,339.956 96.137,338.704C96.491,338.314 97.149,337.89 98.262,338.093C99.382,338.297 100.197,338.87 100.682,339.798C101.321,341.02 101.255,342.659 100.998,344.042C101.908,343.068 103.077,342.113 104.195,342.068C104.865,342.016 105.458,342.337 105.913,342.924C106.862,344.15 106.556,345.871 105.05,347.772C104.75,348.15 102.717,350.435 101.768,350.451L101.768,350.459ZM95.137,349.29L101.757,349.458C102.31,349.203 104.776,347.166 105.348,345.237C105.552,344.551 105.478,343.995 105.122,343.536C104.863,343.202 104.583,343.054 104.236,343.067C102.821,343.124 100.852,345.676 100.213,346.656L99.339,346.176C99.61,345.578 100.783,342.146 99.797,340.262C99.457,339.613 98.897,339.225 98.085,339.077C97.369,338.944 97.053,339.185 96.879,339.376C95.719,340.653 96.603,344.949 97.041,346.496L97.827,349.271L96.153,346.922C95.538,346.06 93.632,343.783 92.214,343.613C91.889,343.573 91.627,343.651 91.39,343.856C91.214,344.008 91.139,344.183 91.145,344.423C91.178,345.717 93.558,348.047 95.137,349.29Z" style="fill:rgb(21,47,71);fill-rule:nonzero;" />
                                    </svg:g>
                                </svg:g>
                                <svg:g>
                                    <svg:g>
                                        <svg:g>
                                            <svg:g>
                                                <svg:path d="M98.451,349.122L98.451,349.094C98.356,349.094 98.266,349.105 98.173,349.108C98.08,349.105 97.989,349.094 97.895,349.094L97.895,349.122C77.189,350.296 82.93,416.637 82.93,416.637L97.895,421.384L97.895,421.56L98.173,421.472L98.451,421.56L98.451,421.384L113.416,416.637C113.416,416.637 119.157,350.296 98.451,349.122Z" style="fill:rgb(118,221,159);fill-rule:nonzero;" />
                                            </svg:g>
                                            <svg:g>
                                                <svg:g>
                                                    <svg:clipPath id="_clip21">
                                                        <svg:path d="M98.451,349.122L98.451,349.094C98.356,349.094 98.266,349.105 98.173,349.108C98.08,349.105 97.989,349.094 97.895,349.094L97.895,349.122C77.189,350.296 82.93,416.637 82.93,416.637L97.895,421.384L97.895,421.56L98.173,421.472L98.451,421.56L98.451,421.384L113.416,416.637C113.416,416.637 119.157,350.296 98.451,349.122Z" />
                                                    </svg:clipPath>
                                                    <svg:g clip-path="url(#_clip21)">
                                                        <svg:g>
                                                            <svg:g>
                                                                <svg:path d="M97.473,342.919L97.473,435.169C97.473,436.394 97.316,437.736 97.473,438.954C97.48,439.008 97.473,439.067 97.473,439.121C97.473,440.022 98.873,440.023 98.873,439.121L98.873,346.871C98.873,345.646 99.03,344.304 98.873,343.086C98.866,343.032 98.873,342.974 98.873,342.919C98.873,342.018 97.473,342.017 97.473,342.919Z" style="fill:rgb(85,198,126);fill-rule:nonzero;" />
                                                            </svg:g>
                                                        </svg:g>
                                                        <svg:g>
                                                            <svg:g>
                                                                <svg:path d="M92.779,345.346C91.666,352.367 90.967,359.471 90.386,366.552C89.103,382.183 88.699,397.943 89.802,413.598C90.473,423.121 91.716,432.632 93.967,441.918C94.179,442.793 95.529,442.422 95.317,441.546C91.351,425.183 90.404,408.156 90.599,391.37C90.748,378.531 91.622,365.688 93.158,352.941C93.448,350.53 93.75,348.117 94.13,345.718C94.269,344.837 92.92,344.457 92.779,345.346Z" style="fill:rgb(85,198,126);fill-rule:nonzero;" />
                                                            </svg:g>
                                                        </svg:g>
                                                        <svg:g>
                                                            <svg:g>
                                                                <svg:path d="M102.641,345.718C103.743,352.669 104.425,359.704 104.998,366.714C106.258,382.148 106.659,397.705 105.599,413.163C104.944,422.711 103.71,432.238 101.454,441.547C101.242,442.422 102.591,442.796 102.804,441.919C106.782,425.504 107.759,408.417 107.575,391.578C107.433,378.601 106.549,365.617 104.989,352.734C104.69,350.268 104.381,347.801 103.992,345.347C103.85,344.458 102.501,344.835 102.641,345.718Z" style="fill:rgb(85,198,126);fill-rule:nonzero;" />
                                                            </svg:g>
                                                        </svg:g>
                                                    </svg:g>
                                                </svg:g>
                                            </svg:g>
                                            <svg:g opacity="0.25">
                                                <svg:path d="M87.654,358.132C82.702,369.251 82.009,388.298 82.238,401.633C83.643,402.885 85.197,403.586 86.834,403.586C93.097,403.586 98.174,393.396 98.174,380.826C98.173,368.81 93.533,358.976 87.654,358.132Z" style="fill:white;fill-rule:nonzero;" />
                                            </svg:g>
                                        </svg:g>
                                        <svg:g opacity="0.55">
                                            <svg:path d="M98.451,349.122L98.451,349.094C98.356,349.094 98.266,349.105 98.173,349.108C98.08,349.105 97.989,349.094 97.895,349.094L97.895,349.122C95.187,349.276 92.935,350.552 91.06,352.64C110.086,353.784 106.737,410.039 106.085,418.962L113.416,416.637C113.416,416.637 119.157,350.296 98.451,349.122Z" style="fill:rgb(85,198,126);fill-rule:nonzero;" />
                                        </svg:g>
                                    </svg:g>
                                    <svg:g>
                                        <svg:path d="M97.395,422.243L97.395,421.75L82.46,417.013L82.431,416.68C82.42,416.556 81.359,404.072 81.812,390.02C82.423,371.078 85.349,358.454 90.508,352.498C92.48,350.223 94.794,348.933 97.394,348.662L97.394,348.623L97.894,348.596C97.957,348.596 98.019,348.6 98.081,348.604L98.182,348.61L98.263,348.604C98.325,348.6 98.386,348.596 98.45,348.596L98.95,348.596L98.95,348.662C101.55,348.933 103.864,350.223 105.836,352.498C110.995,358.453 113.921,371.078 114.532,390.02C114.985,404.072 113.924,416.556 113.913,416.68L113.884,417.013L98.949,421.75L98.949,422.243L98.171,421.997L97.395,422.243ZM83.401,416.262L98.173,420.948L112.945,416.262C113.286,411.903 116.538,366.376 105.081,353.152C103.175,350.952 100.935,349.764 98.423,349.622L98.078,349.604L97.923,349.622C95.411,349.765 93.171,350.953 91.264,353.153C79.808,366.376 83.06,411.902 83.401,416.262Z" style="fill:rgb(21,47,71);fill-rule:nonzero;" />
                                    </svg:g>
                                </svg:g>
                            </svg:g>
                            <svg:g>
                                <svg:g>
                                    <svg:g>
                                        <svg:path d="M88.626,360.444C87.954,364.614 87.283,368.784 86.612,372.954C86.517,373.544 86.422,374.134 86.327,374.723C86.205,375.483 87.385,375.674 87.508,374.913C88.179,370.743 88.851,366.573 89.522,362.403C89.617,361.813 89.712,361.223 89.807,360.634C89.929,359.875 88.749,359.683 88.626,360.444Z" style="fill:white;fill-rule:nonzero;" />
                                    </svg:g>
                                </svg:g>
                                <svg:g>
                                    <svg:path d="M87.08,377.159C87.033,377.45 86.76,377.647 86.469,377.6C86.178,377.553 85.981,377.28 86.028,376.989C86.075,376.698 86.348,376.501 86.639,376.548C86.93,376.595 87.127,376.868 87.08,377.159Z" style="fill:white;fill-rule:nonzero;" />
                                </svg:g>
                            </svg:g>
                        </svg:g>
                        <svg:g>
                            <svg:g>
                                <svg:g>
                                    <svg:g>
                                        <svg:g>
                                            <svg:path d="M124.127,380.833C124.127,380.833 119.033,375.371 121.302,373.978C123.571,372.585 126.216,377.981 126.216,377.981C126.216,377.981 125.18,368.898 129.114,370.301C133.048,371.704 130.006,377.425 129.449,378.259C129.449,378.259 134.061,373.216 135.609,376.076C137.157,378.936 131.157,382.328 130.831,382.109L124.127,380.833Z" style="fill:rgb(255,129,206);fill-rule:nonzero;" />
                                        </svg:g>
                                        <svg:g>
                                            <svg:g>
                                                <svg:path d="M129.081,380.496C129.081,380.496 133.693,375.452 135.241,378.313C135.294,378.411 135.318,378.512 135.354,378.611C135.859,377.789 136.06,376.91 135.608,376.075C134.52,374.063 131.921,375.958 130.472,377.261C130.076,378.768 129.331,380.123 129.081,380.496Z" style="fill:rgb(247,97,194);fill-rule:nonzero;" />
                                            </svg:g>
                                            <svg:g>
                                                <svg:path d="M125.848,380.218C125.848,380.218 125.687,378.765 125.739,377.113C124.876,375.65 122.987,372.944 121.301,373.978C120.587,374.416 120.603,375.258 120.959,376.205C123.224,374.867 125.848,380.218 125.848,380.218Z" style="fill:rgb(247,97,194);fill-rule:nonzero;" />
                                            </svg:g>
                                            <svg:g>
                                                <svg:path d="M128.747,372.539C130.209,373.06 130.705,374.178 130.726,375.419C131.324,373.472 131.443,371.131 129.115,370.301C126.95,369.529 126.294,371.932 126.138,374.25C126.54,372.918 127.31,372.026 128.747,372.539Z" style="fill:rgb(247,97,194);fill-rule:nonzero;" />
                                            </svg:g>
                                        </svg:g>
                                    </svg:g>
                                    <svg:g>
                                        <svg:path d="M130.737,382.601L123.873,381.294L123.762,381.174C123.37,380.753 119.939,377.002 120.24,374.789C120.312,374.257 120.589,373.829 121.041,373.552C121.551,373.238 122.108,373.17 122.696,373.337C123.822,373.664 124.856,374.859 125.589,375.929C125.554,373.937 125.763,371.139 127.087,370.089C127.5,369.76 128.217,369.449 129.283,369.83C130.355,370.213 131.066,370.911 131.395,371.905C131.828,373.214 131.497,374.821 131.019,376.144C132.074,375.331 133.383,374.578 134.493,374.715C135.166,374.781 135.695,375.185 136.05,375.839C136.786,377.2 136.208,378.846 134.422,380.474C133.823,381.021 131.625,382.72 130.74,382.594L130.737,382.601ZM124.383,380.372L130.888,381.611C131.476,381.448 134.24,379.838 135.117,378.027C135.429,377.383 135.445,376.823 135.17,376.313C134.969,375.942 134.716,375.746 134.371,375.707C132.965,375.534 130.609,377.733 129.819,378.596L129.034,377.98C129.399,377.434 131.112,374.237 130.444,372.218C130.214,371.522 129.724,371.049 128.946,370.772C128.261,370.527 127.909,370.712 127.707,370.871C126.505,371.825 126.459,375.703 126.713,377.923L127.04,380.792L125.767,378.2C125.3,377.249 123.788,374.694 122.416,374.297C122.101,374.206 121.831,374.24 121.563,374.403C121.364,374.525 121.262,374.685 121.229,374.923C121.056,376.205 123.027,378.89 124.383,380.372Z" style="fill:rgb(21,47,71);fill-rule:nonzero;" />
                                    </svg:g>
                                </svg:g>
                                <svg:g>
                                    <svg:g>
                                        <svg:g>
                                            <svg:g>
                                                <svg:g>
                                                    <svg:path d="M127.56,379.214L127.565,379.187C127.495,379.176 127.427,379.176 127.358,379.167C127.29,379.153 127.225,379.131 127.156,379.12L127.151,379.147C111.728,377.803 105.199,443.961 105.199,443.961L115.439,450.454L115.41,450.628L115.629,450.575L115.819,450.696L115.848,450.522L127.627,447.646C127.627,447.645 142.602,382.875 127.56,379.214Z" style="fill:rgb(118,221,159);fill-rule:nonzero;" />
                                                </svg:g>
                                                <svg:g>
                                                    <svg:g>
                                                        <svg:clipPath id="_clip22">
                                                            <svg:path d="M127.56,379.214L127.565,379.187C127.495,379.176 127.427,379.176 127.358,379.167C127.29,379.153 127.225,379.131 127.156,379.12L127.151,379.147C111.728,377.803 105.199,443.961 105.199,443.961L115.439,450.454L115.41,450.628L115.629,450.575L115.819,450.696L115.848,450.522L127.627,447.646C127.627,447.645 142.602,382.875 127.56,379.214Z" />
                                                        </svg:clipPath>
                                                        <svg:g clip-path="url(#_clip22)">
                                                            <svg:g>
                                                                <svg:g>
                                                                    <svg:path d="M127.846,372.974C127.331,376.108 126.817,379.241 126.302,382.375C125.058,389.949 123.814,397.523 122.57,405.097C121.072,414.219 119.573,423.342 118.075,432.464C116.778,440.358 115.482,448.252 114.185,456.146C113.755,458.766 113.324,461.385 112.894,464.005C112.695,465.214 112.363,466.519 112.28,467.74C112.276,467.794 112.262,467.851 112.253,467.905C112.107,468.794 113.136,468.964 113.283,468.074C113.798,464.941 114.312,461.807 114.827,458.673C116.071,451.099 117.315,443.525 118.559,435.951C120.057,426.829 121.556,417.706 123.054,408.584C124.351,400.69 125.647,392.796 126.944,384.902C127.374,382.282 127.804,379.663 128.235,377.043C128.434,375.834 128.767,374.529 128.849,373.308C128.853,373.254 128.867,373.197 128.876,373.143C129.022,372.255 127.993,372.084 127.846,372.974Z" style="fill:rgb(85,198,126);fill-rule:nonzero;" />
                                                                </svg:g>
                                                            </svg:g>
                                                            <svg:g>
                                                                <svg:g>
                                                                    <svg:path d="M124,374.802C122.043,381.596 120.377,388.522 118.802,395.439C115.324,410.709 112.473,426.211 110.747,441.792C109.697,451.27 109.07,460.806 109.221,470.241C109.235,471.13 110.289,470.927 110.274,470.037C110.009,453.411 112.072,436.494 114.935,419.954C117.125,407.303 119.851,394.735 123.046,382.342C123.65,379.998 124.263,377.653 124.932,375.332C125.178,374.48 124.247,373.942 124,374.802Z" style="fill:rgb(85,198,126);fill-rule:nonzero;" />
                                                                </svg:g>
                                                            </svg:g>
                                                            <svg:g>
                                                                <svg:g>
                                                                    <svg:path d="M131.194,376.361C130.878,383.353 130.24,390.377 129.525,397.364C127.951,412.746 125.724,428.146 122.438,443.271C120.409,452.613 117.957,461.866 114.788,470.779C114.49,471.617 115.422,472.149 115.721,471.309C121.308,455.592 124.796,438.848 127.39,422.21C129.389,409.387 130.843,396.469 131.783,383.567C131.963,381.098 132.136,378.625 132.247,376.157C132.288,375.264 131.235,375.473 131.194,376.361Z" style="fill:rgb(85,198,126);fill-rule:nonzero;" />
                                                                </svg:g>
                                                            </svg:g>
                                                        </svg:g>
                                                    </svg:g>
                                                </svg:g>
                                            </svg:g>
                                            <svg:g opacity="0.25">
                                                <svg:path d="M115.333,393.295C111.07,404.889 108.246,421.094 106.686,432.032C107.095,432.17 107.515,432.278 107.947,432.349C114.732,433.464 121.677,425.573 123.459,414.724C125.157,404.386 121.548,395.111 115.333,393.295Z" style="fill:white;fill-rule:nonzero;" />
                                            </svg:g>
                                        </svg:g>
                                        <svg:g opacity="0.55">
                                            <svg:path d="M127.56,379.214L127.565,379.187C127.495,379.176 127.427,379.176 127.358,379.167C127.29,379.153 127.225,379.131 127.156,379.12L127.151,379.147C125.134,378.971 123.27,379.959 121.552,381.793C135.364,385.221 123.781,440.327 121.856,449.053L127.626,447.644C127.627,447.645 142.602,382.875 127.56,379.214Z" style="fill:rgb(85,198,126);fill-rule:nonzero;" />
                                        </svg:g>
                                    </svg:g>
                                    <svg:g>
                                        <svg:path d="M114.794,451.292L114.891,450.698L104.67,444.217L104.7,443.91C104.966,441.215 111.331,378.535 126.729,378.626L126.738,378.571L127.236,378.625C127.289,378.634 127.341,378.646 127.392,378.659C127.538,378.678 127.591,378.683 127.645,378.692L128.138,378.773L128.125,378.855C142.743,383.695 128.723,445.117 128.113,447.755L128.043,448.055L116.287,450.926L116.19,451.519L115.54,451.109L114.794,451.292ZM105.728,443.704L115.717,450.038L115.729,450.035L127.207,447.232C127.724,444.942 131.037,429.94 132.738,414.739C135.143,393.245 133.312,381.129 127.442,379.7L127.228,379.648L127.108,379.645C121.088,379.12 115.477,390.017 110.88,411.156C107.63,426.102 105.971,441.368 105.728,443.704Z" style="fill:rgb(21,47,71);fill-rule:nonzero;" />
                                    </svg:g>
                                </svg:g>
                            </svg:g>
                            <svg:g>
                                <svg:g>
                                    <svg:g>
                                        <svg:path d="M115.259,398.746C114.422,402.886 113.585,407.026 112.747,411.166C112.629,411.752 112.51,412.337 112.392,412.923C112.239,413.678 113.412,413.916 113.565,413.16C114.402,409.02 115.239,404.88 116.077,400.74C116.195,400.154 116.314,399.569 116.432,398.983C116.584,398.229 115.412,397.991 115.259,398.746Z" style="fill:white;fill-rule:nonzero;" />
                                    </svg:g>
                                </svg:g>
                                <svg:g>
                                    <svg:path d="M113.048,415.386C112.99,415.674 112.708,415.861 112.42,415.803C112.132,415.745 111.945,415.463 112.003,415.175C112.061,414.886 112.343,414.7 112.631,414.758C112.92,414.816 113.106,415.097 113.048,415.386Z" style="fill:white;fill-rule:nonzero;" />
                                </svg:g>
                            </svg:g>
                        </svg:g>
                    </svg:g>
                    <svg:g>
                        <svg:g>
                            <svg:path d="M98.391,421.114C98.391,421.114 65.665,419.619 54.529,414.394C54.529,414.394 55.936,448.595 58.008,454.658C60.079,460.72 66.532,465.527 98.391,465.527C130.25,465.527 136.702,460.72 138.774,454.658C140.846,448.596 142.253,414.394 142.253,414.394C131.116,419.62 98.391,421.114 98.391,421.114Z" style="fill:rgb(255,201,226);fill-rule:nonzero;" />
                        </svg:g>
                        <svg:g>
                            <svg:path d="M130.263,417.728C129.717,428.178 128.595,446.112 127.149,450.344C125.078,456.406 118.625,461.213 86.766,461.213C75.416,461.213 67.303,460.6 61.452,459.541C65.99,463.109 75.8,465.527 98.391,465.527C130.25,465.527 136.702,460.72 138.774,454.658C140.846,448.595 142.253,414.394 142.253,414.394C139.382,415.741 135.073,416.838 130.263,417.728Z" style="fill:rgb(244,193,221);fill-rule:nonzero;" />
                        </svg:g>
                        <svg:g>
                            <svg:path d="M98.391,466.026C67.661,466.026 59.833,461.546 57.535,454.819C55.464,448.758 54.087,415.813 54.03,414.414L53.996,413.591L54.742,413.941C65.539,419.007 97.367,420.566 98.391,420.614C99.416,420.566 131.244,419.007 142.04,413.941L142.786,413.591L142.752,414.414C142.694,415.813 141.318,448.758 139.247,454.819C136.948,461.546 129.121,466.026 98.391,466.026ZM55.063,415.178C55.293,420.377 56.632,449.084 58.481,454.495C60.222,459.591 64.885,465.026 98.391,465.026C131.896,465.026 136.559,459.59 138.301,454.495C140.15,449.084 141.49,420.377 141.719,415.178C130.016,420.118 99.725,421.554 98.414,421.614L98.391,421.616L98.368,421.614C97.057,421.554 66.767,420.118 55.063,415.178Z" style="fill:rgb(21,47,71);fill-rule:nonzero;" />
                        </svg:g>
                        <svg:path d="M98.613,421.103C98.481,421.11 98.391,421.114 98.391,421.114C98.391,421.114 65.665,419.619 54.529,414.394C54.529,414.394 55.552,439.225 57.136,450.318C77.805,447.568 94.205,435.961 98.613,421.103Z" style="fill:white;fill-opacity:0.25;fill-rule:nonzero;" />
                    </svg:g>
                    <svg:g>
                        <svg:g>
                            <svg:g>
                                <svg:path d="M146.48,409.885C146.141,405.031 142.529,403.451 139.707,404.805C136.885,406.16 119.388,412.255 98.391,412.255C77.395,412.255 59.898,406.159 57.075,404.805C54.253,403.45 50.641,405.031 50.302,409.885C49.963,414.739 54.027,416.094 54.027,416.094C71.298,424.335 98.39,424.447 98.39,424.447C98.39,424.447 125.482,424.334 142.753,416.094C142.754,416.094 146.818,414.739 146.48,409.885Z" style="fill:rgb(255,201,226);fill-rule:nonzero;" />
                            </svg:g>
                            <svg:g>
                                <svg:path d="M146.317,408.729C145.579,411.867 142.754,412.82 142.754,412.82C125.483,421.061 98.391,421.173 98.391,421.173C98.391,421.173 71.299,421.06 54.028,412.82C54.028,412.82 51.203,411.867 50.465,408.729C50.392,409.094 50.332,409.473 50.303,409.885C49.964,414.739 54.028,416.094 54.028,416.094C71.299,424.335 98.391,424.447 98.391,424.447C98.391,424.447 125.483,424.334 142.754,416.094C142.754,416.094 146.818,414.739 146.479,409.885C146.451,409.474 146.391,409.094 146.317,408.729Z" style="fill:rgb(242,167,205);fill-rule:nonzero;" />
                            </svg:g>
                        </svg:g>
                        <svg:g>
                            <svg:path d="M98.393,424.947C98.117,424.946 70.986,424.738 53.812,416.545C53.801,416.545 49.443,415.018 49.803,409.85C49.977,407.365 50.994,405.46 52.666,404.488C54.053,403.68 55.782,403.632 57.292,404.355C59.828,405.573 77.174,411.756 98.391,411.756C119.605,411.756 136.953,405.572 139.49,404.355C140.999,403.633 142.729,403.681 144.116,404.488C145.788,405.461 146.805,407.365 146.978,409.85C147.339,415.032 142.957,416.554 142.912,416.569C125.796,424.738 98.665,424.946 98.393,424.947ZM55.072,404.838C54.408,404.838 53.757,405.01 53.169,405.352C51.792,406.153 50.951,407.776 50.801,409.92C50.494,414.313 54.036,415.568 54.187,415.62C71.216,423.741 98.123,423.946 98.393,423.947C98.659,423.946 125.569,423.739 142.539,415.642C142.745,415.568 146.287,414.312 145.98,409.919C145.831,407.774 144.99,406.152 143.613,405.351C142.496,404.701 141.151,404.666 139.923,405.256C137.353,406.489 119.794,412.755 98.391,412.755C76.986,412.755 59.429,406.489 56.859,405.256C56.277,404.978 55.669,404.838 55.072,404.838Z" style="fill:rgb(21,47,71);fill-rule:nonzero;" />
                        </svg:g>
                    </svg:g>
                    <svg:g>
                        <svg:g>
                            <svg:g>
                                <svg:path d="M57.917,425.077C58.282,429.285 58.648,433.493 59.014,437.701C59.066,438.296 59.117,438.891 59.169,439.486C59.236,440.253 60.427,440.15 60.361,439.382C59.996,435.174 59.63,430.966 59.264,426.758C59.212,426.163 59.161,425.568 59.109,424.973C59.042,424.207 57.851,424.309 57.917,425.077Z" style="fill:white;fill-rule:nonzero;" />
                            </svg:g>
                        </svg:g>
                        <svg:g>
                            <svg:path d="M60.493,441.664C60.519,441.957 60.301,442.216 60.008,442.241C59.715,442.266 59.457,442.049 59.431,441.756C59.406,441.463 59.623,441.204 59.916,441.179C60.21,441.154 60.468,441.371 60.493,441.664Z" style="fill:white;fill-rule:nonzero;" />
                        </svg:g>
                    </svg:g>
                </svg:g>
                <svg:g>
                    <svg:g>
                        <svg:g>
                            <svg:g>
                                <svg:path d="M105.243,446.593C102.604,446.418 94.884,446.418 91.539,446.593C91.539,446.593 91.228,452.428 98.391,452.428C105.555,452.428 105.243,446.593 105.243,446.593Z" style="fill:rgb(21,47,71);fill-rule:nonzero;" />
                            </svg:g>
                            <svg:g>
                                <svg:path d="M98.39,452.428C100.263,452.428 101.613,452.026 102.604,451.437C101.818,450.271 100.229,449.47 98.39,449.47C96.554,449.47 94.965,450.271 94.178,451.437C95.168,452.026 96.519,452.428 98.39,452.428Z" style="fill:rgb(255,129,206);fill-rule:nonzero;" />
                            </svg:g>
                        </svg:g>
                        <svg:g>
                            <svg:g>
                                <svg:g>
                                    <svg:g>
                                        <svg:path d="M80.029,444.927C80.035,443.381 80.216,441.835 80.681,440.357C81.004,439.332 81.48,438.21 82.325,437.501C82.921,437.001 83.565,436.931 84.199,437.334C85.048,437.873 85.56,438.934 85.895,439.843C86.494,441.467 86.716,443.203 86.723,444.927C86.726,445.697 87.922,445.698 87.919,444.927C87.912,443.164 87.694,441.363 87.109,439.693C86.682,438.474 86.057,437.221 84.995,436.435C84.12,435.788 82.998,435.696 82.047,436.241C80.954,436.869 80.288,438.069 79.83,439.199C79.098,441.001 78.841,442.993 78.833,444.927C78.83,445.697 80.026,445.698 80.029,444.927Z" style="fill:rgb(21,47,71);fill-rule:nonzero;" />
                                    </svg:g>
                                </svg:g>
                            </svg:g>
                            <svg:g>
                                <svg:g>
                                    <svg:g>
                                        <svg:path d="M110.059,444.927C110.065,443.381 110.246,441.835 110.712,440.357C111.035,439.332 111.511,438.21 112.356,437.501C112.952,437.001 113.596,436.931 114.23,437.334C115.079,437.873 115.592,438.934 115.927,439.843C116.526,441.467 116.748,443.203 116.755,444.927C116.758,445.697 117.954,445.698 117.951,444.927C117.944,443.164 117.726,441.363 117.141,439.693C116.714,438.474 116.089,437.221 115.027,436.435C114.152,435.788 113.03,435.696 112.079,436.241C110.986,436.869 110.32,438.069 109.862,439.199C109.13,441.001 108.873,442.993 108.865,444.927C108.86,445.697 110.056,445.698 110.059,444.927Z" style="fill:rgb(21,47,71);fill-rule:nonzero;" />
                                    </svg:g>
                                </svg:g>
                            </svg:g>
                        </svg:g>
                    </svg:g>
                    <svg:g>
                        <svg:g>
                            <svg:path d="M84.605,447.269C84.301,448.067 82.204,448.007 79.921,447.136C77.638,446.265 76.035,444.913 76.339,444.115C76.643,443.317 78.74,443.377 81.023,444.248C83.306,445.119 84.909,446.471 84.605,447.269Z" style="fill:rgb(255,129,206);fill-rule:nonzero;" />
                        </svg:g>
                        <svg:g>
                            <svg:path d="M112.177,447.269C112.481,448.067 114.578,448.007 116.861,447.136C119.143,446.265 120.747,444.913 120.443,444.115C120.139,443.317 118.042,443.377 115.759,444.248C113.476,445.119 111.873,446.471 112.177,447.269Z" style="fill:rgb(255,129,206);fill-rule:nonzero;" />
                        </svg:g>
                    </svg:g>
                </svg:g>
            </svg:g>
        </svg:g>
    </g>
</svg>