<?xml version='1.0' encoding='UTF-8'?>
<svg xmlns="http://www.w3.org/2000/svg" xmlns:xlink="http://www.w3.org/1999/xlink" xmlns:svg="http://www.w3.org/2000/svg" xmlns:serif="http://www.serif.com/" height="100%" style="fill-rule:evenodd;clip-rule:evenodd;" version="1.1" viewBox="580.0 382.0 120.0 96.0" width="100%">
    <g>
        <svg:rect x="580" y="382" width="120" height="96" style="fill:rgb(255,212,121);" />
        <svg:g transform="matrix(0.485931,0,0,0.485931,514.65,376.325)">
            <svg:g>
                <svg:g>
                    <svg:path d="M345.18,145.314C345.18,145.314 340.134,147.641 336.209,145.314C332.284,142.987 334.247,136.259 340.975,134.577C329.201,107.104 315.464,60.848 314.062,58.605C314.062,58.605 307.614,63.09 300.045,60.567C292.476,58.044 290.794,45.709 303.97,42.625C295.84,28.048 293.878,21.6 293.878,21.6L230.241,49.914C230.241,49.914 236.128,55.801 231.923,62.249C227.718,68.697 211.458,71.22 207.533,57.483C186.227,66.454 166.323,73.743 166.323,73.743L175.574,93.367C175.574,93.367 180.34,88.601 185.947,91.685C191.554,94.769 189.311,103.74 181.461,102.899L193.796,134.297C193.796,134.297 199.122,126.167 209.215,129.251C219.307,132.335 217.905,149.366 203.328,151.083C222.111,195.131 223.512,198.495 223.512,198.495L254.349,186.16C254.349,186.16 247.341,178.03 252.387,170.181C257.433,162.331 273.973,160.65 275.655,178.591C275.655,178.311 289.952,173.825 289.952,173.825C289.952,173.825 285.186,168.218 287.709,164.293C290.232,160.368 297.241,161.77 298.923,169.9C299.484,170.18 348.824,151.082 348.824,151.082L345.18,145.314ZM199.615,86.389C197.881,86.389 196.475,84.983 196.475,83.249C196.475,81.515 197.881,80.109 199.615,80.109C201.349,80.109 202.755,81.515 202.755,83.249C202.755,84.983 201.349,86.389 199.615,86.389ZM266.507,71.12C264.147,71.12 262.234,69.207 262.234,66.847C262.234,64.487 264.147,62.574 266.507,62.574C268.867,62.574 270.78,64.487 270.78,66.847C270.78,69.207 268.867,71.12 266.507,71.12ZM288.214,88.675C282.943,88.675 278.67,84.402 278.67,79.132C278.67,73.861 282.943,69.589 288.214,69.589C293.485,69.589 297.757,73.862 297.757,79.132C297.758,84.402 293.485,88.675 288.214,88.675ZM303.658,155.072C299.905,155.072 296.863,152.03 296.863,148.277C296.863,144.524 299.905,141.482 303.658,141.482C307.411,141.482 310.453,144.524 310.453,148.277C310.453,152.03 307.411,155.072 303.658,155.072Z" style="fill:rgb(255,133,255);fill-rule:nonzero;stroke-linecap:round;stroke-linejoin:round;stroke-miterlimit:10;" />
                </svg:g>
            </svg:g>
            <svg:g>
                <svg:path d="M241.516,109.951C241.978,112.815 241.262,115.313 239.017,115.675C236.771,116.037 235.307,113.891 234.845,111.027C234.383,108.163 235.099,105.666 237.344,105.303C239.59,104.941 241.054,107.087 241.516,109.951Z" style="fill:rgb(255,133,255);fill-rule:nonzero;" />
                <svg:path d="M280.229,103.708C280.691,106.572 279.975,109.069 277.73,109.432C275.484,109.794 274.02,107.648 273.558,104.784C273.096,101.92 273.812,99.423 276.057,99.06C278.303,98.698 279.767,100.844 280.229,103.708Z" style="fill:rgb(255,133,255);fill-rule:nonzero;" />
                <svg:path d="M252.002,113.553C255.078,118.749 264.291,117.263 265.577,111.363" style="fill:rgb(255,133,255);fill-rule:nonzero;stroke-linecap:round;stroke-linejoin:round;stroke-miterlimit:10;" />
                <svg:path d="M232.934,116.655C233.411,119.615 230.673,122.519 226.817,123.141C222.962,123.763 219.449,121.867 218.972,118.907C218.495,115.947 221.233,113.043 225.089,112.421C228.944,111.799 232.457,113.695 232.934,116.655Z" style="fill:rgb(255,133,255);fill-rule:nonzero;" />
                <svg:path d="M297.774,106.199C298.251,109.159 295.513,112.063 291.657,112.685C287.802,113.307 284.289,111.411 283.812,108.451C283.335,105.491 286.073,102.587 289.928,101.965C293.784,101.343 297.297,103.239 297.774,106.199Z" style="fill:rgb(255,133,255);fill-rule:nonzero;" />
            </svg:g>
            <svg:g opacity="0.3">
                <svg:path d="M175.819,78.068C182.691,69.581 195.975,64.698 206.717,66.619L206.846,66.646C207.056,66.684 207.09,67 206.885,67.074L203.064,68.616C197.549,70.745 189.371,73.857 183.768,75.812C181.846,76.52 177.935,77.883 175.988,78.523C175.731,78.585 175.568,78.296 175.819,78.068Z" style="fill:rgb(255,133,255);fill-rule:nonzero;" />
            </svg:g>
            <svg:g opacity="0.3">
                <svg:path d="M241.642,51.87C253.812,40.27 275.254,30.655 292.014,29.221C292.257,29.202 292.367,29.567 292.13,29.669L285.892,32.607C276.904,36.741 263.582,42.824 254.48,46.798L248.177,49.59L241.842,52.312C241.623,52.414 241.393,52.103 241.583,51.93C241.582,51.93 241.642,51.87 241.642,51.87Z" style="fill:rgb(255,133,255);fill-rule:nonzero;" />
            </svg:g>
            <svg:g opacity="0.3">
                <svg:path d="M213.385,155.997C220.808,162.008 224.823,170.523 226.854,179.587C227.431,182.596 227.782,185.702 227.377,189.126L227.363,189.248C227.342,189.466 227.016,189.524 226.931,189.315L225.073,185.22C222.489,179.308 218.703,170.541 216.288,164.531C215.422,162.47 213.738,158.275 212.938,156.186C212.852,155.986 213.114,155.779 213.286,155.923C213.286,155.922 213.385,155.997 213.385,155.997Z" style="fill:rgb(255,133,255);fill-rule:nonzero;" />
            </svg:g>
            <svg:g opacity="0.3">
                <svg:path d="M310.682,68.547C322.356,84.718 331.749,111.213 332.965,131.133C332.99,131.276 332.908,131.451 332.741,131.45C332.636,131.455 332.543,131.389 332.508,131.296C327.193,117.056 320.66,98.826 315.644,84.411C314.263,80.52 311.538,72.627 310.225,68.71C310.183,68.586 310.249,68.451 310.373,68.409C310.505,68.369 310.617,68.435 310.682,68.547Z" style="fill:rgb(255,133,255);fill-rule:nonzero;" />
            </svg:g>
            <svg:g opacity="0.3">
                <svg:path d="M202.747,90.774C203.713,88.532 204.298,87.317 204.587,85.914C204.627,85.829 204.948,86.045 205.586,85.676C205.972,85.552 206.276,85.221 206.816,84.863C207.342,84.45 208.032,83.748 208.834,83.113C208.915,83.043 209.049,83.089 209.072,83.193C209.701,85.139 209.705,87.418 208.282,89.051C206.893,90.625 204.797,91.292 202.763,91.258C202.487,91.226 202.691,90.914 202.747,90.774Z" style="fill:rgb(255,133,255);fill-rule:nonzero;" />
            </svg:g>
            <svg:g opacity="0.3">
                <svg:path d="M296.855,90.774C297.821,88.532 298.406,87.317 298.696,85.914C298.736,85.829 299.057,86.045 299.695,85.676C300.081,85.552 300.385,85.221 300.925,84.863C301.451,84.45 302.141,83.748 302.943,83.113C303.024,83.043 303.158,83.089 303.181,83.193C303.81,85.139 303.814,87.419 302.391,89.051C301.002,90.625 298.906,91.292 296.872,91.258C296.595,91.226 296.799,90.914 296.855,90.774Z" style="fill:rgb(255,133,255);fill-rule:nonzero;" />
            </svg:g>
            <svg:g opacity="0.3">
                <svg:path d="M310.445,158.713C311.411,156.471 311.996,155.256 312.286,153.853C312.326,153.768 312.647,153.984 313.285,153.615C313.671,153.491 313.975,153.16 314.515,152.802C315.041,152.389 315.731,151.687 316.533,151.052C316.614,150.983 316.748,151.028 316.771,151.132C317.4,153.078 317.404,155.357 315.981,156.99C314.592,158.564 312.496,159.231 310.462,159.197C310.185,159.165 310.389,158.853 310.445,158.713Z" style="fill:rgb(255,133,255);fill-rule:nonzero;" />
            </svg:g>
            <svg:path d="M191.352,107.325L196.475,123.545" style="fill:none;fill-rule:nonzero;stroke-linecap:round;stroke-linejoin:round;stroke-miterlimit:10;" />
            <svg:path d="M318.887,98.458L330.003,129.235" style="fill:none;fill-rule:nonzero;stroke-linecap:round;stroke-linejoin:round;stroke-miterlimit:10;" />
            <svg:path d="M232.241,189.152L246.492,183.684" style="fill:none;fill-rule:nonzero;stroke-linecap:round;stroke-linejoin:round;stroke-miterlimit:10;" />
            <svg:path d="M272.084,42.03L292.03,34.049" style="fill:none;fill-rule:nonzero;stroke-linecap:round;stroke-linejoin:round;stroke-miterlimit:10;" />
        </svg:g>
    </g>
</svg>