<?xml version='1.0' encoding='UTF-8'?>
<svg xmlns="http://www.w3.org/2000/svg" xmlns:xlink="http://www.w3.org/1999/xlink" xmlns:svg="http://www.w3.org/2000/svg" xmlns:serif="http://www.serif.com/" height="100%" style="fill-rule:evenodd;clip-rule:evenodd;" version="1.1" viewBox="590.0 500.0 100.0 100.0" width="100%">
    <g>
        <svg:rect x="590" y="500" width="100" height="100" style="fill:rgb(115,252,214);" />
        <svg:g transform="matrix(0.709921,0,0,0.709921,358.981,468.915)">
            <svg:g>
                <svg:g>
                    <svg:g>
                        <svg:g>
                            <svg:g>
                                <svg:g>
                                    <svg:g>
                                        <svg:path d="M429.233,93.924C424.988,74.729 411.699,67.346 393.519,67.346C375.339,67.346 362.05,74.729 357.805,93.924C353.56,113.119 364.08,124.404 364.08,124.404C373.678,132.156 393.519,131.233 393.519,131.233C393.519,131.233 413.36,132.156 422.958,124.404C422.958,124.404 433.478,113.119 429.233,93.924Z" style="fill:rgb(118,221,159);fill-rule:nonzero;" />
                                    </svg:g>
                                    <svg:g>
                                        <svg:g>
                                            <svg:clipPath id="_clip59">
                                                <svg:path d="M429.233,93.924C424.988,74.729 411.699,67.346 393.519,67.346C375.339,67.346 362.05,74.729 357.805,93.924C353.56,113.119 364.08,124.404 364.08,124.404C373.678,132.156 393.519,131.233 393.519,131.233C393.519,131.233 413.36,132.156 422.958,124.404C422.958,124.404 433.478,113.119 429.233,93.924Z" />
                                            </svg:clipPath>
                                            <svg:g clip-path="url(#_clip59)">
                                                <svg:g>
                                                    <svg:g>
                                                        <svg:g>
                                                            <svg:path d="M395.66,61.561C393.471,65.948 392.149,70.893 391.059,75.643C388.181,88.181 387.685,101.237 389.044,114.007C390.128,124.188 392.398,134.209 395.605,143.928C395.823,144.59 396.874,144.306 396.654,143.639C391.455,127.882 388.732,111.27 389.562,94.661C390.038,85.144 391.615,75.557 394.803,66.554C395.336,65.048 395.887,63.537 396.599,62.109C396.91,61.486 395.973,60.934 395.66,61.561Z" style="fill:rgb(85,198,126);fill-rule:nonzero;" />
                                                        </svg:g>
                                                    </svg:g>
                                                    <svg:g>
                                                        <svg:g>
                                                            <svg:path d="M384.763,62.374C380.723,66.95 377.569,72.544 375.089,78.082C369.842,89.799 367.934,102.931 371.062,115.496C373.419,124.964 378.442,133.487 384.764,140.845C385.221,141.377 385.987,140.605 385.533,140.076C379.827,133.434 375.199,125.824 372.705,117.389C370.737,110.731 370.164,103.732 370.937,96.836C372.086,86.583 376.117,76.704 381.812,68.147C382.959,66.424 384.16,64.697 385.533,63.142C385.994,62.62 385.227,61.848 384.763,62.374Z" style="fill:rgb(85,198,126);fill-rule:nonzero;" />
                                                        </svg:g>
                                                    </svg:g>
                                                    <svg:g>
                                                        <svg:g>
                                                            <svg:path d="M402.766,63.033C405.457,67.573 407.331,72.722 408.856,77.747C412.385,89.376 413.535,101.788 411.609,113.818C410.196,122.645 407.145,131.111 402.766,138.896C402.422,139.507 403.361,140.056 403.705,139.445C411.076,126.34 414.478,111.427 413.428,96.425C412.734,86.512 410.276,76.689 406.25,67.604C405.481,65.868 404.675,64.121 403.705,62.485C403.348,61.883 402.408,62.429 402.766,63.033Z" style="fill:rgb(85,198,126);fill-rule:nonzero;" />
                                                        </svg:g>
                                                    </svg:g>
                                                </svg:g>
                                                <svg:g>
                                                    <svg:path d="M377.986,77.887C377.913,77.621 377.594,77.406 377.317,77.507C376.664,77.745 376.011,77.984 375.359,78.222C375.085,77.896 374.811,77.569 374.536,77.243C374.416,77.101 374.297,76.959 374.178,76.816C373.994,76.597 373.596,76.612 373.409,76.816C373.195,77.049 373.213,77.352 373.409,77.585C373.698,77.929 373.987,78.273 374.276,78.617C374.019,78.711 373.762,78.805 373.506,78.898C373.323,78.965 373.14,79.032 372.957,79.098C372.681,79.199 372.495,79.467 372.577,79.767C372.65,80.033 372.969,80.248 373.246,80.147C373.837,79.931 374.427,79.716 375.018,79.5C375.331,79.873 375.644,80.246 375.958,80.619C376.077,80.761 376.197,80.903 376.316,81.046C376.5,81.265 376.898,81.25 377.085,81.046C377.299,80.813 377.281,80.51 377.085,80.277C376.757,79.886 376.429,79.496 376.101,79.105C376.42,78.989 376.739,78.872 377.058,78.756C377.241,78.689 377.424,78.623 377.607,78.556C377.882,78.455 378.068,78.187 377.986,77.887Z" style="fill:rgb(85,198,126);fill-rule:nonzero;" />
                                                </svg:g>
                                                <svg:g>
                                                    <svg:path d="M374.742,87.329C374.65,87.069 374.317,86.877 374.048,86.998C373.414,87.282 372.78,87.567 372.146,87.851C371.849,87.545 371.552,87.239 371.256,86.933C371.127,86.8 370.997,86.666 370.868,86.533C370.669,86.328 370.273,86.372 370.101,86.588C369.905,86.835 369.944,87.137 370.156,87.355C370.469,87.677 370.782,88 371.095,88.322C370.846,88.434 370.596,88.546 370.347,88.658C370.169,88.738 369.992,88.817 369.814,88.897C369.546,89.017 369.379,89.298 369.483,89.591C369.575,89.851 369.908,90.043 370.177,89.922C370.751,89.665 371.325,89.407 371.898,89.15C372.237,89.5 372.576,89.849 372.915,90.199C373.044,90.332 373.174,90.466 373.303,90.599C373.502,90.804 373.898,90.76 374.07,90.544C374.266,90.297 374.227,89.995 374.015,89.777C373.66,89.411 373.305,89.045 372.95,88.679C373.26,88.54 373.569,88.401 373.879,88.262C374.057,88.182 374.234,88.103 374.412,88.023C374.679,87.903 374.845,87.622 374.742,87.329Z" style="fill:rgb(85,198,126);fill-rule:nonzero;" />
                                                </svg:g>
                                                <svg:g>
                                                    <svg:path d="M372.58,97.772C372.459,97.524 372.106,97.372 371.852,97.523C371.255,97.878 370.658,98.234 370.06,98.589C369.73,98.319 369.4,98.05 369.07,97.78C368.926,97.662 368.782,97.545 368.639,97.427C368.418,97.246 368.029,97.335 367.883,97.57C367.716,97.838 367.79,98.133 368.026,98.326C368.374,98.61 368.722,98.895 369.07,99.179C368.835,99.319 368.6,99.459 368.365,99.598C368.198,99.697 368.03,99.797 367.863,99.897C367.611,100.047 367.477,100.346 367.614,100.625C367.735,100.873 368.088,101.025 368.342,100.874C368.882,100.552 369.423,100.231 369.963,99.909C370.34,100.217 370.717,100.525 371.094,100.834C371.238,100.952 371.382,101.069 371.525,101.187C371.746,101.368 372.135,101.279 372.281,101.044C372.448,100.776 372.374,100.481 372.138,100.288C371.743,99.965 371.348,99.642 370.954,99.32C371.246,99.146 371.537,98.973 371.829,98.799C371.996,98.699 372.164,98.6 372.331,98.5C372.583,98.35 372.717,98.051 372.58,97.772Z" style="fill:rgb(85,198,126);fill-rule:nonzero;" />
                                                </svg:g>
                                                <svg:g>
                                                    <svg:path d="M372.608,107.407C372.435,107.192 372.057,107.122 371.843,107.326C371.339,107.805 370.836,108.284 370.333,108.763C369.951,108.573 369.57,108.383 369.188,108.193C369.022,108.11 368.855,108.028 368.689,107.945C368.433,107.818 368.074,107.991 367.984,108.252C367.881,108.551 368.018,108.822 368.291,108.957C368.693,109.157 369.095,109.357 369.498,109.558C369.3,109.746 369.102,109.935 368.904,110.123C368.763,110.257 368.622,110.392 368.481,110.526C368.268,110.728 368.205,111.049 368.4,111.291C368.573,111.506 368.951,111.576 369.165,111.372C369.621,110.939 370.076,110.505 370.532,110.072C370.968,110.289 371.404,110.506 371.84,110.723C372.006,110.806 372.173,110.888 372.339,110.971C372.595,111.098 372.954,110.925 373.044,110.664C373.147,110.366 373.01,110.094 372.737,109.959C372.28,109.732 371.824,109.505 371.367,109.277C371.613,109.043 371.859,108.809 372.105,108.575C372.246,108.441 372.387,108.307 372.528,108.172C372.74,107.969 372.803,107.649 372.608,107.407Z" style="fill:rgb(85,198,126);fill-rule:nonzero;" />
                                                </svg:g>
                                                <svg:g>
                                                    <svg:path d="M374.795,117.35C374.6,117.155 374.217,117.125 374.026,117.35C373.576,117.879 373.126,118.409 372.675,118.938C372.275,118.789 371.876,118.641 371.476,118.492C371.302,118.427 371.128,118.362 370.954,118.298C370.686,118.199 370.347,118.408 370.285,118.678C370.214,118.986 370.379,119.241 370.665,119.347C371.086,119.504 371.507,119.66 371.928,119.817C371.751,120.025 371.574,120.233 371.397,120.442C371.271,120.59 371.145,120.739 371.018,120.887C370.828,121.111 370.798,121.436 371.018,121.656C371.213,121.851 371.596,121.881 371.787,121.656C372.194,121.177 372.602,120.698 373.009,120.219C373.466,120.389 373.922,120.559 374.378,120.728C374.552,120.793 374.726,120.858 374.9,120.922C375.168,121.022 375.507,120.812 375.569,120.542C375.64,120.234 375.475,119.979 375.189,119.873C374.711,119.695 374.233,119.518 373.755,119.34C373.975,119.081 374.195,118.823 374.415,118.564C374.541,118.416 374.667,118.267 374.794,118.119C374.985,117.896 375.015,117.57 374.795,117.35Z" style="fill:rgb(85,198,126);fill-rule:nonzero;" />
                                                </svg:g>
                                                <svg:g>
                                                    <svg:path d="M394.743,73.86C394.676,73.593 394.362,73.371 394.082,73.466C393.424,73.69 392.767,73.915 392.109,74.139C391.842,73.807 391.575,73.475 391.308,73.143C391.192,72.998 391.075,72.854 390.959,72.709C390.78,72.486 390.381,72.493 390.19,72.693C389.972,72.921 389.983,73.225 390.174,73.462C390.456,73.812 390.737,74.162 391.019,74.512C390.76,74.6 390.502,74.688 390.243,74.777C390.059,74.84 389.874,74.903 389.69,74.966C389.412,75.061 389.22,75.325 389.296,75.627C389.363,75.894 389.677,76.116 389.957,76.021C390.552,75.818 391.147,75.615 391.742,75.412C392.047,75.792 392.352,76.171 392.658,76.55C392.774,76.695 392.891,76.839 393.007,76.984C393.186,77.206 393.585,77.2 393.776,77C393.994,76.772 393.983,76.469 393.792,76.231C393.472,75.834 393.153,75.436 392.833,75.039C393.154,74.929 393.475,74.82 393.797,74.71C393.981,74.647 394.166,74.584 394.35,74.521C394.627,74.426 394.819,74.162 394.743,73.86Z" style="fill:rgb(85,198,126);fill-rule:nonzero;" />
                                                </svg:g>
                                                <svg:g>
                                                    <svg:path d="M392.78,83.442C392.693,83.18 392.364,82.982 392.092,83.098C391.453,83.37 390.813,83.642 390.174,83.915C389.883,83.603 389.592,83.292 389.301,82.98C389.174,82.844 389.048,82.709 388.921,82.573C388.726,82.364 388.329,82.4 388.153,82.613C387.952,82.856 387.985,83.158 388.193,83.381C388.5,83.709 388.806,84.038 389.113,84.366C388.862,84.473 388.61,84.58 388.359,84.687C388.18,84.763 388.001,84.84 387.821,84.916C387.551,85.031 387.379,85.309 387.477,85.604C387.564,85.866 387.893,86.064 388.165,85.948C388.744,85.702 389.322,85.455 389.901,85.209C390.233,85.565 390.566,85.921 390.898,86.277C391.025,86.413 391.152,86.548 391.278,86.684C391.473,86.893 391.87,86.857 392.046,86.644C392.247,86.401 392.214,86.099 392.006,85.876C391.658,85.503 391.31,85.13 390.962,84.758C391.274,84.625 391.587,84.492 391.899,84.359C392.078,84.283 392.257,84.207 392.436,84.13C392.706,84.016 392.878,83.738 392.78,83.442Z" style="fill:rgb(85,198,126);fill-rule:nonzero;" />
                                                </svg:g>
                                                <svg:g>
                                                    <svg:path d="M391.723,92.757C391.602,92.509 391.249,92.357 390.995,92.507C390.397,92.862 389.8,93.217 389.202,93.572C388.872,93.302 388.542,93.032 388.213,92.762C388.069,92.644 387.926,92.527 387.782,92.409C387.561,92.228 387.172,92.317 387.026,92.551C386.859,92.819 386.932,93.114 387.168,93.307C387.515,93.592 387.863,93.876 388.211,94.161C387.976,94.301 387.741,94.44 387.506,94.58C387.339,94.679 387.171,94.779 387.004,94.878C386.752,95.028 386.618,95.326 386.754,95.606C386.875,95.854 387.228,96.006 387.482,95.856C388.023,95.535 388.563,95.214 389.104,94.893C389.481,95.202 389.858,95.51 390.234,95.819C390.378,95.937 390.521,96.054 390.665,96.172C390.886,96.353 391.275,96.264 391.421,96.03C391.588,95.762 391.514,95.467 391.279,95.274C390.884,94.951 390.49,94.628 390.095,94.305C390.387,94.132 390.679,93.958 390.971,93.785C391.138,93.686 391.306,93.586 391.473,93.487C391.726,93.335 391.859,93.036 391.723,92.757Z" style="fill:rgb(85,198,126);fill-rule:nonzero;" />
                                                </svg:g>
                                                <svg:g>
                                                    <svg:path d="M391.255,101.245C391.099,101.018 390.728,100.918 390.499,101.104C389.96,101.542 389.421,101.981 388.881,102.419C388.515,102.2 388.15,101.981 387.784,101.762C387.625,101.667 387.465,101.571 387.306,101.476C387.061,101.329 386.689,101.474 386.579,101.727C386.453,102.017 386.569,102.297 386.83,102.454C387.215,102.685 387.601,102.916 387.986,103.146C387.774,103.318 387.562,103.491 387.35,103.663C387.199,103.786 387.048,103.909 386.897,104.031C386.669,104.216 386.581,104.531 386.756,104.787C386.912,105.015 387.283,105.114 387.512,104.928C388,104.531 388.488,104.135 388.976,103.738C389.394,103.988 389.812,104.238 390.229,104.488C390.388,104.583 390.548,104.679 390.707,104.774C390.952,104.921 391.324,104.776 391.434,104.523C391.56,104.233 391.444,103.952 391.183,103.796C390.745,103.534 390.308,103.272 389.87,103.01C390.133,102.796 390.397,102.582 390.66,102.367C390.811,102.244 390.962,102.121 391.113,101.999C391.342,101.816 391.43,101.501 391.255,101.245Z" style="fill:rgb(85,198,126);fill-rule:nonzero;" />
                                                </svg:g>
                                                <svg:g>
                                                    <svg:path d="M391.662,110.405C391.512,110.174 391.143,110.065 390.91,110.245C390.36,110.669 389.809,111.094 389.259,111.518C388.899,111.29 388.539,111.061 388.179,110.833C388.022,110.733 387.865,110.634 387.709,110.534C387.468,110.381 387.092,110.516 386.976,110.766C386.843,111.052 386.951,111.336 387.208,111.499C387.587,111.74 387.967,111.98 388.346,112.221C388.13,112.388 387.913,112.555 387.697,112.722C387.543,112.841 387.389,112.96 387.234,113.079C387.002,113.258 386.905,113.571 387.074,113.831C387.224,114.062 387.593,114.171 387.826,113.991C388.324,113.607 388.822,113.223 389.32,112.839C389.731,113.1 390.142,113.361 390.554,113.622C390.711,113.722 390.868,113.821 391.024,113.921C391.265,114.074 391.64,113.939 391.757,113.689C391.89,113.403 391.782,113.119 391.525,112.956C391.094,112.683 390.664,112.409 390.233,112.136C390.502,111.929 390.771,111.721 391.039,111.514C391.193,111.395 391.348,111.276 391.502,111.157C391.735,110.978 391.831,110.666 391.662,110.405Z" style="fill:rgb(85,198,126);fill-rule:nonzero;" />
                                                </svg:g>
                                                <svg:g>
                                                    <svg:path d="M392.767,121.39C392.575,121.192 392.192,121.157 391.998,121.38C391.541,121.904 391.084,122.427 390.627,122.951C390.229,122.797 389.832,122.644 389.434,122.49C389.261,122.423 389.088,122.356 388.914,122.289C388.648,122.186 388.306,122.392 388.24,122.66C388.165,122.967 388.327,123.224 388.611,123.334C389.03,123.496 389.449,123.658 389.868,123.82C389.688,124.026 389.509,124.232 389.329,124.438C389.201,124.585 389.073,124.732 388.945,124.878C388.752,125.099 388.718,125.424 388.935,125.647C389.127,125.845 389.51,125.879 389.704,125.657C390.117,125.183 390.531,124.709 390.944,124.236C391.398,124.412 391.852,124.587 392.307,124.763C392.48,124.83 392.653,124.897 392.827,124.964C393.093,125.067 393.435,124.862 393.501,124.593C393.576,124.286 393.414,124.029 393.13,123.919C392.654,123.735 392.179,123.551 391.703,123.367C391.926,123.111 392.149,122.855 392.372,122.6C392.5,122.453 392.628,122.307 392.756,122.16C392.95,121.938 392.983,121.612 392.767,121.39Z" style="fill:rgb(85,198,126);fill-rule:nonzero;" />
                                                </svg:g>
                                                <svg:g>
                                                    <svg:path d="M411.337,75.313C411.149,75.111 410.767,75.067 410.568,75.285C410.099,75.798 409.63,76.311 409.162,76.824C408.768,76.661 408.374,76.498 407.98,76.336C407.808,76.265 407.637,76.194 407.465,76.123C407.201,76.014 406.855,76.211 406.783,76.478C406.701,76.783 406.857,77.044 407.138,77.16C407.553,77.332 407.968,77.503 408.384,77.675C408.2,77.877 408.015,78.079 407.831,78.28C407.7,78.424 407.568,78.567 407.437,78.711C407.239,78.928 407.198,79.252 407.409,79.48C407.597,79.682 407.979,79.726 408.178,79.508C408.602,79.044 409.026,78.58 409.451,78.116C409.901,78.302 410.351,78.488 410.801,78.674C410.973,78.745 411.144,78.816 411.316,78.887C411.58,78.996 411.926,78.799 411.998,78.532C412.08,78.227 411.924,77.966 411.643,77.85C411.172,77.655 410.7,77.46 410.229,77.266C410.458,77.015 410.687,76.765 410.916,76.514C411.047,76.37 411.179,76.227 411.31,76.083C411.507,75.865 411.549,75.541 411.337,75.313Z" style="fill:rgb(85,198,126);fill-rule:nonzero;" />
                                                </svg:g>
                                                <svg:g>
                                                    <svg:path d="M414.267,85.042C414.109,84.816 413.737,84.72 413.509,84.908C412.974,85.351 412.439,85.795 411.903,86.238C411.535,86.022 411.168,85.807 410.8,85.591C410.64,85.497 410.48,85.403 410.319,85.309C410.073,85.164 409.702,85.312 409.594,85.567C409.471,85.858 409.589,86.138 409.852,86.292C410.24,86.519 410.627,86.746 411.015,86.974C410.804,87.148 410.594,87.323 410.383,87.497C410.233,87.621 410.083,87.745 409.933,87.87C409.707,88.057 409.621,88.373 409.799,88.628C409.957,88.854 410.329,88.95 410.556,88.762C411.04,88.361 411.525,87.96 412.009,87.559C412.429,87.805 412.849,88.052 413.269,88.298C413.429,88.392 413.589,88.486 413.75,88.58C413.996,88.724 414.367,88.577 414.475,88.322C414.598,88.031 414.48,87.751 414.217,87.597C413.777,87.339 413.337,87.081 412.897,86.823C413.159,86.607 413.42,86.39 413.681,86.173C413.831,86.049 413.981,85.925 414.131,85.8C414.359,85.612 414.445,85.297 414.267,85.042Z" style="fill:rgb(85,198,126);fill-rule:nonzero;" />
                                                </svg:g>
                                                <svg:g>
                                                    <svg:path d="M415.386,94.901C415.26,94.656 414.904,94.511 414.653,94.667C414.063,95.035 413.473,95.402 412.883,95.769C412.548,95.506 412.212,95.243 411.877,94.98C411.731,94.865 411.585,94.751 411.438,94.636C411.213,94.46 410.826,94.556 410.685,94.794C410.524,95.065 410.603,95.359 410.843,95.547C411.197,95.824 411.55,96.101 411.904,96.379C411.672,96.524 411.44,96.668 411.208,96.812C411.043,96.915 410.877,97.018 410.712,97.121C410.463,97.276 410.336,97.577 410.478,97.854C410.604,98.099 410.96,98.244 411.211,98.088C411.745,97.756 412.278,97.423 412.812,97.091C413.195,97.391 413.578,97.692 413.962,97.993C414.108,98.108 414.254,98.222 414.401,98.337C414.626,98.513 415.012,98.417 415.154,98.179C415.315,97.907 415.236,97.614 414.996,97.426C414.595,97.111 414.193,96.797 413.792,96.482C414.08,96.303 414.368,96.123 414.656,95.944C414.821,95.841 414.987,95.738 415.152,95.635C415.401,95.478 415.528,95.177 415.386,94.901Z" style="fill:rgb(85,198,126);fill-rule:nonzero;" />
                                                </svg:g>
                                                <svg:g>
                                                    <svg:path d="M415.588,103.929C415.467,103.681 415.114,103.529 414.86,103.68C414.263,104.035 413.666,104.391 413.068,104.746C412.738,104.476 412.408,104.206 412.078,103.936C411.934,103.818 411.79,103.701 411.647,103.583C411.426,103.402 411.037,103.491 410.891,103.726C410.724,103.994 410.798,104.289 411.034,104.482C411.382,104.766 411.73,105.051 412.077,105.335C411.842,105.475 411.607,105.614 411.372,105.754C411.205,105.854 411.037,105.953 410.87,106.053C410.618,106.203 410.484,106.502 410.621,106.781C410.742,107.029 411.095,107.181 411.349,107.03C411.889,106.709 412.43,106.387 412.97,106.066C413.347,106.374 413.724,106.682 414.101,106.991C414.245,107.109 414.389,107.226 414.532,107.344C414.753,107.525 415.142,107.436 415.288,107.201C415.455,106.933 415.381,106.638 415.145,106.445C414.75,106.122 414.355,105.799 413.961,105.476C414.253,105.302 414.544,105.129 414.836,104.955C415.003,104.855 415.171,104.756 415.338,104.656C415.591,104.507 415.724,104.208 415.588,103.929Z" style="fill:rgb(85,198,126);fill-rule:nonzero;" />
                                                </svg:g>
                                                <svg:g>
                                                    <svg:path d="M414.537,115.142C414.442,114.883 414.106,114.695 413.839,114.82C413.208,115.112 412.578,115.404 411.947,115.696C411.646,115.394 411.346,115.091 411.046,114.789C410.915,114.657 410.784,114.526 410.653,114.394C410.452,114.192 410.056,114.24 409.887,114.458C409.694,114.708 409.737,115.008 409.951,115.224C410.268,115.543 410.584,115.861 410.901,116.18C410.653,116.295 410.405,116.41 410.157,116.525C409.98,116.607 409.804,116.689 409.627,116.77C409.361,116.893 409.197,117.177 409.305,117.468C409.4,117.727 409.735,117.915 410.003,117.791C410.574,117.527 411.144,117.262 411.715,116.998C412.058,117.343 412.402,117.689 412.745,118.034C412.876,118.166 413.007,118.297 413.138,118.429C413.339,118.631 413.735,118.583 413.904,118.365C414.097,118.115 414.054,117.815 413.84,117.599C413.48,117.237 413.121,116.876 412.761,116.514C413.069,116.371 413.377,116.229 413.685,116.086C413.862,116.004 414.038,115.922 414.215,115.84C414.481,115.717 414.644,115.434 414.537,115.142Z" style="fill:rgb(85,198,126);fill-rule:nonzero;" />
                                                </svg:g>
                                            </svg:g>
                                        </svg:g>
                                    </svg:g>
                                    <svg:g opacity="0.25">
                                        <svg:path d="M387.786,67.618C372.567,69.092 361.59,76.81 357.806,93.924C355.82,102.903 357.066,110.151 358.954,115.323C361.527,116.284 364.27,116.81 367.121,116.81C381.701,116.81 393.52,103.231 393.52,86.48C393.519,79.349 391.371,72.797 387.786,67.618Z" style="fill:white;fill-rule:nonzero;" />
                                    </svg:g>
                                </svg:g>
                                <svg:g opacity="0.43">
                                    <svg:path d="M429.233,93.924C424.988,74.729 411.699,67.346 393.519,67.346C386.447,67.346 380.12,68.47 374.773,70.965C377.69,70.466 380.784,70.225 384.039,70.225C402.219,70.225 415.508,77.608 419.753,96.803C423.998,115.998 413.478,127.283 413.478,127.283C412.119,128.381 410.549,129.3 408.864,130.077C413.932,129.123 419.221,127.423 422.959,124.404C422.958,124.404 433.478,113.119 429.233,93.924Z" style="fill:rgb(85,198,126);fill-rule:nonzero;" />
                                </svg:g>
                            </svg:g>
                            <svg:g>
                                <svg:g>
                                    <svg:g>
                                        <svg:path d="M368.772,77.924C367.578,78.889 366.597,80.193 365.729,81.443C363.413,84.775 361.896,88.622 360.98,92.56C360.822,93.241 361.87,93.532 362.029,92.849C362.926,88.992 364.4,85.254 366.668,81.991C367.486,80.815 368.418,79.601 369.541,78.692C370.085,78.253 369.311,77.488 368.772,77.924Z" style="fill:white;fill-rule:nonzero;" />
                                    </svg:g>
                                </svg:g>
                                <svg:g>
                                    <svg:circle cx="361.03" cy="94.954" r="0.533" style="fill:white;" />
                                </svg:g>
                            </svg:g>
                            <svg:g>
                                <svg:path d="M391.327,131.773C385.881,131.773 371.611,131.129 363.766,124.793C363.608,124.63 353.064,113.045 357.317,93.816C361.275,75.92 373.455,66.846 393.519,66.846C413.584,66.846 425.763,75.92 429.721,93.816C431.942,103.856 430.093,111.72 428.151,116.548C426.042,121.795 423.433,124.627 423.324,124.744C413.637,132.574 394.316,131.769 393.496,131.732C393.352,131.74 392.569,131.773 391.327,131.773ZM393.519,67.847C373.988,67.847 362.136,76.657 358.293,94.033C354.152,112.755 364.343,123.953 364.445,124.064C373.732,131.558 393.302,130.742 393.495,130.734C393.737,130.742 413.305,131.558 422.642,124.015C422.694,123.952 432.878,112.727 428.744,94.032C424.902,76.657 413.051,67.847 393.519,67.847Z" style="fill:rgb(21,47,71);fill-rule:nonzero;" />
                            </svg:g>
                        </svg:g>
                        <svg:g>
                            <svg:g>
                                <svg:g>
                                    <svg:path d="M384.909,70.226C384.909,70.226 373.441,64.051 376.763,60.36C380.085,56.669 387.283,66.082 387.283,66.082C387.283,66.082 375.471,51.132 383.222,48.548C390.974,45.964 392.82,64.236 392.82,64.236C392.82,64.236 391.343,51.685 396.327,50.763C401.31,49.84 397.809,63.498 397.714,64.79C397.714,64.79 402.602,48.917 408.878,53.347C415.154,57.777 403.579,69.037 400.019,70.227C400.019,70.226 392.501,72.893 384.909,70.226Z" style="fill:rgb(255,129,206);fill-rule:nonzero;" />
                                </svg:g>
                                <svg:g>
                                    <svg:g>
                                        <svg:path d="M396.327,53.346C398.069,53.023 398.772,54.485 398.949,56.576C399.158,53.263 398.73,50.318 396.327,50.762C392.811,51.413 392.511,57.848 392.639,61.584C392.773,58.021 393.538,53.862 396.327,53.346Z" style="fill:rgb(244,96,191);fill-rule:nonzero;" />
                                    </svg:g>
                                    <svg:g>
                                        <svg:path d="M397.714,67.373C397.714,67.373 402.602,51.5 408.878,55.93C409.773,56.562 410.295,57.336 410.539,58.197C410.974,56.298 410.603,54.564 408.878,53.346C404.196,50.041 400.286,58.038 398.603,62.311C398.238,64.773 397.749,66.9 397.714,67.373Z" style="fill:rgb(244,96,191);fill-rule:nonzero;" />
                                    </svg:g>
                                    <svg:g>
                                        <svg:path d="M383.223,51.131C390.637,48.66 392.647,65.254 392.808,66.707C392.763,66.287 392.608,64.669 392.617,62.689C391.966,58.341 389.583,46.427 383.223,48.547C380.82,49.348 380.299,51.338 380.722,53.701C381.007,52.531 381.772,51.614 383.223,51.131Z" style="fill:rgb(244,96,191);fill-rule:nonzero;" />
                                    </svg:g>
                                    <svg:g>
                                        <svg:path d="M376.763,62.943C379.898,59.46 386.482,67.642 387.214,68.575C386.793,68.032 384.339,64.809 382.536,61.242C380.495,59.673 378.244,58.713 376.763,60.358C375.985,61.222 376.024,62.222 376.53,63.247C376.599,63.145 376.673,63.043 376.763,62.943Z" style="fill:rgb(244,96,191);fill-rule:nonzero;" />
                                    </svg:g>
                                </svg:g>
                            </svg:g>
                            <svg:g>
                                <svg:path d="M392.227,71.92C389.94,71.92 387.354,71.614 384.744,70.697L384.673,70.666C384.334,70.483 376.362,66.151 375.705,62.374C375.552,61.492 375.783,60.702 376.392,60.025C377.037,59.31 377.846,58.971 378.802,59.004C380.288,59.064 381.948,60.085 383.429,61.318C381.418,57.951 379.44,53.645 380.296,50.779C380.688,49.465 381.62,48.555 383.066,48.073C384.538,47.584 385.917,47.744 387.166,48.553C389.729,50.211 391.289,54.357 392.197,57.965C392.456,54.495 393.409,50.794 396.238,50.271C397.089,50.114 397.827,50.316 398.366,50.86C399.8,52.306 399.67,55.945 399.074,59.922C400.503,56.827 402.686,53.196 405.352,52.287C406.645,51.844 407.93,52.064 409.167,52.938C410.755,54.059 411.438,55.714 411.143,57.726C410.341,63.175 402.864,69.803 400.178,70.701C399.976,70.771 396.661,71.92 392.227,71.92ZM385.112,69.767C392.426,72.322 399.778,69.78 399.851,69.755C402.309,68.933 409.414,62.591 410.151,57.58C410.395,55.92 409.884,54.669 408.589,53.755C407.615,53.067 406.661,52.896 405.673,53.233C401.394,54.692 398.223,64.835 398.191,64.938L396.892,69.151L397.214,64.754C397.231,64.528 397.322,64.056 397.46,63.341C397.989,60.601 399.397,53.321 397.653,51.565C397.344,51.255 396.957,51.155 396.417,51.255C392.815,51.922 392.911,60.303 393.281,63.869C393.302,64.038 393.312,64.147 393.316,64.187L392.323,64.296C392.319,64.27 392.313,64.217 392.305,64.137C392.144,62.738 390.784,52.088 386.619,49.394C385.625,48.751 384.564,48.629 383.38,49.023C382.245,49.401 381.55,50.07 381.252,51.067C379.924,55.512 386.729,64.546 387.587,65.66C387.635,65.722 387.666,65.762 387.68,65.779L386.89,66.393C386.875,66.374 386.844,66.335 386.8,66.277C386.14,65.443 381.821,60.127 378.76,60.005C378.098,59.969 377.575,60.205 377.134,60.695C376.735,61.138 376.589,61.632 376.689,62.203C377.162,64.928 382.895,68.567 385.112,69.767Z" style="fill:rgb(21,47,71);fill-rule:nonzero;" />
                            </svg:g>
                        </svg:g>
                    </svg:g>
                    <svg:g>
                        <svg:g>
                            <svg:g>
                                <svg:g>
                                    <svg:path d="M429.787,129.249C408.746,135.893 393.519,135.34 393.519,135.34C393.519,135.34 378.292,135.894 357.251,129.249C357.251,129.249 340.917,176.867 393.519,176.867C446.121,176.868 429.787,129.249 429.787,129.249Z" style="fill:rgb(255,183,160);fill-rule:nonzero;" />
                                </svg:g>
                                <svg:g>
                                    <svg:path d="M429.787,129.249C427.894,129.847 426.05,130.384 424.258,130.871C426.347,144.328 425.486,170.847 386.229,170.847C375.231,170.847 367.255,168.76 361.504,165.467C367.029,172.042 376.78,176.867 393.519,176.867C446.121,176.868 429.787,129.249 429.787,129.249Z" style="fill:rgb(249,167,145);fill-rule:nonzero;" />
                                </svg:g>
                                <svg:g opacity="0.25">
                                    <svg:path d="M387.214,136.602C387.214,136.11 387.2,135.622 387.18,135.135C380.815,134.683 370.126,133.315 357.252,129.249C357.252,129.249 348.795,153.908 363.655,167.736C377.096,164.797 387.214,151.975 387.214,136.602Z" style="fill:white;fill-rule:nonzero;" />
                                </svg:g>
                            </svg:g>
                            <svg:g>
                                <svg:path d="M393.519,177.368C377.436,177.368 366.115,172.932 359.867,164.184C354.579,156.779 354.023,147.624 354.488,141.248C354.99,134.365 356.76,129.14 356.779,129.088L356.937,128.627L357.402,128.774C378.104,135.311 393.351,134.846 393.501,134.841C393.69,134.844 408.93,135.312 429.637,128.774L430.102,128.627L430.26,129.088C430.279,129.14 432.049,134.365 432.551,141.248C433.016,147.624 432.46,156.78 427.171,164.184C420.924,172.932 409.602,177.368 393.519,177.368ZM357.578,129.876C356.63,132.99 351.707,151.042 360.683,163.607C366.733,172.074 377.781,176.368 393.519,176.368C409.257,176.368 420.304,172.074 426.354,163.608C435.332,151.043 430.409,132.99 429.46,129.877C408.822,136.313 393.657,135.849 393.5,135.84C393.389,135.846 378.216,136.313 357.578,129.876Z" style="fill:rgb(21,47,71);fill-rule:nonzero;" />
                            </svg:g>
                        </svg:g>
                        <svg:g>
                            <svg:g>
                                <svg:g>
                                    <svg:path d="M432.832,124.174C432.555,120.206 429.602,118.914 427.295,120.021C424.988,121.128 410.684,126.112 393.519,126.112C376.354,126.112 362.05,121.129 359.743,120.021C357.436,118.914 354.483,120.206 354.206,124.174C353.929,128.142 357.251,129.25 357.251,129.25C371.371,135.987 393.519,136.079 393.519,136.079C393.519,136.079 415.667,135.987 429.787,129.25C429.787,129.249 433.109,128.142 432.832,124.174Z" style="fill:rgb(249,155,130);fill-rule:nonzero;" />
                                </svg:g>
                                <svg:g>
                                    <svg:path d="M432.7,123.229C432.097,125.794 429.787,126.573 429.787,126.573C415.668,133.31 393.519,133.402 393.519,133.402C393.519,133.402 371.371,133.31 357.251,126.573C357.251,126.573 354.941,125.794 354.338,123.229C354.278,123.527 354.229,123.837 354.205,124.174C353.928,128.142 357.25,129.25 357.25,129.25C371.37,135.987 393.518,136.079 393.518,136.079C393.518,136.079 415.666,135.987 429.786,129.25C429.786,129.25 433.108,128.143 432.831,124.174C432.809,123.837 432.76,123.527 432.7,123.229Z" style="fill:rgb(239,136,115);fill-rule:nonzero;" />
                                </svg:g>
                            </svg:g>
                            <svg:g>
                                <svg:path d="M393.521,136.578C393.294,136.577 371.094,136.408 357.037,129.701C357.026,129.702 353.408,128.427 353.707,124.139C353.852,122.076 354.699,120.493 356.094,119.681C357.252,119.007 358.699,118.964 359.96,119.57C362.03,120.564 376.194,125.612 393.519,125.612C410.848,125.612 425.008,120.564 427.078,119.57C428.339,118.965 429.785,119.006 430.946,119.682C432.339,120.493 433.187,122.076 433.331,124.139C433.632,128.444 429.982,129.711 429.945,129.723C415.943,136.408 393.744,136.577 393.521,136.578ZM358.105,120.139C357.579,120.139 357.062,120.275 356.596,120.546C355.496,121.185 354.825,122.486 354.704,124.209C354.459,127.726 357.29,128.735 357.411,128.776C371.32,135.408 393.3,135.577 393.52,135.578C393.737,135.577 415.715,135.408 429.571,128.798C429.747,128.734 432.578,127.725 432.332,124.208C432.212,122.486 431.541,121.185 430.442,120.546C429.552,120.028 428.485,120.002 427.51,120.471C425.405,121.481 411.034,126.611 393.518,126.611C376.004,126.611 361.63,121.481 359.525,120.471C359.064,120.249 358.58,120.139 358.105,120.139Z" style="fill:rgb(21,47,71);fill-rule:nonzero;" />
                            </svg:g>
                        </svg:g>
                    </svg:g>
                    <svg:g>
                        <svg:g>
                            <svg:g>
                                <svg:path d="M358.676,140.564C358.262,142.042 358.218,143.673 358.234,145.195C358.276,149.253 359.269,153.267 360.803,157.008C361.068,157.655 362.091,157.285 361.825,156.636C360.322,152.972 359.358,149.072 359.317,145.098C359.302,143.665 359.358,142.136 359.748,140.745C359.937,140.071 358.863,139.895 358.676,140.564Z" style="fill:white;fill-rule:nonzero;" />
                            </svg:g>
                        </svg:g>
                        <svg:g>
                            <svg:path d="M362.665,158.621C362.836,158.861 362.779,159.194 362.539,159.364C362.299,159.535 361.966,159.478 361.796,159.238C361.626,158.998 361.682,158.665 361.922,158.495C362.162,158.325 362.494,158.381 362.665,158.621Z" style="fill:white;fill-rule:nonzero;" />
                        </svg:g>
                    </svg:g>
                </svg:g>
            </svg:g>
            <svg:g>
                <svg:g>
                    <svg:g>
                        <svg:g>
                            <svg:g>
                                <svg:path d="M381.649,148.465C381.649,151.727 379.883,154.371 377.704,154.371C375.525,154.371 373.759,151.727 373.759,148.465C373.759,145.203 375.525,142.559 377.704,142.559C379.882,142.559 381.649,145.203 381.649,148.465Z" style="fill:rgb(21,47,71);fill-rule:nonzero;" />
                            </svg:g>
                            <svg:g>
                                <svg:g>
                                    <svg:path d="M378.509,146.043C378.509,146.948 377.776,147.681 376.871,147.681C375.966,147.681 375.233,146.948 375.233,146.043C375.233,145.138 375.966,144.405 376.871,144.405C377.776,144.405 378.509,145.138 378.509,146.043Z" style="fill:white;fill-rule:nonzero;" />
                                </svg:g>
                                <svg:g>
                                    <svg:circle cx="379.096" cy="148.65" r="1.078" style="fill:white;" />
                                </svg:g>
                            </svg:g>
                        </svg:g>
                        <svg:g>
                            <svg:g>
                                <svg:path d="M411.679,148.465C411.679,151.727 409.913,154.371 407.734,154.371C405.555,154.371 403.789,151.727 403.789,148.465C403.789,145.203 405.555,142.559 407.734,142.559C409.912,142.559 411.679,145.203 411.679,148.465Z" style="fill:rgb(21,47,71);fill-rule:nonzero;" />
                            </svg:g>
                            <svg:g>
                                <svg:g>
                                    <svg:path d="M408.539,146.043C408.539,146.948 407.806,147.681 406.901,147.681C405.996,147.681 405.263,146.948 405.263,146.043C405.263,145.138 405.996,144.405 406.901,144.405C407.805,144.405 408.539,145.138 408.539,146.043Z" style="fill:white;fill-rule:nonzero;" />
                                </svg:g>
                                <svg:g>
                                    <svg:path d="M410.204,148.65C410.204,149.245 409.721,149.728 409.126,149.728C408.531,149.728 408.048,149.245 408.048,148.65C408.048,148.055 408.531,147.572 409.126,147.572C409.722,147.572 410.204,148.054 410.204,148.65Z" style="fill:white;fill-rule:nonzero;" />
                                </svg:g>
                            </svg:g>
                        </svg:g>
                    </svg:g>
                    <svg:g>
                        <svg:g>
                            <svg:path d="M399.571,154.547C396.932,154.372 389.212,154.372 385.867,154.547C385.867,154.547 385.556,160.382 392.719,160.382C399.882,160.382 399.571,154.547 399.571,154.547Z" style="fill:rgb(21,47,71);fill-rule:nonzero;" />
                        </svg:g>
                        <svg:g>
                            <svg:path d="M392.718,160.382C394.591,160.382 395.941,159.98 396.932,159.391C396.146,158.225 394.557,157.424 392.718,157.424C390.882,157.424 389.293,158.225 388.506,159.391C389.495,159.979 390.847,160.382 392.718,160.382Z" style="fill:rgb(255,129,206);fill-rule:nonzero;" />
                        </svg:g>
                    </svg:g>
                </svg:g>
                <svg:g>
                    <svg:g>
                        <svg:path d="M378.932,155.222C378.628,156.02 376.531,155.96 374.248,155.089C371.965,154.218 370.362,152.866 370.666,152.068C370.97,151.27 373.067,151.33 375.35,152.201C377.633,153.072 379.237,154.425 378.932,155.222Z" style="fill:rgb(255,129,206);fill-rule:nonzero;" />
                    </svg:g>
                    <svg:g>
                        <svg:path d="M406.505,155.222C406.809,156.02 408.906,155.96 411.189,155.089C413.472,154.218 415.075,152.866 414.771,152.068C414.467,151.27 412.37,151.33 410.087,152.201C407.804,153.072 406.2,154.425 406.505,155.222Z" style="fill:rgb(255,129,206);fill-rule:nonzero;" />
                    </svg:g>
                </svg:g>
            </svg:g>
        </svg:g>
    </g>
</svg>