<?xml version='1.0' encoding='UTF-8'?>
<svg xmlns="http://www.w3.org/2000/svg" xmlns:xlink="http://www.w3.org/1999/xlink" xmlns:svg="http://www.w3.org/2000/svg" xmlns:serif="http://www.serif.com/" height="100%" style="fill-rule:evenodd;clip-rule:evenodd;" version="1.1" viewBox="598.333 620.0 83.333 100.0" width="100%">
    <g>
        <svg:rect x="598.333" y="620" width="83.333" height="100" style="fill:rgb(212,251,121);" />
        <svg:g transform="matrix(0.944365,0,0,0.944365,565.756,425.539)">
            <svg:g>
                <svg:g>
                    <svg:g>
                        <svg:g>
                            <svg:g>
                                <svg:g>
                                    <svg:path d="M78.977,272.81C68.015,272.81 58.033,271.62 50.538,269.67C51.832,283.459 52.976,295.264 53.227,296.695C53.868,300.337 58.673,300.421 58.673,300.421L99.282,300.421C99.282,300.421 104.087,300.337 104.728,296.695C104.98,295.263 106.124,283.459 107.418,269.67C99.922,271.62 89.939,272.81 78.977,272.81Z" style="fill:rgb(255,183,160);fill-rule:nonzero;" />
                                </svg:g>
                                <svg:g>
                                    <svg:g>
                                        <svg:clipPath id="_clip67">
                                            <svg:path d="M78.977,272.81C68.015,272.81 58.033,271.62 50.538,269.67C51.832,283.459 52.976,295.264 53.227,296.695C53.868,300.337 58.673,300.421 58.673,300.421L99.282,300.421C99.282,300.421 104.087,300.337 104.728,296.695C104.98,295.263 106.124,283.459 107.418,269.67C99.922,271.62 89.939,272.81 78.977,272.81Z" />
                                        </svg:clipPath>
                                        <svg:g clip-path="url(#_clip67)">
                                            <svg:g>
                                                <svg:g>
                                                    <svg:g>
                                                        <svg:g>
                                                            <svg:g>
                                                                <svg:path d="M9.942,312.098L9.264,311.416L100.261,220.42L100.938,221.1L9.942,312.098Z" style="fill:rgb(232,119,93);fill-rule:nonzero;" />
                                                            </svg:g>
                                                        </svg:g>
                                                        <svg:g transform="matrix(0.7071,-0.7071,0.7071,0.7071,-174.95,123.743)">
                                                            <svg:g>
                                                                <svg:rect x="-2.449" y="272.574" width="128.691" height="0.961" style="fill:rgb(232,119,93);" />
                                                            </svg:g>
                                                        </svg:g>
                                                    </svg:g>
                                                    <svg:g>
                                                        <svg:g transform="matrix(0.7071,-0.7071,0.7071,0.7071,-177.764,130.538)">
                                                            <svg:g>
                                                                <svg:rect x="4.347" y="279.368" width="128.689" height="0.962" style="fill:rgb(232,119,93);" />
                                                            </svg:g>
                                                        </svg:g>
                                                        <svg:g transform="matrix(0.7066,-0.7076,0.7076,0.7066,-180.689,137.523)">
                                                            <svg:g>
                                                                <svg:rect x="11.143" y="286.164" width="128.689" height="0.961" style="fill:rgb(232,119,93);" />
                                                            </svg:g>
                                                        </svg:g>
                                                    </svg:g>
                                                </svg:g>
                                                <svg:g>
                                                    <svg:g>
                                                        <svg:g transform="matrix(0.7071,-0.7071,0.7071,0.7071,-183.395,144.131)">
                                                            <svg:g>
                                                                <svg:rect x="17.938" y="292.96" width="128.69" height="0.961" style="fill:rgb(232,119,93);" />
                                                            </svg:g>
                                                        </svg:g>
                                                        <svg:g transform="matrix(0.7066,-0.7076,0.7076,0.7066,-186.308,151.107)">
                                                            <svg:g>
                                                                <svg:rect x="24.733" y="299.756" width="128.69" height="0.96" style="fill:rgb(232,119,93);" />
                                                            </svg:g>
                                                        </svg:g>
                                                    </svg:g>
                                                    <svg:g>
                                                        <svg:g transform="matrix(0.7071,-0.7071,0.7071,0.7071,-189.023,157.72)">
                                                            <svg:g>
                                                                <svg:rect x="31.529" y="306.55" width="128.689" height="0.962" style="fill:rgb(232,119,93);" />
                                                            </svg:g>
                                                        </svg:g>
                                                        <svg:g transform="matrix(0.7081,-0.7061,0.7061,0.7081,-191.618,164.083)">
                                                            <svg:g>
                                                                <svg:rect x="38.325" y="313.346" width="128.689" height="0.962" style="fill:rgb(232,119,93);" />
                                                            </svg:g>
                                                        </svg:g>
                                                    </svg:g>
                                                </svg:g>
                                            </svg:g>
                                            <svg:g>
                                                <svg:g>
                                                    <svg:g>
                                                        <svg:g transform="matrix(0.7061,-0.7081,0.7081,0.7061,-158.372,150.966)">
                                                            <svg:g>
                                                                <svg:rect x="102.188" y="201.914" width="0.962" height="128.689" style="fill:rgb(232,119,93);" />
                                                            </svg:g>
                                                        </svg:g>
                                                        <svg:g transform="matrix(0.7071,-0.7071,0.7071,0.7071,-164.998,147.769)">
                                                            <svg:g>
                                                                <svg:rect x="95.393" y="208.71" width="0.961" height="128.69" style="fill:rgb(232,119,93);" />
                                                            </svg:g>
                                                        </svg:g>
                                                    </svg:g>
                                                    <svg:g>
                                                        <svg:g transform="matrix(0.7066,-0.7076,0.7076,0.7066,-171.891,145.143)">
                                                            <svg:g>
                                                                <svg:rect x="88.598" y="215.504" width="0.961" height="128.689" style="fill:rgb(232,119,93);" />
                                                            </svg:g>
                                                        </svg:g>
                                                        <svg:g transform="matrix(0.7076,-0.7066,0.7066,0.7076,-178.482,141.947)">
                                                            <svg:g>
                                                                <svg:rect x="81.802" y="222.3" width="0.961" height="128.689" style="fill:rgb(232,119,93);" />
                                                            </svg:g>
                                                        </svg:g>
                                                    </svg:g>
                                                </svg:g>
                                                <svg:g>
                                                    <svg:g>
                                                        <svg:g transform="matrix(0.7066,-0.7076,0.7076,0.7066,-185.497,139.517)">
                                                            <svg:g>
                                                                <svg:rect x="75.007" y="229.096" width="0.961" height="128.69" style="fill:rgb(232,119,93);" />
                                                            </svg:g>
                                                        </svg:g>
                                                        <svg:g transform="matrix(0.7076,-0.7066,0.7066,0.7076,-192.059,136.318)">
                                                            <svg:g>
                                                                <svg:rect x="68.211" y="235.891" width="0.961" height="128.69" style="fill:rgb(232,119,93);" />
                                                            </svg:g>
                                                        </svg:g>
                                                    </svg:g>
                                                    <svg:g>
                                                        <svg:g transform="matrix(0.7062,-0.708,0.708,0.7062,-199.204,134.041)">
                                                            <svg:g>
                                                                <svg:rect x="61.416" y="242.686" width="0.961" height="128.69" style="fill:rgb(232,119,93);" />
                                                            </svg:g>
                                                        </svg:g>
                                                        <svg:g transform="matrix(0.7051,-0.7091,0.7091,0.7051,-206.28,131.61)">
                                                            <svg:g>
                                                                <svg:rect x="54.621" y="249.482" width="0.961" height="128.689" style="fill:rgb(232,119,93);" />
                                                            </svg:g>
                                                        </svg:g>
                                                    </svg:g>
                                                </svg:g>
                                            </svg:g>
                                        </svg:g>
                                    </svg:g>
                                </svg:g>
                                <svg:path d="M50.537,269.67C51.831,283.459 52.975,295.264 53.226,296.695C53.867,300.337 58.672,300.421 58.672,300.421L71.477,300.421C81.002,296.705 87.713,287.807 87.713,277.417C87.713,275.761 87.539,274.145 87.214,272.58C84.549,272.73 81.796,272.81 78.976,272.81C68.015,272.81 58.032,271.62 50.537,269.67Z" style="fill:white;fill-opacity:0.2;fill-rule:nonzero;" />
                            </svg:g>
                            <svg:g opacity="0.3">
                                <svg:path d="M96.582,271.717C95.277,285.486 94.204,296.398 93.939,297.907C93.75,298.98 93.262,299.794 92.637,300.421L99.281,300.421C99.281,300.421 104.086,300.337 104.727,296.695C104.979,295.263 106.123,283.459 107.417,269.67C104.22,270.503 100.566,271.193 96.582,271.717Z" style="fill:rgb(232,119,93);fill-rule:nonzero;" />
                            </svg:g>
                        </svg:g>
                        <svg:g>
                            <svg:path d="M99.289,300.921L58.673,300.921C56.86,300.89 53.298,299.983 52.734,296.782C52.514,295.529 51.607,286.424 50.039,269.717L49.973,269.007L50.663,269.186C58.404,271.201 68.459,272.31 78.976,272.31C89.494,272.31 99.549,271.201 107.29,269.186L107.98,269.007L107.914,269.717C106.346,286.424 105.439,295.53 105.219,296.782C104.655,299.983 101.093,300.889 99.289,300.921ZM51.101,270.329C52.625,286.559 53.506,295.4 53.719,296.608C54.28,299.796 58.638,299.919 58.682,299.921L99.281,299.921C99.316,299.92 103.673,299.796 104.235,296.608C104.447,295.4 105.328,286.559 106.853,270.329C99.13,272.253 89.268,273.309 78.977,273.309C68.686,273.31 58.824,272.253 51.101,270.329Z" style="fill:rgb(21,47,71);fill-rule:nonzero;" />
                        </svg:g>
                    </svg:g>
                    <svg:g>
                        <svg:g>
                            <svg:g>
                                <svg:g>
                                    <svg:path d="M113.071,265.366C112.271,259.124 105.549,258.322 105.549,258.322C105.549,258.322 94.663,263.764 78.978,263.764C63.291,263.764 52.406,258.322 52.406,258.322C52.406,258.322 45.682,259.124 44.884,265.366C44.082,271.608 54.648,274.49 54.648,274.49C67.133,277.691 78.979,277.332 78.979,277.332C78.979,277.332 90.823,277.691 103.31,274.49C103.309,274.49 113.873,271.608 113.071,265.366Z" style="fill:rgb(249,153,128);fill-rule:nonzero;" />
                                </svg:g>
                                <svg:g>
                                    <svg:path d="M112.072,262.386C109.548,266.009 103.308,267.714 103.308,267.714C90.821,270.916 78.977,270.558 78.977,270.558C78.977,270.558 67.131,270.916 54.646,267.714C54.646,267.714 48.407,266.009 45.881,262.386C45.395,263.205 45.033,264.189 44.882,265.366C44.08,271.608 54.646,274.49 54.646,274.49C67.131,277.691 78.977,277.332 78.977,277.332C78.977,277.332 90.821,277.691 103.308,274.49C103.308,274.49 113.872,271.608 113.071,265.366C112.92,264.189 112.559,263.205 112.072,262.386Z" style="fill:rgb(244,135,113);fill-rule:nonzero;" />
                                </svg:g>
                            </svg:g>
                        </svg:g>
                        <svg:g>
                            <svg:path d="M77.926,277.843C74.759,277.843 64.802,277.611 54.523,274.975C54.067,274.851 43.54,271.901 44.387,265.303C45.226,258.75 52.275,257.834 52.346,257.826L52.494,257.807L52.628,257.874C52.736,257.928 63.601,263.264 78.977,263.264C94.352,263.264 105.217,257.928 105.325,257.874L105.459,257.808L105.607,257.826C105.678,257.834 112.727,258.75 113.567,265.303C114.414,271.901 103.888,274.851 103.439,274.973C91.019,278.158 79.083,277.833 78.961,277.832C78.947,277.832 78.582,277.843 77.926,277.843ZM52.326,258.839C51.368,258.99 46.065,260.068 45.379,265.43C44.642,271.168 54.677,273.981 54.778,274.008C67.039,277.153 78.844,276.839 78.962,276.832C79.11,276.837 90.914,277.152 103.184,274.006C103.278,273.981 113.312,271.168 112.575,265.43C111.888,260.068 106.586,258.991 105.628,258.839C104.279,259.476 93.636,264.265 78.977,264.265C64.317,264.265 53.674,259.476 52.326,258.839Z" style="fill:rgb(21,47,71);fill-rule:nonzero;" />
                        </svg:g>
                    </svg:g>
                </svg:g>
                <svg:g>
                    <svg:g>
                        <svg:g>
                            <svg:g>
                                <svg:g>
                                    <svg:path d="M96.693,225.488C96.693,231.949 101.931,237.187 108.392,237.187C114.854,237.187 120.091,231.949 120.091,225.488C120.091,219.027 114.854,213.788 108.392,213.788C101.932,213.788 96.693,219.027 96.693,225.488Z" style="fill:rgb(204,83,59);fill-rule:nonzero;" />
                                </svg:g>
                                <svg:g>
                                    <svg:path d="M100.203,227.243C100.203,230.797 103.084,233.678 106.638,233.678C110.192,233.678 113.073,230.797 113.073,227.243C113.073,223.689 110.192,220.807 106.638,220.807C103.084,220.808 100.203,223.689 100.203,227.243Z" style="fill:rgb(237,137,110);fill-rule:nonzero;" />
                                </svg:g>
                                <svg:g opacity="0.5">
                                    <svg:path d="M118.323,219.324C118.177,225.66 113.007,230.753 106.637,230.753C102.441,230.753 98.771,228.536 96.706,225.217C96.704,225.309 96.692,225.397 96.692,225.488C96.692,231.949 101.93,237.187 108.391,237.187C114.853,237.187 120.09,231.949 120.09,225.488C120.092,223.224 119.437,221.116 118.323,219.324Z" style="fill:rgb(191,67,67);fill-rule:nonzero;" />
                                </svg:g>
                            </svg:g>
                            <svg:g>
                                <svg:path d="M108.393,237.688C101.666,237.688 96.194,232.215 96.194,225.489C96.194,218.762 101.667,213.289 108.393,213.289C115.12,213.289 120.592,218.762 120.592,225.489C120.592,232.215 115.119,237.688 108.393,237.688ZM108.393,214.288C102.218,214.288 97.194,219.312 97.194,225.488C97.194,231.663 102.218,236.687 108.393,236.687C114.568,236.687 119.592,231.663 119.592,225.488C119.592,219.313 114.568,214.288 108.393,214.288Z" style="fill:rgb(21,47,71);fill-rule:nonzero;" />
                            </svg:g>
                        </svg:g>
                        <svg:g>
                            <svg:g>
                                <svg:g>
                                    <svg:path d="M61.261,225.488C61.261,231.949 56.024,237.187 49.563,237.187C43.101,237.187 37.863,231.949 37.863,225.488C37.863,219.027 43.101,213.788 49.563,213.788C56.023,213.788 61.261,219.027 61.261,225.488Z" style="fill:rgb(204,83,59);fill-rule:nonzero;" />
                                </svg:g>
                                <svg:g>
                                    <svg:path d="M57.752,227.243C57.752,230.797 54.871,233.678 51.317,233.678C47.762,233.678 44.881,230.797 44.881,227.243C44.881,223.689 47.762,220.807 51.317,220.807C54.871,220.808 57.752,223.689 57.752,227.243Z" style="fill:rgb(237,137,110);fill-rule:nonzero;" />
                                </svg:g>
                                <svg:g opacity="0.5">
                                    <svg:path d="M39.631,219.324C39.777,225.66 44.947,230.753 51.318,230.753C55.514,230.753 59.183,228.536 61.248,225.217C61.251,225.309 61.262,225.397 61.262,225.488C61.262,231.949 56.025,237.187 49.564,237.187C43.102,237.187 37.864,231.949 37.864,225.488C37.862,223.224 38.517,221.116 39.631,219.324Z" style="fill:rgb(191,67,67);fill-rule:nonzero;" />
                                </svg:g>
                            </svg:g>
                            <svg:g>
                                <svg:path d="M49.562,237.688C42.835,237.688 37.362,232.215 37.362,225.489C37.362,218.762 42.835,213.289 49.562,213.289C56.288,213.289 61.76,218.762 61.76,225.489C61.761,232.215 56.289,237.688 49.562,237.688ZM49.562,214.288C43.386,214.288 38.362,219.312 38.362,225.488C38.362,231.663 43.386,236.687 49.562,236.687C55.737,236.687 60.76,231.663 60.76,225.488C60.761,219.313 55.737,214.288 49.562,214.288Z" style="fill:rgb(21,47,71);fill-rule:nonzero;" />
                            </svg:g>
                        </svg:g>
                    </svg:g>
                    <svg:g>
                        <svg:g>
                            <svg:path d="M103.361,258.752C103.361,258.752 111.332,254.377 111.332,241.56C111.332,228.744 101.328,215.301 78.977,215.301C56.626,215.301 46.622,228.743 46.622,241.56C46.622,254.377 54.594,258.752 54.594,258.752C54.594,258.752 45.687,266.1 50.999,267.976C56.313,269.853 61.002,262.503 61.002,262.503C61.002,262.503 59.597,270.32 65.066,270.32C70.537,270.32 73.038,264.258 73.038,264.258C73.038,264.258 72.725,271.197 78.977,271.197C85.229,271.197 84.916,264.258 84.916,264.258C84.916,264.258 87.418,270.32 92.888,270.32C98.359,270.32 96.952,262.503 96.952,262.503C96.952,262.503 101.641,269.853 106.955,267.976C112.269,266.1 103.361,258.752 103.361,258.752Z" style="fill:rgb(204,83,59);fill-rule:nonzero;" />
                        </svg:g>
                        <svg:g>
                            <svg:g>
                                <svg:path d="M103.361,258.752C103.361,258.752 111.332,254.377 111.332,241.56C111.332,228.744 101.328,215.301 78.977,215.301C77.597,215.301 76.267,215.354 74.981,215.452C94.531,216.958 103.339,229.534 103.339,241.559C103.339,254.376 95.368,258.751 95.368,258.751C95.368,258.751 101.294,263.64 100.593,266.461C102.352,267.817 104.591,268.809 106.954,267.975C112.269,266.1 103.361,258.752 103.361,258.752Z" style="fill:rgb(193,66,45);fill-rule:nonzero;" />
                            </svg:g>
                        </svg:g>
                        <svg:g>
                            <svg:path d="M71.647,223.262C73.21,225.646 70.959,229.887 66.619,232.735C62.279,235.583 57.492,235.96 55.929,233.578C54.365,231.194 56.617,226.954 60.957,224.106C65.298,221.256 70.084,220.88 71.647,223.262Z" style="fill:rgb(229,106,85);fill-rule:nonzero;" />
                        </svg:g>
                        <svg:path d="M80.77,232.465C80.77,225.502 77.348,219.369 72.154,215.765C54.585,218.215 46.623,230.132 46.623,241.56C46.623,243.116 46.744,244.542 46.951,245.856C50.501,249.959 55.641,252.555 61.378,252.555C72.087,252.555 80.77,243.56 80.77,232.465Z" style="fill:white;fill-opacity:0.2;fill-rule:nonzero;" />
                    </svg:g>
                    <svg:g>
                        <svg:path d="M78.977,271.697C77.103,271.697 75.592,271.11 74.485,269.952C73.345,268.76 72.868,267.202 72.671,266.013C71.494,267.903 69.033,270.821 65.067,270.821C63.637,270.821 62.502,270.332 61.694,269.366C60.499,267.937 60.303,265.77 60.342,264.234C58.596,266.365 54.945,269.897 50.832,268.448C49.68,268.041 49.012,267.36 48.847,266.425C48.387,263.822 52.256,260.13 53.755,258.812C51.849,257.492 46.122,252.602 46.122,241.561C46.122,234.567 48.947,228.068 54.076,223.261C59.98,217.727 68.591,214.803 78.977,214.803C89.363,214.803 97.974,217.728 103.878,223.261C109.007,228.068 111.832,234.568 111.832,241.561C111.832,252.602 106.106,257.492 104.2,258.812C105.699,260.13 109.568,263.822 109.108,266.425C108.943,267.361 108.274,268.041 107.122,268.448C103.014,269.896 99.359,266.364 97.612,264.235C97.652,265.77 97.456,267.937 96.261,269.366C95.454,270.332 94.319,270.821 92.888,270.821C88.922,270.821 86.461,267.903 85.284,266.013C85.087,267.202 84.61,268.76 83.47,269.952C82.362,271.11 80.851,271.697 78.977,271.697ZM73.658,261.46L73.538,264.28C73.536,264.311 73.426,267.401 75.213,269.265C76.124,270.215 77.39,270.697 78.978,270.697C80.565,270.697 81.832,270.215 82.742,269.265C84.529,267.401 84.418,264.311 84.417,264.28L84.296,261.461L85.378,264.068C85.402,264.126 87.824,269.821 92.888,269.821C94.024,269.821 94.876,269.463 95.493,268.725C97.174,266.717 96.468,262.632 96.46,262.591L96.017,260.114L97.373,262.234C97.418,262.304 101.918,269.23 106.788,267.505C107.586,267.224 108.022,266.814 108.122,266.251C108.492,264.161 104.581,260.408 103.042,259.139L102.476,258.671L103.12,258.316C103.197,258.273 110.832,253.904 110.832,241.561C110.832,228.74 100.982,215.802 78.977,215.802C56.972,215.802 47.122,228.74 47.122,241.561C47.122,253.904 54.758,258.273 54.835,258.316L55.477,258.671L54.912,259.139C53.373,260.409 49.462,264.162 49.832,266.251C49.932,266.814 50.368,267.224 51.165,267.505C56.041,269.229 60.535,262.305 60.58,262.234L61.936,260.114L61.494,262.591C61.487,262.632 60.781,266.718 62.462,268.726C63.079,269.462 63.931,269.821 65.066,269.821C70.13,269.821 72.552,264.126 72.576,264.068L73.658,261.46Z" style="fill:rgb(21,47,71);fill-rule:nonzero;" />
                    </svg:g>
                    <svg:g>
                        <svg:g>
                            <svg:path d="M85.171,247.653C85.171,250.36 82.364,252.554 78.901,252.554C75.438,252.554 72.631,250.36 72.631,247.653C72.631,244.944 75.438,242.751 78.901,242.751C82.364,242.751 85.171,244.944 85.171,247.653Z" style="fill:rgb(229,106,85);fill-rule:nonzero;" />
                        </svg:g>
                        <svg:g>
                            <svg:g>
                                <svg:g>
                                    <svg:path d="M67.129,238.009C67.129,238.009 67.172,237.734 67.41,237.428C67.533,237.273 67.699,237.105 67.925,236.981C68.151,236.851 68.433,236.765 68.732,236.766C68.883,236.761 69.026,236.8 69.169,236.832C69.311,236.86 69.429,236.949 69.548,237.005C69.769,237.151 69.933,237.322 70.033,237.498C70.151,237.653 70.186,237.821 70.224,237.925C70.255,238.034 70.263,238.101 70.263,238.101C70.263,238.101 70.199,238.078 70.096,238.033C69.991,237.991 69.868,237.914 69.709,237.855C69.561,237.781 69.392,237.727 69.226,237.666C69.057,237.637 68.896,237.585 68.728,237.602C68.563,237.582 68.386,237.626 68.211,237.66C68.033,237.697 67.86,237.759 67.7,237.807C67.355,237.928 67.129,238.009 67.129,238.009Z" style="fill:rgb(21,47,71);fill-rule:nonzero;" />
                                </svg:g>
                                <svg:g>
                                    <svg:path d="M87.714,237.766C87.714,237.766 87.784,237.498 88.059,237.215C88.194,237.075 88.376,236.926 88.615,236.825C88.85,236.723 89.141,236.662 89.438,236.696C89.588,236.705 89.726,236.76 89.867,236.803C90.005,236.848 90.111,236.949 90.225,237.014C90.427,237.187 90.575,237.374 90.654,237.556C90.757,237.725 90.776,237.894 90.804,238C90.823,238.113 90.826,238.178 90.826,238.178C90.826,238.178 90.763,238.151 90.665,238.093C90.566,238.046 90.449,237.951 90.3,237.878C90.155,237.79 89.995,237.714 89.838,237.641C89.669,237.591 89.518,237.525 89.348,237.524C89.183,237.49 89.004,237.515 88.827,237.528C88.646,237.549 88.469,237.591 88.303,237.625C87.949,237.708 87.714,237.766 87.714,237.766Z" style="fill:rgb(21,47,71);fill-rule:nonzero;" />
                                </svg:g>
                            </svg:g>
                            <svg:g>
                                <svg:g>
                                    <svg:g>
                                        <svg:path d="M71.684,244.694C71.684,246.413 70.291,247.806 68.572,247.806C66.854,247.806 65.462,246.413 65.462,244.694C65.462,242.976 66.855,241.584 68.572,241.584C70.291,241.584 71.684,242.977 71.684,244.694Z" style="fill:rgb(21,47,71);fill-rule:nonzero;" />
                                    </svg:g>
                                    <svg:g>
                                        <svg:g>
                                            <svg:path d="M68.447,243.555C68.447,243.998 68.088,244.359 67.643,244.359C67.2,244.359 66.84,243.999 66.84,243.555C66.84,243.111 67.199,242.751 67.643,242.751C68.088,242.751 68.447,243.11 68.447,243.555Z" style="fill:white;fill-rule:nonzero;" />
                                        </svg:g>
                                        <svg:g>
                                            <svg:path d="M67.246,245.102C67.246,245.327 67.064,245.508 66.84,245.508C66.614,245.508 66.433,245.326 66.433,245.102C66.433,244.876 66.615,244.695 66.84,244.695C67.064,244.694 67.246,244.876 67.246,245.102Z" style="fill:white;fill-rule:nonzero;" />
                                        </svg:g>
                                    </svg:g>
                                </svg:g>
                                <svg:g>
                                    <svg:g>
                                        <svg:path d="M92.494,244.694C92.494,246.413 91.1,247.806 89.383,247.806C87.664,247.806 86.272,246.413 86.272,244.694C86.272,242.976 87.665,241.584 89.383,241.584C91.101,241.584 92.494,242.977 92.494,244.694Z" style="fill:rgb(21,47,71);fill-rule:nonzero;" />
                                    </svg:g>
                                    <svg:g>
                                        <svg:g>
                                            <svg:path d="M89.258,243.555C89.258,243.998 88.899,244.359 88.454,244.359C88.009,244.359 87.649,243.999 87.649,243.555C87.649,243.111 88.009,242.751 88.454,242.751C88.899,242.751 89.258,243.11 89.258,243.555Z" style="fill:white;fill-rule:nonzero;" />
                                        </svg:g>
                                        <svg:g>
                                            <svg:path d="M88.057,245.102C88.057,245.327 87.875,245.508 87.65,245.508C87.425,245.508 87.244,245.326 87.244,245.102C87.244,244.876 87.426,244.695 87.65,244.695C87.875,244.694 88.057,244.876 88.057,245.102Z" style="fill:white;fill-rule:nonzero;" />
                                        </svg:g>
                                    </svg:g>
                                </svg:g>
                            </svg:g>
                            <svg:g>
                                <svg:g>
                                    <svg:path d="M69.754,251.407C69.754,252.793 68.63,253.915 67.243,253.915C65.857,253.915 64.734,252.793 64.734,251.407C64.734,250.019 65.857,248.896 67.243,248.896C68.63,248.896 69.754,250.02 69.754,251.407Z" style="fill:rgb(255,129,206);fill-rule:nonzero;" />
                                </svg:g>
                                <svg:g>
                                    <svg:path d="M93.221,251.407C93.221,252.793 92.098,253.915 90.711,253.915C89.324,253.915 88.201,252.793 88.201,251.407C88.201,250.019 89.324,248.896 90.711,248.896C92.098,248.896 93.221,250.02 93.221,251.407Z" style="fill:rgb(255,129,206);fill-rule:nonzero;" />
                                </svg:g>
                            </svg:g>
                            <svg:g>
                                <svg:path d="M79.662,247.826C80.305,247.545 80.721,247.06 80.766,246.461C80.836,245.542 79.656,244.879 78.453,244.834C77.969,244.815 77.972,245.344 78.453,245.361C80.465,245.437 80.467,247.479 78.459,247.56C78.457,247.56 78.455,247.558 78.453,247.558C78.202,247.55 78.084,247.688 78.094,247.824C78.084,247.961 78.202,248.099 78.453,248.089L78.459,248.089C80.466,248.169 80.465,250.211 78.453,250.287C77.972,250.307 77.969,250.834 78.453,250.815C79.762,250.765 80.695,250.109 80.766,249.187C80.812,248.592 80.331,248.108 79.662,247.826Z" style="fill:rgb(21,47,71);fill-rule:nonzero;" />
                            </svg:g>
                        </svg:g>
                    </svg:g>
                </svg:g>
            </svg:g>
            <svg:g>
                <svg:g>
                    <svg:path d="M54.807,277.843C55.093,282.203 55.38,286.563 55.667,290.923C55.708,291.551 55.749,292.178 55.791,292.806C55.843,293.605 57.094,293.611 57.041,292.806C56.754,288.446 56.468,284.086 56.181,279.726C56.14,279.098 56.099,278.471 56.057,277.843C56.004,277.044 54.754,277.038 54.807,277.843Z" style="fill:white;fill-rule:nonzero;" />
                </svg:g>
                <svg:path d="M57.585,295.936C57.585,296.395 57.213,296.767 56.754,296.767C56.295,296.767 55.923,296.395 55.923,295.936C55.923,295.477 56.295,295.105 56.754,295.105C57.213,295.105 57.585,295.477 57.585,295.936Z" style="fill:white;fill-rule:nonzero;" />
            </svg:g>
            <svg:g>
                <svg:g>
                    <svg:path d="M60.594,222.114C56.851,223.622 53.801,227.154 52.041,230.672C51.002,232.75 50.321,234.978 49.933,237.266C49.8,238.053 51.004,238.391 51.138,237.598C52.079,232.034 55,226.679 60,223.802C60.245,223.661 60.495,223.526 60.75,223.403C60.864,223.348 61.158,223.225 60.925,223.319C61.664,223.023 61.342,221.813 60.594,222.114Z" style="fill:white;fill-rule:nonzero;" />
                </svg:g>
                <svg:path d="M51.317,240.277C51.317,240.662 51.005,240.973 50.621,240.973C50.237,240.973 49.925,240.661 49.925,240.277C49.925,239.892 50.237,239.581 50.621,239.581C51.005,239.581 51.317,239.893 51.317,240.277Z" style="fill:white;fill-rule:nonzero;" />
            </svg:g>
        </svg:g>
    </g>
</svg>