<?xml version='1.0' encoding='UTF-8'?>
<svg xmlns="http://www.w3.org/2000/svg" xmlns:xlink="http://www.w3.org/1999/xlink" xmlns:svg="http://www.w3.org/2000/svg" xmlns:serif="http://www.serif.com/" height="100%" style="fill-rule:evenodd;clip-rule:evenodd;" version="1.1" viewBox="720.0 60.0 120.0 20.0" width="100%">
    <g>
        <svg:rect x="720" y="60" width="120" height="20" style="fill:rgb(255,133,255);" />
        <svg:g>
            <svg:g transform="matrix(0.101592,-0.0324338,0.0324338,0.101592,725.965,62.515)">
                <svg:path d="M66.206,103.153C66.206,103.153 56.715,104.869 41.805,102.806C26.896,100.742 22.798,89.714 29.831,85.707C32.229,84.341 40.428,80.903 37.497,76.967C34.919,73.505 29.745,71.926 26.835,68.499C23.716,64.826 22.938,60.487 25.101,56.085C29.394,47.349 44.29,57.924 46.525,50.858C48.612,44.26 45.035,33.407 53.052,29.463C62.421,24.855 65.167,42.473 72.377,42.237C75.504,42.134 78.353,37.228 81.746,36.318C86.453,35.057 89.085,38.747 90.498,42.806C94.742,54.993 90.422,79.262 90.422,79.262L66.206,103.153Z" style="fill:rgb(158,207,187);fill-rule:nonzero;stroke-linecap:round;stroke-linejoin:round;stroke-miterlimit:10;" />
                <svg:path d="M74.09,82.442C74.09,82.442 58.228,100.776 63.449,111.94C68.669,123.103 101.594,150.392 129.847,164.303C158.1,178.214 174.391,180.158 174.227,169.598C174.062,159.038 146.867,114.77 122.181,92.453C97.494,70.136 87.978,68.715 74.09,82.442Z" style="fill:rgb(239,193,49);fill-rule:nonzero;stroke-linecap:round;stroke-linejoin:round;stroke-miterlimit:10;" />
                <svg:path d="M146.526,171.672C146.526,171.672 150.702,170.646 154.37,161.897" style="fill:white;fill-rule:nonzero;stroke-linecap:round;stroke-linejoin:round;stroke-miterlimit:10;" />
                <svg:path d="M147.196,145.031C147.196,145.031 152.08,142.59 157.507,135.602" style="fill:white;fill-rule:nonzero;stroke-linecap:round;stroke-linejoin:round;stroke-miterlimit:10;" />
                <svg:path d="M116.384,132.693C116.384,132.693 128.411,120.256 139.992,111.561" style="fill:white;fill-rule:nonzero;stroke-linecap:round;stroke-linejoin:round;stroke-miterlimit:10;" />
                <svg:path d="M120.895,116.434C120.895,116.434 126.45,110.809 133.976,104.483" style="fill:white;fill-rule:nonzero;stroke-linecap:round;stroke-linejoin:round;stroke-miterlimit:10;" />
                <svg:path d="M113.691,155.269C113.691,155.269 118.594,147.918 125.761,142.474" style="fill:white;fill-rule:nonzero;stroke-linecap:round;stroke-linejoin:round;stroke-miterlimit:10;" />
                <svg:path d="M80.533,130.828C80.533,130.828 85.945,126.037 92.097,120.672" style="fill:white;fill-rule:nonzero;stroke-linecap:round;stroke-linejoin:round;stroke-miterlimit:10;" />
                <svg:path d="M102.179,95.565C102.179,95.565 107.523,88.03 112.697,84.334" style="fill:white;fill-rule:nonzero;stroke-linecap:round;stroke-linejoin:round;stroke-miterlimit:10;" />
                <svg:path d="M147.18,136.367L153.609,129.777" style="fill:none;fill-rule:nonzero;stroke-linecap:round;stroke-linejoin:round;stroke-miterlimit:10;" />
                <svg:path d="M86.048,135.499C86.669,136.004 93.587,127.975 93.587,127.975" style="fill:white;fill-rule:nonzero;stroke-linecap:round;stroke-linejoin:round;stroke-miterlimit:10;" />
                <svg:path d="M53.69,95.503C53.69,95.503 41.633,93.408 43.753,80.526C45.873,67.645 59.456,72.004 59.456,72.004" style="fill:none;fill-rule:nonzero;stroke-linecap:round;stroke-linejoin:round;stroke-miterlimit:10;" />
                <svg:path d="M58.492,57.561C58.492,57.561 52.399,46.948 63.661,40.347C74.924,33.746 80.251,46.979 80.251,46.979" style="fill:rgb(158,207,187);fill-rule:nonzero;stroke-linecap:round;stroke-linejoin:round;stroke-miterlimit:10;" />
                <svg:g>
                    <svg:path d="M77.311,104.421C78.586,105.565 79.184,106.977 78.287,107.977C77.39,108.977 75.921,108.535 74.646,107.391C73.371,106.247 72.773,104.835 73.67,103.835C74.567,102.835 76.036,103.277 77.311,104.421Z" style="fill:rgb(84,57,43);fill-rule:nonzero;" />
                    <svg:path d="M92.771,87.187C94.046,88.331 94.644,89.743 93.747,90.743C92.85,91.743 91.381,91.301 90.106,90.157C88.831,89.013 88.233,87.601 89.13,86.601C90.027,85.601 91.496,86.043 92.771,87.187Z" style="fill:rgb(84,57,43);fill-rule:nonzero;" />
                    <svg:path d="M83.462,102.184C86.803,103.428 90.482,99.327 88.883,96.14" style="fill:none;fill-rule:nonzero;stroke-linecap:round;stroke-linejoin:round;stroke-miterlimit:10;" />
                    <svg:path d="M75.858,110.685C77.176,111.867 76.996,114.217 75.456,115.933C73.916,117.649 71.6,118.082 70.282,116.9C68.964,115.718 69.144,113.368 70.684,111.652C72.224,109.936 74.54,109.503 75.858,110.685Z" style="fill:rgb(255,136,185);fill-rule:nonzero;" />
                    <svg:path d="M101.752,81.82C103.07,83.002 102.89,85.352 101.35,87.068C99.81,88.784 97.494,89.217 96.176,88.035C94.858,86.853 95.038,84.503 96.578,82.787C98.118,81.07 100.434,80.637 101.752,81.82Z" style="fill:rgb(255,136,185);fill-rule:nonzero;" />
                </svg:g>
                <svg:g opacity="0.3">
                    <svg:path d="M79.976,120.81C107.912,137.017 133.884,156.125 164.64,166.817C164.767,166.843 164.867,166.978 164.816,167.109C164.781,167.209 164.681,167.268 164.58,167.253C140.27,163.47 118.566,150.364 98.826,136.299C92.243,131.507 85.822,126.498 79.683,121.139C79.593,121.06 79.583,120.923 79.662,120.832C79.752,120.74 79.876,120.737 79.976,120.81Z" style="fill:white;fill-rule:nonzero;" />
                </svg:g>
                <svg:path d="M73.07,63.777C73.07,63.777 84.901,57.162 86.048,74.309" style="fill:none;fill-rule:nonzero;stroke-linecap:round;stroke-linejoin:round;stroke-miterlimit:10;" />
                <svg:path d="M107.438,133.072L116.384,124.958" style="fill:none;fill-rule:nonzero;stroke-linecap:round;stroke-linejoin:round;stroke-miterlimit:10;" />
                <svg:path d="M98.964,105.906L108.666,96.14" style="fill:none;fill-rule:nonzero;stroke-linecap:round;stroke-linejoin:round;stroke-miterlimit:10;" />
                <svg:path d="M146.526,164.666L152.352,155.933" style="fill:none;fill-rule:nonzero;stroke-linecap:round;stroke-linejoin:round;stroke-miterlimit:10;" />
            </svg:g>
            <svg:g transform="matrix(0.101592,-0.0324338,0.0324338,0.101592,750.704,62.515)">
                <svg:path d="M66.206,103.153C66.206,103.153 56.715,104.869 41.805,102.806C26.896,100.742 22.798,89.714 29.831,85.707C32.229,84.341 40.428,80.903 37.497,76.967C34.919,73.505 29.745,71.926 26.835,68.499C23.716,64.826 22.938,60.487 25.101,56.085C29.394,47.349 44.29,57.924 46.525,50.858C48.612,44.26 45.035,33.407 53.052,29.463C62.421,24.855 65.167,42.473 72.377,42.237C75.504,42.134 78.353,37.228 81.746,36.318C86.453,35.057 89.085,38.747 90.498,42.806C94.742,54.993 90.422,79.262 90.422,79.262L66.206,103.153Z" style="fill:rgb(158,207,187);fill-rule:nonzero;stroke-linecap:round;stroke-linejoin:round;stroke-miterlimit:10;" />
                <svg:path d="M74.09,82.442C74.09,82.442 58.228,100.776 63.449,111.94C68.669,123.103 101.594,150.392 129.847,164.303C158.1,178.214 174.391,180.158 174.227,169.598C174.062,159.038 146.867,114.77 122.181,92.453C97.494,70.136 87.978,68.715 74.09,82.442Z" style="fill:rgb(239,193,49);fill-rule:nonzero;stroke-linecap:round;stroke-linejoin:round;stroke-miterlimit:10;" />
                <svg:path d="M146.526,171.672C146.526,171.672 150.702,170.646 154.37,161.897" style="fill:white;fill-rule:nonzero;stroke-linecap:round;stroke-linejoin:round;stroke-miterlimit:10;" />
                <svg:path d="M147.196,145.031C147.196,145.031 152.08,142.59 157.507,135.602" style="fill:white;fill-rule:nonzero;stroke-linecap:round;stroke-linejoin:round;stroke-miterlimit:10;" />
                <svg:path d="M116.384,132.693C116.384,132.693 128.411,120.256 139.992,111.561" style="fill:white;fill-rule:nonzero;stroke-linecap:round;stroke-linejoin:round;stroke-miterlimit:10;" />
                <svg:path d="M120.895,116.434C120.895,116.434 126.45,110.809 133.976,104.483" style="fill:white;fill-rule:nonzero;stroke-linecap:round;stroke-linejoin:round;stroke-miterlimit:10;" />
                <svg:path d="M113.691,155.269C113.691,155.269 118.594,147.918 125.761,142.474" style="fill:white;fill-rule:nonzero;stroke-linecap:round;stroke-linejoin:round;stroke-miterlimit:10;" />
                <svg:path d="M80.533,130.828C80.533,130.828 85.945,126.037 92.097,120.672" style="fill:white;fill-rule:nonzero;stroke-linecap:round;stroke-linejoin:round;stroke-miterlimit:10;" />
                <svg:path d="M102.179,95.565C102.179,95.565 107.523,88.03 112.697,84.334" style="fill:white;fill-rule:nonzero;stroke-linecap:round;stroke-linejoin:round;stroke-miterlimit:10;" />
                <svg:path d="M147.18,136.367L153.609,129.777" style="fill:none;fill-rule:nonzero;stroke-linecap:round;stroke-linejoin:round;stroke-miterlimit:10;" />
                <svg:path d="M86.048,135.499C86.669,136.004 93.587,127.975 93.587,127.975" style="fill:white;fill-rule:nonzero;stroke-linecap:round;stroke-linejoin:round;stroke-miterlimit:10;" />
                <svg:path d="M53.69,95.503C53.69,95.503 41.633,93.408 43.753,80.526C45.873,67.645 59.456,72.004 59.456,72.004" style="fill:none;fill-rule:nonzero;stroke-linecap:round;stroke-linejoin:round;stroke-miterlimit:10;" />
                <svg:path d="M58.492,57.561C58.492,57.561 52.399,46.948 63.661,40.347C74.924,33.746 80.251,46.979 80.251,46.979" style="fill:rgb(158,207,187);fill-rule:nonzero;stroke-linecap:round;stroke-linejoin:round;stroke-miterlimit:10;" />
                <svg:g>
                    <svg:path d="M77.311,104.421C78.586,105.565 79.184,106.977 78.287,107.977C77.39,108.977 75.921,108.535 74.646,107.391C73.371,106.247 72.773,104.835 73.67,103.835C74.567,102.835 76.036,103.277 77.311,104.421Z" style="fill:rgb(84,57,43);fill-rule:nonzero;" />
                    <svg:path d="M92.771,87.187C94.046,88.331 94.644,89.743 93.747,90.743C92.85,91.743 91.381,91.301 90.106,90.157C88.831,89.013 88.233,87.601 89.13,86.601C90.027,85.601 91.496,86.043 92.771,87.187Z" style="fill:rgb(84,57,43);fill-rule:nonzero;" />
                    <svg:path d="M83.462,102.184C86.803,103.428 90.482,99.327 88.883,96.14" style="fill:none;fill-rule:nonzero;stroke-linecap:round;stroke-linejoin:round;stroke-miterlimit:10;" />
                    <svg:path d="M75.858,110.685C77.176,111.867 76.996,114.217 75.456,115.933C73.916,117.649 71.6,118.082 70.282,116.9C68.964,115.718 69.144,113.368 70.684,111.652C72.224,109.936 74.54,109.503 75.858,110.685Z" style="fill:rgb(255,136,185);fill-rule:nonzero;" />
                    <svg:path d="M101.752,81.82C103.07,83.002 102.89,85.352 101.35,87.068C99.81,88.784 97.494,89.217 96.176,88.035C94.858,86.853 95.038,84.503 96.578,82.787C98.118,81.07 100.434,80.637 101.752,81.82Z" style="fill:rgb(255,136,185);fill-rule:nonzero;" />
                </svg:g>
                <svg:g opacity="0.3">
                    <svg:path d="M79.976,120.81C107.912,137.017 133.884,156.125 164.64,166.817C164.767,166.843 164.867,166.978 164.816,167.109C164.781,167.209 164.681,167.268 164.58,167.253C140.27,163.47 118.566,150.364 98.826,136.299C92.243,131.507 85.822,126.498 79.683,121.139C79.593,121.06 79.583,120.923 79.662,120.832C79.752,120.74 79.876,120.737 79.976,120.81Z" style="fill:white;fill-rule:nonzero;" />
                </svg:g>
                <svg:path d="M73.07,63.777C73.07,63.777 84.901,57.162 86.048,74.309" style="fill:none;fill-rule:nonzero;stroke-linecap:round;stroke-linejoin:round;stroke-miterlimit:10;" />
                <svg:path d="M107.438,133.072L116.384,124.958" style="fill:none;fill-rule:nonzero;stroke-linecap:round;stroke-linejoin:round;stroke-miterlimit:10;" />
                <svg:path d="M98.964,105.906L108.666,96.14" style="fill:none;fill-rule:nonzero;stroke-linecap:round;stroke-linejoin:round;stroke-miterlimit:10;" />
                <svg:path d="M146.526,164.666L152.352,155.933" style="fill:none;fill-rule:nonzero;stroke-linecap:round;stroke-linejoin:round;stroke-miterlimit:10;" />
            </svg:g>
            <svg:g transform="matrix(0.101592,-0.0324338,0.0324338,0.101592,773.868,62.515)">
                <svg:path d="M66.206,103.153C66.206,103.153 56.715,104.869 41.805,102.806C26.896,100.742 22.798,89.714 29.831,85.707C32.229,84.341 40.428,80.903 37.497,76.967C34.919,73.505 29.745,71.926 26.835,68.499C23.716,64.826 22.938,60.487 25.101,56.085C29.394,47.349 44.29,57.924 46.525,50.858C48.612,44.26 45.035,33.407 53.052,29.463C62.421,24.855 65.167,42.473 72.377,42.237C75.504,42.134 78.353,37.228 81.746,36.318C86.453,35.057 89.085,38.747 90.498,42.806C94.742,54.993 90.422,79.262 90.422,79.262L66.206,103.153Z" style="fill:rgb(158,207,187);fill-rule:nonzero;stroke-linecap:round;stroke-linejoin:round;stroke-miterlimit:10;" />
                <svg:path d="M74.09,82.442C74.09,82.442 58.228,100.776 63.449,111.94C68.669,123.103 101.594,150.392 129.847,164.303C158.1,178.214 174.391,180.158 174.227,169.598C174.062,159.038 146.867,114.77 122.181,92.453C97.494,70.136 87.978,68.715 74.09,82.442Z" style="fill:rgb(239,193,49);fill-rule:nonzero;stroke-linecap:round;stroke-linejoin:round;stroke-miterlimit:10;" />
                <svg:path d="M146.526,171.672C146.526,171.672 150.702,170.646 154.37,161.897" style="fill:white;fill-rule:nonzero;stroke-linecap:round;stroke-linejoin:round;stroke-miterlimit:10;" />
                <svg:path d="M147.196,145.031C147.196,145.031 152.08,142.59 157.507,135.602" style="fill:white;fill-rule:nonzero;stroke-linecap:round;stroke-linejoin:round;stroke-miterlimit:10;" />
                <svg:path d="M116.384,132.693C116.384,132.693 128.411,120.256 139.992,111.561" style="fill:white;fill-rule:nonzero;stroke-linecap:round;stroke-linejoin:round;stroke-miterlimit:10;" />
                <svg:path d="M120.895,116.434C120.895,116.434 126.45,110.809 133.976,104.483" style="fill:white;fill-rule:nonzero;stroke-linecap:round;stroke-linejoin:round;stroke-miterlimit:10;" />
                <svg:path d="M113.691,155.269C113.691,155.269 118.594,147.918 125.761,142.474" style="fill:white;fill-rule:nonzero;stroke-linecap:round;stroke-linejoin:round;stroke-miterlimit:10;" />
                <svg:path d="M80.533,130.828C80.533,130.828 85.945,126.037 92.097,120.672" style="fill:white;fill-rule:nonzero;stroke-linecap:round;stroke-linejoin:round;stroke-miterlimit:10;" />
                <svg:path d="M102.179,95.565C102.179,95.565 107.523,88.03 112.697,84.334" style="fill:white;fill-rule:nonzero;stroke-linecap:round;stroke-linejoin:round;stroke-miterlimit:10;" />
                <svg:path d="M147.18,136.367L153.609,129.777" style="fill:none;fill-rule:nonzero;stroke-linecap:round;stroke-linejoin:round;stroke-miterlimit:10;" />
                <svg:path d="M86.048,135.499C86.669,136.004 93.587,127.975 93.587,127.975" style="fill:white;fill-rule:nonzero;stroke-linecap:round;stroke-linejoin:round;stroke-miterlimit:10;" />
                <svg:path d="M53.69,95.503C53.69,95.503 41.633,93.408 43.753,80.526C45.873,67.645 59.456,72.004 59.456,72.004" style="fill:none;fill-rule:nonzero;stroke-linecap:round;stroke-linejoin:round;stroke-miterlimit:10;" />
                <svg:path d="M58.492,57.561C58.492,57.561 52.399,46.948 63.661,40.347C74.924,33.746 80.251,46.979 80.251,46.979" style="fill:rgb(158,207,187);fill-rule:nonzero;stroke-linecap:round;stroke-linejoin:round;stroke-miterlimit:10;" />
                <svg:g>
                    <svg:path d="M77.311,104.421C78.586,105.565 79.184,106.977 78.287,107.977C77.39,108.977 75.921,108.535 74.646,107.391C73.371,106.247 72.773,104.835 73.67,103.835C74.567,102.835 76.036,103.277 77.311,104.421Z" style="fill:rgb(84,57,43);fill-rule:nonzero;" />
                    <svg:path d="M92.771,87.187C94.046,88.331 94.644,89.743 93.747,90.743C92.85,91.743 91.381,91.301 90.106,90.157C88.831,89.013 88.233,87.601 89.13,86.601C90.027,85.601 91.496,86.043 92.771,87.187Z" style="fill:rgb(84,57,43);fill-rule:nonzero;" />
                    <svg:path d="M83.462,102.184C86.803,103.428 90.482,99.327 88.883,96.14" style="fill:none;fill-rule:nonzero;stroke-linecap:round;stroke-linejoin:round;stroke-miterlimit:10;" />
                    <svg:path d="M75.858,110.685C77.176,111.867 76.996,114.217 75.456,115.933C73.916,117.649 71.6,118.082 70.282,116.9C68.964,115.718 69.144,113.368 70.684,111.652C72.224,109.936 74.54,109.503 75.858,110.685Z" style="fill:rgb(255,136,185);fill-rule:nonzero;" />
                    <svg:path d="M101.752,81.82C103.07,83.002 102.89,85.352 101.35,87.068C99.81,88.784 97.494,89.217 96.176,88.035C94.858,86.853 95.038,84.503 96.578,82.787C98.118,81.07 100.434,80.637 101.752,81.82Z" style="fill:rgb(255,136,185);fill-rule:nonzero;" />
                </svg:g>
                <svg:g opacity="0.3">
                    <svg:path d="M79.976,120.81C107.912,137.017 133.884,156.125 164.64,166.817C164.767,166.843 164.867,166.978 164.816,167.109C164.781,167.209 164.681,167.268 164.58,167.253C140.27,163.47 118.566,150.364 98.826,136.299C92.243,131.507 85.822,126.498 79.683,121.139C79.593,121.06 79.583,120.923 79.662,120.832C79.752,120.74 79.876,120.737 79.976,120.81Z" style="fill:white;fill-rule:nonzero;" />
                </svg:g>
                <svg:path d="M73.07,63.777C73.07,63.777 84.901,57.162 86.048,74.309" style="fill:none;fill-rule:nonzero;stroke-linecap:round;stroke-linejoin:round;stroke-miterlimit:10;" />
                <svg:path d="M107.438,133.072L116.384,124.958" style="fill:none;fill-rule:nonzero;stroke-linecap:round;stroke-linejoin:round;stroke-miterlimit:10;" />
                <svg:path d="M98.964,105.906L108.666,96.14" style="fill:none;fill-rule:nonzero;stroke-linecap:round;stroke-linejoin:round;stroke-miterlimit:10;" />
                <svg:path d="M146.526,164.666L152.352,155.933" style="fill:none;fill-rule:nonzero;stroke-linecap:round;stroke-linejoin:round;stroke-miterlimit:10;" />
            </svg:g>
            <svg:g transform="matrix(0.101592,-0.0324338,0.0324338,0.101592,798.645,62.515)">
                <svg:path d="M66.206,103.153C66.206,103.153 56.715,104.869 41.805,102.806C26.896,100.742 22.798,89.714 29.831,85.707C32.229,84.341 40.428,80.903 37.497,76.967C34.919,73.505 29.745,71.926 26.835,68.499C23.716,64.826 22.938,60.487 25.101,56.085C29.394,47.349 44.29,57.924 46.525,50.858C48.612,44.26 45.035,33.407 53.052,29.463C62.421,24.855 65.167,42.473 72.377,42.237C75.504,42.134 78.353,37.228 81.746,36.318C86.453,35.057 89.085,38.747 90.498,42.806C94.742,54.993 90.422,79.262 90.422,79.262L66.206,103.153Z" style="fill:rgb(158,207,187);fill-rule:nonzero;stroke-linecap:round;stroke-linejoin:round;stroke-miterlimit:10;" />
                <svg:path d="M74.09,82.442C74.09,82.442 58.228,100.776 63.449,111.94C68.669,123.103 101.594,150.392 129.847,164.303C158.1,178.214 174.391,180.158 174.227,169.598C174.062,159.038 146.867,114.77 122.181,92.453C97.494,70.136 87.978,68.715 74.09,82.442Z" style="fill:rgb(239,193,49);fill-rule:nonzero;stroke-linecap:round;stroke-linejoin:round;stroke-miterlimit:10;" />
                <svg:path d="M146.526,171.672C146.526,171.672 150.702,170.646 154.37,161.897" style="fill:white;fill-rule:nonzero;stroke-linecap:round;stroke-linejoin:round;stroke-miterlimit:10;" />
                <svg:path d="M147.196,145.031C147.196,145.031 152.08,142.59 157.507,135.602" style="fill:white;fill-rule:nonzero;stroke-linecap:round;stroke-linejoin:round;stroke-miterlimit:10;" />
                <svg:path d="M116.384,132.693C116.384,132.693 128.411,120.256 139.992,111.561" style="fill:white;fill-rule:nonzero;stroke-linecap:round;stroke-linejoin:round;stroke-miterlimit:10;" />
                <svg:path d="M120.895,116.434C120.895,116.434 126.45,110.809 133.976,104.483" style="fill:white;fill-rule:nonzero;stroke-linecap:round;stroke-linejoin:round;stroke-miterlimit:10;" />
                <svg:path d="M113.691,155.269C113.691,155.269 118.594,147.918 125.761,142.474" style="fill:white;fill-rule:nonzero;stroke-linecap:round;stroke-linejoin:round;stroke-miterlimit:10;" />
                <svg:path d="M80.533,130.828C80.533,130.828 85.945,126.037 92.097,120.672" style="fill:white;fill-rule:nonzero;stroke-linecap:round;stroke-linejoin:round;stroke-miterlimit:10;" />
                <svg:path d="M102.179,95.565C102.179,95.565 107.523,88.03 112.697,84.334" style="fill:white;fill-rule:nonzero;stroke-linecap:round;stroke-linejoin:round;stroke-miterlimit:10;" />
                <svg:path d="M147.18,136.367L153.609,129.777" style="fill:none;fill-rule:nonzero;stroke-linecap:round;stroke-linejoin:round;stroke-miterlimit:10;" />
                <svg:path d="M86.048,135.499C86.669,136.004 93.587,127.975 93.587,127.975" style="fill:white;fill-rule:nonzero;stroke-linecap:round;stroke-linejoin:round;stroke-miterlimit:10;" />
                <svg:path d="M53.69,95.503C53.69,95.503 41.633,93.408 43.753,80.526C45.873,67.645 59.456,72.004 59.456,72.004" style="fill:none;fill-rule:nonzero;stroke-linecap:round;stroke-linejoin:round;stroke-miterlimit:10;" />
                <svg:path d="M58.492,57.561C58.492,57.561 52.399,46.948 63.661,40.347C74.924,33.746 80.251,46.979 80.251,46.979" style="fill:rgb(158,207,187);fill-rule:nonzero;stroke-linecap:round;stroke-linejoin:round;stroke-miterlimit:10;" />
                <svg:g>
                    <svg:path d="M77.311,104.421C78.586,105.565 79.184,106.977 78.287,107.977C77.39,108.977 75.921,108.535 74.646,107.391C73.371,106.247 72.773,104.835 73.67,103.835C74.567,102.835 76.036,103.277 77.311,104.421Z" style="fill:rgb(84,57,43);fill-rule:nonzero;" />
                    <svg:path d="M92.771,87.187C94.046,88.331 94.644,89.743 93.747,90.743C92.85,91.743 91.381,91.301 90.106,90.157C88.831,89.013 88.233,87.601 89.13,86.601C90.027,85.601 91.496,86.043 92.771,87.187Z" style="fill:rgb(84,57,43);fill-rule:nonzero;" />
                    <svg:path d="M83.462,102.184C86.803,103.428 90.482,99.327 88.883,96.14" style="fill:none;fill-rule:nonzero;stroke-linecap:round;stroke-linejoin:round;stroke-miterlimit:10;" />
                    <svg:path d="M75.858,110.685C77.176,111.867 76.996,114.217 75.456,115.933C73.916,117.649 71.6,118.082 70.282,116.9C68.964,115.718 69.144,113.368 70.684,111.652C72.224,109.936 74.54,109.503 75.858,110.685Z" style="fill:rgb(255,136,185);fill-rule:nonzero;" />
                    <svg:path d="M101.752,81.82C103.07,83.002 102.89,85.352 101.35,87.068C99.81,88.784 97.494,89.217 96.176,88.035C94.858,86.853 95.038,84.503 96.578,82.787C98.118,81.07 100.434,80.637 101.752,81.82Z" style="fill:rgb(255,136,185);fill-rule:nonzero;" />
                </svg:g>
                <svg:g opacity="0.3">
                    <svg:path d="M79.976,120.81C107.912,137.017 133.884,156.125 164.64,166.817C164.767,166.843 164.867,166.978 164.816,167.109C164.781,167.209 164.681,167.268 164.58,167.253C140.27,163.47 118.566,150.364 98.826,136.299C92.243,131.507 85.822,126.498 79.683,121.139C79.593,121.06 79.583,120.923 79.662,120.832C79.752,120.74 79.876,120.737 79.976,120.81Z" style="fill:white;fill-rule:nonzero;" />
                </svg:g>
                <svg:path d="M73.07,63.777C73.07,63.777 84.901,57.162 86.048,74.309" style="fill:none;fill-rule:nonzero;stroke-linecap:round;stroke-linejoin:round;stroke-miterlimit:10;" />
                <svg:path d="M107.438,133.072L116.384,124.958" style="fill:none;fill-rule:nonzero;stroke-linecap:round;stroke-linejoin:round;stroke-miterlimit:10;" />
                <svg:path d="M98.964,105.906L108.666,96.14" style="fill:none;fill-rule:nonzero;stroke-linecap:round;stroke-linejoin:round;stroke-miterlimit:10;" />
                <svg:path d="M146.526,164.666L152.352,155.933" style="fill:none;fill-rule:nonzero;stroke-linecap:round;stroke-linejoin:round;stroke-miterlimit:10;" />
            </svg:g>
        </svg:g>
    </g>
</svg>