<?xml version='1.0' encoding='UTF-8'?>
<svg xmlns="http://www.w3.org/2000/svg" xmlns:xlink="http://www.w3.org/1999/xlink" xmlns:svg="http://www.w3.org/2000/svg" xmlns:serif="http://www.serif.com/" height="100%" style="fill-rule:evenodd;clip-rule:evenodd;" version="1.1" viewBox="720.0 170.0 120.0 40.0" width="100%">
    <g>
        <svg:rect x="720" y="170" width="120" height="40" style="fill:rgb(122,129,255);" />
        <svg:g>
            <svg:g transform="matrix(2.83355e-17,0.462754,-0.462754,2.83355e-17,941.206,-3.67912)">
                <svg:g>
                    <svg:g>
                        <svg:g>
                            <svg:g>
                                <svg:path d="M436.813,351.498L394.203,351.498C394.203,351.498 384.202,350.627 384.202,359.759L384.202,448.438C384.202,457.57 394.203,456.699 394.203,456.699L436.814,456.699C436.814,456.699 446.815,457.57 446.815,448.438L446.815,359.759C446.814,350.627 436.813,351.498 436.813,351.498Z" style="fill:rgb(183,59,39);fill-rule:nonzero;" />
                            </svg:g>
                            <svg:g>
                                <svg:path d="M435.51,351.498L392.899,351.498C392.899,351.498 382.898,350.627 382.898,359.759L382.898,448.438C382.898,457.57 392.899,456.699 392.899,456.699L435.51,456.699C435.51,456.699 445.511,457.57 445.511,448.438L445.511,359.759C445.511,350.627 435.51,351.498 435.51,351.498Z" style="fill:rgb(204,83,59);fill-rule:nonzero;" />
                            </svg:g>
                            <svg:path d="M392.899,351.498C392.899,351.498 382.898,350.627 382.898,359.759L382.898,411.39C384.441,411.584 386.01,411.695 387.605,411.695C408.283,411.695 425.045,394.933 425.045,374.255C425.045,365.692 422.164,357.806 417.328,351.498L392.899,351.498Z" style="fill:white;fill-opacity:0.2;fill-rule:nonzero;" />
                        </svg:g>
                        <svg:g>
                            <svg:g>
                                <svg:g>
                                    <svg:g>
                                        <svg:g>
                                            <svg:path d="M403.769,369.096C403.769,371.247 402.007,373.009 399.856,373.009L392.029,373.009C389.877,373.009 388.116,371.247 388.116,369.096L388.116,360.836C388.116,358.684 389.877,356.922 392.029,356.922L399.856,356.922C402.007,356.922 403.769,358.684 403.769,360.836L403.769,369.096Z" style="fill:rgb(183,59,39);fill-rule:nonzero;" />
                                        </svg:g>
                                        <svg:g>
                                            <svg:path d="M402.684,358.148C402.823,358.85 402.9,359.575 402.9,360.317C402.9,366.397 397.972,371.324 391.894,371.324C390.716,371.324 389.585,371.136 388.524,370.795C389.16,372.099 390.488,373.009 392.03,373.009L399.857,373.009C402.008,373.009 403.77,371.247 403.77,369.096L403.77,360.836C403.769,359.794 403.351,358.851 402.684,358.148Z" style="fill:rgb(165,39,27);fill-rule:nonzero;" />
                                        </svg:g>
                                        <svg:g>
                                            <svg:path d="M390.508,366.677C390.508,366.677 390.164,365.891 389.922,364.643C389.799,364.018 389.699,363.279 389.684,362.468C389.684,362.065 389.68,361.64 389.753,361.197C389.821,360.757 389.907,360.3 390.151,359.817C390.28,359.587 390.451,359.327 390.722,359.132C390.874,359.039 390.987,358.941 391.185,358.881L391.481,358.797C391.847,358.666 392.33,358.637 392.757,358.583C393.588,358.523 394.321,358.572 394.957,358.65C396.22,358.802 397.029,359.094 397.029,359.094C397.029,359.094 396.184,359.24 394.959,359.398C394.352,359.488 393.633,359.584 392.922,359.717C392.584,359.797 392.262,359.853 391.857,359.999L391.565,360.092C391.565,360.09 391.524,360.145 391.5,360.153C391.438,360.192 391.366,360.299 391.303,360.425C391.16,360.678 391.06,361.041 390.994,361.404C390.93,361.767 390.862,362.145 390.831,362.514C390.755,363.258 390.712,363.971 390.667,364.589C390.598,365.828 390.508,366.677 390.508,366.677Z" style="fill:rgb(211,90,84);fill-rule:nonzero;" />
                                        </svg:g>
                                    </svg:g>
                                    <svg:g>
                                        <svg:g>
                                            <svg:path d="M422.03,369.096C422.03,371.247 420.271,373.009 418.119,373.009L410.292,373.009C408.139,373.009 406.379,371.247 406.379,369.096L406.379,360.836C406.379,358.684 408.139,356.922 410.292,356.922L418.119,356.922C420.271,356.922 422.03,358.684 422.03,360.836L422.03,369.096Z" style="fill:rgb(183,59,39);fill-rule:nonzero;" />
                                        </svg:g>
                                        <svg:g>
                                            <svg:path d="M420.944,358.148C421.084,358.85 421.162,359.575 421.162,360.317C421.162,366.397 416.233,371.324 410.154,371.324C408.977,371.324 407.846,371.136 406.784,370.795C407.421,372.099 408.749,373.009 410.292,373.009L418.119,373.009C420.271,373.009 422.03,371.247 422.03,369.096L422.03,360.836C422.03,359.794 421.614,358.851 420.944,358.148Z" style="fill:rgb(165,39,27);fill-rule:nonzero;" />
                                        </svg:g>
                                        <svg:g>
                                            <svg:path d="M408.769,366.677C408.769,366.677 408.424,365.891 408.183,364.643C408.06,364.018 407.959,363.279 407.947,362.468C407.947,362.065 407.943,361.64 408.013,361.197C408.082,360.757 408.167,360.3 408.411,359.817C408.539,359.587 408.71,359.327 408.982,359.132C409.134,359.039 409.248,358.941 409.447,358.881L409.741,358.797C410.107,358.666 410.591,358.637 411.016,358.583C411.848,358.523 412.582,358.572 413.216,358.65C414.481,358.802 415.29,359.094 415.29,359.094C415.29,359.094 414.443,359.24 413.22,359.398C412.612,359.488 411.894,359.584 411.182,359.717C410.843,359.797 410.524,359.853 410.117,359.999L409.823,360.092C409.825,360.09 409.784,360.145 409.759,360.153C409.698,360.192 409.626,360.299 409.564,360.425C409.419,360.678 409.32,361.041 409.255,361.404C409.19,361.767 409.12,362.145 409.089,362.514C409.013,363.258 408.972,363.971 408.925,364.589C408.858,365.828 408.769,366.677 408.769,366.677Z" style="fill:rgb(211,90,84);fill-rule:nonzero;" />
                                        </svg:g>
                                    </svg:g>
                                    <svg:g>
                                        <svg:g>
                                            <svg:path d="M440.292,369.096C440.292,371.247 438.532,373.009 436.381,373.009L428.554,373.009C426.4,373.009 424.641,371.247 424.641,369.096L424.641,360.836C424.641,358.684 426.4,356.922 428.554,356.922L436.381,356.922C438.532,356.922 440.292,358.684 440.292,360.836L440.292,369.096Z" style="fill:rgb(183,59,39);fill-rule:nonzero;" />
                                        </svg:g>
                                        <svg:g>
                                            <svg:path d="M439.207,358.148C439.347,358.85 439.423,359.575 439.423,360.317C439.423,366.397 434.496,371.324 428.416,371.324C427.24,371.324 426.107,371.136 425.046,370.795C425.682,372.099 427.01,373.009 428.554,373.009L436.381,373.009C438.532,373.009 440.292,371.247 440.292,369.096L440.292,360.836C440.292,359.794 439.875,358.851 439.207,358.148Z" style="fill:rgb(165,39,27);fill-rule:nonzero;" />
                                        </svg:g>
                                        <svg:g>
                                            <svg:path d="M427.032,366.677C427.032,366.677 426.688,365.891 426.444,364.643C426.321,364.018 426.222,363.279 426.208,362.468C426.208,362.065 426.204,361.64 426.275,361.197C426.345,360.757 426.431,360.3 426.674,359.817C426.803,359.587 426.974,359.327 427.245,359.132C427.397,359.039 427.509,358.941 427.708,358.881L428.004,358.797C428.368,358.666 428.853,358.637 429.278,358.583C430.111,358.523 430.843,358.572 431.48,358.65C432.743,358.802 433.551,359.094 433.551,359.094C433.551,359.094 432.705,359.24 431.482,359.398C430.874,359.488 430.156,359.584 429.443,359.717C429.105,359.797 428.785,359.853 428.38,359.999L428.086,360.092C428.088,360.09 428.047,360.145 428.021,360.153C427.961,360.192 427.889,360.299 427.826,360.425C427.681,360.678 427.583,361.041 427.517,361.404C427.452,361.767 427.385,362.145 427.353,362.514C427.277,363.258 427.234,363.971 427.188,364.589C427.119,365.828 427.032,366.677 427.032,366.677Z" style="fill:rgb(211,90,84);fill-rule:nonzero;" />
                                        </svg:g>
                                    </svg:g>
                                </svg:g>
                                <svg:g>
                                    <svg:g>
                                        <svg:g>
                                            <svg:path d="M403.769,388.663C403.769,390.814 402.007,392.576 399.856,392.576L392.029,392.576C389.877,392.576 388.116,390.814 388.116,388.663L388.116,380.401C388.116,378.249 389.877,376.488 392.029,376.488L399.856,376.488C402.007,376.488 403.769,378.249 403.769,380.401L403.769,388.663Z" style="fill:rgb(183,59,39);fill-rule:nonzero;" />
                                        </svg:g>
                                        <svg:g>
                                            <svg:path d="M402.684,377.713C402.823,378.418 402.9,379.143 402.9,379.886C402.9,385.964 397.972,390.891 391.894,390.891C390.716,390.891 389.585,390.702 388.524,390.362C389.16,391.667 390.488,392.577 392.03,392.577L399.857,392.577C402.008,392.577 403.77,390.815 403.77,388.664L403.77,380.402C403.769,379.362 403.351,378.418 402.684,377.713Z" style="fill:rgb(165,39,27);fill-rule:nonzero;" />
                                        </svg:g>
                                        <svg:g>
                                            <svg:path d="M390.508,386.244C390.508,386.244 390.164,385.456 389.922,384.208C389.799,383.584 389.699,382.846 389.684,382.036C389.684,381.63 389.68,381.204 389.753,380.763C389.821,380.323 389.907,379.868 390.151,379.383C390.28,379.153 390.451,378.893 390.722,378.701C390.874,378.607 390.987,378.508 391.185,378.448L391.481,378.365C391.847,378.232 392.33,378.203 392.757,378.149C393.588,378.091 394.321,378.137 394.957,378.216C396.22,378.369 397.029,378.661 397.029,378.661C397.029,378.661 396.184,378.807 394.959,378.966C394.352,379.053 393.633,379.15 392.922,379.285C392.584,379.363 392.262,379.42 391.857,379.567L391.565,379.659C391.565,379.656 391.524,379.714 391.5,379.721C391.438,379.761 391.366,379.868 391.303,379.994C391.16,380.246 391.06,380.611 390.994,380.973C390.93,381.333 390.862,381.711 390.831,382.083C390.755,382.826 390.712,383.54 390.667,384.158C390.598,385.393 390.508,386.244 390.508,386.244Z" style="fill:rgb(211,90,84);fill-rule:nonzero;" />
                                        </svg:g>
                                    </svg:g>
                                    <svg:g>
                                        <svg:g>
                                            <svg:path d="M422.03,388.663C422.03,390.814 420.271,392.576 418.119,392.576L410.292,392.576C408.139,392.576 406.379,390.814 406.379,388.663L406.379,380.401C406.379,378.249 408.139,376.488 410.292,376.488L418.119,376.488C420.271,376.488 422.03,378.249 422.03,380.401L422.03,388.663Z" style="fill:rgb(183,59,39);fill-rule:nonzero;" />
                                        </svg:g>
                                        <svg:g>
                                            <svg:path d="M420.944,377.713C421.084,378.418 421.162,379.143 421.162,379.886C421.162,385.964 416.233,390.891 410.154,390.891C408.977,390.891 407.846,390.702 406.784,390.362C407.421,391.667 408.749,392.577 410.292,392.577L418.119,392.577C420.271,392.577 422.03,390.815 422.03,388.664L422.03,380.402C422.03,379.362 421.614,378.418 420.944,377.713Z" style="fill:rgb(165,39,27);fill-rule:nonzero;" />
                                        </svg:g>
                                        <svg:g>
                                            <svg:path d="M408.769,386.244C408.769,386.244 408.424,385.456 408.183,384.208C408.06,383.584 407.959,382.846 407.947,382.036C407.947,381.63 407.943,381.204 408.013,380.763C408.082,380.323 408.167,379.868 408.411,379.383C408.539,379.153 408.71,378.893 408.982,378.701C409.134,378.607 409.248,378.508 409.447,378.448L409.741,378.365C410.107,378.232 410.591,378.203 411.016,378.149C411.848,378.091 412.582,378.137 413.216,378.216C414.481,378.369 415.29,378.661 415.29,378.661C415.29,378.661 414.443,378.807 413.22,378.966C412.612,379.053 411.894,379.15 411.182,379.285C410.843,379.363 410.524,379.42 410.117,379.567L409.823,379.659C409.825,379.656 409.784,379.714 409.759,379.721C409.698,379.761 409.626,379.868 409.564,379.994C409.419,380.246 409.32,380.611 409.255,380.973C409.19,381.333 409.12,381.711 409.089,382.083C409.013,382.826 408.972,383.54 408.925,384.158C408.858,385.393 408.769,386.244 408.769,386.244Z" style="fill:rgb(211,90,84);fill-rule:nonzero;" />
                                        </svg:g>
                                    </svg:g>
                                    <svg:g>
                                        <svg:g>
                                            <svg:path d="M440.292,388.663C440.292,390.814 438.532,392.576 436.381,392.576L428.554,392.576C426.4,392.576 424.641,390.814 424.641,388.663L424.641,380.401C424.641,378.249 426.4,376.488 428.554,376.488L436.381,376.488C438.532,376.488 440.292,378.249 440.292,380.401L440.292,388.663Z" style="fill:rgb(183,59,39);fill-rule:nonzero;" />
                                        </svg:g>
                                        <svg:g>
                                            <svg:path d="M439.207,377.713C439.347,378.418 439.423,379.143 439.423,379.886C439.423,385.964 434.496,390.891 428.416,390.891C427.24,390.891 426.107,390.702 425.046,390.362C425.682,391.667 427.01,392.577 428.554,392.577L436.381,392.577C438.532,392.577 440.292,390.815 440.292,388.664L440.292,380.402C440.292,379.362 439.875,378.418 439.207,377.713Z" style="fill:rgb(165,39,27);fill-rule:nonzero;" />
                                        </svg:g>
                                        <svg:g>
                                            <svg:path d="M427.032,386.244C427.032,386.244 426.688,385.456 426.444,384.208C426.321,383.584 426.222,382.846 426.208,382.036C426.208,381.63 426.204,381.204 426.275,380.763C426.345,380.323 426.431,379.868 426.674,379.383C426.803,379.153 426.974,378.893 427.245,378.701C427.397,378.607 427.509,378.508 427.708,378.448L428.004,378.365C428.368,378.232 428.853,378.203 429.278,378.149C430.111,378.091 430.843,378.137 431.48,378.216C432.743,378.369 433.551,378.661 433.551,378.661C433.551,378.661 432.705,378.807 431.482,378.966C430.874,379.053 430.156,379.15 429.443,379.285C429.105,379.363 428.785,379.42 428.38,379.567L428.086,379.659C428.088,379.656 428.047,379.714 428.021,379.721C427.961,379.761 427.889,379.868 427.826,379.994C427.681,380.246 427.583,380.611 427.517,380.973C427.452,381.333 427.385,381.711 427.353,382.083C427.277,382.826 427.234,383.54 427.188,384.158C427.119,385.393 427.032,386.244 427.032,386.244Z" style="fill:rgb(211,90,84);fill-rule:nonzero;" />
                                        </svg:g>
                                    </svg:g>
                                </svg:g>
                            </svg:g>
                            <svg:g>
                                <svg:g>
                                    <svg:g>
                                        <svg:g>
                                            <svg:path d="M403.769,408.228C403.769,410.379 402.007,412.141 399.856,412.141L392.029,412.141C389.877,412.141 388.116,410.379 388.116,408.228L388.116,399.968C388.116,397.815 389.877,396.055 392.029,396.055L399.856,396.055C402.007,396.055 403.769,397.815 403.769,399.968L403.769,408.228Z" style="fill:rgb(183,59,39);fill-rule:nonzero;" />
                                        </svg:g>
                                        <svg:g>
                                            <svg:path d="M402.684,397.281C402.823,397.983 402.9,398.708 402.9,399.45C402.9,405.53 397.972,410.457 391.894,410.457C390.716,410.457 389.585,410.269 388.524,409.927C389.16,411.232 390.488,412.142 392.03,412.142L399.857,412.142C402.008,412.142 403.77,410.38 403.77,408.229L403.77,399.969C403.769,398.927 403.351,397.983 402.684,397.281Z" style="fill:rgb(165,39,27);fill-rule:nonzero;" />
                                        </svg:g>
                                        <svg:g>
                                            <svg:path d="M390.508,405.81C390.508,405.81 390.164,405.023 389.922,403.776C389.799,403.151 389.699,402.412 389.684,401.601C389.684,401.196 389.68,400.773 389.753,400.331C389.821,399.89 389.907,399.433 390.151,398.95C390.28,398.721 390.451,398.459 390.722,398.266C390.874,398.173 390.987,398.074 391.185,398.015L391.481,397.931C391.847,397.8 392.33,397.771 392.757,397.716C393.588,397.657 394.321,397.705 394.957,397.784C396.22,397.935 397.029,398.228 397.029,398.228C397.029,398.228 396.184,398.375 394.959,398.532C394.352,398.621 393.633,398.718 392.922,398.851C392.584,398.931 392.262,398.987 391.857,399.133L391.565,399.226C391.565,399.224 391.524,399.279 391.5,399.287C391.438,399.326 391.366,399.433 391.303,399.559C391.16,399.812 391.06,400.175 390.994,400.538C390.93,400.901 390.862,401.279 390.831,401.648C390.755,402.392 390.712,403.105 390.667,403.722C390.598,404.958 390.508,405.81 390.508,405.81Z" style="fill:rgb(211,90,84);fill-rule:nonzero;" />
                                        </svg:g>
                                    </svg:g>
                                    <svg:g>
                                        <svg:g>
                                            <svg:path d="M422.03,408.228C422.03,410.379 420.271,412.141 418.119,412.141L410.292,412.141C408.139,412.141 406.379,410.379 406.379,408.228L406.379,399.968C406.379,397.815 408.139,396.055 410.292,396.055L418.119,396.055C420.271,396.055 422.03,397.815 422.03,399.968L422.03,408.228Z" style="fill:rgb(183,59,39);fill-rule:nonzero;" />
                                        </svg:g>
                                        <svg:g>
                                            <svg:path d="M420.944,397.281C421.084,397.983 421.162,398.708 421.162,399.45C421.162,405.53 416.233,410.457 410.154,410.457C408.977,410.457 407.846,410.269 406.784,409.927C407.421,411.232 408.749,412.142 410.292,412.142L418.119,412.142C420.271,412.142 422.03,410.38 422.03,408.229L422.03,399.969C422.03,398.927 421.614,397.983 420.944,397.281Z" style="fill:rgb(165,39,27);fill-rule:nonzero;" />
                                        </svg:g>
                                        <svg:g>
                                            <svg:path d="M408.769,405.81C408.769,405.81 408.424,405.023 408.183,403.776C408.06,403.151 407.959,402.412 407.947,401.601C407.947,401.196 407.943,400.773 408.013,400.331C408.082,399.89 408.167,399.433 408.411,398.95C408.539,398.721 408.71,398.459 408.982,398.266C409.134,398.173 409.248,398.074 409.447,398.015L409.741,397.931C410.107,397.8 410.591,397.771 411.016,397.716C411.848,397.657 412.582,397.705 413.216,397.784C414.481,397.935 415.29,398.228 415.29,398.228C415.29,398.228 414.443,398.375 413.22,398.532C412.612,398.621 411.894,398.718 411.182,398.851C410.843,398.931 410.524,398.987 410.117,399.133L409.823,399.226C409.825,399.224 409.784,399.279 409.759,399.287C409.698,399.326 409.626,399.433 409.564,399.559C409.419,399.812 409.32,400.175 409.255,400.538C409.19,400.901 409.12,401.279 409.089,401.648C409.013,402.392 408.972,403.105 408.925,403.722C408.858,404.958 408.769,405.81 408.769,405.81Z" style="fill:rgb(211,90,84);fill-rule:nonzero;" />
                                        </svg:g>
                                    </svg:g>
                                    <svg:g>
                                        <svg:g>
                                            <svg:path d="M440.292,408.228C440.292,410.379 438.532,412.141 436.381,412.141L428.554,412.141C426.4,412.141 424.641,410.379 424.641,408.228L424.641,399.968C424.641,397.815 426.4,396.055 428.554,396.055L436.381,396.055C438.532,396.055 440.292,397.815 440.292,399.968L440.292,408.228Z" style="fill:rgb(183,59,39);fill-rule:nonzero;" />
                                        </svg:g>
                                        <svg:g>
                                            <svg:path d="M439.207,397.281C439.347,397.983 439.423,398.708 439.423,399.45C439.423,405.53 434.496,410.457 428.416,410.457C427.24,410.457 426.107,410.269 425.046,409.927C425.682,411.232 427.01,412.142 428.554,412.142L436.381,412.142C438.532,412.142 440.292,410.38 440.292,408.229L440.292,399.969C440.292,398.927 439.875,397.983 439.207,397.281Z" style="fill:rgb(165,39,27);fill-rule:nonzero;" />
                                        </svg:g>
                                        <svg:g>
                                            <svg:path d="M427.032,405.81C427.032,405.81 426.688,405.023 426.444,403.776C426.321,403.151 426.222,402.412 426.208,401.601C426.208,401.196 426.204,400.773 426.275,400.331C426.345,399.89 426.431,399.433 426.674,398.95C426.803,398.721 426.974,398.459 427.245,398.266C427.397,398.173 427.509,398.074 427.708,398.015L428.004,397.931C428.368,397.8 428.853,397.771 429.278,397.716C430.111,397.657 430.843,397.705 431.48,397.784C432.743,397.935 433.551,398.228 433.551,398.228C433.551,398.228 432.705,398.375 431.482,398.532C430.874,398.621 430.156,398.718 429.443,398.851C429.105,398.931 428.785,398.987 428.38,399.133L428.086,399.226C428.088,399.224 428.047,399.279 428.021,399.287C427.961,399.326 427.889,399.433 427.826,399.559C427.681,399.812 427.583,400.175 427.517,400.538C427.452,400.901 427.385,401.279 427.353,401.648C427.277,402.392 427.234,403.105 427.188,403.722C427.119,404.958 427.032,405.81 427.032,405.81Z" style="fill:rgb(211,90,84);fill-rule:nonzero;" />
                                        </svg:g>
                                    </svg:g>
                                </svg:g>
                                <svg:g>
                                    <svg:g>
                                        <svg:g>
                                            <svg:path d="M403.769,427.794C403.769,429.947 402.007,431.707 399.856,431.707L392.029,431.707C389.877,431.707 388.116,429.947 388.116,427.794L388.116,419.534C388.116,417.382 389.877,415.621 392.029,415.621L399.856,415.621C402.007,415.621 403.769,417.382 403.769,419.534L403.769,427.794Z" style="fill:rgb(183,59,39);fill-rule:nonzero;" />
                                        </svg:g>
                                        <svg:g>
                                            <svg:path d="M402.684,416.846C402.823,417.55 402.9,418.273 402.9,419.019C402.9,425.096 397.972,430.024 391.894,430.024C390.716,430.024 389.585,429.836 388.524,429.495C389.16,430.797 390.488,431.708 392.03,431.708L399.857,431.708C402.008,431.708 403.77,429.948 403.77,427.795L403.77,419.535C403.769,418.492 403.351,417.55 402.684,416.846Z" style="fill:rgb(165,39,27);fill-rule:nonzero;" />
                                        </svg:g>
                                        <svg:g>
                                            <svg:path d="M390.508,425.377C390.508,425.377 390.164,424.588 389.922,423.339C389.799,422.716 389.699,421.978 389.684,421.169C389.684,420.763 389.68,420.337 389.753,419.896C389.821,419.456 389.907,418.998 390.151,418.516C390.28,418.286 390.451,418.025 390.722,417.833C390.874,417.739 390.987,417.639 391.185,417.581L391.481,417.496C391.847,417.364 392.33,417.335 392.757,417.282C393.588,417.223 394.321,417.27 394.957,417.348C396.22,417.501 397.029,417.794 397.029,417.794C397.029,417.794 396.184,417.939 394.959,418.096C394.352,418.186 393.633,418.284 392.922,418.419C392.584,418.497 392.262,418.553 391.857,418.696L391.565,418.792C391.565,418.788 391.524,418.846 391.5,418.851C391.438,418.892 391.366,418.997 391.303,419.123C391.16,419.376 391.06,419.743 390.994,420.102C390.93,420.466 390.862,420.843 390.831,421.216C390.755,421.959 390.712,422.673 390.667,423.29C390.598,424.524 390.508,425.377 390.508,425.377Z" style="fill:rgb(211,90,84);fill-rule:nonzero;" />
                                        </svg:g>
                                    </svg:g>
                                    <svg:g>
                                        <svg:g>
                                            <svg:path d="M422.03,427.794C422.03,429.947 420.271,431.707 418.119,431.707L410.292,431.707C408.139,431.707 406.379,429.947 406.379,427.794L406.379,419.534C406.379,417.382 408.139,415.621 410.292,415.621L418.119,415.621C420.271,415.621 422.03,417.382 422.03,419.534L422.03,427.794Z" style="fill:rgb(183,59,39);fill-rule:nonzero;" />
                                        </svg:g>
                                        <svg:g>
                                            <svg:path d="M420.944,416.846C421.084,417.55 421.162,418.273 421.162,419.019C421.162,425.096 416.233,430.024 410.154,430.024C408.977,430.024 407.846,429.836 406.784,429.495C407.421,430.797 408.749,431.708 410.292,431.708L418.119,431.708C420.271,431.708 422.03,429.948 422.03,427.795L422.03,419.535C422.03,418.492 421.614,417.55 420.944,416.846Z" style="fill:rgb(165,39,27);fill-rule:nonzero;" />
                                        </svg:g>
                                        <svg:g>
                                            <svg:path d="M408.769,425.377C408.769,425.377 408.424,424.588 408.183,423.339C408.06,422.716 407.959,421.978 407.947,421.169C407.947,420.763 407.943,420.337 408.013,419.896C408.082,419.456 408.167,418.998 408.411,418.516C408.539,418.286 408.71,418.025 408.982,417.833C409.134,417.739 409.248,417.639 409.447,417.581L409.741,417.496C410.107,417.364 410.591,417.335 411.016,417.282C411.848,417.223 412.582,417.27 413.216,417.348C414.481,417.501 415.29,417.794 415.29,417.794C415.29,417.794 414.443,417.939 413.22,418.096C412.612,418.186 411.894,418.284 411.182,418.419C410.843,418.497 410.524,418.553 410.117,418.696L409.823,418.792C409.825,418.788 409.784,418.846 409.759,418.851C409.698,418.892 409.626,418.997 409.564,419.123C409.419,419.376 409.32,419.743 409.255,420.102C409.19,420.466 409.12,420.843 409.089,421.216C409.013,421.959 408.972,422.673 408.925,423.29C408.858,424.524 408.769,425.377 408.769,425.377Z" style="fill:rgb(211,90,84);fill-rule:nonzero;" />
                                        </svg:g>
                                    </svg:g>
                                    <svg:g>
                                        <svg:g>
                                            <svg:path d="M440.292,427.794C440.292,429.947 438.532,431.707 436.381,431.707L428.554,431.707C426.4,431.707 424.641,429.947 424.641,427.794L424.641,419.534C424.641,417.382 426.4,415.621 428.554,415.621L436.381,415.621C438.532,415.621 440.292,417.382 440.292,419.534L440.292,427.794Z" style="fill:rgb(183,59,39);fill-rule:nonzero;" />
                                        </svg:g>
                                        <svg:g>
                                            <svg:path d="M439.207,416.846C439.347,417.55 439.423,418.273 439.423,419.019C439.423,425.096 434.496,430.024 428.416,430.024C427.24,430.024 426.107,429.836 425.046,429.495C425.682,430.797 427.01,431.708 428.554,431.708L436.381,431.708C438.532,431.708 440.292,429.948 440.292,427.795L440.292,419.535C440.292,418.492 439.875,417.55 439.207,416.846Z" style="fill:rgb(165,39,27);fill-rule:nonzero;" />
                                        </svg:g>
                                        <svg:g>
                                            <svg:path d="M427.032,425.377C427.032,425.377 426.688,424.588 426.444,423.339C426.321,422.716 426.222,421.978 426.208,421.169C426.208,420.763 426.204,420.337 426.275,419.896C426.345,419.456 426.431,418.998 426.674,418.516C426.803,418.286 426.974,418.025 427.245,417.833C427.397,417.739 427.509,417.639 427.708,417.581L428.004,417.496C428.368,417.364 428.853,417.335 429.278,417.282C430.111,417.223 430.843,417.27 431.48,417.348C432.743,417.501 433.551,417.794 433.551,417.794C433.551,417.794 432.705,417.939 431.482,418.096C430.874,418.186 430.156,418.284 429.443,418.419C429.105,418.497 428.785,418.553 428.38,418.696L428.086,418.792C428.088,418.788 428.047,418.846 428.021,418.851C427.961,418.892 427.889,418.997 427.826,419.123C427.681,419.376 427.583,419.743 427.517,420.102C427.452,420.466 427.385,420.843 427.353,421.216C427.277,421.959 427.234,422.673 427.188,423.29C427.119,424.524 427.032,425.377 427.032,425.377Z" style="fill:rgb(211,90,84);fill-rule:nonzero;" />
                                        </svg:g>
                                    </svg:g>
                                </svg:g>
                                <svg:g>
                                    <svg:g>
                                        <svg:g>
                                            <svg:path d="M403.769,447.36C403.769,449.512 402.007,451.274 399.856,451.274L392.029,451.274C389.877,451.274 388.116,449.512 388.116,447.36L388.116,439.101C388.116,436.948 389.877,435.188 392.029,435.188L399.856,435.188C402.007,435.188 403.769,436.948 403.769,439.101L403.769,447.36Z" style="fill:rgb(183,59,39);fill-rule:nonzero;" />
                                        </svg:g>
                                        <svg:g>
                                            <svg:path d="M402.684,436.414C402.823,437.115 402.9,437.84 402.9,438.583C402.9,444.662 397.972,449.59 391.894,449.59C390.716,449.59 389.585,449.402 388.524,449.06C389.16,450.363 390.488,451.275 392.03,451.275L399.857,451.275C402.008,451.275 403.77,449.513 403.77,447.361L403.77,439.102C403.769,438.059 403.351,437.116 402.684,436.414Z" style="fill:rgb(165,39,27);fill-rule:nonzero;" />
                                        </svg:g>
                                        <svg:g>
                                            <svg:path d="M390.508,444.942C390.508,444.942 390.164,444.153 389.922,442.906C389.799,442.283 389.699,441.544 389.684,440.733C389.684,440.328 389.68,439.902 389.753,439.462C389.821,439.022 389.907,438.565 390.151,438.082C390.28,437.852 390.451,437.589 390.722,437.398C390.874,437.304 390.987,437.205 391.185,437.146L391.481,437.062C391.847,436.929 392.33,436.903 392.757,436.848C393.588,436.789 394.321,436.834 394.957,436.913C396.22,437.066 397.029,437.359 397.029,437.359C397.029,437.359 396.184,437.504 394.959,437.664C394.352,437.751 393.633,437.848 392.922,437.983C392.584,438.061 392.262,438.119 391.857,438.264L391.565,438.358C391.565,438.355 391.524,438.41 391.5,438.418C391.438,438.457 391.366,438.564 391.303,438.691C391.16,438.943 391.06,439.308 390.994,439.669C390.93,440.031 390.862,440.407 390.831,440.78C390.755,441.524 390.712,442.237 390.667,442.853C390.598,444.09 390.508,444.942 390.508,444.942Z" style="fill:rgb(211,90,84);fill-rule:nonzero;" />
                                        </svg:g>
                                    </svg:g>
                                    <svg:g>
                                        <svg:g>
                                            <svg:path d="M422.03,447.36C422.03,449.512 420.271,451.274 418.119,451.274L410.292,451.274C408.139,451.274 406.379,449.512 406.379,447.36L406.379,439.101C406.379,436.948 408.139,435.188 410.292,435.188L418.119,435.188C420.271,435.188 422.03,436.948 422.03,439.101L422.03,447.36Z" style="fill:rgb(183,59,39);fill-rule:nonzero;" />
                                        </svg:g>
                                        <svg:g>
                                            <svg:path d="M420.944,436.414C421.084,437.115 421.162,437.84 421.162,438.583C421.162,444.662 416.233,449.59 410.154,449.59C408.977,449.59 407.846,449.402 406.784,449.06C407.421,450.363 408.749,451.275 410.292,451.275L418.119,451.275C420.271,451.275 422.03,449.513 422.03,447.361L422.03,439.102C422.03,438.059 421.614,437.116 420.944,436.414Z" style="fill:rgb(165,39,27);fill-rule:nonzero;" />
                                        </svg:g>
                                        <svg:g>
                                            <svg:path d="M408.769,444.942C408.769,444.942 408.424,444.153 408.183,442.906C408.06,442.283 407.959,441.544 407.947,440.733C407.947,440.328 407.943,439.902 408.013,439.462C408.082,439.022 408.167,438.565 408.411,438.082C408.539,437.852 408.71,437.589 408.982,437.398C409.134,437.304 409.248,437.205 409.447,437.146L409.741,437.062C410.107,436.929 410.591,436.903 411.016,436.848C411.848,436.789 412.582,436.834 413.216,436.913C414.481,437.066 415.29,437.359 415.29,437.359C415.29,437.359 414.443,437.504 413.22,437.664C412.612,437.751 411.894,437.848 411.182,437.983C410.843,438.061 410.524,438.119 410.117,438.264L409.823,438.358C409.825,438.355 409.784,438.41 409.759,438.418C409.698,438.457 409.626,438.564 409.564,438.691C409.419,438.943 409.32,439.308 409.255,439.669C409.19,440.031 409.12,440.407 409.089,440.78C409.013,441.524 408.972,442.237 408.925,442.853C408.858,444.09 408.769,444.942 408.769,444.942Z" style="fill:rgb(211,90,84);fill-rule:nonzero;" />
                                        </svg:g>
                                    </svg:g>
                                    <svg:g>
                                        <svg:g>
                                            <svg:path d="M440.292,447.36C440.292,449.512 438.532,451.274 436.381,451.274L428.554,451.274C426.4,451.274 424.641,449.512 424.641,447.36L424.641,439.101C424.641,436.948 426.4,435.188 428.554,435.188L436.381,435.188C438.532,435.188 440.292,436.948 440.292,439.101L440.292,447.36Z" style="fill:rgb(183,59,39);fill-rule:nonzero;" />
                                        </svg:g>
                                        <svg:g>
                                            <svg:path d="M439.207,436.414C439.347,437.115 439.423,437.84 439.423,438.583C439.423,444.662 434.496,449.59 428.416,449.59C427.24,449.59 426.107,449.402 425.046,449.06C425.682,450.363 427.01,451.275 428.554,451.275L436.381,451.275C438.532,451.275 440.292,449.513 440.292,447.361L440.292,439.102C440.292,438.059 439.875,437.116 439.207,436.414Z" style="fill:rgb(165,39,27);fill-rule:nonzero;" />
                                        </svg:g>
                                        <svg:g>
                                            <svg:path d="M427.032,444.942C427.032,444.942 426.688,444.153 426.444,442.906C426.321,442.283 426.222,441.544 426.208,440.733C426.208,440.328 426.204,439.902 426.275,439.462C426.345,439.022 426.431,438.565 426.674,438.082C426.803,437.852 426.974,437.589 427.245,437.398C427.397,437.304 427.509,437.205 427.708,437.146L428.004,437.062C428.368,436.929 428.853,436.903 429.278,436.848C430.111,436.789 430.843,436.834 431.48,436.913C432.743,437.066 433.551,437.359 433.551,437.359C433.551,437.359 432.705,437.504 431.482,437.664C430.874,437.751 430.156,437.848 429.443,437.983C429.105,438.061 428.785,438.119 428.38,438.264L428.086,438.358C428.088,438.355 428.047,438.41 428.021,438.418C427.961,438.457 427.889,438.564 427.826,438.691C427.681,438.943 427.583,439.308 427.517,439.669C427.452,440.031 427.385,440.407 427.353,440.78C427.277,441.524 427.234,442.237 427.188,442.853C427.119,444.09 427.032,444.942 427.032,444.942Z" style="fill:rgb(211,90,84);fill-rule:nonzero;" />
                                        </svg:g>
                                    </svg:g>
                                </svg:g>
                            </svg:g>
                        </svg:g>
                        <svg:g>
                            <svg:path d="M392.196,457.221C390.749,457.221 387.228,456.966 384.829,454.724C383.216,453.216 382.398,451.101 382.398,448.439L382.398,359.759C382.398,357.097 383.215,354.982 384.829,353.474C387.759,350.735 392.367,350.964 392.877,350.995C393.667,350.953 394.222,350.997 394.246,351L435.51,350.998C435.491,350.998 436.038,350.952 436.867,350.993C437.509,350.951 442.005,350.783 444.884,353.473C446.497,354.981 447.315,357.096 447.315,359.758L447.315,448.438C447.315,451.1 446.498,453.215 444.884,454.723C441.955,457.461 437.351,457.234 436.838,457.201C436.052,457.244 435.491,457.199 435.468,457.196L394.203,457.198C394.222,457.198 393.664,457.244 392.818,457.201C392.735,457.209 392.517,457.221 392.196,457.221ZM392.229,351.976C390.835,351.976 387.648,352.207 385.511,354.205C384.109,355.516 383.398,357.386 383.398,359.76L383.398,448.44C383.398,450.814 384.109,452.683 385.511,453.995C388.133,456.446 392.334,456.238 392.81,456.206C393.643,456.246 394.155,456.203 394.161,456.203L435.51,456.201C435.558,456.204 436.072,456.247 436.846,456.206C437.375,456.239 441.581,456.444 444.201,453.995C445.603,452.683 446.314,450.814 446.314,448.44L446.314,359.76C446.314,357.386 445.603,355.517 444.201,354.205C441.578,351.754 437.375,351.962 436.904,351.994L436.875,351.996L436.846,351.994C436.075,351.954 435.558,351.997 435.552,351.997L394.203,351.999C394.156,351.997 393.643,351.956 392.869,351.994C392.771,351.987 392.547,351.976 392.229,351.976Z" style="fill:rgb(21,47,71);fill-rule:nonzero;" />
                        </svg:g>
                    </svg:g>
                    <svg:g>
                        <svg:g>
                            <svg:g>
                                <svg:path d="M382.898,415.621C382.898,415.621 440.059,392.246 450.03,397.281C460,402.315 462.137,421.316 462.137,421.316C462.137,421.316 419.036,406.85 382.898,415.621Z" style="fill:rgb(255,201,226);fill-rule:nonzero;" />
                            </svg:g>
                            <svg:g>
                                <svg:g>
                                    <svg:g>
                                        <svg:path d="M382.898,415.621C382.898,415.621 440.059,392.246 450.03,397.281C460,402.315 462.137,421.316 462.137,421.316C462.137,421.316 419.036,406.85 382.898,415.621Z" style="fill:rgb(255,201,226);fill-rule:nonzero;" />
                                    </svg:g>
                                </svg:g>
                                <svg:g>
                                    <svg:path d="M460.994,415.28C444.51,407.335 424.646,405.666 407.934,406.203C394.372,410.93 382.899,415.621 382.899,415.621C419.037,406.85 462.138,421.316 462.138,421.316C462.138,421.316 461.849,418.761 460.994,415.28Z" style="fill:rgb(249,183,216);fill-rule:nonzero;" />
                                </svg:g>
                            </svg:g>
                            <svg:g>
                                <svg:path d="M462.723,422.04L461.979,421.79C461.55,421.647 418.593,407.469 383.017,416.107L382.709,415.158C385.052,414.2 440.192,391.751 450.256,396.835C460.351,401.933 462.546,420.474 462.635,421.261L462.723,422.04ZM408.466,412.322C433.82,412.322 457.082,419.203 461.535,420.598C461.001,417.01 458.29,402.011 449.805,397.727C441.924,393.747 402.881,408.323 388.454,413.954C395.067,412.793 401.84,412.322 408.466,412.322Z" style="fill:rgb(21,47,71);fill-rule:nonzero;" />
                            </svg:g>
                        </svg:g>
                        <svg:g>
                            <svg:g>
                                <svg:g>
                                    <svg:path d="M382.898,415.621L382.898,448.438C382.898,457.379 392.461,456.733 392.862,456.701C393.668,456.741 394.203,456.699 394.203,456.699L435.51,456.699C435.51,456.699 436.048,456.741 436.851,456.701C437.255,456.733 446.815,457.38 446.815,448.438L446.815,417.25C431.027,413.769 405.592,410.113 382.898,415.621Z" style="fill:rgb(242,165,204);fill-rule:nonzero;" />
                                </svg:g>
                                <svg:g>
                                    <svg:path d="M384.401,415.272C383.888,415.467 383.387,415.659 382.898,415.846L382.898,418.111C405.774,414.835 429.535,417.666 446.814,421.05L446.814,417.251C431.373,413.845 406.706,410.275 384.401,415.272Z" style="fill:rgb(232,151,196);fill-rule:nonzero;" />
                                </svg:g>
                                <svg:g>
                                    <svg:path d="M404.806,451.274C396.856,451.274 389.39,449.493 382.899,446.377L382.899,448.438C382.899,457.379 392.462,456.733 392.863,456.701C393.669,456.741 394.204,456.699 394.204,456.699L435.511,456.699C435.511,456.699 436.049,456.741 436.852,456.701C437.256,456.733 446.816,457.38 446.816,448.438L446.816,426.628C440.158,441.066 423.864,451.274 404.806,451.274Z" style="fill:rgb(232,151,196);fill-rule:nonzero;" />
                                </svg:g>
                                <svg:path d="M382.898,441.982C385.31,443.166 388.048,443.845 390.957,443.845C400.592,443.845 408.402,436.505 408.402,427.452C408.402,421.292 404.782,415.932 399.436,413.131C393.879,413.529 388.31,414.309 382.897,415.623C382.898,423.984 382.898,434.659 382.898,441.982Z" style="fill:white;fill-opacity:0.2;fill-rule:nonzero;" />
                            </svg:g>
                            <svg:g>
                                <svg:path d="M392.181,457.222C390.741,457.222 387.258,456.97 384.865,454.761C383.229,453.251 382.399,451.124 382.399,448.439L382.399,415.228L382.781,415.135C405.122,409.713 429.991,413.028 446.923,416.763L447.316,416.85L447.316,448.439C447.316,451.123 446.487,453.25 444.851,454.761C441.817,457.565 437.016,457.22 436.812,457.199C436.053,457.245 435.497,457.2 435.472,457.197L394.204,457.199C394.22,457.198 393.667,457.241 392.839,457.2C392.809,457.204 392.568,457.222 392.181,457.222ZM383.398,416.016L383.398,448.439C383.398,450.834 384.12,452.713 385.543,454.027C388.264,456.539 392.638,456.216 392.822,456.204C393.648,456.239 394.159,456.202 394.164,456.202L435.51,456.2C435.554,456.202 436.072,456.238 436.825,456.203C437.078,456.217 441.455,456.534 444.172,454.026C445.594,452.713 446.315,450.834 446.315,448.439L446.315,417.654C429.593,413.997 405.281,410.809 383.398,416.016Z" style="fill:rgb(21,47,71);fill-rule:nonzero;" />
                            </svg:g>
                        </svg:g>
                    </svg:g>
                    <svg:g>
                        <svg:g>
                            <svg:g>
                                <svg:g>
                                    <svg:path d="M407.441,435.188C407.441,436.906 406.049,438.299 404.329,438.299C402.612,438.299 401.22,436.906 401.22,435.188C401.22,433.469 402.613,432.077 404.329,432.077C406.05,432.076 407.441,433.469 407.441,435.188Z" style="fill:rgb(21,47,71);fill-rule:nonzero;" />
                                </svg:g>
                                <svg:g>
                                    <svg:g>
                                        <svg:path d="M404.207,434.047C404.207,434.49 403.846,434.851 403.401,434.851C402.959,434.851 402.599,434.491 402.599,434.047C402.599,433.603 402.958,433.243 403.401,433.243C403.846,433.243 404.207,433.603 404.207,434.047Z" style="fill:white;fill-rule:nonzero;" />
                                    </svg:g>
                                    <svg:g>
                                        <svg:path d="M403.005,435.595C403.005,435.819 402.822,436 402.598,436C402.373,436 402.191,435.818 402.191,435.595C402.191,435.369 402.374,435.188 402.598,435.188C402.822,435.188 403.005,435.369 403.005,435.595Z" style="fill:white;fill-rule:nonzero;" />
                                    </svg:g>
                                </svg:g>
                            </svg:g>
                            <svg:g>
                                <svg:g>
                                    <svg:path d="M428.252,435.188C428.252,436.906 426.859,438.299 425.141,438.299C423.422,438.299 422.031,436.906 422.031,435.188C422.031,433.469 423.423,432.077 425.141,432.077C426.859,432.076 428.252,433.469 428.252,435.188Z" style="fill:rgb(21,47,71);fill-rule:nonzero;" />
                                </svg:g>
                                <svg:g>
                                    <svg:g>
                                        <svg:path d="M425.016,434.047C425.016,434.49 424.658,434.851 424.213,434.851C423.768,434.851 423.409,434.491 423.409,434.047C423.409,433.603 423.767,433.243 424.213,433.243C424.657,433.243 425.016,433.603 425.016,434.047Z" style="fill:white;fill-rule:nonzero;" />
                                    </svg:g>
                                    <svg:g>
                                        <svg:path d="M423.814,435.595C423.814,435.819 423.633,436 423.407,436C423.183,436 423.002,435.818 423.002,435.595C423.002,435.369 423.184,435.188 423.407,435.188C423.634,435.188 423.814,435.369 423.814,435.595Z" style="fill:white;fill-rule:nonzero;" />
                                    </svg:g>
                                </svg:g>
                            </svg:g>
                        </svg:g>
                        <svg:g>
                            <svg:g>
                                <svg:path d="M402.92,429.059C402.92,429.059 402.962,428.78 403.204,428.469C403.329,428.313 403.496,428.143 403.725,428.017C403.954,427.887 404.239,427.8 404.541,427.8C404.694,427.795 404.839,427.835 404.984,427.866C405.127,427.896 405.246,427.985 405.367,428.041C405.589,428.19 405.756,428.364 405.858,428.541C405.977,428.698 406.012,428.869 406.051,428.973C406.082,429.084 406.09,429.152 406.09,429.152C406.09,429.152 406.025,429.128 405.923,429.083C405.815,429.04 405.69,428.962 405.531,428.902C405.381,428.827 405.209,428.773 405.042,428.712C404.871,428.682 404.709,428.631 404.538,428.647C404.37,428.627 404.191,428.671 404.013,428.705C403.833,428.744 403.661,428.806 403.496,428.855C403.148,428.976 402.92,429.059 402.92,429.059Z" style="fill:rgb(21,47,71);fill-rule:nonzero;" />
                            </svg:g>
                            <svg:g>
                                <svg:path d="M423.755,428.811C423.755,428.811 423.825,428.54 424.103,428.254C424.239,428.111 424.425,427.961 424.667,427.858C424.905,427.755 425.199,427.694 425.499,427.727C425.651,427.738 425.791,427.793 425.934,427.836C426.074,427.882 426.182,427.984 426.297,428.051C426.501,428.225 426.651,428.415 426.73,428.599C426.835,428.769 426.855,428.941 426.883,429.047C426.902,429.163 426.905,429.228 426.905,429.228C426.905,429.228 426.84,429.202 426.741,429.143C426.642,429.094 426.523,429 426.373,428.925C426.226,428.836 426.064,428.759 425.904,428.684C425.735,428.635 425.58,428.568 425.407,428.566C425.242,428.533 425.061,428.557 424.881,428.57C424.699,428.593 424.521,428.635 424.351,428.669C423.991,428.754 423.755,428.811 423.755,428.811Z" style="fill:rgb(21,47,71);fill-rule:nonzero;" />
                            </svg:g>
                        </svg:g>
                        <svg:g>
                            <svg:g>
                                <svg:path d="M405.577,440.655C405.577,442.058 404.439,443.196 403.037,443.196C401.633,443.196 400.496,442.058 400.496,440.655C400.496,439.253 401.633,438.114 403.037,438.114C404.439,438.114 405.577,439.253 405.577,440.655Z" style="fill:rgb(255,129,206);fill-rule:nonzero;" />
                            </svg:g>
                            <svg:g>
                                <svg:path d="M429.329,440.655C429.329,442.058 428.191,443.196 426.788,443.196C425.384,443.196 424.248,442.058 424.248,440.655C424.248,439.253 425.384,438.114 426.788,438.114C428.191,438.114 429.329,439.253 429.329,440.655Z" style="fill:rgb(255,129,206);fill-rule:nonzero;" />
                            </svg:g>
                        </svg:g>
                        <svg:g>
                            <svg:g>
                                <svg:path d="M410.676,435.7L418.949,435.7L419.306,437.078L418.407,439.188L416.764,440.4L413.116,440.4L411.852,439.391L410.676,437.76L410.676,435.7Z" style="fill:white;fill-rule:nonzero;" />
                            </svg:g>
                            <svg:g>
                                <svg:path d="M418.602,435.416L410.873,435.416C410.873,435.416 409.745,435.296 409.887,436.734C410.029,438.172 411.575,440.816 414.737,440.816C417.898,440.816 419.446,438.173 419.586,436.734C419.727,435.296 418.602,435.416 418.602,435.416ZM412.039,439.217C412.238,438.351 414.736,438.114 414.736,438.114C412.545,438.114 411.399,437.628 410.921,437.35C410.892,437.231 410.869,437.116 410.858,437.012C410.747,435.861 411.647,435.956 411.647,435.956L417.828,435.956C417.828,435.956 418.726,435.86 418.615,437.012C418.603,437.116 418.581,437.231 418.551,437.35C418.072,437.627 416.927,438.114 414.736,438.114C414.736,438.114 417.235,438.35 417.432,439.217C416.798,439.819 415.907,440.275 414.736,440.275C413.564,440.274 412.673,439.818 412.039,439.217Z" style="fill:rgb(21,47,71);fill-rule:nonzero;" />
                            </svg:g>
                        </svg:g>
                    </svg:g>
                </svg:g>
                <svg:g>
                    <svg:g>
                        <svg:path d="M387.653,421.384C387.7,425.753 387.748,430.122 387.795,434.491C387.802,435.12 387.809,435.749 387.815,436.378C387.824,437.178 389.072,437.253 389.063,436.447C389.016,432.078 388.969,427.709 388.921,423.339C388.914,422.71 388.907,422.081 388.901,421.452C388.893,420.652 387.645,420.577 387.653,421.384Z" style="fill:white;fill-rule:nonzero;" />
                    </svg:g>
                    <svg:path d="M389.436,439.602C389.411,440.06 389.019,440.411 388.561,440.386C388.103,440.361 387.752,439.969 387.777,439.511C387.802,439.053 388.194,438.702 388.652,438.727C389.11,438.752 389.462,439.143 389.436,439.602Z" style="fill:white;fill-rule:nonzero;" />
                </svg:g>
            </svg:g>
            <svg:g transform="matrix(2.83355e-17,0.462754,-0.462754,2.83355e-17,996.786,-4.4132)">
                <svg:g>
                    <svg:g>
                        <svg:g>
                            <svg:g>
                                <svg:path d="M436.813,351.498L394.203,351.498C394.203,351.498 384.202,350.627 384.202,359.759L384.202,448.438C384.202,457.57 394.203,456.699 394.203,456.699L436.814,456.699C436.814,456.699 446.815,457.57 446.815,448.438L446.815,359.759C446.814,350.627 436.813,351.498 436.813,351.498Z" style="fill:rgb(183,59,39);fill-rule:nonzero;" />
                            </svg:g>
                            <svg:g>
                                <svg:path d="M435.51,351.498L392.899,351.498C392.899,351.498 382.898,350.627 382.898,359.759L382.898,448.438C382.898,457.57 392.899,456.699 392.899,456.699L435.51,456.699C435.51,456.699 445.511,457.57 445.511,448.438L445.511,359.759C445.511,350.627 435.51,351.498 435.51,351.498Z" style="fill:rgb(204,83,59);fill-rule:nonzero;" />
                            </svg:g>
                            <svg:path d="M392.899,351.498C392.899,351.498 382.898,350.627 382.898,359.759L382.898,411.39C384.441,411.584 386.01,411.695 387.605,411.695C408.283,411.695 425.045,394.933 425.045,374.255C425.045,365.692 422.164,357.806 417.328,351.498L392.899,351.498Z" style="fill:white;fill-opacity:0.2;fill-rule:nonzero;" />
                        </svg:g>
                        <svg:g>
                            <svg:g>
                                <svg:g>
                                    <svg:g>
                                        <svg:g>
                                            <svg:path d="M403.769,369.096C403.769,371.247 402.007,373.009 399.856,373.009L392.029,373.009C389.877,373.009 388.116,371.247 388.116,369.096L388.116,360.836C388.116,358.684 389.877,356.922 392.029,356.922L399.856,356.922C402.007,356.922 403.769,358.684 403.769,360.836L403.769,369.096Z" style="fill:rgb(183,59,39);fill-rule:nonzero;" />
                                        </svg:g>
                                        <svg:g>
                                            <svg:path d="M402.684,358.148C402.823,358.85 402.9,359.575 402.9,360.317C402.9,366.397 397.972,371.324 391.894,371.324C390.716,371.324 389.585,371.136 388.524,370.795C389.16,372.099 390.488,373.009 392.03,373.009L399.857,373.009C402.008,373.009 403.77,371.247 403.77,369.096L403.77,360.836C403.769,359.794 403.351,358.851 402.684,358.148Z" style="fill:rgb(165,39,27);fill-rule:nonzero;" />
                                        </svg:g>
                                        <svg:g>
                                            <svg:path d="M390.508,366.677C390.508,366.677 390.164,365.891 389.922,364.643C389.799,364.018 389.699,363.279 389.684,362.468C389.684,362.065 389.68,361.64 389.753,361.197C389.821,360.757 389.907,360.3 390.151,359.817C390.28,359.587 390.451,359.327 390.722,359.132C390.874,359.039 390.987,358.941 391.185,358.881L391.481,358.797C391.847,358.666 392.33,358.637 392.757,358.583C393.588,358.523 394.321,358.572 394.957,358.65C396.22,358.802 397.029,359.094 397.029,359.094C397.029,359.094 396.184,359.24 394.959,359.398C394.352,359.488 393.633,359.584 392.922,359.717C392.584,359.797 392.262,359.853 391.857,359.999L391.565,360.092C391.565,360.09 391.524,360.145 391.5,360.153C391.438,360.192 391.366,360.299 391.303,360.425C391.16,360.678 391.06,361.041 390.994,361.404C390.93,361.767 390.862,362.145 390.831,362.514C390.755,363.258 390.712,363.971 390.667,364.589C390.598,365.828 390.508,366.677 390.508,366.677Z" style="fill:rgb(211,90,84);fill-rule:nonzero;" />
                                        </svg:g>
                                    </svg:g>
                                    <svg:g>
                                        <svg:g>
                                            <svg:path d="M422.03,369.096C422.03,371.247 420.271,373.009 418.119,373.009L410.292,373.009C408.139,373.009 406.379,371.247 406.379,369.096L406.379,360.836C406.379,358.684 408.139,356.922 410.292,356.922L418.119,356.922C420.271,356.922 422.03,358.684 422.03,360.836L422.03,369.096Z" style="fill:rgb(183,59,39);fill-rule:nonzero;" />
                                        </svg:g>
                                        <svg:g>
                                            <svg:path d="M420.944,358.148C421.084,358.85 421.162,359.575 421.162,360.317C421.162,366.397 416.233,371.324 410.154,371.324C408.977,371.324 407.846,371.136 406.784,370.795C407.421,372.099 408.749,373.009 410.292,373.009L418.119,373.009C420.271,373.009 422.03,371.247 422.03,369.096L422.03,360.836C422.03,359.794 421.614,358.851 420.944,358.148Z" style="fill:rgb(165,39,27);fill-rule:nonzero;" />
                                        </svg:g>
                                        <svg:g>
                                            <svg:path d="M408.769,366.677C408.769,366.677 408.424,365.891 408.183,364.643C408.06,364.018 407.959,363.279 407.947,362.468C407.947,362.065 407.943,361.64 408.013,361.197C408.082,360.757 408.167,360.3 408.411,359.817C408.539,359.587 408.71,359.327 408.982,359.132C409.134,359.039 409.248,358.941 409.447,358.881L409.741,358.797C410.107,358.666 410.591,358.637 411.016,358.583C411.848,358.523 412.582,358.572 413.216,358.65C414.481,358.802 415.29,359.094 415.29,359.094C415.29,359.094 414.443,359.24 413.22,359.398C412.612,359.488 411.894,359.584 411.182,359.717C410.843,359.797 410.524,359.853 410.117,359.999L409.823,360.092C409.825,360.09 409.784,360.145 409.759,360.153C409.698,360.192 409.626,360.299 409.564,360.425C409.419,360.678 409.32,361.041 409.255,361.404C409.19,361.767 409.12,362.145 409.089,362.514C409.013,363.258 408.972,363.971 408.925,364.589C408.858,365.828 408.769,366.677 408.769,366.677Z" style="fill:rgb(211,90,84);fill-rule:nonzero;" />
                                        </svg:g>
                                    </svg:g>
                                    <svg:g>
                                        <svg:g>
                                            <svg:path d="M440.292,369.096C440.292,371.247 438.532,373.009 436.381,373.009L428.554,373.009C426.4,373.009 424.641,371.247 424.641,369.096L424.641,360.836C424.641,358.684 426.4,356.922 428.554,356.922L436.381,356.922C438.532,356.922 440.292,358.684 440.292,360.836L440.292,369.096Z" style="fill:rgb(183,59,39);fill-rule:nonzero;" />
                                        </svg:g>
                                        <svg:g>
                                            <svg:path d="M439.207,358.148C439.347,358.85 439.423,359.575 439.423,360.317C439.423,366.397 434.496,371.324 428.416,371.324C427.24,371.324 426.107,371.136 425.046,370.795C425.682,372.099 427.01,373.009 428.554,373.009L436.381,373.009C438.532,373.009 440.292,371.247 440.292,369.096L440.292,360.836C440.292,359.794 439.875,358.851 439.207,358.148Z" style="fill:rgb(165,39,27);fill-rule:nonzero;" />
                                        </svg:g>
                                        <svg:g>
                                            <svg:path d="M427.032,366.677C427.032,366.677 426.688,365.891 426.444,364.643C426.321,364.018 426.222,363.279 426.208,362.468C426.208,362.065 426.204,361.64 426.275,361.197C426.345,360.757 426.431,360.3 426.674,359.817C426.803,359.587 426.974,359.327 427.245,359.132C427.397,359.039 427.509,358.941 427.708,358.881L428.004,358.797C428.368,358.666 428.853,358.637 429.278,358.583C430.111,358.523 430.843,358.572 431.48,358.65C432.743,358.802 433.551,359.094 433.551,359.094C433.551,359.094 432.705,359.24 431.482,359.398C430.874,359.488 430.156,359.584 429.443,359.717C429.105,359.797 428.785,359.853 428.38,359.999L428.086,360.092C428.088,360.09 428.047,360.145 428.021,360.153C427.961,360.192 427.889,360.299 427.826,360.425C427.681,360.678 427.583,361.041 427.517,361.404C427.452,361.767 427.385,362.145 427.353,362.514C427.277,363.258 427.234,363.971 427.188,364.589C427.119,365.828 427.032,366.677 427.032,366.677Z" style="fill:rgb(211,90,84);fill-rule:nonzero;" />
                                        </svg:g>
                                    </svg:g>
                                </svg:g>
                                <svg:g>
                                    <svg:g>
                                        <svg:g>
                                            <svg:path d="M403.769,388.663C403.769,390.814 402.007,392.576 399.856,392.576L392.029,392.576C389.877,392.576 388.116,390.814 388.116,388.663L388.116,380.401C388.116,378.249 389.877,376.488 392.029,376.488L399.856,376.488C402.007,376.488 403.769,378.249 403.769,380.401L403.769,388.663Z" style="fill:rgb(183,59,39);fill-rule:nonzero;" />
                                        </svg:g>
                                        <svg:g>
                                            <svg:path d="M402.684,377.713C402.823,378.418 402.9,379.143 402.9,379.886C402.9,385.964 397.972,390.891 391.894,390.891C390.716,390.891 389.585,390.702 388.524,390.362C389.16,391.667 390.488,392.577 392.03,392.577L399.857,392.577C402.008,392.577 403.77,390.815 403.77,388.664L403.77,380.402C403.769,379.362 403.351,378.418 402.684,377.713Z" style="fill:rgb(165,39,27);fill-rule:nonzero;" />
                                        </svg:g>
                                        <svg:g>
                                            <svg:path d="M390.508,386.244C390.508,386.244 390.164,385.456 389.922,384.208C389.799,383.584 389.699,382.846 389.684,382.036C389.684,381.63 389.68,381.204 389.753,380.763C389.821,380.323 389.907,379.868 390.151,379.383C390.28,379.153 390.451,378.893 390.722,378.701C390.874,378.607 390.987,378.508 391.185,378.448L391.481,378.365C391.847,378.232 392.33,378.203 392.757,378.149C393.588,378.091 394.321,378.137 394.957,378.216C396.22,378.369 397.029,378.661 397.029,378.661C397.029,378.661 396.184,378.807 394.959,378.966C394.352,379.053 393.633,379.15 392.922,379.285C392.584,379.363 392.262,379.42 391.857,379.567L391.565,379.659C391.565,379.656 391.524,379.714 391.5,379.721C391.438,379.761 391.366,379.868 391.303,379.994C391.16,380.246 391.06,380.611 390.994,380.973C390.93,381.333 390.862,381.711 390.831,382.083C390.755,382.826 390.712,383.54 390.667,384.158C390.598,385.393 390.508,386.244 390.508,386.244Z" style="fill:rgb(211,90,84);fill-rule:nonzero;" />
                                        </svg:g>
                                    </svg:g>
                                    <svg:g>
                                        <svg:g>
                                            <svg:path d="M422.03,388.663C422.03,390.814 420.271,392.576 418.119,392.576L410.292,392.576C408.139,392.576 406.379,390.814 406.379,388.663L406.379,380.401C406.379,378.249 408.139,376.488 410.292,376.488L418.119,376.488C420.271,376.488 422.03,378.249 422.03,380.401L422.03,388.663Z" style="fill:rgb(183,59,39);fill-rule:nonzero;" />
                                        </svg:g>
                                        <svg:g>
                                            <svg:path d="M420.944,377.713C421.084,378.418 421.162,379.143 421.162,379.886C421.162,385.964 416.233,390.891 410.154,390.891C408.977,390.891 407.846,390.702 406.784,390.362C407.421,391.667 408.749,392.577 410.292,392.577L418.119,392.577C420.271,392.577 422.03,390.815 422.03,388.664L422.03,380.402C422.03,379.362 421.614,378.418 420.944,377.713Z" style="fill:rgb(165,39,27);fill-rule:nonzero;" />
                                        </svg:g>
                                        <svg:g>
                                            <svg:path d="M408.769,386.244C408.769,386.244 408.424,385.456 408.183,384.208C408.06,383.584 407.959,382.846 407.947,382.036C407.947,381.63 407.943,381.204 408.013,380.763C408.082,380.323 408.167,379.868 408.411,379.383C408.539,379.153 408.71,378.893 408.982,378.701C409.134,378.607 409.248,378.508 409.447,378.448L409.741,378.365C410.107,378.232 410.591,378.203 411.016,378.149C411.848,378.091 412.582,378.137 413.216,378.216C414.481,378.369 415.29,378.661 415.29,378.661C415.29,378.661 414.443,378.807 413.22,378.966C412.612,379.053 411.894,379.15 411.182,379.285C410.843,379.363 410.524,379.42 410.117,379.567L409.823,379.659C409.825,379.656 409.784,379.714 409.759,379.721C409.698,379.761 409.626,379.868 409.564,379.994C409.419,380.246 409.32,380.611 409.255,380.973C409.19,381.333 409.12,381.711 409.089,382.083C409.013,382.826 408.972,383.54 408.925,384.158C408.858,385.393 408.769,386.244 408.769,386.244Z" style="fill:rgb(211,90,84);fill-rule:nonzero;" />
                                        </svg:g>
                                    </svg:g>
                                    <svg:g>
                                        <svg:g>
                                            <svg:path d="M440.292,388.663C440.292,390.814 438.532,392.576 436.381,392.576L428.554,392.576C426.4,392.576 424.641,390.814 424.641,388.663L424.641,380.401C424.641,378.249 426.4,376.488 428.554,376.488L436.381,376.488C438.532,376.488 440.292,378.249 440.292,380.401L440.292,388.663Z" style="fill:rgb(183,59,39);fill-rule:nonzero;" />
                                        </svg:g>
                                        <svg:g>
                                            <svg:path d="M439.207,377.713C439.347,378.418 439.423,379.143 439.423,379.886C439.423,385.964 434.496,390.891 428.416,390.891C427.24,390.891 426.107,390.702 425.046,390.362C425.682,391.667 427.01,392.577 428.554,392.577L436.381,392.577C438.532,392.577 440.292,390.815 440.292,388.664L440.292,380.402C440.292,379.362 439.875,378.418 439.207,377.713Z" style="fill:rgb(165,39,27);fill-rule:nonzero;" />
                                        </svg:g>
                                        <svg:g>
                                            <svg:path d="M427.032,386.244C427.032,386.244 426.688,385.456 426.444,384.208C426.321,383.584 426.222,382.846 426.208,382.036C426.208,381.63 426.204,381.204 426.275,380.763C426.345,380.323 426.431,379.868 426.674,379.383C426.803,379.153 426.974,378.893 427.245,378.701C427.397,378.607 427.509,378.508 427.708,378.448L428.004,378.365C428.368,378.232 428.853,378.203 429.278,378.149C430.111,378.091 430.843,378.137 431.48,378.216C432.743,378.369 433.551,378.661 433.551,378.661C433.551,378.661 432.705,378.807 431.482,378.966C430.874,379.053 430.156,379.15 429.443,379.285C429.105,379.363 428.785,379.42 428.38,379.567L428.086,379.659C428.088,379.656 428.047,379.714 428.021,379.721C427.961,379.761 427.889,379.868 427.826,379.994C427.681,380.246 427.583,380.611 427.517,380.973C427.452,381.333 427.385,381.711 427.353,382.083C427.277,382.826 427.234,383.54 427.188,384.158C427.119,385.393 427.032,386.244 427.032,386.244Z" style="fill:rgb(211,90,84);fill-rule:nonzero;" />
                                        </svg:g>
                                    </svg:g>
                                </svg:g>
                            </svg:g>
                            <svg:g>
                                <svg:g>
                                    <svg:g>
                                        <svg:g>
                                            <svg:path d="M403.769,408.228C403.769,410.379 402.007,412.141 399.856,412.141L392.029,412.141C389.877,412.141 388.116,410.379 388.116,408.228L388.116,399.968C388.116,397.815 389.877,396.055 392.029,396.055L399.856,396.055C402.007,396.055 403.769,397.815 403.769,399.968L403.769,408.228Z" style="fill:rgb(183,59,39);fill-rule:nonzero;" />
                                        </svg:g>
                                        <svg:g>
                                            <svg:path d="M402.684,397.281C402.823,397.983 402.9,398.708 402.9,399.45C402.9,405.53 397.972,410.457 391.894,410.457C390.716,410.457 389.585,410.269 388.524,409.927C389.16,411.232 390.488,412.142 392.03,412.142L399.857,412.142C402.008,412.142 403.77,410.38 403.77,408.229L403.77,399.969C403.769,398.927 403.351,397.983 402.684,397.281Z" style="fill:rgb(165,39,27);fill-rule:nonzero;" />
                                        </svg:g>
                                        <svg:g>
                                            <svg:path d="M390.508,405.81C390.508,405.81 390.164,405.023 389.922,403.776C389.799,403.151 389.699,402.412 389.684,401.601C389.684,401.196 389.68,400.773 389.753,400.331C389.821,399.89 389.907,399.433 390.151,398.95C390.28,398.721 390.451,398.459 390.722,398.266C390.874,398.173 390.987,398.074 391.185,398.015L391.481,397.931C391.847,397.8 392.33,397.771 392.757,397.716C393.588,397.657 394.321,397.705 394.957,397.784C396.22,397.935 397.029,398.228 397.029,398.228C397.029,398.228 396.184,398.375 394.959,398.532C394.352,398.621 393.633,398.718 392.922,398.851C392.584,398.931 392.262,398.987 391.857,399.133L391.565,399.226C391.565,399.224 391.524,399.279 391.5,399.287C391.438,399.326 391.366,399.433 391.303,399.559C391.16,399.812 391.06,400.175 390.994,400.538C390.93,400.901 390.862,401.279 390.831,401.648C390.755,402.392 390.712,403.105 390.667,403.722C390.598,404.958 390.508,405.81 390.508,405.81Z" style="fill:rgb(211,90,84);fill-rule:nonzero;" />
                                        </svg:g>
                                    </svg:g>
                                    <svg:g>
                                        <svg:g>
                                            <svg:path d="M422.03,408.228C422.03,410.379 420.271,412.141 418.119,412.141L410.292,412.141C408.139,412.141 406.379,410.379 406.379,408.228L406.379,399.968C406.379,397.815 408.139,396.055 410.292,396.055L418.119,396.055C420.271,396.055 422.03,397.815 422.03,399.968L422.03,408.228Z" style="fill:rgb(183,59,39);fill-rule:nonzero;" />
                                        </svg:g>
                                        <svg:g>
                                            <svg:path d="M420.944,397.281C421.084,397.983 421.162,398.708 421.162,399.45C421.162,405.53 416.233,410.457 410.154,410.457C408.977,410.457 407.846,410.269 406.784,409.927C407.421,411.232 408.749,412.142 410.292,412.142L418.119,412.142C420.271,412.142 422.03,410.38 422.03,408.229L422.03,399.969C422.03,398.927 421.614,397.983 420.944,397.281Z" style="fill:rgb(165,39,27);fill-rule:nonzero;" />
                                        </svg:g>
                                        <svg:g>
                                            <svg:path d="M408.769,405.81C408.769,405.81 408.424,405.023 408.183,403.776C408.06,403.151 407.959,402.412 407.947,401.601C407.947,401.196 407.943,400.773 408.013,400.331C408.082,399.89 408.167,399.433 408.411,398.95C408.539,398.721 408.71,398.459 408.982,398.266C409.134,398.173 409.248,398.074 409.447,398.015L409.741,397.931C410.107,397.8 410.591,397.771 411.016,397.716C411.848,397.657 412.582,397.705 413.216,397.784C414.481,397.935 415.29,398.228 415.29,398.228C415.29,398.228 414.443,398.375 413.22,398.532C412.612,398.621 411.894,398.718 411.182,398.851C410.843,398.931 410.524,398.987 410.117,399.133L409.823,399.226C409.825,399.224 409.784,399.279 409.759,399.287C409.698,399.326 409.626,399.433 409.564,399.559C409.419,399.812 409.32,400.175 409.255,400.538C409.19,400.901 409.12,401.279 409.089,401.648C409.013,402.392 408.972,403.105 408.925,403.722C408.858,404.958 408.769,405.81 408.769,405.81Z" style="fill:rgb(211,90,84);fill-rule:nonzero;" />
                                        </svg:g>
                                    </svg:g>
                                    <svg:g>
                                        <svg:g>
                                            <svg:path d="M440.292,408.228C440.292,410.379 438.532,412.141 436.381,412.141L428.554,412.141C426.4,412.141 424.641,410.379 424.641,408.228L424.641,399.968C424.641,397.815 426.4,396.055 428.554,396.055L436.381,396.055C438.532,396.055 440.292,397.815 440.292,399.968L440.292,408.228Z" style="fill:rgb(183,59,39);fill-rule:nonzero;" />
                                        </svg:g>
                                        <svg:g>
                                            <svg:path d="M439.207,397.281C439.347,397.983 439.423,398.708 439.423,399.45C439.423,405.53 434.496,410.457 428.416,410.457C427.24,410.457 426.107,410.269 425.046,409.927C425.682,411.232 427.01,412.142 428.554,412.142L436.381,412.142C438.532,412.142 440.292,410.38 440.292,408.229L440.292,399.969C440.292,398.927 439.875,397.983 439.207,397.281Z" style="fill:rgb(165,39,27);fill-rule:nonzero;" />
                                        </svg:g>
                                        <svg:g>
                                            <svg:path d="M427.032,405.81C427.032,405.81 426.688,405.023 426.444,403.776C426.321,403.151 426.222,402.412 426.208,401.601C426.208,401.196 426.204,400.773 426.275,400.331C426.345,399.89 426.431,399.433 426.674,398.95C426.803,398.721 426.974,398.459 427.245,398.266C427.397,398.173 427.509,398.074 427.708,398.015L428.004,397.931C428.368,397.8 428.853,397.771 429.278,397.716C430.111,397.657 430.843,397.705 431.48,397.784C432.743,397.935 433.551,398.228 433.551,398.228C433.551,398.228 432.705,398.375 431.482,398.532C430.874,398.621 430.156,398.718 429.443,398.851C429.105,398.931 428.785,398.987 428.38,399.133L428.086,399.226C428.088,399.224 428.047,399.279 428.021,399.287C427.961,399.326 427.889,399.433 427.826,399.559C427.681,399.812 427.583,400.175 427.517,400.538C427.452,400.901 427.385,401.279 427.353,401.648C427.277,402.392 427.234,403.105 427.188,403.722C427.119,404.958 427.032,405.81 427.032,405.81Z" style="fill:rgb(211,90,84);fill-rule:nonzero;" />
                                        </svg:g>
                                    </svg:g>
                                </svg:g>
                                <svg:g>
                                    <svg:g>
                                        <svg:g>
                                            <svg:path d="M403.769,427.794C403.769,429.947 402.007,431.707 399.856,431.707L392.029,431.707C389.877,431.707 388.116,429.947 388.116,427.794L388.116,419.534C388.116,417.382 389.877,415.621 392.029,415.621L399.856,415.621C402.007,415.621 403.769,417.382 403.769,419.534L403.769,427.794Z" style="fill:rgb(183,59,39);fill-rule:nonzero;" />
                                        </svg:g>
                                        <svg:g>
                                            <svg:path d="M402.684,416.846C402.823,417.55 402.9,418.273 402.9,419.019C402.9,425.096 397.972,430.024 391.894,430.024C390.716,430.024 389.585,429.836 388.524,429.495C389.16,430.797 390.488,431.708 392.03,431.708L399.857,431.708C402.008,431.708 403.77,429.948 403.77,427.795L403.77,419.535C403.769,418.492 403.351,417.55 402.684,416.846Z" style="fill:rgb(165,39,27);fill-rule:nonzero;" />
                                        </svg:g>
                                        <svg:g>
                                            <svg:path d="M390.508,425.377C390.508,425.377 390.164,424.588 389.922,423.339C389.799,422.716 389.699,421.978 389.684,421.169C389.684,420.763 389.68,420.337 389.753,419.896C389.821,419.456 389.907,418.998 390.151,418.516C390.28,418.286 390.451,418.025 390.722,417.833C390.874,417.739 390.987,417.639 391.185,417.581L391.481,417.496C391.847,417.364 392.33,417.335 392.757,417.282C393.588,417.223 394.321,417.27 394.957,417.348C396.22,417.501 397.029,417.794 397.029,417.794C397.029,417.794 396.184,417.939 394.959,418.096C394.352,418.186 393.633,418.284 392.922,418.419C392.584,418.497 392.262,418.553 391.857,418.696L391.565,418.792C391.565,418.788 391.524,418.846 391.5,418.851C391.438,418.892 391.366,418.997 391.303,419.123C391.16,419.376 391.06,419.743 390.994,420.102C390.93,420.466 390.862,420.843 390.831,421.216C390.755,421.959 390.712,422.673 390.667,423.29C390.598,424.524 390.508,425.377 390.508,425.377Z" style="fill:rgb(211,90,84);fill-rule:nonzero;" />
                                        </svg:g>
                                    </svg:g>
                                    <svg:g>
                                        <svg:g>
                                            <svg:path d="M422.03,427.794C422.03,429.947 420.271,431.707 418.119,431.707L410.292,431.707C408.139,431.707 406.379,429.947 406.379,427.794L406.379,419.534C406.379,417.382 408.139,415.621 410.292,415.621L418.119,415.621C420.271,415.621 422.03,417.382 422.03,419.534L422.03,427.794Z" style="fill:rgb(183,59,39);fill-rule:nonzero;" />
                                        </svg:g>
                                        <svg:g>
                                            <svg:path d="M420.944,416.846C421.084,417.55 421.162,418.273 421.162,419.019C421.162,425.096 416.233,430.024 410.154,430.024C408.977,430.024 407.846,429.836 406.784,429.495C407.421,430.797 408.749,431.708 410.292,431.708L418.119,431.708C420.271,431.708 422.03,429.948 422.03,427.795L422.03,419.535C422.03,418.492 421.614,417.55 420.944,416.846Z" style="fill:rgb(165,39,27);fill-rule:nonzero;" />
                                        </svg:g>
                                        <svg:g>
                                            <svg:path d="M408.769,425.377C408.769,425.377 408.424,424.588 408.183,423.339C408.06,422.716 407.959,421.978 407.947,421.169C407.947,420.763 407.943,420.337 408.013,419.896C408.082,419.456 408.167,418.998 408.411,418.516C408.539,418.286 408.71,418.025 408.982,417.833C409.134,417.739 409.248,417.639 409.447,417.581L409.741,417.496C410.107,417.364 410.591,417.335 411.016,417.282C411.848,417.223 412.582,417.27 413.216,417.348C414.481,417.501 415.29,417.794 415.29,417.794C415.29,417.794 414.443,417.939 413.22,418.096C412.612,418.186 411.894,418.284 411.182,418.419C410.843,418.497 410.524,418.553 410.117,418.696L409.823,418.792C409.825,418.788 409.784,418.846 409.759,418.851C409.698,418.892 409.626,418.997 409.564,419.123C409.419,419.376 409.32,419.743 409.255,420.102C409.19,420.466 409.12,420.843 409.089,421.216C409.013,421.959 408.972,422.673 408.925,423.29C408.858,424.524 408.769,425.377 408.769,425.377Z" style="fill:rgb(211,90,84);fill-rule:nonzero;" />
                                        </svg:g>
                                    </svg:g>
                                    <svg:g>
                                        <svg:g>
                                            <svg:path d="M440.292,427.794C440.292,429.947 438.532,431.707 436.381,431.707L428.554,431.707C426.4,431.707 424.641,429.947 424.641,427.794L424.641,419.534C424.641,417.382 426.4,415.621 428.554,415.621L436.381,415.621C438.532,415.621 440.292,417.382 440.292,419.534L440.292,427.794Z" style="fill:rgb(183,59,39);fill-rule:nonzero;" />
                                        </svg:g>
                                        <svg:g>
                                            <svg:path d="M439.207,416.846C439.347,417.55 439.423,418.273 439.423,419.019C439.423,425.096 434.496,430.024 428.416,430.024C427.24,430.024 426.107,429.836 425.046,429.495C425.682,430.797 427.01,431.708 428.554,431.708L436.381,431.708C438.532,431.708 440.292,429.948 440.292,427.795L440.292,419.535C440.292,418.492 439.875,417.55 439.207,416.846Z" style="fill:rgb(165,39,27);fill-rule:nonzero;" />
                                        </svg:g>
                                        <svg:g>
                                            <svg:path d="M427.032,425.377C427.032,425.377 426.688,424.588 426.444,423.339C426.321,422.716 426.222,421.978 426.208,421.169C426.208,420.763 426.204,420.337 426.275,419.896C426.345,419.456 426.431,418.998 426.674,418.516C426.803,418.286 426.974,418.025 427.245,417.833C427.397,417.739 427.509,417.639 427.708,417.581L428.004,417.496C428.368,417.364 428.853,417.335 429.278,417.282C430.111,417.223 430.843,417.27 431.48,417.348C432.743,417.501 433.551,417.794 433.551,417.794C433.551,417.794 432.705,417.939 431.482,418.096C430.874,418.186 430.156,418.284 429.443,418.419C429.105,418.497 428.785,418.553 428.38,418.696L428.086,418.792C428.088,418.788 428.047,418.846 428.021,418.851C427.961,418.892 427.889,418.997 427.826,419.123C427.681,419.376 427.583,419.743 427.517,420.102C427.452,420.466 427.385,420.843 427.353,421.216C427.277,421.959 427.234,422.673 427.188,423.29C427.119,424.524 427.032,425.377 427.032,425.377Z" style="fill:rgb(211,90,84);fill-rule:nonzero;" />
                                        </svg:g>
                                    </svg:g>
                                </svg:g>
                                <svg:g>
                                    <svg:g>
                                        <svg:g>
                                            <svg:path d="M403.769,447.36C403.769,449.512 402.007,451.274 399.856,451.274L392.029,451.274C389.877,451.274 388.116,449.512 388.116,447.36L388.116,439.101C388.116,436.948 389.877,435.188 392.029,435.188L399.856,435.188C402.007,435.188 403.769,436.948 403.769,439.101L403.769,447.36Z" style="fill:rgb(183,59,39);fill-rule:nonzero;" />
                                        </svg:g>
                                        <svg:g>
                                            <svg:path d="M402.684,436.414C402.823,437.115 402.9,437.84 402.9,438.583C402.9,444.662 397.972,449.59 391.894,449.59C390.716,449.59 389.585,449.402 388.524,449.06C389.16,450.363 390.488,451.275 392.03,451.275L399.857,451.275C402.008,451.275 403.77,449.513 403.77,447.361L403.77,439.102C403.769,438.059 403.351,437.116 402.684,436.414Z" style="fill:rgb(165,39,27);fill-rule:nonzero;" />
                                        </svg:g>
                                        <svg:g>
                                            <svg:path d="M390.508,444.942C390.508,444.942 390.164,444.153 389.922,442.906C389.799,442.283 389.699,441.544 389.684,440.733C389.684,440.328 389.68,439.902 389.753,439.462C389.821,439.022 389.907,438.565 390.151,438.082C390.28,437.852 390.451,437.589 390.722,437.398C390.874,437.304 390.987,437.205 391.185,437.146L391.481,437.062C391.847,436.929 392.33,436.903 392.757,436.848C393.588,436.789 394.321,436.834 394.957,436.913C396.22,437.066 397.029,437.359 397.029,437.359C397.029,437.359 396.184,437.504 394.959,437.664C394.352,437.751 393.633,437.848 392.922,437.983C392.584,438.061 392.262,438.119 391.857,438.264L391.565,438.358C391.565,438.355 391.524,438.41 391.5,438.418C391.438,438.457 391.366,438.564 391.303,438.691C391.16,438.943 391.06,439.308 390.994,439.669C390.93,440.031 390.862,440.407 390.831,440.78C390.755,441.524 390.712,442.237 390.667,442.853C390.598,444.09 390.508,444.942 390.508,444.942Z" style="fill:rgb(211,90,84);fill-rule:nonzero;" />
                                        </svg:g>
                                    </svg:g>
                                    <svg:g>
                                        <svg:g>
                                            <svg:path d="M422.03,447.36C422.03,449.512 420.271,451.274 418.119,451.274L410.292,451.274C408.139,451.274 406.379,449.512 406.379,447.36L406.379,439.101C406.379,436.948 408.139,435.188 410.292,435.188L418.119,435.188C420.271,435.188 422.03,436.948 422.03,439.101L422.03,447.36Z" style="fill:rgb(183,59,39);fill-rule:nonzero;" />
                                        </svg:g>
                                        <svg:g>
                                            <svg:path d="M420.944,436.414C421.084,437.115 421.162,437.84 421.162,438.583C421.162,444.662 416.233,449.59 410.154,449.59C408.977,449.59 407.846,449.402 406.784,449.06C407.421,450.363 408.749,451.275 410.292,451.275L418.119,451.275C420.271,451.275 422.03,449.513 422.03,447.361L422.03,439.102C422.03,438.059 421.614,437.116 420.944,436.414Z" style="fill:rgb(165,39,27);fill-rule:nonzero;" />
                                        </svg:g>
                                        <svg:g>
                                            <svg:path d="M408.769,444.942C408.769,444.942 408.424,444.153 408.183,442.906C408.06,442.283 407.959,441.544 407.947,440.733C407.947,440.328 407.943,439.902 408.013,439.462C408.082,439.022 408.167,438.565 408.411,438.082C408.539,437.852 408.71,437.589 408.982,437.398C409.134,437.304 409.248,437.205 409.447,437.146L409.741,437.062C410.107,436.929 410.591,436.903 411.016,436.848C411.848,436.789 412.582,436.834 413.216,436.913C414.481,437.066 415.29,437.359 415.29,437.359C415.29,437.359 414.443,437.504 413.22,437.664C412.612,437.751 411.894,437.848 411.182,437.983C410.843,438.061 410.524,438.119 410.117,438.264L409.823,438.358C409.825,438.355 409.784,438.41 409.759,438.418C409.698,438.457 409.626,438.564 409.564,438.691C409.419,438.943 409.32,439.308 409.255,439.669C409.19,440.031 409.12,440.407 409.089,440.78C409.013,441.524 408.972,442.237 408.925,442.853C408.858,444.09 408.769,444.942 408.769,444.942Z" style="fill:rgb(211,90,84);fill-rule:nonzero;" />
                                        </svg:g>
                                    </svg:g>
                                    <svg:g>
                                        <svg:g>
                                            <svg:path d="M440.292,447.36C440.292,449.512 438.532,451.274 436.381,451.274L428.554,451.274C426.4,451.274 424.641,449.512 424.641,447.36L424.641,439.101C424.641,436.948 426.4,435.188 428.554,435.188L436.381,435.188C438.532,435.188 440.292,436.948 440.292,439.101L440.292,447.36Z" style="fill:rgb(183,59,39);fill-rule:nonzero;" />
                                        </svg:g>
                                        <svg:g>
                                            <svg:path d="M439.207,436.414C439.347,437.115 439.423,437.84 439.423,438.583C439.423,444.662 434.496,449.59 428.416,449.59C427.24,449.59 426.107,449.402 425.046,449.06C425.682,450.363 427.01,451.275 428.554,451.275L436.381,451.275C438.532,451.275 440.292,449.513 440.292,447.361L440.292,439.102C440.292,438.059 439.875,437.116 439.207,436.414Z" style="fill:rgb(165,39,27);fill-rule:nonzero;" />
                                        </svg:g>
                                        <svg:g>
                                            <svg:path d="M427.032,444.942C427.032,444.942 426.688,444.153 426.444,442.906C426.321,442.283 426.222,441.544 426.208,440.733C426.208,440.328 426.204,439.902 426.275,439.462C426.345,439.022 426.431,438.565 426.674,438.082C426.803,437.852 426.974,437.589 427.245,437.398C427.397,437.304 427.509,437.205 427.708,437.146L428.004,437.062C428.368,436.929 428.853,436.903 429.278,436.848C430.111,436.789 430.843,436.834 431.48,436.913C432.743,437.066 433.551,437.359 433.551,437.359C433.551,437.359 432.705,437.504 431.482,437.664C430.874,437.751 430.156,437.848 429.443,437.983C429.105,438.061 428.785,438.119 428.38,438.264L428.086,438.358C428.088,438.355 428.047,438.41 428.021,438.418C427.961,438.457 427.889,438.564 427.826,438.691C427.681,438.943 427.583,439.308 427.517,439.669C427.452,440.031 427.385,440.407 427.353,440.78C427.277,441.524 427.234,442.237 427.188,442.853C427.119,444.09 427.032,444.942 427.032,444.942Z" style="fill:rgb(211,90,84);fill-rule:nonzero;" />
                                        </svg:g>
                                    </svg:g>
                                </svg:g>
                            </svg:g>
                        </svg:g>
                        <svg:g>
                            <svg:path d="M392.196,457.221C390.749,457.221 387.228,456.966 384.829,454.724C383.216,453.216 382.398,451.101 382.398,448.439L382.398,359.759C382.398,357.097 383.215,354.982 384.829,353.474C387.759,350.735 392.367,350.964 392.877,350.995C393.667,350.953 394.222,350.997 394.246,351L435.51,350.998C435.491,350.998 436.038,350.952 436.867,350.993C437.509,350.951 442.005,350.783 444.884,353.473C446.497,354.981 447.315,357.096 447.315,359.758L447.315,448.438C447.315,451.1 446.498,453.215 444.884,454.723C441.955,457.461 437.351,457.234 436.838,457.201C436.052,457.244 435.491,457.199 435.468,457.196L394.203,457.198C394.222,457.198 393.664,457.244 392.818,457.201C392.735,457.209 392.517,457.221 392.196,457.221ZM392.229,351.976C390.835,351.976 387.648,352.207 385.511,354.205C384.109,355.516 383.398,357.386 383.398,359.76L383.398,448.44C383.398,450.814 384.109,452.683 385.511,453.995C388.133,456.446 392.334,456.238 392.81,456.206C393.643,456.246 394.155,456.203 394.161,456.203L435.51,456.201C435.558,456.204 436.072,456.247 436.846,456.206C437.375,456.239 441.581,456.444 444.201,453.995C445.603,452.683 446.314,450.814 446.314,448.44L446.314,359.76C446.314,357.386 445.603,355.517 444.201,354.205C441.578,351.754 437.375,351.962 436.904,351.994L436.875,351.996L436.846,351.994C436.075,351.954 435.558,351.997 435.552,351.997L394.203,351.999C394.156,351.997 393.643,351.956 392.869,351.994C392.771,351.987 392.547,351.976 392.229,351.976Z" style="fill:rgb(21,47,71);fill-rule:nonzero;" />
                        </svg:g>
                    </svg:g>
                    <svg:g>
                        <svg:g>
                            <svg:g>
                                <svg:path d="M382.898,415.621C382.898,415.621 440.059,392.246 450.03,397.281C460,402.315 462.137,421.316 462.137,421.316C462.137,421.316 419.036,406.85 382.898,415.621Z" style="fill:rgb(255,201,226);fill-rule:nonzero;" />
                            </svg:g>
                            <svg:g>
                                <svg:g>
                                    <svg:g>
                                        <svg:path d="M382.898,415.621C382.898,415.621 440.059,392.246 450.03,397.281C460,402.315 462.137,421.316 462.137,421.316C462.137,421.316 419.036,406.85 382.898,415.621Z" style="fill:rgb(255,201,226);fill-rule:nonzero;" />
                                    </svg:g>
                                </svg:g>
                                <svg:g>
                                    <svg:path d="M460.994,415.28C444.51,407.335 424.646,405.666 407.934,406.203C394.372,410.93 382.899,415.621 382.899,415.621C419.037,406.85 462.138,421.316 462.138,421.316C462.138,421.316 461.849,418.761 460.994,415.28Z" style="fill:rgb(249,183,216);fill-rule:nonzero;" />
                                </svg:g>
                            </svg:g>
                            <svg:g>
                                <svg:path d="M462.723,422.04L461.979,421.79C461.55,421.647 418.593,407.469 383.017,416.107L382.709,415.158C385.052,414.2 440.192,391.751 450.256,396.835C460.351,401.933 462.546,420.474 462.635,421.261L462.723,422.04ZM408.466,412.322C433.82,412.322 457.082,419.203 461.535,420.598C461.001,417.01 458.29,402.011 449.805,397.727C441.924,393.747 402.881,408.323 388.454,413.954C395.067,412.793 401.84,412.322 408.466,412.322Z" style="fill:rgb(21,47,71);fill-rule:nonzero;" />
                            </svg:g>
                        </svg:g>
                        <svg:g>
                            <svg:g>
                                <svg:g>
                                    <svg:path d="M382.898,415.621L382.898,448.438C382.898,457.379 392.461,456.733 392.862,456.701C393.668,456.741 394.203,456.699 394.203,456.699L435.51,456.699C435.51,456.699 436.048,456.741 436.851,456.701C437.255,456.733 446.815,457.38 446.815,448.438L446.815,417.25C431.027,413.769 405.592,410.113 382.898,415.621Z" style="fill:rgb(242,165,204);fill-rule:nonzero;" />
                                </svg:g>
                                <svg:g>
                                    <svg:path d="M384.401,415.272C383.888,415.467 383.387,415.659 382.898,415.846L382.898,418.111C405.774,414.835 429.535,417.666 446.814,421.05L446.814,417.251C431.373,413.845 406.706,410.275 384.401,415.272Z" style="fill:rgb(232,151,196);fill-rule:nonzero;" />
                                </svg:g>
                                <svg:g>
                                    <svg:path d="M404.806,451.274C396.856,451.274 389.39,449.493 382.899,446.377L382.899,448.438C382.899,457.379 392.462,456.733 392.863,456.701C393.669,456.741 394.204,456.699 394.204,456.699L435.511,456.699C435.511,456.699 436.049,456.741 436.852,456.701C437.256,456.733 446.816,457.38 446.816,448.438L446.816,426.628C440.158,441.066 423.864,451.274 404.806,451.274Z" style="fill:rgb(232,151,196);fill-rule:nonzero;" />
                                </svg:g>
                                <svg:path d="M382.898,441.982C385.31,443.166 388.048,443.845 390.957,443.845C400.592,443.845 408.402,436.505 408.402,427.452C408.402,421.292 404.782,415.932 399.436,413.131C393.879,413.529 388.31,414.309 382.897,415.623C382.898,423.984 382.898,434.659 382.898,441.982Z" style="fill:white;fill-opacity:0.2;fill-rule:nonzero;" />
                            </svg:g>
                            <svg:g>
                                <svg:path d="M392.181,457.222C390.741,457.222 387.258,456.97 384.865,454.761C383.229,453.251 382.399,451.124 382.399,448.439L382.399,415.228L382.781,415.135C405.122,409.713 429.991,413.028 446.923,416.763L447.316,416.85L447.316,448.439C447.316,451.123 446.487,453.25 444.851,454.761C441.817,457.565 437.016,457.22 436.812,457.199C436.053,457.245 435.497,457.2 435.472,457.197L394.204,457.199C394.22,457.198 393.667,457.241 392.839,457.2C392.809,457.204 392.568,457.222 392.181,457.222ZM383.398,416.016L383.398,448.439C383.398,450.834 384.12,452.713 385.543,454.027C388.264,456.539 392.638,456.216 392.822,456.204C393.648,456.239 394.159,456.202 394.164,456.202L435.51,456.2C435.554,456.202 436.072,456.238 436.825,456.203C437.078,456.217 441.455,456.534 444.172,454.026C445.594,452.713 446.315,450.834 446.315,448.439L446.315,417.654C429.593,413.997 405.281,410.809 383.398,416.016Z" style="fill:rgb(21,47,71);fill-rule:nonzero;" />
                            </svg:g>
                        </svg:g>
                    </svg:g>
                    <svg:g>
                        <svg:g>
                            <svg:g>
                                <svg:g>
                                    <svg:path d="M407.441,435.188C407.441,436.906 406.049,438.299 404.329,438.299C402.612,438.299 401.22,436.906 401.22,435.188C401.22,433.469 402.613,432.077 404.329,432.077C406.05,432.076 407.441,433.469 407.441,435.188Z" style="fill:rgb(21,47,71);fill-rule:nonzero;" />
                                </svg:g>
                                <svg:g>
                                    <svg:g>
                                        <svg:path d="M404.207,434.047C404.207,434.49 403.846,434.851 403.401,434.851C402.959,434.851 402.599,434.491 402.599,434.047C402.599,433.603 402.958,433.243 403.401,433.243C403.846,433.243 404.207,433.603 404.207,434.047Z" style="fill:white;fill-rule:nonzero;" />
                                    </svg:g>
                                    <svg:g>
                                        <svg:path d="M403.005,435.595C403.005,435.819 402.822,436 402.598,436C402.373,436 402.191,435.818 402.191,435.595C402.191,435.369 402.374,435.188 402.598,435.188C402.822,435.188 403.005,435.369 403.005,435.595Z" style="fill:white;fill-rule:nonzero;" />
                                    </svg:g>
                                </svg:g>
                            </svg:g>
                            <svg:g>
                                <svg:g>
                                    <svg:path d="M428.252,435.188C428.252,436.906 426.859,438.299 425.141,438.299C423.422,438.299 422.031,436.906 422.031,435.188C422.031,433.469 423.423,432.077 425.141,432.077C426.859,432.076 428.252,433.469 428.252,435.188Z" style="fill:rgb(21,47,71);fill-rule:nonzero;" />
                                </svg:g>
                                <svg:g>
                                    <svg:g>
                                        <svg:path d="M425.016,434.047C425.016,434.49 424.658,434.851 424.213,434.851C423.768,434.851 423.409,434.491 423.409,434.047C423.409,433.603 423.767,433.243 424.213,433.243C424.657,433.243 425.016,433.603 425.016,434.047Z" style="fill:white;fill-rule:nonzero;" />
                                    </svg:g>
                                    <svg:g>
                                        <svg:path d="M423.814,435.595C423.814,435.819 423.633,436 423.407,436C423.183,436 423.002,435.818 423.002,435.595C423.002,435.369 423.184,435.188 423.407,435.188C423.634,435.188 423.814,435.369 423.814,435.595Z" style="fill:white;fill-rule:nonzero;" />
                                    </svg:g>
                                </svg:g>
                            </svg:g>
                        </svg:g>
                        <svg:g>
                            <svg:g>
                                <svg:path d="M402.92,429.059C402.92,429.059 402.962,428.78 403.204,428.469C403.329,428.313 403.496,428.143 403.725,428.017C403.954,427.887 404.239,427.8 404.541,427.8C404.694,427.795 404.839,427.835 404.984,427.866C405.127,427.896 405.246,427.985 405.367,428.041C405.589,428.19 405.756,428.364 405.858,428.541C405.977,428.698 406.012,428.869 406.051,428.973C406.082,429.084 406.09,429.152 406.09,429.152C406.09,429.152 406.025,429.128 405.923,429.083C405.815,429.04 405.69,428.962 405.531,428.902C405.381,428.827 405.209,428.773 405.042,428.712C404.871,428.682 404.709,428.631 404.538,428.647C404.37,428.627 404.191,428.671 404.013,428.705C403.833,428.744 403.661,428.806 403.496,428.855C403.148,428.976 402.92,429.059 402.92,429.059Z" style="fill:rgb(21,47,71);fill-rule:nonzero;" />
                            </svg:g>
                            <svg:g>
                                <svg:path d="M423.755,428.811C423.755,428.811 423.825,428.54 424.103,428.254C424.239,428.111 424.425,427.961 424.667,427.858C424.905,427.755 425.199,427.694 425.499,427.727C425.651,427.738 425.791,427.793 425.934,427.836C426.074,427.882 426.182,427.984 426.297,428.051C426.501,428.225 426.651,428.415 426.73,428.599C426.835,428.769 426.855,428.941 426.883,429.047C426.902,429.163 426.905,429.228 426.905,429.228C426.905,429.228 426.84,429.202 426.741,429.143C426.642,429.094 426.523,429 426.373,428.925C426.226,428.836 426.064,428.759 425.904,428.684C425.735,428.635 425.58,428.568 425.407,428.566C425.242,428.533 425.061,428.557 424.881,428.57C424.699,428.593 424.521,428.635 424.351,428.669C423.991,428.754 423.755,428.811 423.755,428.811Z" style="fill:rgb(21,47,71);fill-rule:nonzero;" />
                            </svg:g>
                        </svg:g>
                        <svg:g>
                            <svg:g>
                                <svg:path d="M405.577,440.655C405.577,442.058 404.439,443.196 403.037,443.196C401.633,443.196 400.496,442.058 400.496,440.655C400.496,439.253 401.633,438.114 403.037,438.114C404.439,438.114 405.577,439.253 405.577,440.655Z" style="fill:rgb(255,129,206);fill-rule:nonzero;" />
                            </svg:g>
                            <svg:g>
                                <svg:path d="M429.329,440.655C429.329,442.058 428.191,443.196 426.788,443.196C425.384,443.196 424.248,442.058 424.248,440.655C424.248,439.253 425.384,438.114 426.788,438.114C428.191,438.114 429.329,439.253 429.329,440.655Z" style="fill:rgb(255,129,206);fill-rule:nonzero;" />
                            </svg:g>
                        </svg:g>
                        <svg:g>
                            <svg:g>
                                <svg:path d="M410.676,435.7L418.949,435.7L419.306,437.078L418.407,439.188L416.764,440.4L413.116,440.4L411.852,439.391L410.676,437.76L410.676,435.7Z" style="fill:white;fill-rule:nonzero;" />
                            </svg:g>
                            <svg:g>
                                <svg:path d="M418.602,435.416L410.873,435.416C410.873,435.416 409.745,435.296 409.887,436.734C410.029,438.172 411.575,440.816 414.737,440.816C417.898,440.816 419.446,438.173 419.586,436.734C419.727,435.296 418.602,435.416 418.602,435.416ZM412.039,439.217C412.238,438.351 414.736,438.114 414.736,438.114C412.545,438.114 411.399,437.628 410.921,437.35C410.892,437.231 410.869,437.116 410.858,437.012C410.747,435.861 411.647,435.956 411.647,435.956L417.828,435.956C417.828,435.956 418.726,435.86 418.615,437.012C418.603,437.116 418.581,437.231 418.551,437.35C418.072,437.627 416.927,438.114 414.736,438.114C414.736,438.114 417.235,438.35 417.432,439.217C416.798,439.819 415.907,440.275 414.736,440.275C413.564,440.274 412.673,439.818 412.039,439.217Z" style="fill:rgb(21,47,71);fill-rule:nonzero;" />
                            </svg:g>
                        </svg:g>
                    </svg:g>
                </svg:g>
                <svg:g>
                    <svg:g>
                        <svg:path d="M387.653,421.384C387.7,425.753 387.748,430.122 387.795,434.491C387.802,435.12 387.809,435.749 387.815,436.378C387.824,437.178 389.072,437.253 389.063,436.447C389.016,432.078 388.969,427.709 388.921,423.339C388.914,422.71 388.907,422.081 388.901,421.452C388.893,420.652 387.645,420.577 387.653,421.384Z" style="fill:white;fill-rule:nonzero;" />
                    </svg:g>
                    <svg:path d="M389.436,439.602C389.411,440.06 389.019,440.411 388.561,440.386C388.103,440.361 387.752,439.969 387.777,439.511C387.802,439.053 388.194,438.702 388.652,438.727C389.11,438.752 389.462,439.143 389.436,439.602Z" style="fill:white;fill-rule:nonzero;" />
                </svg:g>
            </svg:g>
        </svg:g>
    </g>
</svg>