<?xml version='1.0' encoding='UTF-8'?>
<svg xmlns="http://www.w3.org/2000/svg" xmlns:xlink="http://www.w3.org/1999/xlink" xmlns:svg="http://www.w3.org/2000/svg" xmlns:serif="http://www.serif.com/" height="100%" style="fill-rule:evenodd;clip-rule:evenodd;" version="1.1" viewBox="720.0 280.0 120.0 60.0" width="100%">
    <g>
        <svg:rect x="720" y="280" width="120" height="60" style="fill:rgb(255,133,255);" />
        <svg:g transform="matrix(0.433386,0,0,0.433386,623.302,192.927)">
            <svg:path d="M263.46,280.981C263.46,280.981 254.632,330.834 365.573,330.834C476.514,330.834 467.495,267.265 467.495,267.265L263.46,280.981Z" style="fill:rgb(224,163,106);fill-rule:nonzero;stroke-linecap:round;stroke-linejoin:round;stroke-miterlimit:10;" />
            <svg:path d="M385.381,209.345C383.016,209.108 380.648,208.914 378.278,208.762C367.747,208.089 357.173,208.25 346.658,209.156C323.237,211.172 301.519,217.601 282.23,232.447C258.584,250.647 252.246,276.497 260.778,284.937C269.31,293.378 275.648,280.98 288.08,299.708C300.512,318.436 314.651,316.589 335.128,308.149C355.605,299.708 370.475,292.586 388.758,305.511C407.041,318.436 427.274,321.073 438.975,304.72C450.676,288.366 454.82,282.299 468.715,274.914C476.851,270.589 473.962,257.504 470.667,250.863C462.863,235.135 447.29,226.391 432.384,220.518C417.26,214.559 401.398,210.953 385.381,209.345Z" style="fill:rgb(195,82,78);fill-rule:nonzero;stroke-linecap:round;stroke-linejoin:round;stroke-miterlimit:10;" />
            <svg:path d="M292.395,269.111C290.731,271.158 288.513,271.991 287.442,270.971C286.371,269.951 286.852,267.466 288.517,265.419C290.182,263.372 292.399,262.539 293.47,263.559C294.54,264.578 294.059,267.064 292.395,269.111Z" style="fill:rgb(239,193,49);fill-rule:nonzero;" />
            <svg:path d="M337.431,296.754C335.767,298.801 333.549,299.634 332.478,298.614C331.407,297.594 331.888,295.109 333.553,293.062C335.218,291.015 337.435,290.182 338.506,291.202C339.577,292.221 339.096,294.707 337.431,296.754Z" style="fill:rgb(239,193,49);fill-rule:nonzero;" />
            <svg:path d="M310.701,230.699C308.251,231.334 305.995,230.633 305.662,229.132C305.33,227.631 307.046,225.899 309.497,225.264C311.947,224.629 314.203,225.33 314.536,226.831C314.869,228.332 313.152,230.064 310.701,230.699Z" style="fill:rgb(239,193,49);fill-rule:nonzero;" />
            <svg:path d="M362.962,227.715C360.512,228.35 358.256,227.649 357.923,226.148C357.59,224.647 359.307,222.915 361.758,222.28C364.208,221.645 366.464,222.346 366.797,223.847C367.129,225.348 365.412,227.08 362.962,227.715Z" style="fill:rgb(239,193,49);fill-rule:nonzero;" />
            <svg:path d="M399.442,223.349C397.069,222.433 395.533,220.512 396.012,219.058C396.491,217.604 398.804,217.168 401.177,218.084C403.55,219 405.086,220.921 404.607,222.375C404.127,223.829 401.815,224.265 399.442,223.349Z" style="fill:rgb(158,207,187);fill-rule:nonzero;" />
            <svg:path d="M455.583,263.718C453.21,262.802 451.674,260.881 452.153,259.427C452.632,257.973 454.945,257.537 457.318,258.453C459.691,259.369 461.227,261.29 460.748,262.743C460.268,264.197 457.956,264.634 455.583,263.718Z" style="fill:rgb(239,193,49);fill-rule:nonzero;" />
            <svg:path d="M329.184,253.068C330.736,255.216 331.083,257.728 329.96,258.678C328.836,259.629 326.667,258.658 325.115,256.511C323.563,254.363 323.216,251.851 324.339,250.901C325.463,249.95 327.632,250.92 329.184,253.068Z" style="fill:rgb(158,207,187);fill-rule:nonzero;" />
            <svg:path d="M403.297,260.175C401.312,261.854 398.991,262.23 398.112,261.014C397.233,259.798 398.13,257.451 400.115,255.772C402.1,254.092 404.421,253.717 405.3,254.933C406.179,256.149 405.282,258.496 403.297,260.175Z" style="fill:rgb(239,193,49);fill-rule:nonzero;" />
            <svg:path d="M405.639,293.186C407.191,295.334 407.538,297.846 406.415,298.796C405.291,299.747 403.122,298.776 401.57,296.629C400.018,294.481 399.671,291.969 400.794,291.019C401.918,290.068 404.087,291.039 405.639,293.186Z" style="fill:rgb(239,193,49);fill-rule:nonzero;" />
            <svg:path d="M434.243,236.838C435.795,238.986 436.142,241.498 435.019,242.448C433.895,243.399 431.726,242.428 430.174,240.281C428.622,238.133 428.275,235.621 429.398,234.671C430.521,233.72 432.69,234.69 434.243,236.838Z" style="fill:rgb(239,193,49);fill-rule:nonzero;" />
            <svg:g>
                <svg:path d="M341.55,275.356C341.55,272.281 342.631,269.789 344.859,269.789C347.087,269.789 348.168,272.281 348.168,275.356" style="fill:none;fill-rule:nonzero;stroke-linecap:round;stroke-linejoin:round;stroke-miterlimit:10;" />
                <svg:path d="M379.958,275.356C379.958,272.281 381.039,269.789 383.267,269.789C385.495,269.789 386.576,272.281 386.576,275.356" style="fill:none;fill-rule:nonzero;stroke-linecap:round;stroke-linejoin:round;stroke-miterlimit:10;" />
                <svg:path d="M357.746,280.894C359.91,286.85 369.051,286.85 371.215,280.894" style="fill:none;fill-rule:nonzero;stroke-linecap:round;stroke-linejoin:round;stroke-miterlimit:10;" />
                <svg:ellipse cx="331.899" cy="280.923" rx="6.926" ry="5.754" style="fill:rgb(255,136,185);" />
                <svg:ellipse cx="396.228" cy="280.923" rx="6.926" ry="5.754" style="fill:rgb(255,136,185);" />
            </svg:g>
            <svg:path d="M348.169,245.335C348.169,245.335 360.424,255.56 379.958,245.335" style="fill:rgb(195,82,78);fill-rule:nonzero;stroke-linecap:round;stroke-linejoin:round;stroke-miterlimit:10;" />
            <svg:g opacity="0.3">
                <svg:path d="M385.569,238.319C391.842,240.963 391.477,247.558 386.871,251.839C380.861,257.641 372.405,260.654 364.063,260.672C355.064,260.782 341.881,256.007 338.198,247.229C336.765,243.547 339.156,239.535 342.557,238.319C342.677,238.257 342.822,238.298 342.875,238.426C342.913,238.52 342.882,238.624 342.805,238.682C341.65,239.563 340.662,240.743 340.12,242.078C338.447,246.703 343.401,250.01 346.89,251.95C352.12,254.834 358.1,256.28 364.062,256.273C370.023,256.278 376.004,254.833 381.233,251.949C384.725,250.012 389.676,246.701 388.003,242.078C387.461,240.743 386.473,239.562 385.319,238.682C385.09,238.525 385.349,238.178 385.569,238.319Z" style="fill:white;fill-rule:nonzero;" />
            </svg:g>
            <svg:g opacity="0.3">
                <svg:path d="M264.981,278.788C262.808,260.029 277.274,241.082 294.711,235.285C296.57,234.713 298.464,234.217 300.379,233.882C300.607,233.841 300.735,234.174 300.521,234.286C299.005,235.145 296.376,236.59 294.898,237.432C284.242,244.031 275.278,253.499 269.964,264.92C267.895,269.347 266.25,274.025 265.418,278.837C265.397,278.956 265.285,279.035 265.166,279.015C265.054,278.991 264.984,278.899 264.981,278.788Z" style="fill:white;fill-rule:nonzero;" />
            </svg:g>
            <svg:path d="M352.072,247.607C352.072,247.607 357.742,241.861 370.221,244.189" style="fill:none;fill-rule:nonzero;stroke-linecap:round;stroke-linejoin:round;stroke-miterlimit:10;" />
            <svg:path d="M282.812,276.526C282.812,276.526 285.969,300.326 302.904,292.565" style="fill:none;fill-rule:nonzero;stroke-linecap:round;stroke-linejoin:round;stroke-miterlimit:10;" />
            <svg:path d="M423.393,286.677C423.393,286.677 449.701,299.786 448.408,269.789" style="fill:none;fill-rule:nonzero;stroke-linecap:round;stroke-linejoin:round;stroke-miterlimit:10;" />
            <svg:path d="M350.878,236.18C350.878,236.18 362.128,229.466 377.249,234.64" style="fill:none;fill-rule:nonzero;stroke-linecap:round;stroke-linejoin:round;stroke-miterlimit:10;" />
            <svg:path d="M361.146,323.607C361.146,323.607 370.718,325.418 380.331,323.607" style="fill:none;fill-rule:nonzero;stroke-linecap:round;stroke-linejoin:round;stroke-miterlimit:10;" />
        </svg:g>
    </g>
</svg>