<?xml version='1.0' encoding='UTF-8'?>
<svg xmlns="http://www.w3.org/2000/svg" xmlns:xlink="http://www.w3.org/1999/xlink" xmlns:svg="http://www.w3.org/2000/svg" xmlns:serif="http://www.serif.com/" height="100%" style="fill-rule:evenodd;clip-rule:evenodd;" version="1.1" viewBox="720.0 500.0 120.0 100.0" width="100%">
    <g>
        <svg:rect x="720" y="500" width="120" height="100" style="fill:rgb(212,251,121);" />
        <svg:g transform="matrix(0.880706,0,0,0.880706,432.655,320.282)">
            <svg:g>
                <svg:g>
                    <svg:g>
                        <svg:path d="M449.936,273.09C449.936,270.279 447.976,267.93 445.35,267.323C446.544,266.239 447.298,264.68 447.298,262.941C447.298,259.669 444.645,257.016 441.373,257.016C441.365,257.016 441.358,257.017 441.35,257.017C442.048,256.045 442.464,254.856 442.464,253.568C442.464,250.296 439.811,247.643 436.539,247.643C436.303,247.643 436.072,247.661 435.843,247.687C436.286,246.857 436.539,245.91 436.539,244.903C436.539,241.631 433.886,238.978 430.614,238.978C430.018,238.978 429.443,239.068 428.901,239.232C429.249,238.477 429.449,237.64 429.449,236.754C429.449,233.482 426.796,230.829 423.524,230.829C422.298,230.829 421.159,231.202 420.213,231.84C420.366,231.313 420.453,230.758 420.453,230.182C420.453,226.91 417.8,224.257 414.528,224.257C412.949,224.257 411.519,224.878 410.456,225.885C410.044,223.015 407.582,220.806 404.598,220.806C402.381,220.806 400.452,222.026 399.436,223.829C399.216,220.757 396.661,218.331 393.533,218.331C393.528,218.331 393.524,218.332 393.519,218.332C393.514,218.332 393.51,218.331 393.505,218.331C390.377,218.331 387.821,220.757 387.602,223.829C386.586,222.026 384.657,220.806 382.44,220.806C379.456,220.806 376.994,223.014 376.582,225.885C375.52,224.878 374.089,224.257 372.51,224.257C369.238,224.257 366.585,226.91 366.585,230.182C366.585,230.758 366.671,231.313 366.825,231.84C365.88,231.202 364.741,230.829 363.514,230.829C360.242,230.829 357.589,233.482 357.589,236.754C357.589,237.64 357.789,238.477 358.137,239.232C357.594,239.068 357.02,238.978 356.424,238.978C353.152,238.978 350.499,241.631 350.499,244.903C350.499,245.91 350.752,246.857 351.195,247.687C350.966,247.66 350.735,247.643 350.499,247.643C347.227,247.643 344.574,250.296 344.574,253.568C344.574,254.856 344.99,256.045 345.688,257.017C345.68,257.017 345.673,257.016 345.665,257.016C342.393,257.016 339.74,259.669 339.74,262.941C339.74,264.68 340.494,266.24 341.688,267.323C339.061,267.931 337.102,270.279 337.102,273.09C337.102,276.19 339.483,278.729 342.515,278.989C341.429,280.063 340.756,281.553 340.756,283.2C340.756,286.472 343.409,289.125 346.681,289.125C347.44,289.125 348.164,288.977 348.831,288.717C348.433,289.513 348.203,290.409 348.203,291.36C348.203,294.632 350.856,297.285 354.128,297.285C355.424,297.285 356.619,296.864 357.594,296.158C357.593,296.192 357.589,296.225 357.589,296.259C357.589,299.531 360.242,302.184 363.514,302.184C365.449,302.184 367.163,301.252 368.244,299.817C368.223,300.021 368.211,300.229 368.211,300.439C368.211,303.711 370.864,306.364 374.136,306.364C376.052,306.364 377.751,305.45 378.834,304.039C379.491,306.596 381.804,308.488 384.566,308.488C386.092,308.488 387.479,307.905 388.529,306.957C389.45,308.381 390.964,309.381 392.722,309.613C392.741,309.616 392.76,309.619 392.778,309.622C393.016,309.651 393.257,309.671 393.503,309.671C393.508,309.671 393.512,309.67 393.517,309.67C393.522,309.67 393.526,309.671 393.531,309.671C393.777,309.671 394.018,309.651 394.256,309.622C394.275,309.619 394.293,309.616 394.312,309.613C396.071,309.381 397.584,308.381 398.505,306.957C399.555,307.905 400.942,308.488 402.468,308.488C405.23,308.488 407.543,306.596 408.2,304.039C409.283,305.45 410.982,306.364 412.898,306.364C416.17,306.364 418.823,303.711 418.823,300.439C418.823,300.229 418.811,300.022 418.79,299.817C419.871,301.252 421.585,302.184 423.52,302.184C426.792,302.184 429.445,299.531 429.445,296.259C429.445,296.225 429.44,296.192 429.44,296.158C430.415,296.864 431.61,297.285 432.906,297.285C436.178,297.285 438.831,294.632 438.831,291.36C438.831,290.409 438.601,289.514 438.203,288.717C438.87,288.977 439.594,289.125 440.353,289.125C443.625,289.125 446.278,286.472 446.278,283.2C446.278,281.552 445.604,280.063 444.519,278.989C447.554,278.729 449.936,276.19 449.936,273.09Z" style="fill:rgb(248,229,229);fill-rule:nonzero;" />
                    </svg:g>
                    <svg:g opacity="0.2">
                        <svg:g>
                            <svg:path d="M385.983,306.957C385.599,307.551 385.108,308.064 384.543,308.486C384.551,308.486 384.559,308.488 384.567,308.488C385.537,308.488 386.45,308.251 387.257,307.836C386.794,307.597 386.366,307.302 385.983,306.957Z" style="fill:rgb(211,161,161);fill-rule:nonzero;" />
                        </svg:g>
                        <svg:g>
                            <svg:path d="M386.692,222.611C386.805,223.002 386.882,223.409 386.912,223.829C387.016,223.645 387.135,223.472 387.257,223.3C387.084,223.058 386.898,222.825 386.692,222.611Z" style="fill:rgb(211,161,161);fill-rule:nonzero;" />
                        </svg:g>
                        <svg:g>
                            <svg:path d="M449.936,273.09C449.936,270.279 447.976,267.93 445.35,267.323C446.544,266.239 447.298,264.68 447.298,262.941C447.298,259.669 444.645,257.016 441.373,257.016C441.365,257.016 441.358,257.017 441.35,257.017C442.048,256.045 442.464,254.856 442.464,253.568C442.464,250.296 439.811,247.643 436.539,247.643C436.303,247.643 436.072,247.661 435.843,247.687C436.286,246.857 436.539,245.91 436.539,244.903C436.539,241.631 433.886,238.978 430.614,238.978C430.018,238.978 429.443,239.068 428.901,239.232C429.249,238.477 429.449,237.64 429.449,236.754C429.449,233.482 426.796,230.829 423.524,230.829C422.298,230.829 421.159,231.202 420.213,231.84C420.366,231.313 420.453,230.758 420.453,230.182C420.453,226.91 417.8,224.257 414.528,224.257C412.949,224.257 411.518,224.878 410.456,225.885C410.044,223.015 407.582,220.806 404.598,220.806C402.381,220.806 400.452,222.026 399.436,223.83C399.216,220.758 396.661,218.332 393.533,218.332C393.528,218.332 393.524,218.333 393.519,218.333C393.514,218.333 393.51,218.332 393.505,218.332C390.805,218.332 388.535,220.141 387.822,222.612C388.898,221.5 390.403,220.806 392.073,220.806C395.057,220.806 397.519,223.014 397.931,225.885C398.993,224.878 400.424,224.257 402.003,224.257C405.275,224.257 407.928,226.91 407.928,230.182C407.928,230.758 407.842,231.314 407.688,231.84C408.633,231.202 409.772,230.829 410.999,230.829C414.271,230.829 416.924,233.482 416.924,236.754C416.924,237.64 416.724,238.477 416.376,239.232C416.919,239.068 417.493,238.978 418.089,238.978C421.361,238.978 424.014,241.631 424.014,244.903C424.014,245.91 423.761,246.857 423.318,247.687C423.547,247.66 423.778,247.643 424.014,247.643C427.286,247.643 429.939,250.296 429.939,253.568C429.939,254.856 429.523,256.045 428.825,257.017C428.833,257.017 428.84,257.016 428.848,257.016C432.12,257.016 434.773,259.669 434.773,262.941C434.773,264.68 434.019,266.24 432.825,267.323C435.452,267.931 437.412,270.279 437.412,273.09C437.412,276.19 435.031,278.729 431.998,278.989C433.084,280.063 433.758,281.553 433.758,283.2C433.758,286.472 431.105,289.125 427.833,289.125C427.074,289.125 426.35,288.977 425.683,288.717C426.081,289.513 426.311,290.409 426.311,291.36C426.311,294.632 423.658,297.285 420.386,297.285C419.09,297.285 417.895,296.864 416.919,296.158C416.92,296.192 416.924,296.225 416.924,296.259C416.924,299.531 414.271,302.184 410.999,302.184C409.064,302.184 407.351,301.252 406.269,299.817C406.29,300.021 406.302,300.229 406.302,300.439C406.302,303.711 403.649,306.364 400.377,306.364C398.461,306.364 396.762,305.45 395.679,304.039C395.024,306.588 392.722,308.475 389.971,308.486C390.761,309.075 391.699,309.478 392.724,309.614C392.743,309.617 392.761,309.62 392.78,309.623C393.018,309.652 393.259,309.672 393.505,309.672C393.51,309.672 393.514,309.671 393.519,309.671C393.524,309.671 393.528,309.672 393.533,309.672C393.779,309.672 394.02,309.652 394.258,309.623C394.277,309.62 394.296,309.617 394.315,309.614C396.074,309.382 397.587,308.382 398.508,306.958C399.559,307.906 400.945,308.489 402.471,308.489C405.233,308.489 407.547,306.597 408.203,304.04C409.286,305.451 410.985,306.365 412.901,306.365C416.173,306.365 418.826,303.712 418.826,300.44C418.826,300.23 418.814,300.023 418.793,299.818C419.874,301.253 421.588,302.185 423.523,302.185C426.795,302.185 429.448,299.532 429.448,296.26C429.448,296.226 429.443,296.193 429.443,296.159C430.418,296.865 431.613,297.286 432.909,297.286C436.181,297.286 438.834,294.633 438.834,291.361C438.834,290.41 438.604,289.515 438.206,288.718C438.873,288.978 439.597,289.126 440.356,289.126C443.628,289.126 446.281,286.473 446.281,283.201C446.281,281.553 445.607,280.064 444.522,278.99C447.554,278.729 449.936,276.19 449.936,273.09Z" style="fill:rgb(211,161,161);fill-rule:nonzero;" />
                        </svg:g>
                    </svg:g>
                    <svg:g>
                        <svg:path d="M393.533,310.17C393.238,310.17 392.978,310.15 392.722,310.118C390.985,309.888 389.467,309.014 388.435,307.684C387.32,308.528 385.966,308.987 384.568,308.987C381.942,308.987 379.617,307.393 378.636,305.018C377.44,306.2 375.843,306.863 374.137,306.863C370.815,306.863 368.073,304.328 367.745,301.09C366.585,302.114 365.099,302.683 363.516,302.683C360.235,302.683 357.52,300.211 357.137,297.033C356.212,297.527 355.187,297.785 354.129,297.785C350.586,297.785 347.704,294.902 347.704,291.359C347.704,290.719 347.798,290.094 347.984,289.49C347.555,289.58 347.12,289.626 346.681,289.626C343.138,289.626 340.256,286.743 340.256,283.2C340.256,281.788 340.709,280.446 341.546,279.338C338.709,278.662 336.602,276.078 336.602,273.09C336.602,270.372 338.276,268.008 340.762,267.08C339.786,265.926 339.24,264.458 339.24,262.94C339.24,259.682 341.676,256.984 344.823,256.57C344.331,255.646 344.074,254.623 344.074,253.567C344.074,250.056 346.904,247.194 350.403,247.142C350.137,246.428 349.999,245.666 349.999,244.902C349.999,241.36 352.882,238.477 356.425,238.477C356.734,238.477 357.041,238.5 357.347,238.544C357.175,237.963 357.089,237.363 357.089,236.753C357.089,233.211 359.972,230.328 363.515,230.328C364.423,230.328 365.309,230.517 366.124,230.88C366.098,230.647 366.085,230.413 366.085,230.18C366.085,226.638 368.967,223.755 372.51,223.755C373.869,223.755 375.176,224.182 376.266,224.972C377.039,222.259 379.558,220.304 382.44,220.304C384.33,220.304 386.107,221.142 387.315,222.552C388.068,219.823 390.581,217.83 393.505,217.83C396.453,217.83 398.97,219.823 399.723,222.552C400.931,221.143 402.708,220.304 404.599,220.304C407.48,220.304 409.998,222.259 410.772,224.972C411.862,224.182 413.169,223.755 414.528,223.755C418.071,223.755 420.953,226.637 420.953,230.18C420.953,230.413 420.94,230.647 420.914,230.88C421.73,230.516 422.616,230.327 423.524,230.327C427.067,230.327 429.949,233.209 429.949,236.752C429.949,237.362 429.863,237.962 429.691,238.543C429.997,238.499 430.305,238.476 430.614,238.476C434.157,238.476 437.039,241.358 437.039,244.901C437.039,245.666 436.9,246.427 436.635,247.141C440.134,247.193 442.964,250.055 442.964,253.566C442.964,254.624 442.706,255.648 442.213,256.572C445.37,256.992 447.798,259.687 447.798,262.939C447.798,264.457 447.252,265.924 446.277,267.079C448.763,268.007 450.436,270.371 450.436,273.089C450.436,276.077 448.329,278.66 445.492,279.337C446.33,280.445 446.783,281.787 446.783,283.199C446.783,286.742 443.9,289.625 440.357,289.625C439.919,289.625 439.483,289.579 439.054,289.489C439.24,290.093 439.334,290.719 439.334,291.358C439.334,294.901 436.452,297.784 432.909,297.784C431.85,297.784 430.826,297.526 429.902,297.032C429.518,300.211 426.804,302.682 423.523,302.682C421.939,302.682 420.454,302.113 419.293,301.089C418.966,304.326 416.224,306.862 412.901,306.862C411.195,306.862 409.598,306.199 408.402,305.017C407.423,307.392 405.097,308.986 402.47,308.986C401.071,308.986 399.718,308.527 398.603,307.683C397.571,309.012 396.06,309.885 394.379,310.108C394.06,310.149 393.799,310.17 393.533,310.17ZM388.632,306.192L388.95,306.685C389.815,308.023 391.215,308.909 392.789,309.117C393.362,309.189 393.786,309.174 394.2,309.126C395.823,308.909 397.222,308.023 398.088,306.685L398.406,306.192L398.842,306.585C399.845,307.488 401.133,307.986 402.47,307.986C404.945,307.986 407.103,306.311 407.718,303.913L407.974,302.918L408.599,303.732C409.638,305.086 411.206,305.862 412.901,305.862C415.892,305.862 418.326,303.428 418.326,300.437C418.326,300.245 418.315,300.054 418.296,299.868L418.108,298.074L419.193,299.514C420.231,300.892 421.81,301.682 423.524,301.682C426.515,301.682 428.949,299.248 428.949,296.257L428.949,295.278L429.737,295.751C430.67,296.427 431.767,296.784 432.91,296.784C435.901,296.784 438.335,294.35 438.335,291.358C438.335,290.517 438.142,289.703 437.761,288.939L437.182,287.777L438.39,288.25C439.027,288.499 439.689,288.625 440.358,288.625C443.35,288.625 445.784,286.191 445.784,283.199C445.784,281.741 445.212,280.372 444.173,279.344L443.403,278.582L444.481,278.49C447.26,278.252 449.437,275.88 449.437,273.089C449.437,270.552 447.711,268.38 445.239,267.809L444.308,267.593L445.015,266.951C446.148,265.922 446.798,264.459 446.798,262.939C446.798,259.948 444.364,257.514 441.373,257.514L440.398,257.514L440.943,256.723C441.611,255.793 441.964,254.701 441.964,253.566C441.964,250.574 439.53,248.141 436.539,248.141C436.322,248.141 436.11,248.158 435.901,248.182L434.951,248.294L435.401,247.45C435.818,246.669 436.039,245.788 436.039,244.901C436.039,241.91 433.605,239.476 430.614,239.476C430.085,239.476 429.556,239.554 429.045,239.709L427.981,240.03L428.447,239.021C428.781,238.298 428.95,237.535 428.95,236.752C428.95,233.761 426.516,231.327 423.525,231.327C422.439,231.327 421.391,231.647 420.494,232.252L419.348,233.026L419.734,231.698C419.879,231.198 419.954,230.687 419.954,230.179C419.954,227.188 417.52,224.754 414.529,224.754C413.139,224.754 411.816,225.283 410.801,226.245L410.1,226.91L409.962,225.954C409.581,223.303 407.277,221.304 404.6,221.304C402.647,221.304 400.835,222.365 399.873,224.073L399.058,225.521L398.939,223.863C398.738,221.041 396.364,218.83 393.535,218.83C390.678,218.83 388.304,221.041 388.102,223.863L387.983,225.521L387.168,224.073C386.206,222.365 384.396,221.304 382.442,221.304C379.765,221.304 377.46,223.303 377.079,225.954L376.941,226.91L376.24,226.245C375.225,225.283 373.902,224.754 372.512,224.754C369.521,224.754 367.087,227.188 367.087,230.179C367.087,230.684 367.161,231.195 367.308,231.698L367.694,233.026L366.548,232.252C365.651,231.647 364.603,231.327 363.517,231.327C360.525,231.327 358.091,233.761 358.091,236.752C358.091,237.535 358.26,238.298 358.594,239.021L359.06,240.03L357.995,239.709C357.483,239.555 356.955,239.476 356.427,239.476C353.435,239.476 351.001,241.91 351.001,244.901C351.001,245.788 351.222,246.669 351.639,247.45L352.089,248.294L351.139,248.182C350.93,248.158 350.718,248.141 350.501,248.141C347.51,248.141 345.076,250.575 345.076,253.566C345.076,254.702 345.428,255.794 346.096,256.723L346.664,257.515L345.687,257.515C342.673,257.515 340.241,259.949 340.241,262.939C340.241,264.459 340.891,265.921 342.025,266.951L342.732,267.594L341.801,267.809C339.328,268.38 337.602,270.552 337.602,273.089C337.602,275.88 339.779,278.252 342.558,278.49L343.635,278.582L342.867,279.344C341.829,280.372 341.257,281.741 341.257,283.199C341.257,286.191 343.691,288.625 346.682,288.625C347.351,288.625 348.013,288.499 348.651,288.25L349.861,287.777L349.28,288.939C348.898,289.703 348.705,290.516 348.705,291.358C348.705,294.35 351.139,296.784 354.13,296.784C355.273,296.784 356.37,296.427 357.304,295.751L358.125,295.156L358.097,296.171C358.091,299.249 360.525,301.683 363.517,301.683C365.231,301.683 366.81,300.893 367.847,299.515L368.933,298.074L368.744,299.869C368.724,300.056 368.714,300.246 368.714,300.438C368.714,303.429 371.148,305.863 374.139,305.863C375.834,305.863 377.402,305.087 378.441,303.733L379.066,302.919L379.322,303.914C379.938,306.312 382.097,307.987 384.57,307.987C385.907,307.987 387.195,307.489 388.198,306.586L388.632,306.192Z" style="fill:rgb(21,47,71);fill-rule:nonzero;" />
                    </svg:g>
                    <svg:g opacity="0.25">
                        <svg:path d="M348.415,289.829C367.934,289.064 383.544,271.622 383.544,250.205C383.544,240.575 380.386,231.749 375.139,224.878C374.347,224.483 373.457,224.256 372.512,224.256C369.24,224.256 366.587,226.909 366.587,230.181C366.587,230.757 366.673,231.312 366.827,231.839C365.882,231.201 364.743,230.828 363.517,230.828C360.245,230.828 357.592,233.481 357.592,236.753C357.592,237.639 357.792,238.476 358.14,239.231C357.597,239.067 357.023,238.977 356.427,238.977C353.155,238.977 350.502,241.63 350.502,244.902C350.502,245.909 350.755,246.856 351.198,247.686C350.969,247.659 350.738,247.642 350.502,247.642C347.23,247.642 344.577,250.295 344.577,253.567C344.577,254.855 344.993,256.044 345.691,257.016C345.683,257.016 345.676,257.015 345.668,257.015C342.396,257.015 339.743,259.668 339.743,262.94C339.743,264.679 340.497,266.239 341.691,267.322C339.064,267.93 337.104,270.278 337.104,273.089C337.104,276.189 339.485,278.728 342.517,278.988C341.431,280.062 340.758,281.552 340.758,283.199C340.758,286.471 343.411,289.124 346.683,289.124C347.442,289.124 348.166,288.976 348.833,288.716C348.656,289.069 348.52,289.442 348.415,289.829Z" style="fill:white;fill-rule:nonzero;" />
                    </svg:g>
                </svg:g>
                <svg:g>
                    <svg:g>
                        <svg:g>
                            <svg:path d="M427.547,223.397C412.931,207.868 393.519,209.847 393.519,209.847C393.519,209.847 374.107,207.868 359.491,223.397C344.875,238.926 343.809,248.464 334.827,250.775C334.827,250.775 344.407,262.783 359.034,255.907C373.661,249.031 379.132,236.187 393.519,236.187C407.906,236.187 413.377,249.031 428.004,255.907C442.631,262.784 452.211,250.775 452.211,250.775C443.229,248.464 442.163,238.926 427.547,223.397Z" style="fill:rgb(255,183,160);fill-rule:nonzero;" />
                        </svg:g>
                        <svg:g>
                            <svg:g>
                                <svg:clipPath id="_clip60">
                                    <svg:path d="M427.547,223.397C412.931,207.868 393.519,209.847 393.519,209.847C393.519,209.847 374.107,207.868 359.491,223.397C344.875,238.926 343.809,248.464 334.827,250.775C334.827,250.775 344.407,262.783 359.034,255.907C373.661,249.031 379.132,236.187 393.519,236.187C407.906,236.187 413.377,249.031 428.004,255.907C442.631,262.784 452.211,250.775 452.211,250.775C443.229,248.464 442.163,238.926 427.547,223.397Z" />
                                </svg:clipPath>
                                <svg:g clip-path="url(#_clip60)">
                                    <svg:g>
                                        <svg:g>
                                            <svg:path d="M372.498,199.434C368.186,204.832 364.559,210.869 361.346,216.967C354.779,229.432 349.964,243.154 349.215,257.313C348.743,266.243 350.062,275.264 353.463,283.554C353.829,284.447 354.657,285.091 355.67,284.807C356.516,284.57 357.294,283.505 356.923,282.6C351.117,268.446 351.889,252.935 356.25,238.502C359.582,227.476 364.811,217.019 371.167,207.432C372.124,205.988 373.11,204.563 374.136,203.167C374.417,202.784 374.706,202.407 374.991,202.026C375.138,201.831 374.668,202.441 374.953,202.076C374.981,202.041 375.008,202.005 375.036,201.97C375.645,201.207 375.767,200.18 375.036,199.432C374.415,198.8 373.101,198.678 372.498,199.434Z" style="fill:rgb(255,213,202);fill-rule:nonzero;" />
                                        </svg:g>
                                    </svg:g>
                                    <svg:g>
                                        <svg:g>
                                            <svg:path d="M389.135,194.67C384.823,200.068 381.196,206.105 377.983,212.203C371.416,224.668 366.601,238.39 365.852,252.549C365.38,261.479 366.699,270.5 370.1,278.79C370.466,279.683 371.294,280.327 372.307,280.043C373.153,279.806 373.932,278.741 373.56,277.836C367.754,263.682 368.526,248.171 372.887,233.738C376.218,222.712 381.448,212.255 387.803,202.668C388.76,201.224 389.746,199.799 390.772,198.403C391.053,198.02 391.342,197.643 391.627,197.262C391.773,197.067 391.304,197.677 391.589,197.312C391.617,197.277 391.645,197.241 391.672,197.206C392.281,196.443 392.403,195.416 391.672,194.668C391.052,194.036 389.738,193.914 389.135,194.67Z" style="fill:rgb(255,213,202);fill-rule:nonzero;" />
                                        </svg:g>
                                    </svg:g>
                                    <svg:g>
                                        <svg:g>
                                            <svg:path d="M408.987,187.528C404.675,192.926 401.048,198.963 397.835,205.061C391.268,217.526 386.453,231.248 385.704,245.407C385.232,254.337 386.551,263.358 389.952,271.648C390.318,272.541 391.146,273.185 392.159,272.901C393.005,272.664 393.783,271.599 393.412,270.694C387.606,256.54 388.378,241.029 392.739,226.596C396.07,215.57 401.3,205.113 407.655,195.526C408.612,194.082 409.598,192.657 410.624,191.261C410.905,190.878 411.194,190.501 411.479,190.121C411.625,189.926 411.156,190.535 411.441,190.171C411.469,190.136 411.497,190.1 411.524,190.065C412.133,189.302 412.255,188.275 411.524,187.527C410.905,186.894 409.591,186.772 408.987,187.528Z" style="fill:rgb(255,213,202);fill-rule:nonzero;" />
                                        </svg:g>
                                    </svg:g>
                                    <svg:g>
                                        <svg:g>
                                            <svg:path d="M424.817,194.67C420.505,200.068 416.878,206.105 413.665,212.203C407.098,224.668 402.283,238.39 401.534,252.549C401.062,261.479 402.381,270.5 405.782,278.79C406.148,279.683 406.976,280.327 407.989,280.043C408.835,279.806 409.613,278.741 409.242,277.836C403.436,263.682 404.208,248.171 408.569,233.738C411.9,222.712 417.13,212.255 423.486,202.668C424.443,201.224 425.429,199.799 426.455,198.403C426.737,198.02 427.025,197.643 427.31,197.262C427.457,197.067 426.987,197.677 427.272,197.312C427.3,197.277 427.327,197.241 427.355,197.206C427.964,196.443 428.086,195.416 427.355,194.668C426.734,194.036 425.42,193.914 424.817,194.67Z" style="fill:rgb(255,213,202);fill-rule:nonzero;" />
                                        </svg:g>
                                    </svg:g>
                                    <svg:g>
                                        <svg:g>
                                            <svg:path d="M440.463,202.456C436.151,207.854 432.524,213.891 429.311,219.989C422.744,232.454 417.929,246.176 417.179,260.335C416.707,269.265 418.026,278.286 421.427,286.576C421.793,287.469 422.621,288.113 423.634,287.829C424.481,287.592 425.259,286.527 424.887,285.622C419.081,271.468 419.853,255.958 424.214,241.524C427.545,230.498 432.775,220.041 439.131,210.454C440.088,209.01 441.074,207.585 442.1,206.189C442.381,205.806 442.67,205.429 442.955,205.048C443.102,204.853 442.632,205.463 442.917,205.098C442.945,205.063 442.972,205.027 443,204.992C443.609,204.229 443.731,203.202 443,202.455C442.381,201.822 441.067,201.7 440.463,202.456Z" style="fill:rgb(255,213,202);fill-rule:nonzero;" />
                                        </svg:g>
                                    </svg:g>
                                    <svg:g>
                                        <svg:g>
                                            <svg:path d="M454.709,210.622C450.397,216.02 446.77,222.057 443.557,228.155C436.99,240.62 432.175,254.342 431.425,268.501C430.953,277.431 432.272,286.452 435.673,294.742C436.039,295.635 436.867,296.279 437.88,295.995C438.727,295.758 439.504,294.693 439.133,293.788C433.327,279.634 434.099,264.123 438.46,249.69C441.791,238.664 447.021,228.207 453.377,218.62C454.334,217.176 455.32,215.751 456.346,214.355C456.627,213.972 456.916,213.595 457.201,213.214C457.348,213.019 456.878,213.629 457.163,213.264C457.191,213.229 457.218,213.193 457.246,213.158C457.855,212.395 457.977,211.368 457.246,210.621C456.627,209.988 455.313,209.866 454.709,210.622Z" style="fill:rgb(255,213,202);fill-rule:nonzero;" />
                                        </svg:g>
                                    </svg:g>
                                </svg:g>
                            </svg:g>
                        </svg:g>
                    </svg:g>
                    <svg:g opacity="0.39">
                        <svg:path d="M393.519,225.279C393.519,225.279 374.107,223.3 359.491,238.829C352.246,246.527 348.332,252.75 345.131,257.352C348.927,258.406 353.635,258.444 359.034,255.906C373.661,249.03 379.132,236.186 393.519,236.186C407.906,236.186 413.377,249.03 428.004,255.906C433.403,258.444 438.111,258.406 441.907,257.352C438.706,252.749 434.792,246.526 427.547,238.829C412.932,223.3 393.519,225.279 393.519,225.279Z" style="fill:rgb(211,161,161);fill-rule:nonzero;" />
                    </svg:g>
                </svg:g>
                <svg:g>
                    <svg:path d="M350.123,258.517C340.506,258.517 334.513,251.183 334.437,251.087L333.956,250.483L334.703,250.291C339.696,249.007 342.129,245.444 346.161,239.541C349.165,235.142 352.905,229.667 359.128,223.055C373.378,207.914 392.397,209.251 393.52,209.346C394.642,209.252 413.66,207.913 427.913,223.055C434.135,229.666 437.874,235.141 440.879,239.54C444.91,245.443 447.345,249.007 452.338,250.291L453.085,250.483L452.603,251.087C452.505,251.211 442.603,263.322 427.792,256.358C421.849,253.564 417.502,249.88 413.299,246.317C407.202,241.149 401.937,236.686 393.521,236.686C385.105,236.686 379.838,241.149 373.742,246.317C369.539,249.88 365.192,253.564 359.249,256.358C355.943,257.912 352.884,258.517 350.123,258.517ZM393.519,235.686C402.302,235.686 407.958,240.48 413.944,245.555C418.097,249.075 422.392,252.716 428.216,255.454C440.625,261.289 449.193,253.34 451.319,251.039C446.466,249.495 443.876,245.703 440.052,240.103C437.068,235.732 433.353,230.293 427.184,223.739C412.914,208.577 393.76,210.324 393.571,210.344L393.52,210.349L393.469,210.344C393.279,210.322 374.123,208.578 359.856,223.739C353.686,230.294 349.971,235.733 346.986,240.104C343.163,245.703 340.572,249.495 335.72,251.038C337.844,253.341 346.41,261.287 358.822,255.454C364.645,252.716 368.941,249.075 373.094,245.555C379.081,240.48 384.736,235.686 393.519,235.686Z" style="fill:rgb(21,47,71);fill-rule:nonzero;" />
                </svg:g>
                <svg:g>
                    <svg:g>
                        <svg:g>
                            <svg:g>
                                <svg:path d="M346.345,271.741C346.493,273.269 347.042,274.806 347.607,276.219C349.114,279.987 351.491,283.371 354.274,286.304C354.755,286.811 355.575,286.096 355.093,285.588C352.367,282.716 350.058,279.428 348.582,275.738C348.05,274.407 347.549,272.962 347.41,271.523C347.342,270.826 346.278,271.051 346.345,271.741Z" style="fill:white;fill-rule:nonzero;" />
                            </svg:g>
                        </svg:g>
                        <svg:g>
                            <svg:path d="M356.594,287.134C356.84,287.296 356.908,287.627 356.746,287.872C356.584,288.118 356.254,288.186 356.008,288.024C355.762,287.862 355.694,287.531 355.856,287.286C356.018,287.04 356.348,286.972 356.594,287.134Z" style="fill:white;fill-rule:nonzero;" />
                        </svg:g>
                    </svg:g>
                    <svg:g>
                        <svg:g>
                            <svg:g>
                                <svg:path d="M379.29,215.652C377.756,215.711 376.19,216.169 374.746,216.65C370.896,217.934 367.379,220.109 364.289,222.716C363.755,223.167 364.421,224.027 364.956,223.575C367.983,221.022 371.4,218.908 375.17,217.651C376.529,217.198 378.002,216.783 379.446,216.727C380.145,216.701 379.983,215.625 379.29,215.652Z" style="fill:white;fill-rule:nonzero;" />
                            </svg:g>
                        </svg:g>
                        <svg:g>
                            <svg:path d="M363.324,224.983C363.148,225.219 362.814,225.267 362.578,225.091C362.342,224.915 362.294,224.581 362.47,224.345C362.646,224.109 362.98,224.061 363.216,224.237C363.452,224.413 363.5,224.747 363.324,224.983Z" style="fill:white;fill-rule:nonzero;" />
                        </svg:g>
                    </svg:g>
                </svg:g>
            </svg:g>
            <svg:g>
                <svg:g>
                    <svg:g>
                        <svg:g>
                            <svg:g>
                                <svg:path d="M382.449,266.971C382.449,270.233 380.683,272.877 378.504,272.877C376.325,272.877 374.559,270.233 374.559,266.971C374.559,263.709 376.325,261.065 378.504,261.065C380.683,261.065 382.449,263.71 382.449,266.971Z" style="fill:rgb(21,47,71);fill-rule:nonzero;" />
                            </svg:g>
                            <svg:g>
                                <svg:g>
                                    <svg:circle cx="377.672" cy="264.549" r="1.638" style="fill:white;" />
                                </svg:g>
                                <svg:g>
                                    <svg:path d="M380.975,267.156C380.975,267.751 380.492,268.234 379.897,268.234C379.302,268.234 378.819,267.751 378.819,267.156C378.819,266.561 379.302,266.078 379.897,266.078C380.492,266.078 380.975,266.561 380.975,267.156Z" style="fill:white;fill-rule:nonzero;" />
                                </svg:g>
                            </svg:g>
                        </svg:g>
                        <svg:g>
                            <svg:g>
                                <svg:path d="M412.479,266.971C412.479,270.233 410.713,272.877 408.534,272.877C406.355,272.877 404.589,270.233 404.589,266.971C404.589,263.709 406.355,261.065 408.534,261.065C410.713,261.065 412.479,263.71 412.479,266.971Z" style="fill:rgb(21,47,71);fill-rule:nonzero;" />
                            </svg:g>
                            <svg:g>
                                <svg:g>
                                    <svg:path d="M409.339,264.549C409.339,265.454 408.606,266.187 407.701,266.187C406.796,266.187 406.063,265.454 406.063,264.549C406.063,263.644 406.796,262.911 407.701,262.911C408.606,262.911 409.339,263.644 409.339,264.549Z" style="fill:white;fill-rule:nonzero;" />
                                </svg:g>
                                <svg:g>
                                    <svg:path d="M411.005,267.156C411.005,267.751 410.522,268.234 409.927,268.234C409.332,268.234 408.849,267.751 408.849,267.156C408.849,266.561 409.331,266.078 409.927,266.078C410.522,266.078 411.005,266.561 411.005,267.156Z" style="fill:white;fill-rule:nonzero;" />
                                </svg:g>
                            </svg:g>
                        </svg:g>
                    </svg:g>
                    <svg:g>
                        <svg:g>
                            <svg:path d="M388.823,265.416C388.833,266.609 388.955,267.808 389.126,268.988C389.399,270.874 389.836,272.968 391.059,274.488C392.232,275.945 394.196,276.152 395.617,274.918C397.073,273.655 397.692,271.495 398.108,269.687C398.429,268.289 398.657,266.848 398.748,265.416C398.797,264.647 397.6,264.65 397.552,265.416C397.485,266.477 397.346,267.413 397.147,268.456C396.82,270.169 396.382,272.06 395.319,273.484C394.909,274.032 394.387,274.475 393.722,274.556C393.125,274.629 392.546,274.351 392.1,273.868C390.968,272.644 390.607,270.693 390.348,269.104C390.15,267.89 390.031,266.647 390.021,265.415C390.012,264.647 388.816,264.645 388.823,265.416Z" style="fill:rgb(21,47,71);fill-rule:nonzero;" />
                        </svg:g>
                    </svg:g>
                </svg:g>
                <svg:g>
                    <svg:g>
                        <svg:path d="M379.733,273.729C379.429,274.527 377.332,274.467 375.049,273.596C372.766,272.725 371.163,271.372 371.467,270.575C371.771,269.777 373.868,269.837 376.151,270.708C378.434,271.578 380.037,272.931 379.733,273.729Z" style="fill:rgb(255,129,206);fill-rule:nonzero;" />
                    </svg:g>
                    <svg:g>
                        <svg:path d="M407.305,273.729C407.609,274.527 409.706,274.467 411.989,273.596C414.272,272.725 415.875,271.372 415.571,270.575C415.267,269.777 413.17,269.837 410.887,270.708C408.605,271.578 407.001,272.931 407.305,273.729Z" style="fill:rgb(255,129,206);fill-rule:nonzero;" />
                    </svg:g>
                </svg:g>
            </svg:g>
        </svg:g>
    </g>
</svg>