<?xml version='1.0' encoding='UTF-8'?>
<svg xmlns="http://www.w3.org/2000/svg" xmlns:xlink="http://www.w3.org/1999/xlink" xmlns:svg="http://www.w3.org/2000/svg" xmlns:serif="http://www.serif.com/" height="100%" style="fill-rule:evenodd;clip-rule:evenodd;" version="1.1" viewBox="730.0 620.0 100.0 100.0" width="100%">
    <g>
        <svg:rect x="730" y="620" width="100" height="100" style="fill:rgb(115,252,214);" />
        <svg:g transform="matrix(0.729276,0,0,0.729276,491.096,374.518)">
            <svg:g>
                <svg:g>
                    <svg:g>
                        <svg:g>
                            <svg:g>
                                <svg:g>
                                    <svg:g>
                                        <svg:circle cx="364.132" cy="359.487" r="13.982" style="fill:rgb(255,201,226);" />
                                    </svg:g>
                                    <svg:g>
                                        <svg:circle cx="364.883" cy="359.487" r="6.563" style="fill:rgb(244,144,199);" />
                                    </svg:g>
                                </svg:g>
                                <svg:g opacity="0.2">
                                    <svg:path d="M364.132,345.505C361.485,345.505 359.019,346.254 356.909,347.532C357.902,347.308 358.931,347.18 359.991,347.18C367.713,347.18 373.973,353.44 373.973,361.162C373.973,366.238 371.26,370.668 367.213,373.118C373.451,371.713 378.114,366.15 378.114,359.488C378.115,351.765 371.855,345.505 364.132,345.505Z" style="fill:rgb(211,161,161);fill-rule:nonzero;" />
                                </svg:g>
                            </svg:g>
                            <svg:g>
                                <svg:path d="M364.133,373.97C356.148,373.97 349.651,367.473 349.651,359.488C349.651,351.503 356.148,345.006 364.133,345.006C372.118,345.006 378.615,351.503 378.615,359.488C378.615,367.473 372.118,373.97 364.133,373.97ZM364.133,346.005C356.698,346.005 350.651,352.053 350.651,359.487C350.651,366.921 356.699,372.969 364.133,372.969C371.567,372.969 377.615,366.921 377.615,359.487C377.615,352.053 371.567,346.005 364.133,346.005Z" style="fill:rgb(21,47,71);fill-rule:nonzero;" />
                            </svg:g>
                        </svg:g>
                        <svg:g>
                            <svg:g>
                                <svg:g>
                                    <svg:g>
                                        <svg:circle cx="422.906" cy="359.487" r="13.982" style="fill:rgb(255,201,226);" />
                                    </svg:g>
                                    <svg:g>
                                        <svg:circle cx="422.155" cy="359.487" r="6.563" style="fill:rgb(244,144,199);" />
                                    </svg:g>
                                </svg:g>
                                <svg:g opacity="0.2">
                                    <svg:path d="M422.906,345.505C425.553,345.505 428.019,346.254 430.129,347.532C429.136,347.308 428.107,347.18 427.047,347.18C419.325,347.18 413.065,353.44 413.065,361.162C413.065,366.238 415.778,370.668 419.825,373.118C413.587,371.713 408.924,366.15 408.924,359.488C408.923,351.765 415.184,345.505 422.906,345.505Z" style="fill:rgb(211,161,161);fill-rule:nonzero;" />
                                </svg:g>
                            </svg:g>
                            <svg:g>
                                <svg:path d="M422.906,373.97C414.921,373.97 408.423,367.473 408.423,359.488C408.423,351.503 414.92,345.006 422.906,345.006C430.891,345.006 437.388,351.503 437.388,359.488C437.389,367.473 430.892,373.97 422.906,373.97ZM422.906,346.005C415.471,346.005 409.423,352.053 409.423,359.487C409.423,366.921 415.471,372.969 422.906,372.969C430.341,372.969 436.388,366.921 436.388,359.487C436.388,352.053 430.341,346.005 422.906,346.005Z" style="fill:rgb(21,47,71);fill-rule:nonzero;" />
                            </svg:g>
                        </svg:g>
                    </svg:g>
                    <svg:g>
                        <svg:g>
                            <svg:g>
                                <svg:path d="M393.541,359.307C364.209,359.307 340.431,383.085 340.431,412.417C340.431,441.749 364.209,465.527 393.541,465.527C422.873,465.527 446.651,441.749 446.651,412.417C446.651,383.085 422.873,359.307 393.541,359.307ZM393.541,434.349C381.428,434.349 371.609,424.53 371.609,412.417C371.609,400.305 381.428,390.485 393.541,390.485C405.653,390.485 415.473,400.304 415.473,412.417C415.473,424.53 405.653,434.349 393.541,434.349Z" style="fill:rgb(255,183,160);fill-rule:nonzero;" />
                            </svg:g>
                            <svg:g opacity="0.2">
                                <svg:path d="M393.541,382.086C376.79,382.086 363.21,395.666 363.21,412.417C363.21,429.168 376.79,442.748 393.541,442.748C410.292,442.748 423.872,429.168 423.872,412.417C423.872,395.666 410.292,382.086 393.541,382.086ZM393.541,434.349C381.428,434.349 371.609,424.53 371.609,412.417C371.609,400.305 381.428,390.485 393.541,390.485C405.653,390.485 415.473,400.304 415.473,412.417C415.473,424.53 405.653,434.349 393.541,434.349Z" style="fill:rgb(211,161,161);fill-rule:nonzero;" />
                            </svg:g>
                            <svg:g>
                                <svg:path d="M393.541,466.026C363.98,466.026 339.932,441.977 339.932,412.417C339.932,382.856 363.981,358.808 393.541,358.808C423.102,358.808 447.15,382.857 447.15,412.417C447.15,441.978 423.102,466.026 393.541,466.026ZM393.541,359.808C364.532,359.808 340.932,383.409 340.932,412.417C340.932,441.426 364.533,465.026 393.541,465.026C422.549,465.026 446.15,441.425 446.15,412.417C446.15,383.408 422.55,359.808 393.541,359.808ZM393.541,434.849C381.172,434.849 371.109,424.786 371.109,412.417C371.109,400.048 381.172,389.985 393.541,389.985C405.91,389.985 415.973,400.048 415.973,412.417C415.973,424.786 405.91,434.849 393.541,434.849ZM393.541,390.985C381.724,390.985 372.109,400.599 372.109,412.417C372.109,424.234 381.723,433.849 393.541,433.849C405.358,433.849 414.973,424.235 414.973,412.417C414.973,400.6 405.358,390.985 393.541,390.985Z" style="fill:rgb(21,47,71);fill-rule:nonzero;" />
                            </svg:g>
                        </svg:g>
                        <svg:g>
                            <svg:g>
                                <svg:path d="M369.273,429.235C369.689,429.229 369.917,429.211 369.996,429.191C369.775,429.203 369.555,429.21 369.335,429.222C369.314,429.226 369.293,429.23 369.273,429.235Z" style="fill:rgb(255,201,226);fill-rule:nonzero;" />
                            </svg:g>
                            <svg:g>
                                <svg:path d="M444.23,384.428C437.856,372.848 427.559,363.915 415.412,358.836C408.514,355.952 401.01,354.545 393.54,354.522C379.133,354.567 365.202,359.984 354.527,369.648C343.965,379.209 337.498,392.495 335.962,406.597C334.86,416.707 336.724,426.824 340.748,436.111C341.418,437.658 343.334,438.404 344.88,438.481C348.754,438.675 352.559,437.291 355.971,435.594C357.918,434.626 359.77,433.469 361.683,432.434C363.172,431.628 364.701,430.927 366.214,430.175C366.22,430.172 366.224,430.171 366.231,430.168C366.533,430.049 366.836,429.935 367.142,429.828C367.687,429.638 368.239,429.468 368.8,429.333C368.957,429.295 369.115,429.265 369.272,429.234C369.188,429.235 369.118,429.237 369.017,429.237C369.123,429.237 369.229,429.226 369.335,429.221C369.411,429.206 369.486,429.189 369.562,429.173C369.838,429.115 370.145,429.152 369.996,429.19C370.13,429.183 370.264,429.17 370.399,429.174C370.57,429.178 370.739,429.191 370.909,429.202C371.211,429.261 371.514,429.315 371.814,429.389C372.828,429.638 373.82,429.969 374.81,430.299C376.619,430.903 378.731,430.019 379.839,428.584C380.905,427.205 381.345,424.785 380.213,423.27C379.231,421.956 378.486,420.569 377.726,419.124C377.724,419.12 377.723,419.119 377.721,419.115C377.683,419.017 377.644,418.92 377.607,418.822C377.446,418.392 377.298,417.957 377.164,417.517C376.913,416.691 376.713,415.851 376.562,415.001C376.543,414.895 376.527,414.79 376.51,414.684L376.51,414.673C376.491,414.265 376.438,413.858 376.419,413.45C376.382,412.661 376.387,411.87 376.434,411.081C376.454,410.751 376.487,410.423 376.516,410.094C376.518,410.084 376.519,410.078 376.521,410.067C376.649,409.377 376.784,408.692 376.965,408.014C377.144,407.345 377.354,406.685 377.595,406.036C377.65,405.888 377.716,405.742 377.767,405.592C377.808,405.471 377.818,405.436 377.814,405.445C377.921,405.249 378.032,405.064 378.061,405.005C378.343,404.443 378.649,403.894 378.978,403.359C379.136,403.102 379.836,401.706 380.122,401.678C380.156,401.675 379.493,402.429 379.854,402.031C379.958,401.916 380.051,401.788 380.152,401.67C380.353,401.432 380.559,401.197 380.77,400.968C381.227,400.47 381.707,399.994 382.208,399.541C382.439,399.331 382.678,399.131 382.915,398.928C382.958,398.891 382.991,398.862 383.023,398.834C383.034,398.826 383.041,398.822 383.054,398.813C383.613,398.426 384.168,398.041 384.752,397.693C385.292,397.371 385.846,397.073 386.413,396.799C386.454,396.779 386.545,396.736 386.647,396.687C386.656,396.695 387.307,396.419 387.46,396.364C388.734,395.911 390.029,395.629 391.353,395.373C391.362,395.371 391.362,395.371 391.37,395.37C391.469,395.365 391.545,395.362 391.545,395.362C391.875,395.332 392.206,395.31 392.537,395.295C393.261,395.262 393.987,395.266 394.711,395.304C395.042,395.321 395.372,395.346 395.701,395.378C395.765,395.384 395.834,395.396 395.903,395.407C396.535,395.527 397.165,395.64 397.789,395.802C398.408,395.963 399.02,396.15 399.623,396.365C399.677,396.384 399.82,396.422 399.976,396.468C399.996,396.479 400.032,396.498 400.098,396.533C400.284,396.63 400.481,396.709 400.67,396.8C401.897,397.394 402.987,398.139 404.119,398.884C404.139,398.903 404.16,398.923 404.168,398.93C404.405,399.133 404.643,399.334 404.875,399.543C405.376,399.996 405.856,400.473 406.313,400.97C406.524,401.2 406.73,401.434 406.931,401.672C407.031,401.791 407.124,401.918 407.229,402.033C407.589,402.431 406.927,401.677 406.961,401.68C407.247,401.708 407.947,403.104 408.104,403.361C408.516,404.03 408.892,404.722 409.229,405.432C409.273,405.525 409.316,405.62 409.359,405.715C409.468,406.024 409.594,406.327 409.699,406.638C409.939,407.347 410.143,408.068 410.31,408.797C410.394,409.166 410.468,409.537 410.533,409.909C410.546,409.982 410.556,410.041 410.566,410.091L410.566,410.094C410.634,410.869 410.688,411.64 410.688,412.418C410.688,412.982 410.667,413.546 410.624,414.109C410.609,414.311 410.58,414.514 410.568,414.716C410.373,415.648 410.203,416.571 409.927,417.486C409.791,417.938 409.632,418.381 409.476,418.827C409.473,418.837 409.465,418.858 409.455,418.884C409.38,419.043 409.17,419.528 409.17,419.529C408.132,421.73 408.405,424.861 410.887,426.076C411.624,426.437 412.338,426.832 413.025,427.283C413.099,427.331 413.561,427.654 413.727,427.765C413.756,427.788 413.773,427.802 413.807,427.83C414.017,428.004 414.223,428.182 414.426,428.364C415.709,429.515 416.844,430.795 418.202,431.867C421.158,434.199 424.57,435.875 428.417,435.875C431.788,435.874 435.114,434.585 437.85,432.669C438.712,432.066 439.553,431.416 440.358,430.74C440.463,430.652 440.532,430.59 440.579,430.546C440.631,430.518 440.691,430.485 440.767,430.441C440.899,430.358 441.036,430.285 441.174,430.213C441.345,430.16 441.517,430.109 441.693,430.071C441.868,430.087 442.04,430.109 442.156,430.111C442.222,430.133 442.313,430.16 442.447,430.194C442.849,430.296 443.241,430.425 443.633,430.561C446.047,431.405 448.906,429.593 449.519,427.219C453.231,412.853 451.389,397.432 444.23,384.428ZM441.152,430.124C441.214,430.076 441.323,430.063 441.445,430.061C441.425,430.07 441.396,430.083 441.355,430.101C441.288,430.108 441.22,430.116 441.152,430.124ZM377.59,406.005C377.556,405.943 377.682,405.688 377.813,405.448C377.787,405.509 377.601,406.026 377.59,406.005ZM390.89,395.429C390.912,395.402 391.116,395.384 391.291,395.373C391.109,395.402 390.882,395.438 390.89,395.429ZM399.999,396.473C400.232,396.542 400.485,396.629 400.513,396.702C400.522,396.724 400.123,396.53 399.999,396.473ZM403.805,398.631C403.837,398.625 403.963,398.737 404.059,398.826C403.928,398.733 403.792,398.634 403.805,398.631ZM441.386,430.097C441.409,430.085 441.444,430.068 441.458,430.061C441.527,430.06 441.595,430.059 441.669,430.065C441.574,430.076 441.48,430.086 441.386,430.097Z" style="fill:rgb(255,201,226);fill-rule:nonzero;" />
                            </svg:g>
                        </svg:g>
                        <svg:g>
                            <svg:path d="M369.273,429.235C369.689,429.229 369.917,429.211 369.996,429.191C369.775,429.203 369.555,429.21 369.335,429.222C369.314,429.226 369.293,429.23 369.273,429.235Z" style="fill:rgb(255,201,226);fill-rule:nonzero;" />
                        </svg:g>
                        <svg:g opacity="0.2">
                            <svg:path d="M413.099,392.857C404.848,384.737 383.069,380.029 369.996,395.372C360.409,406.624 364.554,422.082 367.545,429.708C367.96,429.572 368.376,429.435 368.801,429.333C368.958,429.295 369.116,429.265 369.273,429.234C369.189,429.235 369.119,429.237 369.018,429.237C369.124,429.237 369.23,429.226 369.336,429.221C369.412,429.206 369.487,429.189 369.563,429.173C369.839,429.115 370.146,429.152 369.997,429.19C370.131,429.183 370.265,429.17 370.4,429.174C370.571,429.178 370.74,429.191 370.91,429.202C371.212,429.261 371.515,429.315 371.815,429.389C372.829,429.638 373.821,429.969 374.811,430.299C376.62,430.903 378.732,430.019 379.84,428.584C380.906,427.205 381.346,424.785 380.214,423.27C379.232,421.956 378.487,420.569 377.727,419.124C377.725,419.12 377.724,419.119 377.722,419.115C377.684,419.017 377.645,418.92 377.608,418.822C377.447,418.392 377.299,417.957 377.165,417.517C376.914,416.691 376.714,415.851 376.563,415.001C376.544,414.895 376.528,414.79 376.511,414.684L376.511,414.673C376.492,414.265 376.439,413.858 376.42,413.45C376.383,412.661 376.388,411.87 376.435,411.081C376.455,410.751 376.488,410.423 376.517,410.094C376.519,410.084 376.52,410.078 376.522,410.067C376.65,409.377 376.785,408.692 376.966,408.014C377.145,407.345 377.355,406.685 377.596,406.036C377.651,405.888 377.717,405.742 377.768,405.592C377.809,405.471 377.819,405.436 377.815,405.445C377.922,405.249 378.033,405.064 378.062,405.005C378.344,404.443 378.65,403.894 378.979,403.359C379.137,403.102 379.837,401.706 380.123,401.678C380.157,401.675 379.494,402.429 379.855,402.031C379.959,401.916 380.052,401.788 380.153,401.67C380.354,401.432 380.56,401.197 380.771,400.968C381.228,400.47 381.708,399.994 382.209,399.541C382.44,399.331 382.679,399.131 382.916,398.928C382.959,398.891 382.992,398.862 383.024,398.834C383.035,398.826 383.042,398.822 383.055,398.813C383.614,398.426 384.169,398.041 384.753,397.693C385.293,397.371 385.847,397.073 386.414,396.799C386.455,396.779 386.546,396.736 386.648,396.687C386.657,396.695 387.308,396.419 387.461,396.364C388.735,395.911 390.03,395.629 391.354,395.373C391.363,395.371 391.363,395.371 391.371,395.37C391.47,395.365 391.546,395.362 391.546,395.362C391.876,395.332 392.207,395.31 392.538,395.295C393.262,395.262 393.988,395.266 394.712,395.304C395.043,395.321 395.373,395.346 395.702,395.378C395.766,395.384 395.835,395.396 395.904,395.407C396.536,395.527 397.166,395.64 397.79,395.802C398.409,395.963 399.021,396.15 399.624,396.365C399.678,396.384 399.821,396.422 399.977,396.468C399.997,396.479 400.033,396.498 400.099,396.533C400.285,396.63 400.482,396.709 400.671,396.8C401.898,397.394 402.988,398.139 404.12,398.884C404.14,398.903 404.161,398.923 404.169,398.93C404.406,399.133 404.644,399.334 404.876,399.543C405.377,399.996 405.857,400.473 406.314,400.97C406.525,401.2 406.731,401.434 406.932,401.672C407.032,401.791 407.125,401.918 407.23,402.033C407.59,402.431 406.928,401.677 406.962,401.68C407.248,401.708 407.948,403.104 408.105,403.361C408.517,404.03 408.893,404.722 409.23,405.432C409.274,405.525 409.317,405.62 409.36,405.715C409.469,406.024 409.595,406.327 409.7,406.638C409.94,407.347 410.144,408.068 410.311,408.797C410.395,409.166 410.469,409.537 410.534,409.909C410.547,409.982 410.557,410.041 410.567,410.091L410.567,410.094C410.635,410.869 410.689,411.64 410.689,412.418C410.689,412.982 410.668,413.546 410.625,414.109C410.61,414.311 410.581,414.514 410.569,414.716C410.374,415.648 410.204,416.571 409.928,417.486C409.792,417.938 409.633,418.381 409.477,418.827C409.474,418.837 409.466,418.858 409.456,418.884C409.381,419.043 409.171,419.528 409.171,419.529C408.133,421.73 408.406,424.861 410.888,426.076C411.625,426.437 412.339,426.832 413.026,427.283C413.1,427.331 413.562,427.654 413.728,427.765C413.757,427.788 413.774,427.802 413.808,427.83C414.018,428.004 414.224,428.182 414.427,428.364C414.817,428.714 415.193,429.076 415.566,429.44C421.49,416.992 419.873,399.523 413.099,392.857ZM377.59,406.005C377.556,405.943 377.682,405.688 377.813,405.448C377.787,405.509 377.601,406.026 377.59,406.005ZM390.89,395.429C390.912,395.402 391.116,395.384 391.291,395.373C391.109,395.402 390.882,395.438 390.89,395.429ZM399.999,396.473C400.232,396.542 400.485,396.629 400.513,396.702C400.522,396.724 400.123,396.53 399.999,396.473ZM403.805,398.631C403.837,398.625 403.963,398.737 404.059,398.826C403.928,398.733 403.792,398.634 403.805,398.631Z" style="fill:rgb(211,161,161);fill-rule:nonzero;" />
                        </svg:g>
                        <svg:g>
                            <svg:g>
                                <svg:path d="M348.797,398.422L345.84,400.694C345.377,401.05 344.707,400.962 344.352,400.499C343.996,400.036 344.084,399.366 344.547,399.011L347.504,396.739C347.967,396.383 348.637,396.471 348.992,396.934C349.348,397.396 349.26,398.066 348.797,398.422Z" style="fill:rgb(255,183,160);fill-rule:nonzero;" />
                            </svg:g>
                            <svg:g>
                                <svg:path d="M356.591,408.808L353.362,406.944C352.856,406.652 352.681,406 352.973,405.494C353.265,404.988 353.918,404.814 354.423,405.106L357.652,406.97C358.158,407.262 358.332,407.914 358.04,408.42C357.749,408.925 357.097,409.1 356.591,408.808Z" style="fill:rgb(248,229,229);fill-rule:nonzero;" />
                            </svg:g>
                            <svg:g>
                                <svg:path d="M344.457,415.23L340.797,414.521C340.224,414.41 339.846,413.85 339.957,413.277C340.068,412.704 340.628,412.326 341.201,412.437L344.861,413.146C345.434,413.257 345.812,413.817 345.701,414.39C345.59,414.963 345.031,415.341 344.457,415.23Z" style="fill:rgb(255,129,206);fill-rule:nonzero;" />
                            </svg:g>
                            <svg:g>
                                <svg:path d="M359.217,417.069L356.26,419.341C355.797,419.697 355.127,419.609 354.772,419.146C354.416,418.683 354.504,418.013 354.967,417.658L357.924,415.387C358.387,415.031 359.057,415.119 359.413,415.582C359.767,416.043 359.68,416.713 359.217,417.069Z" style="fill:rgb(255,183,160);fill-rule:nonzero;" />
                            </svg:g>
                            <svg:g>
                                <svg:path d="M350.956,429.093L347.727,427.229C347.221,426.937 347.047,426.285 347.339,425.779C347.631,425.273 348.283,425.099 348.789,425.391L352.018,427.255C352.524,427.547 352.699,428.199 352.407,428.705C352.114,429.21 351.462,429.385 350.956,429.093Z" style="fill:rgb(248,229,229);fill-rule:nonzero;" />
                            </svg:g>
                            <svg:g>
                                <svg:path d="M372.311,399.483L369.354,401.755C368.891,402.111 368.221,402.023 367.866,401.56C367.51,401.097 367.598,400.427 368.061,400.072L371.018,397.801C371.481,397.445 372.151,397.533 372.506,397.996C372.862,398.458 372.774,399.128 372.311,399.483Z" style="fill:white;fill-rule:nonzero;" />
                            </svg:g>
                            <svg:g>
                                <svg:path d="M368.696,421.453L365.739,423.725C365.276,424.081 364.606,423.993 364.251,423.53C363.895,423.067 363.983,422.397 364.446,422.042L367.403,419.77C367.866,419.414 368.536,419.502 368.891,419.965C369.247,420.428 369.159,421.098 368.696,421.453Z" style="fill:white;fill-rule:nonzero;" />
                            </svg:g>
                            <svg:g>
                                <svg:path d="M355.487,386.56L352.53,388.832C352.067,389.188 351.397,389.1 351.042,388.637C350.686,388.174 350.774,387.504 351.237,387.149L354.194,384.878C354.657,384.522 355.327,384.61 355.682,385.073C356.038,385.535 355.95,386.205 355.487,386.56Z" style="fill:rgb(255,129,206);fill-rule:nonzero;" />
                            </svg:g>
                            <svg:g>
                                <svg:path d="M372.031,411.595L368.802,409.731C368.296,409.439 368.122,408.787 368.413,408.281C368.705,407.775 369.357,407.601 369.863,407.893L373.092,409.757C373.598,410.049 373.772,410.701 373.48,411.207C373.189,411.712 372.536,411.887 372.031,411.595Z" style="fill:rgb(255,129,206);fill-rule:nonzero;" />
                            </svg:g>
                            <svg:g>
                                <svg:path d="M364.392,393.582L360.663,393.582C360.079,393.582 359.602,393.104 359.602,392.52C359.602,391.936 360.08,391.459 360.663,391.459L364.392,391.459C364.976,391.459 365.453,391.937 365.453,392.52C365.453,393.105 364.976,393.582 364.392,393.582Z" style="fill:rgb(255,183,160);fill-rule:nonzero;" />
                            </svg:g>
                            <svg:g>
                                <svg:path d="M361.174,378.599L357.945,376.735C357.439,376.443 357.265,375.791 357.556,375.285C357.848,374.779 358.5,374.605 359.006,374.897L362.235,376.761C362.741,377.053 362.915,377.705 362.623,378.211C362.332,378.716 361.679,378.891 361.174,378.599Z" style="fill:rgb(248,229,229);fill-rule:nonzero;" />
                            </svg:g>
                            <svg:g>
                                <svg:path d="M373.072,366.458L370.115,368.73C369.652,369.086 368.982,368.998 368.627,368.535C368.271,368.072 368.359,367.402 368.822,367.047L371.779,364.775C372.242,364.419 372.912,364.507 373.267,364.97C373.623,365.432 373.535,366.102 373.072,366.458Z" style="fill:rgb(255,183,160);fill-rule:nonzero;" />
                            </svg:g>
                            <svg:g>
                                <svg:path d="M439.101,398.422L442.058,400.694C442.521,401.05 443.191,400.962 443.546,400.499C443.902,400.036 443.814,399.366 443.351,399.011L440.394,396.739C439.931,396.383 439.261,396.471 438.906,396.934C438.55,397.396 438.638,398.066 439.101,398.422Z" style="fill:rgb(255,129,206);fill-rule:nonzero;" />
                            </svg:g>
                            <svg:g>
                                <svg:path d="M428.631,400.677L431.86,398.813C432.366,398.521 432.54,397.869 432.248,397.363C431.956,396.857 431.304,396.683 430.798,396.975L427.569,398.839C427.063,399.131 426.888,399.783 427.18,400.289C427.473,400.794 428.126,400.969 428.631,400.677Z" style="fill:white;fill-rule:nonzero;" />
                            </svg:g>
                            <svg:g>
                                <svg:path d="M443.44,415.23L447.1,414.521C447.673,414.41 448.051,413.85 447.94,413.277C447.829,412.704 447.269,412.326 446.696,412.437L443.036,413.146C442.463,413.257 442.085,413.817 442.196,414.39C442.307,414.963 442.867,415.341 443.44,415.23Z" style="fill:rgb(255,183,160);fill-rule:nonzero;" />
                            </svg:g>
                            <svg:g>
                                <svg:path d="M428.681,409.45L431.638,411.721C432.101,412.077 432.771,411.989 433.126,411.526C433.482,411.063 433.394,410.393 432.931,410.038L429.974,407.767C429.511,407.411 428.841,407.499 428.486,407.962C428.13,408.424 428.218,409.094 428.681,409.45Z" style="fill:rgb(255,183,160);fill-rule:nonzero;" />
                            </svg:g>
                            <svg:g>
                                <svg:path d="M434.266,425.592L437.495,423.728C438.001,423.436 438.175,422.784 437.884,422.278C437.592,421.772 436.94,421.598 436.434,421.889L433.205,423.753C432.699,424.045 432.525,424.697 432.817,425.203C433.108,425.709 433.761,425.884 434.266,425.592Z" style="fill:rgb(248,229,229);fill-rule:nonzero;" />
                            </svg:g>
                            <svg:g>
                                <svg:path d="M413.348,394.423L416.305,396.695C416.768,397.051 417.438,396.963 417.793,396.5C418.149,396.037 418.061,395.367 417.598,395.012L414.641,392.74C414.178,392.384 413.508,392.472 413.153,392.935C412.797,393.397 412.885,394.067 413.348,394.423Z" style="fill:rgb(255,129,206);fill-rule:nonzero;" />
                            </svg:g>
                            <svg:g>
                                <svg:path d="M421.208,422.435L424.868,423.144C425.441,423.255 426.001,422.877 426.112,422.304C426.223,421.731 425.845,421.171 425.272,421.06L421.612,420.351C421.039,420.24 420.479,420.618 420.368,421.191C420.257,421.764 420.635,422.324 421.208,422.435Z" style="fill:rgb(255,129,206);fill-rule:nonzero;" />
                            </svg:g>
                            <svg:g>
                                <svg:path d="M432.41,386.56L435.367,388.832C435.83,389.188 436.5,389.1 436.856,388.637C437.212,388.174 437.124,387.504 436.661,387.149L433.704,384.878C433.241,384.522 432.571,384.61 432.216,385.073C431.86,385.535 431.947,386.205 432.41,386.56Z" style="fill:rgb(248,229,229);fill-rule:nonzero;" />
                            </svg:g>
                            <svg:g>
                                <svg:path d="M415.867,411.595L419.096,409.731C419.602,409.439 419.776,408.787 419.485,408.281C419.193,407.775 418.541,407.601 418.035,407.893L414.806,409.757C414.3,410.049 414.126,410.701 414.417,411.207C414.709,411.712 415.361,411.887 415.867,411.595Z" style="fill:rgb(248,229,229);fill-rule:nonzero;" />
                            </svg:g>
                            <svg:g>
                                <svg:path d="M420.277,388.978L424.006,388.978C424.59,388.978 425.067,388.5 425.067,387.916C425.067,387.332 424.589,386.855 424.006,386.855L420.277,386.855C419.693,386.855 419.215,387.333 419.215,387.916C419.216,388.5 419.693,388.978 420.277,388.978Z" style="fill:rgb(255,183,160);fill-rule:nonzero;" />
                            </svg:g>
                            <svg:g>
                                <svg:path d="M427.795,378.893L429.659,375.664C429.951,375.158 429.776,374.506 429.27,374.214C428.764,373.922 428.112,374.097 427.82,374.603L425.956,377.832C425.664,378.338 425.839,378.99 426.344,379.282C426.85,379.573 427.503,379.399 427.795,378.893Z" style="fill:rgb(255,183,160);fill-rule:nonzero;" />
                            </svg:g>
                            <svg:g>
                                <svg:path d="M416.623,364.632L415.294,368.115C415.086,368.661 415.362,369.277 415.907,369.485C416.453,369.693 417.069,369.417 417.277,368.872L418.606,365.388C418.814,364.842 418.538,364.226 417.993,364.018C417.448,363.81 416.832,364.086 416.623,364.632Z" style="fill:rgb(255,129,206);fill-rule:nonzero;" />
                            </svg:g>
                            <svg:g>
                                <svg:path d="M399.43,365.253L402.659,363.389C403.165,363.097 403.339,362.445 403.048,361.939C402.756,361.433 402.104,361.258 401.598,361.55L398.369,363.414C397.863,363.706 397.689,364.358 397.981,364.864C398.271,365.37 398.924,365.545 399.43,365.253Z" style="fill:rgb(248,229,229);fill-rule:nonzero;" />
                            </svg:g>
                            <svg:g>
                                <svg:path d="M386.718,365.547L388.582,362.318C388.874,361.812 388.699,361.16 388.193,360.868C387.687,360.576 387.035,360.751 386.743,361.256L384.879,364.485C384.587,364.991 384.762,365.643 385.268,365.935C385.773,366.227 386.426,366.052 386.718,365.547Z" style="fill:white;fill-rule:nonzero;" />
                            </svg:g>
                        </svg:g>
                        <svg:g opacity="0.25">
                            <svg:path d="M335.962,406.597C335.316,412.524 335.696,418.453 336.927,424.216C338.679,424.81 340.505,425.133 342.385,425.133C355.39,425.133 365.933,410.091 365.933,391.537C365.933,381.653 362.94,372.767 358.178,366.619C356.927,367.579 355.704,368.583 354.528,369.648C343.965,379.21 337.499,392.496 335.962,406.597Z" style="fill:white;fill-rule:nonzero;" />
                        </svg:g>
                    </svg:g>
                </svg:g>
                <svg:g>
                    <svg:g>
                        <svg:g>
                            <svg:path d="M350.332,381.769C349.138,382.734 348.157,384.038 347.289,385.288C344.972,388.62 343.456,392.467 342.54,396.405C342.382,397.086 343.43,397.377 343.589,396.694C344.486,392.837 345.96,389.099 348.228,385.836C349.046,384.66 349.978,383.446 351.101,382.537C351.645,382.098 350.872,381.332 350.332,381.769Z" style="fill:white;fill-rule:nonzero;" />
                        </svg:g>
                    </svg:g>
                    <svg:g>
                        <svg:circle cx="342.59" cy="398.799" r="0.533" style="fill:white;" />
                    </svg:g>
                </svg:g>
                <svg:g>
                    <svg:g>
                        <svg:g>
                            <svg:path d="M360.258,446.833C361.078,448.131 362.259,449.257 363.399,450.265C366.439,452.953 370.084,454.907 373.889,456.275C374.547,456.511 374.958,455.504 374.298,455.267C370.572,453.927 367.03,452.029 364.054,449.396C362.981,448.447 361.883,447.38 361.112,446.158C360.737,445.567 359.887,446.247 360.258,446.833Z" style="fill:white;fill-rule:nonzero;" />
                        </svg:g>
                    </svg:g>
                    <svg:g>
                        <svg:path d="M376.334,455.974C376.626,456.008 376.835,456.273 376.801,456.565C376.767,456.857 376.502,457.067 376.21,457.032C375.918,456.998 375.708,456.733 375.743,456.441C375.777,456.149 376.041,455.94 376.334,455.974Z" style="fill:white;fill-rule:nonzero;" />
                    </svg:g>
                </svg:g>
            </svg:g>
            <svg:g>
                <svg:g>
                    <svg:g>
                        <svg:path d="M399.025,379.328C398.974,380.832 398.26,382.675 396.52,382.778C394.79,382.88 394.061,380.674 394.015,379.328C394.004,379.023 393.755,378.876 393.519,378.884C393.282,378.876 393.033,379.023 393.023,379.328C392.971,380.832 392.257,382.675 390.518,382.778C388.786,382.88 388.059,380.674 388.013,379.328C387.992,378.733 387.067,378.731 387.087,379.328C387.157,381.38 388.244,383.568 390.518,383.703C392.01,383.791 392.994,382.661 393.513,381.355C394.026,382.616 395.008,383.614 396.52,383.703C398.787,383.837 399.888,381.168 399.95,379.328C399.972,378.73 399.046,378.733 399.025,379.328Z" style="fill:rgb(21,47,71);fill-rule:nonzero;" />
                    </svg:g>
                    <svg:g>
                        <svg:g>
                            <svg:g>
                                <svg:g>
                                    <svg:path d="M375.157,380.029C375.163,378.483 375.344,376.938 375.81,375.459C376.133,374.434 376.609,373.312 377.454,372.604C378.05,372.104 378.694,372.034 379.328,372.437C380.177,372.976 380.689,374.037 381.025,374.946C381.624,376.57 381.846,378.306 381.853,380.03C381.856,380.8 383.052,380.801 383.049,380.03C383.042,378.267 382.824,376.466 382.239,374.796C381.812,373.577 381.187,372.323 380.125,371.538C379.25,370.891 378.128,370.799 377.177,371.344C376.084,371.972 375.418,373.172 374.96,374.302C374.228,376.104 373.971,378.096 373.963,380.03C373.958,380.799 375.154,380.8 375.157,380.029Z" style="fill:rgb(21,47,71);fill-rule:nonzero;" />
                                </svg:g>
                            </svg:g>
                        </svg:g>
                        <svg:g>
                            <svg:g>
                                <svg:g>
                                    <svg:path d="M405.187,380.029C405.193,378.483 405.373,376.938 405.839,375.459C406.162,374.434 406.638,373.312 407.483,372.604C408.079,372.104 408.723,372.034 409.357,372.437C410.206,372.976 410.718,374.037 411.054,374.946C411.653,376.57 411.875,378.306 411.882,380.03C411.885,380.8 413.081,380.801 413.078,380.03C413.071,378.267 412.853,376.466 412.268,374.796C411.841,373.577 411.216,372.323 410.154,371.538C409.279,370.891 408.157,370.799 407.206,371.344C406.113,371.972 405.447,373.172 404.989,374.302C404.257,376.104 404,378.096 403.992,380.03C403.988,380.799 405.184,380.8 405.187,380.029Z" style="fill:rgb(21,47,71);fill-rule:nonzero;" />
                                </svg:g>
                            </svg:g>
                        </svg:g>
                    </svg:g>
                </svg:g>
                <svg:g>
                    <svg:g>
                        <svg:path d="M379.733,383.663C379.429,384.461 377.332,384.401 375.049,383.53C372.766,382.659 371.163,381.307 371.467,380.509C371.771,379.711 373.868,379.771 376.151,380.642C378.434,381.513 380.037,382.865 379.733,383.663Z" style="fill:rgb(255,129,206);fill-rule:nonzero;" />
                    </svg:g>
                    <svg:g>
                        <svg:path d="M407.305,383.663C407.609,384.461 409.706,384.401 411.989,383.53C414.272,382.659 415.875,381.307 415.571,380.509C415.267,379.711 413.17,379.771 410.887,380.642C408.605,381.513 407.001,382.865 407.305,383.663Z" style="fill:rgb(255,129,206);fill-rule:nonzero;" />
                    </svg:g>
                </svg:g>
            </svg:g>
            <svg:g>
                <svg:path d="M345.625,439C345.367,439 345.11,438.993 344.854,438.98C343.12,438.894 341.036,438.035 340.289,436.309C336.071,426.576 334.403,416.284 335.465,406.543C337.049,392.009 343.7,378.774 354.192,369.276C365.009,359.484 378.984,354.066 393.54,354.021C401.224,354.045 408.853,355.55 415.605,358.374C428.049,363.577 438.372,372.744 444.669,384.185C451.798,397.137 453.743,412.867 450.005,427.339C449.656,428.686 448.646,429.919 447.299,430.639C446.04,431.314 444.679,431.452 443.47,431.028C443.093,430.896 442.715,430.772 442.327,430.674C442.218,430.647 442.135,430.623 442.068,430.603C441.993,430.599 441.905,430.59 441.812,430.581L441.728,430.573C441.592,430.605 441.459,430.645 441.325,430.687C441.281,430.717 441.157,430.782 441.04,430.858L440.877,430.949C440.829,430.993 440.766,431.049 440.68,431.12C439.846,431.82 438.99,432.478 438.138,433.075C435.103,435.2 431.651,436.371 428.418,436.371L428.415,436.371C424.895,436.371 421.355,434.987 417.893,432.257C417.044,431.588 416.277,430.835 415.536,430.108C415.063,429.644 414.59,429.179 414.094,428.734C413.897,428.557 413.694,428.382 413.489,428.213L412.752,427.699C412.122,427.286 411.44,426.901 410.669,426.523C407.952,425.194 407.542,421.822 408.715,419.324C408.758,419.209 408.841,419.018 409.005,418.67L409.063,418.5C409.198,418.116 409.334,417.732 409.451,417.342C409.67,416.617 409.817,415.896 409.974,415.131L410.08,414.613C410.078,414.565 410.09,414.447 410.102,414.328L410.127,414.07C410.168,413.52 410.188,412.968 410.188,412.418C410.189,411.619 410.129,410.831 410.071,410.163L410.042,409.995C409.978,409.629 409.906,409.266 409.824,408.907C409.663,408.2 409.463,407.49 409.227,406.797C409.17,406.631 409.108,406.466 409.044,406.301C408.991,406.161 408.938,406.022 408.888,405.881L408.778,405.646C408.456,404.965 408.086,404.285 407.679,403.623C407.645,403.568 407.587,403.463 407.514,403.331C407.429,403.177 407.244,402.839 407.069,402.557C407.026,402.528 406.982,402.493 406.938,402.451C406.912,402.427 406.885,402.399 406.858,402.369C406.787,402.29 406.721,402.208 406.655,402.125L406.549,401.993C406.354,401.762 406.152,401.533 405.945,401.308C405.507,400.831 405.034,400.362 404.54,399.912C404.367,399.756 404.189,399.604 404.011,399.452L403.479,399.059C402.47,398.393 401.518,397.763 400.454,397.249L400.238,397.15C400.113,397.094 399.988,397.038 399.868,396.975L399.678,396.901C399.576,396.873 399.494,396.848 399.454,396.834C398.864,396.625 398.262,396.439 397.666,396.286C397.122,396.144 396.574,396.042 396.023,395.937L395.657,395.876C395.333,395.844 395.011,395.819 394.687,395.803C393.974,395.765 393.259,395.764 392.561,395.794C392.237,395.809 391.914,395.831 391.59,395.859L391.401,395.869C390.011,396.142 388.811,396.415 387.629,396.835C387.566,396.857 387.411,396.922 387.256,396.985C387.1,397.049 386.974,397.1 386.867,397.135L386.867,397.136L386.651,397.239C386.072,397.52 385.526,397.814 385.009,398.123C384.455,398.452 383.937,398.812 383.387,399.191L383.033,399.487C382.868,399.628 382.704,399.768 382.544,399.913C382.056,400.355 381.582,400.825 381.139,401.309C380.933,401.533 380.732,401.762 380.534,401.995L380.43,402.125C380.364,402.208 380.298,402.29 380.228,402.368C380.156,402.447 380.085,402.511 380.016,402.557C379.841,402.839 379.656,403.177 379.571,403.331C379.498,403.463 379.44,403.568 379.406,403.624C379.089,404.14 378.787,404.681 378.509,405.232C378.493,405.264 378.454,405.335 378.403,405.423L378.275,405.651C378.263,405.692 378.252,405.727 378.243,405.753C378.21,405.853 378.169,405.956 378.128,406.058L378.065,406.214C377.833,406.84 377.626,407.489 377.451,408.144C377.27,408.821 377.135,409.513 377.015,410.16L376.998,410.341C376.975,410.599 376.951,410.856 376.935,411.114C376.889,411.881 376.884,412.66 376.92,413.428C376.93,413.625 376.947,413.823 376.965,414.019C376.983,414.23 377.002,414.441 377.011,414.653L377.057,414.917C377.206,415.753 377.405,416.58 377.646,417.374C377.776,417.804 377.92,418.229 378.078,418.648L378.189,418.935C378.986,420.441 379.683,421.724 380.616,422.972C381.907,424.7 381.437,427.338 380.237,428.892C379.092,430.374 376.806,431.491 374.654,430.775C373.681,430.451 372.687,430.119 371.697,429.876C371.457,429.817 371.214,429.772 370.972,429.725L370.817,429.696C370.684,429.69 370.538,429.679 370.39,429.676C370.304,429.676 370.207,429.68 370.116,429.687L369.995,429.193L369.54,429.204C369.558,429.486 369.792,429.633 369.914,429.648C369.891,429.645 369.778,429.642 369.669,429.666L369.376,429.723L369.377,429.728L369.265,429.75C369.15,429.773 369.034,429.796 368.919,429.823C368.415,429.944 367.889,430.101 367.312,430.303C367.011,430.407 366.713,430.52 366.419,430.636C365.953,430.868 365.462,431.107 364.972,431.344C363.966,431.831 362.925,432.335 361.926,432.876C361.184,433.278 360.45,433.698 359.717,434.118C358.577,434.771 357.4,435.446 356.199,436.043C352.156,438.05 348.772,439 345.625,439ZM393.539,355.022C379.233,355.067 365.497,360.392 354.863,370.019C344.552,379.352 338.016,392.362 336.459,406.651C335.416,416.22 337.059,426.339 341.207,435.912C341.783,437.243 343.479,437.911 344.905,437.982C348.08,438.139 351.538,437.24 355.748,435.146C356.923,434.562 358.088,433.894 359.215,433.248C359.955,432.823 360.695,432.399 361.444,431.994C362.464,431.442 363.514,430.934 364.531,430.44C365.018,430.205 365.506,429.968 365.991,429.727C366.355,429.581 366.665,429.464 366.978,429.355C367.586,429.142 368.144,428.976 368.682,428.846C368.794,428.82 368.906,428.797 369.016,428.775L369.054,428.736C369.103,428.735 369.153,428.731 369.201,428.728L369.459,428.683C369.657,428.64 369.939,428.605 370.165,428.678C370.26,428.673 370.337,428.671 370.408,428.672C370.571,428.676 370.733,428.687 370.894,428.698L371.155,428.738C371.415,428.788 371.673,428.838 371.931,428.901C372.96,429.154 373.975,429.492 374.955,429.819C376.663,430.387 378.537,429.448 379.441,428.277C380.395,427.041 380.771,424.854 379.81,423.567C378.835,422.263 378.087,420.888 377.281,419.354L377.14,419C376.975,418.558 376.823,418.112 376.687,417.662C376.434,416.831 376.227,415.966 376.071,415.09L376.01,414.674C376.001,414.5 375.984,414.303 375.966,414.107C375.947,413.896 375.929,413.685 375.92,413.473C375.882,412.669 375.887,411.855 375.935,411.052C375.952,410.782 375.976,410.516 376,410.248L376.018,410.05C376.153,409.31 376.293,408.595 376.482,407.885C376.655,407.24 376.857,406.599 377.085,405.978C377.085,405.893 377.103,405.806 377.135,405.712L377.105,405.699L377.615,404.782C377.905,404.204 378.221,403.637 378.554,403.097C378.583,403.049 378.632,402.959 378.695,402.846C379.234,401.864 379.538,401.399 379.86,401.241C380.039,401.033 380.218,400.829 380.403,400.629C380.868,400.123 381.362,399.633 381.874,399.169C382.042,399.018 382.213,398.871 382.384,398.725L382.748,398.416C383.358,397.993 383.916,397.607 384.499,397.261C385.04,396.939 385.611,396.63 386.196,396.346L386.751,396.078L386.772,396.099C386.807,396.085 386.842,396.071 386.878,396.056C387.05,395.986 387.223,395.915 387.293,395.89C388.354,395.513 389.412,395.252 390.621,395.005C390.775,394.903 390.98,394.89 391.261,394.871L391.262,394.878L391.529,394.857C391.842,394.829 392.18,394.806 392.518,394.791C393.247,394.76 393.995,394.762 394.741,394.801C395.079,394.818 395.417,394.844 395.754,394.876C395.815,394.882 395.886,394.893 395.955,394.904L396.211,394.951C396.783,395.059 397.354,395.167 397.919,395.313C398.542,395.475 399.173,395.668 399.794,395.888L400.146,395.991C400.15,395.992 400.153,395.993 400.156,395.994L400.174,396C400.514,396.102 400.734,396.191 400.868,396.333L400.89,396.344C401.967,396.865 402.953,397.508 403.905,398.137C404.099,398.172 404.255,398.318 404.405,398.46L404.402,398.464L404.665,398.688C404.849,398.846 405.034,399.004 405.215,399.167C405.732,399.637 406.228,400.128 406.687,400.627C406.871,400.829 407.052,401.033 407.229,401.24C407.552,401.397 407.856,401.863 408.395,402.845C408.458,402.958 408.506,403.048 408.536,403.095C408.962,403.788 409.349,404.501 409.687,405.214L409.984,405.943C410.051,406.119 410.119,406.296 410.179,406.473C410.425,407.2 410.635,407.943 410.803,408.682C410.889,409.059 410.965,409.439 411.031,409.821L411.071,410.092C411.131,410.744 411.193,411.57 411.192,412.417C411.192,412.992 411.172,413.569 411.128,414.145L411.1,414.431C411.089,414.536 411.079,414.641 411.072,414.745L410.957,415.329C410.803,416.082 410.643,416.86 410.411,417.628C410.29,418.032 410.149,418.431 410.01,418.83L409.913,419.096C409.86,419.207 409.738,419.485 409.676,419.63L409.628,419.739C408.656,421.8 408.946,424.563 411.112,425.623C411.923,426.021 412.639,426.425 413.304,426.861L414.131,427.441C414.346,427.619 414.557,427.801 414.765,427.987C415.273,428.443 415.757,428.918 416.241,429.392C416.964,430.101 417.711,430.834 418.517,431.47C421.845,434.094 425.085,435.369 428.42,435.369L428.423,435.369C431.452,435.369 434.7,434.262 437.569,432.254C438.205,431.809 438.842,431.328 439.472,430.82L439.439,430.824L439.442,430.822L438.881,430.887L440.459,430.032L440.851,429.728C441.032,429.587 441.249,429.564 441.439,429.559L444.032,429.496L443.49,429.729L446.328,429.991C446.498,429.925 446.667,429.846 446.834,429.758C447.938,429.168 448.763,428.171 449.042,427.09C452.718,412.862 450.806,397.4 443.798,384.668C437.609,373.424 427.462,364.413 415.225,359.296C408.587,356.524 401.09,355.046 393.539,355.022ZM444.491,430.245C445.03,430.31 445.591,430.244 446.148,430.056L444.491,430.245Z" style="fill:rgb(21,47,71);fill-rule:nonzero;" />
            </svg:g>
        </svg:g>
    </g>
</svg>