<?xml version='1.0' encoding='UTF-8'?>
<svg xmlns="http://www.w3.org/2000/svg" xmlns:xlink="http://www.w3.org/1999/xlink" xmlns:svg="http://www.w3.org/2000/svg" xmlns:serif="http://www.serif.com/" height="100%" style="fill-rule:evenodd;clip-rule:evenodd;" version="1.1" viewBox="737.143 740.0 85.714 100.0" width="100%">
    <g>
        <svg:rect x="737.143" y="740" width="85.714" height="100" style="fill:rgb(0,150,255);" />
        <svg:g transform="matrix(0.839644,0,0,0.839644,523.191,450.693)">
            <svg:g>
                <svg:g>
                    <svg:g>
                        <svg:g>
                            <svg:g>
                                <svg:g>
                                    <svg:path d="M304.811,382.31C292.485,382.002 261.554,387.355 260.237,411.072C258.92,434.79 275.609,459.824 308.11,458.067C340.611,456.311 353.789,425.779 348.517,405.137C343.247,384.496 322.38,382.75 304.811,382.31Z" style="fill:rgb(255,183,160);fill-rule:nonzero;" />
                                </svg:g>
                                <svg:g>
                                    <svg:path d="M348.518,405.138C346.736,398.157 343.166,393.344 338.547,390.004C338.682,390.454 338.819,390.904 338.94,391.374C344.21,412.016 331.035,442.548 298.532,444.304C283.691,445.106 272.159,440.312 264.12,432.617C270.759,447.708 285.659,459.281 308.111,458.067C340.611,456.311 353.789,425.779 348.518,405.138Z" style="fill:rgb(249,167,145);fill-rule:nonzero;" />
                                </svg:g>
                                <svg:path d="M260.237,411.072C259.891,417.307 260.801,423.629 262.904,429.535C265.991,430.07 269.198,430.362 272.495,430.362C296.487,430.362 315.936,415.413 315.936,396.973C315.936,391.82 314.415,386.94 311.702,382.582C309.378,382.445 307.068,382.366 304.812,382.31C292.485,382.003 261.555,387.355 260.237,411.072Z" style="fill:white;fill-opacity:0.2;fill-rule:nonzero;" />
                            </svg:g>
                            <svg:g>
                                <svg:g>
                                    <svg:g>
                                        <svg:path d="M276,394.613C276,395.065 275.633,395.432 275.181,395.432C274.728,395.432 274.362,395.065 274.362,394.613C274.362,394.162 274.728,393.794 275.181,393.794C275.633,393.794 276,394.162 276,394.613Z" style="fill:rgb(249,167,145);fill-rule:nonzero;" />
                                    </svg:g>
                                    <svg:g>
                                        <svg:path d="M277.023,398.924C277.023,399.489 276.565,399.949 276,399.949C275.435,399.949 274.975,399.489 274.975,398.924C274.975,398.359 275.435,397.901 276,397.901C276.565,397.9 277.023,398.358 277.023,398.924Z" style="fill:rgb(249,167,145);fill-rule:nonzero;" />
                                    </svg:g>
                                    <svg:g>
                                        <svg:path d="M272.318,399.949C272.318,400.833 271.601,401.549 270.718,401.549C269.835,401.549 269.118,400.833 269.118,399.949C269.118,399.065 269.835,398.348 270.718,398.348C271.602,398.349 272.318,399.065 272.318,399.949Z" style="fill:rgb(249,167,145);fill-rule:nonzero;" />
                                    </svg:g>
                                    <svg:g>
                                        <svg:path d="M275.181,406.481C275.181,406.933 274.813,407.3 274.362,407.3C273.909,407.3 273.543,406.933 273.543,406.481C273.543,406.028 273.909,405.662 274.362,405.662C274.812,405.662 275.181,406.028 275.181,406.481Z" style="fill:rgb(249,167,145);fill-rule:nonzero;" />
                                    </svg:g>
                                    <svg:g>
                                        <svg:path d="M267.897,406.481C267.897,406.933 267.531,407.3 267.078,407.3C266.626,407.3 266.259,406.933 266.259,406.481C266.259,406.028 266.626,405.662 267.078,405.662C267.531,405.662 267.897,406.028 267.897,406.481Z" style="fill:rgb(249,167,145);fill-rule:nonzero;" />
                                    </svg:g>
                                    <svg:g>
                                        <svg:path d="M271.099,413.565C271.099,414.448 270.382,415.165 269.498,415.165C268.614,415.165 267.898,414.448 267.898,413.565C267.898,412.682 268.615,411.965 269.498,411.965C270.382,411.966 271.099,412.683 271.099,413.565Z" style="fill:rgb(249,167,145);fill-rule:nonzero;" />
                                    </svg:g>
                                </svg:g>
                                <svg:g>
                                    <svg:g>
                                        <svg:path d="M283.281,407.323C283.281,407.774 282.914,408.142 282.462,408.142C282.009,408.142 281.643,407.774 281.643,407.323C281.643,406.87 282.009,406.504 282.462,406.504C282.914,406.504 283.281,406.87 283.281,407.323Z" style="fill:rgb(249,167,145);fill-rule:nonzero;" />
                                    </svg:g>
                                    <svg:g>
                                        <svg:path d="M284.306,411.634C284.306,412.199 283.847,412.657 283.282,412.657C282.717,412.657 282.259,412.199 282.259,411.634C282.259,411.069 282.717,410.61 283.282,410.61C283.847,410.609 284.306,411.068 284.306,411.634Z" style="fill:rgb(249,167,145);fill-rule:nonzero;" />
                                    </svg:g>
                                    <svg:g>
                                        <svg:path d="M279.602,412.657C279.602,413.541 278.886,414.258 278.002,414.258C277.118,414.258 276.401,413.541 276.401,412.657C276.401,411.774 277.118,411.057 278.002,411.057C278.886,411.058 279.602,411.774 279.602,412.657Z" style="fill:rgb(249,167,145);fill-rule:nonzero;" />
                                    </svg:g>
                                    <svg:g>
                                        <svg:path d="M282.462,419.19C282.462,419.643 282.095,420.009 281.643,420.009C281.191,420.009 280.824,419.643 280.824,419.19C280.824,418.738 281.191,418.371 281.643,418.371C282.095,418.37 282.462,418.737 282.462,419.19Z" style="fill:rgb(249,167,145);fill-rule:nonzero;" />
                                    </svg:g>
                                    <svg:g>
                                        <svg:path d="M275.181,419.19C275.181,419.643 274.813,420.009 274.362,420.009C273.909,420.009 273.543,419.643 273.543,419.19C273.543,418.738 273.909,418.371 274.362,418.371C274.812,418.37 275.181,418.737 275.181,419.19Z" style="fill:rgb(249,167,145);fill-rule:nonzero;" />
                                    </svg:g>
                                    <svg:g>
                                        <svg:path d="M278.381,426.274C278.381,427.157 277.663,427.875 276.78,427.875C275.897,427.875 275.18,427.157 275.18,426.274C275.18,425.391 275.897,424.674 276.78,424.674C277.663,424.675 278.381,425.392 278.381,426.274Z" style="fill:rgb(249,167,145);fill-rule:nonzero;" />
                                    </svg:g>
                                </svg:g>
                            </svg:g>
                        </svg:g>
                        <svg:g>
                            <svg:path d="M304.907,458.655C292.002,458.655 280.908,454.345 272.67,446.094C263.712,437.123 258.999,424.348 259.738,411.044C260.315,400.655 266.695,392.419 278.19,387.226C287.604,382.972 298.428,381.656 304.824,381.81C323.451,382.276 343.762,384.492 349.002,405.013C352.015,416.81 349.078,430.687 341.338,441.227C335.915,448.612 325.753,457.615 308.138,458.566C307.049,458.625 305.972,458.655 304.907,458.655ZM303.861,382.799C292.096,382.799 262.031,387.791 260.736,411.1C260.013,424.121 264.62,436.62 273.377,445.388C282.089,454.113 294.084,458.323 308.083,457.569C325.309,456.638 335.236,447.847 340.531,440.636C348.099,430.33 350.973,416.776 348.033,405.262C342.966,385.416 323.059,383.268 304.799,382.811C304.501,382.803 304.188,382.799 303.861,382.799Z" style="fill:rgb(21,47,71);fill-rule:nonzero;" />
                        </svg:g>
                    </svg:g>
                    <svg:g>
                        <svg:g>
                            <svg:g>
                                <svg:g>
                                    <svg:g>
                                        <svg:path d="M304.228,393.648C304.228,393.648 294.077,370.837 313.732,351.066C313.732,351.066 314.823,353.618 320.712,353.662C320.712,353.662 298.787,373.555 307.704,393.673L304.228,393.648Z" style="fill:rgb(204,83,59);fill-rule:nonzero;" />
                                    </svg:g>
                                    <svg:g>
                                        <svg:path d="M320.677,353.738C319.86,354.51 317.691,354.515 315.823,353.756C313.945,352.994 313.073,351.754 313.884,350.99C314.691,350.216 316.85,350.213 318.733,350.971C320.61,351.736 321.475,352.971 320.677,353.738Z" style="fill:rgb(229,97,66);fill-rule:nonzero;" />
                                    </svg:g>
                                </svg:g>
                            </svg:g>
                        </svg:g>
                        <svg:g>
                            <svg:path d="M308.476,394.179L303.903,394.147L303.772,393.852C303.669,393.62 293.71,370.499 313.378,350.714C313.375,350.714 315.396,348.411 319.059,350.276L319.059,350.275C320.43,350.971 321.329,351.921 321.462,352.815C321.534,353.3 321.379,353.756 321.023,354.098C320.873,354.237 320.4,354.67 320.305,354.735C318.247,356.692 299.9,374.83 308.161,393.47L308.476,394.179ZM304.564,393.15L306.946,393.168C299.167,374.155 317.534,355.99 319.679,353.959C319.817,353.848 320.293,353.411 320.337,353.37C320.453,353.259 320.497,353.131 320.472,352.963C320.404,352.507 319.8,351.775 318.605,351.168L318.605,351.167C315.659,349.673 314.173,351.32 314.111,351.393C296.106,369.506 303.494,390.433 304.564,393.15Z" style="fill:rgb(21,47,71);fill-rule:nonzero;" />
                        </svg:g>
                    </svg:g>
                    <svg:g>
                        <svg:g>
                            <svg:g>
                                <svg:path d="M315.028,379.785C315.028,379.785 315.591,357.339 341.808,365.289C341.809,365.289 337.68,383.6 315.028,379.785Z" style="fill:rgb(85,198,126);fill-rule:nonzero;" />
                            </svg:g>
                            <svg:g>
                                <svg:path d="M339.229,364.588C338.346,367.511 333.315,380.72 315.103,378.842C315.037,379.437 315.028,379.785 315.028,379.785C337.679,383.599 341.808,365.289 341.808,365.289C340.918,365.019 340.062,364.791 339.229,364.588Z" style="fill:rgb(67,186,106);fill-rule:nonzero;" />
                            </svg:g>
                            <svg:g>
                                <svg:path d="M336.511,365.75C332.095,367.303 327.708,369.507 323.666,372.264C323.609,372.277 323.55,372.286 323.494,372.301C323.338,372.341 323.257,372.444 323.223,372.563C322.046,373.382 320.908,374.253 319.802,375.166C320.419,372.447 322.118,369.864 323.891,367.795C324.234,367.396 323.657,366.814 323.312,367.215C321.207,369.672 319.295,372.718 318.84,375.971C313.48,380.633 309.157,386.415 306.905,393.096C306.735,393.599 307.527,393.812 307.695,393.314C310.505,384.979 316.645,378.065 323.972,373.034C326.949,372.288 330.098,372.019 333.16,372.271C333.687,372.315 333.683,371.494 333.16,371.452C330.745,371.254 328.269,371.371 325.867,371.787C329.342,369.612 333.03,367.842 336.727,366.54C337.224,366.365 337.011,365.574 336.511,365.75Z" style="fill:rgb(21,47,71);fill-rule:nonzero;" />
                            </svg:g>
                        </svg:g>
                        <svg:g>
                            <svg:path d="M320.913,380.804C319.078,380.804 317.094,380.64 314.945,380.279L314.517,380.207L314.528,379.773C314.537,379.41 314.827,370.812 321.398,366.065C326.241,362.566 333.156,362.144 341.954,364.811L342.398,364.946L342.295,365.4C342.258,365.569 338.597,380.804 320.913,380.804ZM315.557,379.364C335.385,382.486 340.407,368.426 341.204,365.63C332.947,363.212 326.485,363.628 321.992,366.87C316.63,370.737 315.708,377.582 315.557,379.364Z" style="fill:rgb(21,47,71);fill-rule:nonzero;" />
                        </svg:g>
                    </svg:g>
                    <svg:g>
                        <svg:g>
                            <svg:g>
                                <svg:path d="M296.849,381.753C296.849,381.753 296.361,362.281 273.616,369.178C273.615,369.178 277.196,385.064 296.849,381.753Z" style="fill:rgb(85,198,126);fill-rule:nonzero;" />
                            </svg:g>
                            <svg:g>
                                <svg:path d="M275.852,368.569C276.619,371.105 280.984,382.563 296.785,380.936C296.842,381.451 296.849,381.752 296.849,381.752C277.197,385.063 273.616,369.177 273.616,369.177C274.388,368.943 275.131,368.745 275.852,368.569Z" style="fill:rgb(67,186,106);fill-rule:nonzero;" />
                            </svg:g>
                            <svg:g>
                                <svg:path d="M278.212,369.577C282.043,370.925 285.85,372.837 289.357,375.227C289.405,375.239 289.457,375.247 289.505,375.26C289.64,375.294 289.709,375.385 289.738,375.487C290.76,376.198 291.749,376.953 292.708,377.747C292.172,375.388 290.698,373.145 289.16,371.351C288.863,371.004 289.361,370.499 289.662,370.847C291.487,372.979 293.146,375.622 293.542,378.444C298.191,382.489 301.941,387.506 303.896,393.301C304.042,393.737 303.356,393.922 303.209,393.489C300.772,386.259 295.444,380.26 289.087,375.895C286.505,375.247 283.774,375.014 281.118,375.232C280.662,375.271 280.664,374.559 281.118,374.522C283.213,374.351 285.359,374.453 287.444,374.812C284.428,372.925 281.23,371.388 278.022,370.261C277.593,370.111 277.777,369.425 278.212,369.577Z" style="fill:rgb(21,47,71);fill-rule:nonzero;" />
                            </svg:g>
                        </svg:g>
                        <svg:g>
                            <svg:path d="M291.751,382.701C284.518,382.701 280.074,379.784 277.498,377.05C274.092,373.435 273.165,369.455 273.128,369.288L273.026,368.834L273.47,368.699C281.125,366.378 287.142,366.749 291.362,369.797C297.089,373.935 297.341,381.424 297.349,381.74L297.36,382.174L296.932,382.246C295.063,382.56 293.34,382.701 291.751,382.701ZM274.223,369.519C274.965,372.067 279.375,383.97 296.32,381.332C296.174,379.706 295.34,373.899 290.769,370.603C286.899,367.81 281.333,367.447 274.223,369.519Z" style="fill:rgb(21,47,71);fill-rule:nonzero;" />
                        </svg:g>
                    </svg:g>
                    <svg:g>
                        <svg:path d="M296.611,392.448C296.611,392.448 296.974,392.463 297.528,392.502C298.094,392.533 298.875,392.582 299.747,392.657C300.188,392.685 300.654,392.715 301.127,392.764C301.607,392.789 302.102,392.816 302.595,392.866C303.097,392.878 303.597,392.898 304.096,392.941C304.345,392.941 304.594,392.931 304.842,392.941L305.212,392.955L305.491,392.964L305.537,392.967L305.56,392.968L305.572,392.968C305.482,392.971 305.784,392.961 305.37,392.975L305.377,392.974C305.971,392.942 306.58,392.911 307.154,392.902C307.541,392.827 307.922,392.815 308.351,392.782C308.805,392.699 309.277,392.653 309.729,392.586C310.17,392.497 310.621,392.437 311.039,392.361C312.842,392.026 314.044,391.802 314.044,391.802C314.044,391.802 313.981,392.026 313.75,392.381C313.628,392.555 313.473,392.765 313.264,392.996C313.05,393.224 312.771,393.457 312.454,393.717C312.124,393.965 311.716,394.205 311.276,394.461C310.813,394.694 310.273,394.911 309.706,395.128C309.07,395.319 308.321,395.49 307.574,395.627C306.977,395.702 306.392,395.737 305.793,395.783L305.57,395.79L305.554,395.788L305.52,395.788L305.456,395.783L305.324,395.777L305.061,395.762L304.539,395.732C304.191,395.716 303.848,395.678 303.506,395.65C302.849,395.544 302.21,395.419 301.611,395.28C301.033,395.112 300.489,394.933 299.991,394.751C299.514,394.544 299.074,394.341 298.691,394.138C297.937,393.715 297.404,393.296 297.075,392.977C296.738,392.655 296.611,392.448 296.611,392.448Z" style="fill:rgb(224,90,59);fill-rule:nonzero;" />
                    </svg:g>
                </svg:g>
                <svg:g>
                    <svg:g>
                        <svg:g>
                            <svg:path d="M293.526,412.968C293.526,412.968 293.569,412.691 293.811,412.38C293.935,412.224 294.102,412.053 294.332,411.929C294.56,411.797 294.845,411.709 295.148,411.711C295.301,411.705 295.445,411.744 295.59,411.777C295.734,411.805 295.852,411.895 295.973,411.952C296.196,412.102 296.362,412.274 296.463,412.452C296.584,412.609 296.618,412.779 296.657,412.884C296.688,412.994 296.697,413.061 296.697,413.061C296.697,413.061 296.632,413.039 296.528,412.993C296.421,412.95 296.298,412.872 296.137,412.812C295.987,412.738 295.815,412.684 295.647,412.623C295.476,412.593 295.313,412.541 295.143,412.558C294.975,412.537 294.797,412.582 294.619,412.616C294.438,412.655 294.265,412.716 294.101,412.765C293.755,412.886 293.526,412.968 293.526,412.968Z" style="fill:rgb(21,47,71);fill-rule:nonzero;" />
                        </svg:g>
                        <svg:g>
                            <svg:path d="M314.36,412.723C314.36,412.723 314.431,412.452 314.709,412.165C314.845,412.023 315.031,411.872 315.273,411.77C315.509,411.666 315.804,411.606 316.105,411.639C316.257,411.649 316.397,411.705 316.54,411.747C316.679,411.793 316.786,411.895 316.902,411.962C317.105,412.136 317.256,412.327 317.337,412.511C317.44,412.681 317.459,412.852 317.487,412.959C317.507,413.075 317.51,413.14 317.51,413.14C317.51,413.14 317.446,413.113 317.347,413.055C317.247,413.006 317.128,412.91 316.977,412.836C316.832,412.747 316.669,412.67 316.51,412.595C316.339,412.546 316.186,412.479 316.013,412.478C315.847,412.443 315.666,412.469 315.486,412.482C315.304,412.504 315.125,412.547 314.957,412.58C314.599,412.663 314.36,412.723 314.36,412.723Z" style="fill:rgb(21,47,71);fill-rule:nonzero;" />
                        </svg:g>
                    </svg:g>
                    <svg:g>
                        <svg:g>
                            <svg:g>
                                <svg:path d="M298.136,419.735C298.136,421.474 296.728,422.884 294.988,422.884C293.248,422.884 291.839,421.474 291.839,419.735C291.839,417.996 293.248,416.587 294.988,416.587C296.728,416.587 298.136,417.996 298.136,419.735Z" style="fill:rgb(21,47,71);fill-rule:nonzero;" />
                            </svg:g>
                            <svg:g>
                                <svg:g>
                                    <svg:path d="M294.86,418.581C294.86,419.031 294.497,419.395 294.046,419.395C293.597,419.395 293.233,419.031 293.233,418.581C293.233,418.132 293.596,417.768 294.046,417.768C294.497,417.769 294.86,418.132 294.86,418.581Z" style="fill:white;fill-rule:nonzero;" />
                                </svg:g>
                                <svg:g>
                                    <svg:path d="M293.645,420.147C293.645,420.374 293.46,420.558 293.233,420.558C293.006,420.558 292.822,420.373 292.822,420.147C292.822,419.919 293.006,419.735 293.233,419.735C293.461,419.735 293.645,419.92 293.645,420.147Z" style="fill:white;fill-rule:nonzero;" />
                                </svg:g>
                            </svg:g>
                        </svg:g>
                        <svg:g>
                            <svg:g>
                                <svg:path d="M317.235,416.19C316.446,416.505 315.671,416.857 314.914,417.24C314.12,417.643 312.788,418.245 312.494,419.183C312.155,420.264 313.618,420.882 314.375,421.237C315.332,421.685 316.342,422.046 317.352,422.351C318.088,422.575 318.401,421.424 317.668,421.204C316.99,420.999 316.323,420.761 315.664,420.503C315.166,420.308 314.681,420.081 314.212,419.823C314.002,419.708 313.805,419.575 313.628,419.415C313.719,419.496 313.527,419.64 313.745,419.404C314.664,418.408 316.314,417.831 317.551,417.338C318.256,417.057 317.949,415.905 317.235,416.19Z" style="fill:rgb(21,47,71);fill-rule:nonzero;" />
                            </svg:g>
                        </svg:g>
                    </svg:g>
                    <svg:g>
                        <svg:g>
                            <svg:path d="M296.184,426.529C296.184,427.931 295.047,429.068 293.643,429.068C292.241,429.068 291.102,427.931 291.102,426.529C291.102,425.126 292.241,423.988 293.643,423.988C295.047,423.988 296.184,425.126 296.184,426.529Z" style="fill:rgb(255,129,206);fill-rule:nonzero;" />
                        </svg:g>
                        <svg:g>
                            <svg:path d="M319.934,426.529C319.934,427.931 318.798,429.068 317.394,429.068C315.992,429.068 314.854,427.931 314.854,426.529C314.854,425.126 315.992,423.988 317.394,423.988C318.798,423.988 319.934,425.126 319.934,426.529Z" style="fill:rgb(255,129,206);fill-rule:nonzero;" />
                        </svg:g>
                    </svg:g>
                    <svg:g>
                        <svg:g>
                            <svg:path d="M301.366,420.689C301.799,421.875 302.535,423.031 303.61,423.721C305.877,425.173 308.039,422.447 309.13,420.807C309.482,420.278 308.631,419.787 308.282,420.312C307.285,421.813 305.457,424.206 303.595,422.476C303.023,421.943 302.579,421.163 302.312,420.429C302.098,419.839 301.149,420.094 301.366,420.689Z" style="fill:rgb(21,47,71);fill-rule:nonzero;" />
                        </svg:g>
                    </svg:g>
                </svg:g>
            </svg:g>
            <svg:g>
                <svg:g>
                    <svg:path d="M283.115,389.897C280.945,390.762 278.87,391.936 276.922,393.216C273.154,395.691 269.623,398.868 267.517,402.913C266.204,405.434 265.541,408.215 265.634,411.058C265.66,411.86 266.91,411.864 266.884,411.058C266.594,402.183 274.151,395.751 281.41,392.057C281.913,391.801 282.422,391.555 282.937,391.324C283.256,391.181 283.272,391.173 283.448,391.103C284.186,390.808 283.864,389.599 283.115,389.897Z" style="fill:white;fill-rule:nonzero;" />
                </svg:g>
                <svg:path d="M267.806,414.513C267.806,415.036 267.382,415.46 266.858,415.46C266.335,415.46 265.911,415.036 265.911,414.513C265.911,413.99 266.335,413.565 266.858,413.565C267.382,413.565 267.806,413.99 267.806,414.513Z" style="fill:white;fill-rule:nonzero;" />
            </svg:g>
        </svg:g>
    </g>
</svg>