<?xml version='1.0' encoding='UTF-8'?>
<svg xmlns="http://www.w3.org/2000/svg" xmlns:xlink="http://www.w3.org/1999/xlink" xmlns:svg="http://www.w3.org/2000/svg" xmlns:serif="http://www.serif.com/" height="100%" style="fill-rule:evenodd;clip-rule:evenodd;" version="1.1" viewBox="860.0 172.857 120.0 34.286" width="100%">
    <g>
        <svg:rect x="860" y="172.857" width="120" height="34.286" style="fill:rgb(115,253,255);" />
        <svg:g>
            <svg:g transform="matrix(0.237823,0,0,0.237823,859.784,93.4228)">
                <svg:g>
                    <svg:g>
                        <svg:g>
                            <svg:g>
                                <svg:g>
                                    <svg:path d="M87.194,456.205C87.302,458.515 85.499,460.408 83.184,460.408L74.769,460.408C72.456,460.408 70.652,458.515 70.76,456.205L72.467,420.081C72.576,417.77 74.559,415.879 76.872,415.879L81.08,415.879C83.394,415.879 85.377,417.771 85.485,420.081L87.194,456.205Z" style="fill:rgb(255,183,160);fill-rule:nonzero;" />
                                </svg:g>
                                <svg:g>
                                    <svg:g>
                                        <svg:clipPath id="_clip43">
                                            <svg:path d="M87.194,456.205C87.302,458.515 85.499,460.408 83.184,460.408L74.769,460.408C72.456,460.408 70.652,458.515 70.76,456.205L72.467,420.081C72.576,417.77 74.559,415.879 76.872,415.879L81.08,415.879C83.394,415.879 85.377,417.771 85.485,420.081L87.194,456.205Z" />
                                        </svg:clipPath>
                                        <svg:g clip-path="url(#_clip43)">
                                            <svg:g>
                                                <svg:g>
                                                    <svg:path d="M72.691,472.244C72.36,472.244 72.034,472.187 71.714,472.077C68.416,470.927 66.994,464.048 66.441,460.052C65.141,450.664 65.937,438.591 68.946,436.486C69.613,436.019 70.945,435.49 72.387,437.179C76.343,441.822 78.096,459.445 74.091,463.578L73.334,462.847C76.91,459.157 75.115,442.004 71.585,437.863C70.668,436.785 70.014,437.02 69.549,437.347C67.16,439.018 66.138,450.194 67.484,459.907C68.356,466.212 70.066,470.389 72.06,471.085C72.958,471.396 73.98,471.01 75.108,469.934C83.181,462.227 80.668,451.364 77.757,438.785C77.282,436.74 76.801,434.661 76.358,432.556C73.211,417.602 76.243,407.969 76.374,407.567L77.374,407.891C77.343,407.988 74.303,417.681 77.389,432.339C77.83,434.438 78.31,436.51 78.781,438.548C81.642,450.904 84.343,462.575 75.835,470.695C74.752,471.727 73.699,472.244 72.691,472.244Z" style="fill:rgb(232,119,93);fill-rule:nonzero;" />
                                                </svg:g>
                                            </svg:g>
                                            <svg:g>
                                                <svg:g>
                                                    <svg:path d="M86.12,447.06C85.184,447.06 84.335,446.735 83.585,446.088C77.057,440.467 80.398,410.768 80.543,409.507L81.589,409.627C81.554,409.93 78.162,440.029 84.272,445.291C85.066,445.977 85.975,446.166 87.064,445.874C89.725,445.153 91.186,442.638 91.405,438.395C91.847,429.765 86.82,417.263 85.354,416.417C84.764,416.827 83.72,420.344 83.751,425.096C83.771,428.232 84.339,435.735 89.165,437.654L88.777,438.632C83.579,436.565 82.282,428.868 82.798,422.355C82.852,421.681 83.373,415.768 85.173,415.366C87.136,414.91 90.058,423.35 91.194,427.956C92.438,433 94.552,444.941 87.336,446.89C86.916,447.003 86.511,447.06 86.12,447.06Z" style="fill:rgb(232,119,93);fill-rule:nonzero;" />
                                                </svg:g>
                                            </svg:g>
                                        </svg:g>
                                    </svg:g>
                                </svg:g>
                            </svg:g>
                            <svg:g opacity="0.4">
                                <svg:path d="M85.486,420.081C85.378,417.77 83.395,415.879 81.081,415.879L76.873,415.879C76.693,415.879 76.522,415.91 76.348,415.931C78.427,416.195 80.127,417.949 80.228,420.081L81.936,456.205C82.044,458.515 80.24,460.408 77.926,460.408L83.185,460.408C85.499,460.408 87.303,458.515 87.195,456.205L85.486,420.081Z" style="fill:rgb(232,119,93);fill-rule:nonzero;" />
                            </svg:g>
                        </svg:g>
                        <svg:g>
                            <svg:path d="M83.185,460.908L74.77,460.908C73.514,460.908 72.351,460.415 71.497,459.519C70.642,458.622 70.203,457.437 70.262,456.181L71.969,420.057C72.091,417.477 74.291,415.378 76.874,415.378L81.082,415.378C83.666,415.378 85.866,417.477 85.987,420.057L87.695,456.181C87.754,457.437 87.316,458.622 86.46,459.518C85.604,460.415 84.441,460.908 83.185,460.908ZM76.873,416.379C74.816,416.379 73.064,418.05 72.967,420.105L71.26,456.229C71.214,457.21 71.554,458.132 72.219,458.83C72.883,459.525 73.788,459.909 74.769,459.909L83.184,459.909C84.165,459.909 85.071,459.525 85.735,458.83C86.4,458.133 86.74,457.21 86.694,456.229L84.986,420.105C84.89,418.05 83.137,416.379 81.08,416.379L76.873,416.379Z" style="fill:rgb(21,47,71);fill-rule:nonzero;" />
                        </svg:g>
                    </svg:g>
                    <svg:g>
                        <svg:g>
                            <svg:path d="M99.426,375.185C88.522,346.552 78.978,347.797 78.978,347.797C78.978,347.797 69.433,346.552 58.529,375.185C47.624,403.817 37.903,421.706 41.208,424.899C44.513,428.092 55.558,436.936 78.978,436.936C102.398,436.936 113.444,428.092 116.749,424.899C120.052,421.706 110.331,403.816 99.426,375.185Z" style="fill:rgb(118,221,159);fill-rule:nonzero;" />
                        </svg:g>
                        <svg:g>
                            <svg:path d="M116.26,417.31C113.633,408.999 106.804,394.553 99.426,375.184C88.522,346.551 78.978,347.796 78.978,347.796C78.978,347.796 69.433,346.551 58.529,375.184C51.152,394.553 44.323,408.998 41.695,417.31C45.514,420.812 56.589,428.891 78.978,428.891C101.366,428.892 112.44,420.813 116.26,417.31Z" style="fill:rgb(242,165,204);fill-rule:nonzero;" />
                        </svg:g>
                        <svg:g>
                            <svg:path d="M78.977,423.445C58.965,423.445 47.998,416.993 43.167,413.122C42.593,414.649 42.09,416.058 41.694,417.31C45.513,420.812 56.588,428.891 78.977,428.891C101.366,428.891 112.44,420.812 116.259,417.31C115.863,416.058 115.362,414.649 114.787,413.122C109.956,416.993 98.989,423.445 78.977,423.445Z" style="fill:rgb(248,229,229);fill-rule:nonzero;" />
                        </svg:g>
                        <svg:path d="M73.503,350.203C69.706,353.226 64.308,360.007 58.528,375.185C53.796,387.609 49.289,398.006 45.97,406.062C50.128,410.799 55.419,413.64 61.184,413.64C74.555,413.64 85.395,398.377 85.395,379.549C85.396,367.057 80.621,356.139 73.503,350.203Z" style="fill:white;fill-opacity:0.2;fill-rule:nonzero;" />
                    </svg:g>
                    <svg:g>
                        <svg:g>
                            <svg:g>
                                <svg:path d="M67.552,381.047C67.552,381.047 67.595,380.772 67.833,380.467C67.955,380.312 68.121,380.144 68.347,380.021C68.574,379.891 68.856,379.803 69.155,379.805C69.306,379.8 69.449,379.838 69.592,379.871C69.735,379.899 69.852,379.988 69.971,380.044C70.191,380.19 70.355,380.361 70.456,380.537C70.574,380.692 70.609,380.861 70.647,380.964C70.678,381.073 70.686,381.14 70.686,381.14C70.686,381.14 70.622,381.117 70.519,381.072C70.414,381.029 70.291,380.953 70.132,380.893C69.985,380.82 69.815,380.767 69.649,380.705C69.48,380.675 69.319,380.624 69.151,380.64C68.986,380.62 68.809,380.664 68.633,380.697C68.454,380.735 68.282,380.796 68.121,380.845C67.778,380.967 67.552,381.047 67.552,381.047Z" style="fill:rgb(21,47,71);fill-rule:nonzero;" />
                            </svg:g>
                            <svg:g>
                                <svg:path d="M88.137,380.805C88.137,380.805 88.206,380.537 88.482,380.255C88.616,380.113 88.799,379.965 89.038,379.864C89.272,379.761 89.564,379.701 89.86,379.735C90.01,379.744 90.148,379.799 90.29,379.841C90.428,379.888 90.534,379.988 90.649,380.053C90.849,380.226 90.998,380.414 91.077,380.594C91.179,380.764 91.199,380.933 91.227,381.039C91.246,381.152 91.249,381.217 91.249,381.217C91.249,381.217 91.185,381.19 91.087,381.132C90.988,381.085 90.871,380.99 90.723,380.917C90.578,380.829 90.417,380.752 90.262,380.68C90.092,380.63 89.941,380.564 89.771,380.563C89.606,380.53 89.427,380.553 89.25,380.567C89.07,380.588 88.894,380.63 88.726,380.664C88.371,380.747 88.137,380.805 88.137,380.805Z" style="fill:rgb(21,47,71);fill-rule:nonzero;" />
                            </svg:g>
                        </svg:g>
                        <svg:g>
                            <svg:g>
                                <svg:path d="M64.624,388.542C64.339,389.106 64.155,389.719 64.086,390.302C64.005,391.013 65.117,391.005 65.197,390.302C65.38,388.745 66.441,387.45 68.085,387.472C69.752,387.493 70.501,389.37 70.467,390.752C70.449,391.469 71.561,391.467 71.578,390.752C71.634,388.545 70.474,386.336 68.085,386.36C67.293,386.368 66.525,386.645 65.943,387.042C65.111,387.677 64.624,388.542 64.624,388.542Z" style="fill:rgb(21,47,71);fill-rule:nonzero;" />
                            </svg:g>
                            <svg:g>
                                <svg:path d="M93.332,388.542C93.615,389.106 93.8,389.719 93.868,390.302C93.95,391.013 92.838,391.005 92.756,390.302C92.574,388.745 91.514,387.45 89.868,387.472C88.203,387.493 87.453,389.37 87.486,390.752C87.504,391.469 86.393,391.467 86.374,390.752C86.32,388.545 87.481,386.336 89.868,386.36C90.661,386.368 91.429,386.645 92.01,387.042C92.844,387.677 93.332,388.542 93.332,388.542Z" style="fill:rgb(21,47,71);fill-rule:nonzero;" />
                            </svg:g>
                        </svg:g>
                        <svg:g>
                            <svg:g>
                                <svg:path d="M70.177,394.446C70.177,395.832 69.053,396.954 67.666,396.954C66.279,396.954 65.156,395.832 65.156,394.446C65.156,393.058 66.279,391.935 67.666,391.935C69.053,391.935 70.177,393.059 70.177,394.446Z" style="fill:rgb(255,129,206);fill-rule:nonzero;" />
                            </svg:g>
                            <svg:g>
                                <svg:path d="M93.643,394.446C93.643,395.832 92.521,396.954 91.134,396.954C89.747,396.954 88.623,395.832 88.623,394.446C88.623,393.058 89.747,391.935 91.134,391.935C92.52,391.935 93.643,393.059 93.643,394.446Z" style="fill:rgb(255,129,206);fill-rule:nonzero;" />
                            </svg:g>
                        </svg:g>
                        <svg:g>
                            <svg:path d="M80.084,390.865C80.727,390.584 81.144,390.099 81.19,389.5C81.259,388.581 80.079,387.918 78.876,387.873C78.393,387.855 78.395,388.383 78.876,388.4C80.889,388.476 80.891,390.518 78.883,390.599C78.881,390.599 78.878,390.597 78.876,390.597C78.625,390.589 78.508,390.727 78.518,390.863C78.508,391 78.625,391.138 78.876,391.128L78.883,391.128C80.89,391.208 80.889,393.25 78.876,393.326C78.395,393.346 78.393,393.873 78.876,393.854C80.185,393.804 81.119,393.148 81.19,392.226C81.234,391.631 80.753,391.147 80.084,390.865Z" style="fill:rgb(21,47,71);fill-rule:nonzero;" />
                        </svg:g>
                    </svg:g>
                    <svg:g>
                        <svg:g>
                            <svg:path d="M77.004,352.901C77.004,352.901 74.268,358.518 76.14,359.239C78.012,359.959 78.156,354.63 77.004,352.901Z" style="fill:rgb(255,129,206);fill-rule:nonzero;" />
                        </svg:g>
                        <svg:g>
                            <svg:path d="M84.439,367.061C86.442,367.164 84.926,362.053 83.294,360.767C83.295,360.768 82.435,366.957 84.439,367.061" style="fill:rgb(255,129,206);fill-rule:nonzero;" />
                        </svg:g>
                        <svg:g>
                            <svg:path d="M77.411,373.624C79.344,374.159 78.972,368.842 77.657,367.232C77.657,367.232 75.477,373.088 77.411,373.624" style="fill:rgb(255,129,206);fill-rule:nonzero;" />
                        </svg:g>
                        <svg:g>
                            <svg:path d="M68.225,366.387C68.225,366.387 65.489,372.004 67.361,372.725C69.232,373.444 69.377,368.115 68.225,366.387Z" style="fill:rgb(255,129,206);fill-rule:nonzero;" />
                        </svg:g>
                        <svg:g>
                            <svg:path d="M91.533,369.625C91.533,369.625 90.466,375.781 92.465,375.953C94.464,376.125 93.12,370.965 91.533,369.625Z" style="fill:rgb(255,129,206);fill-rule:nonzero;" />
                        </svg:g>
                        <svg:g>
                            <svg:path d="M55.296,400.658C56.997,401.722 58.154,396.519 57.354,394.602C57.353,394.603 53.596,399.595 55.296,400.658" style="fill:rgb(255,129,206);fill-rule:nonzero;" />
                        </svg:g>
                        <svg:g>
                            <svg:path d="M67.475,402.317C67.475,402.317 64.739,407.934 66.611,408.655C68.482,409.375 68.627,404.047 67.475,402.317Z" style="fill:rgb(255,129,206);fill-rule:nonzero;" />
                        </svg:g>
                        <svg:g>
                            <svg:path d="M54.584,413.603C56.518,414.137 56.144,408.821 54.83,407.21C54.83,407.21 52.65,413.066 54.584,413.603" style="fill:rgb(255,129,206);fill-rule:nonzero;" />
                        </svg:g>
                        <svg:g>
                            <svg:path d="M75.324,419.064C77.285,419.491 76.614,414.203 75.213,412.669C75.213,412.669 73.364,418.637 75.324,419.064" style="fill:rgb(255,129,206);fill-rule:nonzero;" />
                        </svg:g>
                        <svg:g>
                            <svg:path d="M84.406,401.968C84.406,401.968 83.596,408.164 85.6,408.252C87.604,408.339 86.048,403.241 84.406,401.968Z" style="fill:rgb(255,129,206);fill-rule:nonzero;" />
                        </svg:g>
                        <svg:g>
                            <svg:path d="M96.693,410.057C96.693,410.057 96.486,416.302 98.49,416.197C100.493,416.089 98.45,411.166 96.693,410.057Z" style="fill:rgb(255,129,206);fill-rule:nonzero;" />
                        </svg:g>
                        <svg:g>
                            <svg:path d="M102.725,400.405C102.725,400.405 102.518,406.65 104.522,406.545C106.524,406.438 104.481,401.515 102.725,400.405Z" style="fill:rgb(255,129,206);fill-rule:nonzero;" />
                        </svg:g>
                    </svg:g>
                    <svg:g>
                        <svg:path d="M78.977,437.435C55.947,437.435 44.648,428.918 40.859,425.257C38.383,422.865 41.875,414.52 48.215,399.368C51.17,392.307 54.519,384.304 58.06,375.006C68.638,347.229 78.024,347.214 78.976,347.294C79.921,347.207 89.313,347.227 99.892,375.006C103.434,384.305 106.783,392.309 109.738,399.371C116.078,414.519 119.569,422.865 117.094,425.257C113.307,428.919 102.007,437.435 78.977,437.435ZM78.827,348.29C77.864,348.29 69.017,349.048 58.996,375.362C55.449,384.676 52.096,392.687 49.139,399.756C43.584,413.03 39.571,422.621 41.555,424.539C45.257,428.116 56.314,436.435 78.978,436.435C101.643,436.435 112.699,428.116 116.401,424.539C118.385,422.622 114.372,413.031 108.817,399.758C105.859,392.69 102.506,384.677 98.959,375.362C88.39,347.609 79.127,348.288 79.038,348.293L78.978,348.3L78.914,348.293C78.908,348.292 78.879,348.29 78.827,348.29Z" style="fill:rgb(21,47,71);fill-rule:nonzero;" />
                    </svg:g>
                </svg:g>
                <svg:g>
                    <svg:g>
                        <svg:path d="M71.753,357.075C66.589,364.475 62.399,373.04 60.076,381.755C59.868,382.533 61.074,382.865 61.281,382.087C63.578,373.471 67.726,365.023 72.832,357.705C73.294,357.045 72.21,356.419 71.753,357.075Z" style="fill:white;fill-rule:nonzero;" />
                    </svg:g>
                    <svg:path d="M60.599,385.272C60.599,385.733 60.225,386.107 59.764,386.107C59.303,386.107 58.929,385.733 58.929,385.272C58.929,384.811 59.303,384.437 59.764,384.437C60.225,384.437 60.599,384.811 60.599,385.272Z" style="fill:white;fill-rule:nonzero;" />
                </svg:g>
            </svg:g>
            <svg:g transform="matrix(0.237823,0,0,0.237823,885.147,93.155)">
                <svg:g>
                    <svg:g>
                        <svg:g>
                            <svg:g>
                                <svg:g>
                                    <svg:path d="M87.194,456.205C87.302,458.515 85.499,460.408 83.184,460.408L74.769,460.408C72.456,460.408 70.652,458.515 70.76,456.205L72.467,420.081C72.576,417.77 74.559,415.879 76.872,415.879L81.08,415.879C83.394,415.879 85.377,417.771 85.485,420.081L87.194,456.205Z" style="fill:rgb(255,183,160);fill-rule:nonzero;" />
                                </svg:g>
                                <svg:g>
                                    <svg:g>
                                        <svg:clipPath id="_clip44">
                                            <svg:path d="M87.194,456.205C87.302,458.515 85.499,460.408 83.184,460.408L74.769,460.408C72.456,460.408 70.652,458.515 70.76,456.205L72.467,420.081C72.576,417.77 74.559,415.879 76.872,415.879L81.08,415.879C83.394,415.879 85.377,417.771 85.485,420.081L87.194,456.205Z" />
                                        </svg:clipPath>
                                        <svg:g clip-path="url(#_clip44)">
                                            <svg:g>
                                                <svg:g>
                                                    <svg:path d="M72.691,472.244C72.36,472.244 72.034,472.187 71.714,472.077C68.416,470.927 66.994,464.048 66.441,460.052C65.141,450.664 65.937,438.591 68.946,436.486C69.613,436.019 70.945,435.49 72.387,437.179C76.343,441.822 78.096,459.445 74.091,463.578L73.334,462.847C76.91,459.157 75.115,442.004 71.585,437.863C70.668,436.785 70.014,437.02 69.549,437.347C67.16,439.018 66.138,450.194 67.484,459.907C68.356,466.212 70.066,470.389 72.06,471.085C72.958,471.396 73.98,471.01 75.108,469.934C83.181,462.227 80.668,451.364 77.757,438.785C77.282,436.74 76.801,434.661 76.358,432.556C73.211,417.602 76.243,407.969 76.374,407.567L77.374,407.891C77.343,407.988 74.303,417.681 77.389,432.339C77.83,434.438 78.31,436.51 78.781,438.548C81.642,450.904 84.343,462.575 75.835,470.695C74.752,471.727 73.699,472.244 72.691,472.244Z" style="fill:rgb(232,119,93);fill-rule:nonzero;" />
                                                </svg:g>
                                            </svg:g>
                                            <svg:g>
                                                <svg:g>
                                                    <svg:path d="M86.12,447.06C85.184,447.06 84.335,446.735 83.585,446.088C77.057,440.467 80.398,410.768 80.543,409.507L81.589,409.627C81.554,409.93 78.162,440.029 84.272,445.291C85.066,445.977 85.975,446.166 87.064,445.874C89.725,445.153 91.186,442.638 91.405,438.395C91.847,429.765 86.82,417.263 85.354,416.417C84.764,416.827 83.72,420.344 83.751,425.096C83.771,428.232 84.339,435.735 89.165,437.654L88.777,438.632C83.579,436.565 82.282,428.868 82.798,422.355C82.852,421.681 83.373,415.768 85.173,415.366C87.136,414.91 90.058,423.35 91.194,427.956C92.438,433 94.552,444.941 87.336,446.89C86.916,447.003 86.511,447.06 86.12,447.06Z" style="fill:rgb(232,119,93);fill-rule:nonzero;" />
                                                </svg:g>
                                            </svg:g>
                                        </svg:g>
                                    </svg:g>
                                </svg:g>
                            </svg:g>
                            <svg:g opacity="0.4">
                                <svg:path d="M85.486,420.081C85.378,417.77 83.395,415.879 81.081,415.879L76.873,415.879C76.693,415.879 76.522,415.91 76.348,415.931C78.427,416.195 80.127,417.949 80.228,420.081L81.936,456.205C82.044,458.515 80.24,460.408 77.926,460.408L83.185,460.408C85.499,460.408 87.303,458.515 87.195,456.205L85.486,420.081Z" style="fill:rgb(232,119,93);fill-rule:nonzero;" />
                            </svg:g>
                        </svg:g>
                        <svg:g>
                            <svg:path d="M83.185,460.908L74.77,460.908C73.514,460.908 72.351,460.415 71.497,459.519C70.642,458.622 70.203,457.437 70.262,456.181L71.969,420.057C72.091,417.477 74.291,415.378 76.874,415.378L81.082,415.378C83.666,415.378 85.866,417.477 85.987,420.057L87.695,456.181C87.754,457.437 87.316,458.622 86.46,459.518C85.604,460.415 84.441,460.908 83.185,460.908ZM76.873,416.379C74.816,416.379 73.064,418.05 72.967,420.105L71.26,456.229C71.214,457.21 71.554,458.132 72.219,458.83C72.883,459.525 73.788,459.909 74.769,459.909L83.184,459.909C84.165,459.909 85.071,459.525 85.735,458.83C86.4,458.133 86.74,457.21 86.694,456.229L84.986,420.105C84.89,418.05 83.137,416.379 81.08,416.379L76.873,416.379Z" style="fill:rgb(21,47,71);fill-rule:nonzero;" />
                        </svg:g>
                    </svg:g>
                    <svg:g>
                        <svg:g>
                            <svg:path d="M99.426,375.185C88.522,346.552 78.978,347.797 78.978,347.797C78.978,347.797 69.433,346.552 58.529,375.185C47.624,403.817 37.903,421.706 41.208,424.899C44.513,428.092 55.558,436.936 78.978,436.936C102.398,436.936 113.444,428.092 116.749,424.899C120.052,421.706 110.331,403.816 99.426,375.185Z" style="fill:rgb(118,221,159);fill-rule:nonzero;" />
                        </svg:g>
                        <svg:g>
                            <svg:path d="M116.26,417.31C113.633,408.999 106.804,394.553 99.426,375.184C88.522,346.551 78.978,347.796 78.978,347.796C78.978,347.796 69.433,346.551 58.529,375.184C51.152,394.553 44.323,408.998 41.695,417.31C45.514,420.812 56.589,428.891 78.978,428.891C101.366,428.892 112.44,420.813 116.26,417.31Z" style="fill:rgb(242,165,204);fill-rule:nonzero;" />
                        </svg:g>
                        <svg:g>
                            <svg:path d="M78.977,423.445C58.965,423.445 47.998,416.993 43.167,413.122C42.593,414.649 42.09,416.058 41.694,417.31C45.513,420.812 56.588,428.891 78.977,428.891C101.366,428.891 112.44,420.812 116.259,417.31C115.863,416.058 115.362,414.649 114.787,413.122C109.956,416.993 98.989,423.445 78.977,423.445Z" style="fill:rgb(248,229,229);fill-rule:nonzero;" />
                        </svg:g>
                        <svg:path d="M73.503,350.203C69.706,353.226 64.308,360.007 58.528,375.185C53.796,387.609 49.289,398.006 45.97,406.062C50.128,410.799 55.419,413.64 61.184,413.64C74.555,413.64 85.395,398.377 85.395,379.549C85.396,367.057 80.621,356.139 73.503,350.203Z" style="fill:white;fill-opacity:0.2;fill-rule:nonzero;" />
                    </svg:g>
                    <svg:g>
                        <svg:g>
                            <svg:g>
                                <svg:path d="M67.552,381.047C67.552,381.047 67.595,380.772 67.833,380.467C67.955,380.312 68.121,380.144 68.347,380.021C68.574,379.891 68.856,379.803 69.155,379.805C69.306,379.8 69.449,379.838 69.592,379.871C69.735,379.899 69.852,379.988 69.971,380.044C70.191,380.19 70.355,380.361 70.456,380.537C70.574,380.692 70.609,380.861 70.647,380.964C70.678,381.073 70.686,381.14 70.686,381.14C70.686,381.14 70.622,381.117 70.519,381.072C70.414,381.029 70.291,380.953 70.132,380.893C69.985,380.82 69.815,380.767 69.649,380.705C69.48,380.675 69.319,380.624 69.151,380.64C68.986,380.62 68.809,380.664 68.633,380.697C68.454,380.735 68.282,380.796 68.121,380.845C67.778,380.967 67.552,381.047 67.552,381.047Z" style="fill:rgb(21,47,71);fill-rule:nonzero;" />
                            </svg:g>
                            <svg:g>
                                <svg:path d="M88.137,380.805C88.137,380.805 88.206,380.537 88.482,380.255C88.616,380.113 88.799,379.965 89.038,379.864C89.272,379.761 89.564,379.701 89.86,379.735C90.01,379.744 90.148,379.799 90.29,379.841C90.428,379.888 90.534,379.988 90.649,380.053C90.849,380.226 90.998,380.414 91.077,380.594C91.179,380.764 91.199,380.933 91.227,381.039C91.246,381.152 91.249,381.217 91.249,381.217C91.249,381.217 91.185,381.19 91.087,381.132C90.988,381.085 90.871,380.99 90.723,380.917C90.578,380.829 90.417,380.752 90.262,380.68C90.092,380.63 89.941,380.564 89.771,380.563C89.606,380.53 89.427,380.553 89.25,380.567C89.07,380.588 88.894,380.63 88.726,380.664C88.371,380.747 88.137,380.805 88.137,380.805Z" style="fill:rgb(21,47,71);fill-rule:nonzero;" />
                            </svg:g>
                        </svg:g>
                        <svg:g>
                            <svg:g>
                                <svg:path d="M64.624,388.542C64.339,389.106 64.155,389.719 64.086,390.302C64.005,391.013 65.117,391.005 65.197,390.302C65.38,388.745 66.441,387.45 68.085,387.472C69.752,387.493 70.501,389.37 70.467,390.752C70.449,391.469 71.561,391.467 71.578,390.752C71.634,388.545 70.474,386.336 68.085,386.36C67.293,386.368 66.525,386.645 65.943,387.042C65.111,387.677 64.624,388.542 64.624,388.542Z" style="fill:rgb(21,47,71);fill-rule:nonzero;" />
                            </svg:g>
                            <svg:g>
                                <svg:path d="M93.332,388.542C93.615,389.106 93.8,389.719 93.868,390.302C93.95,391.013 92.838,391.005 92.756,390.302C92.574,388.745 91.514,387.45 89.868,387.472C88.203,387.493 87.453,389.37 87.486,390.752C87.504,391.469 86.393,391.467 86.374,390.752C86.32,388.545 87.481,386.336 89.868,386.36C90.661,386.368 91.429,386.645 92.01,387.042C92.844,387.677 93.332,388.542 93.332,388.542Z" style="fill:rgb(21,47,71);fill-rule:nonzero;" />
                            </svg:g>
                        </svg:g>
                        <svg:g>
                            <svg:g>
                                <svg:path d="M70.177,394.446C70.177,395.832 69.053,396.954 67.666,396.954C66.279,396.954 65.156,395.832 65.156,394.446C65.156,393.058 66.279,391.935 67.666,391.935C69.053,391.935 70.177,393.059 70.177,394.446Z" style="fill:rgb(255,129,206);fill-rule:nonzero;" />
                            </svg:g>
                            <svg:g>
                                <svg:path d="M93.643,394.446C93.643,395.832 92.521,396.954 91.134,396.954C89.747,396.954 88.623,395.832 88.623,394.446C88.623,393.058 89.747,391.935 91.134,391.935C92.52,391.935 93.643,393.059 93.643,394.446Z" style="fill:rgb(255,129,206);fill-rule:nonzero;" />
                            </svg:g>
                        </svg:g>
                        <svg:g>
                            <svg:path d="M80.084,390.865C80.727,390.584 81.144,390.099 81.19,389.5C81.259,388.581 80.079,387.918 78.876,387.873C78.393,387.855 78.395,388.383 78.876,388.4C80.889,388.476 80.891,390.518 78.883,390.599C78.881,390.599 78.878,390.597 78.876,390.597C78.625,390.589 78.508,390.727 78.518,390.863C78.508,391 78.625,391.138 78.876,391.128L78.883,391.128C80.89,391.208 80.889,393.25 78.876,393.326C78.395,393.346 78.393,393.873 78.876,393.854C80.185,393.804 81.119,393.148 81.19,392.226C81.234,391.631 80.753,391.147 80.084,390.865Z" style="fill:rgb(21,47,71);fill-rule:nonzero;" />
                        </svg:g>
                    </svg:g>
                    <svg:g>
                        <svg:g>
                            <svg:path d="M77.004,352.901C77.004,352.901 74.268,358.518 76.14,359.239C78.012,359.959 78.156,354.63 77.004,352.901Z" style="fill:rgb(255,129,206);fill-rule:nonzero;" />
                        </svg:g>
                        <svg:g>
                            <svg:path d="M84.439,367.061C86.442,367.164 84.926,362.053 83.294,360.767C83.295,360.768 82.435,366.957 84.439,367.061" style="fill:rgb(255,129,206);fill-rule:nonzero;" />
                        </svg:g>
                        <svg:g>
                            <svg:path d="M77.411,373.624C79.344,374.159 78.972,368.842 77.657,367.232C77.657,367.232 75.477,373.088 77.411,373.624" style="fill:rgb(255,129,206);fill-rule:nonzero;" />
                        </svg:g>
                        <svg:g>
                            <svg:path d="M68.225,366.387C68.225,366.387 65.489,372.004 67.361,372.725C69.232,373.444 69.377,368.115 68.225,366.387Z" style="fill:rgb(255,129,206);fill-rule:nonzero;" />
                        </svg:g>
                        <svg:g>
                            <svg:path d="M91.533,369.625C91.533,369.625 90.466,375.781 92.465,375.953C94.464,376.125 93.12,370.965 91.533,369.625Z" style="fill:rgb(255,129,206);fill-rule:nonzero;" />
                        </svg:g>
                        <svg:g>
                            <svg:path d="M55.296,400.658C56.997,401.722 58.154,396.519 57.354,394.602C57.353,394.603 53.596,399.595 55.296,400.658" style="fill:rgb(255,129,206);fill-rule:nonzero;" />
                        </svg:g>
                        <svg:g>
                            <svg:path d="M67.475,402.317C67.475,402.317 64.739,407.934 66.611,408.655C68.482,409.375 68.627,404.047 67.475,402.317Z" style="fill:rgb(255,129,206);fill-rule:nonzero;" />
                        </svg:g>
                        <svg:g>
                            <svg:path d="M54.584,413.603C56.518,414.137 56.144,408.821 54.83,407.21C54.83,407.21 52.65,413.066 54.584,413.603" style="fill:rgb(255,129,206);fill-rule:nonzero;" />
                        </svg:g>
                        <svg:g>
                            <svg:path d="M75.324,419.064C77.285,419.491 76.614,414.203 75.213,412.669C75.213,412.669 73.364,418.637 75.324,419.064" style="fill:rgb(255,129,206);fill-rule:nonzero;" />
                        </svg:g>
                        <svg:g>
                            <svg:path d="M84.406,401.968C84.406,401.968 83.596,408.164 85.6,408.252C87.604,408.339 86.048,403.241 84.406,401.968Z" style="fill:rgb(255,129,206);fill-rule:nonzero;" />
                        </svg:g>
                        <svg:g>
                            <svg:path d="M96.693,410.057C96.693,410.057 96.486,416.302 98.49,416.197C100.493,416.089 98.45,411.166 96.693,410.057Z" style="fill:rgb(255,129,206);fill-rule:nonzero;" />
                        </svg:g>
                        <svg:g>
                            <svg:path d="M102.725,400.405C102.725,400.405 102.518,406.65 104.522,406.545C106.524,406.438 104.481,401.515 102.725,400.405Z" style="fill:rgb(255,129,206);fill-rule:nonzero;" />
                        </svg:g>
                    </svg:g>
                    <svg:g>
                        <svg:path d="M78.977,437.435C55.947,437.435 44.648,428.918 40.859,425.257C38.383,422.865 41.875,414.52 48.215,399.368C51.17,392.307 54.519,384.304 58.06,375.006C68.638,347.229 78.024,347.214 78.976,347.294C79.921,347.207 89.313,347.227 99.892,375.006C103.434,384.305 106.783,392.309 109.738,399.371C116.078,414.519 119.569,422.865 117.094,425.257C113.307,428.919 102.007,437.435 78.977,437.435ZM78.827,348.29C77.864,348.29 69.017,349.048 58.996,375.362C55.449,384.676 52.096,392.687 49.139,399.756C43.584,413.03 39.571,422.621 41.555,424.539C45.257,428.116 56.314,436.435 78.978,436.435C101.643,436.435 112.699,428.116 116.401,424.539C118.385,422.622 114.372,413.031 108.817,399.758C105.859,392.69 102.506,384.677 98.959,375.362C88.39,347.609 79.127,348.288 79.038,348.293L78.978,348.3L78.914,348.293C78.908,348.292 78.879,348.29 78.827,348.29Z" style="fill:rgb(21,47,71);fill-rule:nonzero;" />
                    </svg:g>
                </svg:g>
                <svg:g>
                    <svg:g>
                        <svg:path d="M71.753,357.075C66.589,364.475 62.399,373.04 60.076,381.755C59.868,382.533 61.074,382.865 61.281,382.087C63.578,373.471 67.726,365.023 72.832,357.705C73.294,357.045 72.21,356.419 71.753,357.075Z" style="fill:white;fill-rule:nonzero;" />
                    </svg:g>
                    <svg:path d="M60.599,385.272C60.599,385.733 60.225,386.107 59.764,386.107C59.303,386.107 58.929,385.733 58.929,385.272C58.929,384.811 59.303,384.437 59.764,384.437C60.225,384.437 60.599,384.811 60.599,385.272Z" style="fill:white;fill-rule:nonzero;" />
                </svg:g>
            </svg:g>
            <svg:g transform="matrix(0.237823,0,0,0.237823,910.31,93.0677)">
                <svg:g>
                    <svg:g>
                        <svg:g>
                            <svg:g>
                                <svg:g>
                                    <svg:path d="M87.194,456.205C87.302,458.515 85.499,460.408 83.184,460.408L74.769,460.408C72.456,460.408 70.652,458.515 70.76,456.205L72.467,420.081C72.576,417.77 74.559,415.879 76.872,415.879L81.08,415.879C83.394,415.879 85.377,417.771 85.485,420.081L87.194,456.205Z" style="fill:rgb(255,183,160);fill-rule:nonzero;" />
                                </svg:g>
                                <svg:g>
                                    <svg:g>
                                        <svg:clipPath id="_clip45">
                                            <svg:path d="M87.194,456.205C87.302,458.515 85.499,460.408 83.184,460.408L74.769,460.408C72.456,460.408 70.652,458.515 70.76,456.205L72.467,420.081C72.576,417.77 74.559,415.879 76.872,415.879L81.08,415.879C83.394,415.879 85.377,417.771 85.485,420.081L87.194,456.205Z" />
                                        </svg:clipPath>
                                        <svg:g clip-path="url(#_clip45)">
                                            <svg:g>
                                                <svg:g>
                                                    <svg:path d="M72.691,472.244C72.36,472.244 72.034,472.187 71.714,472.077C68.416,470.927 66.994,464.048 66.441,460.052C65.141,450.664 65.937,438.591 68.946,436.486C69.613,436.019 70.945,435.49 72.387,437.179C76.343,441.822 78.096,459.445 74.091,463.578L73.334,462.847C76.91,459.157 75.115,442.004 71.585,437.863C70.668,436.785 70.014,437.02 69.549,437.347C67.16,439.018 66.138,450.194 67.484,459.907C68.356,466.212 70.066,470.389 72.06,471.085C72.958,471.396 73.98,471.01 75.108,469.934C83.181,462.227 80.668,451.364 77.757,438.785C77.282,436.74 76.801,434.661 76.358,432.556C73.211,417.602 76.243,407.969 76.374,407.567L77.374,407.891C77.343,407.988 74.303,417.681 77.389,432.339C77.83,434.438 78.31,436.51 78.781,438.548C81.642,450.904 84.343,462.575 75.835,470.695C74.752,471.727 73.699,472.244 72.691,472.244Z" style="fill:rgb(232,119,93);fill-rule:nonzero;" />
                                                </svg:g>
                                            </svg:g>
                                            <svg:g>
                                                <svg:g>
                                                    <svg:path d="M86.12,447.06C85.184,447.06 84.335,446.735 83.585,446.088C77.057,440.467 80.398,410.768 80.543,409.507L81.589,409.627C81.554,409.93 78.162,440.029 84.272,445.291C85.066,445.977 85.975,446.166 87.064,445.874C89.725,445.153 91.186,442.638 91.405,438.395C91.847,429.765 86.82,417.263 85.354,416.417C84.764,416.827 83.72,420.344 83.751,425.096C83.771,428.232 84.339,435.735 89.165,437.654L88.777,438.632C83.579,436.565 82.282,428.868 82.798,422.355C82.852,421.681 83.373,415.768 85.173,415.366C87.136,414.91 90.058,423.35 91.194,427.956C92.438,433 94.552,444.941 87.336,446.89C86.916,447.003 86.511,447.06 86.12,447.06Z" style="fill:rgb(232,119,93);fill-rule:nonzero;" />
                                                </svg:g>
                                            </svg:g>
                                        </svg:g>
                                    </svg:g>
                                </svg:g>
                            </svg:g>
                            <svg:g opacity="0.4">
                                <svg:path d="M85.486,420.081C85.378,417.77 83.395,415.879 81.081,415.879L76.873,415.879C76.693,415.879 76.522,415.91 76.348,415.931C78.427,416.195 80.127,417.949 80.228,420.081L81.936,456.205C82.044,458.515 80.24,460.408 77.926,460.408L83.185,460.408C85.499,460.408 87.303,458.515 87.195,456.205L85.486,420.081Z" style="fill:rgb(232,119,93);fill-rule:nonzero;" />
                            </svg:g>
                        </svg:g>
                        <svg:g>
                            <svg:path d="M83.185,460.908L74.77,460.908C73.514,460.908 72.351,460.415 71.497,459.519C70.642,458.622 70.203,457.437 70.262,456.181L71.969,420.057C72.091,417.477 74.291,415.378 76.874,415.378L81.082,415.378C83.666,415.378 85.866,417.477 85.987,420.057L87.695,456.181C87.754,457.437 87.316,458.622 86.46,459.518C85.604,460.415 84.441,460.908 83.185,460.908ZM76.873,416.379C74.816,416.379 73.064,418.05 72.967,420.105L71.26,456.229C71.214,457.21 71.554,458.132 72.219,458.83C72.883,459.525 73.788,459.909 74.769,459.909L83.184,459.909C84.165,459.909 85.071,459.525 85.735,458.83C86.4,458.133 86.74,457.21 86.694,456.229L84.986,420.105C84.89,418.05 83.137,416.379 81.08,416.379L76.873,416.379Z" style="fill:rgb(21,47,71);fill-rule:nonzero;" />
                        </svg:g>
                    </svg:g>
                    <svg:g>
                        <svg:g>
                            <svg:path d="M99.426,375.185C88.522,346.552 78.978,347.797 78.978,347.797C78.978,347.797 69.433,346.552 58.529,375.185C47.624,403.817 37.903,421.706 41.208,424.899C44.513,428.092 55.558,436.936 78.978,436.936C102.398,436.936 113.444,428.092 116.749,424.899C120.052,421.706 110.331,403.816 99.426,375.185Z" style="fill:rgb(118,221,159);fill-rule:nonzero;" />
                        </svg:g>
                        <svg:g>
                            <svg:path d="M116.26,417.31C113.633,408.999 106.804,394.553 99.426,375.184C88.522,346.551 78.978,347.796 78.978,347.796C78.978,347.796 69.433,346.551 58.529,375.184C51.152,394.553 44.323,408.998 41.695,417.31C45.514,420.812 56.589,428.891 78.978,428.891C101.366,428.892 112.44,420.813 116.26,417.31Z" style="fill:rgb(242,165,204);fill-rule:nonzero;" />
                        </svg:g>
                        <svg:g>
                            <svg:path d="M78.977,423.445C58.965,423.445 47.998,416.993 43.167,413.122C42.593,414.649 42.09,416.058 41.694,417.31C45.513,420.812 56.588,428.891 78.977,428.891C101.366,428.891 112.44,420.812 116.259,417.31C115.863,416.058 115.362,414.649 114.787,413.122C109.956,416.993 98.989,423.445 78.977,423.445Z" style="fill:rgb(248,229,229);fill-rule:nonzero;" />
                        </svg:g>
                        <svg:path d="M73.503,350.203C69.706,353.226 64.308,360.007 58.528,375.185C53.796,387.609 49.289,398.006 45.97,406.062C50.128,410.799 55.419,413.64 61.184,413.64C74.555,413.64 85.395,398.377 85.395,379.549C85.396,367.057 80.621,356.139 73.503,350.203Z" style="fill:white;fill-opacity:0.2;fill-rule:nonzero;" />
                    </svg:g>
                    <svg:g>
                        <svg:g>
                            <svg:g>
                                <svg:path d="M67.552,381.047C67.552,381.047 67.595,380.772 67.833,380.467C67.955,380.312 68.121,380.144 68.347,380.021C68.574,379.891 68.856,379.803 69.155,379.805C69.306,379.8 69.449,379.838 69.592,379.871C69.735,379.899 69.852,379.988 69.971,380.044C70.191,380.19 70.355,380.361 70.456,380.537C70.574,380.692 70.609,380.861 70.647,380.964C70.678,381.073 70.686,381.14 70.686,381.14C70.686,381.14 70.622,381.117 70.519,381.072C70.414,381.029 70.291,380.953 70.132,380.893C69.985,380.82 69.815,380.767 69.649,380.705C69.48,380.675 69.319,380.624 69.151,380.64C68.986,380.62 68.809,380.664 68.633,380.697C68.454,380.735 68.282,380.796 68.121,380.845C67.778,380.967 67.552,381.047 67.552,381.047Z" style="fill:rgb(21,47,71);fill-rule:nonzero;" />
                            </svg:g>
                            <svg:g>
                                <svg:path d="M88.137,380.805C88.137,380.805 88.206,380.537 88.482,380.255C88.616,380.113 88.799,379.965 89.038,379.864C89.272,379.761 89.564,379.701 89.86,379.735C90.01,379.744 90.148,379.799 90.29,379.841C90.428,379.888 90.534,379.988 90.649,380.053C90.849,380.226 90.998,380.414 91.077,380.594C91.179,380.764 91.199,380.933 91.227,381.039C91.246,381.152 91.249,381.217 91.249,381.217C91.249,381.217 91.185,381.19 91.087,381.132C90.988,381.085 90.871,380.99 90.723,380.917C90.578,380.829 90.417,380.752 90.262,380.68C90.092,380.63 89.941,380.564 89.771,380.563C89.606,380.53 89.427,380.553 89.25,380.567C89.07,380.588 88.894,380.63 88.726,380.664C88.371,380.747 88.137,380.805 88.137,380.805Z" style="fill:rgb(21,47,71);fill-rule:nonzero;" />
                            </svg:g>
                        </svg:g>
                        <svg:g>
                            <svg:g>
                                <svg:path d="M64.624,388.542C64.339,389.106 64.155,389.719 64.086,390.302C64.005,391.013 65.117,391.005 65.197,390.302C65.38,388.745 66.441,387.45 68.085,387.472C69.752,387.493 70.501,389.37 70.467,390.752C70.449,391.469 71.561,391.467 71.578,390.752C71.634,388.545 70.474,386.336 68.085,386.36C67.293,386.368 66.525,386.645 65.943,387.042C65.111,387.677 64.624,388.542 64.624,388.542Z" style="fill:rgb(21,47,71);fill-rule:nonzero;" />
                            </svg:g>
                            <svg:g>
                                <svg:path d="M93.332,388.542C93.615,389.106 93.8,389.719 93.868,390.302C93.95,391.013 92.838,391.005 92.756,390.302C92.574,388.745 91.514,387.45 89.868,387.472C88.203,387.493 87.453,389.37 87.486,390.752C87.504,391.469 86.393,391.467 86.374,390.752C86.32,388.545 87.481,386.336 89.868,386.36C90.661,386.368 91.429,386.645 92.01,387.042C92.844,387.677 93.332,388.542 93.332,388.542Z" style="fill:rgb(21,47,71);fill-rule:nonzero;" />
                            </svg:g>
                        </svg:g>
                        <svg:g>
                            <svg:g>
                                <svg:path d="M70.177,394.446C70.177,395.832 69.053,396.954 67.666,396.954C66.279,396.954 65.156,395.832 65.156,394.446C65.156,393.058 66.279,391.935 67.666,391.935C69.053,391.935 70.177,393.059 70.177,394.446Z" style="fill:rgb(255,129,206);fill-rule:nonzero;" />
                            </svg:g>
                            <svg:g>
                                <svg:path d="M93.643,394.446C93.643,395.832 92.521,396.954 91.134,396.954C89.747,396.954 88.623,395.832 88.623,394.446C88.623,393.058 89.747,391.935 91.134,391.935C92.52,391.935 93.643,393.059 93.643,394.446Z" style="fill:rgb(255,129,206);fill-rule:nonzero;" />
                            </svg:g>
                        </svg:g>
                        <svg:g>
                            <svg:path d="M80.084,390.865C80.727,390.584 81.144,390.099 81.19,389.5C81.259,388.581 80.079,387.918 78.876,387.873C78.393,387.855 78.395,388.383 78.876,388.4C80.889,388.476 80.891,390.518 78.883,390.599C78.881,390.599 78.878,390.597 78.876,390.597C78.625,390.589 78.508,390.727 78.518,390.863C78.508,391 78.625,391.138 78.876,391.128L78.883,391.128C80.89,391.208 80.889,393.25 78.876,393.326C78.395,393.346 78.393,393.873 78.876,393.854C80.185,393.804 81.119,393.148 81.19,392.226C81.234,391.631 80.753,391.147 80.084,390.865Z" style="fill:rgb(21,47,71);fill-rule:nonzero;" />
                        </svg:g>
                    </svg:g>
                    <svg:g>
                        <svg:g>
                            <svg:path d="M77.004,352.901C77.004,352.901 74.268,358.518 76.14,359.239C78.012,359.959 78.156,354.63 77.004,352.901Z" style="fill:rgb(255,129,206);fill-rule:nonzero;" />
                        </svg:g>
                        <svg:g>
                            <svg:path d="M84.439,367.061C86.442,367.164 84.926,362.053 83.294,360.767C83.295,360.768 82.435,366.957 84.439,367.061" style="fill:rgb(255,129,206);fill-rule:nonzero;" />
                        </svg:g>
                        <svg:g>
                            <svg:path d="M77.411,373.624C79.344,374.159 78.972,368.842 77.657,367.232C77.657,367.232 75.477,373.088 77.411,373.624" style="fill:rgb(255,129,206);fill-rule:nonzero;" />
                        </svg:g>
                        <svg:g>
                            <svg:path d="M68.225,366.387C68.225,366.387 65.489,372.004 67.361,372.725C69.232,373.444 69.377,368.115 68.225,366.387Z" style="fill:rgb(255,129,206);fill-rule:nonzero;" />
                        </svg:g>
                        <svg:g>
                            <svg:path d="M91.533,369.625C91.533,369.625 90.466,375.781 92.465,375.953C94.464,376.125 93.12,370.965 91.533,369.625Z" style="fill:rgb(255,129,206);fill-rule:nonzero;" />
                        </svg:g>
                        <svg:g>
                            <svg:path d="M55.296,400.658C56.997,401.722 58.154,396.519 57.354,394.602C57.353,394.603 53.596,399.595 55.296,400.658" style="fill:rgb(255,129,206);fill-rule:nonzero;" />
                        </svg:g>
                        <svg:g>
                            <svg:path d="M67.475,402.317C67.475,402.317 64.739,407.934 66.611,408.655C68.482,409.375 68.627,404.047 67.475,402.317Z" style="fill:rgb(255,129,206);fill-rule:nonzero;" />
                        </svg:g>
                        <svg:g>
                            <svg:path d="M54.584,413.603C56.518,414.137 56.144,408.821 54.83,407.21C54.83,407.21 52.65,413.066 54.584,413.603" style="fill:rgb(255,129,206);fill-rule:nonzero;" />
                        </svg:g>
                        <svg:g>
                            <svg:path d="M75.324,419.064C77.285,419.491 76.614,414.203 75.213,412.669C75.213,412.669 73.364,418.637 75.324,419.064" style="fill:rgb(255,129,206);fill-rule:nonzero;" />
                        </svg:g>
                        <svg:g>
                            <svg:path d="M84.406,401.968C84.406,401.968 83.596,408.164 85.6,408.252C87.604,408.339 86.048,403.241 84.406,401.968Z" style="fill:rgb(255,129,206);fill-rule:nonzero;" />
                        </svg:g>
                        <svg:g>
                            <svg:path d="M96.693,410.057C96.693,410.057 96.486,416.302 98.49,416.197C100.493,416.089 98.45,411.166 96.693,410.057Z" style="fill:rgb(255,129,206);fill-rule:nonzero;" />
                        </svg:g>
                        <svg:g>
                            <svg:path d="M102.725,400.405C102.725,400.405 102.518,406.65 104.522,406.545C106.524,406.438 104.481,401.515 102.725,400.405Z" style="fill:rgb(255,129,206);fill-rule:nonzero;" />
                        </svg:g>
                    </svg:g>
                    <svg:g>
                        <svg:path d="M78.977,437.435C55.947,437.435 44.648,428.918 40.859,425.257C38.383,422.865 41.875,414.52 48.215,399.368C51.17,392.307 54.519,384.304 58.06,375.006C68.638,347.229 78.024,347.214 78.976,347.294C79.921,347.207 89.313,347.227 99.892,375.006C103.434,384.305 106.783,392.309 109.738,399.371C116.078,414.519 119.569,422.865 117.094,425.257C113.307,428.919 102.007,437.435 78.977,437.435ZM78.827,348.29C77.864,348.29 69.017,349.048 58.996,375.362C55.449,384.676 52.096,392.687 49.139,399.756C43.584,413.03 39.571,422.621 41.555,424.539C45.257,428.116 56.314,436.435 78.978,436.435C101.643,436.435 112.699,428.116 116.401,424.539C118.385,422.622 114.372,413.031 108.817,399.758C105.859,392.69 102.506,384.677 98.959,375.362C88.39,347.609 79.127,348.288 79.038,348.293L78.978,348.3L78.914,348.293C78.908,348.292 78.879,348.29 78.827,348.29Z" style="fill:rgb(21,47,71);fill-rule:nonzero;" />
                    </svg:g>
                </svg:g>
                <svg:g>
                    <svg:g>
                        <svg:path d="M71.753,357.075C66.589,364.475 62.399,373.04 60.076,381.755C59.868,382.533 61.074,382.865 61.281,382.087C63.578,373.471 67.726,365.023 72.832,357.705C73.294,357.045 72.21,356.419 71.753,357.075Z" style="fill:white;fill-rule:nonzero;" />
                    </svg:g>
                    <svg:path d="M60.599,385.272C60.599,385.733 60.225,386.107 59.764,386.107C59.303,386.107 58.929,385.733 58.929,385.272C58.929,384.811 59.303,384.437 59.764,384.437C60.225,384.437 60.599,384.811 60.599,385.272Z" style="fill:white;fill-rule:nonzero;" />
                </svg:g>
            </svg:g>
            <svg:g transform="matrix(0.237823,0,0,0.237823,935.959,92.8544)">
                <svg:g>
                    <svg:g>
                        <svg:g>
                            <svg:g>
                                <svg:g>
                                    <svg:path d="M87.194,456.205C87.302,458.515 85.499,460.408 83.184,460.408L74.769,460.408C72.456,460.408 70.652,458.515 70.76,456.205L72.467,420.081C72.576,417.77 74.559,415.879 76.872,415.879L81.08,415.879C83.394,415.879 85.377,417.771 85.485,420.081L87.194,456.205Z" style="fill:rgb(255,183,160);fill-rule:nonzero;" />
                                </svg:g>
                                <svg:g>
                                    <svg:g>
                                        <svg:clipPath id="_clip46">
                                            <svg:path d="M87.194,456.205C87.302,458.515 85.499,460.408 83.184,460.408L74.769,460.408C72.456,460.408 70.652,458.515 70.76,456.205L72.467,420.081C72.576,417.77 74.559,415.879 76.872,415.879L81.08,415.879C83.394,415.879 85.377,417.771 85.485,420.081L87.194,456.205Z" />
                                        </svg:clipPath>
                                        <svg:g clip-path="url(#_clip46)">
                                            <svg:g>
                                                <svg:g>
                                                    <svg:path d="M72.691,472.244C72.36,472.244 72.034,472.187 71.714,472.077C68.416,470.927 66.994,464.048 66.441,460.052C65.141,450.664 65.937,438.591 68.946,436.486C69.613,436.019 70.945,435.49 72.387,437.179C76.343,441.822 78.096,459.445 74.091,463.578L73.334,462.847C76.91,459.157 75.115,442.004 71.585,437.863C70.668,436.785 70.014,437.02 69.549,437.347C67.16,439.018 66.138,450.194 67.484,459.907C68.356,466.212 70.066,470.389 72.06,471.085C72.958,471.396 73.98,471.01 75.108,469.934C83.181,462.227 80.668,451.364 77.757,438.785C77.282,436.74 76.801,434.661 76.358,432.556C73.211,417.602 76.243,407.969 76.374,407.567L77.374,407.891C77.343,407.988 74.303,417.681 77.389,432.339C77.83,434.438 78.31,436.51 78.781,438.548C81.642,450.904 84.343,462.575 75.835,470.695C74.752,471.727 73.699,472.244 72.691,472.244Z" style="fill:rgb(232,119,93);fill-rule:nonzero;" />
                                                </svg:g>
                                            </svg:g>
                                            <svg:g>
                                                <svg:g>
                                                    <svg:path d="M86.12,447.06C85.184,447.06 84.335,446.735 83.585,446.088C77.057,440.467 80.398,410.768 80.543,409.507L81.589,409.627C81.554,409.93 78.162,440.029 84.272,445.291C85.066,445.977 85.975,446.166 87.064,445.874C89.725,445.153 91.186,442.638 91.405,438.395C91.847,429.765 86.82,417.263 85.354,416.417C84.764,416.827 83.72,420.344 83.751,425.096C83.771,428.232 84.339,435.735 89.165,437.654L88.777,438.632C83.579,436.565 82.282,428.868 82.798,422.355C82.852,421.681 83.373,415.768 85.173,415.366C87.136,414.91 90.058,423.35 91.194,427.956C92.438,433 94.552,444.941 87.336,446.89C86.916,447.003 86.511,447.06 86.12,447.06Z" style="fill:rgb(232,119,93);fill-rule:nonzero;" />
                                                </svg:g>
                                            </svg:g>
                                        </svg:g>
                                    </svg:g>
                                </svg:g>
                            </svg:g>
                            <svg:g opacity="0.4">
                                <svg:path d="M85.486,420.081C85.378,417.77 83.395,415.879 81.081,415.879L76.873,415.879C76.693,415.879 76.522,415.91 76.348,415.931C78.427,416.195 80.127,417.949 80.228,420.081L81.936,456.205C82.044,458.515 80.24,460.408 77.926,460.408L83.185,460.408C85.499,460.408 87.303,458.515 87.195,456.205L85.486,420.081Z" style="fill:rgb(232,119,93);fill-rule:nonzero;" />
                            </svg:g>
                        </svg:g>
                        <svg:g>
                            <svg:path d="M83.185,460.908L74.77,460.908C73.514,460.908 72.351,460.415 71.497,459.519C70.642,458.622 70.203,457.437 70.262,456.181L71.969,420.057C72.091,417.477 74.291,415.378 76.874,415.378L81.082,415.378C83.666,415.378 85.866,417.477 85.987,420.057L87.695,456.181C87.754,457.437 87.316,458.622 86.46,459.518C85.604,460.415 84.441,460.908 83.185,460.908ZM76.873,416.379C74.816,416.379 73.064,418.05 72.967,420.105L71.26,456.229C71.214,457.21 71.554,458.132 72.219,458.83C72.883,459.525 73.788,459.909 74.769,459.909L83.184,459.909C84.165,459.909 85.071,459.525 85.735,458.83C86.4,458.133 86.74,457.21 86.694,456.229L84.986,420.105C84.89,418.05 83.137,416.379 81.08,416.379L76.873,416.379Z" style="fill:rgb(21,47,71);fill-rule:nonzero;" />
                        </svg:g>
                    </svg:g>
                    <svg:g>
                        <svg:g>
                            <svg:path d="M99.426,375.185C88.522,346.552 78.978,347.797 78.978,347.797C78.978,347.797 69.433,346.552 58.529,375.185C47.624,403.817 37.903,421.706 41.208,424.899C44.513,428.092 55.558,436.936 78.978,436.936C102.398,436.936 113.444,428.092 116.749,424.899C120.052,421.706 110.331,403.816 99.426,375.185Z" style="fill:rgb(118,221,159);fill-rule:nonzero;" />
                        </svg:g>
                        <svg:g>
                            <svg:path d="M116.26,417.31C113.633,408.999 106.804,394.553 99.426,375.184C88.522,346.551 78.978,347.796 78.978,347.796C78.978,347.796 69.433,346.551 58.529,375.184C51.152,394.553 44.323,408.998 41.695,417.31C45.514,420.812 56.589,428.891 78.978,428.891C101.366,428.892 112.44,420.813 116.26,417.31Z" style="fill:rgb(242,165,204);fill-rule:nonzero;" />
                        </svg:g>
                        <svg:g>
                            <svg:path d="M78.977,423.445C58.965,423.445 47.998,416.993 43.167,413.122C42.593,414.649 42.09,416.058 41.694,417.31C45.513,420.812 56.588,428.891 78.977,428.891C101.366,428.891 112.44,420.812 116.259,417.31C115.863,416.058 115.362,414.649 114.787,413.122C109.956,416.993 98.989,423.445 78.977,423.445Z" style="fill:rgb(248,229,229);fill-rule:nonzero;" />
                        </svg:g>
                        <svg:path d="M73.503,350.203C69.706,353.226 64.308,360.007 58.528,375.185C53.796,387.609 49.289,398.006 45.97,406.062C50.128,410.799 55.419,413.64 61.184,413.64C74.555,413.64 85.395,398.377 85.395,379.549C85.396,367.057 80.621,356.139 73.503,350.203Z" style="fill:white;fill-opacity:0.2;fill-rule:nonzero;" />
                    </svg:g>
                    <svg:g>
                        <svg:g>
                            <svg:g>
                                <svg:path d="M67.552,381.047C67.552,381.047 67.595,380.772 67.833,380.467C67.955,380.312 68.121,380.144 68.347,380.021C68.574,379.891 68.856,379.803 69.155,379.805C69.306,379.8 69.449,379.838 69.592,379.871C69.735,379.899 69.852,379.988 69.971,380.044C70.191,380.19 70.355,380.361 70.456,380.537C70.574,380.692 70.609,380.861 70.647,380.964C70.678,381.073 70.686,381.14 70.686,381.14C70.686,381.14 70.622,381.117 70.519,381.072C70.414,381.029 70.291,380.953 70.132,380.893C69.985,380.82 69.815,380.767 69.649,380.705C69.48,380.675 69.319,380.624 69.151,380.64C68.986,380.62 68.809,380.664 68.633,380.697C68.454,380.735 68.282,380.796 68.121,380.845C67.778,380.967 67.552,381.047 67.552,381.047Z" style="fill:rgb(21,47,71);fill-rule:nonzero;" />
                            </svg:g>
                            <svg:g>
                                <svg:path d="M88.137,380.805C88.137,380.805 88.206,380.537 88.482,380.255C88.616,380.113 88.799,379.965 89.038,379.864C89.272,379.761 89.564,379.701 89.86,379.735C90.01,379.744 90.148,379.799 90.29,379.841C90.428,379.888 90.534,379.988 90.649,380.053C90.849,380.226 90.998,380.414 91.077,380.594C91.179,380.764 91.199,380.933 91.227,381.039C91.246,381.152 91.249,381.217 91.249,381.217C91.249,381.217 91.185,381.19 91.087,381.132C90.988,381.085 90.871,380.99 90.723,380.917C90.578,380.829 90.417,380.752 90.262,380.68C90.092,380.63 89.941,380.564 89.771,380.563C89.606,380.53 89.427,380.553 89.25,380.567C89.07,380.588 88.894,380.63 88.726,380.664C88.371,380.747 88.137,380.805 88.137,380.805Z" style="fill:rgb(21,47,71);fill-rule:nonzero;" />
                            </svg:g>
                        </svg:g>
                        <svg:g>
                            <svg:g>
                                <svg:path d="M64.624,388.542C64.339,389.106 64.155,389.719 64.086,390.302C64.005,391.013 65.117,391.005 65.197,390.302C65.38,388.745 66.441,387.45 68.085,387.472C69.752,387.493 70.501,389.37 70.467,390.752C70.449,391.469 71.561,391.467 71.578,390.752C71.634,388.545 70.474,386.336 68.085,386.36C67.293,386.368 66.525,386.645 65.943,387.042C65.111,387.677 64.624,388.542 64.624,388.542Z" style="fill:rgb(21,47,71);fill-rule:nonzero;" />
                            </svg:g>
                            <svg:g>
                                <svg:path d="M93.332,388.542C93.615,389.106 93.8,389.719 93.868,390.302C93.95,391.013 92.838,391.005 92.756,390.302C92.574,388.745 91.514,387.45 89.868,387.472C88.203,387.493 87.453,389.37 87.486,390.752C87.504,391.469 86.393,391.467 86.374,390.752C86.32,388.545 87.481,386.336 89.868,386.36C90.661,386.368 91.429,386.645 92.01,387.042C92.844,387.677 93.332,388.542 93.332,388.542Z" style="fill:rgb(21,47,71);fill-rule:nonzero;" />
                            </svg:g>
                        </svg:g>
                        <svg:g>
                            <svg:g>
                                <svg:path d="M70.177,394.446C70.177,395.832 69.053,396.954 67.666,396.954C66.279,396.954 65.156,395.832 65.156,394.446C65.156,393.058 66.279,391.935 67.666,391.935C69.053,391.935 70.177,393.059 70.177,394.446Z" style="fill:rgb(255,129,206);fill-rule:nonzero;" />
                            </svg:g>
                            <svg:g>
                                <svg:path d="M93.643,394.446C93.643,395.832 92.521,396.954 91.134,396.954C89.747,396.954 88.623,395.832 88.623,394.446C88.623,393.058 89.747,391.935 91.134,391.935C92.52,391.935 93.643,393.059 93.643,394.446Z" style="fill:rgb(255,129,206);fill-rule:nonzero;" />
                            </svg:g>
                        </svg:g>
                        <svg:g>
                            <svg:path d="M80.084,390.865C80.727,390.584 81.144,390.099 81.19,389.5C81.259,388.581 80.079,387.918 78.876,387.873C78.393,387.855 78.395,388.383 78.876,388.4C80.889,388.476 80.891,390.518 78.883,390.599C78.881,390.599 78.878,390.597 78.876,390.597C78.625,390.589 78.508,390.727 78.518,390.863C78.508,391 78.625,391.138 78.876,391.128L78.883,391.128C80.89,391.208 80.889,393.25 78.876,393.326C78.395,393.346 78.393,393.873 78.876,393.854C80.185,393.804 81.119,393.148 81.19,392.226C81.234,391.631 80.753,391.147 80.084,390.865Z" style="fill:rgb(21,47,71);fill-rule:nonzero;" />
                        </svg:g>
                    </svg:g>
                    <svg:g>
                        <svg:g>
                            <svg:path d="M77.004,352.901C77.004,352.901 74.268,358.518 76.14,359.239C78.012,359.959 78.156,354.63 77.004,352.901Z" style="fill:rgb(255,129,206);fill-rule:nonzero;" />
                        </svg:g>
                        <svg:g>
                            <svg:path d="M84.439,367.061C86.442,367.164 84.926,362.053 83.294,360.767C83.295,360.768 82.435,366.957 84.439,367.061" style="fill:rgb(255,129,206);fill-rule:nonzero;" />
                        </svg:g>
                        <svg:g>
                            <svg:path d="M77.411,373.624C79.344,374.159 78.972,368.842 77.657,367.232C77.657,367.232 75.477,373.088 77.411,373.624" style="fill:rgb(255,129,206);fill-rule:nonzero;" />
                        </svg:g>
                        <svg:g>
                            <svg:path d="M68.225,366.387C68.225,366.387 65.489,372.004 67.361,372.725C69.232,373.444 69.377,368.115 68.225,366.387Z" style="fill:rgb(255,129,206);fill-rule:nonzero;" />
                        </svg:g>
                        <svg:g>
                            <svg:path d="M91.533,369.625C91.533,369.625 90.466,375.781 92.465,375.953C94.464,376.125 93.12,370.965 91.533,369.625Z" style="fill:rgb(255,129,206);fill-rule:nonzero;" />
                        </svg:g>
                        <svg:g>
                            <svg:path d="M55.296,400.658C56.997,401.722 58.154,396.519 57.354,394.602C57.353,394.603 53.596,399.595 55.296,400.658" style="fill:rgb(255,129,206);fill-rule:nonzero;" />
                        </svg:g>
                        <svg:g>
                            <svg:path d="M67.475,402.317C67.475,402.317 64.739,407.934 66.611,408.655C68.482,409.375 68.627,404.047 67.475,402.317Z" style="fill:rgb(255,129,206);fill-rule:nonzero;" />
                        </svg:g>
                        <svg:g>
                            <svg:path d="M54.584,413.603C56.518,414.137 56.144,408.821 54.83,407.21C54.83,407.21 52.65,413.066 54.584,413.603" style="fill:rgb(255,129,206);fill-rule:nonzero;" />
                        </svg:g>
                        <svg:g>
                            <svg:path d="M75.324,419.064C77.285,419.491 76.614,414.203 75.213,412.669C75.213,412.669 73.364,418.637 75.324,419.064" style="fill:rgb(255,129,206);fill-rule:nonzero;" />
                        </svg:g>
                        <svg:g>
                            <svg:path d="M84.406,401.968C84.406,401.968 83.596,408.164 85.6,408.252C87.604,408.339 86.048,403.241 84.406,401.968Z" style="fill:rgb(255,129,206);fill-rule:nonzero;" />
                        </svg:g>
                        <svg:g>
                            <svg:path d="M96.693,410.057C96.693,410.057 96.486,416.302 98.49,416.197C100.493,416.089 98.45,411.166 96.693,410.057Z" style="fill:rgb(255,129,206);fill-rule:nonzero;" />
                        </svg:g>
                        <svg:g>
                            <svg:path d="M102.725,400.405C102.725,400.405 102.518,406.65 104.522,406.545C106.524,406.438 104.481,401.515 102.725,400.405Z" style="fill:rgb(255,129,206);fill-rule:nonzero;" />
                        </svg:g>
                    </svg:g>
                    <svg:g>
                        <svg:path d="M78.977,437.435C55.947,437.435 44.648,428.918 40.859,425.257C38.383,422.865 41.875,414.52 48.215,399.368C51.17,392.307 54.519,384.304 58.06,375.006C68.638,347.229 78.024,347.214 78.976,347.294C79.921,347.207 89.313,347.227 99.892,375.006C103.434,384.305 106.783,392.309 109.738,399.371C116.078,414.519 119.569,422.865 117.094,425.257C113.307,428.919 102.007,437.435 78.977,437.435ZM78.827,348.29C77.864,348.29 69.017,349.048 58.996,375.362C55.449,384.676 52.096,392.687 49.139,399.756C43.584,413.03 39.571,422.621 41.555,424.539C45.257,428.116 56.314,436.435 78.978,436.435C101.643,436.435 112.699,428.116 116.401,424.539C118.385,422.622 114.372,413.031 108.817,399.758C105.859,392.69 102.506,384.677 98.959,375.362C88.39,347.609 79.127,348.288 79.038,348.293L78.978,348.3L78.914,348.293C78.908,348.292 78.879,348.29 78.827,348.29Z" style="fill:rgb(21,47,71);fill-rule:nonzero;" />
                    </svg:g>
                </svg:g>
                <svg:g>
                    <svg:g>
                        <svg:path d="M71.753,357.075C66.589,364.475 62.399,373.04 60.076,381.755C59.868,382.533 61.074,382.865 61.281,382.087C63.578,373.471 67.726,365.023 72.832,357.705C73.294,357.045 72.21,356.419 71.753,357.075Z" style="fill:white;fill-rule:nonzero;" />
                    </svg:g>
                    <svg:path d="M60.599,385.272C60.599,385.733 60.225,386.107 59.764,386.107C59.303,386.107 58.929,385.733 58.929,385.272C58.929,384.811 59.303,384.437 59.764,384.437C60.225,384.437 60.599,384.811 60.599,385.272Z" style="fill:white;fill-rule:nonzero;" />
                </svg:g>
            </svg:g>
        </svg:g>
    </g>
</svg>