<?xml version='1.0' encoding='UTF-8'?>
<svg xmlns="http://www.w3.org/2000/svg" xmlns:xlink="http://www.w3.org/1999/xlink" xmlns:svg="http://www.w3.org/2000/svg" xmlns:serif="http://www.serif.com/" height="100%" style="fill-rule:evenodd;clip-rule:evenodd;" version="1.1" viewBox="860.0 284.286 120.0 51.429" width="100%">
    <g>
        <svg:rect x="860" y="284.286" width="120" height="51.429" style="fill:rgb(255,138,216);" />
        <svg:g>
            <svg:g transform="matrix(0.334609,0,0,0.334609,807.692,170.302)">
                <svg:path d="M403.78,391.295L403.774,391.295L355.623,394.418L355.623,457.201C355.623,467.746 361.342,476.668 403.774,476.668L403.78,476.668C446.212,476.667 451.931,467.745 451.931,457.201L451.931,394.418L403.78,391.295Z" style="fill:rgb(195,82,78);fill-rule:nonzero;stroke-linecap:round;stroke-linejoin:round;stroke-miterlimit:10;" />
                <svg:path d="M367.268,413.321L367.268,445.973C392.807,454.563 417.538,454.299 441.532,445.973L441.532,413.321C416.778,419.518 392.023,419.518 367.268,413.321Z" style="fill:white;fill-rule:nonzero;stroke-linecap:round;stroke-linejoin:round;stroke-miterlimit:10;" />
                <svg:path d="M357.396,386.955C357.396,386.955 345.026,389.469 346.04,397.58C350.501,404.88 361.046,395.349 365.102,397.58C369.158,399.811 366.724,408.733 374.43,408.125C382.136,407.517 385.786,398.594 392.478,401.636C399.17,404.678 405.862,412.037 410.323,408.155C414.784,404.272 418.435,397.783 425.532,401.433C432.63,405.083 437.294,410.558 442.769,404.88C448.244,399.202 446.216,395.146 451.286,395.045C456.356,394.944 459.6,394.335 460.209,391.091C460.817,387.846 450.07,386.955 450.07,386.955C450.07,386.955 405.051,378.561 357.396,386.955Z" style="fill:rgb(248,230,135);fill-rule:nonzero;stroke-linecap:round;stroke-linejoin:round;stroke-miterlimit:10;" />
                <svg:path d="M355.635,374.369L355.635,388.182C355.635,388.182 372.885,396.091 403.774,396.091C434.663,396.091 451.925,387.413 451.925,387.413L451.911,374.37L355.635,374.37L355.635,374.369Z" style="fill:rgb(248,230,135);fill-rule:nonzero;stroke-linecap:round;stroke-linejoin:round;stroke-miterlimit:10;" />
                <svg:path d="M449.754,371.553C438.967,363.794 423.182,363.399 410.395,362.758C401.22,362.298 392.002,362.729 382.909,364.036C374.434,365.254 364.901,366.45 357.807,371.553C346.371,379.779 382.557,383 403.781,383.517C424.727,383.685 461.19,379.779 449.754,371.553Z" style="fill:rgb(248,230,135);fill-rule:nonzero;stroke-linecap:round;stroke-linejoin:round;stroke-miterlimit:10;" />
                <svg:path d="M451.925,387.412C451.925,387.412 461.223,355.807 475.621,363.918C490.019,372.03 451.925,387.412 451.925,387.412Z" style="fill:none;fill-rule:nonzero;stroke-linecap:round;stroke-linejoin:round;stroke-miterlimit:10;" />
                <svg:path d="M451.925,387.412C451.925,387.412 476.157,371.421 480.249,382.169C484.341,392.917 451.925,387.412 451.925,387.412Z" style="fill:none;fill-rule:nonzero;stroke-linecap:round;stroke-linejoin:round;stroke-miterlimit:10;" />
                <svg:g>
                    <svg:path d="M391.369,431.415C391.369,433.514 390.57,435.215 388.925,435.215C387.279,435.215 386.481,433.514 386.481,431.415C386.481,429.317 387.28,427.615 388.925,427.615C390.57,427.615 391.369,429.316 391.369,431.415Z" style="fill:rgb(84,57,43);fill-rule:nonzero;" />
                    <svg:path d="M419.734,431.415C419.734,433.514 418.935,435.215 417.29,435.215C415.644,435.215 414.846,433.514 414.846,431.415C414.846,429.317 415.645,427.615 417.29,427.615C418.936,427.615 419.734,429.316 419.734,431.415Z" style="fill:rgb(84,57,43);fill-rule:nonzero;" />
                    <svg:path d="M398.442,435.195C400.04,439.26 406.791,439.26 408.389,435.195" style="fill:none;fill-rule:nonzero;stroke-linecap:round;stroke-linejoin:round;stroke-miterlimit:10;" />
                    <svg:path d="M384.468,435.214C384.468,437.383 382.178,439.141 379.353,439.141C376.528,439.141 374.238,437.383 374.238,435.214C374.238,433.045 376.528,431.287 379.353,431.287C382.178,431.287 384.468,433.046 384.468,435.214Z" style="fill:rgb(255,136,185);fill-rule:nonzero;" />
                    <svg:path d="M431.977,435.214C431.977,437.383 429.687,439.141 426.862,439.141C424.037,439.141 421.747,437.383 421.747,435.214C421.747,433.045 424.037,431.287 426.862,431.287C429.687,431.287 431.977,433.046 431.977,435.214Z" style="fill:rgb(255,136,185);fill-rule:nonzero;" />
                </svg:g>
                <svg:g opacity="0.3">
                    <svg:path d="M360.876,402.307C363.828,414.064 364.515,425.898 364.614,437.88C364.619,443.806 364.329,449.738 363.781,455.685C363.019,462.664 364.755,464.793 370.651,468.25C370.776,468.3 370.853,468.46 370.771,468.58C370.719,468.663 370.619,468.698 370.53,468.673C363.28,466.822 360.223,463.393 360.29,455.799L360.216,437.969C360.24,432.114 360.302,416.893 360.328,411.22L360.436,402.305C360.437,402.185 360.536,402.09 360.655,402.091C360.781,402.099 360.859,402.188 360.876,402.307Z" style="fill:white;fill-rule:nonzero;" />
                </svg:g>
                <svg:g opacity="0.3">
                    <svg:path d="M446.449,408.398C450.25,421.985 450.989,435.955 450.146,449.933C449.358,459.998 447.232,469.912 434.757,468.678C434.488,468.686 434.397,468.324 434.675,468.246C438.595,467.451 442.888,465.952 444.379,461.934C446.555,455.426 445.877,448.314 446.08,441.534C446.177,431.919 446.046,418.152 446.01,408.407C446.009,408.288 446.106,408.19 446.225,408.19C446.347,408.195 446.428,408.281 446.449,408.398Z" style="fill:white;fill-rule:nonzero;" />
                </svg:g>
                <svg:g opacity="0.3">
                    <svg:path d="M363.233,374.824C367.492,370.417 373.573,368.251 379.336,366.648C393.79,362.909 409.003,363.491 423.459,366.746C426.345,367.521 429.225,368.275 432.048,369.367C432.268,369.446 432.199,369.814 431.953,369.786L423.275,369.113C414.602,368.511 405.898,368.199 397.208,368.533C387.131,368.915 376.877,369.819 367.355,373.311C366.015,373.819 364.673,374.416 363.498,375.175C363.293,375.32 363.024,374.998 363.233,374.824Z" style="fill:white;fill-rule:nonzero;" />
                </svg:g>
                <svg:g opacity="0.3">
                    <svg:path d="M360.63,385.022C374.489,385.59 388.135,386.549 401.891,387.466C410.214,388.18 418.584,388.574 426.842,390.119C426.974,390.129 427.114,390.24 427.074,390.389C427.053,390.483 426.974,390.549 426.883,390.557C424.103,390.793 421.326,391.079 418.541,391.274C404.623,392.096 390.536,391.689 376.778,389.35C371.268,388.421 365.791,387.253 360.483,385.435C360.371,385.397 360.311,385.275 360.35,385.163C360.399,385.042 360.509,385.005 360.63,385.022Z" style="fill:white;fill-rule:nonzero;" />
                </svg:g>
                <svg:path d="M369.745,373.051C369.745,375.202 384.46,376.947 402.611,376.947C420.762,376.947 435.477,375.203 435.477,373.051C435.477,370.899 420.762,369.155 402.611,369.155C384.46,369.156 369.745,370.9 369.745,373.051Z" style="fill:none;fill-rule:nonzero;stroke-linecap:round;stroke-linejoin:round;stroke-miterlimit:10;" />
                <svg:path d="M374.238,400.229L379.337,394.319" style="fill:none;fill-rule:nonzero;stroke-linecap:round;stroke-linejoin:round;stroke-miterlimit:10;" />
                <svg:path d="M353.768,392.986L360.153,389.875" style="fill:none;fill-rule:nonzero;stroke-linecap:round;stroke-linejoin:round;stroke-miterlimit:10;" />
                <svg:path d="M406.799,402.418L406.799,396.242" style="fill:none;fill-rule:nonzero;stroke-linecap:round;stroke-linejoin:round;stroke-miterlimit:10;" />
                <svg:path d="M437.584,399.33L433.247,393.206" style="fill:none;fill-rule:nonzero;stroke-linecap:round;stroke-linejoin:round;stroke-miterlimit:10;" />
                <svg:path d="M441.532,396.09L438.683,391.944" style="fill:none;fill-rule:nonzero;stroke-linecap:round;stroke-linejoin:round;stroke-miterlimit:10;" />
                <svg:path d="M458.538,408.38C458.538,408.38 467.592,410.587 468.886,402.419C470.406,392.818 465.15,390.797 456.153,388.012" style="fill:none;fill-rule:nonzero;stroke-linecap:round;stroke-linejoin:round;stroke-miterlimit:10;" />
            </svg:g>
            <svg:g transform="matrix(0.334609,0,0,0.334609,759.387,170.34)">
                <svg:path d="M403.78,391.295L403.774,391.295L355.623,394.418L355.623,457.201C355.623,467.746 361.342,476.668 403.774,476.668L403.78,476.668C446.212,476.667 451.931,467.745 451.931,457.201L451.931,394.418L403.78,391.295Z" style="fill:rgb(195,82,78);fill-rule:nonzero;stroke-linecap:round;stroke-linejoin:round;stroke-miterlimit:10;" />
                <svg:path d="M367.268,413.321L367.268,445.973C392.807,454.563 417.538,454.299 441.532,445.973L441.532,413.321C416.778,419.518 392.023,419.518 367.268,413.321Z" style="fill:white;fill-rule:nonzero;stroke-linecap:round;stroke-linejoin:round;stroke-miterlimit:10;" />
                <svg:path d="M357.396,386.955C357.396,386.955 345.026,389.469 346.04,397.58C350.501,404.88 361.046,395.349 365.102,397.58C369.158,399.811 366.724,408.733 374.43,408.125C382.136,407.517 385.786,398.594 392.478,401.636C399.17,404.678 405.862,412.037 410.323,408.155C414.784,404.272 418.435,397.783 425.532,401.433C432.63,405.083 437.294,410.558 442.769,404.88C448.244,399.202 446.216,395.146 451.286,395.045C456.356,394.944 459.6,394.335 460.209,391.091C460.817,387.846 450.07,386.955 450.07,386.955C450.07,386.955 405.051,378.561 357.396,386.955Z" style="fill:rgb(248,230,135);fill-rule:nonzero;stroke-linecap:round;stroke-linejoin:round;stroke-miterlimit:10;" />
                <svg:path d="M355.635,374.369L355.635,388.182C355.635,388.182 372.885,396.091 403.774,396.091C434.663,396.091 451.925,387.413 451.925,387.413L451.911,374.37L355.635,374.37L355.635,374.369Z" style="fill:rgb(248,230,135);fill-rule:nonzero;stroke-linecap:round;stroke-linejoin:round;stroke-miterlimit:10;" />
                <svg:path d="M449.754,371.553C438.967,363.794 423.182,363.399 410.395,362.758C401.22,362.298 392.002,362.729 382.909,364.036C374.434,365.254 364.901,366.45 357.807,371.553C346.371,379.779 382.557,383 403.781,383.517C424.727,383.685 461.19,379.779 449.754,371.553Z" style="fill:rgb(248,230,135);fill-rule:nonzero;stroke-linecap:round;stroke-linejoin:round;stroke-miterlimit:10;" />
                <svg:path d="M451.925,387.412C451.925,387.412 461.223,355.807 475.621,363.918C490.019,372.03 451.925,387.412 451.925,387.412Z" style="fill:none;fill-rule:nonzero;stroke-linecap:round;stroke-linejoin:round;stroke-miterlimit:10;" />
                <svg:path d="M451.925,387.412C451.925,387.412 476.157,371.421 480.249,382.169C484.341,392.917 451.925,387.412 451.925,387.412Z" style="fill:none;fill-rule:nonzero;stroke-linecap:round;stroke-linejoin:round;stroke-miterlimit:10;" />
                <svg:g>
                    <svg:path d="M391.369,431.415C391.369,433.514 390.57,435.215 388.925,435.215C387.279,435.215 386.481,433.514 386.481,431.415C386.481,429.317 387.28,427.615 388.925,427.615C390.57,427.615 391.369,429.316 391.369,431.415Z" style="fill:rgb(84,57,43);fill-rule:nonzero;" />
                    <svg:path d="M419.734,431.415C419.734,433.514 418.935,435.215 417.29,435.215C415.644,435.215 414.846,433.514 414.846,431.415C414.846,429.317 415.645,427.615 417.29,427.615C418.936,427.615 419.734,429.316 419.734,431.415Z" style="fill:rgb(84,57,43);fill-rule:nonzero;" />
                    <svg:path d="M398.442,435.195C400.04,439.26 406.791,439.26 408.389,435.195" style="fill:none;fill-rule:nonzero;stroke-linecap:round;stroke-linejoin:round;stroke-miterlimit:10;" />
                    <svg:path d="M384.468,435.214C384.468,437.383 382.178,439.141 379.353,439.141C376.528,439.141 374.238,437.383 374.238,435.214C374.238,433.045 376.528,431.287 379.353,431.287C382.178,431.287 384.468,433.046 384.468,435.214Z" style="fill:rgb(255,136,185);fill-rule:nonzero;" />
                    <svg:path d="M431.977,435.214C431.977,437.383 429.687,439.141 426.862,439.141C424.037,439.141 421.747,437.383 421.747,435.214C421.747,433.045 424.037,431.287 426.862,431.287C429.687,431.287 431.977,433.046 431.977,435.214Z" style="fill:rgb(255,136,185);fill-rule:nonzero;" />
                </svg:g>
                <svg:g opacity="0.3">
                    <svg:path d="M360.876,402.307C363.828,414.064 364.515,425.898 364.614,437.88C364.619,443.806 364.329,449.738 363.781,455.685C363.019,462.664 364.755,464.793 370.651,468.25C370.776,468.3 370.853,468.46 370.771,468.58C370.719,468.663 370.619,468.698 370.53,468.673C363.28,466.822 360.223,463.393 360.29,455.799L360.216,437.969C360.24,432.114 360.302,416.893 360.328,411.22L360.436,402.305C360.437,402.185 360.536,402.09 360.655,402.091C360.781,402.099 360.859,402.188 360.876,402.307Z" style="fill:white;fill-rule:nonzero;" />
                </svg:g>
                <svg:g opacity="0.3">
                    <svg:path d="M446.449,408.398C450.25,421.985 450.989,435.955 450.146,449.933C449.358,459.998 447.232,469.912 434.757,468.678C434.488,468.686 434.397,468.324 434.675,468.246C438.595,467.451 442.888,465.952 444.379,461.934C446.555,455.426 445.877,448.314 446.08,441.534C446.177,431.919 446.046,418.152 446.01,408.407C446.009,408.288 446.106,408.19 446.225,408.19C446.347,408.195 446.428,408.281 446.449,408.398Z" style="fill:white;fill-rule:nonzero;" />
                </svg:g>
                <svg:g opacity="0.3">
                    <svg:path d="M363.233,374.824C367.492,370.417 373.573,368.251 379.336,366.648C393.79,362.909 409.003,363.491 423.459,366.746C426.345,367.521 429.225,368.275 432.048,369.367C432.268,369.446 432.199,369.814 431.953,369.786L423.275,369.113C414.602,368.511 405.898,368.199 397.208,368.533C387.131,368.915 376.877,369.819 367.355,373.311C366.015,373.819 364.673,374.416 363.498,375.175C363.293,375.32 363.024,374.998 363.233,374.824Z" style="fill:white;fill-rule:nonzero;" />
                </svg:g>
                <svg:g opacity="0.3">
                    <svg:path d="M360.63,385.022C374.489,385.59 388.135,386.549 401.891,387.466C410.214,388.18 418.584,388.574 426.842,390.119C426.974,390.129 427.114,390.24 427.074,390.389C427.053,390.483 426.974,390.549 426.883,390.557C424.103,390.793 421.326,391.079 418.541,391.274C404.623,392.096 390.536,391.689 376.778,389.35C371.268,388.421 365.791,387.253 360.483,385.435C360.371,385.397 360.311,385.275 360.35,385.163C360.399,385.042 360.509,385.005 360.63,385.022Z" style="fill:white;fill-rule:nonzero;" />
                </svg:g>
                <svg:path d="M369.745,373.051C369.745,375.202 384.46,376.947 402.611,376.947C420.762,376.947 435.477,375.203 435.477,373.051C435.477,370.899 420.762,369.155 402.611,369.155C384.46,369.156 369.745,370.9 369.745,373.051Z" style="fill:none;fill-rule:nonzero;stroke-linecap:round;stroke-linejoin:round;stroke-miterlimit:10;" />
                <svg:path d="M374.238,400.229L379.337,394.319" style="fill:none;fill-rule:nonzero;stroke-linecap:round;stroke-linejoin:round;stroke-miterlimit:10;" />
                <svg:path d="M353.768,392.986L360.153,389.875" style="fill:none;fill-rule:nonzero;stroke-linecap:round;stroke-linejoin:round;stroke-miterlimit:10;" />
                <svg:path d="M406.799,402.418L406.799,396.242" style="fill:none;fill-rule:nonzero;stroke-linecap:round;stroke-linejoin:round;stroke-miterlimit:10;" />
                <svg:path d="M437.584,399.33L433.247,393.206" style="fill:none;fill-rule:nonzero;stroke-linecap:round;stroke-linejoin:round;stroke-miterlimit:10;" />
                <svg:path d="M441.532,396.09L438.683,391.944" style="fill:none;fill-rule:nonzero;stroke-linecap:round;stroke-linejoin:round;stroke-miterlimit:10;" />
                <svg:path d="M458.538,408.38C458.538,408.38 467.592,410.587 468.886,402.419C470.406,392.818 465.15,390.797 456.153,388.012" style="fill:none;fill-rule:nonzero;stroke-linecap:round;stroke-linejoin:round;stroke-miterlimit:10;" />
            </svg:g>
        </svg:g>
    </g>
</svg>