<?xml version='1.0' encoding='UTF-8'?>
<svg xmlns="http://www.w3.org/2000/svg" xmlns:xlink="http://www.w3.org/1999/xlink" xmlns:svg="http://www.w3.org/2000/svg" xmlns:serif="http://www.serif.com/" height="100%" style="fill-rule:evenodd;clip-rule:evenodd;" version="1.1" viewBox="861.667 620.0 116.667 100.0" width="100%">
    <g>
        <svg:rect x="861.667" y="620" width="116.667" height="100" style="fill:rgb(115,253,255);" />
        <svg:g transform="matrix(1,0,0,1,819.16,410.149)">
            <svg:g>
                <svg:g>
                    <svg:g>
                        <svg:g>
                            <svg:g>
                                <svg:path d="M144.946,264.813C144.946,262.662 143.763,260.79 142.014,259.804C143.674,258.796 144.786,256.976 144.786,254.892C144.786,252.462 143.276,250.389 141.145,249.547C142.755,248.528 143.828,246.736 143.828,244.69C143.828,241.813 141.713,239.437 138.954,239.014C139.704,238.043 140.155,236.829 140.155,235.507C140.155,232.332 137.581,229.757 134.405,229.757C133.65,229.757 132.93,229.907 132.269,230.171C131.886,227.367 129.488,225.205 126.579,225.205C125.402,225.205 124.308,225.56 123.397,226.167C122.815,223.607 120.53,221.695 117.795,221.695C116.241,221.695 114.833,222.315 113.798,223.317C113.016,221.07 110.885,219.456 108.372,219.456C106.26,219.456 104.423,220.6 103.423,222.296C102.424,220.598 100.582,219.456 98.47,219.456C98.443,219.456 98.417,219.461 98.39,219.461C98.363,219.461 98.337,219.456 98.31,219.456C96.197,219.456 94.356,220.599 93.357,222.296C92.357,220.599 90.52,219.456 88.408,219.456C85.895,219.456 83.764,221.071 82.982,223.317C81.947,222.315 80.539,221.695 78.985,221.695C76.249,221.695 73.964,223.607 73.383,226.167C72.472,225.56 71.378,225.205 70.201,225.205C67.292,225.205 64.894,227.367 64.511,230.171C63.85,229.906 63.131,229.757 62.375,229.757C59.2,229.757 56.625,232.331 56.625,235.507C56.625,236.829 57.076,238.043 57.826,239.014C55.067,239.437 52.952,241.813 52.952,244.69C52.952,246.736 54.024,248.528 55.635,249.547C53.504,250.389 51.994,252.462 51.994,254.892C51.994,256.976 53.107,258.796 54.766,259.804C53.017,260.79 51.834,262.662 51.834,264.813C51.834,267.336 53.462,269.475 55.723,270.249C54.423,271.303 53.591,272.911 53.591,274.715C53.591,277.53 55.615,279.868 58.287,280.364C57.644,281.292 57.264,282.418 57.264,283.633C57.264,286.808 59.838,289.383 63.013,289.383C63.574,289.383 64.115,289.299 64.628,289.149C64.627,289.192 64.621,289.234 64.621,289.277C64.621,292.452 67.195,295.026 70.371,295.026C72.062,295.026 73.578,294.291 74.63,293.129C74.95,296.001 77.384,298.235 80.341,298.235C81.993,298.235 83.478,297.534 84.527,296.418C85.388,298.508 87.443,299.981 89.843,299.981C91.356,299.981 92.729,299.392 93.756,298.436C94.783,299.392 96.155,299.981 97.669,299.981C97.913,299.981 98.152,299.961 98.388,299.931C98.624,299.96 98.863,299.981 99.107,299.981C100.62,299.981 101.993,299.392 103.02,298.436C104.047,299.392 105.419,299.981 106.933,299.981C109.334,299.981 111.389,298.508 112.249,296.418C113.298,297.534 114.783,298.235 116.435,298.235C119.393,298.235 121.826,296.001 122.147,293.129C123.199,294.291 124.715,295.026 126.406,295.026C129.581,295.026 132.156,292.452 132.156,289.277C132.156,289.234 132.15,289.192 132.15,289.149C132.663,289.299 133.204,289.383 133.765,289.383C136.941,289.383 139.515,286.809 139.515,283.633C139.515,282.418 139.136,281.292 138.492,280.364C141.164,279.869 143.188,277.53 143.188,274.715C143.188,272.911 142.356,271.303 141.056,270.249C143.318,269.474 144.946,267.336 144.946,264.813Z" style="fill:rgb(248,229,229);fill-rule:nonzero;" />
                            </svg:g>
                            <svg:g>
                                <svg:path d="M64.255,243.575C65.47,245.216 67.278,246.303 69.15,246.619C70.093,246.757 71.045,246.764 71.978,246.578C72.445,246.515 72.902,246.343 73.361,246.244L74.704,245.744L75.519,245.441L75.849,246.341C76.156,247.176 76.695,248.075 77.317,248.731C77.944,249.403 78.694,249.891 79.525,250.085C80.357,250.276 81.248,250.245 82.15,250.028C82.6,249.925 83.053,249.743 83.504,249.607L84.838,248.981L85.926,248.471L86.624,249.543C86.783,249.787 87.092,250.181 87.382,250.455C87.687,250.745 88.012,251.007 88.363,251.212C89.063,251.625 89.823,251.851 90.623,251.905C91.429,251.935 92.271,251.755 93.108,251.467C93.524,251.306 93.936,251.096 94.351,250.912L95.561,250.187L96.42,249.672L97.269,250.23C98.144,250.805 99.289,251.389 100.379,251.744C101.49,252.114 102.636,252.306 103.756,252.283C104.879,252.273 105.969,252.016 106.982,251.54C108.023,251.115 108.914,250.345 109.783,249.554L110.484,248.916L111.257,249.246C112.126,249.617 113.212,249.919 114.216,250.096C115.241,250.268 116.276,250.303 117.266,250.154C118.256,250 119.169,249.616 119.98,249.052C120.824,248.512 121.413,247.639 121.983,246.758L122.359,246.176L122.888,246.364C123.542,246.597 124.351,246.742 125.1,246.766C125.864,246.792 126.623,246.675 127.333,246.408C128.045,246.146 128.697,245.684 129.186,245.058C129.727,244.465 130.067,243.707 130.376,242.934C130.218,243.744 130.025,244.583 129.57,245.327C129.15,246.085 128.493,246.738 127.708,247.179C126.929,247.636 126.034,247.869 125.147,247.96C124.244,248.039 123.385,248.015 122.442,247.81L123.346,247.417C122.798,248.517 122.175,249.662 121.152,250.499C120.179,251.357 118.969,251.998 117.702,252.277C116.439,252.567 115.155,252.611 113.909,252.495C112.644,252.369 111.482,252.132 110.222,251.651L111.695,251.344C110.681,252.373 109.584,253.393 108.209,254.049C107.558,254.436 106.816,254.64 106.097,254.886C105.352,255.036 104.603,255.185 103.847,255.191C102.339,255.246 100.854,255.006 99.465,254.567C98.77,254.344 98.093,254.083 97.44,253.768C96.768,253.453 96.184,253.129 95.501,252.648L97.209,252.69L95.724,253.55C95.188,253.788 94.662,254.041 94.105,254.245C92.97,254.622 91.745,254.877 90.459,254.806C89.178,254.724 87.897,254.295 86.844,253.582C86.312,253.233 85.839,252.816 85.41,252.367C84.977,251.892 84.635,251.464 84.265,250.809L86.05,251.371L84.413,252.052C83.825,252.211 83.256,252.407 82.647,252.512C81.427,252.714 80.105,252.685 78.853,252.281C77.593,251.878 76.517,251.035 75.747,250.064C74.989,249.054 74.486,248.007 74.17,246.771L75.315,247.368C74.791,247.506 74.274,247.655 73.75,247.777C73.209,247.848 72.683,247.974 72.134,247.976C71.048,248.049 69.947,247.902 68.908,247.605C66.829,246.946 65.124,245.426 64.255,243.575Z" style="fill:rgb(232,177,177);fill-rule:nonzero;" />
                            </svg:g>
                            <svg:g>
                                <svg:g>
                                    <svg:ellipse cx="98.319" cy="236.42" rx="18.473" ry="9.263" style="fill:rgb(242,206,206);" />
                                </svg:g>
                                <svg:g>
                                    <svg:g>
                                        <svg:g>
                                            <svg:path d="M96.612,229.037C96.612,229.037 102.152,223.266 105.133,223.905C108.114,224.544 116.032,228.874 115.248,231.145C114.464,233.416 108.966,239.556 106.517,239.45C104.068,239.343 97.628,230.178 96.612,229.037Z" style="fill:rgb(255,129,206);fill-rule:nonzero;" />
                                        </svg:g>
                                        <svg:g>
                                            <svg:path d="M105.133,223.905C102.851,223.416 99.079,226.675 97.431,228.234C99.258,226.759 101.608,225.237 103.217,225.582C106.198,226.221 114.116,230.551 113.332,232.822C112.918,234.021 111.189,236.293 109.291,238.16C111.808,236.256 114.697,232.745 115.249,231.145C116.032,228.874 108.114,224.544 105.133,223.905Z" style="fill:rgb(244,115,198);fill-rule:nonzero;" />
                                        </svg:g>
                                    </svg:g>
                                    <svg:g>
                                        <svg:g>
                                            <svg:path d="M83.258,231.059C83.258,231.059 89.215,223.749 91.664,223.856C94.113,223.963 101.459,231.841 99.969,234.397C98.478,236.952 89.055,244.514 87.777,244.026C87.777,244.026 78.55,236.065 83.258,231.059Z" style="fill:rgb(118,221,159);fill-rule:nonzero;" />
                                        </svg:g>
                                        <svg:g>
                                            <svg:path d="M91.664,223.856C90.888,223.822 89.761,224.534 88.583,225.52C88.659,225.511 88.742,225.488 88.812,225.491C91.261,225.597 98.608,233.476 97.117,236.032C96.12,237.741 91.581,241.68 88.298,243.962C90.64,243.227 98.607,236.732 99.969,234.397C101.46,231.842 94.113,223.963 91.664,223.856Z" style="fill:rgb(98,204,136);fill-rule:nonzero;" />
                                        </svg:g>
                                    </svg:g>
                                </svg:g>
                            </svg:g>
                            <svg:g>
                                <svg:g>
                                    <svg:path d="M93.489,245.361C93.489,245.361 88.257,242.276 89.535,240.254C90.813,238.231 99.756,231.204 102.525,231.949C105.293,232.694 113.378,240.303 113.009,242.035C113.008,242.035 106.707,246.955 93.489,245.361Z" style="fill:rgb(234,218,143);fill-rule:nonzero;" />
                                </svg:g>
                                <svg:g>
                                    <svg:path d="M99.576,233.545C102.335,234.288 110.373,241.847 110.059,243.611C112.028,242.789 113.008,242.034 113.008,242.034C113.377,240.302 105.292,232.693 102.524,231.948C101.392,231.643 99.225,232.646 96.974,234.067C98.041,233.61 98.964,233.381 99.576,233.545Z" style="fill:rgb(221,202,122);fill-rule:nonzero;" />
                                </svg:g>
                            </svg:g>
                            <svg:g opacity="0.2">
                                <svg:g>
                                    <svg:path d="M144.946,264.813C144.946,262.662 143.763,260.79 142.014,259.804C143.674,258.796 144.786,256.976 144.786,254.892C144.786,252.462 143.276,250.389 141.145,249.547C142.755,248.528 143.828,246.736 143.828,244.69C143.828,241.813 141.713,239.437 138.954,239.014C139.704,238.043 140.155,236.829 140.155,235.507C140.155,232.332 137.581,229.757 134.405,229.757C133.65,229.757 132.93,229.907 132.269,230.171C131.886,227.367 129.488,225.205 126.579,225.205C125.402,225.205 124.308,225.56 123.397,226.167C122.815,223.607 120.531,221.695 117.795,221.695C117.599,221.695 117.405,221.705 117.214,221.724C119.792,222.046 121.842,224.055 122.193,226.624C122.854,226.359 123.573,226.21 124.329,226.21C127.504,226.21 130.079,228.784 130.079,231.959C130.079,233.281 129.628,234.495 128.878,235.466C131.637,235.889 133.752,238.265 133.752,241.142C133.752,243.188 132.679,244.98 131.069,245.999C133.2,246.841 134.71,248.914 134.71,251.344C134.71,253.428 133.597,255.248 131.938,256.256C133.687,257.242 134.87,259.114 134.87,261.265C134.87,263.788 133.242,265.927 130.981,266.701C132.281,267.755 133.113,269.363 133.113,271.167C133.113,273.982 131.089,276.32 128.417,276.816C129.06,277.744 129.44,278.87 129.44,280.085C129.44,283.261 126.866,285.835 123.691,285.835C123.13,285.835 122.589,285.751 122.076,285.601C122.077,285.644 122.083,285.686 122.083,285.729C122.083,288.904 119.509,291.479 116.334,291.479C114.643,291.479 113.127,290.744 112.075,289.582C111.755,292.454 109.321,294.688 106.364,294.688C104.712,294.688 103.227,293.987 102.178,292.871C101.317,294.961 99.262,296.434 96.862,296.434C95.349,296.434 93.976,295.845 92.949,294.889C91.922,295.845 90.55,296.434 89.036,296.434C88.792,296.434 88.553,296.414 88.317,296.384C88.081,296.413 87.842,296.434 87.598,296.434C86.084,296.434 84.712,295.845 83.685,294.889C82.658,295.845 81.286,296.434 79.772,296.434C77.542,296.434 75.623,295.155 74.67,293.299C75.067,296.086 77.449,298.235 80.346,298.235C81.998,298.235 83.483,297.534 84.532,296.418C85.393,298.508 87.448,299.981 89.848,299.981C91.361,299.981 92.734,299.392 93.761,298.436C94.788,299.392 96.16,299.981 97.674,299.981C97.918,299.981 98.157,299.961 98.393,299.931C98.629,299.96 98.868,299.981 99.112,299.981C100.625,299.981 101.998,299.392 103.025,298.436C104.052,299.392 105.424,299.981 106.938,299.981C109.339,299.981 111.394,298.508 112.254,296.418C113.303,297.534 114.788,298.235 116.44,298.235C119.398,298.235 121.831,296.001 122.151,293.129C123.203,294.291 124.719,295.026 126.41,295.026C129.585,295.026 132.159,292.452 132.159,289.277C132.159,289.234 132.154,289.192 132.153,289.149C132.666,289.299 133.207,289.383 133.768,289.383C136.943,289.383 139.517,286.809 139.517,283.633C139.517,282.418 139.138,281.292 138.494,280.364C141.166,279.869 143.19,277.53 143.19,274.715C143.19,272.911 142.358,271.303 141.058,270.249C143.318,269.474 144.946,267.336 144.946,264.813Z" style="fill:rgb(211,161,161);fill-rule:nonzero;" />
                                </svg:g>
                                <svg:g>
                                    <svg:path d="M113.46,222.542C113.361,222.353 113.243,222.177 113.124,222.002C113.196,222.206 113.273,222.407 113.321,222.621C113.365,222.591 113.415,222.57 113.46,222.542Z" style="fill:rgb(211,161,161);fill-rule:nonzero;" />
                                </svg:g>
                                <svg:g>
                                    <svg:path d="M74.454,292.872C73.405,293.988 71.92,294.689 70.268,294.689C67.725,294.689 65.578,293.032 64.82,290.743C65.469,293.207 67.706,295.026 70.374,295.026C72.048,295.026 73.549,294.304 74.6,293.162C74.552,293.064 74.495,292.972 74.454,292.872Z" style="fill:rgb(211,161,161);fill-rule:nonzero;" />
                                </svg:g>
                            </svg:g>
                            <svg:g opacity="0.25">
                                <svg:path d="M88.298,242.58C88.298,234.316 84.992,226.887 79.733,221.749C79.488,221.717 79.24,221.695 78.987,221.695C76.251,221.695 73.966,223.607 73.385,226.167C72.474,225.56 71.38,225.205 70.203,225.205C67.294,225.205 64.896,227.367 64.513,230.171C63.852,229.906 63.133,229.757 62.377,229.757C59.202,229.757 56.627,232.331 56.627,235.507C56.627,236.829 57.078,238.043 57.828,239.014C55.069,239.437 52.954,241.813 52.954,244.69C52.954,246.736 54.026,248.528 55.637,249.547C53.506,250.389 51.996,252.462 51.996,254.892C51.996,256.976 53.109,258.796 54.768,259.804C53.019,260.79 51.836,262.662 51.836,264.813C51.836,266.529 52.6,268.055 53.793,269.107C56.462,270.107 59.325,270.658 62.31,270.658C76.662,270.657 88.298,258.086 88.298,242.58Z" style="fill:white;fill-rule:nonzero;" />
                            </svg:g>
                        </svg:g>
                        <svg:g>
                            <svg:g>
                                <svg:g>
                                    <svg:path d="M59.869,256.281C59.312,257.792 59.129,259.494 59.018,261.087C58.722,265.334 59.423,269.615 60.714,273.655C60.937,274.354 62.038,274.052 61.814,273.352C60.55,269.395 59.869,265.236 60.159,261.077C60.264,259.578 60.451,257.983 60.975,256.561C61.229,255.872 60.121,255.598 59.869,256.281Z" style="fill:white;fill-rule:nonzero;" />
                                </svg:g>
                            </svg:g>
                            <svg:g>
                                <svg:path d="M62.526,275.498C62.684,275.763 62.597,276.106 62.332,276.265C62.067,276.423 61.724,276.336 61.565,276.071C61.407,275.806 61.494,275.463 61.759,275.305C62.025,275.146 62.368,275.233 62.526,275.498Z" style="fill:white;fill-rule:nonzero;" />
                            </svg:g>
                        </svg:g>
                    </svg:g>
                </svg:g>
                <svg:g>
                    <svg:path d="M106.935,300.48C105.505,300.48 104.132,299.992 103.022,299.096C101.724,300.144 100.009,300.62 98.391,300.434C96.769,300.62 95.058,300.144 93.759,299.096C92.65,299.991 91.277,300.48 89.846,300.48C87.545,300.48 85.468,299.234 84.377,297.253C83.251,298.212 81.842,298.733 80.343,298.733C77.479,298.733 75.033,296.806 74.311,294.119C73.203,295.02 71.811,295.524 70.372,295.524C67.095,295.524 64.398,292.988 64.143,289.776C63.769,289.845 63.392,289.88 63.015,289.88C59.569,289.88 56.766,287.076 56.766,283.63C56.766,282.594 57.02,281.588 57.506,280.684C54.911,279.89 53.093,277.483 53.093,274.713C53.093,273.094 53.712,271.564 54.814,270.407C52.705,269.364 51.336,267.206 51.336,264.81C51.336,262.819 52.291,260.957 53.872,259.788C52.372,258.607 51.496,256.826 51.496,254.89C51.496,252.603 52.717,250.552 54.668,249.453C53.269,248.273 52.454,246.546 52.454,244.687C52.454,241.842 54.325,239.426 56.999,238.679C56.427,237.719 56.128,236.634 56.128,235.504C56.128,232.058 58.932,229.254 62.377,229.254C62.972,229.254 63.559,229.339 64.128,229.507C64.788,226.73 67.3,224.703 70.202,224.703C71.211,224.703 72.194,224.944 73.081,225.406C73.938,222.895 76.279,221.194 78.987,221.194C80.374,221.194 81.699,221.648 82.787,222.486C83.82,220.348 85.998,218.955 88.41,218.955C90.349,218.955 92.184,219.877 93.359,221.404C94.533,219.877 96.369,218.955 98.312,218.955L98.354,219.458L98.415,218.961L98.434,218.961C100.42,218.961 102.254,219.882 103.426,221.404C104.601,219.877 106.435,218.955 108.374,218.955C110.786,218.955 112.963,220.348 113.997,222.486C115.084,221.649 116.41,221.194 117.797,221.194C120.504,221.194 122.846,222.895 123.703,225.406C124.589,224.945 125.572,224.704 126.581,224.704C129.483,224.704 131.996,226.731 132.656,229.508C133.225,229.34 133.812,229.255 134.407,229.255C137.853,229.255 140.656,232.059 140.656,235.505C140.656,236.636 140.357,237.72 139.785,238.68C142.459,239.427 144.329,241.843 144.329,244.688C144.329,246.547 143.515,248.274 142.116,249.454C144.068,250.552 145.288,252.603 145.288,254.891C145.288,256.827 144.412,258.609 142.912,259.789C144.493,260.959 145.448,262.82 145.448,264.811C145.448,267.207 144.079,269.365 141.97,270.408C143.072,271.564 143.691,273.094 143.691,274.714C143.691,277.484 141.873,279.891 139.278,280.685C139.764,281.589 140.018,282.595 140.018,283.631C140.018,287.077 137.214,289.881 133.769,289.881C133.392,289.881 133.015,289.846 132.641,289.777C132.385,292.989 129.689,295.525 126.412,295.525C124.974,295.525 123.581,295.021 122.473,294.12C121.751,296.808 119.305,298.734 116.441,298.734C114.942,298.734 113.534,298.212 112.408,297.254C111.313,299.234 109.236,300.48 106.935,300.48ZM103.022,297.752L103.363,298.069C104.34,298.979 105.609,299.48 106.935,299.48C109.07,299.48 110.975,298.203 111.789,296.227L112.084,295.509L112.615,296.074C113.62,297.144 114.977,297.733 116.437,297.733C119.114,297.733 121.355,295.729 121.651,293.072L121.774,291.969L122.519,292.791C123.516,293.893 124.933,294.523 126.408,294.523C129.303,294.523 131.658,292.169 131.658,289.274L131.658,288.606L132.292,288.666C132.776,288.808 133.272,288.88 133.766,288.88C136.661,288.88 139.015,286.525 139.015,283.63C139.015,282.56 138.692,281.527 138.081,280.647L137.641,280.011L138.401,279.87C140.885,279.409 142.689,277.24 142.689,274.713C142.689,273.125 141.98,271.639 140.742,270.635L140.041,270.066L140.895,269.774C143.019,269.047 144.446,267.052 144.446,264.811C144.446,262.92 143.42,261.168 141.768,260.238L141.024,259.819L141.754,259.375C143.339,258.412 144.286,256.735 144.286,254.891C144.286,252.724 142.981,250.808 140.961,250.011L140.046,249.65L140.878,249.124C142.412,248.153 143.328,246.496 143.328,244.689C143.328,242.082 141.456,239.902 138.878,239.507L138.04,239.379L138.559,238.708C139.276,237.779 139.655,236.672 139.655,235.506C139.655,232.611 137.3,230.256 134.406,230.256C133.739,230.256 133.083,230.384 132.456,230.634L131.861,230.873L131.774,230.238C131.422,227.653 129.188,225.704 126.58,225.704C125.542,225.704 124.538,226.008 123.676,226.582L123.072,226.984L122.911,226.276C122.365,223.872 120.262,222.193 117.797,222.193C116.43,222.193 115.134,222.719 114.148,223.674L113.586,224.218L113.329,223.479C112.595,221.37 110.603,219.953 108.375,219.953C106.531,219.953 104.8,220.947 103.857,222.548L103.426,223.279L102.995,222.547C102.053,220.947 100.32,219.953 98.472,219.953L98.299,219.953C96.463,219.953 94.73,220.947 93.788,222.547L93.357,223.279L92.926,222.548C91.983,220.947 90.252,219.953 88.408,219.953C86.179,219.953 84.189,221.37 83.454,223.479L83.197,224.218L82.634,223.674C81.648,222.719 80.352,222.193 78.985,222.193C76.52,222.193 74.417,223.872 73.871,226.276L73.71,226.984L73.106,226.582C72.243,226.008 71.238,225.704 70.201,225.704C67.593,225.704 65.36,227.653 65.007,230.238L64.92,230.873L64.325,230.634C63.699,230.383 63.043,230.256 62.375,230.256C59.48,230.256 57.126,232.611 57.126,235.506C57.126,236.671 57.505,237.778 58.223,238.708L58.742,239.379L57.904,239.507C55.325,239.902 53.454,242.081 53.454,244.689C53.454,246.496 54.37,248.153 55.904,249.124L56.736,249.65L55.82,250.011C53.8,250.809 52.495,252.724 52.495,254.891C52.495,256.736 53.442,258.412 55.027,259.375L55.757,259.819L55.013,260.238C53.361,261.169 52.335,262.921 52.335,264.811C52.335,267.052 53.762,269.046 55.886,269.774L56.74,270.066L56.039,270.635C54.802,271.639 54.092,273.125 54.092,274.713C54.092,277.24 55.895,279.409 58.379,279.87L59.139,280.011L58.699,280.646C58.088,281.529 57.765,282.56 57.765,283.63C57.765,286.525 60.12,288.88 63.014,288.88C63.508,288.88 64.004,288.808 64.488,288.666L65.144,288.474L65.128,289.158L64.663,289.265L64.666,289.275L65.122,289.275C65.122,292.17 67.477,294.524 70.371,294.524C71.846,294.524 73.263,293.893 74.259,292.792L75.004,291.97L75.127,293.073C75.423,295.73 77.665,297.734 80.341,297.734C81.8,297.734 83.158,297.145 84.163,296.075L84.694,295.51L84.989,296.228C85.803,298.204 87.708,299.481 89.843,299.481C91.17,299.481 92.438,298.98 93.415,298.07L93.756,297.753L94.097,298.07C95.239,299.134 96.827,299.618 98.326,299.435L98.388,299.427L98.45,299.435C99.948,299.618 101.538,299.133 102.679,298.07L103.022,297.752Z" style="fill:rgb(21,47,71);fill-rule:nonzero;" />
                </svg:g>
            </svg:g>
            <svg:g>
                <svg:g>
                    <svg:g>
                        <svg:g>
                            <svg:g>
                                <svg:g>
                                    <svg:path d="M78.679,272.372C78.685,270.826 78.866,269.28 79.331,267.802C79.654,266.777 80.13,265.655 80.975,264.947C81.571,264.447 82.215,264.377 82.849,264.779C83.698,265.318 84.21,266.379 84.546,267.288C85.145,268.912 85.367,270.648 85.374,272.372C85.377,273.142 86.573,273.143 86.57,272.372C86.563,270.609 86.345,268.808 85.76,267.138C85.333,265.919 84.708,264.666 83.646,263.88C82.771,263.233 81.649,263.141 80.698,263.686C79.605,264.314 78.939,265.514 78.481,266.644C77.749,268.446 77.492,270.438 77.484,272.372C77.479,273.142 78.675,273.142 78.679,272.372Z" style="fill:rgb(21,47,71);fill-rule:nonzero;" />
                                </svg:g>
                            </svg:g>
                        </svg:g>
                        <svg:g>
                            <svg:g>
                                <svg:g>
                                    <svg:path d="M108.708,272.372C108.714,270.826 108.895,269.28 109.36,267.802C109.683,266.777 110.159,265.655 111.004,264.947C111.6,264.447 112.244,264.377 112.878,264.779C113.727,265.318 114.239,266.379 114.575,267.288C115.174,268.912 115.396,270.648 115.403,272.372C115.406,273.142 116.602,273.143 116.599,272.372C116.592,270.609 116.374,268.808 115.789,267.138C115.362,265.919 114.737,264.666 113.675,263.88C112.8,263.233 111.678,263.141 110.727,263.686C109.634,264.314 108.968,265.514 108.51,266.644C107.778,268.446 107.521,270.438 107.513,272.372C107.509,273.142 108.705,273.142 108.708,272.372Z" style="fill:rgb(21,47,71);fill-rule:nonzero;" />
                                </svg:g>
                            </svg:g>
                        </svg:g>
                    </svg:g>
                    <svg:g>
                        <svg:g>
                            <svg:path d="M103.038,270.974C102.931,270.774 102.77,270.659 102.597,270.657L102.593,270.657C102.498,270.657 102.32,270.694 102.184,270.936C100.709,273.548 99.077,274.94 97.463,274.961L97.425,274.961C95.782,274.961 94.137,273.605 92.537,270.93C92.398,270.697 92.212,270.651 92.128,270.666C91.958,270.669 91.805,270.778 91.697,270.973C91.55,271.24 91.489,271.687 91.701,272.036C93.353,274.755 95.267,276.207 97.237,276.233L97.29,276.233C99.274,276.233 101.254,274.785 103.021,272.041C103.242,271.695 103.185,271.246 103.038,270.974Z" style="fill:rgb(21,47,71);fill-rule:nonzero;" />
                        </svg:g>
                    </svg:g>
                </svg:g>
                <svg:g>
                    <svg:g transform="matrix(0.3565,-0.9343,0.9343,0.3565,-205.122,250.273)">
                        <svg:ellipse cx="79.122" cy="274.043" rx="1.546" ry="4.423" style="fill:rgb(255,129,206);" />
                    </svg:g>
                    <svg:g>
                        <svg:path d="M110.827,275.62C111.131,276.418 113.228,276.358 115.511,275.487C117.794,274.616 119.397,273.263 119.093,272.466C118.789,271.668 116.692,271.728 114.409,272.599C112.126,273.469 110.522,274.822 110.827,275.62Z" style="fill:rgb(255,129,206);fill-rule:nonzero;" />
                    </svg:g>
                </svg:g>
            </svg:g>
        </svg:g>
    </g>
</svg>