<?xml version='1.0' encoding='UTF-8'?>
<svg xmlns="http://www.w3.org/2000/svg" xmlns:xlink="http://www.w3.org/1999/xlink" xmlns:svg="http://www.w3.org/2000/svg" xmlns:serif="http://www.serif.com/" height="100%" style="fill-rule:evenodd;clip-rule:evenodd;" version="1.1" viewBox="870.0 740.0 100.0 100.0" width="100%">
    <g>
        <svg:rect x="870" y="740" width="100" height="100" style="fill:rgb(0,250,146);" />
        <svg:g transform="matrix(0.909521,0,0,0.909521,642.594,556.259)">
            <svg:g>
                <svg:g>
                    <svg:g>
                        <svg:path d="M299.887,229.798C299.887,238.514 292.822,245.579 284.105,245.579C275.389,245.579 268.324,238.514 268.324,229.798C268.324,221.082 275.389,214.017 284.105,214.017C292.821,214.017 299.887,221.082 299.887,229.798Z" style="fill:rgb(239,222,137);fill-rule:nonzero;" />
                    </svg:g>
                    <svg:g>
                        <svg:path d="M298.113,229.798C298.113,237.535 291.842,243.807 284.104,243.807C276.368,243.807 270.096,237.536 270.096,229.798C270.096,222.062 276.368,215.79 284.104,215.79C291.842,215.79 298.113,222.061 298.113,229.798Z" style="fill:white;fill-rule:nonzero;" />
                    </svg:g>
                    <svg:g>
                        <svg:g>
                            <svg:g>
                                <svg:path d="M280.839,229.289C281.959,229.289 282.228,228.642 281.437,227.85L276.017,222.43C275.225,221.638 274.078,221.759 273.467,222.698L271.598,227.305C271.346,228.397 272.059,229.289 273.178,229.289L280.839,229.289Z" style="fill:rgb(224,199,95);fill-rule:nonzero;" />
                            </svg:g>
                        </svg:g>
                        <svg:g>
                            <svg:g>
                                <svg:path d="M281.436,231.747C282.227,230.955 281.959,230.308 280.838,230.308L273.177,230.308C272.058,230.308 271.345,231.201 271.597,232.292L273.466,236.899C274.076,237.838 275.224,237.959 276.016,237.167L281.436,231.747Z" style="fill:rgb(224,199,95);fill-rule:nonzero;" />
                            </svg:g>
                        </svg:g>
                        <svg:g>
                            <svg:g>
                                <svg:path d="M286.599,217.289C285.507,217.039 284.615,217.75 284.615,218.87L284.615,226.533C284.615,227.653 285.263,227.922 286.054,227.13L291.474,221.71C292.265,220.918 292.146,219.77 291.207,219.16L286.599,217.289Z" style="fill:rgb(224,199,95);fill-rule:nonzero;" />
                            </svg:g>
                        </svg:g>
                        <svg:g>
                            <svg:g>
                                <svg:path d="M283.596,218.87C283.596,217.75 282.703,217.039 281.612,217.289L277.005,219.16C276.066,219.77 275.945,220.918 276.737,221.71L282.157,227.13C282.948,227.922 283.596,227.653 283.596,226.533L283.596,218.87Z" style="fill:rgb(224,199,95);fill-rule:nonzero;" />
                            </svg:g>
                        </svg:g>
                        <svg:g>
                            <svg:g>
                                <svg:path d="M287.371,230.308C286.251,230.308 285.982,230.955 286.773,231.747L292.193,237.167C292.985,237.959 294.132,237.838 294.742,236.899L296.612,232.292C296.864,231.2 296.151,230.308 295.032,230.308L287.371,230.308Z" style="fill:rgb(224,199,95);fill-rule:nonzero;" />
                            </svg:g>
                        </svg:g>
                        <svg:g>
                            <svg:g>
                                <svg:path d="M283.596,233.064C283.596,231.944 282.948,231.675 282.157,232.467L276.737,237.887C275.945,238.679 276.065,239.826 277.005,240.437L281.612,242.307C282.704,242.558 283.596,241.847 283.596,240.727L283.596,233.064Z" style="fill:rgb(224,199,95);fill-rule:nonzero;" />
                            </svg:g>
                        </svg:g>
                        <svg:g>
                            <svg:g>
                                <svg:path d="M286.773,227.85C285.982,228.642 286.251,229.289 287.371,229.289L295.032,229.289C296.151,229.289 296.864,228.396 296.612,227.305L294.742,222.698C294.133,221.76 292.985,221.638 292.193,222.43L286.773,227.85Z" style="fill:rgb(224,199,95);fill-rule:nonzero;" />
                            </svg:g>
                        </svg:g>
                        <svg:g>
                            <svg:g>
                                <svg:path d="M286.054,232.467C285.263,231.675 284.615,231.944 284.615,233.064L284.615,240.727C284.615,241.847 285.507,242.558 286.599,242.307L291.207,240.437C292.146,239.827 292.266,238.679 291.474,237.887L286.054,232.467Z" style="fill:rgb(224,199,95);fill-rule:nonzero;" />
                            </svg:g>
                        </svg:g>
                    </svg:g>
                    <svg:g>
                        <svg:g>
                            <svg:g>
                                <svg:path d="M278.179,221.204C278.456,221.649 278.589,222.066 278.476,222.136C278.363,222.206 278.049,221.901 277.774,221.455C277.499,221.01 277.366,220.592 277.478,220.522C277.589,220.453 277.903,220.758 278.179,221.204Z" style="fill:rgb(239,222,137);fill-rule:nonzero;" />
                            </svg:g>
                            <svg:g>
                                <svg:path d="M280.124,222.349C280.329,222.833 280.396,223.265 280.273,223.317C280.152,223.369 279.887,223.019 279.684,222.537C279.48,222.054 279.413,221.621 279.534,221.569C279.656,221.517 279.92,221.867 280.124,222.349Z" style="fill:rgb(239,222,137);fill-rule:nonzero;" />
                            </svg:g>
                            <svg:g>
                                <svg:path d="M280.833,219.925C280.982,220.428 281.003,220.865 280.876,220.902C280.748,220.94 280.524,220.563 280.375,220.062C280.227,219.559 280.206,219.122 280.332,219.083C280.46,219.046 280.684,219.423 280.833,219.925Z" style="fill:rgb(239,222,137);fill-rule:nonzero;" />
                            </svg:g>
                            <svg:g>
                                <svg:path d="M282.624,221.846C282.642,222.37 282.55,222.798 282.417,222.803C282.284,222.807 282.164,222.385 282.146,221.862C282.129,221.339 282.222,220.911 282.355,220.906C282.487,220.901 282.607,221.321 282.624,221.846Z" style="fill:rgb(239,222,137);fill-rule:nonzero;" />
                            </svg:g>
                            <svg:g>
                                <svg:path d="M282.109,224.764C282.32,225.244 282.397,225.675 282.274,225.729C282.153,225.782 281.883,225.436 281.671,224.958C281.46,224.478 281.384,224.046 281.506,223.993C281.628,223.939 281.897,224.284 282.109,224.764Z" style="fill:rgb(239,222,137);fill-rule:nonzero;" />
                            </svg:g>
                        </svg:g>
                        <svg:g>
                            <svg:g>
                                <svg:path d="M286.987,219.665C286.77,220.143 286.498,220.485 286.377,220.43C286.257,220.375 286.336,219.945 286.553,219.468C286.77,218.991 287.043,218.648 287.162,218.702C287.284,218.757 287.204,219.188 286.987,219.665Z" style="fill:rgb(239,222,137);fill-rule:nonzero;" />
                            </svg:g>
                            <svg:g>
                                <svg:path d="M287.117,221.918C286.828,222.357 286.508,222.653 286.396,222.58C286.285,222.508 286.429,222.095 286.716,221.657C287.004,221.219 287.327,220.922 287.437,220.994C287.548,221.067 287.404,221.48 287.117,221.918Z" style="fill:rgb(239,222,137);fill-rule:nonzero;" />
                            </svg:g>
                            <svg:g>
                                <svg:path d="M289.525,221.159C289.19,221.564 288.839,221.823 288.736,221.738C288.635,221.653 288.823,221.258 289.157,220.855C289.492,220.452 289.845,220.191 289.946,220.276C290.049,220.36 289.86,220.756 289.525,221.159Z" style="fill:rgb(239,222,137);fill-rule:nonzero;" />
                            </svg:g>
                            <svg:g>
                                <svg:path d="M288.926,223.717C288.499,224.023 288.093,224.184 288.015,224.075C287.938,223.968 288.222,223.634 288.647,223.329C289.074,223.023 289.48,222.862 289.558,222.97C289.635,223.077 289.352,223.411 288.926,223.717Z" style="fill:rgb(239,222,137);fill-rule:nonzero;" />
                            </svg:g>
                            <svg:g>
                                <svg:path d="M286.214,224.911C285.934,225.354 285.617,225.656 285.504,225.585C285.393,225.514 285.53,225.098 285.811,224.655C286.091,224.213 286.409,223.91 286.52,223.981C286.632,224.053 286.495,224.469 286.214,224.911Z" style="fill:rgb(239,222,137);fill-rule:nonzero;" />
                            </svg:g>
                        </svg:g>
                        <svg:g>
                            <svg:g>
                                <svg:path d="M293.255,224.286C292.781,224.513 292.353,224.599 292.296,224.478C292.238,224.359 292.576,224.081 293.049,223.856C293.522,223.631 293.952,223.543 294.008,223.663C294.065,223.782 293.727,224.061 293.255,224.286Z" style="fill:rgb(239,222,137);fill-rule:nonzero;" />
                            </svg:g>
                            <svg:g>
                                <svg:path d="M291.903,226.094C291.4,226.245 290.963,226.265 290.925,226.138C290.886,226.011 291.263,225.787 291.764,225.637C292.267,225.487 292.705,225.467 292.743,225.594C292.781,225.72 292.405,225.943 291.903,226.094Z" style="fill:rgb(239,222,137);fill-rule:nonzero;" />
                            </svg:g>
                            <svg:g>
                                <svg:path d="M294.234,227.064C293.717,227.158 293.282,227.129 293.257,226.998C293.234,226.868 293.632,226.687 294.148,226.594C294.664,226.5 295.101,226.529 295.126,226.658C295.15,226.79 294.751,226.971 294.234,227.064Z" style="fill:rgb(239,222,137);fill-rule:nonzero;" />
                            </svg:g>
                            <svg:g>
                                <svg:path d="M292.129,228.634C291.606,228.594 291.191,228.456 291.202,228.323C291.212,228.191 291.643,228.118 292.166,228.158C292.688,228.199 293.104,228.338 293.095,228.469C293.084,228.602 292.653,228.675 292.129,228.634Z" style="fill:rgb(239,222,137);fill-rule:nonzero;" />
                            </svg:g>
                            <svg:g>
                                <svg:path d="M289.285,227.804C288.786,227.961 288.348,227.99 288.308,227.862C288.268,227.736 288.641,227.506 289.141,227.347C289.641,227.19 290.078,227.162 290.119,227.289C290.158,227.415 289.785,227.645 289.285,227.804Z" style="fill:rgb(239,222,137);fill-rule:nonzero;" />
                            </svg:g>
                        </svg:g>
                        <svg:g>
                            <svg:g>
                                <svg:path d="M294.389,231.85C293.881,231.712 293.5,231.498 293.535,231.371C293.571,231.243 294.009,231.252 294.514,231.391C295.019,231.528 295.402,231.744 295.366,231.87C295.33,231.997 294.894,231.987 294.389,231.85Z" style="fill:rgb(239,222,137);fill-rule:nonzero;" />
                            </svg:g>
                            <svg:g>
                                <svg:path d="M292.185,232.339C291.705,232.124 291.361,231.855 291.415,231.734C291.469,231.613 291.9,231.689 292.378,231.902C292.857,232.117 293.201,232.387 293.147,232.507C293.094,232.628 292.663,232.552 292.185,232.339Z" style="fill:rgb(239,222,137);fill-rule:nonzero;" />
                            </svg:g>
                            <svg:g>
                                <svg:path d="M293.318,234.595C292.866,234.328 292.553,234.024 292.621,233.909C292.687,233.796 293.108,233.918 293.559,234.182C294.011,234.449 294.325,234.755 294.258,234.869C294.191,234.982 293.77,234.86 293.318,234.595Z" style="fill:rgb(239,222,137);fill-rule:nonzero;" />
                            </svg:g>
                            <svg:g>
                                <svg:path d="M290.698,234.411C290.328,234.039 290.103,233.665 290.198,233.571C290.293,233.477 290.667,233.703 291.036,234.074C291.406,234.447 291.632,234.822 291.537,234.916C291.444,235.01 291.069,234.784 290.698,234.411Z" style="fill:rgb(239,222,137);fill-rule:nonzero;" />
                            </svg:g>
                            <svg:g>
                                <svg:path d="M289.085,231.927C288.602,231.722 288.253,231.457 288.307,231.334C288.359,231.213 288.791,231.281 289.274,231.487C289.756,231.693 290.104,231.957 290.052,232.08C289.999,232.202 289.566,232.134 289.085,231.927Z" style="fill:rgb(239,222,137);fill-rule:nonzero;" />
                            </svg:g>
                        </svg:g>
                        <svg:g>
                            <svg:g>
                                <svg:path d="M289.633,237.763C289.346,237.324 289.203,236.909 289.316,236.837C289.427,236.765 289.749,237.065 290.033,237.504C290.317,237.942 290.459,238.356 290.35,238.428C290.236,238.5 289.917,238.202 289.633,237.763Z" style="fill:rgb(239,222,137);fill-rule:nonzero;" />
                            </svg:g>
                            <svg:g>
                                <svg:path d="M287.663,236.66C287.447,236.18 287.371,235.75 287.491,235.696C287.612,235.641 287.883,235.985 288.098,236.463C288.311,236.942 288.389,237.374 288.268,237.427C288.149,237.481 287.877,237.138 287.663,236.66Z" style="fill:rgb(239,222,137);fill-rule:nonzero;" />
                            </svg:g>
                            <svg:g>
                                <svg:path d="M287.006,239.099C286.846,238.598 286.816,238.162 286.942,238.122C287.067,238.081 287.3,238.452 287.46,238.951C287.621,239.451 287.65,239.887 287.525,239.928C287.398,239.969 287.166,239.598 287.006,239.099Z" style="fill:rgb(239,222,137);fill-rule:nonzero;" />
                            </svg:g>
                            <svg:g>
                                <svg:path d="M285.174,237.216C285.147,236.693 285.228,236.264 285.362,236.258C285.494,236.249 285.623,236.668 285.651,237.191C285.678,237.714 285.596,238.145 285.463,238.153C285.331,238.159 285.203,237.741 285.174,237.216Z" style="fill:rgb(239,222,137);fill-rule:nonzero;" />
                            </svg:g>
                            <svg:g>
                                <svg:path d="M285.625,234.288C285.403,233.814 285.318,233.384 285.439,233.328C285.558,233.271 285.835,233.611 286.057,234.086C286.281,234.562 286.365,234.99 286.243,235.047C286.123,235.102 285.848,234.764 285.625,234.288Z" style="fill:rgb(239,222,137);fill-rule:nonzero;" />
                            </svg:g>
                        </svg:g>
                        <svg:g>
                            <svg:g>
                                <svg:path d="M281.855,239.977C282.006,239.475 282.228,239.099 282.357,239.136C282.483,239.175 282.462,239.614 282.311,240.115C282.161,240.616 281.936,240.992 281.811,240.955C281.684,240.916 281.703,240.48 281.855,239.977Z" style="fill:rgb(239,222,137);fill-rule:nonzero;" />
                            </svg:g>
                            <svg:g>
                                <svg:path d="M281.424,237.764C281.651,237.289 281.929,236.951 282.047,237.009C282.167,237.067 282.08,237.495 281.856,237.968C281.628,238.441 281.349,238.779 281.231,238.721C281.111,238.664 281.197,238.235 281.424,237.764Z" style="fill:rgb(239,222,137);fill-rule:nonzero;" />
                            </svg:g>
                            <svg:g>
                                <svg:path d="M279.139,238.839C279.416,238.393 279.729,238.089 279.842,238.159C279.955,238.227 279.822,238.645 279.544,239.09C279.268,239.535 278.952,239.841 278.84,239.772C278.728,239.7 278.861,239.283 279.139,238.839Z" style="fill:rgb(239,222,137);fill-rule:nonzero;" />
                            </svg:g>
                            <svg:g>
                                <svg:path d="M279.39,236.224C279.771,235.865 280.151,235.649 280.242,235.746C280.333,235.842 280.099,236.211 279.718,236.57C279.337,236.93 278.955,237.146 278.863,237.05C278.771,236.953 279.007,236.585 279.39,236.224Z" style="fill:rgb(239,222,137);fill-rule:nonzero;" />
                            </svg:g>
                            <svg:g>
                                <svg:path d="M281.914,234.675C282.133,234.199 282.405,233.856 282.527,233.913C282.647,233.967 282.568,234.397 282.347,234.874C282.129,235.352 281.857,235.692 281.735,235.637C281.616,235.581 281.695,235.151 281.914,234.675Z" style="fill:rgb(239,222,137);fill-rule:nonzero;" />
                            </svg:g>
                        </svg:g>
                        <svg:g>
                            <svg:g>
                                <svg:path d="M275.18,235.371C275.637,235.114 276.059,234.999 276.123,235.115C276.188,235.231 275.869,235.532 275.411,235.787C274.954,236.043 274.532,236.156 274.468,236.043C274.404,235.927 274.722,235.626 275.18,235.371Z" style="fill:rgb(239,222,137);fill-rule:nonzero;" />
                            </svg:g>
                            <svg:g>
                                <svg:path d="M276.408,233.48C276.899,233.295 277.336,233.247 277.382,233.371C277.427,233.495 277.067,233.743 276.576,233.928C276.084,234.108 275.648,234.158 275.603,234.034C275.557,233.909 275.918,233.661 276.408,233.48Z" style="fill:rgb(239,222,137);fill-rule:nonzero;" />
                            </svg:g>
                            <svg:g>
                                <svg:path d="M274.018,232.664C274.528,232.537 274.964,232.535 274.996,232.664C275.029,232.792 274.643,232.999 274.135,233.127C273.627,233.255 273.189,233.255 273.156,233.127C273.124,232.998 273.51,232.79 274.018,232.664Z" style="fill:rgb(239,222,137);fill-rule:nonzero;" />
                            </svg:g>
                            <svg:g>
                                <svg:path d="M276.016,230.958C276.54,230.964 276.963,231.073 276.96,231.207C276.959,231.339 276.533,231.441 276.011,231.436C275.486,231.429 275.063,231.32 275.064,231.186C275.065,231.054 275.489,230.953 276.016,230.958Z" style="fill:rgb(239,222,137);fill-rule:nonzero;" />
                            </svg:g>
                            <svg:g>
                                <svg:path d="M278.908,231.6C279.395,231.411 279.83,231.353 279.877,231.479C279.927,231.601 279.57,231.855 279.081,232.044C278.593,232.236 278.159,232.292 278.11,232.167C278.063,232.044 278.42,231.79 278.908,231.6Z" style="fill:rgb(239,222,137);fill-rule:nonzero;" />
                            </svg:g>
                        </svg:g>
                        <svg:g>
                            <svg:g>
                                <svg:path d="M273.935,228.063C274.458,228.113 274.869,228.258 274.856,228.391C274.843,228.524 274.409,228.589 273.888,228.537C273.368,228.487 272.954,228.34 272.967,228.21C272.981,228.076 273.414,228.011 273.935,228.063Z" style="fill:rgb(239,222,137);fill-rule:nonzero;" />
                            </svg:g>
                            <svg:g>
                                <svg:path d="M276.024,227.21C276.533,227.339 276.919,227.547 276.884,227.676C276.851,227.804 276.413,227.801 275.905,227.673C275.398,227.541 275.011,227.333 275.046,227.205C275.079,227.078 275.517,227.079 276.024,227.21Z" style="fill:rgb(239,222,137);fill-rule:nonzero;" />
                            </svg:g>
                            <svg:g>
                                <svg:path d="M274.525,225.176C275.016,225.364 275.376,225.611 275.328,225.735C275.282,225.859 274.848,225.809 274.357,225.623C273.867,225.439 273.505,225.189 273.552,225.066C273.602,224.94 274.035,224.99 274.525,225.176Z" style="fill:rgb(239,222,137);fill-rule:nonzero;" />
                            </svg:g>
                            <svg:g>
                                <svg:path d="M277.14,224.915C277.567,225.22 277.853,225.551 277.774,225.658C277.698,225.766 277.29,225.607 276.864,225.303C276.436,224.997 276.15,224.667 276.228,224.558C276.305,224.451 276.71,224.61 277.14,224.915Z" style="fill:rgb(239,222,137);fill-rule:nonzero;" />
                            </svg:g>
                            <svg:g>
                                <svg:path d="M279.148,227.093C279.658,227.215 280.048,227.415 280.014,227.545C279.985,227.674 279.547,227.679 279.036,227.556C278.526,227.435 278.139,227.234 278.169,227.104C278.202,226.976 278.639,226.97 279.148,227.093Z" style="fill:rgb(239,222,137);fill-rule:nonzero;" />
                            </svg:g>
                        </svg:g>
                    </svg:g>
                    <svg:g opacity="0.1">
                        <svg:path d="M292.125,216.224C294.13,218.87 295.333,222.158 295.333,225.735C295.333,234.451 288.268,241.516 279.552,241.516C276.62,241.516 273.885,240.702 271.532,239.309C274.414,243.112 278.966,245.58 284.104,245.58C292.821,245.58 299.886,238.515 299.886,229.799C299.887,224.015 296.766,218.972 292.125,216.224Z" style="fill:rgb(232,119,93);fill-rule:nonzero;" />
                    </svg:g>
                    <svg:g>
                        <svg:path d="M284.104,246.079C275.127,246.079 267.823,238.775 267.823,229.798C267.823,220.82 275.127,213.517 284.104,213.517C293.083,213.517 300.386,220.821 300.386,229.798C300.387,238.775 293.083,246.079 284.104,246.079ZM284.104,214.517C275.678,214.517 268.823,221.372 268.823,229.798C268.823,238.224 275.678,245.079 284.104,245.079C292.531,245.079 299.386,238.224 299.386,229.798C299.387,221.372 292.531,214.517 284.104,214.517Z" style="fill:rgb(21,47,71);fill-rule:nonzero;" />
                    </svg:g>
                </svg:g>
                <svg:g>
                    <svg:g>
                        <svg:g transform="matrix(0.3265,-0.9452,0.9452,0.3265,-20.3884,448.99)">
                            <svg:rect x="270.582" y="237.082" width="68.565" height="3.44" style="fill:rgb(195,197,244);" />
                        </svg:g>
                        <svg:g>
                            <svg:g>
                                <svg:clipPath id="_clip1">
                                    <svg:path d="M314.433,205.835L317.684,206.958L295.298,271.766L292.047,270.643L314.433,205.835Z" />
                                </svg:clipPath>
                                <svg:g clip-path="url(#_clip1)">
                                    <svg:g>
                                        <svg:g transform="matrix(0.9822,-0.188,0.188,0.9822,-44.4761,60.6753)">
                                            <svg:rect x="250.335" y="263.544" width="94.703" height="2.608" style="fill:rgb(117,126,234);" />
                                        </svg:g>
                                        <svg:g transform="matrix(0.9822,-0.188,0.188,0.9822,-42.9078,61.0527)">
                                            <svg:rect x="253.123" y="255.474" width="94.703" height="2.608" style="fill:rgb(117,126,234);" />
                                        </svg:g>
                                    </svg:g>
                                    <svg:g>
                                        <svg:g transform="matrix(0.9822,-0.1879,0.1879,0.9822,-41.3372,61.4258)">
                                            <svg:rect x="255.911" y="247.402" width="94.702" height="2.608" style="fill:rgb(117,126,234);" />
                                        </svg:g>
                                        <svg:g transform="matrix(0.9822,-0.188,0.188,0.9822,-39.7764,61.8168)">
                                            <svg:rect x="258.699" y="239.332" width="94.703" height="2.608" style="fill:rgb(117,126,234);" />
                                        </svg:g>
                                    </svg:g>
                                    <svg:g>
                                        <svg:g transform="matrix(0.9822,-0.188,0.188,0.9822,-38.2079,62.1933)">
                                            <svg:rect x="261.487" y="231.261" width="94.703" height="2.609" style="fill:rgb(117,126,234);" />
                                        </svg:g>
                                        <svg:g transform="matrix(0.9822,-0.188,0.188,0.9822,-36.6429,62.5771)">
                                            <svg:rect x="264.276" y="223.19" width="94.703" height="2.608" style="fill:rgb(117,126,234);" />
                                        </svg:g>
                                    </svg:g>
                                    <svg:g>
                                        <svg:g transform="matrix(0.9822,-0.188,0.188,0.9822,-35.0758,62.9567)">
                                            <svg:rect x="267.064" y="215.119" width="94.703" height="2.608" style="fill:rgb(117,126,234);" />
                                        </svg:g>
                                        <svg:g transform="matrix(0.9822,-0.188,0.188,0.9822,-33.5078,63.3341)">
                                            <svg:rect x="269.853" y="207.049" width="94.703" height="2.608" style="fill:rgb(117,126,234);" />
                                        </svg:g>
                                    </svg:g>
                                </svg:g>
                            </svg:g>
                        </svg:g>
                    </svg:g>
                    <svg:g opacity="0.4">
                        <svg:g transform="matrix(0.3264,-0.9452,0.9452,0.3264,-20.0927,449.967)">
                            <svg:rect x="271.395" y="238.138" width="68.566" height="1.888" style="fill:rgb(182,187,239);" />
                        </svg:g>
                    </svg:g>
                    <svg:g>
                        <svg:path d="M295.605,272.402L291.409,270.953L314.124,205.2L318.32,206.651L295.605,272.402ZM292.681,270.334L294.987,271.131L317.049,207.269L314.743,206.472L292.681,270.334Z" style="fill:rgb(21,47,71);fill-rule:nonzero;" />
                    </svg:g>
                </svg:g>
                <svg:g>
                    <svg:g>
                        <svg:g>
                            <svg:g>
                                <svg:path d="M351.727,273.988C351.727,250.578 330.145,235.214 330.145,235.214C318.444,241.064 304.918,240.335 304.906,240.335C304.894,240.335 291.368,241.064 279.667,235.214C279.667,235.214 258.084,250.577 258.084,273.988C258.084,297.399 277.472,308.373 304.905,308.373L304.906,308.373C332.34,308.373 351.727,297.399 351.727,273.988Z" style="fill:rgb(204,83,59);fill-rule:nonzero;" />
                            </svg:g>
                            <svg:g>
                                <svg:g>
                                    <svg:clipPath id="_clip2">
                                        <svg:path d="M351.727,273.988C351.727,250.578 330.145,235.214 330.145,235.214C318.444,241.064 304.918,240.335 304.906,240.335C304.894,240.335 291.368,241.064 279.667,235.214C279.667,235.214 258.084,250.577 258.084,273.988C258.084,297.399 277.472,308.373 304.905,308.373L304.906,308.373C332.34,308.373 351.727,297.399 351.727,273.988Z" />
                                    </svg:clipPath>
                                    <svg:g clip-path="url(#_clip2)">
                                        <svg:g>
                                            <svg:g>
                                                <svg:path d="M264.141,278.15C264.141,278.15 264.192,278.316 264.286,278.626C264.353,278.946 264.57,279.373 264.827,279.906C265.105,280.436 265.472,281.071 265.886,281.807C266.297,282.544 266.741,283.4 267.09,284.402C267.287,284.892 267.371,285.445 267.524,285.999C267.632,286.562 267.648,287.161 267.715,287.772C267.776,288.303 267.825,288.958 267.911,289.554C268.091,290.121 268.188,290.708 268.402,291.293C268.66,291.867 268.848,292.479 269.169,293.046C269.503,293.606 269.768,294.21 270.165,294.748C270.895,295.86 271.744,296.924 272.655,297.931C273.124,298.424 273.56,298.948 274.051,299.418C274.545,299.896 275.039,300.373 275.529,300.845C275.765,301.091 276.005,301.324 276.237,301.577L276.897,302.408C277.29,302.973 277.668,303.531 277.984,304.11C278.646,305.251 279.156,306.41 279.619,307.505C280.081,308.597 280.518,309.629 280.921,310.582C281.338,311.525 281.734,312.38 282.134,313.108C282.531,313.842 282.952,314.432 283.335,314.892C283.743,315.32 284.072,315.666 284.352,315.829C284.618,316.014 284.759,316.114 284.759,316.114C284.759,316.114 284.608,316.031 284.324,315.873C284.025,315.734 283.65,315.433 283.198,315.019C282.772,314.581 282.293,314.008 281.831,313.293C281.361,312.582 280.891,311.744 280.435,310.809C279.506,308.95 278.557,306.717 277.27,304.526C276.958,303.971 276.586,303.445 276.212,302.923L275.613,302.188C275.387,301.948 275.137,301.712 274.898,301.472C274.404,301.009 273.904,300.541 273.403,300.073C272.895,299.596 272.433,299.069 271.947,298.565C271.023,297.511 270.162,296.398 269.418,295.227C269.018,294.662 268.742,294.018 268.404,293.429C268.078,292.829 267.881,292.172 267.622,291.561C267.405,290.928 267.281,290.253 267.135,289.621C267.076,288.982 267.061,288.418 267.022,287.767C266.984,287.198 266.998,286.635 266.922,286.1C266.8,285.573 266.749,285.044 266.581,284.565C265.984,282.625 265.127,281.104 264.658,279.983C264.429,279.41 264.275,278.963 264.236,278.638C264.174,278.32 264.141,278.15 264.141,278.15Z" style="fill:rgb(183,59,39);fill-rule:nonzero;" />
                                            </svg:g>
                                            <svg:g>
                                                <svg:path d="M277.791,282.67C277.791,282.67 277.846,283.308 278.02,284.408C278.107,284.959 278.227,285.625 278.405,286.378C278.573,287.134 278.824,287.97 279.103,288.872C279.404,289.769 279.787,290.72 280.279,291.674C280.792,292.627 281.426,293.527 282.208,294.412C282.602,294.863 283.003,295.321 283.409,295.785C283.806,296.262 284.196,296.763 284.591,297.263C285.355,298.282 286.105,299.332 286.777,300.442C287.448,301.549 288.057,302.701 288.546,303.889C289.059,305.067 289.398,306.303 289.602,307.524C289.783,308.709 290.094,309.724 290.51,310.744C290.914,311.744 291.373,312.668 291.823,313.506C292.727,315.181 293.54,316.556 294.142,317.495C294.745,318.435 295.09,318.974 295.09,318.974C295.09,318.974 294.669,318.491 293.989,317.601C293.322,316.703 292.347,315.427 291.356,313.772C290.857,312.947 290.342,312.034 289.873,311.022C289.398,310.035 288.968,308.842 288.772,307.658C288.557,306.522 288.188,305.374 287.697,304.247C287.22,303.115 286.621,302.008 285.962,300.937C285.321,299.855 284.594,298.819 283.858,297.821C283.48,297.33 283.105,296.842 282.735,296.36C282.341,295.885 281.953,295.418 281.57,294.957C280.78,294.034 280.134,292.992 279.659,291.983C279.196,290.96 278.852,289.962 278.591,289.028C278.083,287.155 277.925,285.548 277.836,284.431C277.761,283.31 277.791,282.67 277.791,282.67Z" style="fill:rgb(183,59,39);fill-rule:nonzero;" />
                                            </svg:g>
                                            <svg:g>
                                                <svg:path d="M291.612,283.407C291.612,283.407 291.841,283.917 292.29,284.769C292.752,285.622 293.411,286.839 294.201,288.3C294.965,289.777 295.876,291.5 296.661,293.449C297.032,294.431 297.432,295.449 297.666,296.553C297.779,297.106 297.895,297.665 297.915,298.255C297.967,298.791 297.951,299.385 298.053,299.882C298.183,300.907 298.468,301.985 298.786,302.999C299.106,304.021 299.471,305.018 299.864,305.965C300.26,306.911 300.671,307.816 301.085,308.661C301.509,309.503 301.945,310.279 302.371,310.983C302.815,311.674 303.227,312.306 303.628,312.841C304.038,313.365 304.398,313.831 304.749,314.157C305.08,314.509 305.365,314.757 305.573,314.91C305.776,315.074 305.884,315.161 305.884,315.161C305.884,315.161 305.766,315.089 305.544,314.953C305.317,314.822 304.988,314.621 304.624,314.294C304.233,313.995 303.825,313.562 303.354,313.067C302.891,312.563 302.409,311.963 301.923,311.277C301.446,310.588 300.956,309.822 300.472,308.99C300,308.153 299.517,307.259 299.093,306.298C298.668,305.338 298.241,304.336 297.909,303.278C297.568,302.217 297.263,301.151 297.104,299.979C297.001,299.384 297.028,298.863 296.98,298.3C296.969,297.786 296.867,297.263 296.766,296.748C296.553,295.716 296.217,294.71 295.877,293.744C295.168,291.819 294.406,290.041 293.72,288.532C293.031,287.022 292.492,285.742 292.121,284.844C291.76,283.94 291.612,283.407 291.612,283.407Z" style="fill:rgb(183,59,39);fill-rule:nonzero;" />
                                            </svg:g>
                                        </svg:g>
                                        <svg:g>
                                            <svg:g>
                                                <svg:path d="M344.155,278.15C344.155,278.15 344.104,278.316 344.01,278.626C343.943,278.946 343.726,279.373 343.469,279.906C343.191,280.436 342.824,281.071 342.41,281.807C341.999,282.544 341.555,283.4 341.207,284.402C341.009,284.892 340.925,285.445 340.772,285.999C340.665,286.562 340.648,287.161 340.582,287.772C340.52,288.303 340.472,288.958 340.387,289.554C340.206,290.121 340.109,290.708 339.895,291.293C339.637,291.867 339.449,292.479 339.128,293.046C338.794,293.606 338.529,294.21 338.132,294.748C337.402,295.86 336.553,296.924 335.642,297.931C335.173,298.424 334.737,298.948 334.247,299.418C333.752,299.896 333.258,300.373 332.768,300.845C332.532,301.091 332.292,301.324 332.061,301.577L331.4,302.408C331.007,302.973 330.629,303.531 330.313,304.11C329.651,305.251 329.141,306.41 328.678,307.505C328.216,308.597 327.779,309.629 327.376,310.582C326.959,311.525 326.563,312.38 326.163,313.108C325.766,313.842 325.345,314.432 324.963,314.892C324.554,315.32 324.225,315.666 323.945,315.829C323.679,316.014 323.539,316.114 323.539,316.114C323.539,316.114 323.689,316.031 323.973,315.873C324.272,315.734 324.647,315.433 325.099,315.019C325.525,314.581 326.004,314.008 326.466,313.293C326.936,312.582 327.406,311.744 327.861,310.809C328.79,308.95 329.74,306.717 331.027,304.526C331.34,303.971 331.711,303.445 332.084,302.923L332.684,302.188C332.909,301.948 333.159,301.712 333.398,301.472C333.893,301.009 334.392,300.541 334.893,300.073C335.401,299.596 335.864,299.069 336.35,298.565C337.273,297.511 338.134,296.398 338.878,295.227C339.278,294.662 339.554,294.018 339.892,293.429C340.218,292.829 340.415,292.172 340.674,291.561C340.891,290.928 341.015,290.253 341.161,289.621C341.22,288.982 341.235,288.418 341.274,287.767C341.312,287.198 341.298,286.635 341.374,286.1C341.496,285.573 341.547,285.044 341.715,284.565C342.312,282.625 343.169,281.104 343.638,279.983C343.867,279.41 344.021,278.963 344.06,278.638C344.122,278.32 344.155,278.15 344.155,278.15Z" style="fill:rgb(183,59,39);fill-rule:nonzero;" />
                                            </svg:g>
                                            <svg:g>
                                                <svg:path d="M330.505,282.67C330.505,282.67 330.45,283.308 330.276,284.408C330.189,284.959 330.069,285.625 329.891,286.378C329.723,287.134 329.472,287.97 329.194,288.872C328.892,289.769 328.509,290.72 328.017,291.674C327.504,292.627 326.87,293.527 326.088,294.412C325.693,294.863 325.293,295.321 324.887,295.785C324.49,296.262 324.1,296.763 323.705,297.263C322.941,298.282 322.191,299.332 321.519,300.442C320.848,301.549 320.239,302.701 319.75,303.889C319.237,305.067 318.899,306.303 318.694,307.524C318.513,308.709 318.202,309.724 317.786,310.744C317.382,311.744 316.923,312.668 316.473,313.506C315.569,315.181 314.756,316.556 314.154,317.495C313.551,318.435 313.206,318.974 313.206,318.974C313.206,318.974 313.627,318.491 314.307,317.601C314.974,316.703 315.949,315.427 316.94,313.772C317.439,312.947 317.954,312.034 318.423,311.022C318.898,310.035 319.329,308.842 319.525,307.658C319.74,306.522 320.108,305.374 320.599,304.247C321.076,303.115 321.675,302.008 322.334,300.937C322.976,299.855 323.702,298.819 324.437,297.821C324.815,297.33 325.19,296.842 325.56,296.36C325.954,295.885 326.342,295.418 326.725,294.957C327.515,294.034 328.161,292.992 328.636,291.983C329.099,290.96 329.443,289.962 329.704,289.028C330.212,287.155 330.37,285.548 330.459,284.431C330.535,283.31 330.505,282.67 330.505,282.67Z" style="fill:rgb(183,59,39);fill-rule:nonzero;" />
                                            </svg:g>
                                            <svg:g>
                                                <svg:path d="M316.684,283.407C316.684,283.407 316.455,283.917 316.006,284.769C315.545,285.622 314.885,286.839 314.095,288.3C313.331,289.777 312.42,291.5 311.635,293.449C311.264,294.431 310.865,295.449 310.631,296.553C310.517,297.106 310.401,297.665 310.381,298.255C310.329,298.791 310.345,299.385 310.243,299.882C310.113,300.907 309.828,301.985 309.51,302.999C309.19,304.021 308.825,305.018 308.432,305.965C308.037,306.911 307.625,307.816 307.211,308.661C306.787,309.503 306.351,310.279 305.925,310.983C305.481,311.674 305.069,312.306 304.668,312.841C304.258,313.365 303.898,313.831 303.547,314.157C303.216,314.509 302.931,314.757 302.723,314.91C302.521,315.074 302.412,315.161 302.412,315.161C302.412,315.161 302.53,315.089 302.752,314.953C302.978,314.822 303.308,314.621 303.672,314.294C304.063,313.995 304.471,313.562 304.942,313.067C305.405,312.563 305.887,311.963 306.373,311.277C306.851,310.588 307.34,309.822 307.824,308.99C308.296,308.153 308.779,307.259 309.203,306.298C309.628,305.338 310.055,304.336 310.387,303.278C310.728,302.217 311.033,301.151 311.192,299.979C311.296,299.384 311.268,298.863 311.316,298.3C311.327,297.786 311.429,297.263 311.53,296.748C311.744,295.716 312.079,294.71 312.419,293.744C313.129,291.819 313.891,290.041 314.576,288.532C315.265,287.022 315.804,285.742 316.175,284.844C316.536,283.94 316.684,283.407 316.684,283.407Z" style="fill:rgb(183,59,39);fill-rule:nonzero;" />
                                            </svg:g>
                                        </svg:g>
                                    </svg:g>
                                </svg:g>
                            </svg:g>
                            <svg:path d="M279.666,235.215C279.666,235.215 258.083,250.578 258.083,273.989C258.083,280.161 259.442,285.459 261.929,289.929C285.525,289.769 304.606,270.597 304.606,246.963C304.606,244.717 304.432,242.512 304.1,240.359C301.037,240.409 289.686,240.224 279.666,235.215Z" style="fill:white;fill-opacity:0.2;fill-rule:nonzero;" />
                        </svg:g>
                        <svg:g>
                            <svg:path d="M348.652,258.792C342.694,244.162 330.144,235.215 330.144,235.215C318.443,241.065 304.917,240.336 304.905,240.336C304.893,240.336 291.367,241.065 279.666,235.215C279.666,235.215 267.115,244.162 261.158,258.794C262.38,262.001 265.475,264.284 269.112,264.284C271.263,264.284 273.22,263.481 274.72,262.168C275.491,266.08 278.936,269.032 283.075,269.032C285.566,269.032 287.8,267.956 289.358,266.251C290.504,269.601 293.672,272.012 297.41,272.012C300.647,272.012 303.463,270.205 304.903,267.547C306.343,270.205 309.16,272.012 312.396,272.012C316.133,272.012 319.303,269.601 320.449,266.251C322.007,267.956 324.241,269.032 326.732,269.032C330.872,269.032 334.316,266.08 335.086,262.168C336.587,263.481 338.545,264.284 340.696,264.284C344.334,264.284 347.43,262.001 348.652,258.792Z" style="fill:rgb(237,137,110);fill-rule:nonzero;" />
                        </svg:g>
                        <svg:g opacity="0.3">
                            <svg:path d="M330.144,235.215C327.66,236.457 325.093,237.401 322.591,238.119C329.289,247.753 337.272,263.536 334.596,281.602C332.965,292.619 328.275,300.963 321.253,306.855C339.725,303.119 351.726,292.403 351.726,273.988C351.727,250.578 330.144,235.215 330.144,235.215Z" style="fill:rgb(193,66,45);fill-rule:nonzero;" />
                        </svg:g>
                        <svg:g>
                            <svg:path d="M304.905,308.873C274.831,308.873 257.583,296.158 257.583,273.988C257.583,250.59 279.158,234.962 279.376,234.807L279.621,234.633L279.889,234.767C291.232,240.437 304.32,239.861 304.876,239.836C305.483,239.862 318.578,240.437 329.92,234.767L330.189,234.633L330.434,234.807C330.652,234.962 352.226,250.59 352.226,273.988C352.227,296.158 334.978,308.873 304.905,308.873ZM279.718,235.798C277.372,237.569 258.583,252.432 258.583,273.988C258.583,295.522 275.467,307.873 304.904,307.873C334.342,307.873 351.226,295.523 351.226,273.988C351.226,252.432 332.438,237.568 330.092,235.798C318.581,241.439 305.439,240.865 304.884,240.835C304.365,240.866 291.228,241.439 279.718,235.798Z" style="fill:rgb(21,47,71);fill-rule:nonzero;" />
                        </svg:g>
                    </svg:g>
                    <svg:g>
                        <svg:g>
                            <svg:g>
                                <svg:path d="M331.965,235.017C331.331,231.719 325.995,231.295 325.995,231.295C325.995,231.295 317.354,234.171 304.904,234.171C292.454,234.171 283.815,231.295 283.815,231.295C283.815,231.295 278.477,231.719 277.843,235.017C277.207,238.315 285.592,239.836 285.592,239.836C295.503,241.527 304.904,241.339 304.904,241.339C304.904,241.339 314.303,241.527 324.215,239.836C324.216,239.836 332.602,238.314 331.965,235.017Z" style="fill:rgb(234,109,89);fill-rule:nonzero;" />
                            </svg:g>
                            <svg:g>
                                <svg:path d="M331.172,233.44C329.167,235.356 324.216,236.256 324.216,236.256C314.304,237.947 304.905,237.759 304.905,237.759C304.905,237.759 295.505,237.947 285.593,236.256C285.593,236.256 280.642,235.356 278.637,233.44C278.252,233.876 277.965,234.394 277.844,235.016C277.208,238.314 285.593,239.835 285.593,239.835C295.504,241.526 304.905,241.338 304.905,241.338C304.905,241.338 314.304,241.526 324.216,239.835C324.216,239.835 332.602,238.314 331.965,235.016C331.845,234.395 331.557,233.876 331.172,233.44Z" style="fill:rgb(221,89,75);fill-rule:nonzero;" />
                            </svg:g>
                        </svg:g>
                        <svg:g>
                            <svg:path d="M304.081,241.844C301.58,241.844 293.674,241.722 285.509,240.328C285.256,240.283 279.428,239.201 277.773,236.784C277.37,236.195 277.229,235.568 277.353,234.921C278.051,231.291 283.543,230.814 283.776,230.795L283.878,230.787L283.975,230.819C284.06,230.848 292.69,233.67 304.906,233.67C317.122,233.67 325.754,230.848 325.839,230.819L325.936,230.787L326.038,230.795C326.27,230.813 331.761,231.291 332.459,234.921C332.584,235.567 332.442,236.194 332.039,236.783C330.385,239.2 324.556,240.282 324.308,240.327C314.458,242.008 304.99,241.837 304.898,241.838C304.882,241.839 304.596,241.844 304.081,241.844ZM283.762,231.803C283.076,231.878 278.847,232.45 278.335,235.111C278.262,235.491 278.348,235.854 278.598,236.219C279.776,237.94 284.112,239.058 285.683,239.344C295.425,241.007 304.796,240.841 304.895,240.839C305.01,240.842 314.382,241.007 324.132,239.343C325.698,239.058 330.033,237.94 331.211,236.219C331.461,235.853 331.547,235.491 331.474,235.111L331.474,235.11C330.962,232.448 326.736,231.877 326.049,231.802C325.023,232.125 316.565,234.67 304.905,234.67C293.244,234.671 284.788,232.126 283.762,231.803Z" style="fill:rgb(21,47,71);fill-rule:nonzero;" />
                        </svg:g>
                    </svg:g>
                </svg:g>
                <svg:g>
                    <svg:g>
                        <svg:g>
                            <svg:path d="M292.006,265.25C292.006,265.25 292.052,264.951 292.312,264.619C292.444,264.451 292.625,264.268 292.87,264.134C293.116,263.993 293.422,263.9 293.746,263.902C293.909,263.896 294.064,263.938 294.22,263.972C294.374,264.004 294.501,264.1 294.631,264.16C294.869,264.32 295.048,264.506 295.157,264.695C295.286,264.865 295.324,265.047 295.366,265.159C295.399,265.277 295.408,265.349 295.408,265.349C295.408,265.349 295.338,265.324 295.226,265.276C295.112,265.229 294.978,265.145 294.807,265.082C294.646,265.003 294.461,264.944 294.282,264.878C294.098,264.847 293.924,264.79 293.742,264.809C293.561,264.788 293.372,264.835 293.181,264.87C292.988,264.911 292.8,264.977 292.625,265.03C292.251,265.162 292.006,265.25 292.006,265.25Z" style="fill:rgb(21,47,71);fill-rule:nonzero;" />
                        </svg:g>
                        <svg:g>
                            <svg:path d="M314.346,264.985C314.346,264.985 314.422,264.695 314.721,264.388C314.867,264.236 315.066,264.073 315.325,263.965C315.58,263.854 315.896,263.788 316.218,263.824C316.382,263.834 316.531,263.894 316.683,263.94C316.833,263.989 316.949,264.098 317.073,264.169C317.292,264.358 317.452,264.561 317.538,264.757C317.649,264.941 317.672,265.124 317.701,265.238C317.722,265.363 317.725,265.431 317.725,265.431C317.725,265.431 317.656,265.403 317.55,265.34C317.444,265.288 317.316,265.186 317.154,265.106C316.998,265.011 316.824,264.928 316.654,264.848C316.469,264.795 316.306,264.723 316.121,264.721C315.942,264.686 315.749,264.711 315.557,264.727C315.361,264.749 315.168,264.795 314.988,264.831C314.601,264.923 314.346,264.985 314.346,264.985Z" style="fill:rgb(21,47,71);fill-rule:nonzero;" />
                        </svg:g>
                    </svg:g>
                    <svg:g>
                        <svg:g>
                            <svg:g>
                                <svg:path d="M296.948,272.506C296.948,274.371 295.437,275.883 293.571,275.883C291.707,275.883 290.196,274.371 290.196,272.506C290.196,270.642 291.707,269.13 293.571,269.13C295.437,269.13 296.948,270.642 296.948,272.506Z" style="fill:rgb(21,47,71);fill-rule:nonzero;" />
                            </svg:g>
                            <svg:g>
                                <svg:g>
                                    <svg:path d="M293.436,271.269C293.436,271.751 293.045,272.141 292.563,272.141C292.083,272.141 291.692,271.751 291.692,271.269C291.692,270.788 292.083,270.397 292.563,270.397C293.046,270.397 293.436,270.787 293.436,271.269Z" style="fill:white;fill-rule:nonzero;" />
                                </svg:g>
                                <svg:g>
                                    <svg:path d="M292.132,272.947C292.132,273.191 291.936,273.388 291.692,273.388C291.448,273.388 291.251,273.191 291.251,272.947C291.251,272.703 291.448,272.506 291.692,272.506C291.935,272.506 292.132,272.703 292.132,272.947Z" style="fill:white;fill-rule:nonzero;" />
                                </svg:g>
                            </svg:g>
                        </svg:g>
                        <svg:g>
                            <svg:g>
                                <svg:path d="M319.533,272.506C319.533,274.371 318.022,275.883 316.157,275.883C314.292,275.883 312.781,274.371 312.781,272.506C312.781,270.642 314.292,269.13 316.157,269.13C318.022,269.13 319.533,270.642 319.533,272.506Z" style="fill:rgb(21,47,71);fill-rule:nonzero;" />
                            </svg:g>
                            <svg:g>
                                <svg:g>
                                    <svg:path d="M316.021,271.269C316.021,271.751 315.631,272.141 315.149,272.141C314.668,272.141 314.277,271.751 314.277,271.269C314.277,270.788 314.668,270.397 315.149,270.397C315.632,270.397 316.021,270.787 316.021,271.269Z" style="fill:white;fill-rule:nonzero;" />
                                </svg:g>
                                <svg:g>
                                    <svg:path d="M314.718,272.947C314.718,273.191 314.521,273.388 314.278,273.388C314.034,273.388 313.836,273.191 313.836,272.947C313.836,272.703 314.034,272.506 314.278,272.506C314.52,272.506 314.718,272.703 314.718,272.947Z" style="fill:white;fill-rule:nonzero;" />
                                </svg:g>
                            </svg:g>
                        </svg:g>
                    </svg:g>
                    <svg:g>
                        <svg:g>
                            <svg:path d="M294.855,279.79C294.855,281.295 293.634,282.515 292.129,282.515C290.625,282.515 289.405,281.295 289.405,279.79C289.405,278.285 290.625,277.065 292.129,277.065C293.635,277.065 294.855,278.285 294.855,279.79Z" style="fill:rgb(255,129,206);fill-rule:nonzero;" />
                        </svg:g>
                        <svg:g>
                            <svg:path d="M320.322,279.79C320.322,281.295 319.103,282.515 317.598,282.515C316.093,282.515 314.873,281.295 314.873,279.79C314.873,278.285 316.093,277.065 317.598,277.065C319.103,277.065 320.322,278.285 320.322,279.79Z" style="fill:rgb(255,129,206);fill-rule:nonzero;" />
                        </svg:g>
                    </svg:g>
                    <svg:g>
                        <svg:g>
                            <svg:path d="M307.58,274.378L302.151,274.378C302.151,274.378 301.361,274.24 301.46,275.898C301.56,277.556 302.644,280.602 304.865,280.602C307.086,280.602 308.172,277.556 308.27,275.898C308.369,274.24 307.58,274.378 307.58,274.378Z" style="fill:rgb(21,47,71);fill-rule:nonzero;" />
                        </svg:g>
                        <svg:g>
                            <svg:path d="M304.861,277.908C304.121,277.908 303.441,278.116 302.891,278.463C303.32,279.26 303.97,279.909 304.865,279.909C305.758,279.909 306.407,279.261 306.836,278.466C306.286,278.118 305.603,277.908 304.861,277.908Z" style="fill:rgb(255,201,226);fill-rule:nonzero;" />
                        </svg:g>
                    </svg:g>
                </svg:g>
                <svg:g>
                    <svg:g>
                        <svg:g>
                            <svg:path d="M301.873,271.282C303.69,269.712 306.149,270.05 307.978,271.376C308.601,271.827 309.193,270.794 308.579,270.347C306.287,268.687 303.243,268.528 301.03,270.441C300.449,270.943 301.294,271.781 301.873,271.282Z" style="fill:rgb(239,222,137);fill-rule:nonzero;" />
                        </svg:g>
                    </svg:g>
                    <svg:g>
                        <svg:g>
                            <svg:g>
                                <svg:g opacity="0.3">
                                    <svg:g>
                                        <svg:path d="M291.73,280.591C285.84,280.591 281.049,275.799 281.049,269.909C281.049,264.496 285.142,261.133 291.73,261.133C298.319,261.133 302.412,264.496 302.412,269.909C302.412,275.799 297.62,280.591 291.73,280.591Z" style="fill:rgb(195,197,244);fill-rule:nonzero;" />
                                    </svg:g>
                                </svg:g>
                                <svg:g>
                                    <svg:g>
                                        <svg:path d="M291.73,280.591C285.84,280.591 281.049,275.799 281.049,269.909C281.049,264.496 285.142,261.133 291.73,261.133C298.319,261.133 302.412,264.496 302.412,269.909C302.412,275.799 297.62,280.591 291.73,280.591ZM291.73,263.037C289.671,263.037 282.954,263.533 282.954,269.909C282.954,274.749 286.891,278.686 291.73,278.686C296.57,278.686 300.507,274.748 300.507,269.909C300.508,263.533 293.789,263.037 291.73,263.037Z" style="fill:rgb(239,222,137);fill-rule:nonzero;" />
                                    </svg:g>
                                </svg:g>
                            </svg:g>
                            <svg:g opacity="0.2">
                                <svg:path d="M295.115,261.471C297.204,262.992 298.379,265.289 298.379,268.178C298.379,274.068 293.587,278.86 287.697,278.86C286.983,278.86 286.287,278.787 285.613,278.653C287.347,279.87 289.455,280.591 291.73,280.591C297.62,280.591 302.412,275.799 302.412,269.909C302.412,265.496 299.691,262.447 295.115,261.471Z" style="fill:rgb(195,197,244);fill-rule:nonzero;" />
                            </svg:g>
                        </svg:g>
                        <svg:g>
                            <svg:g>
                                <svg:g opacity="0.3">
                                    <svg:g>
                                        <svg:path d="M307.397,269.909C307.397,264.496 311.49,261.133 318.08,261.133C324.668,261.133 328.761,264.496 328.761,269.909C328.761,275.799 323.969,280.591 318.08,280.591C312.19,280.591 307.397,275.799 307.397,269.909Z" style="fill:rgb(195,197,244);fill-rule:nonzero;" />
                                    </svg:g>
                                </svg:g>
                                <svg:g>
                                    <svg:g>
                                        <svg:path d="M307.397,269.909C307.397,264.496 311.49,261.133 318.08,261.133C324.668,261.133 328.761,264.496 328.761,269.909C328.761,275.799 323.969,280.591 318.08,280.591C312.19,280.591 307.397,275.799 307.397,269.909ZM309.303,269.909C309.303,274.749 313.241,278.686 318.08,278.686C322.919,278.686 326.855,274.748 326.855,269.909C326.855,263.533 320.138,263.037 318.08,263.037C316.02,263.037 309.303,263.533 309.303,269.909Z" style="fill:rgb(239,222,137);fill-rule:nonzero;" />
                                    </svg:g>
                                </svg:g>
                            </svg:g>
                            <svg:g opacity="0.2">
                                <svg:path d="M314.694,261.471C312.605,262.992 311.431,265.289 311.431,268.178C311.431,274.068 316.223,278.86 322.113,278.86C322.826,278.86 323.522,278.787 324.197,278.653C322.463,279.87 320.355,280.591 318.08,280.591C312.19,280.591 307.397,275.799 307.397,269.909C307.397,265.496 310.119,262.447 314.694,261.471Z" style="fill:rgb(195,197,244);fill-rule:nonzero;" />
                            </svg:g>
                        </svg:g>
                    </svg:g>
                </svg:g>
            </svg:g>
            <svg:g>
                <svg:g>
                    <svg:path d="M275.65,245.539C270.028,249.579 265.803,256.222 263.954,262.805C262.988,266.246 262.662,269.826 262.899,273.388C262.952,274.186 264.202,274.192 264.149,273.388C263.506,263.731 267.555,254.453 274.667,247.972C275.184,247.501 275.846,246.931 276.281,246.618C276.929,246.154 276.305,245.069 275.65,245.539Z" style="fill:white;fill-rule:nonzero;" />
                </svg:g>
                <svg:path d="M264.354,276.301C264.354,276.723 264.012,277.065 263.59,277.065C263.168,277.065 262.825,276.723 262.825,276.301C262.825,275.879 263.167,275.536 263.59,275.536C264.012,275.536 264.354,275.879 264.354,276.301Z" style="fill:white;fill-rule:nonzero;" />
            </svg:g>
        </svg:g>
    </g>
</svg>