<?xml version='1.0' encoding='UTF-8'?>
<svg xmlns="http://www.w3.org/2000/svg" xmlns:xlink="http://www.w3.org/1999/xlink" xmlns:svg="http://www.w3.org/2000/svg" xmlns:serif="http://www.serif.com/" height="100%" style="fill-rule:evenodd;clip-rule:evenodd;" version="1.1" viewBox="1000.0 62.5 120.0 15.0" width="100%">
    <g>
        <svg:rect x="1000" y="62.5" width="120" height="15" style="fill:rgb(212,251,121);" />
        <svg:g>
            <svg:g>
                <svg:g transform="matrix(0.0925072,0,0,0.0925072,1003.82,48.7383)">
                    <svg:path d="M102.866,192.956C103.646,189.876 105.399,187.095 107.957,185.211C110.148,183.598 113.189,182.233 117.124,182.399C126.304,182.784 141.079,178.911 141.079,178.911C141.079,178.911 136.464,187.864 126.861,194.484C117.258,201.104 101.053,200.117 101.053,200.117L102.866,192.956Z" style="fill:rgb(163,226,118);fill-rule:nonzero;" />
                    <svg:path d="M102.866,192.956C103.646,189.876 105.399,187.095 107.957,185.211C110.148,183.598 113.189,182.233 117.124,182.399C126.304,182.784 141.079,178.911 141.079,178.911C141.079,178.911 136.464,187.864 126.861,194.484C117.258,201.104 101.053,200.117 101.053,200.117L102.866,192.956Z" style="fill:none;fill-rule:nonzero;stroke-linecap:round;stroke-linejoin:round;stroke-miterlimit:10;" />
                    <svg:path d="M95.788,193.098L99.829,211.983C99.829,211.983 102.566,215.452 104.432,213.486C106.298,211.52 101.053,190.318 101.053,190.318C101.053,190.318 106.203,185.391 93.524,176.736C80.845,168.081 65.256,166.547 65.256,166.547C65.256,166.547 69.815,189.168 80.529,190.318C91.243,191.468 95.788,193.098 95.788,193.098Z" style="fill:rgb(172,232,131);fill-rule:nonzero;" />
                    <svg:path d="M95.788,193.098L99.829,211.983C99.829,211.983 102.566,215.452 104.432,213.486C106.298,211.52 101.053,190.318 101.053,190.318C101.053,190.318 106.203,185.391 93.524,176.736C80.845,168.081 65.256,166.547 65.256,166.547C65.256,166.547 69.815,189.168 80.529,190.318C91.243,191.468 95.788,193.098 95.788,193.098Z" style="fill:none;fill-rule:nonzero;stroke-linecap:round;stroke-miterlimit:10;" />
                    <svg:path d="M95.1,206.988C85.315,197.924 72.193,195.991 61.198,202.608C54.497,206.641 48.373,213.765 45.927,226.242C39.407,259.513 66.484,286.273 83.112,287.229C99.741,288.185 93.148,283.406 104.18,283.406C115.211,283.406 129.302,291.253 139.505,278.009C162.025,248.777 164.904,211.243 137.087,201.908C111.897,193.455 96.567,208.347 96.567,208.347L95.1,206.988Z" style="fill:rgb(214,125,125);fill-rule:nonzero;" />
                    <svg:path d="M66.383,265.725C47.029,244.736 55.596,216.403 61.873,202.239C61.649,202.366 61.42,202.475 61.198,202.608C54.497,206.641 48.373,213.765 45.928,226.242C39.408,259.513 66.484,286.273 83.113,287.229C88.424,287.534 91.361,287.253 93.266,286.731C84.382,281.792 74.946,275.011 66.383,265.725Z" style="fill:rgb(211,103,103);fill-rule:nonzero;" />
                    <svg:path d="M95.1,206.988C85.315,197.924 72.193,195.991 61.198,202.608C54.497,206.641 48.373,213.765 45.927,226.242C39.407,259.513 66.484,286.273 83.112,287.229C99.741,288.185 93.148,283.406 104.18,283.406C115.211,283.406 129.302,291.253 139.505,278.009C162.025,248.777 164.904,211.243 137.087,201.908C111.897,193.455 96.567,208.347 96.567,208.347L95.1,206.988Z" style="fill:none;fill-rule:nonzero;stroke-linecap:round;stroke-miterlimit:10;" />
                    <svg:path d="M78.98,265.127C77.495,265.127 76.291,263.923 76.291,262.438L76.291,255.426C76.291,253.941 77.495,252.738 78.98,252.738C80.465,252.738 81.668,253.942 81.668,255.426L81.668,262.438C81.668,263.923 80.465,265.127 78.98,265.127Z" style="fill:rgb(91,21,64);fill-rule:nonzero;" />
                    <svg:path d="M123.127,265.127C121.642,265.127 120.439,263.923 120.439,262.438L120.439,255.426C120.439,253.941 121.643,252.738 123.127,252.738C124.612,252.738 125.816,253.942 125.816,255.426L125.816,262.438C125.816,263.923 124.612,265.127 123.127,265.127Z" style="fill:rgb(91,21,64);fill-rule:nonzero;" />
                    <svg:path d="M92.885,263.908C92.885,263.908 94.641,267.941 100.721,267.941C106.801,267.941 109.222,263.908 109.222,263.908L92.885,263.908Z" style="fill:rgb(91,21,64);fill-rule:nonzero;" />
                    <svg:path d="M120.439,207.506C120.439,207.506 141.086,204.152 144.809,222.76C148.532,241.369 141.08,246.671 141.08,246.671C141.08,246.671 144.191,217.718 120.439,207.506Z" style="fill:rgb(217,142,142);fill-rule:nonzero;" />
                    <svg:path d="M102.942,198.681C102.942,198.681 108.682,189.897 116.702,188.532C124.722,187.167 140.031,180.696 140.031,180.696" style="fill:none;fill-rule:nonzero;stroke-linecap:round;stroke-miterlimit:10;" />
                    <svg:path d="M67.144,167.934C67.144,167.934 85.568,180.177 89.49,182.301C98.304,187.074 101.053,190.318 101.053,190.318" style="fill:none;fill-rule:nonzero;stroke-linecap:round;stroke-miterlimit:10;" />
                </svg:g>
                <svg:g transform="matrix(0.0925072,0,0,0.0925072,1016.01,48.5434)">
                    <svg:path d="M102.866,192.956C103.646,189.876 105.399,187.095 107.957,185.211C110.148,183.598 113.189,182.233 117.124,182.399C126.304,182.784 141.079,178.911 141.079,178.911C141.079,178.911 136.464,187.864 126.861,194.484C117.258,201.104 101.053,200.117 101.053,200.117L102.866,192.956Z" style="fill:rgb(163,226,118);fill-rule:nonzero;" />
                    <svg:path d="M102.866,192.956C103.646,189.876 105.399,187.095 107.957,185.211C110.148,183.598 113.189,182.233 117.124,182.399C126.304,182.784 141.079,178.911 141.079,178.911C141.079,178.911 136.464,187.864 126.861,194.484C117.258,201.104 101.053,200.117 101.053,200.117L102.866,192.956Z" style="fill:none;fill-rule:nonzero;stroke-linecap:round;stroke-linejoin:round;stroke-miterlimit:10;" />
                    <svg:path d="M95.788,193.098L99.829,211.983C99.829,211.983 102.566,215.452 104.432,213.486C106.298,211.52 101.053,190.318 101.053,190.318C101.053,190.318 106.203,185.391 93.524,176.736C80.845,168.081 65.256,166.547 65.256,166.547C65.256,166.547 69.815,189.168 80.529,190.318C91.243,191.468 95.788,193.098 95.788,193.098Z" style="fill:rgb(172,232,131);fill-rule:nonzero;" />
                    <svg:path d="M95.788,193.098L99.829,211.983C99.829,211.983 102.566,215.452 104.432,213.486C106.298,211.52 101.053,190.318 101.053,190.318C101.053,190.318 106.203,185.391 93.524,176.736C80.845,168.081 65.256,166.547 65.256,166.547C65.256,166.547 69.815,189.168 80.529,190.318C91.243,191.468 95.788,193.098 95.788,193.098Z" style="fill:none;fill-rule:nonzero;stroke-linecap:round;stroke-miterlimit:10;" />
                    <svg:path d="M95.1,206.988C85.315,197.924 72.193,195.991 61.198,202.608C54.497,206.641 48.373,213.765 45.927,226.242C39.407,259.513 66.484,286.273 83.112,287.229C99.741,288.185 93.148,283.406 104.18,283.406C115.211,283.406 129.302,291.253 139.505,278.009C162.025,248.777 164.904,211.243 137.087,201.908C111.897,193.455 96.567,208.347 96.567,208.347L95.1,206.988Z" style="fill:rgb(214,125,125);fill-rule:nonzero;" />
                    <svg:path d="M66.383,265.725C47.029,244.736 55.596,216.403 61.873,202.239C61.649,202.366 61.42,202.475 61.198,202.608C54.497,206.641 48.373,213.765 45.928,226.242C39.408,259.513 66.484,286.273 83.113,287.229C88.424,287.534 91.361,287.253 93.266,286.731C84.382,281.792 74.946,275.011 66.383,265.725Z" style="fill:rgb(211,103,103);fill-rule:nonzero;" />
                    <svg:path d="M95.1,206.988C85.315,197.924 72.193,195.991 61.198,202.608C54.497,206.641 48.373,213.765 45.927,226.242C39.407,259.513 66.484,286.273 83.112,287.229C99.741,288.185 93.148,283.406 104.18,283.406C115.211,283.406 129.302,291.253 139.505,278.009C162.025,248.777 164.904,211.243 137.087,201.908C111.897,193.455 96.567,208.347 96.567,208.347L95.1,206.988Z" style="fill:none;fill-rule:nonzero;stroke-linecap:round;stroke-miterlimit:10;" />
                    <svg:path d="M78.98,265.127C77.495,265.127 76.291,263.923 76.291,262.438L76.291,255.426C76.291,253.941 77.495,252.738 78.98,252.738C80.465,252.738 81.668,253.942 81.668,255.426L81.668,262.438C81.668,263.923 80.465,265.127 78.98,265.127Z" style="fill:rgb(91,21,64);fill-rule:nonzero;" />
                    <svg:path d="M123.127,265.127C121.642,265.127 120.439,263.923 120.439,262.438L120.439,255.426C120.439,253.941 121.643,252.738 123.127,252.738C124.612,252.738 125.816,253.942 125.816,255.426L125.816,262.438C125.816,263.923 124.612,265.127 123.127,265.127Z" style="fill:rgb(91,21,64);fill-rule:nonzero;" />
                    <svg:path d="M92.885,263.908C92.885,263.908 94.641,267.941 100.721,267.941C106.801,267.941 109.222,263.908 109.222,263.908L92.885,263.908Z" style="fill:rgb(91,21,64);fill-rule:nonzero;" />
                    <svg:path d="M120.439,207.506C120.439,207.506 141.086,204.152 144.809,222.76C148.532,241.369 141.08,246.671 141.08,246.671C141.08,246.671 144.191,217.718 120.439,207.506Z" style="fill:rgb(217,142,142);fill-rule:nonzero;" />
                    <svg:path d="M102.942,198.681C102.942,198.681 108.682,189.897 116.702,188.532C124.722,187.167 140.031,180.696 140.031,180.696" style="fill:none;fill-rule:nonzero;stroke-linecap:round;stroke-miterlimit:10;" />
                    <svg:path d="M67.144,167.934C67.144,167.934 85.568,180.177 89.49,182.301C98.304,187.074 101.053,190.318 101.053,190.318" style="fill:none;fill-rule:nonzero;stroke-linecap:round;stroke-miterlimit:10;" />
                </svg:g>
                <svg:g transform="matrix(0.0925072,0,0,0.0925072,1027.35,48.6756)">
                    <svg:path d="M102.866,192.956C103.646,189.876 105.399,187.095 107.957,185.211C110.148,183.598 113.189,182.233 117.124,182.399C126.304,182.784 141.079,178.911 141.079,178.911C141.079,178.911 136.464,187.864 126.861,194.484C117.258,201.104 101.053,200.117 101.053,200.117L102.866,192.956Z" style="fill:rgb(163,226,118);fill-rule:nonzero;" />
                    <svg:path d="M102.866,192.956C103.646,189.876 105.399,187.095 107.957,185.211C110.148,183.598 113.189,182.233 117.124,182.399C126.304,182.784 141.079,178.911 141.079,178.911C141.079,178.911 136.464,187.864 126.861,194.484C117.258,201.104 101.053,200.117 101.053,200.117L102.866,192.956Z" style="fill:none;fill-rule:nonzero;stroke-linecap:round;stroke-linejoin:round;stroke-miterlimit:10;" />
                    <svg:path d="M95.788,193.098L99.829,211.983C99.829,211.983 102.566,215.452 104.432,213.486C106.298,211.52 101.053,190.318 101.053,190.318C101.053,190.318 106.203,185.391 93.524,176.736C80.845,168.081 65.256,166.547 65.256,166.547C65.256,166.547 69.815,189.168 80.529,190.318C91.243,191.468 95.788,193.098 95.788,193.098Z" style="fill:rgb(172,232,131);fill-rule:nonzero;" />
                    <svg:path d="M95.788,193.098L99.829,211.983C99.829,211.983 102.566,215.452 104.432,213.486C106.298,211.52 101.053,190.318 101.053,190.318C101.053,190.318 106.203,185.391 93.524,176.736C80.845,168.081 65.256,166.547 65.256,166.547C65.256,166.547 69.815,189.168 80.529,190.318C91.243,191.468 95.788,193.098 95.788,193.098Z" style="fill:none;fill-rule:nonzero;stroke-linecap:round;stroke-miterlimit:10;" />
                    <svg:path d="M95.1,206.988C85.315,197.924 72.193,195.991 61.198,202.608C54.497,206.641 48.373,213.765 45.927,226.242C39.407,259.513 66.484,286.273 83.112,287.229C99.741,288.185 93.148,283.406 104.18,283.406C115.211,283.406 129.302,291.253 139.505,278.009C162.025,248.777 164.904,211.243 137.087,201.908C111.897,193.455 96.567,208.347 96.567,208.347L95.1,206.988Z" style="fill:rgb(214,125,125);fill-rule:nonzero;" />
                    <svg:path d="M66.383,265.725C47.029,244.736 55.596,216.403 61.873,202.239C61.649,202.366 61.42,202.475 61.198,202.608C54.497,206.641 48.373,213.765 45.928,226.242C39.408,259.513 66.484,286.273 83.113,287.229C88.424,287.534 91.361,287.253 93.266,286.731C84.382,281.792 74.946,275.011 66.383,265.725Z" style="fill:rgb(211,103,103);fill-rule:nonzero;" />
                    <svg:path d="M95.1,206.988C85.315,197.924 72.193,195.991 61.198,202.608C54.497,206.641 48.373,213.765 45.927,226.242C39.407,259.513 66.484,286.273 83.112,287.229C99.741,288.185 93.148,283.406 104.18,283.406C115.211,283.406 129.302,291.253 139.505,278.009C162.025,248.777 164.904,211.243 137.087,201.908C111.897,193.455 96.567,208.347 96.567,208.347L95.1,206.988Z" style="fill:none;fill-rule:nonzero;stroke-linecap:round;stroke-miterlimit:10;" />
                    <svg:path d="M78.98,265.127C77.495,265.127 76.291,263.923 76.291,262.438L76.291,255.426C76.291,253.941 77.495,252.738 78.98,252.738C80.465,252.738 81.668,253.942 81.668,255.426L81.668,262.438C81.668,263.923 80.465,265.127 78.98,265.127Z" style="fill:rgb(91,21,64);fill-rule:nonzero;" />
                    <svg:path d="M123.127,265.127C121.642,265.127 120.439,263.923 120.439,262.438L120.439,255.426C120.439,253.941 121.643,252.738 123.127,252.738C124.612,252.738 125.816,253.942 125.816,255.426L125.816,262.438C125.816,263.923 124.612,265.127 123.127,265.127Z" style="fill:rgb(91,21,64);fill-rule:nonzero;" />
                    <svg:path d="M92.885,263.908C92.885,263.908 94.641,267.941 100.721,267.941C106.801,267.941 109.222,263.908 109.222,263.908L92.885,263.908Z" style="fill:rgb(91,21,64);fill-rule:nonzero;" />
                    <svg:path d="M120.439,207.506C120.439,207.506 141.086,204.152 144.809,222.76C148.532,241.369 141.08,246.671 141.08,246.671C141.08,246.671 144.191,217.718 120.439,207.506Z" style="fill:rgb(217,142,142);fill-rule:nonzero;" />
                    <svg:path d="M102.942,198.681C102.942,198.681 108.682,189.897 116.702,188.532C124.722,187.167 140.031,180.696 140.031,180.696" style="fill:none;fill-rule:nonzero;stroke-linecap:round;stroke-miterlimit:10;" />
                    <svg:path d="M67.144,167.934C67.144,167.934 85.568,180.177 89.49,182.301C98.304,187.074 101.053,190.318 101.053,190.318" style="fill:none;fill-rule:nonzero;stroke-linecap:round;stroke-miterlimit:10;" />
                </svg:g>
            </svg:g>
            <svg:g transform="matrix(1,0,0,1,71.6131,0.477007)">
                <svg:g transform="matrix(0.0925072,0,0,0.0925072,1003.82,48.7383)">
                    <svg:path d="M102.866,192.956C103.646,189.876 105.399,187.095 107.957,185.211C110.148,183.598 113.189,182.233 117.124,182.399C126.304,182.784 141.079,178.911 141.079,178.911C141.079,178.911 136.464,187.864 126.861,194.484C117.258,201.104 101.053,200.117 101.053,200.117L102.866,192.956Z" style="fill:rgb(163,226,118);fill-rule:nonzero;" />
                    <svg:path d="M102.866,192.956C103.646,189.876 105.399,187.095 107.957,185.211C110.148,183.598 113.189,182.233 117.124,182.399C126.304,182.784 141.079,178.911 141.079,178.911C141.079,178.911 136.464,187.864 126.861,194.484C117.258,201.104 101.053,200.117 101.053,200.117L102.866,192.956Z" style="fill:none;fill-rule:nonzero;stroke-linecap:round;stroke-linejoin:round;stroke-miterlimit:10;" />
                    <svg:path d="M95.788,193.098L99.829,211.983C99.829,211.983 102.566,215.452 104.432,213.486C106.298,211.52 101.053,190.318 101.053,190.318C101.053,190.318 106.203,185.391 93.524,176.736C80.845,168.081 65.256,166.547 65.256,166.547C65.256,166.547 69.815,189.168 80.529,190.318C91.243,191.468 95.788,193.098 95.788,193.098Z" style="fill:rgb(172,232,131);fill-rule:nonzero;" />
                    <svg:path d="M95.788,193.098L99.829,211.983C99.829,211.983 102.566,215.452 104.432,213.486C106.298,211.52 101.053,190.318 101.053,190.318C101.053,190.318 106.203,185.391 93.524,176.736C80.845,168.081 65.256,166.547 65.256,166.547C65.256,166.547 69.815,189.168 80.529,190.318C91.243,191.468 95.788,193.098 95.788,193.098Z" style="fill:none;fill-rule:nonzero;stroke-linecap:round;stroke-miterlimit:10;" />
                    <svg:path d="M95.1,206.988C85.315,197.924 72.193,195.991 61.198,202.608C54.497,206.641 48.373,213.765 45.927,226.242C39.407,259.513 66.484,286.273 83.112,287.229C99.741,288.185 93.148,283.406 104.18,283.406C115.211,283.406 129.302,291.253 139.505,278.009C162.025,248.777 164.904,211.243 137.087,201.908C111.897,193.455 96.567,208.347 96.567,208.347L95.1,206.988Z" style="fill:rgb(214,125,125);fill-rule:nonzero;" />
                    <svg:path d="M66.383,265.725C47.029,244.736 55.596,216.403 61.873,202.239C61.649,202.366 61.42,202.475 61.198,202.608C54.497,206.641 48.373,213.765 45.928,226.242C39.408,259.513 66.484,286.273 83.113,287.229C88.424,287.534 91.361,287.253 93.266,286.731C84.382,281.792 74.946,275.011 66.383,265.725Z" style="fill:rgb(211,103,103);fill-rule:nonzero;" />
                    <svg:path d="M95.1,206.988C85.315,197.924 72.193,195.991 61.198,202.608C54.497,206.641 48.373,213.765 45.927,226.242C39.407,259.513 66.484,286.273 83.112,287.229C99.741,288.185 93.148,283.406 104.18,283.406C115.211,283.406 129.302,291.253 139.505,278.009C162.025,248.777 164.904,211.243 137.087,201.908C111.897,193.455 96.567,208.347 96.567,208.347L95.1,206.988Z" style="fill:none;fill-rule:nonzero;stroke-linecap:round;stroke-miterlimit:10;" />
                    <svg:path d="M78.98,265.127C77.495,265.127 76.291,263.923 76.291,262.438L76.291,255.426C76.291,253.941 77.495,252.738 78.98,252.738C80.465,252.738 81.668,253.942 81.668,255.426L81.668,262.438C81.668,263.923 80.465,265.127 78.98,265.127Z" style="fill:rgb(91,21,64);fill-rule:nonzero;" />
                    <svg:path d="M123.127,265.127C121.642,265.127 120.439,263.923 120.439,262.438L120.439,255.426C120.439,253.941 121.643,252.738 123.127,252.738C124.612,252.738 125.816,253.942 125.816,255.426L125.816,262.438C125.816,263.923 124.612,265.127 123.127,265.127Z" style="fill:rgb(91,21,64);fill-rule:nonzero;" />
                    <svg:path d="M92.885,263.908C92.885,263.908 94.641,267.941 100.721,267.941C106.801,267.941 109.222,263.908 109.222,263.908L92.885,263.908Z" style="fill:rgb(91,21,64);fill-rule:nonzero;" />
                    <svg:path d="M120.439,207.506C120.439,207.506 141.086,204.152 144.809,222.76C148.532,241.369 141.08,246.671 141.08,246.671C141.08,246.671 144.191,217.718 120.439,207.506Z" style="fill:rgb(217,142,142);fill-rule:nonzero;" />
                    <svg:path d="M102.942,198.681C102.942,198.681 108.682,189.897 116.702,188.532C124.722,187.167 140.031,180.696 140.031,180.696" style="fill:none;fill-rule:nonzero;stroke-linecap:round;stroke-miterlimit:10;" />
                    <svg:path d="M67.144,167.934C67.144,167.934 85.568,180.177 89.49,182.301C98.304,187.074 101.053,190.318 101.053,190.318" style="fill:none;fill-rule:nonzero;stroke-linecap:round;stroke-miterlimit:10;" />
                </svg:g>
                <svg:g transform="matrix(0.0925072,0,0,0.0925072,1016.01,48.5434)">
                    <svg:path d="M102.866,192.956C103.646,189.876 105.399,187.095 107.957,185.211C110.148,183.598 113.189,182.233 117.124,182.399C126.304,182.784 141.079,178.911 141.079,178.911C141.079,178.911 136.464,187.864 126.861,194.484C117.258,201.104 101.053,200.117 101.053,200.117L102.866,192.956Z" style="fill:rgb(163,226,118);fill-rule:nonzero;" />
                    <svg:path d="M102.866,192.956C103.646,189.876 105.399,187.095 107.957,185.211C110.148,183.598 113.189,182.233 117.124,182.399C126.304,182.784 141.079,178.911 141.079,178.911C141.079,178.911 136.464,187.864 126.861,194.484C117.258,201.104 101.053,200.117 101.053,200.117L102.866,192.956Z" style="fill:none;fill-rule:nonzero;stroke-linecap:round;stroke-linejoin:round;stroke-miterlimit:10;" />
                    <svg:path d="M95.788,193.098L99.829,211.983C99.829,211.983 102.566,215.452 104.432,213.486C106.298,211.52 101.053,190.318 101.053,190.318C101.053,190.318 106.203,185.391 93.524,176.736C80.845,168.081 65.256,166.547 65.256,166.547C65.256,166.547 69.815,189.168 80.529,190.318C91.243,191.468 95.788,193.098 95.788,193.098Z" style="fill:rgb(172,232,131);fill-rule:nonzero;" />
                    <svg:path d="M95.788,193.098L99.829,211.983C99.829,211.983 102.566,215.452 104.432,213.486C106.298,211.52 101.053,190.318 101.053,190.318C101.053,190.318 106.203,185.391 93.524,176.736C80.845,168.081 65.256,166.547 65.256,166.547C65.256,166.547 69.815,189.168 80.529,190.318C91.243,191.468 95.788,193.098 95.788,193.098Z" style="fill:none;fill-rule:nonzero;stroke-linecap:round;stroke-miterlimit:10;" />
                    <svg:path d="M95.1,206.988C85.315,197.924 72.193,195.991 61.198,202.608C54.497,206.641 48.373,213.765 45.927,226.242C39.407,259.513 66.484,286.273 83.112,287.229C99.741,288.185 93.148,283.406 104.18,283.406C115.211,283.406 129.302,291.253 139.505,278.009C162.025,248.777 164.904,211.243 137.087,201.908C111.897,193.455 96.567,208.347 96.567,208.347L95.1,206.988Z" style="fill:rgb(214,125,125);fill-rule:nonzero;" />
                    <svg:path d="M66.383,265.725C47.029,244.736 55.596,216.403 61.873,202.239C61.649,202.366 61.42,202.475 61.198,202.608C54.497,206.641 48.373,213.765 45.928,226.242C39.408,259.513 66.484,286.273 83.113,287.229C88.424,287.534 91.361,287.253 93.266,286.731C84.382,281.792 74.946,275.011 66.383,265.725Z" style="fill:rgb(211,103,103);fill-rule:nonzero;" />
                    <svg:path d="M95.1,206.988C85.315,197.924 72.193,195.991 61.198,202.608C54.497,206.641 48.373,213.765 45.927,226.242C39.407,259.513 66.484,286.273 83.112,287.229C99.741,288.185 93.148,283.406 104.18,283.406C115.211,283.406 129.302,291.253 139.505,278.009C162.025,248.777 164.904,211.243 137.087,201.908C111.897,193.455 96.567,208.347 96.567,208.347L95.1,206.988Z" style="fill:none;fill-rule:nonzero;stroke-linecap:round;stroke-miterlimit:10;" />
                    <svg:path d="M78.98,265.127C77.495,265.127 76.291,263.923 76.291,262.438L76.291,255.426C76.291,253.941 77.495,252.738 78.98,252.738C80.465,252.738 81.668,253.942 81.668,255.426L81.668,262.438C81.668,263.923 80.465,265.127 78.98,265.127Z" style="fill:rgb(91,21,64);fill-rule:nonzero;" />
                    <svg:path d="M123.127,265.127C121.642,265.127 120.439,263.923 120.439,262.438L120.439,255.426C120.439,253.941 121.643,252.738 123.127,252.738C124.612,252.738 125.816,253.942 125.816,255.426L125.816,262.438C125.816,263.923 124.612,265.127 123.127,265.127Z" style="fill:rgb(91,21,64);fill-rule:nonzero;" />
                    <svg:path d="M92.885,263.908C92.885,263.908 94.641,267.941 100.721,267.941C106.801,267.941 109.222,263.908 109.222,263.908L92.885,263.908Z" style="fill:rgb(91,21,64);fill-rule:nonzero;" />
                    <svg:path d="M120.439,207.506C120.439,207.506 141.086,204.152 144.809,222.76C148.532,241.369 141.08,246.671 141.08,246.671C141.08,246.671 144.191,217.718 120.439,207.506Z" style="fill:rgb(217,142,142);fill-rule:nonzero;" />
                    <svg:path d="M102.942,198.681C102.942,198.681 108.682,189.897 116.702,188.532C124.722,187.167 140.031,180.696 140.031,180.696" style="fill:none;fill-rule:nonzero;stroke-linecap:round;stroke-miterlimit:10;" />
                    <svg:path d="M67.144,167.934C67.144,167.934 85.568,180.177 89.49,182.301C98.304,187.074 101.053,190.318 101.053,190.318" style="fill:none;fill-rule:nonzero;stroke-linecap:round;stroke-miterlimit:10;" />
                </svg:g>
                <svg:g transform="matrix(0.0925072,0,0,0.0925072,1027.35,48.6756)">
                    <svg:path d="M102.866,192.956C103.646,189.876 105.399,187.095 107.957,185.211C110.148,183.598 113.189,182.233 117.124,182.399C126.304,182.784 141.079,178.911 141.079,178.911C141.079,178.911 136.464,187.864 126.861,194.484C117.258,201.104 101.053,200.117 101.053,200.117L102.866,192.956Z" style="fill:rgb(163,226,118);fill-rule:nonzero;" />
                    <svg:path d="M102.866,192.956C103.646,189.876 105.399,187.095 107.957,185.211C110.148,183.598 113.189,182.233 117.124,182.399C126.304,182.784 141.079,178.911 141.079,178.911C141.079,178.911 136.464,187.864 126.861,194.484C117.258,201.104 101.053,200.117 101.053,200.117L102.866,192.956Z" style="fill:none;fill-rule:nonzero;stroke-linecap:round;stroke-linejoin:round;stroke-miterlimit:10;" />
                    <svg:path d="M95.788,193.098L99.829,211.983C99.829,211.983 102.566,215.452 104.432,213.486C106.298,211.52 101.053,190.318 101.053,190.318C101.053,190.318 106.203,185.391 93.524,176.736C80.845,168.081 65.256,166.547 65.256,166.547C65.256,166.547 69.815,189.168 80.529,190.318C91.243,191.468 95.788,193.098 95.788,193.098Z" style="fill:rgb(172,232,131);fill-rule:nonzero;" />
                    <svg:path d="M95.788,193.098L99.829,211.983C99.829,211.983 102.566,215.452 104.432,213.486C106.298,211.52 101.053,190.318 101.053,190.318C101.053,190.318 106.203,185.391 93.524,176.736C80.845,168.081 65.256,166.547 65.256,166.547C65.256,166.547 69.815,189.168 80.529,190.318C91.243,191.468 95.788,193.098 95.788,193.098Z" style="fill:none;fill-rule:nonzero;stroke-linecap:round;stroke-miterlimit:10;" />
                    <svg:path d="M95.1,206.988C85.315,197.924 72.193,195.991 61.198,202.608C54.497,206.641 48.373,213.765 45.927,226.242C39.407,259.513 66.484,286.273 83.112,287.229C99.741,288.185 93.148,283.406 104.18,283.406C115.211,283.406 129.302,291.253 139.505,278.009C162.025,248.777 164.904,211.243 137.087,201.908C111.897,193.455 96.567,208.347 96.567,208.347L95.1,206.988Z" style="fill:rgb(214,125,125);fill-rule:nonzero;" />
                    <svg:path d="M66.383,265.725C47.029,244.736 55.596,216.403 61.873,202.239C61.649,202.366 61.42,202.475 61.198,202.608C54.497,206.641 48.373,213.765 45.928,226.242C39.408,259.513 66.484,286.273 83.113,287.229C88.424,287.534 91.361,287.253 93.266,286.731C84.382,281.792 74.946,275.011 66.383,265.725Z" style="fill:rgb(211,103,103);fill-rule:nonzero;" />
                    <svg:path d="M95.1,206.988C85.315,197.924 72.193,195.991 61.198,202.608C54.497,206.641 48.373,213.765 45.927,226.242C39.407,259.513 66.484,286.273 83.112,287.229C99.741,288.185 93.148,283.406 104.18,283.406C115.211,283.406 129.302,291.253 139.505,278.009C162.025,248.777 164.904,211.243 137.087,201.908C111.897,193.455 96.567,208.347 96.567,208.347L95.1,206.988Z" style="fill:none;fill-rule:nonzero;stroke-linecap:round;stroke-miterlimit:10;" />
                    <svg:path d="M78.98,265.127C77.495,265.127 76.291,263.923 76.291,262.438L76.291,255.426C76.291,253.941 77.495,252.738 78.98,252.738C80.465,252.738 81.668,253.942 81.668,255.426L81.668,262.438C81.668,263.923 80.465,265.127 78.98,265.127Z" style="fill:rgb(91,21,64);fill-rule:nonzero;" />
                    <svg:path d="M123.127,265.127C121.642,265.127 120.439,263.923 120.439,262.438L120.439,255.426C120.439,253.941 121.643,252.738 123.127,252.738C124.612,252.738 125.816,253.942 125.816,255.426L125.816,262.438C125.816,263.923 124.612,265.127 123.127,265.127Z" style="fill:rgb(91,21,64);fill-rule:nonzero;" />
                    <svg:path d="M92.885,263.908C92.885,263.908 94.641,267.941 100.721,267.941C106.801,267.941 109.222,263.908 109.222,263.908L92.885,263.908Z" style="fill:rgb(91,21,64);fill-rule:nonzero;" />
                    <svg:path d="M120.439,207.506C120.439,207.506 141.086,204.152 144.809,222.76C148.532,241.369 141.08,246.671 141.08,246.671C141.08,246.671 144.191,217.718 120.439,207.506Z" style="fill:rgb(217,142,142);fill-rule:nonzero;" />
                    <svg:path d="M102.942,198.681C102.942,198.681 108.682,189.897 116.702,188.532C124.722,187.167 140.031,180.696 140.031,180.696" style="fill:none;fill-rule:nonzero;stroke-linecap:round;stroke-miterlimit:10;" />
                    <svg:path d="M67.144,167.934C67.144,167.934 85.568,180.177 89.49,182.301C98.304,187.074 101.053,190.318 101.053,190.318" style="fill:none;fill-rule:nonzero;stroke-linecap:round;stroke-miterlimit:10;" />
                </svg:g>
            </svg:g>
        </svg:g>
    </g>
</svg>