<?xml version='1.0' encoding='UTF-8'?>
<svg xmlns="http://www.w3.org/2000/svg" xmlns:xlink="http://www.w3.org/1999/xlink" xmlns:svg="http://www.w3.org/2000/svg" xmlns:serif="http://www.serif.com/" height="100%" style="fill-rule:evenodd;clip-rule:evenodd;" version="1.1" viewBox="1000.0 175.0 120.0 30.0" width="100%">
    <g>
        <svg:rect x="1000" y="175" width="120" height="30" style="fill:rgb(115,252,214);" />
        <svg:g>
            <svg:g transform="matrix(0.27521,0,0,0.27521,925.865,124.162)">
                <svg:g>
                    <svg:path d="M452.365,254.272C439.914,250.293 421.245,247.761 400.365,247.761C379.485,247.761 360.816,250.293 348.366,254.272L332.492,254.272L332.492,265.971C332.492,276.028 362.88,284.181 400.366,284.181C437.852,284.181 468.24,276.028 468.24,265.971L468.24,254.272L452.365,254.272Z" style="fill:rgb(223,191,143);fill-rule:nonzero;" />
                    <svg:ellipse cx="400.365" cy="254.272" rx="67.874" ry="18.21" style="fill:rgb(197,156,120);" />
                </svg:g>
                <svg:path d="M400.365,236.062C362.879,236.062 332.491,244.215 332.491,254.272L332.491,265.971C332.491,276.028 362.879,284.181 400.365,284.181C437.851,284.181 468.239,276.028 468.239,265.971L468.239,254.271C468.239,244.215 437.851,236.062 400.365,236.062Z" style="fill:none;fill-rule:nonzero;stroke-linecap:round;stroke-miterlimit:10;" />
                <svg:g>
                    <svg:path d="M452.365,233.014C439.914,229.035 421.245,226.504 400.365,226.504C379.485,226.504 360.816,229.035 348.366,233.014L332.492,233.014L332.492,244.714C332.492,254.771 362.88,262.924 400.366,262.924C437.852,262.924 468.24,254.771 468.24,244.714L468.24,233.014L452.365,233.014Z" style="fill:rgb(223,191,143);fill-rule:nonzero;" />
                    <svg:ellipse cx="400.365" cy="233.014" rx="67.874" ry="18.21" style="fill:rgb(197,156,120);" />
                </svg:g>
                <svg:path d="M400.365,214.804C362.879,214.804 332.491,222.957 332.491,233.014L332.491,244.713C332.491,254.77 362.879,262.923 400.365,262.923C437.851,262.923 468.239,254.77 468.239,244.713L468.239,233.013C468.239,222.957 437.851,214.804 400.365,214.804Z" style="fill:none;fill-rule:nonzero;stroke-linecap:round;stroke-miterlimit:10;" />
                <svg:g>
                    <svg:path d="M452.365,211.865C439.914,207.886 421.245,205.355 400.365,205.355C379.485,205.355 360.816,207.886 348.366,211.865L332.492,211.865L332.492,223.564C332.492,233.621 362.88,241.774 400.366,241.774C437.852,241.774 468.24,233.621 468.24,223.564L468.24,211.865L452.365,211.865Z" style="fill:rgb(223,191,143);fill-rule:nonzero;" />
                    <svg:ellipse cx="400.365" cy="211.865" rx="67.874" ry="18.21" style="fill:rgb(197,156,120);" />
                </svg:g>
                <svg:path d="M400.365,193.655C362.879,193.655 332.491,201.808 332.491,211.865L332.491,223.565C332.491,233.622 362.879,241.775 400.365,241.775C437.851,241.775 468.239,233.622 468.239,223.565L468.239,211.866C468.239,201.808 437.851,193.655 400.365,193.655Z" style="fill:none;fill-rule:nonzero;stroke-linecap:round;stroke-miterlimit:10;" />
                <svg:path d="M345.386,201.186C340.609,204.72 334.609,206.505 336.816,213.086C339.023,219.667 327.664,223.564 348.353,223.564C354.479,223.564 364.156,217.13 365.667,233.014C367.177,248.897 362.723,276.087 370.966,276.676C379.209,277.265 370.966,228.145 375.676,226.504C380.386,224.863 396.201,232.866 400.364,223.565C404.527,214.264 398.05,214.766 406.882,211.866C415.714,208.966 412.77,200.02 406.882,198.31C400.994,196.601 392.287,202.242 386.863,198.31C381.44,194.378 355.095,194.004 345.386,201.186Z" style="fill:rgb(170,127,111);fill-rule:nonzero;" />
                <svg:path d="M375.677,226.504C375.988,226.395 376.351,226.331 376.753,226.299C375.148,224.539 372.713,220.69 359.946,218.384C351.779,216.909 357.159,200.398 361.317,196.087C354.989,196.868 349.022,198.497 345.386,201.186C340.609,204.72 334.609,206.505 336.816,213.086C339.023,219.667 327.664,223.564 348.353,223.564C354.479,223.564 364.157,217.13 365.667,233.014C367.177,248.897 362.723,276.087 370.966,276.676C379.21,277.265 370.967,228.145 375.677,226.504Z" style="fill:rgb(154,105,86);fill-rule:nonzero;" />
                <svg:path d="M345.386,201.186C340.609,204.72 334.609,206.505 336.816,213.086C339.023,219.667 327.664,223.564 348.353,223.564C354.479,223.564 364.156,217.13 365.667,233.014C367.177,248.897 362.723,276.087 370.966,276.676C379.209,277.265 370.966,228.145 375.676,226.504C380.386,224.863 396.201,232.866 400.364,223.565C404.527,214.264 398.05,214.766 406.882,211.866C415.714,208.966 412.77,200.02 406.882,198.31C400.994,196.601 392.287,202.242 386.863,198.31C381.44,194.378 355.095,194.004 345.386,201.186Z" style="fill:none;fill-rule:nonzero;stroke-linecap:round;stroke-miterlimit:10;" />
                <svg:path d="M346.826,205.355L348.365,211.865L374.055,214.804C374.055,214.804 385.097,211.787 384.508,208.61C383.919,205.432 385.886,200.133 380.487,199.544C375.088,198.955 349.77,198.801 346.826,205.355Z" style="fill:rgb(238,221,164);fill-rule:nonzero;" />
                <svg:path d="M374.056,214.804C374.056,214.804 385.098,211.787 384.509,208.61C384.062,206.2 385.079,202.573 383.243,200.703L374.056,206.776L346.827,205.355L348.366,211.865L374.056,214.804Z" style="fill:rgb(229,184,140);fill-rule:nonzero;" />
                <svg:path d="M346.826,205.355L348.365,211.865L374.055,214.804C374.055,214.804 385.097,211.787 384.508,208.61C383.919,205.432 385.886,200.133 380.487,199.544C375.088,198.955 349.77,198.801 346.826,205.355Z" style="fill:none;fill-rule:nonzero;stroke-linecap:round;stroke-miterlimit:10;" />
                <svg:path d="M426.438,220.904C426.438,220.904 428.658,223.743 434.666,222.806C440.673,221.868 442.581,218.385 442.581,218.385" style="fill:none;fill-rule:nonzero;stroke-linecap:round;stroke-miterlimit:10;" />
                <svg:path d="M412.884,225.359C411.399,225.359 410.195,224.155 410.195,222.671L410.195,215.659C410.195,214.174 411.399,212.971 412.884,212.971C414.369,212.971 415.572,214.175 415.572,215.659L415.572,222.671C415.572,224.155 414.368,225.359 412.884,225.359Z" style="fill:rgb(91,21,64);fill-rule:nonzero;" />
                <svg:path d="M455.053,219.432C453.568,219.432 452.365,218.228 452.365,216.744L452.365,209.732C452.365,208.247 453.569,207.043 455.053,207.043C456.538,207.043 457.742,208.247 457.742,209.732L457.742,216.744C457.741,218.228 456.538,219.432 455.053,219.432Z" style="fill:rgb(91,21,64);fill-rule:nonzero;" />
            </svg:g>
            <svg:g transform="matrix(0.27521,0,0,0.27521,973.093,123.89)">
                <svg:g>
                    <svg:path d="M452.365,254.272C439.914,250.293 421.245,247.761 400.365,247.761C379.485,247.761 360.816,250.293 348.366,254.272L332.492,254.272L332.492,265.971C332.492,276.028 362.88,284.181 400.366,284.181C437.852,284.181 468.24,276.028 468.24,265.971L468.24,254.272L452.365,254.272Z" style="fill:rgb(223,191,143);fill-rule:nonzero;" />
                    <svg:ellipse cx="400.365" cy="254.272" rx="67.874" ry="18.21" style="fill:rgb(197,156,120);" />
                </svg:g>
                <svg:path d="M400.365,236.062C362.879,236.062 332.491,244.215 332.491,254.272L332.491,265.971C332.491,276.028 362.879,284.181 400.365,284.181C437.851,284.181 468.239,276.028 468.239,265.971L468.239,254.271C468.239,244.215 437.851,236.062 400.365,236.062Z" style="fill:none;fill-rule:nonzero;stroke-linecap:round;stroke-miterlimit:10;" />
                <svg:g>
                    <svg:path d="M452.365,233.014C439.914,229.035 421.245,226.504 400.365,226.504C379.485,226.504 360.816,229.035 348.366,233.014L332.492,233.014L332.492,244.714C332.492,254.771 362.88,262.924 400.366,262.924C437.852,262.924 468.24,254.771 468.24,244.714L468.24,233.014L452.365,233.014Z" style="fill:rgb(223,191,143);fill-rule:nonzero;" />
                    <svg:ellipse cx="400.365" cy="233.014" rx="67.874" ry="18.21" style="fill:rgb(197,156,120);" />
                </svg:g>
                <svg:path d="M400.365,214.804C362.879,214.804 332.491,222.957 332.491,233.014L332.491,244.713C332.491,254.77 362.879,262.923 400.365,262.923C437.851,262.923 468.239,254.77 468.239,244.713L468.239,233.013C468.239,222.957 437.851,214.804 400.365,214.804Z" style="fill:none;fill-rule:nonzero;stroke-linecap:round;stroke-miterlimit:10;" />
                <svg:g>
                    <svg:path d="M452.365,211.865C439.914,207.886 421.245,205.355 400.365,205.355C379.485,205.355 360.816,207.886 348.366,211.865L332.492,211.865L332.492,223.564C332.492,233.621 362.88,241.774 400.366,241.774C437.852,241.774 468.24,233.621 468.24,223.564L468.24,211.865L452.365,211.865Z" style="fill:rgb(223,191,143);fill-rule:nonzero;" />
                    <svg:ellipse cx="400.365" cy="211.865" rx="67.874" ry="18.21" style="fill:rgb(197,156,120);" />
                </svg:g>
                <svg:path d="M400.365,193.655C362.879,193.655 332.491,201.808 332.491,211.865L332.491,223.565C332.491,233.622 362.879,241.775 400.365,241.775C437.851,241.775 468.239,233.622 468.239,223.565L468.239,211.866C468.239,201.808 437.851,193.655 400.365,193.655Z" style="fill:none;fill-rule:nonzero;stroke-linecap:round;stroke-miterlimit:10;" />
                <svg:path d="M345.386,201.186C340.609,204.72 334.609,206.505 336.816,213.086C339.023,219.667 327.664,223.564 348.353,223.564C354.479,223.564 364.156,217.13 365.667,233.014C367.177,248.897 362.723,276.087 370.966,276.676C379.209,277.265 370.966,228.145 375.676,226.504C380.386,224.863 396.201,232.866 400.364,223.565C404.527,214.264 398.05,214.766 406.882,211.866C415.714,208.966 412.77,200.02 406.882,198.31C400.994,196.601 392.287,202.242 386.863,198.31C381.44,194.378 355.095,194.004 345.386,201.186Z" style="fill:rgb(170,127,111);fill-rule:nonzero;" />
                <svg:path d="M375.677,226.504C375.988,226.395 376.351,226.331 376.753,226.299C375.148,224.539 372.713,220.69 359.946,218.384C351.779,216.909 357.159,200.398 361.317,196.087C354.989,196.868 349.022,198.497 345.386,201.186C340.609,204.72 334.609,206.505 336.816,213.086C339.023,219.667 327.664,223.564 348.353,223.564C354.479,223.564 364.157,217.13 365.667,233.014C367.177,248.897 362.723,276.087 370.966,276.676C379.21,277.265 370.967,228.145 375.677,226.504Z" style="fill:rgb(154,105,86);fill-rule:nonzero;" />
                <svg:path d="M345.386,201.186C340.609,204.72 334.609,206.505 336.816,213.086C339.023,219.667 327.664,223.564 348.353,223.564C354.479,223.564 364.156,217.13 365.667,233.014C367.177,248.897 362.723,276.087 370.966,276.676C379.209,277.265 370.966,228.145 375.676,226.504C380.386,224.863 396.201,232.866 400.364,223.565C404.527,214.264 398.05,214.766 406.882,211.866C415.714,208.966 412.77,200.02 406.882,198.31C400.994,196.601 392.287,202.242 386.863,198.31C381.44,194.378 355.095,194.004 345.386,201.186Z" style="fill:none;fill-rule:nonzero;stroke-linecap:round;stroke-miterlimit:10;" />
                <svg:path d="M346.826,205.355L348.365,211.865L374.055,214.804C374.055,214.804 385.097,211.787 384.508,208.61C383.919,205.432 385.886,200.133 380.487,199.544C375.088,198.955 349.77,198.801 346.826,205.355Z" style="fill:rgb(238,221,164);fill-rule:nonzero;" />
                <svg:path d="M374.056,214.804C374.056,214.804 385.098,211.787 384.509,208.61C384.062,206.2 385.079,202.573 383.243,200.703L374.056,206.776L346.827,205.355L348.366,211.865L374.056,214.804Z" style="fill:rgb(229,184,140);fill-rule:nonzero;" />
                <svg:path d="M346.826,205.355L348.365,211.865L374.055,214.804C374.055,214.804 385.097,211.787 384.508,208.61C383.919,205.432 385.886,200.133 380.487,199.544C375.088,198.955 349.77,198.801 346.826,205.355Z" style="fill:none;fill-rule:nonzero;stroke-linecap:round;stroke-miterlimit:10;" />
                <svg:path d="M426.438,220.904C426.438,220.904 428.658,223.743 434.666,222.806C440.673,221.868 442.581,218.385 442.581,218.385" style="fill:none;fill-rule:nonzero;stroke-linecap:round;stroke-miterlimit:10;" />
                <svg:path d="M412.884,225.359C411.399,225.359 410.195,224.155 410.195,222.671L410.195,215.659C410.195,214.174 411.399,212.971 412.884,212.971C414.369,212.971 415.572,214.175 415.572,215.659L415.572,222.671C415.572,224.155 414.368,225.359 412.884,225.359Z" style="fill:rgb(91,21,64);fill-rule:nonzero;" />
                <svg:path d="M455.053,219.432C453.568,219.432 452.365,218.228 452.365,216.744L452.365,209.732C452.365,208.247 453.569,207.043 455.053,207.043C456.538,207.043 457.742,208.247 457.742,209.732L457.742,216.744C457.741,218.228 456.538,219.432 455.053,219.432Z" style="fill:rgb(91,21,64);fill-rule:nonzero;" />
            </svg:g>
        </svg:g>
    </g>
</svg>