<?xml version='1.0' encoding='UTF-8'?>
<svg xmlns="http://www.w3.org/2000/svg" xmlns:xlink="http://www.w3.org/1999/xlink" xmlns:svg="http://www.w3.org/2000/svg" xmlns:serif="http://www.serif.com/" height="100%" style="fill-rule:evenodd;clip-rule:evenodd;" version="1.1" viewBox="1000.0 287.5 120.0 45.0" width="100%">
    <g>
        <svg:rect x="1000" y="287.5" width="120" height="45" style="fill:rgb(255,212,121);" />
        <svg:g>
            <svg:g transform="matrix(0.459592,0,0,0.459592,987.489,191.736)">
                <svg:g>
                    <svg:g>
                        <svg:g>
                            <svg:g>
                                <svg:g>
                                    <svg:path d="M144.946,264.813C144.946,262.662 143.763,260.79 142.014,259.804C143.674,258.796 144.786,256.976 144.786,254.892C144.786,252.462 143.276,250.389 141.145,249.547C142.755,248.528 143.828,246.736 143.828,244.69C143.828,241.813 141.713,239.437 138.954,239.014C139.704,238.043 140.155,236.829 140.155,235.507C140.155,232.332 137.581,229.757 134.405,229.757C133.65,229.757 132.93,229.907 132.269,230.171C131.886,227.367 129.488,225.205 126.579,225.205C125.402,225.205 124.308,225.56 123.397,226.167C122.815,223.607 120.53,221.695 117.795,221.695C116.241,221.695 114.833,222.315 113.798,223.317C113.016,221.07 110.885,219.456 108.372,219.456C106.26,219.456 104.423,220.6 103.423,222.296C102.424,220.598 100.582,219.456 98.47,219.456C98.443,219.456 98.417,219.461 98.39,219.461C98.363,219.461 98.337,219.456 98.31,219.456C96.197,219.456 94.356,220.599 93.357,222.296C92.357,220.599 90.52,219.456 88.408,219.456C85.895,219.456 83.764,221.071 82.982,223.317C81.947,222.315 80.539,221.695 78.985,221.695C76.249,221.695 73.964,223.607 73.383,226.167C72.472,225.56 71.378,225.205 70.201,225.205C67.292,225.205 64.894,227.367 64.511,230.171C63.85,229.906 63.131,229.757 62.375,229.757C59.2,229.757 56.625,232.331 56.625,235.507C56.625,236.829 57.076,238.043 57.826,239.014C55.067,239.437 52.952,241.813 52.952,244.69C52.952,246.736 54.024,248.528 55.635,249.547C53.504,250.389 51.994,252.462 51.994,254.892C51.994,256.976 53.107,258.796 54.766,259.804C53.017,260.79 51.834,262.662 51.834,264.813C51.834,267.336 53.462,269.475 55.723,270.249C54.423,271.303 53.591,272.911 53.591,274.715C53.591,277.53 55.615,279.868 58.287,280.364C57.644,281.292 57.264,282.418 57.264,283.633C57.264,286.808 59.838,289.383 63.013,289.383C63.574,289.383 64.115,289.299 64.628,289.149C64.627,289.192 64.621,289.234 64.621,289.277C64.621,292.452 67.195,295.026 70.371,295.026C72.062,295.026 73.578,294.291 74.63,293.129C74.95,296.001 77.384,298.235 80.341,298.235C81.993,298.235 83.478,297.534 84.527,296.418C85.388,298.508 87.443,299.981 89.843,299.981C91.356,299.981 92.729,299.392 93.756,298.436C94.783,299.392 96.155,299.981 97.669,299.981C97.913,299.981 98.152,299.961 98.388,299.931C98.624,299.96 98.863,299.981 99.107,299.981C100.62,299.981 101.993,299.392 103.02,298.436C104.047,299.392 105.419,299.981 106.933,299.981C109.334,299.981 111.389,298.508 112.249,296.418C113.298,297.534 114.783,298.235 116.435,298.235C119.393,298.235 121.826,296.001 122.147,293.129C123.199,294.291 124.715,295.026 126.406,295.026C129.581,295.026 132.156,292.452 132.156,289.277C132.156,289.234 132.15,289.192 132.15,289.149C132.663,289.299 133.204,289.383 133.765,289.383C136.941,289.383 139.515,286.809 139.515,283.633C139.515,282.418 139.136,281.292 138.492,280.364C141.164,279.869 143.188,277.53 143.188,274.715C143.188,272.911 142.356,271.303 141.056,270.249C143.318,269.474 144.946,267.336 144.946,264.813Z" style="fill:rgb(248,229,229);fill-rule:nonzero;" />
                                </svg:g>
                                <svg:g>
                                    <svg:path d="M64.255,243.575C65.47,245.216 67.278,246.303 69.15,246.619C70.093,246.757 71.045,246.764 71.978,246.578C72.445,246.515 72.902,246.343 73.361,246.244L74.704,245.744L75.519,245.441L75.849,246.341C76.156,247.176 76.695,248.075 77.317,248.731C77.944,249.403 78.694,249.891 79.525,250.085C80.357,250.276 81.248,250.245 82.15,250.028C82.6,249.925 83.053,249.743 83.504,249.607L84.838,248.981L85.926,248.471L86.624,249.543C86.783,249.787 87.092,250.181 87.382,250.455C87.687,250.745 88.012,251.007 88.363,251.212C89.063,251.625 89.823,251.851 90.623,251.905C91.429,251.935 92.271,251.755 93.108,251.467C93.524,251.306 93.936,251.096 94.351,250.912L95.561,250.187L96.42,249.672L97.269,250.23C98.144,250.805 99.289,251.389 100.379,251.744C101.49,252.114 102.636,252.306 103.756,252.283C104.879,252.273 105.969,252.016 106.982,251.54C108.023,251.115 108.914,250.345 109.783,249.554L110.484,248.916L111.257,249.246C112.126,249.617 113.212,249.919 114.216,250.096C115.241,250.268 116.276,250.303 117.266,250.154C118.256,250 119.169,249.616 119.98,249.052C120.824,248.512 121.413,247.639 121.983,246.758L122.359,246.176L122.888,246.364C123.542,246.597 124.351,246.742 125.1,246.766C125.864,246.792 126.623,246.675 127.333,246.408C128.045,246.146 128.697,245.684 129.186,245.058C129.727,244.465 130.067,243.707 130.376,242.934C130.218,243.744 130.025,244.583 129.57,245.327C129.15,246.085 128.493,246.738 127.708,247.179C126.929,247.636 126.034,247.869 125.147,247.96C124.244,248.039 123.385,248.015 122.442,247.81L123.346,247.417C122.798,248.517 122.175,249.662 121.152,250.499C120.179,251.357 118.969,251.998 117.702,252.277C116.439,252.567 115.155,252.611 113.909,252.495C112.644,252.369 111.482,252.132 110.222,251.651L111.695,251.344C110.681,252.373 109.584,253.393 108.209,254.049C107.558,254.436 106.816,254.64 106.097,254.886C105.352,255.036 104.603,255.185 103.847,255.191C102.339,255.246 100.854,255.006 99.465,254.567C98.77,254.344 98.093,254.083 97.44,253.768C96.768,253.453 96.184,253.129 95.501,252.648L97.209,252.69L95.724,253.55C95.188,253.788 94.662,254.041 94.105,254.245C92.97,254.622 91.745,254.877 90.459,254.806C89.178,254.724 87.897,254.295 86.844,253.582C86.312,253.233 85.839,252.816 85.41,252.367C84.977,251.892 84.635,251.464 84.265,250.809L86.05,251.371L84.413,252.052C83.825,252.211 83.256,252.407 82.647,252.512C81.427,252.714 80.105,252.685 78.853,252.281C77.593,251.878 76.517,251.035 75.747,250.064C74.989,249.054 74.486,248.007 74.17,246.771L75.315,247.368C74.791,247.506 74.274,247.655 73.75,247.777C73.209,247.848 72.683,247.974 72.134,247.976C71.048,248.049 69.947,247.902 68.908,247.605C66.829,246.946 65.124,245.426 64.255,243.575Z" style="fill:rgb(232,177,177);fill-rule:nonzero;" />
                                </svg:g>
                                <svg:g>
                                    <svg:g>
                                        <svg:ellipse cx="98.319" cy="236.42" rx="18.473" ry="9.263" style="fill:rgb(242,206,206);" />
                                    </svg:g>
                                    <svg:g>
                                        <svg:g>
                                            <svg:g>
                                                <svg:path d="M96.612,229.037C96.612,229.037 102.152,223.266 105.133,223.905C108.114,224.544 116.032,228.874 115.248,231.145C114.464,233.416 108.966,239.556 106.517,239.45C104.068,239.343 97.628,230.178 96.612,229.037Z" style="fill:rgb(255,129,206);fill-rule:nonzero;" />
                                            </svg:g>
                                            <svg:g>
                                                <svg:path d="M105.133,223.905C102.851,223.416 99.079,226.675 97.431,228.234C99.258,226.759 101.608,225.237 103.217,225.582C106.198,226.221 114.116,230.551 113.332,232.822C112.918,234.021 111.189,236.293 109.291,238.16C111.808,236.256 114.697,232.745 115.249,231.145C116.032,228.874 108.114,224.544 105.133,223.905Z" style="fill:rgb(244,115,198);fill-rule:nonzero;" />
                                            </svg:g>
                                        </svg:g>
                                        <svg:g>
                                            <svg:g>
                                                <svg:path d="M83.258,231.059C83.258,231.059 89.215,223.749 91.664,223.856C94.113,223.963 101.459,231.841 99.969,234.397C98.478,236.952 89.055,244.514 87.777,244.026C87.777,244.026 78.55,236.065 83.258,231.059Z" style="fill:rgb(118,221,159);fill-rule:nonzero;" />
                                            </svg:g>
                                            <svg:g>
                                                <svg:path d="M91.664,223.856C90.888,223.822 89.761,224.534 88.583,225.52C88.659,225.511 88.742,225.488 88.812,225.491C91.261,225.597 98.608,233.476 97.117,236.032C96.12,237.741 91.581,241.68 88.298,243.962C90.64,243.227 98.607,236.732 99.969,234.397C101.46,231.842 94.113,223.963 91.664,223.856Z" style="fill:rgb(98,204,136);fill-rule:nonzero;" />
                                            </svg:g>
                                        </svg:g>
                                    </svg:g>
                                </svg:g>
                                <svg:g>
                                    <svg:g>
                                        <svg:path d="M93.489,245.361C93.489,245.361 88.257,242.276 89.535,240.254C90.813,238.231 99.756,231.204 102.525,231.949C105.293,232.694 113.378,240.303 113.009,242.035C113.008,242.035 106.707,246.955 93.489,245.361Z" style="fill:rgb(234,218,143);fill-rule:nonzero;" />
                                    </svg:g>
                                    <svg:g>
                                        <svg:path d="M99.576,233.545C102.335,234.288 110.373,241.847 110.059,243.611C112.028,242.789 113.008,242.034 113.008,242.034C113.377,240.302 105.292,232.693 102.524,231.948C101.392,231.643 99.225,232.646 96.974,234.067C98.041,233.61 98.964,233.381 99.576,233.545Z" style="fill:rgb(221,202,122);fill-rule:nonzero;" />
                                    </svg:g>
                                </svg:g>
                                <svg:g opacity="0.2">
                                    <svg:g>
                                        <svg:path d="M144.946,264.813C144.946,262.662 143.763,260.79 142.014,259.804C143.674,258.796 144.786,256.976 144.786,254.892C144.786,252.462 143.276,250.389 141.145,249.547C142.755,248.528 143.828,246.736 143.828,244.69C143.828,241.813 141.713,239.437 138.954,239.014C139.704,238.043 140.155,236.829 140.155,235.507C140.155,232.332 137.581,229.757 134.405,229.757C133.65,229.757 132.93,229.907 132.269,230.171C131.886,227.367 129.488,225.205 126.579,225.205C125.402,225.205 124.308,225.56 123.397,226.167C122.815,223.607 120.531,221.695 117.795,221.695C117.599,221.695 117.405,221.705 117.214,221.724C119.792,222.046 121.842,224.055 122.193,226.624C122.854,226.359 123.573,226.21 124.329,226.21C127.504,226.21 130.079,228.784 130.079,231.959C130.079,233.281 129.628,234.495 128.878,235.466C131.637,235.889 133.752,238.265 133.752,241.142C133.752,243.188 132.679,244.98 131.069,245.999C133.2,246.841 134.71,248.914 134.71,251.344C134.71,253.428 133.597,255.248 131.938,256.256C133.687,257.242 134.87,259.114 134.87,261.265C134.87,263.788 133.242,265.927 130.981,266.701C132.281,267.755 133.113,269.363 133.113,271.167C133.113,273.982 131.089,276.32 128.417,276.816C129.06,277.744 129.44,278.87 129.44,280.085C129.44,283.261 126.866,285.835 123.691,285.835C123.13,285.835 122.589,285.751 122.076,285.601C122.077,285.644 122.083,285.686 122.083,285.729C122.083,288.904 119.509,291.479 116.334,291.479C114.643,291.479 113.127,290.744 112.075,289.582C111.755,292.454 109.321,294.688 106.364,294.688C104.712,294.688 103.227,293.987 102.178,292.871C101.317,294.961 99.262,296.434 96.862,296.434C95.349,296.434 93.976,295.845 92.949,294.889C91.922,295.845 90.55,296.434 89.036,296.434C88.792,296.434 88.553,296.414 88.317,296.384C88.081,296.413 87.842,296.434 87.598,296.434C86.084,296.434 84.712,295.845 83.685,294.889C82.658,295.845 81.286,296.434 79.772,296.434C77.542,296.434 75.623,295.155 74.67,293.299C75.067,296.086 77.449,298.235 80.346,298.235C81.998,298.235 83.483,297.534 84.532,296.418C85.393,298.508 87.448,299.981 89.848,299.981C91.361,299.981 92.734,299.392 93.761,298.436C94.788,299.392 96.16,299.981 97.674,299.981C97.918,299.981 98.157,299.961 98.393,299.931C98.629,299.96 98.868,299.981 99.112,299.981C100.625,299.981 101.998,299.392 103.025,298.436C104.052,299.392 105.424,299.981 106.938,299.981C109.339,299.981 111.394,298.508 112.254,296.418C113.303,297.534 114.788,298.235 116.44,298.235C119.398,298.235 121.831,296.001 122.151,293.129C123.203,294.291 124.719,295.026 126.41,295.026C129.585,295.026 132.159,292.452 132.159,289.277C132.159,289.234 132.154,289.192 132.153,289.149C132.666,289.299 133.207,289.383 133.768,289.383C136.943,289.383 139.517,286.809 139.517,283.633C139.517,282.418 139.138,281.292 138.494,280.364C141.166,279.869 143.19,277.53 143.19,274.715C143.19,272.911 142.358,271.303 141.058,270.249C143.318,269.474 144.946,267.336 144.946,264.813Z" style="fill:rgb(211,161,161);fill-rule:nonzero;" />
                                    </svg:g>
                                    <svg:g>
                                        <svg:path d="M113.46,222.542C113.361,222.353 113.243,222.177 113.124,222.002C113.196,222.206 113.273,222.407 113.321,222.621C113.365,222.591 113.415,222.57 113.46,222.542Z" style="fill:rgb(211,161,161);fill-rule:nonzero;" />
                                    </svg:g>
                                    <svg:g>
                                        <svg:path d="M74.454,292.872C73.405,293.988 71.92,294.689 70.268,294.689C67.725,294.689 65.578,293.032 64.82,290.743C65.469,293.207 67.706,295.026 70.374,295.026C72.048,295.026 73.549,294.304 74.6,293.162C74.552,293.064 74.495,292.972 74.454,292.872Z" style="fill:rgb(211,161,161);fill-rule:nonzero;" />
                                    </svg:g>
                                </svg:g>
                                <svg:g opacity="0.25">
                                    <svg:path d="M88.298,242.58C88.298,234.316 84.992,226.887 79.733,221.749C79.488,221.717 79.24,221.695 78.987,221.695C76.251,221.695 73.966,223.607 73.385,226.167C72.474,225.56 71.38,225.205 70.203,225.205C67.294,225.205 64.896,227.367 64.513,230.171C63.852,229.906 63.133,229.757 62.377,229.757C59.202,229.757 56.627,232.331 56.627,235.507C56.627,236.829 57.078,238.043 57.828,239.014C55.069,239.437 52.954,241.813 52.954,244.69C52.954,246.736 54.026,248.528 55.637,249.547C53.506,250.389 51.996,252.462 51.996,254.892C51.996,256.976 53.109,258.796 54.768,259.804C53.019,260.79 51.836,262.662 51.836,264.813C51.836,266.529 52.6,268.055 53.793,269.107C56.462,270.107 59.325,270.658 62.31,270.658C76.662,270.657 88.298,258.086 88.298,242.58Z" style="fill:white;fill-rule:nonzero;" />
                                </svg:g>
                            </svg:g>
                            <svg:g>
                                <svg:g>
                                    <svg:g>
                                        <svg:path d="M59.869,256.281C59.312,257.792 59.129,259.494 59.018,261.087C58.722,265.334 59.423,269.615 60.714,273.655C60.937,274.354 62.038,274.052 61.814,273.352C60.55,269.395 59.869,265.236 60.159,261.077C60.264,259.578 60.451,257.983 60.975,256.561C61.229,255.872 60.121,255.598 59.869,256.281Z" style="fill:white;fill-rule:nonzero;" />
                                    </svg:g>
                                </svg:g>
                                <svg:g>
                                    <svg:path d="M62.526,275.498C62.684,275.763 62.597,276.106 62.332,276.265C62.067,276.423 61.724,276.336 61.565,276.071C61.407,275.806 61.494,275.463 61.759,275.305C62.025,275.146 62.368,275.233 62.526,275.498Z" style="fill:white;fill-rule:nonzero;" />
                                </svg:g>
                            </svg:g>
                        </svg:g>
                    </svg:g>
                    <svg:g>
                        <svg:path d="M106.935,300.48C105.505,300.48 104.132,299.992 103.022,299.096C101.724,300.144 100.009,300.62 98.391,300.434C96.769,300.62 95.058,300.144 93.759,299.096C92.65,299.991 91.277,300.48 89.846,300.48C87.545,300.48 85.468,299.234 84.377,297.253C83.251,298.212 81.842,298.733 80.343,298.733C77.479,298.733 75.033,296.806 74.311,294.119C73.203,295.02 71.811,295.524 70.372,295.524C67.095,295.524 64.398,292.988 64.143,289.776C63.769,289.845 63.392,289.88 63.015,289.88C59.569,289.88 56.766,287.076 56.766,283.63C56.766,282.594 57.02,281.588 57.506,280.684C54.911,279.89 53.093,277.483 53.093,274.713C53.093,273.094 53.712,271.564 54.814,270.407C52.705,269.364 51.336,267.206 51.336,264.81C51.336,262.819 52.291,260.957 53.872,259.788C52.372,258.607 51.496,256.826 51.496,254.89C51.496,252.603 52.717,250.552 54.668,249.453C53.269,248.273 52.454,246.546 52.454,244.687C52.454,241.842 54.325,239.426 56.999,238.679C56.427,237.719 56.128,236.634 56.128,235.504C56.128,232.058 58.932,229.254 62.377,229.254C62.972,229.254 63.559,229.339 64.128,229.507C64.788,226.73 67.3,224.703 70.202,224.703C71.211,224.703 72.194,224.944 73.081,225.406C73.938,222.895 76.279,221.194 78.987,221.194C80.374,221.194 81.699,221.648 82.787,222.486C83.82,220.348 85.998,218.955 88.41,218.955C90.349,218.955 92.184,219.877 93.359,221.404C94.533,219.877 96.369,218.955 98.312,218.955L98.354,219.458L98.415,218.961L98.434,218.961C100.42,218.961 102.254,219.882 103.426,221.404C104.601,219.877 106.435,218.955 108.374,218.955C110.786,218.955 112.963,220.348 113.997,222.486C115.084,221.649 116.41,221.194 117.797,221.194C120.504,221.194 122.846,222.895 123.703,225.406C124.589,224.945 125.572,224.704 126.581,224.704C129.483,224.704 131.996,226.731 132.656,229.508C133.225,229.34 133.812,229.255 134.407,229.255C137.853,229.255 140.656,232.059 140.656,235.505C140.656,236.636 140.357,237.72 139.785,238.68C142.459,239.427 144.329,241.843 144.329,244.688C144.329,246.547 143.515,248.274 142.116,249.454C144.068,250.552 145.288,252.603 145.288,254.891C145.288,256.827 144.412,258.609 142.912,259.789C144.493,260.959 145.448,262.82 145.448,264.811C145.448,267.207 144.079,269.365 141.97,270.408C143.072,271.564 143.691,273.094 143.691,274.714C143.691,277.484 141.873,279.891 139.278,280.685C139.764,281.589 140.018,282.595 140.018,283.631C140.018,287.077 137.214,289.881 133.769,289.881C133.392,289.881 133.015,289.846 132.641,289.777C132.385,292.989 129.689,295.525 126.412,295.525C124.974,295.525 123.581,295.021 122.473,294.12C121.751,296.808 119.305,298.734 116.441,298.734C114.942,298.734 113.534,298.212 112.408,297.254C111.313,299.234 109.236,300.48 106.935,300.48ZM103.022,297.752L103.363,298.069C104.34,298.979 105.609,299.48 106.935,299.48C109.07,299.48 110.975,298.203 111.789,296.227L112.084,295.509L112.615,296.074C113.62,297.144 114.977,297.733 116.437,297.733C119.114,297.733 121.355,295.729 121.651,293.072L121.774,291.969L122.519,292.791C123.516,293.893 124.933,294.523 126.408,294.523C129.303,294.523 131.658,292.169 131.658,289.274L131.658,288.606L132.292,288.666C132.776,288.808 133.272,288.88 133.766,288.88C136.661,288.88 139.015,286.525 139.015,283.63C139.015,282.56 138.692,281.527 138.081,280.647L137.641,280.011L138.401,279.87C140.885,279.409 142.689,277.24 142.689,274.713C142.689,273.125 141.98,271.639 140.742,270.635L140.041,270.066L140.895,269.774C143.019,269.047 144.446,267.052 144.446,264.811C144.446,262.92 143.42,261.168 141.768,260.238L141.024,259.819L141.754,259.375C143.339,258.412 144.286,256.735 144.286,254.891C144.286,252.724 142.981,250.808 140.961,250.011L140.046,249.65L140.878,249.124C142.412,248.153 143.328,246.496 143.328,244.689C143.328,242.082 141.456,239.902 138.878,239.507L138.04,239.379L138.559,238.708C139.276,237.779 139.655,236.672 139.655,235.506C139.655,232.611 137.3,230.256 134.406,230.256C133.739,230.256 133.083,230.384 132.456,230.634L131.861,230.873L131.774,230.238C131.422,227.653 129.188,225.704 126.58,225.704C125.542,225.704 124.538,226.008 123.676,226.582L123.072,226.984L122.911,226.276C122.365,223.872 120.262,222.193 117.797,222.193C116.43,222.193 115.134,222.719 114.148,223.674L113.586,224.218L113.329,223.479C112.595,221.37 110.603,219.953 108.375,219.953C106.531,219.953 104.8,220.947 103.857,222.548L103.426,223.279L102.995,222.547C102.053,220.947 100.32,219.953 98.472,219.953L98.299,219.953C96.463,219.953 94.73,220.947 93.788,222.547L93.357,223.279L92.926,222.548C91.983,220.947 90.252,219.953 88.408,219.953C86.179,219.953 84.189,221.37 83.454,223.479L83.197,224.218L82.634,223.674C81.648,222.719 80.352,222.193 78.985,222.193C76.52,222.193 74.417,223.872 73.871,226.276L73.71,226.984L73.106,226.582C72.243,226.008 71.238,225.704 70.201,225.704C67.593,225.704 65.36,227.653 65.007,230.238L64.92,230.873L64.325,230.634C63.699,230.383 63.043,230.256 62.375,230.256C59.48,230.256 57.126,232.611 57.126,235.506C57.126,236.671 57.505,237.778 58.223,238.708L58.742,239.379L57.904,239.507C55.325,239.902 53.454,242.081 53.454,244.689C53.454,246.496 54.37,248.153 55.904,249.124L56.736,249.65L55.82,250.011C53.8,250.809 52.495,252.724 52.495,254.891C52.495,256.736 53.442,258.412 55.027,259.375L55.757,259.819L55.013,260.238C53.361,261.169 52.335,262.921 52.335,264.811C52.335,267.052 53.762,269.046 55.886,269.774L56.74,270.066L56.039,270.635C54.802,271.639 54.092,273.125 54.092,274.713C54.092,277.24 55.895,279.409 58.379,279.87L59.139,280.011L58.699,280.646C58.088,281.529 57.765,282.56 57.765,283.63C57.765,286.525 60.12,288.88 63.014,288.88C63.508,288.88 64.004,288.808 64.488,288.666L65.144,288.474L65.128,289.158L64.663,289.265L64.666,289.275L65.122,289.275C65.122,292.17 67.477,294.524 70.371,294.524C71.846,294.524 73.263,293.893 74.259,292.792L75.004,291.97L75.127,293.073C75.423,295.73 77.665,297.734 80.341,297.734C81.8,297.734 83.158,297.145 84.163,296.075L84.694,295.51L84.989,296.228C85.803,298.204 87.708,299.481 89.843,299.481C91.17,299.481 92.438,298.98 93.415,298.07L93.756,297.753L94.097,298.07C95.239,299.134 96.827,299.618 98.326,299.435L98.388,299.427L98.45,299.435C99.948,299.618 101.538,299.133 102.679,298.07L103.022,297.752Z" style="fill:rgb(21,47,71);fill-rule:nonzero;" />
                    </svg:g>
                </svg:g>
                <svg:g>
                    <svg:g>
                        <svg:g>
                            <svg:g>
                                <svg:g>
                                    <svg:g>
                                        <svg:path d="M78.679,272.372C78.685,270.826 78.866,269.28 79.331,267.802C79.654,266.777 80.13,265.655 80.975,264.947C81.571,264.447 82.215,264.377 82.849,264.779C83.698,265.318 84.21,266.379 84.546,267.288C85.145,268.912 85.367,270.648 85.374,272.372C85.377,273.142 86.573,273.143 86.57,272.372C86.563,270.609 86.345,268.808 85.76,267.138C85.333,265.919 84.708,264.666 83.646,263.88C82.771,263.233 81.649,263.141 80.698,263.686C79.605,264.314 78.939,265.514 78.481,266.644C77.749,268.446 77.492,270.438 77.484,272.372C77.479,273.142 78.675,273.142 78.679,272.372Z" style="fill:rgb(21,47,71);fill-rule:nonzero;" />
                                    </svg:g>
                                </svg:g>
                            </svg:g>
                            <svg:g>
                                <svg:g>
                                    <svg:g>
                                        <svg:path d="M108.708,272.372C108.714,270.826 108.895,269.28 109.36,267.802C109.683,266.777 110.159,265.655 111.004,264.947C111.6,264.447 112.244,264.377 112.878,264.779C113.727,265.318 114.239,266.379 114.575,267.288C115.174,268.912 115.396,270.648 115.403,272.372C115.406,273.142 116.602,273.143 116.599,272.372C116.592,270.609 116.374,268.808 115.789,267.138C115.362,265.919 114.737,264.666 113.675,263.88C112.8,263.233 111.678,263.141 110.727,263.686C109.634,264.314 108.968,265.514 108.51,266.644C107.778,268.446 107.521,270.438 107.513,272.372C107.509,273.142 108.705,273.142 108.708,272.372Z" style="fill:rgb(21,47,71);fill-rule:nonzero;" />
                                    </svg:g>
                                </svg:g>
                            </svg:g>
                        </svg:g>
                        <svg:g>
                            <svg:g>
                                <svg:path d="M103.038,270.974C102.931,270.774 102.77,270.659 102.597,270.657L102.593,270.657C102.498,270.657 102.32,270.694 102.184,270.936C100.709,273.548 99.077,274.94 97.463,274.961L97.425,274.961C95.782,274.961 94.137,273.605 92.537,270.93C92.398,270.697 92.212,270.651 92.128,270.666C91.958,270.669 91.805,270.778 91.697,270.973C91.55,271.24 91.489,271.687 91.701,272.036C93.353,274.755 95.267,276.207 97.237,276.233L97.29,276.233C99.274,276.233 101.254,274.785 103.021,272.041C103.242,271.695 103.185,271.246 103.038,270.974Z" style="fill:rgb(21,47,71);fill-rule:nonzero;" />
                            </svg:g>
                        </svg:g>
                    </svg:g>
                    <svg:g>
                        <svg:g transform="matrix(0.3565,-0.9343,0.9343,0.3565,-205.122,250.273)">
                            <svg:ellipse cx="79.122" cy="274.043" rx="1.546" ry="4.423" style="fill:rgb(255,129,206);" />
                        </svg:g>
                        <svg:g>
                            <svg:path d="M110.827,275.62C111.131,276.418 113.228,276.358 115.511,275.487C117.794,274.616 119.397,273.263 119.093,272.466C118.789,271.668 116.692,271.728 114.409,272.599C112.126,273.469 110.522,274.822 110.827,275.62Z" style="fill:rgb(255,129,206);fill-rule:nonzero;" />
                        </svg:g>
                    </svg:g>
                </svg:g>
            </svg:g>
            <svg:g transform="matrix(0.35615,0,0,0.35615,945.357,218.292)">
                <svg:g>
                    <svg:g>
                        <svg:g>
                            <svg:path d="M449.936,273.09C449.936,270.279 447.976,267.93 445.35,267.323C446.544,266.239 447.298,264.68 447.298,262.941C447.298,259.669 444.645,257.016 441.373,257.016C441.365,257.016 441.358,257.017 441.35,257.017C442.048,256.045 442.464,254.856 442.464,253.568C442.464,250.296 439.811,247.643 436.539,247.643C436.303,247.643 436.072,247.661 435.843,247.687C436.286,246.857 436.539,245.91 436.539,244.903C436.539,241.631 433.886,238.978 430.614,238.978C430.018,238.978 429.443,239.068 428.901,239.232C429.249,238.477 429.449,237.64 429.449,236.754C429.449,233.482 426.796,230.829 423.524,230.829C422.298,230.829 421.159,231.202 420.213,231.84C420.366,231.313 420.453,230.758 420.453,230.182C420.453,226.91 417.8,224.257 414.528,224.257C412.949,224.257 411.519,224.878 410.456,225.885C410.044,223.015 407.582,220.806 404.598,220.806C402.381,220.806 400.452,222.026 399.436,223.829C399.216,220.757 396.661,218.331 393.533,218.331C393.528,218.331 393.524,218.332 393.519,218.332C393.514,218.332 393.51,218.331 393.505,218.331C390.377,218.331 387.821,220.757 387.602,223.829C386.586,222.026 384.657,220.806 382.44,220.806C379.456,220.806 376.994,223.014 376.582,225.885C375.52,224.878 374.089,224.257 372.51,224.257C369.238,224.257 366.585,226.91 366.585,230.182C366.585,230.758 366.671,231.313 366.825,231.84C365.88,231.202 364.741,230.829 363.514,230.829C360.242,230.829 357.589,233.482 357.589,236.754C357.589,237.64 357.789,238.477 358.137,239.232C357.594,239.068 357.02,238.978 356.424,238.978C353.152,238.978 350.499,241.631 350.499,244.903C350.499,245.91 350.752,246.857 351.195,247.687C350.966,247.66 350.735,247.643 350.499,247.643C347.227,247.643 344.574,250.296 344.574,253.568C344.574,254.856 344.99,256.045 345.688,257.017C345.68,257.017 345.673,257.016 345.665,257.016C342.393,257.016 339.74,259.669 339.74,262.941C339.74,264.68 340.494,266.24 341.688,267.323C339.061,267.931 337.102,270.279 337.102,273.09C337.102,276.19 339.483,278.729 342.515,278.989C341.429,280.063 340.756,281.553 340.756,283.2C340.756,286.472 343.409,289.125 346.681,289.125C347.44,289.125 348.164,288.977 348.831,288.717C348.433,289.513 348.203,290.409 348.203,291.36C348.203,294.632 350.856,297.285 354.128,297.285C355.424,297.285 356.619,296.864 357.594,296.158C357.593,296.192 357.589,296.225 357.589,296.259C357.589,299.531 360.242,302.184 363.514,302.184C365.449,302.184 367.163,301.252 368.244,299.817C368.223,300.021 368.211,300.229 368.211,300.439C368.211,303.711 370.864,306.364 374.136,306.364C376.052,306.364 377.751,305.45 378.834,304.039C379.491,306.596 381.804,308.488 384.566,308.488C386.092,308.488 387.479,307.905 388.529,306.957C389.45,308.381 390.964,309.381 392.722,309.613C392.741,309.616 392.76,309.619 392.778,309.622C393.016,309.651 393.257,309.671 393.503,309.671C393.508,309.671 393.512,309.67 393.517,309.67C393.522,309.67 393.526,309.671 393.531,309.671C393.777,309.671 394.018,309.651 394.256,309.622C394.275,309.619 394.293,309.616 394.312,309.613C396.071,309.381 397.584,308.381 398.505,306.957C399.555,307.905 400.942,308.488 402.468,308.488C405.23,308.488 407.543,306.596 408.2,304.039C409.283,305.45 410.982,306.364 412.898,306.364C416.17,306.364 418.823,303.711 418.823,300.439C418.823,300.229 418.811,300.022 418.79,299.817C419.871,301.252 421.585,302.184 423.52,302.184C426.792,302.184 429.445,299.531 429.445,296.259C429.445,296.225 429.44,296.192 429.44,296.158C430.415,296.864 431.61,297.285 432.906,297.285C436.178,297.285 438.831,294.632 438.831,291.36C438.831,290.409 438.601,289.514 438.203,288.717C438.87,288.977 439.594,289.125 440.353,289.125C443.625,289.125 446.278,286.472 446.278,283.2C446.278,281.552 445.604,280.063 444.519,278.989C447.554,278.729 449.936,276.19 449.936,273.09Z" style="fill:rgb(248,229,229);fill-rule:nonzero;" />
                        </svg:g>
                        <svg:g opacity="0.2">
                            <svg:g>
                                <svg:path d="M385.983,306.957C385.599,307.551 385.108,308.064 384.543,308.486C384.551,308.486 384.559,308.488 384.567,308.488C385.537,308.488 386.45,308.251 387.257,307.836C386.794,307.597 386.366,307.302 385.983,306.957Z" style="fill:rgb(211,161,161);fill-rule:nonzero;" />
                            </svg:g>
                            <svg:g>
                                <svg:path d="M386.692,222.611C386.805,223.002 386.882,223.409 386.912,223.829C387.016,223.645 387.135,223.472 387.257,223.3C387.084,223.058 386.898,222.825 386.692,222.611Z" style="fill:rgb(211,161,161);fill-rule:nonzero;" />
                            </svg:g>
                            <svg:g>
                                <svg:path d="M449.936,273.09C449.936,270.279 447.976,267.93 445.35,267.323C446.544,266.239 447.298,264.68 447.298,262.941C447.298,259.669 444.645,257.016 441.373,257.016C441.365,257.016 441.358,257.017 441.35,257.017C442.048,256.045 442.464,254.856 442.464,253.568C442.464,250.296 439.811,247.643 436.539,247.643C436.303,247.643 436.072,247.661 435.843,247.687C436.286,246.857 436.539,245.91 436.539,244.903C436.539,241.631 433.886,238.978 430.614,238.978C430.018,238.978 429.443,239.068 428.901,239.232C429.249,238.477 429.449,237.64 429.449,236.754C429.449,233.482 426.796,230.829 423.524,230.829C422.298,230.829 421.159,231.202 420.213,231.84C420.366,231.313 420.453,230.758 420.453,230.182C420.453,226.91 417.8,224.257 414.528,224.257C412.949,224.257 411.518,224.878 410.456,225.885C410.044,223.015 407.582,220.806 404.598,220.806C402.381,220.806 400.452,222.026 399.436,223.83C399.216,220.758 396.661,218.332 393.533,218.332C393.528,218.332 393.524,218.333 393.519,218.333C393.514,218.333 393.51,218.332 393.505,218.332C390.805,218.332 388.535,220.141 387.822,222.612C388.898,221.5 390.403,220.806 392.073,220.806C395.057,220.806 397.519,223.014 397.931,225.885C398.993,224.878 400.424,224.257 402.003,224.257C405.275,224.257 407.928,226.91 407.928,230.182C407.928,230.758 407.842,231.314 407.688,231.84C408.633,231.202 409.772,230.829 410.999,230.829C414.271,230.829 416.924,233.482 416.924,236.754C416.924,237.64 416.724,238.477 416.376,239.232C416.919,239.068 417.493,238.978 418.089,238.978C421.361,238.978 424.014,241.631 424.014,244.903C424.014,245.91 423.761,246.857 423.318,247.687C423.547,247.66 423.778,247.643 424.014,247.643C427.286,247.643 429.939,250.296 429.939,253.568C429.939,254.856 429.523,256.045 428.825,257.017C428.833,257.017 428.84,257.016 428.848,257.016C432.12,257.016 434.773,259.669 434.773,262.941C434.773,264.68 434.019,266.24 432.825,267.323C435.452,267.931 437.412,270.279 437.412,273.09C437.412,276.19 435.031,278.729 431.998,278.989C433.084,280.063 433.758,281.553 433.758,283.2C433.758,286.472 431.105,289.125 427.833,289.125C427.074,289.125 426.35,288.977 425.683,288.717C426.081,289.513 426.311,290.409 426.311,291.36C426.311,294.632 423.658,297.285 420.386,297.285C419.09,297.285 417.895,296.864 416.919,296.158C416.92,296.192 416.924,296.225 416.924,296.259C416.924,299.531 414.271,302.184 410.999,302.184C409.064,302.184 407.351,301.252 406.269,299.817C406.29,300.021 406.302,300.229 406.302,300.439C406.302,303.711 403.649,306.364 400.377,306.364C398.461,306.364 396.762,305.45 395.679,304.039C395.024,306.588 392.722,308.475 389.971,308.486C390.761,309.075 391.699,309.478 392.724,309.614C392.743,309.617 392.761,309.62 392.78,309.623C393.018,309.652 393.259,309.672 393.505,309.672C393.51,309.672 393.514,309.671 393.519,309.671C393.524,309.671 393.528,309.672 393.533,309.672C393.779,309.672 394.02,309.652 394.258,309.623C394.277,309.62 394.296,309.617 394.315,309.614C396.074,309.382 397.587,308.382 398.508,306.958C399.559,307.906 400.945,308.489 402.471,308.489C405.233,308.489 407.547,306.597 408.203,304.04C409.286,305.451 410.985,306.365 412.901,306.365C416.173,306.365 418.826,303.712 418.826,300.44C418.826,300.23 418.814,300.023 418.793,299.818C419.874,301.253 421.588,302.185 423.523,302.185C426.795,302.185 429.448,299.532 429.448,296.26C429.448,296.226 429.443,296.193 429.443,296.159C430.418,296.865 431.613,297.286 432.909,297.286C436.181,297.286 438.834,294.633 438.834,291.361C438.834,290.41 438.604,289.515 438.206,288.718C438.873,288.978 439.597,289.126 440.356,289.126C443.628,289.126 446.281,286.473 446.281,283.201C446.281,281.553 445.607,280.064 444.522,278.99C447.554,278.729 449.936,276.19 449.936,273.09Z" style="fill:rgb(211,161,161);fill-rule:nonzero;" />
                            </svg:g>
                        </svg:g>
                        <svg:g>
                            <svg:path d="M393.533,310.17C393.238,310.17 392.978,310.15 392.722,310.118C390.985,309.888 389.467,309.014 388.435,307.684C387.32,308.528 385.966,308.987 384.568,308.987C381.942,308.987 379.617,307.393 378.636,305.018C377.44,306.2 375.843,306.863 374.137,306.863C370.815,306.863 368.073,304.328 367.745,301.09C366.585,302.114 365.099,302.683 363.516,302.683C360.235,302.683 357.52,300.211 357.137,297.033C356.212,297.527 355.187,297.785 354.129,297.785C350.586,297.785 347.704,294.902 347.704,291.359C347.704,290.719 347.798,290.094 347.984,289.49C347.555,289.58 347.12,289.626 346.681,289.626C343.138,289.626 340.256,286.743 340.256,283.2C340.256,281.788 340.709,280.446 341.546,279.338C338.709,278.662 336.602,276.078 336.602,273.09C336.602,270.372 338.276,268.008 340.762,267.08C339.786,265.926 339.24,264.458 339.24,262.94C339.24,259.682 341.676,256.984 344.823,256.57C344.331,255.646 344.074,254.623 344.074,253.567C344.074,250.056 346.904,247.194 350.403,247.142C350.137,246.428 349.999,245.666 349.999,244.902C349.999,241.36 352.882,238.477 356.425,238.477C356.734,238.477 357.041,238.5 357.347,238.544C357.175,237.963 357.089,237.363 357.089,236.753C357.089,233.211 359.972,230.328 363.515,230.328C364.423,230.328 365.309,230.517 366.124,230.88C366.098,230.647 366.085,230.413 366.085,230.18C366.085,226.638 368.967,223.755 372.51,223.755C373.869,223.755 375.176,224.182 376.266,224.972C377.039,222.259 379.558,220.304 382.44,220.304C384.33,220.304 386.107,221.142 387.315,222.552C388.068,219.823 390.581,217.83 393.505,217.83C396.453,217.83 398.97,219.823 399.723,222.552C400.931,221.143 402.708,220.304 404.599,220.304C407.48,220.304 409.998,222.259 410.772,224.972C411.862,224.182 413.169,223.755 414.528,223.755C418.071,223.755 420.953,226.637 420.953,230.18C420.953,230.413 420.94,230.647 420.914,230.88C421.73,230.516 422.616,230.327 423.524,230.327C427.067,230.327 429.949,233.209 429.949,236.752C429.949,237.362 429.863,237.962 429.691,238.543C429.997,238.499 430.305,238.476 430.614,238.476C434.157,238.476 437.039,241.358 437.039,244.901C437.039,245.666 436.9,246.427 436.635,247.141C440.134,247.193 442.964,250.055 442.964,253.566C442.964,254.624 442.706,255.648 442.213,256.572C445.37,256.992 447.798,259.687 447.798,262.939C447.798,264.457 447.252,265.924 446.277,267.079C448.763,268.007 450.436,270.371 450.436,273.089C450.436,276.077 448.329,278.66 445.492,279.337C446.33,280.445 446.783,281.787 446.783,283.199C446.783,286.742 443.9,289.625 440.357,289.625C439.919,289.625 439.483,289.579 439.054,289.489C439.24,290.093 439.334,290.719 439.334,291.358C439.334,294.901 436.452,297.784 432.909,297.784C431.85,297.784 430.826,297.526 429.902,297.032C429.518,300.211 426.804,302.682 423.523,302.682C421.939,302.682 420.454,302.113 419.293,301.089C418.966,304.326 416.224,306.862 412.901,306.862C411.195,306.862 409.598,306.199 408.402,305.017C407.423,307.392 405.097,308.986 402.47,308.986C401.071,308.986 399.718,308.527 398.603,307.683C397.571,309.012 396.06,309.885 394.379,310.108C394.06,310.149 393.799,310.17 393.533,310.17ZM388.632,306.192L388.95,306.685C389.815,308.023 391.215,308.909 392.789,309.117C393.362,309.189 393.786,309.174 394.2,309.126C395.823,308.909 397.222,308.023 398.088,306.685L398.406,306.192L398.842,306.585C399.845,307.488 401.133,307.986 402.47,307.986C404.945,307.986 407.103,306.311 407.718,303.913L407.974,302.918L408.599,303.732C409.638,305.086 411.206,305.862 412.901,305.862C415.892,305.862 418.326,303.428 418.326,300.437C418.326,300.245 418.315,300.054 418.296,299.868L418.108,298.074L419.193,299.514C420.231,300.892 421.81,301.682 423.524,301.682C426.515,301.682 428.949,299.248 428.949,296.257L428.949,295.278L429.737,295.751C430.67,296.427 431.767,296.784 432.91,296.784C435.901,296.784 438.335,294.35 438.335,291.358C438.335,290.517 438.142,289.703 437.761,288.939L437.182,287.777L438.39,288.25C439.027,288.499 439.689,288.625 440.358,288.625C443.35,288.625 445.784,286.191 445.784,283.199C445.784,281.741 445.212,280.372 444.173,279.344L443.403,278.582L444.481,278.49C447.26,278.252 449.437,275.88 449.437,273.089C449.437,270.552 447.711,268.38 445.239,267.809L444.308,267.593L445.015,266.951C446.148,265.922 446.798,264.459 446.798,262.939C446.798,259.948 444.364,257.514 441.373,257.514L440.398,257.514L440.943,256.723C441.611,255.793 441.964,254.701 441.964,253.566C441.964,250.574 439.53,248.141 436.539,248.141C436.322,248.141 436.11,248.158 435.901,248.182L434.951,248.294L435.401,247.45C435.818,246.669 436.039,245.788 436.039,244.901C436.039,241.91 433.605,239.476 430.614,239.476C430.085,239.476 429.556,239.554 429.045,239.709L427.981,240.03L428.447,239.021C428.781,238.298 428.95,237.535 428.95,236.752C428.95,233.761 426.516,231.327 423.525,231.327C422.439,231.327 421.391,231.647 420.494,232.252L419.348,233.026L419.734,231.698C419.879,231.198 419.954,230.687 419.954,230.179C419.954,227.188 417.52,224.754 414.529,224.754C413.139,224.754 411.816,225.283 410.801,226.245L410.1,226.91L409.962,225.954C409.581,223.303 407.277,221.304 404.6,221.304C402.647,221.304 400.835,222.365 399.873,224.073L399.058,225.521L398.939,223.863C398.738,221.041 396.364,218.83 393.535,218.83C390.678,218.83 388.304,221.041 388.102,223.863L387.983,225.521L387.168,224.073C386.206,222.365 384.396,221.304 382.442,221.304C379.765,221.304 377.46,223.303 377.079,225.954L376.941,226.91L376.24,226.245C375.225,225.283 373.902,224.754 372.512,224.754C369.521,224.754 367.087,227.188 367.087,230.179C367.087,230.684 367.161,231.195 367.308,231.698L367.694,233.026L366.548,232.252C365.651,231.647 364.603,231.327 363.517,231.327C360.525,231.327 358.091,233.761 358.091,236.752C358.091,237.535 358.26,238.298 358.594,239.021L359.06,240.03L357.995,239.709C357.483,239.555 356.955,239.476 356.427,239.476C353.435,239.476 351.001,241.91 351.001,244.901C351.001,245.788 351.222,246.669 351.639,247.45L352.089,248.294L351.139,248.182C350.93,248.158 350.718,248.141 350.501,248.141C347.51,248.141 345.076,250.575 345.076,253.566C345.076,254.702 345.428,255.794 346.096,256.723L346.664,257.515L345.687,257.515C342.673,257.515 340.241,259.949 340.241,262.939C340.241,264.459 340.891,265.921 342.025,266.951L342.732,267.594L341.801,267.809C339.328,268.38 337.602,270.552 337.602,273.089C337.602,275.88 339.779,278.252 342.558,278.49L343.635,278.582L342.867,279.344C341.829,280.372 341.257,281.741 341.257,283.199C341.257,286.191 343.691,288.625 346.682,288.625C347.351,288.625 348.013,288.499 348.651,288.25L349.861,287.777L349.28,288.939C348.898,289.703 348.705,290.516 348.705,291.358C348.705,294.35 351.139,296.784 354.13,296.784C355.273,296.784 356.37,296.427 357.304,295.751L358.125,295.156L358.097,296.171C358.091,299.249 360.525,301.683 363.517,301.683C365.231,301.683 366.81,300.893 367.847,299.515L368.933,298.074L368.744,299.869C368.724,300.056 368.714,300.246 368.714,300.438C368.714,303.429 371.148,305.863 374.139,305.863C375.834,305.863 377.402,305.087 378.441,303.733L379.066,302.919L379.322,303.914C379.938,306.312 382.097,307.987 384.57,307.987C385.907,307.987 387.195,307.489 388.198,306.586L388.632,306.192Z" style="fill:rgb(21,47,71);fill-rule:nonzero;" />
                        </svg:g>
                        <svg:g opacity="0.25">
                            <svg:path d="M348.415,289.829C367.934,289.064 383.544,271.622 383.544,250.205C383.544,240.575 380.386,231.749 375.139,224.878C374.347,224.483 373.457,224.256 372.512,224.256C369.24,224.256 366.587,226.909 366.587,230.181C366.587,230.757 366.673,231.312 366.827,231.839C365.882,231.201 364.743,230.828 363.517,230.828C360.245,230.828 357.592,233.481 357.592,236.753C357.592,237.639 357.792,238.476 358.14,239.231C357.597,239.067 357.023,238.977 356.427,238.977C353.155,238.977 350.502,241.63 350.502,244.902C350.502,245.909 350.755,246.856 351.198,247.686C350.969,247.659 350.738,247.642 350.502,247.642C347.23,247.642 344.577,250.295 344.577,253.567C344.577,254.855 344.993,256.044 345.691,257.016C345.683,257.016 345.676,257.015 345.668,257.015C342.396,257.015 339.743,259.668 339.743,262.94C339.743,264.679 340.497,266.239 341.691,267.322C339.064,267.93 337.104,270.278 337.104,273.089C337.104,276.189 339.485,278.728 342.517,278.988C341.431,280.062 340.758,281.552 340.758,283.199C340.758,286.471 343.411,289.124 346.683,289.124C347.442,289.124 348.166,288.976 348.833,288.716C348.656,289.069 348.52,289.442 348.415,289.829Z" style="fill:white;fill-rule:nonzero;" />
                        </svg:g>
                    </svg:g>
                    <svg:g>
                        <svg:g>
                            <svg:g>
                                <svg:path d="M427.547,223.397C412.931,207.868 393.519,209.847 393.519,209.847C393.519,209.847 374.107,207.868 359.491,223.397C344.875,238.926 343.809,248.464 334.827,250.775C334.827,250.775 344.407,262.783 359.034,255.907C373.661,249.031 379.132,236.187 393.519,236.187C407.906,236.187 413.377,249.031 428.004,255.907C442.631,262.784 452.211,250.775 452.211,250.775C443.229,248.464 442.163,238.926 427.547,223.397Z" style="fill:rgb(255,183,160);fill-rule:nonzero;" />
                            </svg:g>
                            <svg:g>
                                <svg:g>
                                    <svg:clipPath id="_clip49">
                                        <svg:path d="M427.547,223.397C412.931,207.868 393.519,209.847 393.519,209.847C393.519,209.847 374.107,207.868 359.491,223.397C344.875,238.926 343.809,248.464 334.827,250.775C334.827,250.775 344.407,262.783 359.034,255.907C373.661,249.031 379.132,236.187 393.519,236.187C407.906,236.187 413.377,249.031 428.004,255.907C442.631,262.784 452.211,250.775 452.211,250.775C443.229,248.464 442.163,238.926 427.547,223.397Z" />
                                    </svg:clipPath>
                                    <svg:g clip-path="url(#_clip49)">
                                        <svg:g>
                                            <svg:g>
                                                <svg:path d="M372.498,199.434C368.186,204.832 364.559,210.869 361.346,216.967C354.779,229.432 349.964,243.154 349.215,257.313C348.743,266.243 350.062,275.264 353.463,283.554C353.829,284.447 354.657,285.091 355.67,284.807C356.516,284.57 357.294,283.505 356.923,282.6C351.117,268.446 351.889,252.935 356.25,238.502C359.582,227.476 364.811,217.019 371.167,207.432C372.124,205.988 373.11,204.563 374.136,203.167C374.417,202.784 374.706,202.407 374.991,202.026C375.138,201.831 374.668,202.441 374.953,202.076C374.981,202.041 375.008,202.005 375.036,201.97C375.645,201.207 375.767,200.18 375.036,199.432C374.415,198.8 373.101,198.678 372.498,199.434Z" style="fill:rgb(255,213,202);fill-rule:nonzero;" />
                                            </svg:g>
                                        </svg:g>
                                        <svg:g>
                                            <svg:g>
                                                <svg:path d="M389.135,194.67C384.823,200.068 381.196,206.105 377.983,212.203C371.416,224.668 366.601,238.39 365.852,252.549C365.38,261.479 366.699,270.5 370.1,278.79C370.466,279.683 371.294,280.327 372.307,280.043C373.153,279.806 373.932,278.741 373.56,277.836C367.754,263.682 368.526,248.171 372.887,233.738C376.218,222.712 381.448,212.255 387.803,202.668C388.76,201.224 389.746,199.799 390.772,198.403C391.053,198.02 391.342,197.643 391.627,197.262C391.773,197.067 391.304,197.677 391.589,197.312C391.617,197.277 391.645,197.241 391.672,197.206C392.281,196.443 392.403,195.416 391.672,194.668C391.052,194.036 389.738,193.914 389.135,194.67Z" style="fill:rgb(255,213,202);fill-rule:nonzero;" />
                                            </svg:g>
                                        </svg:g>
                                        <svg:g>
                                            <svg:g>
                                                <svg:path d="M408.987,187.528C404.675,192.926 401.048,198.963 397.835,205.061C391.268,217.526 386.453,231.248 385.704,245.407C385.232,254.337 386.551,263.358 389.952,271.648C390.318,272.541 391.146,273.185 392.159,272.901C393.005,272.664 393.783,271.599 393.412,270.694C387.606,256.54 388.378,241.029 392.739,226.596C396.07,215.57 401.3,205.113 407.655,195.526C408.612,194.082 409.598,192.657 410.624,191.261C410.905,190.878 411.194,190.501 411.479,190.121C411.625,189.926 411.156,190.535 411.441,190.171C411.469,190.136 411.497,190.1 411.524,190.065C412.133,189.302 412.255,188.275 411.524,187.527C410.905,186.894 409.591,186.772 408.987,187.528Z" style="fill:rgb(255,213,202);fill-rule:nonzero;" />
                                            </svg:g>
                                        </svg:g>
                                        <svg:g>
                                            <svg:g>
                                                <svg:path d="M424.817,194.67C420.505,200.068 416.878,206.105 413.665,212.203C407.098,224.668 402.283,238.39 401.534,252.549C401.062,261.479 402.381,270.5 405.782,278.79C406.148,279.683 406.976,280.327 407.989,280.043C408.835,279.806 409.613,278.741 409.242,277.836C403.436,263.682 404.208,248.171 408.569,233.738C411.9,222.712 417.13,212.255 423.486,202.668C424.443,201.224 425.429,199.799 426.455,198.403C426.737,198.02 427.025,197.643 427.31,197.262C427.457,197.067 426.987,197.677 427.272,197.312C427.3,197.277 427.327,197.241 427.355,197.206C427.964,196.443 428.086,195.416 427.355,194.668C426.734,194.036 425.42,193.914 424.817,194.67Z" style="fill:rgb(255,213,202);fill-rule:nonzero;" />
                                            </svg:g>
                                        </svg:g>
                                        <svg:g>
                                            <svg:g>
                                                <svg:path d="M440.463,202.456C436.151,207.854 432.524,213.891 429.311,219.989C422.744,232.454 417.929,246.176 417.179,260.335C416.707,269.265 418.026,278.286 421.427,286.576C421.793,287.469 422.621,288.113 423.634,287.829C424.481,287.592 425.259,286.527 424.887,285.622C419.081,271.468 419.853,255.958 424.214,241.524C427.545,230.498 432.775,220.041 439.131,210.454C440.088,209.01 441.074,207.585 442.1,206.189C442.381,205.806 442.67,205.429 442.955,205.048C443.102,204.853 442.632,205.463 442.917,205.098C442.945,205.063 442.972,205.027 443,204.992C443.609,204.229 443.731,203.202 443,202.455C442.381,201.822 441.067,201.7 440.463,202.456Z" style="fill:rgb(255,213,202);fill-rule:nonzero;" />
                                            </svg:g>
                                        </svg:g>
                                        <svg:g>
                                            <svg:g>
                                                <svg:path d="M454.709,210.622C450.397,216.02 446.77,222.057 443.557,228.155C436.99,240.62 432.175,254.342 431.425,268.501C430.953,277.431 432.272,286.452 435.673,294.742C436.039,295.635 436.867,296.279 437.88,295.995C438.727,295.758 439.504,294.693 439.133,293.788C433.327,279.634 434.099,264.123 438.46,249.69C441.791,238.664 447.021,228.207 453.377,218.62C454.334,217.176 455.32,215.751 456.346,214.355C456.627,213.972 456.916,213.595 457.201,213.214C457.348,213.019 456.878,213.629 457.163,213.264C457.191,213.229 457.218,213.193 457.246,213.158C457.855,212.395 457.977,211.368 457.246,210.621C456.627,209.988 455.313,209.866 454.709,210.622Z" style="fill:rgb(255,213,202);fill-rule:nonzero;" />
                                            </svg:g>
                                        </svg:g>
                                    </svg:g>
                                </svg:g>
                            </svg:g>
                        </svg:g>
                        <svg:g opacity="0.39">
                            <svg:path d="M393.519,225.279C393.519,225.279 374.107,223.3 359.491,238.829C352.246,246.527 348.332,252.75 345.131,257.352C348.927,258.406 353.635,258.444 359.034,255.906C373.661,249.03 379.132,236.186 393.519,236.186C407.906,236.186 413.377,249.03 428.004,255.906C433.403,258.444 438.111,258.406 441.907,257.352C438.706,252.749 434.792,246.526 427.547,238.829C412.932,223.3 393.519,225.279 393.519,225.279Z" style="fill:rgb(211,161,161);fill-rule:nonzero;" />
                        </svg:g>
                    </svg:g>
                    <svg:g>
                        <svg:path d="M350.123,258.517C340.506,258.517 334.513,251.183 334.437,251.087L333.956,250.483L334.703,250.291C339.696,249.007 342.129,245.444 346.161,239.541C349.165,235.142 352.905,229.667 359.128,223.055C373.378,207.914 392.397,209.251 393.52,209.346C394.642,209.252 413.66,207.913 427.913,223.055C434.135,229.666 437.874,235.141 440.879,239.54C444.91,245.443 447.345,249.007 452.338,250.291L453.085,250.483L452.603,251.087C452.505,251.211 442.603,263.322 427.792,256.358C421.849,253.564 417.502,249.88 413.299,246.317C407.202,241.149 401.937,236.686 393.521,236.686C385.105,236.686 379.838,241.149 373.742,246.317C369.539,249.88 365.192,253.564 359.249,256.358C355.943,257.912 352.884,258.517 350.123,258.517ZM393.519,235.686C402.302,235.686 407.958,240.48 413.944,245.555C418.097,249.075 422.392,252.716 428.216,255.454C440.625,261.289 449.193,253.34 451.319,251.039C446.466,249.495 443.876,245.703 440.052,240.103C437.068,235.732 433.353,230.293 427.184,223.739C412.914,208.577 393.76,210.324 393.571,210.344L393.52,210.349L393.469,210.344C393.279,210.322 374.123,208.578 359.856,223.739C353.686,230.294 349.971,235.733 346.986,240.104C343.163,245.703 340.572,249.495 335.72,251.038C337.844,253.341 346.41,261.287 358.822,255.454C364.645,252.716 368.941,249.075 373.094,245.555C379.081,240.48 384.736,235.686 393.519,235.686Z" style="fill:rgb(21,47,71);fill-rule:nonzero;" />
                    </svg:g>
                    <svg:g>
                        <svg:g>
                            <svg:g>
                                <svg:g>
                                    <svg:path d="M346.345,271.741C346.493,273.269 347.042,274.806 347.607,276.219C349.114,279.987 351.491,283.371 354.274,286.304C354.755,286.811 355.575,286.096 355.093,285.588C352.367,282.716 350.058,279.428 348.582,275.738C348.05,274.407 347.549,272.962 347.41,271.523C347.342,270.826 346.278,271.051 346.345,271.741Z" style="fill:white;fill-rule:nonzero;" />
                                </svg:g>
                            </svg:g>
                            <svg:g>
                                <svg:path d="M356.594,287.134C356.84,287.296 356.908,287.627 356.746,287.872C356.584,288.118 356.254,288.186 356.008,288.024C355.762,287.862 355.694,287.531 355.856,287.286C356.018,287.04 356.348,286.972 356.594,287.134Z" style="fill:white;fill-rule:nonzero;" />
                            </svg:g>
                        </svg:g>
                        <svg:g>
                            <svg:g>
                                <svg:g>
                                    <svg:path d="M379.29,215.652C377.756,215.711 376.19,216.169 374.746,216.65C370.896,217.934 367.379,220.109 364.289,222.716C363.755,223.167 364.421,224.027 364.956,223.575C367.983,221.022 371.4,218.908 375.17,217.651C376.529,217.198 378.002,216.783 379.446,216.727C380.145,216.701 379.983,215.625 379.29,215.652Z" style="fill:white;fill-rule:nonzero;" />
                                </svg:g>
                            </svg:g>
                            <svg:g>
                                <svg:path d="M363.324,224.983C363.148,225.219 362.814,225.267 362.578,225.091C362.342,224.915 362.294,224.581 362.47,224.345C362.646,224.109 362.98,224.061 363.216,224.237C363.452,224.413 363.5,224.747 363.324,224.983Z" style="fill:white;fill-rule:nonzero;" />
                            </svg:g>
                        </svg:g>
                    </svg:g>
                </svg:g>
                <svg:g>
                    <svg:g>
                        <svg:g>
                            <svg:g>
                                <svg:g>
                                    <svg:path d="M382.449,266.971C382.449,270.233 380.683,272.877 378.504,272.877C376.325,272.877 374.559,270.233 374.559,266.971C374.559,263.709 376.325,261.065 378.504,261.065C380.683,261.065 382.449,263.71 382.449,266.971Z" style="fill:rgb(21,47,71);fill-rule:nonzero;" />
                                </svg:g>
                                <svg:g>
                                    <svg:g>
                                        <svg:circle cx="377.672" cy="264.549" r="1.638" style="fill:white;" />
                                    </svg:g>
                                    <svg:g>
                                        <svg:path d="M380.975,267.156C380.975,267.751 380.492,268.234 379.897,268.234C379.302,268.234 378.819,267.751 378.819,267.156C378.819,266.561 379.302,266.078 379.897,266.078C380.492,266.078 380.975,266.561 380.975,267.156Z" style="fill:white;fill-rule:nonzero;" />
                                    </svg:g>
                                </svg:g>
                            </svg:g>
                            <svg:g>
                                <svg:g>
                                    <svg:path d="M412.479,266.971C412.479,270.233 410.713,272.877 408.534,272.877C406.355,272.877 404.589,270.233 404.589,266.971C404.589,263.709 406.355,261.065 408.534,261.065C410.713,261.065 412.479,263.71 412.479,266.971Z" style="fill:rgb(21,47,71);fill-rule:nonzero;" />
                                </svg:g>
                                <svg:g>
                                    <svg:g>
                                        <svg:path d="M409.339,264.549C409.339,265.454 408.606,266.187 407.701,266.187C406.796,266.187 406.063,265.454 406.063,264.549C406.063,263.644 406.796,262.911 407.701,262.911C408.606,262.911 409.339,263.644 409.339,264.549Z" style="fill:white;fill-rule:nonzero;" />
                                    </svg:g>
                                    <svg:g>
                                        <svg:path d="M411.005,267.156C411.005,267.751 410.522,268.234 409.927,268.234C409.332,268.234 408.849,267.751 408.849,267.156C408.849,266.561 409.331,266.078 409.927,266.078C410.522,266.078 411.005,266.561 411.005,267.156Z" style="fill:white;fill-rule:nonzero;" />
                                    </svg:g>
                                </svg:g>
                            </svg:g>
                        </svg:g>
                        <svg:g>
                            <svg:g>
                                <svg:path d="M388.823,265.416C388.833,266.609 388.955,267.808 389.126,268.988C389.399,270.874 389.836,272.968 391.059,274.488C392.232,275.945 394.196,276.152 395.617,274.918C397.073,273.655 397.692,271.495 398.108,269.687C398.429,268.289 398.657,266.848 398.748,265.416C398.797,264.647 397.6,264.65 397.552,265.416C397.485,266.477 397.346,267.413 397.147,268.456C396.82,270.169 396.382,272.06 395.319,273.484C394.909,274.032 394.387,274.475 393.722,274.556C393.125,274.629 392.546,274.351 392.1,273.868C390.968,272.644 390.607,270.693 390.348,269.104C390.15,267.89 390.031,266.647 390.021,265.415C390.012,264.647 388.816,264.645 388.823,265.416Z" style="fill:rgb(21,47,71);fill-rule:nonzero;" />
                            </svg:g>
                        </svg:g>
                    </svg:g>
                    <svg:g>
                        <svg:g>
                            <svg:path d="M379.733,273.729C379.429,274.527 377.332,274.467 375.049,273.596C372.766,272.725 371.163,271.372 371.467,270.575C371.771,269.777 373.868,269.837 376.151,270.708C378.434,271.578 380.037,272.931 379.733,273.729Z" style="fill:rgb(255,129,206);fill-rule:nonzero;" />
                        </svg:g>
                        <svg:g>
                            <svg:path d="M407.305,273.729C407.609,274.527 409.706,274.467 411.989,273.596C414.272,272.725 415.875,271.372 415.571,270.575C415.267,269.777 413.17,269.837 410.887,270.708C408.605,271.578 407.001,272.931 407.305,273.729Z" style="fill:rgb(255,129,206);fill-rule:nonzero;" />
                        </svg:g>
                    </svg:g>
                </svg:g>
            </svg:g>
        </svg:g>
    </g>
</svg>