<?xml version='1.0' encoding='UTF-8'?>
<svg xmlns="http://www.w3.org/2000/svg" xmlns:xlink="http://www.w3.org/1999/xlink" xmlns:svg="http://www.w3.org/2000/svg" xmlns:serif="http://www.serif.com/" height="100%" style="fill-rule:evenodd;clip-rule:evenodd;" version="1.1" viewBox="1000.0 400.0 120.0 60.0" width="100%">
    <g>
        <svg:rect x="1000" y="400" width="120" height="60" style="fill:rgb(255,126,121);" />
        <svg:g transform="matrix(0.385773,0,0,0.385773,1002.1,328.747)">
            <svg:path d="M48.529,273.367C48.529,273.367 72.925,191.312 143.637,199.644C201.066,206.41 224.854,253.164 233.327,285.55C236.701,298.447 228.635,311.52 215.614,314.379C161.318,326.302 64.96,285.501 48.529,273.367Z" style="fill:rgb(239,193,49);fill-rule:nonzero;stroke-linecap:round;stroke-linejoin:round;stroke-miterlimit:10;" />
            <svg:path d="M34.893,280.936C34.893,280.936 26.711,279.615 28.451,268.433C30.19,257.251 37.356,256.182 39.711,244.456C42.066,232.73 41.898,224.311 57.855,224.032C59.713,210.686 66.436,203.298 75.99,204.823C87.252,206.62 98.792,204.249 108.003,197.525C108.114,197.444 108.225,197.363 108.336,197.281C119.483,189.103 131.412,191.936 139.486,206.286C148.869,193.831 168.077,203.167 165.238,217.073C179.163,213.977 192.251,216.882 197.869,231.428C203.487,245.974 195.948,255.822 209.474,261.569C222.999,267.316 231.097,273.753 219.665,287.361C231.098,296.332 229.415,311.497 217.603,315.049C198.559,320.777 34.893,280.936 34.893,280.936Z" style="fill:rgb(158,207,187);fill-rule:nonzero;stroke-linecap:round;stroke-linejoin:round;stroke-miterlimit:10;" />
            <svg:path d="M29.156,283.374C29.156,283.374 53.552,201.319 124.264,209.651C194.976,217.982 214.685,286.937 217.602,315.05C121.573,332.154 48.077,297.347 29.156,283.374Z" style="fill:rgb(239,193,49);fill-rule:nonzero;stroke-linecap:round;stroke-linejoin:round;stroke-miterlimit:10;" />
            <svg:g>
                <svg:path d="M103.782,258.6C103.147,261.919 101.369,264.367 98.767,263.869C96.165,263.371 95.417,260.439 96.052,257.121C96.687,253.803 98.464,251.354 101.067,251.852C103.669,252.349 104.417,255.281 103.782,258.6Z" style="fill:rgb(84,57,43);fill-rule:nonzero;" />
                <svg:path d="M148.638,267.182C148.003,270.5 146.226,272.949 143.623,272.451C141.021,271.953 140.273,269.021 140.908,265.703C141.543,262.384 143.321,259.936 145.923,260.434C148.525,260.932 149.273,263.863 148.638,267.182Z" style="fill:rgb(84,57,43);fill-rule:nonzero;" />
                <svg:path d="M113.824,266.718C115.122,273.63 125.797,275.672 129.554,269.727L113.824,266.718Z" style="fill:rgb(195,82,78);fill-rule:nonzero;stroke-linecap:round;stroke-linejoin:round;stroke-miterlimit:10;" />
                <svg:path d="M91.719,262.521C91.063,265.951 86.909,268.039 82.442,267.184C77.975,266.329 74.885,262.856 75.542,259.426C76.198,255.996 80.352,253.908 84.819,254.763C89.286,255.618 92.375,259.091 91.719,262.521Z" style="fill:rgb(255,136,185);fill-rule:nonzero;" />
                <svg:path d="M166.85,276.895C166.194,280.325 162.04,282.413 157.573,281.558C153.106,280.703 150.016,277.23 150.672,273.8C151.328,270.37 155.482,268.282 159.949,269.137C164.416,269.991 167.506,273.465 166.85,276.895Z" style="fill:rgb(255,136,185);fill-rule:nonzero;" />
            </svg:g>
            <svg:g opacity="0.3">
                <svg:path d="M38.784,284.303C50.546,252.015 77.831,220.301 114.319,218.764C155.029,217.083 185.421,248.693 198.733,284.556C202.292,294.21 204.823,304.21 205.946,314.338C205.968,314.463 205.881,314.584 205.754,314.597C205.64,314.61 205.536,314.532 205.514,314.421C197.484,273.677 170.025,229.555 125.786,223.568C96.377,219.597 71.793,235.718 54.692,258.462C48.61,266.526 43.294,275.239 39.191,284.471C39.142,284.582 39.013,284.633 38.901,284.585C38.793,284.536 38.742,284.412 38.784,284.303Z" style="fill:white;fill-rule:nonzero;" />
            </svg:g>
            <svg:g>
                <svg:path d="M52.229,275.784C52.229,275.784 49.972,280.229 53.005,282.362" style="fill:none;fill-rule:nonzero;stroke-linecap:round;stroke-linejoin:round;stroke-miterlimit:10;" />
                <svg:path d="M61.014,279.357C61.014,279.357 58.757,283.802 61.79,285.935" style="fill:none;fill-rule:nonzero;stroke-linecap:round;stroke-linejoin:round;stroke-miterlimit:10;" />
                <svg:path d="M57.687,264.65C57.687,264.65 55.43,269.095 58.463,271.228" style="fill:none;fill-rule:nonzero;stroke-linecap:round;stroke-linejoin:round;stroke-miterlimit:10;" />
            </svg:g>
            <svg:g>
                <svg:path d="M176.277,280.725C176.277,280.725 174.02,285.17 177.053,287.303" style="fill:none;fill-rule:nonzero;stroke-linecap:round;stroke-linejoin:round;stroke-miterlimit:10;" />
                <svg:path d="M185.063,284.299C185.063,284.299 182.806,288.744 185.839,290.877" style="fill:none;fill-rule:nonzero;stroke-linecap:round;stroke-linejoin:round;stroke-miterlimit:10;" />
                <svg:path d="M181.736,269.591C181.736,269.591 179.478,274.036 182.512,276.169" style="fill:none;fill-rule:nonzero;stroke-linecap:round;stroke-linejoin:round;stroke-miterlimit:10;" />
            </svg:g>
            <svg:g>
                <svg:path d="M190.532,297.312C190.532,297.312 188.275,301.757 191.308,303.89" style="fill:none;fill-rule:nonzero;stroke-linecap:round;stroke-linejoin:round;stroke-miterlimit:10;" />
                <svg:path d="M199.318,300.885C199.318,300.885 197.06,305.33 200.094,307.464" style="fill:none;fill-rule:nonzero;stroke-linecap:round;stroke-linejoin:round;stroke-miterlimit:10;" />
                <svg:path d="M195.991,286.178C195.991,286.178 193.733,290.623 196.767,292.756" style="fill:none;fill-rule:nonzero;stroke-linecap:round;stroke-linejoin:round;stroke-miterlimit:10;" />
            </svg:g>
            <svg:g>
                <svg:path d="M94.8,228.329C94.8,228.329 92.543,232.774 95.576,234.907" style="fill:none;fill-rule:nonzero;stroke-linecap:round;stroke-linejoin:round;stroke-miterlimit:10;" />
                <svg:path d="M103.586,231.902C103.586,231.902 101.329,236.347 104.362,238.48" style="fill:none;fill-rule:nonzero;stroke-linecap:round;stroke-linejoin:round;stroke-miterlimit:10;" />
                <svg:path d="M100.259,217.195C100.259,217.195 98.002,221.64 101.035,223.773" style="fill:none;fill-rule:nonzero;stroke-linecap:round;stroke-linejoin:round;stroke-miterlimit:10;" />
            </svg:g>
            <svg:path d="M48.901,235.337L53.618,239.143" style="fill:none;fill-rule:nonzero;stroke-linecap:round;stroke-linejoin:round;stroke-miterlimit:10;" />
            <svg:path d="M70.933,211.489L74.541,219.601" style="fill:none;fill-rule:nonzero;stroke-linecap:round;stroke-linejoin:round;stroke-miterlimit:10;" />
            <svg:path d="M77.913,211.725L79.27,217.819" style="fill:none;fill-rule:nonzero;stroke-linecap:round;stroke-linejoin:round;stroke-miterlimit:10;" />
            <svg:path d="M183.403,224.765C183.549,226.17 178.031,233.337 178.031,233.337" style="fill:none;fill-rule:nonzero;stroke-linecap:round;stroke-linejoin:round;stroke-miterlimit:10;" />
            <svg:path d="M188.804,231.509L182.133,237.222" style="fill:none;fill-rule:nonzero;stroke-linecap:round;stroke-linejoin:round;stroke-miterlimit:10;" />
            <svg:path d="M218.985,274.128L208.496,278.782" style="fill:none;fill-rule:nonzero;stroke-linecap:round;stroke-linejoin:round;stroke-miterlimit:10;" />
        </svg:g>
    </g>
</svg>