<?xml version='1.0' encoding='UTF-8'?>
<svg xmlns="http://www.w3.org/2000/svg" xmlns:xlink="http://www.w3.org/1999/xlink" xmlns:svg="http://www.w3.org/2000/svg" xmlns:serif="http://www.serif.com/" height="100%" style="fill-rule:evenodd;clip-rule:evenodd;" version="1.1" viewBox="1010.0 860.0 100.0 100.0" width="100%">
    <g>
        <svg:rect x="1010" y="860" width="100" height="100" style="fill:rgb(148,55,255);" />
        <svg:g>
            <svg:g transform="matrix(0.588349,0,0,0.588349,1008.42,672.992)">
                <svg:path d="M40.993,392.785C40.993,392.785 2.948,476.668 89.007,476.668C175.065,476.668 139.249,392.785 139.249,392.785L40.993,392.785Z" style="fill:white;fill-rule:nonzero;stroke-linecap:round;stroke-linejoin:round;stroke-miterlimit:10;" />
            </svg:g>
            <svg:g transform="matrix(0.588349,0,0,0.588349,1008.42,672.992)">
                <svg:path id="XMLID_00000173160842414757775570000017467850887591504310_" d="M71.805,335.919C56.923,339.513 39.081,348.983 27.242,372.491C22.225,382.452 22.066,397.072 33.706,402C38.505,404.031 44.116,404.3 49.242,403.784C59.507,402.75 69.79,403.964 79.83,406.136C89.076,408.137 97.616,411.106 107.174,410.957C122.927,410.711 140.153,405.068 149.579,391.713C158.887,378.524 151.184,363.541 140.388,354.102C131.973,346.745 121.65,341.673 111.122,338.112C98.455,333.825 84.804,332.78 71.805,335.919Z" style="fill:rgb(195,82,78);fill-rule:nonzero;" />
                <svg:clipPath id="_clip92">
                    <svg:path d="M71.805,335.919C56.923,339.513 39.081,348.983 27.242,372.491C22.225,382.452 22.066,397.072 33.706,402C38.505,404.031 44.116,404.3 49.242,403.784C59.507,402.75 69.79,403.964 79.83,406.136C89.076,408.137 97.616,411.106 107.174,410.957C122.927,410.711 140.153,405.068 149.579,391.713C158.887,378.524 151.184,363.541 140.388,354.102C131.973,346.745 121.65,341.673 111.122,338.112C98.455,333.825 84.804,332.78 71.805,335.919Z" />
                </svg:clipPath>
                <svg:g clip-path="url(#_clip92)">
                    <svg:ellipse cx="34.561" cy="355.533" rx="21.445" ry="19.227" style="fill:white;" />
                </svg:g>
                <svg:clipPath id="_clip93">
                    <svg:path d="M71.805,335.919C56.923,339.513 39.081,348.983 27.242,372.491C22.225,382.452 22.066,397.072 33.706,402C38.505,404.031 44.116,404.3 49.242,403.784C59.507,402.75 69.79,403.964 79.83,406.136C89.076,408.137 97.616,411.106 107.174,410.957C122.927,410.711 140.153,405.068 149.579,391.713C158.887,378.524 151.184,363.541 140.388,354.102C131.973,346.745 121.65,341.673 111.122,338.112C98.455,333.825 84.804,332.78 71.805,335.919Z" />
                </svg:clipPath>
                <svg:g clip-path="url(#_clip93)">
                    <svg:ellipse cx="84.825" cy="398.423" rx="21.445" ry="19.227" style="fill:white;" />
                </svg:g>
                <svg:clipPath id="_clip94">
                    <svg:path d="M71.805,335.919C56.923,339.513 39.081,348.983 27.242,372.491C22.225,382.452 22.066,397.072 33.706,402C38.505,404.031 44.116,404.3 49.242,403.784C59.507,402.75 69.79,403.964 79.83,406.136C89.076,408.137 97.616,411.106 107.174,410.957C122.927,410.711 140.153,405.068 149.579,391.713C158.887,378.524 151.184,363.541 140.388,354.102C131.973,346.745 121.65,341.673 111.122,338.112C98.455,333.825 84.804,332.78 71.805,335.919Z" />
                </svg:clipPath>
                <svg:g clip-path="url(#_clip94)">
                    <svg:ellipse cx="143.183" cy="363.752" rx="21.445" ry="19.227" style="fill:white;" />
                </svg:g>
                <svg:clipPath id="_clip95">
                    <svg:path d="M71.805,335.919C56.923,339.513 39.081,348.983 27.242,372.491C22.225,382.452 22.066,397.072 33.706,402C38.505,404.031 44.116,404.3 49.242,403.784C59.507,402.75 69.79,403.964 79.83,406.136C89.076,408.137 97.616,411.106 107.174,410.957C122.927,410.711 140.153,405.068 149.579,391.713C158.887,378.524 151.184,363.541 140.388,354.102C131.973,346.745 121.65,341.673 111.122,338.112C98.455,333.825 84.804,332.78 71.805,335.919Z" />
                </svg:clipPath>
                <svg:g clip-path="url(#_clip95)">
                    <svg:path d="M68.153,336.976C68.153,341.702 71.984,343.314 76.709,343.314C81.435,343.314 85.265,341.701 85.265,336.976C85.265,332.25 81.434,330.638 76.709,330.638C71.984,330.638 68.153,332.25 68.153,336.976Z" style="fill:white;fill-rule:nonzero;" />
                </svg:g>
                <svg:clipPath id="_clip96">
                    <svg:path d="M71.805,335.919C56.923,339.513 39.081,348.983 27.242,372.491C22.225,382.452 22.066,397.072 33.706,402C38.505,404.031 44.116,404.3 49.242,403.784C59.507,402.75 69.79,403.964 79.83,406.136C89.076,408.137 97.616,411.106 107.174,410.957C122.927,410.711 140.153,405.068 149.579,391.713C158.887,378.524 151.184,363.541 140.388,354.102C131.973,346.745 121.65,341.673 111.122,338.112C98.455,333.825 84.804,332.78 71.805,335.919Z" />
                </svg:clipPath>
                <svg:g clip-path="url(#_clip96)">
                    <svg:path d="M89.639,352.273C89.639,357.933 94.228,360.006 99.888,360.006C105.548,360.006 110.137,357.933 110.137,352.273C110.137,346.613 105.548,343.895 99.888,343.895C94.227,343.896 89.639,346.613 89.639,352.273Z" style="fill:white;fill-rule:nonzero;" />
                </svg:g>
                <svg:path id="XMLID_00000173160842414757775570000017467850887591504310_1" serif:id="XMLID_00000173160842414757775570000017467850887591504310_" d="M71.805,335.919C56.923,339.513 39.081,348.983 27.242,372.491C22.225,382.452 22.066,397.072 33.706,402C38.505,404.031 44.116,404.3 49.242,403.784C59.507,402.75 69.79,403.964 79.83,406.136C89.076,408.137 97.616,411.106 107.174,410.957C122.927,410.711 140.153,405.068 149.579,391.713C158.887,378.524 151.184,363.541 140.388,354.102C131.973,346.745 121.65,341.673 111.122,338.112C98.455,333.825 84.804,332.78 71.805,335.919Z" style="fill:none;fill-rule:nonzero;stroke-linecap:round;stroke-linejoin:round;stroke-miterlimit:10;" />
            </svg:g>
            <svg:g transform="matrix(0.588349,0,0,0.588349,1008.42,672.992)">
                <svg:path d="M59.958,433.71C59.958,429.965 61.383,426.93 64.319,426.93C67.255,426.93 68.68,429.966 68.68,433.71" style="fill:none;fill-rule:nonzero;stroke-linecap:round;stroke-linejoin:round;stroke-miterlimit:10;" />
                <svg:path d="M110.575,433.71C110.575,429.965 112,426.93 114.936,426.93C117.872,426.93 119.297,429.966 119.297,433.71" style="fill:none;fill-rule:nonzero;stroke-linecap:round;stroke-linejoin:round;stroke-miterlimit:10;" />
                <svg:path d="M81.303,440.455C84.155,447.709 96.201,447.708 99.053,440.454L81.303,440.455Z" style="fill:rgb(195,82,78);fill-rule:nonzero;stroke-linecap:round;stroke-linejoin:round;stroke-miterlimit:10;" />
                <svg:path d="M56.366,440.49C56.366,444.36 52.279,447.498 47.238,447.498C42.197,447.498 38.111,444.36 38.111,440.49C38.111,436.62 42.198,433.482 47.238,433.482C52.279,433.482 56.366,436.619 56.366,440.49Z" style="fill:rgb(255,136,185);fill-rule:nonzero;" />
                <svg:path d="M141.144,440.49C141.144,444.36 137.058,447.498 132.017,447.498C126.976,447.498 122.89,444.36 122.89,440.49C122.89,436.62 126.976,433.482 132.017,433.482C137.058,433.482 141.144,436.619 141.144,440.49Z" style="fill:rgb(255,136,185);fill-rule:nonzero;" />
            </svg:g>
            <svg:g transform="matrix(0.588349,0,0,0.588349,1008.42,672.992)">
                <svg:g opacity="0.3">
                    <svg:path d="M83.098,342.862C70.02,344.6 58.763,350.626 49.169,359.193C44.647,363.352 40.102,368.009 36.847,373.226C33.542,378.343 31.86,385.001 35.437,390.406C35.582,390.594 35.284,390.855 35.116,390.68C32.522,388.347 31.307,384.874 31.22,381.475C31.248,372.787 37.059,365.579 42.616,359.456C48.403,353.388 55.497,348.336 63.332,345.31C69.621,342.906 76.43,341.588 83.17,342.429C83.287,342.444 83.37,342.552 83.355,342.669C83.331,342.806 83.224,342.856 83.098,342.862Z" style="fill:white;fill-rule:nonzero;" />
                </svg:g>
            </svg:g>
            <svg:g transform="matrix(0.588349,0,0,0.588349,1008.42,672.992)">
                <svg:path d="M38.111,396.111C38.111,396.111 44.56,399.908 56.366,394.734" style="fill:none;fill-rule:nonzero;stroke-linecap:round;stroke-linejoin:round;stroke-miterlimit:10;" />
            </svg:g>
            <svg:g transform="matrix(0.588349,0,0,0.588349,1008.42,672.992)">
                <svg:path d="M123.834,398.615C123.834,398.615 137.242,397.803 143.71,386.309" style="fill:none;fill-rule:nonzero;stroke-linecap:round;stroke-linejoin:round;stroke-miterlimit:10;" />
            </svg:g>
            <svg:g transform="matrix(0.588349,0,0,0.588349,1008.42,672.992)">
                <svg:path d="M97.404,400.425C97.404,400.425 105.822,406.095 114.936,401.579" style="fill:none;fill-rule:nonzero;stroke-linecap:round;stroke-linejoin:round;stroke-miterlimit:10;" />
            </svg:g>
        </svg:g>
    </g>
</svg>