<?xml version="1.0" encoding="utf-8"?>
<!-- Generator: Adobe Illustrator 22.1.0, SVG Export Plug-In . SVG Version: 6.00 Build 0)  -->
<svg version="1.1" id="Layer_1" xmlns="http://www.w3.org/2000/svg" xmlns:xlink="http://www.w3.org/1999/xlink" x="0px" y="0px"
	 viewBox="0 0 500 500" style="enable-background:new 0 0 500 500;" xml:space="preserve">
<style type="text/css">
	.st0{fill:#A9E56B;}
	.st1{fill:#73BFCB;}
	.st2{fill:#F266B9;}
	.st3{fill:#FFFFFF;}
	.st4{fill:#C288FA;}
</style>
<g>
	<g>
		<path class="st0" d="M364.3,273.4L338.7,308l-28.8,163.2c8.9-1.3,17.6-3,26.1-5l44.7-173.5L364.3,273.4z"/>
		<path class="st0" d="M145.6,273.4l-16.3,19.3l44.7,173.5c8.4,2,17.1,3.7,26.1,5L171.3,308L145.6,273.4z"/>
		<path class="st1" d="M408.7,259.1l-8.8,16.6l-0.5,0.9l-0.1,0.2l-5.4,10.1l-3.4,6.4l-43.9,170.2c5.8-1.6,11.4-3.3,16.7-5.2l61-195
			L408.7,259.1z"/>
		<path class="st0" d="M266.9,475.1l9.6-156.6L254.1,296l-20.6,22.3l9.6,156.7C251,475.3,258.9,475.3,266.9,475.1z"/>
		<path class="st1" d="M101.3,259.1l-9.2,2.4l-6.5,1.7l61,195c5.3,1.8,10.9,3.6,16.7,5.2l-43.9-170.2L101.3,259.1z"/>
		<path class="st1" d="M311,292.5l-24.8,26.1l-9.6,156c7.8-0.4,15.5-1.1,23.1-2.1l29.1-164.7L311,292.5z"/>
		<path class="st1" d="M233.3,474.6l-9.6-156l-5.2-5.4l0,0l-13.8-14.6l-0.2-0.2l-5.6-5.9l-17.9,15.4l29.1,164.7
			C217.8,473.5,225.6,474.2,233.3,474.6z"/>
	</g>
	<g>
		<path class="st2" d="M412.1,250l9.3,2.5c3-21.4,0-42.3-8.8-62.2c-20.5-46-67.3-65.5-118.9-76.5l-0.1,0l-1-0.2
			c-22.3-4.8-45.1-7.9-67.1-10.9c-28-3.8-54.4-7.4-74.5-13.9l-3.4-1.1v0c-0.3-0.1-0.5-0.2-0.8-0.3c-0.7-0.3-1.4-0.5-2.2-0.8
			c-0.3-0.1-0.7-0.3-1-0.4c-0.7-0.3-1.5-0.6-2.2-0.9c-0.2-0.1-0.5-0.2-0.7-0.3c-0.1,0-0.1,0-0.2-0.1c0,0.2,0.1,0.3,0.1,0.5
			c0.1,0.2,0.1,0.5,0.2,0.7c0.1,0.3,0.2,0.6,0.3,0.9c0.1,0.2,0.1,0.5,0.2,0.7c0.1,0.3,0.2,0.6,0.4,0.9c0.1,0.2,0.2,0.4,0.3,0.6
			c0.1,0.3,0.3,0.6,0.4,1c0.1,0.2,0.2,0.4,0.3,0.6c0.2,0.4,0.4,0.7,0.6,1.1c0.1,0.2,0.2,0.3,0.3,0.5c0.3,0.5,0.6,1,0.9,1.4
			c0,0,0,0.1,0.1,0.1c0.3,0.5,0.7,1,1.1,1.6c0.1,0.1,0.2,0.2,0.2,0.3c0.3,0.4,0.6,0.8,0.9,1.2c0.1,0.2,0.3,0.3,0.4,0.5
			c0.3,0.3,0.6,0.7,0.8,1c0.2,0.2,0.3,0.4,0.5,0.6c0.3,0.3,0.6,0.6,0.9,1c0.2,0.2,0.4,0.4,0.6,0.6c0.3,0.3,0.6,0.6,0.9,0.9
			c0.2,0.2,0.4,0.4,0.6,0.6c0.3,0.3,0.6,0.6,0.9,0.9c0.2,0.2,0.4,0.4,0.6,0.6c0.3,0.3,0.6,0.6,1,0.9c0.2,0.2,0.4,0.4,0.7,0.6
			c0.3,0.3,0.7,0.6,1,0.9c0.2,0.2,0.4,0.4,0.7,0.6c0.4,0.3,0.7,0.6,1.1,0.9c0.2,0.2,0.5,0.4,0.7,0.6c0.4,0.3,0.8,0.6,1.2,0.9
			c0.2,0.2,0.4,0.3,0.7,0.5c0.4,0.3,0.9,0.7,1.3,1c0.2,0.2,0.4,0.3,0.6,0.5c0.5,0.4,1,0.7,1.5,1.1c0.2,0.1,0.3,0.2,0.5,0.3
			c0.7,0.5,1.3,0.9,2,1.3c0,0,0.1,0.1,0.1,0.1c1.5,1,3,1.9,4.5,2.9c0.1,0.1,0.2,0.2,0.4,0.2c0.6,0.4,1.3,0.8,1.9,1.2
			c0.2,0.1,0.4,0.2,0.6,0.4c0.6,0.3,1.2,0.7,1.7,1c0.2,0.1,0.5,0.3,0.8,0.4c0.6,0.3,1.1,0.6,1.7,1c0.3,0.2,0.5,0.3,0.8,0.5
			c0.6,0.3,1.1,0.6,1.7,0.9c0.3,0.2,0.6,0.3,0.9,0.5c0.6,0.3,1.1,0.6,1.7,0.9c0.3,0.2,0.6,0.3,0.9,0.5c0.6,0.3,1.1,0.6,1.7,0.9
			c0.3,0.2,0.6,0.3,0.9,0.5c0.6,0.3,1.2,0.6,1.8,0.9c0.3,0.1,0.6,0.3,0.9,0.4c0.6,0.3,1.3,0.6,1.9,0.9c0.3,0.1,0.5,0.3,0.8,0.4
			c0.7,0.3,1.3,0.6,2,1c0.2,0.1,0.5,0.2,0.7,0.3c0.7,0.3,1.5,0.7,2.2,1c0.2,0.1,0.4,0.2,0.5,0.3c0.9,0.4,1.8,0.9,2.8,1.3
			c0,0,0,0,0,0c2.9,1.3,5.8,2.6,8.8,3.9c0.1,0.1,0.3,0.1,0.4,0.2c0.8,0.4,1.7,0.7,2.5,1.1c0.2,0.1,0.4,0.2,0.6,0.3
			c0.8,0.3,1.6,0.7,2.3,1c0.2,0.1,0.5,0.2,0.7,0.3c0.8,0.3,1.5,0.6,2.3,0.9c0.3,0.1,0.5,0.2,0.8,0.3c0.7,0.3,1.5,0.6,2.2,0.9
			c0.3,0.1,0.5,0.2,0.8,0.3c0.7,0.3,1.5,0.6,2.2,0.9c0.3,0.1,0.5,0.2,0.8,0.3c0.7,0.3,1.5,0.6,2.2,0.9c0.3,0.1,0.6,0.2,0.8,0.3
			c0.8,0.3,1.5,0.6,2.3,0.9c0.3,0.1,0.5,0.2,0.8,0.3c0.8,0.3,1.6,0.6,2.3,0.9c0.2,0.1,0.5,0.2,0.7,0.3c0.8,0.3,1.7,0.6,2.5,1
			c0.2,0.1,0.3,0.1,0.5,0.2c5.1,1.9,10.3,3.8,15.4,5.6c0.1,0,0.2,0.1,0.4,0.1c0.9,0.3,1.8,0.6,2.6,0.9c0.2,0.1,0.4,0.1,0.6,0.2
			c0.8,0.3,1.6,0.6,2.4,0.9c0.2,0.1,0.4,0.1,0.6,0.2c0.8,0.3,1.6,0.6,2.4,0.8c0.2,0.1,0.5,0.2,0.7,0.2c0.8,0.3,1.5,0.5,2.3,0.8
			c0.3,0.1,0.5,0.2,0.8,0.3c0.7,0.2,1.4,0.5,2.1,0.7c0.3,0.1,0.6,0.2,0.9,0.3c0.7,0.2,1.4,0.5,2,0.7c0.3,0.1,0.5,0.2,0.8,0.3
			c0.8,0.3,1.6,0.5,2.3,0.8c0.2,0.1,0.3,0.1,0.5,0.2c0.8,0.3,1.6,0.6,2.4,0.8c0.2,0.1,0.3,0.1,0.5,0.2c1.8,0.6,3.6,1.2,5.3,1.8
			c0.1,0,0.3,0.1,0.4,0.1c0.9,0.3,1.8,0.6,2.7,0.9c21.9,7.5,40.8,13.9,53,19.6c0.7,0.3,1.4,0.7,2.1,1c0.2,0.1,0.5,0.2,0.7,0.3
			c0.5,0.2,1,0.5,1.5,0.8c0.3,0.1,0.5,0.3,0.8,0.4c0.5,0.3,0.9,0.5,1.4,0.8c0.3,0.2,0.6,0.3,0.9,0.5c0.5,0.3,0.9,0.5,1.4,0.8
			c0.3,0.2,0.6,0.4,0.9,0.6c0.5,0.3,1,0.6,1.4,0.9c0.3,0.2,0.6,0.4,0.9,0.6c0.5,0.3,1,0.7,1.5,1c0.3,0.2,0.6,0.4,0.8,0.6
			c0.6,0.4,1.2,0.8,1.8,1.3c0.2,0.1,0.4,0.3,0.6,0.4c0.8,0.6,1.6,1.2,2.5,1.8c0.1,0.1,0.1,0.1,0.2,0.2c0.7,0.6,1.5,1.1,2.2,1.7
			c0.2,0.2,0.5,0.4,0.7,0.6c0.6,0.5,1.1,0.9,1.7,1.4c0.3,0.2,0.6,0.5,0.9,0.7c0.5,0.5,1,0.9,1.6,1.4c0.3,0.3,0.6,0.5,0.9,0.8
			c0.5,0.5,1,0.9,1.5,1.4c0.3,0.3,0.6,0.6,0.9,0.9c0.5,0.5,1,1,1.5,1.5c0.3,0.3,0.6,0.6,0.9,0.9c0.5,0.5,1.1,1.1,1.6,1.7
			c0.3,0.3,0.5,0.5,0.8,0.8c0.7,0.7,1.3,1.4,1.9,2.1c0.1,0.1,0.3,0.3,0.4,0.4c0.8,0.9,1.5,1.8,2.3,2.7c0.1,0.2,0.3,0.3,0.4,0.5
			c0.6,0.7,1.2,1.5,1.8,2.3c0.2,0.3,0.5,0.6,0.7,0.9c0.5,0.6,1,1.3,1.4,1.9c0.3,0.4,0.5,0.7,0.8,1.1c0.4,0.6,0.9,1.2,1.3,1.9
			c0.3,0.4,0.5,0.8,0.8,1.2c0.4,0.6,0.8,1.3,1.2,1.9c0.3,0.4,0.5,0.8,0.8,1.2c0.4,0.7,0.8,1.3,1.2,2c0.2,0.4,0.5,0.8,0.7,1.2
			c0.4,0.7,0.8,1.5,1.2,2.3c0.2,0.3,0.4,0.7,0.6,1c0.5,1,1,2.1,1.5,3.1c0,0.1,0.1,0.2,0.1,0.3c0.5,1.2,1,2.3,1.5,3.5
			c0.1,0.3,0.3,0.7,0.4,1c0.3,0.9,0.7,1.7,1,2.6c0.2,0.4,0.3,0.9,0.5,1.3c0.3,0.8,0.5,1.6,0.8,2.4c0.2,0.5,0.3,1,0.5,1.5
			c0.2,0.8,0.5,1.5,0.7,2.3c0.1,0.5,0.3,1,0.4,1.6c0.2,0.8,0.4,1.6,0.6,2.4c0.1,0.5,0.2,1.1,0.3,1.6c0.1,0.3,0.1,0.5,0.2,0.8
			l3.8-7.2c1.1-2,3.3-3,5.5-2.4L412.1,250z"/>
		<path class="st3" d="M320.9,271.6c0.2,0.6,0.4,1.3,0.6,1.9c0.2,0.7,0.4,1.4,0.6,2.2c0.2,0.7,0.3,1.3,0.5,2
			c0.2,0.7,0.3,1.4,0.5,2.2c0.1,0.7,0.2,1.3,0.4,2c0.1,0.7,0.2,1.5,0.3,2.2c0.1,0.7,0.2,1.3,0.2,2c0.1,0.7,0.1,1.5,0.1,2.2
			c0,0.7,0.1,1.3,0.1,2c0,0.3,0,0.6,0,1l9,7.8l30.5-41.2l4,4.7l17.2,20.4l5-9.4c0-0.5,0-1-0.1-1.4c0-0.7-0.1-1.4-0.1-2.1
			c0-0.7-0.1-1.3-0.2-2c-0.1-0.7-0.1-1.3-0.2-2c-0.1-0.6-0.2-1.3-0.3-1.9c-0.1-0.7-0.2-1.3-0.3-1.9c-0.1-0.6-0.2-1.3-0.4-1.9
			c-0.1-0.6-0.2-1.3-0.4-1.9c-0.1-0.6-0.3-1.2-0.4-1.9c-0.2-0.6-0.3-1.2-0.5-1.8c-0.2-0.6-0.3-1.2-0.5-1.8c-0.2-0.6-0.3-1.2-0.5-1.8
			c-0.2-0.6-0.4-1.2-0.6-1.8c-0.2-0.6-0.4-1.1-0.6-1.7c-0.2-0.6-0.5-1.2-0.7-1.8c-0.2-0.6-0.4-1.1-0.7-1.6c-0.2-0.6-0.5-1.1-0.8-1.7
			c-0.2-0.5-0.5-1.1-0.7-1.6c-0.3-0.6-0.5-1.1-0.8-1.7c-0.3-0.5-0.5-1-0.8-1.5c-0.3-0.6-0.6-1.1-0.9-1.6c-0.3-0.5-0.5-1-0.8-1.5
			c-0.3-0.5-0.6-1.1-0.9-1.6c-0.3-0.5-0.6-0.9-0.9-1.4c-0.3-0.5-0.7-1-1-1.6c-0.3-0.5-0.6-0.9-0.9-1.4c-0.3-0.5-0.7-1-1.1-1.5
			c-0.3-0.4-0.6-0.9-0.9-1.3c-0.4-0.5-0.7-1-1.1-1.5c-0.3-0.4-0.6-0.8-1-1.3c-0.4-0.5-0.8-1-1.1-1.4c-0.3-0.4-0.6-0.8-1-1.2
			c-0.4-0.5-0.8-0.9-1.2-1.4c-0.3-0.4-0.7-0.8-1-1.1c-0.4-0.5-0.8-0.9-1.2-1.3c-0.3-0.4-0.7-0.7-1-1.1c-0.4-0.4-0.8-0.9-1.2-1.3
			c-0.3-0.3-0.7-0.7-1-1c-0.4-0.4-0.8-0.8-1.3-1.2c-0.3-0.3-0.7-0.7-1-1c-0.4-0.4-0.9-0.8-1.3-1.2c-0.3-0.3-0.7-0.6-1-0.9
			c-0.4-0.4-0.9-0.8-1.3-1.1c-0.3-0.3-0.7-0.6-1-0.9c-0.4-0.4-0.9-0.7-1.3-1.1c-0.3-0.3-0.7-0.6-1-0.8c-0.4-0.3-0.9-0.7-1.3-1
			c-0.3-0.3-0.7-0.5-1-0.8c-0.4-0.3-0.9-0.7-1.3-1c-0.3-0.2-0.7-0.5-1-0.7c-0.4-0.3-0.9-0.6-1.3-0.9c-0.3-0.2-0.7-0.5-1-0.7
			c-0.4-0.3-0.9-0.6-1.3-0.9c-0.3-0.2-0.6-0.4-1-0.6c-0.4-0.3-0.9-0.6-1.3-0.8c-0.3-0.2-0.6-0.4-0.9-0.6c-0.4-0.3-0.9-0.5-1.3-0.8
			c-0.3-0.2-0.6-0.4-0.9-0.5c-0.4-0.2-0.9-0.5-1.3-0.7c-0.3-0.2-0.6-0.3-0.8-0.5c-0.5-0.3-1-0.5-1.5-0.8c-0.2-0.1-0.4-0.2-0.5-0.3
			c-0.7-0.3-1.3-0.7-2-1c-11.7-5.5-30.3-11.9-52-19.2c-1.5-0.5-2.9-1-4.4-1.5c-0.5-0.2-1.1-0.4-1.6-0.5c-1.5-0.5-3-1-4.6-1.6
			c-0.5-0.2-1-0.3-1.5-0.5c-1.6-0.5-3.1-1.1-4.7-1.6c-0.3-0.1-0.7-0.2-1-0.4c-1.4-0.5-2.9-1-4.3-1.5c-0.4-0.1-0.7-0.3-1.1-0.4
			c-1.6-0.5-3.1-1.1-4.7-1.7c-0.5-0.2-0.9-0.3-1.4-0.5c-1.6-0.6-3.2-1.1-4.7-1.7c-0.4-0.1-0.8-0.3-1.3-0.4c-1.6-0.6-3.1-1.1-4.7-1.7
			c-0.3-0.1-0.6-0.2-0.9-0.3c-1.5-0.5-3-1.1-4.5-1.6c-0.4-0.2-0.8-0.3-1.2-0.5c-1.6-0.6-3.1-1.2-4.7-1.7c-0.5-0.2-0.9-0.3-1.4-0.5
			c-1.6-0.6-3.1-1.2-4.7-1.8c-0.4-0.1-0.8-0.3-1.2-0.5c-1.4-0.5-2.8-1.1-4.2-1.6c-0.3-0.1-0.6-0.2-1-0.4c-1.5-0.6-3.1-1.2-4.6-1.9
			c-0.4-0.2-0.9-0.4-1.3-0.5c-1.5-0.6-3-1.2-4.5-1.9c-0.4-0.2-0.8-0.3-1.2-0.5c-1.5-0.6-3-1.3-4.5-1.9c-0.3-0.1-0.5-0.2-0.8-0.3
			c-1.4-0.6-2.7-1.2-4.1-1.8c-0.4-0.2-0.7-0.3-1.1-0.5c-1.4-0.7-2.9-1.3-4.3-2c-0.4-0.2-0.8-0.4-1.2-0.6c-1.4-0.7-2.8-1.3-4.2-2
			c-0.3-0.2-0.7-0.3-1-0.5c-1.3-0.6-2.6-1.3-3.8-1.9c-0.2-0.1-0.4-0.2-0.6-0.3c-1.4-0.7-2.7-1.4-4-2.1c-0.3-0.2-0.7-0.4-1-0.5
			c-1.3-0.7-2.6-1.4-3.8-2.1c-0.3-0.2-0.6-0.4-1-0.6c-1.3-0.7-2.5-1.5-3.8-2.2c-0.2-0.1-0.4-0.2-0.6-0.4c-1.1-0.7-2.3-1.4-3.3-2.1
			c-0.2-0.2-0.5-0.3-0.7-0.5c-1.2-0.8-2.3-1.5-3.4-2.3c-0.3-0.2-0.6-0.4-0.8-0.6c-1.1-0.8-2.2-1.5-3.2-2.3c-0.2-0.2-0.4-0.3-0.7-0.5
			c-1-0.8-2-1.6-3-2.3c-0.1-0.1-0.2-0.1-0.3-0.2c-1-0.8-2-1.7-2.9-2.5c-0.2-0.2-0.4-0.4-0.6-0.5c-0.9-0.8-1.8-1.6-2.6-2.5
			c-0.2-0.2-0.4-0.4-0.6-0.6c-0.8-0.8-1.7-1.7-2.5-2.6c-0.1-0.1-0.2-0.2-0.3-0.4c-0.7-0.8-1.4-1.7-2.1-2.5c-0.1-0.1-0.2-0.2-0.3-0.4
			c-0.7-0.9-1.3-1.8-2-2.7c-0.1-0.2-0.3-0.4-0.4-0.6c-0.6-0.9-1.2-1.8-1.7-2.7c-0.1-0.2-0.2-0.3-0.3-0.5c-0.5-0.9-1-1.9-1.5-2.8
			c-0.3,0.8-0.6,1.7-0.9,2.5c-0.2,0.5-0.3,0.9-0.5,1.4c-0.5,1.4-0.9,2.9-1.2,4.3c-8.3,33,11.9,55.7,40.8,73.2
			c3.1,1.8,6.2,3.6,9.4,5.3c2.4,1.3,4.9,2.6,7.4,3.8c4.2,2.1,8.4,4.1,12.7,6c1.7,0.8,3.4,1.5,5.2,2.3c10.4,4.5,20.9,8.7,30.9,12.6
			c20.6,8.1,38.4,15.2,48.4,22.9c1.7,1.3,3.3,2.6,4.8,3.8c0.5,0.4,1,0.9,1.5,1.3c1,0.9,2,1.7,3,2.6c0.6,0.5,1.1,1,1.7,1.6
			c0.8,0.8,1.7,1.5,2.5,2.3c0.6,0.6,1.1,1.1,1.7,1.7c0.7,0.7,1.5,1.5,2.2,2.2c0.6,0.6,1.1,1.2,1.6,1.8c0.6,0.7,1.3,1.4,1.9,2.2
			c0.5,0.6,1,1.2,1.5,1.8c0.6,0.7,1.2,1.4,1.7,2.1c0.5,0.6,0.9,1.2,1.4,1.8c0.5,0.7,1,1.4,1.5,2.1c0.4,0.6,0.8,1.2,1.2,1.9
			c0.5,0.7,0.9,1.4,1.3,2.1c0.4,0.6,0.7,1.3,1.1,1.9c0.4,0.7,0.8,1.4,1.2,2.1c0.3,0.6,0.6,1.3,0.9,1.9c0.3,0.7,0.7,1.4,1,2.1
			c0.3,0.6,0.5,1.3,0.8,1.9C320.4,270.2,320.7,270.9,320.9,271.6z"/>
		<path class="st2" d="M312.7,277.8c-0.2-0.8-0.5-1.5-0.7-2.3c-0.1-0.4-0.3-0.8-0.4-1.2c-0.3-0.7-0.6-1.5-0.9-2.2
			c-0.2-0.4-0.3-0.8-0.5-1.2c-0.4-0.8-0.8-1.7-1.2-2.5c-0.1-0.3-0.2-0.5-0.4-0.8c-0.6-1.1-1.2-2.2-1.8-3.2c-0.2-0.3-0.4-0.6-0.6-0.9
			c-0.5-0.8-1-1.6-1.5-2.4c-0.3-0.4-0.6-0.8-0.8-1.2c-0.5-0.7-1-1.4-1.6-2.1c-0.3-0.4-0.6-0.8-0.9-1.2c-0.6-0.8-1.2-1.5-1.9-2.3
			c-0.3-0.3-0.5-0.6-0.8-1c-0.9-1.1-1.9-2.1-2.9-3.2c-0.2-0.2-0.4-0.4-0.6-0.7c-0.8-0.9-1.7-1.7-2.6-2.6c-0.4-0.4-0.8-0.7-1.2-1.1
			c-0.8-0.7-1.5-1.4-2.3-2.2c-0.4-0.4-0.9-0.8-1.3-1.2c-0.8-0.7-1.7-1.5-2.6-2.2c-0.4-0.3-0.8-0.7-1.2-1c-1.3-1.1-2.7-2.1-4-3.2
			c-8.9-6.9-26.1-13.7-46-21.6c-1.3-0.5-2.6-1-4-1.6c-0.2-0.1-0.5-0.2-0.7-0.3c-1.3-0.5-2.6-1.1-4-1.6c-0.3-0.1-0.5-0.2-0.8-0.3
			c-1.3-0.5-2.7-1.1-4.1-1.6c-0.2-0.1-0.4-0.2-0.7-0.3c-1.4-0.6-2.8-1.2-4.3-1.7c-0.1,0-0.2-0.1-0.2-0.1c-1.4-0.6-2.8-1.2-4.2-1.8
			c-0.2-0.1-0.3-0.1-0.5-0.2c-1.4-0.6-2.8-1.2-4.2-1.8c-0.2-0.1-0.5-0.2-0.7-0.3c-1.4-0.6-2.8-1.2-4.2-1.8c-0.2-0.1-0.5-0.2-0.7-0.3
			c-1.4-0.6-2.9-1.3-4.3-1.9c-0.1-0.1-0.2-0.1-0.3-0.2c-1.4-0.7-2.9-1.3-4.3-2c-0.1,0-0.2-0.1-0.3-0.1c-1.4-0.7-2.8-1.4-4.3-2
			c-0.2-0.1-0.4-0.2-0.6-0.3c-1.4-0.7-2.8-1.4-4.1-2.1c-0.2-0.1-0.4-0.2-0.6-0.3c-1.4-0.7-2.8-1.4-4.2-2.2c-0.1-0.1-0.2-0.1-0.4-0.2
			c-1.4-0.8-2.9-1.6-4.3-2.3c0,0,0,0,0,0c-1.4-0.8-2.8-1.6-4.1-2.4c-0.2-0.1-0.3-0.2-0.5-0.3c-1.3-0.8-2.6-1.6-3.9-2.4
			c-0.2-0.1-0.4-0.2-0.6-0.3c-1.3-0.8-2.6-1.6-3.8-2.5c-0.1-0.1-0.3-0.2-0.4-0.3c-2.6-1.7-5.1-3.5-7.6-5.4c-0.1-0.1-0.2-0.2-0.4-0.3
			c-1.2-0.9-2.3-1.8-3.4-2.7c-0.2-0.1-0.3-0.3-0.5-0.4c-1.1-0.9-2.2-1.8-3.2-2.8c-0.1-0.1-0.3-0.2-0.4-0.4c-1.1-1-2.2-2-3.2-3
			c0,0,0,0,0,0c-1-1-2.1-2.1-3-3.1c-0.1-0.1-0.2-0.2-0.2-0.3c-0.9-1-1.8-2.1-2.7-3.1c-0.1-0.2-0.3-0.3-0.4-0.5
			c-0.9-1-1.7-2.1-2.5-3.1c-0.1-0.2-0.2-0.3-0.3-0.5c-0.8-1.1-1.6-2.2-2.3-3.3c0-0.1-0.1-0.2-0.1-0.2c-0.7-1.1-1.4-2.3-2.1-3.5
			c0-0.1-0.1-0.1-0.1-0.2c-0.7-1.2-1.3-2.3-1.8-3.5c-0.1-0.2-0.2-0.3-0.3-0.5c-0.5-1.2-1.1-2.3-1.5-3.5c-0.1-0.2-0.2-0.4-0.2-0.6
			c-0.5-1.2-0.9-2.4-1.3-3.7c0-0.1-0.1-0.3-0.1-0.4c-0.4-1.3-0.7-2.6-1-3.9c0,0,0-0.1,0-0.1c-0.3-1.3-0.5-2.7-0.7-4
			c0-0.2-0.1-0.4-0.1-0.6c-0.2-1.3-0.3-2.6-0.4-4c0-0.1,0-0.2,0-0.3c-0.1,0.1-0.1,0.2-0.2,0.3c-0.3,0.6-0.6,1.2-0.9,1.8
			c-0.3,0.6-0.5,1.1-0.8,1.7c-0.3,0.7-0.6,1.3-0.8,2c-0.2,0.5-0.4,1-0.6,1.5c-0.3,0.7-0.5,1.4-0.8,2.1c-0.2,0.5-0.3,1-0.5,1.4
			c-1.9,5.7-3.1,11.5-3.6,17.3c-0.2,2.6-0.3,5.2-0.2,7.7c0.7,36.8,28.8,67.5,49.9,80.9c0.7,0.5,1.5,0.9,2.2,1.3
			c1.6,0.9,3.2,1.9,4.7,2.9c0.5,0.3,1.1,0.7,1.6,1.1c1,0.6,1.9,1.3,2.9,1.9c0.6,0.4,1.2,0.9,1.8,1.3c0.8,0.6,1.7,1.2,2.5,1.8
			c0.6,0.5,1.2,0.9,1.8,1.4c0.8,0.6,1.5,1.2,2.3,1.8c0.6,0.5,1.2,1,1.8,1.5c0.7,0.6,1.4,1.2,2.1,1.8c0.6,0.5,1.2,1,1.7,1.5
			c0.7,0.6,1.3,1.2,2,1.8c0.6,0.5,1.1,1,1.6,1.6c0.6,0.6,1.3,1.2,1.9,1.8c0.5,0.5,1,1.1,1.5,1.6c0.6,0.6,1.2,1.2,1.7,1.8
			c0.5,0.5,1,1.1,1.4,1.6c0.5,0.6,1.1,1.2,1.6,1.9c0.5,0.5,0.9,1.1,1.3,1.6c0.5,0.6,1,1.3,1.5,1.9c0.4,0.6,0.8,1.1,1.2,1.7
			c0.5,0.6,0.9,1.3,1.4,1.9c0.4,0.6,0.7,1.1,1.1,1.7c0.4,0.6,0.8,1.3,1.2,1.9c0.3,0.6,0.7,1.1,1,1.7c0.4,0.6,0.7,1.3,1.1,1.9
			c0.3,0.6,0.6,1.1,0.9,1.7c0.3,0.6,0.6,1.3,0.9,1.9c0.3,0.6,0.5,1.1,0.7,1.7c0.3,0.6,0.5,1.3,0.8,1.9c0.2,0.6,0.4,1.1,0.6,1.7
			c0.2,0.4,0.3,0.9,0.5,1.3l16,16.9l21.9-23.7c0.9-1,2.2-1.5,3.5-1.6c0,0,0.1,0,0.1,0c0.1,0,0.1,0,0.2,0c1.2,0,2.4,0.5,3.2,1.4
			l24,24l25.7-27.1c0.2-0.2,0.5-0.4,0.7-0.6c0,0,0.1,0,0.1-0.1c0.2-0.2,0.5-0.3,0.7-0.4c0.1,0,0.1,0,0.2-0.1
			c0.2-0.1,0.4-0.2,0.7-0.2c0.1,0,0.2,0,0.3,0c0.2,0,0.4-0.1,0.6-0.1c0.1,0,0.2,0,0.3,0c0.2,0,0.4,0,0.6,0c0.1,0,0.2,0.1,0.4,0.1
			c0.2,0,0.3,0.1,0.5,0.1c0.1,0,0.3,0.1,0.4,0.2c0.2,0.1,0.3,0.1,0.5,0.2c0.1,0.1,0.2,0.2,0.4,0.3c0.1,0.1,0.2,0.2,0.4,0.2
			c-0.2-1.1-0.5-2.2-0.8-3.3C312.9,278.4,312.8,278.1,312.7,277.8z"/>
		<path class="st4" d="M116.9,68.8c-9.7,17.5-12.4,36.4-7.7,50.5c0.7-1.6,1.5-3.2,2.4-4.8c0.1-0.2,0.2-0.4,0.3-0.6
			c0.8-1.6,1.7-3.1,2.6-4.6c0.1-0.2,0.3-0.5,0.4-0.7c1-1.6,1.9-3.1,3-4.7c0-0.1,0.1-0.1,0.1-0.2c1-1.5,2.1-2.9,3.2-4.4
			c0.1-0.2,0.2-0.3,0.4-0.5c0.1-0.3,0.2-0.7,0.3-1c0.1-0.4,0.2-0.8,0.3-1.2c0.1-0.5,0.3-1,0.5-1.5c0.1-0.4,0.3-0.8,0.4-1.2
			c0.2-0.5,0.3-1,0.5-1.5c0.1-0.4,0.3-0.8,0.4-1.2c0.2-0.5,0.4-1,0.6-1.5c0.2-0.4,0.3-0.8,0.5-1.3c0.2-0.5,0.4-1,0.6-1.5
			c0.2-0.4,0.3-0.8,0.5-1.3c0.2-0.5,0.5-1.1,0.7-1.6c0.2-0.4,0.4-0.8,0.5-1.2c0.3-0.6,0.6-1.2,0.9-1.8c0.2-0.3,0.3-0.7,0.5-1
			c0.5-0.9,1-1.9,1.5-2.8l0.1-0.7c0.1-0.6,0.3-1.1,0.5-1.6c0.2-0.5,0.6-0.9,1-1.3c0.1-0.1,0.1-0.1,0.1-0.2c0.1-0.1,0.1-0.1,0.2-0.1
			c0.2-0.2,0.5-0.4,0.8-0.5c0.7-0.4,1.5-0.5,2.3-0.5c0.4,0,0.8,0.1,1.2,0.2c0.4,0.1,0.8,0.3,1.1,0.5c0.7,0.4,1.4,0.8,2.1,1.1
			c0.2,0.1,0.4,0.2,0.7,0.3c0.6,0.3,1.2,0.6,1.8,0.8c0.2,0.1,0.4,0.2,0.6,0.3c0.8,0.4,1.6,0.7,2.4,1c0.2,0.1,0.4,0.2,0.6,0.2
			c0.7,0.3,1.4,0.5,2.1,0.8c0.1,0.1,0.3,0.1,0.4,0.2c0-0.1,0-0.2,0.1-0.3c0-0.2,0.1-0.4,0.1-0.6c0.1-0.6,0.3-1.1,0.4-1.7
			c0.1-0.2,0.1-0.4,0.2-0.6c0.4-1.5,1-2.9,1.6-4.4c0.1-0.2,0.2-0.4,0.3-0.6c0.2-0.6,0.5-1.1,0.8-1.7c0.1-0.2,0.2-0.4,0.3-0.6
			c0.4-0.7,0.7-1.5,1.1-2.2c0.1-0.1,0.1-0.2,0.2-0.3c0.3-0.6,0.7-1.3,1.1-1.9c0.1-0.2,0.3-0.4,0.4-0.7c0.4-0.6,0.7-1.2,1.1-1.8
			c0.1-0.2,0.2-0.3,0.3-0.5c0.5-0.7,1-1.5,1.5-2.2c0.1-0.2,0.2-0.3,0.4-0.5c0.4-0.6,0.8-1.2,1.3-1.7c0.2-0.2,0.3-0.4,0.5-0.7
			c0.5-0.6,1-1.2,1.5-1.9c0.1-0.1,0.2-0.2,0.3-0.3c0.6-0.7,1.2-1.4,1.8-2.2c0.2-0.2,0.3-0.4,0.5-0.6c0.5-0.5,1-1.1,1.5-1.6
			c0.2-0.2,0.4-0.4,0.6-0.6c0.7-0.7,1.3-1.4,2-2.1c0,0,0,0,0.1-0.1c0.7-0.7,1.4-1.3,2.1-2c0.2-0.2,0.4-0.4,0.6-0.6
			c0.5-0.5,1.1-1,1.7-1.5c0.2-0.2,0.4-0.4,0.6-0.6c0.7-0.7,1.5-1.3,2.3-1.9c0.1-0.1,0.3-0.2,0.4-0.3c0.6-0.5,1.3-1.1,2-1.6
			c0.2-0.2,0.5-0.4,0.7-0.6c0.6-0.5,1.3-1,1.9-1.4c0.2-0.1,0.4-0.3,0.6-0.4c0.8-0.6,1.6-1.2,2.4-1.8c0.2-0.1,0.4-0.3,0.6-0.4
			c0.6-0.4,1.3-0.9,2-1.3c0.3-0.2,0.5-0.3,0.8-0.5c0.7-0.5,1.5-0.9,2.2-1.4c0.1-0.1,0.3-0.2,0.4-0.3c0.9-0.5,1.7-1,2.6-1.5
			c0.2-0.1,0.5-0.3,0.7-0.4c0.7-0.4,1.3-0.7,2-1.1c0.3-0.1,0.5-0.3,0.8-0.4c0.2-0.1,0.3-0.2,0.5-0.2c-1.5-0.1-3-0.1-4.5-0.1
			C160.1,24.7,132.2,41.2,116.9,68.8z"/>
		<path class="st3" d="M252.4,71.9c-21-11.8-44.3-25-43.8-42.1c-0.1,0-0.1,0.1-0.2,0.1c-0.3,0.1-0.5,0.2-0.8,0.3
			c-0.6,0.2-1.1,0.5-1.7,0.7c-0.3,0.1-0.6,0.3-1,0.4c-0.5,0.2-1,0.5-1.6,0.7c-0.3,0.2-0.7,0.3-1,0.5c-0.5,0.3-1,0.5-1.5,0.8
			c-0.3,0.2-0.6,0.3-1,0.5c-0.6,0.3-1.1,0.6-1.7,0.9c-0.3,0.1-0.5,0.3-0.8,0.4c-0.8,0.5-1.6,0.9-2.4,1.4c-0.1,0.1-0.3,0.2-0.4,0.2
			c-0.7,0.4-1.3,0.8-2,1.3c-0.3,0.2-0.6,0.4-0.8,0.5c-0.5,0.3-1,0.7-1.5,1c-0.3,0.2-0.6,0.4-0.9,0.6c-0.5,0.3-0.9,0.7-1.4,1
			c-0.3,0.2-0.6,0.4-0.9,0.7c-0.5,0.3-0.9,0.7-1.4,1c-0.3,0.2-0.6,0.4-0.9,0.7c-0.5,0.4-1,0.8-1.5,1.2c-0.2,0.2-0.5,0.4-0.7,0.5
			c-0.7,0.6-1.4,1.2-2.1,1.8c-0.2,0.1-0.3,0.3-0.5,0.4c-0.5,0.5-1.1,0.9-1.6,1.4c-0.3,0.2-0.5,0.5-0.8,0.7c-0.4,0.4-0.8,0.8-1.2,1.2
			c-0.3,0.3-0.5,0.5-0.8,0.8c-0.4,0.4-0.8,0.8-1.2,1.1c-0.3,0.3-0.5,0.5-0.8,0.8c-0.4,0.4-0.8,0.8-1.1,1.2c-0.2,0.2-0.5,0.5-0.7,0.7
			c-0.4,0.5-0.8,0.9-1.2,1.4c-0.2,0.2-0.3,0.4-0.5,0.6c-0.6,0.6-1.1,1.3-1.6,1.9c-0.1,0.2-0.3,0.4-0.4,0.6c-0.4,0.5-0.8,1-1.1,1.4
			c-0.2,0.3-0.4,0.5-0.6,0.8c-0.3,0.4-0.6,0.8-0.9,1.2c-0.2,0.3-0.4,0.5-0.6,0.8c-0.3,0.4-0.5,0.8-0.8,1.2c-0.2,0.3-0.4,0.5-0.5,0.8
			c-0.3,0.4-0.5,0.8-0.8,1.2c-0.1,0.2-0.3,0.5-0.4,0.7c-0.3,0.5-0.6,1-0.8,1.5c-0.1,0.2-0.2,0.3-0.3,0.5c-0.3,0.6-0.7,1.3-1,1.9
			c-0.1,0.2-0.2,0.4-0.3,0.6c-0.2,0.4-0.4,0.9-0.6,1.3c-0.1,0.3-0.2,0.5-0.3,0.8c-0.1,0.4-0.3,0.8-0.4,1.2c-0.1,0.3-0.2,0.5-0.3,0.8
			c-0.1,0.4-0.2,0.8-0.3,1.1c-0.1,0.3-0.1,0.5-0.2,0.8c-0.1,0.4-0.2,0.8-0.3,1.2c0,0.2-0.1,0.5-0.1,0.7c0,0.1,0,0.1,0,0.2
			c0.2,0.1,0.5,0.1,0.7,0.2c1,0.3,2,0.6,3,0.8c0.5,0.1,1,0.2,1.4,0.4c0.8,0.2,1.6,0.4,2.4,0.6c0.5,0.1,1.1,0.3,1.6,0.4
			c0.8,0.2,1.6,0.4,2.4,0.6c0.6,0.1,1.2,0.3,1.7,0.4c0.8,0.2,1.6,0.4,2.4,0.5c0.6,0.1,1.2,0.2,1.8,0.4c0.8,0.2,1.6,0.3,2.5,0.5
			c0.6,0.1,1.2,0.2,1.8,0.3c0.9,0.2,1.8,0.3,2.7,0.5c0.6,0.1,1.1,0.2,1.7,0.3c1,0.2,1.9,0.3,2.9,0.5c0.5,0.1,1,0.2,1.6,0.3
			c1,0.2,2.1,0.4,3.1,0.5c0.4,0.1,0.9,0.1,1.3,0.2c1.2,0.2,2.4,0.4,3.6,0.6c0.3,0.1,0.7,0.1,1,0.2c1.4,0.2,2.8,0.4,4.2,0.6
			c0.1,0,0.2,0,0.3,0.1c8.1,1.2,16.5,2.4,25.1,3.5c7.4,1,15.1,2.1,22.8,3.2c0.8,0.1,1.6,0.2,2.4,0.4c1.5,0.2,2.9,0.4,4.4,0.7
			c1.4,0.2,2.9,0.4,4.3,0.7c0.8,0.1,1.6,0.2,2.3,0.4c1.9,0.3,3.9,0.6,5.8,0.9c0.1,0,0.3,0.1,0.4,0.1c7.1,1.2,14.2,2.5,21.3,3.9
			C289.2,92.6,270.6,82.1,252.4,71.9z"/>
		<path class="st3" d="M84.6,253.5l21.6-5.8l18.7,35.1l17.2-20.4l0,0l4-4.7l30.5,41.2l19.5-16.8c0,0,0,0,0,0l0.2-0.2
			c-0.3-0.4-0.5-0.8-0.8-1.2c-0.2-0.2-0.3-0.5-0.5-0.7c-0.7-1-1.4-1.9-2.1-2.9c-0.1-0.1-0.2-0.2-0.2-0.3c-0.7-0.9-1.4-1.7-2.1-2.6
			c-0.2-0.3-0.4-0.5-0.7-0.8c-0.7-0.8-1.4-1.6-2.1-2.4c-0.2-0.2-0.3-0.3-0.4-0.5c-0.9-0.9-1.8-1.9-2.7-2.8c-0.2-0.2-0.4-0.4-0.7-0.7
			c-0.7-0.7-1.5-1.5-2.3-2.2c-0.3-0.2-0.5-0.5-0.8-0.7c-1-0.9-2-1.8-3.1-2.7c-0.1-0.1-0.1-0.1-0.2-0.2c-1-0.8-2-1.7-3-2.5
			c-0.3-0.2-0.6-0.5-0.9-0.7c-0.9-0.7-1.8-1.4-2.8-2.1c-0.2-0.2-0.5-0.4-0.7-0.5c-1.2-0.8-2.3-1.7-3.5-2.5c-0.3-0.2-0.6-0.4-0.8-0.6
			c-1-0.7-2-1.3-3-1.9c-0.3-0.2-0.7-0.4-1-0.7c-1.3-0.8-2.5-1.6-3.8-2.4c-0.9-0.5-1.8-1.1-2.7-1.6c-0.3-0.2-0.6-0.4-0.9-0.6
			c-0.6-0.4-1.2-0.8-1.8-1.2c-0.4-0.2-0.7-0.5-1.1-0.7c-0.5-0.4-1.1-0.7-1.6-1.1c-0.4-0.3-0.8-0.6-1.1-0.8c-0.5-0.4-1-0.7-1.5-1.1
			c-0.4-0.3-0.8-0.6-1.2-0.9c-0.5-0.4-1-0.8-1.5-1.2c-0.4-0.3-0.8-0.6-1.2-0.9c-0.5-0.4-1-0.8-1.5-1.2c-0.4-0.3-0.8-0.7-1.1-1
			c-0.5-0.4-1-0.9-1.5-1.3c-0.4-0.3-0.7-0.7-1.1-1c-0.5-0.4-1-0.9-1.5-1.4c-0.4-0.3-0.7-0.7-1.1-1c-0.5-0.5-1-1-1.5-1.5
			c-0.3-0.3-0.7-0.7-1-1c-0.5-0.5-1-1.1-1.5-1.6c-0.3-0.3-0.6-0.6-0.9-1c-0.6-0.6-1.2-1.3-1.7-1.9c-0.2-0.2-0.4-0.5-0.7-0.7
			c-1.6-1.8-3.1-3.7-4.6-5.6c-0.2-0.3-0.4-0.6-0.6-0.8c-0.5-0.7-1-1.4-1.6-2.1c-0.3-0.3-0.5-0.7-0.7-1.1c-0.5-0.6-0.9-1.3-1.4-1.9
			c-0.3-0.4-0.5-0.8-0.8-1.2c-0.4-0.6-0.8-1.3-1.2-1.9c-0.3-0.4-0.5-0.8-0.8-1.3c-0.4-0.6-0.8-1.3-1.2-1.9c-0.3-0.4-0.5-0.9-0.8-1.3
			c-0.4-0.6-0.7-1.3-1.1-1.9c-0.2-0.4-0.5-0.9-0.7-1.3c-0.3-0.6-0.7-1.3-1-2c-0.2-0.4-0.5-0.9-0.7-1.3c-0.3-0.7-0.6-1.3-1-2
			c-0.2-0.4-0.4-0.9-0.6-1.3c-0.3-0.7-0.6-1.4-0.9-2.1c-0.2-0.4-0.4-0.9-0.5-1.3c-0.3-0.8-0.6-1.5-0.9-2.3c-0.2-0.4-0.3-0.8-0.5-1.2
			c-0.3-0.9-0.6-1.8-0.9-2.7c-0.1-0.3-0.2-0.5-0.3-0.8c-0.4-1.2-0.8-2.4-1.1-3.6c0-0.1,0-0.2-0.1-0.3c-0.3-1.1-0.6-2.2-0.9-3.3
			c-0.1-0.4-0.2-0.8-0.3-1.2c-0.2-0.8-0.4-1.7-0.5-2.5c-0.1-0.5-0.2-0.9-0.3-1.4c-0.1-0.8-0.3-1.5-0.4-2.3c-0.1-0.5-0.1-1-0.2-1.5
			c-0.1-0.7-0.2-1.5-0.3-2.2c-0.1-0.5-0.1-1.1-0.2-1.6c-0.1-0.7-0.1-1.4-0.2-2.2c0-0.6-0.1-1.1-0.1-1.7c0-0.4,0-0.7-0.1-1.1
			c-5.2,5.3-11.1,14.4-15.7,26.2C81.1,196.2,72.2,225.7,84.6,253.5z"/>
	</g>
	<path d="M434.7,257.5c-0.6-1.2-1.7-2-3-2.3l-0.9-0.2c3.5-23.6,0.4-46.7-9.4-68.7c-21.3-48-69.6-69.2-121-80.9
		c1.1-17-21.4-29.6-43.1-41.9c-26.8-15.1-43.9-26-37.4-38.5l2.9-5.6l-7.9-1.8l-0.1,0c-7.9-1.7-15.7-2.5-23.3-2.5
		c-35,0-66.1,18.4-83.1,49.1c-13.2,23.9-14.8,50.6-3.9,68c-1.3,4.4-2.2,8.9-2.7,13.4c-9.1,5.1-18.7,18.5-25.3,35.4
		c-4.9,12.7-14.4,44.3-1.4,75.1l-1.8,0.5l65.5,209.3l2.3,0.8c8.7,3.1,18.1,5.9,27.8,8.3l7.9,1.9l0-0.1c9.3,2,18.9,3.7,28.6,5
		c16.2,2.1,32.9,3.2,49.5,3.2s33.3-1.1,49.5-3.2c12.5-1.7,24.8-3.9,36.5-6.8c9.8-2.4,19.1-5.2,27.8-8.3c1.4-0.5,2.5-1.7,3-3.1
		l63.2-202.2C435.5,260.1,435.4,258.7,434.7,257.5z M412.5,190.2c8.8,19.9,11.8,40.8,8.8,62.2l-9.3-2.5l-4.6-1.2
		c-2.2-0.6-4.5,0.4-5.5,2.4l-3.8,7.2c-0.1-0.3-0.1-0.5-0.2-0.8c-0.1-0.5-0.2-1.1-0.3-1.6c-0.2-0.8-0.4-1.6-0.6-2.4
		c-0.1-0.5-0.3-1-0.4-1.6c-0.2-0.8-0.4-1.6-0.7-2.3c-0.1-0.5-0.3-1-0.5-1.5c-0.3-0.8-0.5-1.6-0.8-2.4c-0.2-0.4-0.3-0.9-0.5-1.3
		c-0.3-0.9-0.7-1.7-1-2.6c-0.1-0.3-0.3-0.7-0.4-1c-0.5-1.2-1-2.4-1.5-3.5c0-0.1-0.1-0.2-0.1-0.3c-0.5-1.1-1-2.1-1.5-3.1
		c-0.2-0.4-0.4-0.7-0.6-1c-0.4-0.8-0.8-1.5-1.2-2.3c-0.2-0.4-0.5-0.8-0.7-1.2c-0.4-0.7-0.8-1.4-1.2-2c-0.2-0.4-0.5-0.8-0.8-1.2
		c-0.4-0.6-0.8-1.3-1.2-1.9c-0.3-0.4-0.5-0.8-0.8-1.2c-0.4-0.6-0.9-1.3-1.3-1.9c-0.3-0.4-0.5-0.7-0.8-1.1c-0.5-0.7-1-1.3-1.4-1.9
		c-0.2-0.3-0.5-0.6-0.7-0.9c-0.6-0.8-1.2-1.5-1.8-2.3c-0.1-0.2-0.3-0.3-0.4-0.5c-0.8-0.9-1.5-1.8-2.3-2.7c-0.1-0.1-0.3-0.3-0.4-0.4
		c-0.6-0.7-1.3-1.4-1.9-2.1c-0.2-0.3-0.5-0.5-0.8-0.8c-0.5-0.6-1.1-1.1-1.6-1.7c-0.3-0.3-0.6-0.6-0.9-0.9c-0.5-0.5-1-1-1.5-1.5
		c-0.3-0.3-0.6-0.6-0.9-0.9c-0.5-0.5-1-0.9-1.5-1.4c-0.3-0.3-0.6-0.5-0.9-0.8c-0.5-0.5-1-0.9-1.6-1.4c-0.3-0.2-0.6-0.5-0.9-0.7
		c-0.6-0.5-1.1-0.9-1.7-1.4c-0.2-0.2-0.5-0.4-0.7-0.6c-0.7-0.6-1.5-1.2-2.2-1.7c-0.1-0.1-0.1-0.1-0.2-0.2c-0.8-0.6-1.6-1.2-2.5-1.8
		c-0.2-0.1-0.4-0.3-0.6-0.4c-0.6-0.4-1.2-0.9-1.8-1.3c-0.3-0.2-0.6-0.4-0.8-0.6c-0.5-0.3-1-0.7-1.5-1c-0.3-0.2-0.6-0.4-0.9-0.6
		c-0.5-0.3-1-0.6-1.4-0.9c-0.3-0.2-0.6-0.4-0.9-0.6c-0.5-0.3-0.9-0.6-1.4-0.8c-0.3-0.2-0.6-0.3-0.9-0.5c-0.5-0.3-0.9-0.5-1.4-0.8
		c-0.3-0.1-0.5-0.3-0.8-0.4c-0.5-0.3-1-0.5-1.5-0.8c-0.2-0.1-0.5-0.2-0.7-0.3c-0.7-0.4-1.4-0.7-2.1-1c-12.2-5.7-31.1-12.2-53-19.6
		c-0.9-0.3-1.8-0.6-2.7-0.9c-0.1,0-0.3-0.1-0.4-0.1c-1.7-0.6-3.5-1.2-5.3-1.8c-0.2-0.1-0.3-0.1-0.5-0.2c-0.8-0.3-1.6-0.5-2.4-0.8
		c-0.2-0.1-0.3-0.1-0.5-0.2c-0.8-0.3-1.5-0.5-2.3-0.8c-0.3-0.1-0.5-0.2-0.8-0.3c-0.7-0.2-1.4-0.5-2-0.7c-0.3-0.1-0.6-0.2-0.9-0.3
		c-0.7-0.2-1.4-0.5-2.1-0.7c-0.3-0.1-0.5-0.2-0.8-0.3c-0.7-0.3-1.5-0.5-2.3-0.8c-0.2-0.1-0.5-0.2-0.7-0.2c-0.8-0.3-1.6-0.6-2.4-0.8
		c-0.2-0.1-0.4-0.1-0.6-0.2c-0.8-0.3-1.6-0.6-2.4-0.9c-0.2-0.1-0.4-0.1-0.6-0.2c-0.9-0.3-1.8-0.6-2.6-0.9c-0.1,0-0.2-0.1-0.4-0.1
		c-5.1-1.8-10.2-3.7-15.4-5.6c-0.2-0.1-0.3-0.1-0.5-0.2c-0.8-0.3-1.7-0.6-2.5-1c-0.2-0.1-0.5-0.2-0.7-0.3c-0.8-0.3-1.6-0.6-2.3-0.9
		c-0.3-0.1-0.5-0.2-0.8-0.3c-0.8-0.3-1.5-0.6-2.3-0.9c-0.3-0.1-0.6-0.2-0.8-0.3c-0.7-0.3-1.5-0.6-2.2-0.9c-0.3-0.1-0.5-0.2-0.8-0.3
		c-0.7-0.3-1.5-0.6-2.2-0.9c-0.3-0.1-0.5-0.2-0.8-0.3c-0.7-0.3-1.5-0.6-2.2-0.9c-0.3-0.1-0.5-0.2-0.8-0.3c-0.8-0.3-1.5-0.6-2.3-0.9
		c-0.2-0.1-0.5-0.2-0.7-0.3c-0.8-0.3-1.6-0.7-2.3-1c-0.2-0.1-0.4-0.2-0.6-0.3c-0.8-0.4-1.7-0.7-2.5-1.1c-0.1-0.1-0.3-0.1-0.4-0.2
		c-3-1.3-5.9-2.6-8.8-3.9c0,0,0,0,0,0c-0.9-0.4-1.9-0.8-2.8-1.3c-0.2-0.1-0.4-0.2-0.5-0.3c-0.7-0.3-1.5-0.7-2.2-1
		c-0.2-0.1-0.5-0.2-0.7-0.3c-0.7-0.3-1.3-0.6-2-1c-0.3-0.1-0.5-0.3-0.8-0.4c-0.6-0.3-1.3-0.6-1.9-0.9c-0.3-0.1-0.6-0.3-0.9-0.4
		c-0.6-0.3-1.2-0.6-1.8-0.9c-0.3-0.2-0.6-0.3-0.9-0.5c-0.6-0.3-1.2-0.6-1.7-0.9c-0.3-0.2-0.6-0.3-0.9-0.5c-0.6-0.3-1.1-0.6-1.7-0.9
		c-0.3-0.2-0.6-0.3-0.9-0.5c-0.6-0.3-1.1-0.6-1.7-0.9c-0.3-0.2-0.6-0.3-0.8-0.5c-0.6-0.3-1.1-0.6-1.7-1c-0.3-0.1-0.5-0.3-0.8-0.4
		c-0.6-0.3-1.2-0.7-1.7-1c-0.2-0.1-0.4-0.2-0.6-0.4c-0.7-0.4-1.3-0.8-1.9-1.2c-0.1-0.1-0.2-0.2-0.4-0.2c-1.5-1-3-1.9-4.5-2.9
		c0,0-0.1-0.1-0.1-0.1c-0.7-0.4-1.3-0.9-2-1.3c-0.2-0.1-0.3-0.2-0.5-0.3c-0.5-0.4-1-0.7-1.5-1.1c-0.2-0.2-0.4-0.3-0.6-0.5
		c-0.4-0.3-0.9-0.7-1.3-1c-0.2-0.2-0.5-0.3-0.7-0.5c-0.4-0.3-0.8-0.6-1.2-0.9c-0.2-0.2-0.5-0.4-0.7-0.6c-0.4-0.3-0.8-0.6-1.1-0.9
		c-0.2-0.2-0.5-0.4-0.7-0.6c-0.4-0.3-0.7-0.6-1-0.9c-0.2-0.2-0.4-0.4-0.7-0.6c-0.3-0.3-0.7-0.6-1-0.9c-0.2-0.2-0.4-0.4-0.6-0.6
		c-0.3-0.3-0.6-0.6-0.9-0.9c-0.2-0.2-0.4-0.4-0.6-0.6c-0.3-0.3-0.6-0.6-0.9-0.9c-0.2-0.2-0.4-0.4-0.6-0.6c-0.3-0.3-0.6-0.6-0.9-1
		c-0.2-0.2-0.3-0.4-0.5-0.6c-0.3-0.3-0.6-0.7-0.8-1c-0.1-0.2-0.3-0.3-0.4-0.5c-0.3-0.4-0.6-0.8-0.9-1.2c-0.1-0.1-0.2-0.2-0.2-0.3
		c-0.4-0.5-0.7-1-1.1-1.6c0,0,0-0.1-0.1-0.1c-0.3-0.5-0.6-1-0.9-1.4c-0.1-0.2-0.2-0.3-0.3-0.5c-0.2-0.4-0.4-0.7-0.6-1.1
		c-0.1-0.2-0.2-0.4-0.3-0.6c-0.2-0.3-0.3-0.6-0.4-1c-0.1-0.2-0.2-0.4-0.3-0.6c-0.1-0.3-0.2-0.6-0.4-0.9c-0.1-0.2-0.2-0.5-0.2-0.7
		c-0.1-0.3-0.2-0.6-0.3-0.9c-0.1-0.2-0.1-0.5-0.2-0.7c0-0.2-0.1-0.3-0.1-0.5c0.1,0,0.1,0,0.2,0.1c0.2,0.1,0.5,0.2,0.7,0.3
		c0.7,0.3,1.4,0.6,2.2,0.9c0.3,0.1,0.7,0.3,1,0.4c0.7,0.3,1.4,0.5,2.2,0.8c0.3,0.1,0.5,0.2,0.8,0.3v0l3.4,1.1
		c20.1,6.5,46.5,10.1,74.5,13.9c22,3,44.8,6.1,67.1,10.9l1,0.2l0.1,0C345.2,124.7,392.1,144.2,412.5,190.2z M335.9,466.2
		c-8.4,2-17.1,3.7-26.1,5L338.7,308l25.6-34.6l16.3,19.3L335.9,466.2z M254.1,284.2c-0.1,0-0.1,0-0.2,0c0,0-0.1,0-0.1,0
		c-1.3,0-2.6,0.6-3.5,1.6l-21.9,23.7l-16-16.9c-0.1-0.4-0.3-0.9-0.5-1.3c-0.2-0.6-0.4-1.1-0.6-1.7c-0.2-0.6-0.5-1.3-0.8-1.9
		c-0.2-0.6-0.5-1.1-0.7-1.7c-0.3-0.6-0.6-1.3-0.9-1.9c-0.3-0.6-0.6-1.1-0.9-1.7c-0.3-0.6-0.7-1.3-1.1-1.9c-0.3-0.6-0.6-1.1-1-1.7
		c-0.4-0.6-0.8-1.3-1.2-1.9c-0.4-0.6-0.7-1.1-1.1-1.7c-0.4-0.6-0.9-1.3-1.4-1.9c-0.4-0.6-0.8-1.1-1.2-1.7c-0.5-0.6-1-1.3-1.5-1.9
		c-0.4-0.5-0.9-1.1-1.3-1.6c-0.5-0.6-1.1-1.2-1.6-1.9c-0.5-0.5-0.9-1.1-1.4-1.6c-0.6-0.6-1.2-1.2-1.7-1.8c-0.5-0.5-1-1.1-1.5-1.6
		c-0.6-0.6-1.2-1.2-1.9-1.8c-0.5-0.5-1.1-1-1.6-1.6c-0.6-0.6-1.3-1.2-2-1.8c-0.6-0.5-1.1-1-1.7-1.5c-0.7-0.6-1.4-1.2-2.1-1.8
		c-0.6-0.5-1.2-1-1.8-1.5c-0.7-0.6-1.5-1.2-2.3-1.8c-0.6-0.5-1.2-0.9-1.8-1.4c-0.8-0.6-1.7-1.2-2.5-1.8c-0.6-0.4-1.2-0.9-1.8-1.3
		c-0.9-0.6-1.9-1.3-2.9-1.9c-0.5-0.4-1.1-0.7-1.6-1.1c-1.5-1-3.1-1.9-4.7-2.9c-0.7-0.4-1.4-0.9-2.2-1.3
		c-21.1-13.4-49.1-44.1-49.9-80.9c-0.1-2.5,0-5.1,0.2-7.7c0.5-5.8,1.7-11.6,3.6-17.3c0.2-0.5,0.3-1,0.5-1.4c0.2-0.7,0.5-1.4,0.8-2.1
		c0.2-0.5,0.4-1,0.6-1.5c0.3-0.7,0.5-1.3,0.8-2c0.2-0.6,0.5-1.1,0.8-1.7c0.3-0.6,0.6-1.2,0.9-1.8c0.1-0.1,0.1-0.2,0.2-0.3
		c0,0.1,0,0.2,0,0.3c0.1,1.3,0.2,2.7,0.4,4c0,0.2,0.1,0.4,0.1,0.6c0.2,1.4,0.4,2.7,0.7,4c0,0,0,0.1,0,0.1c0.3,1.3,0.6,2.6,1,3.9
		c0,0.1,0.1,0.3,0.1,0.4c0.4,1.3,0.8,2.5,1.3,3.7c0.1,0.2,0.2,0.4,0.2,0.6c0.5,1.2,1,2.4,1.5,3.5c0.1,0.2,0.2,0.3,0.3,0.5
		c0.6,1.2,1.2,2.4,1.8,3.5c0,0.1,0.1,0.1,0.1,0.2c0.7,1.2,1.4,2.3,2.1,3.5c0,0.1,0.1,0.2,0.1,0.2c0.7,1.1,1.5,2.2,2.3,3.3
		c0.1,0.2,0.2,0.3,0.3,0.5c0.8,1.1,1.6,2.1,2.5,3.1c0.1,0.2,0.3,0.3,0.4,0.5c0.9,1,1.8,2.1,2.7,3.1c0.1,0.1,0.2,0.2,0.2,0.3
		c1,1.1,2,2.1,3,3.1c0,0,0,0,0,0c1,1,2.1,2,3.2,3c0.1,0.1,0.3,0.2,0.4,0.4c1.1,0.9,2.1,1.9,3.2,2.8c0.2,0.1,0.3,0.3,0.5,0.4
		c1.1,0.9,2.3,1.8,3.4,2.7c0.1,0.1,0.2,0.2,0.4,0.3c2.4,1.9,5,3.7,7.6,5.4c0.1,0.1,0.3,0.2,0.4,0.3c1.3,0.8,2.5,1.7,3.8,2.5
		c0.2,0.1,0.4,0.2,0.6,0.3c1.3,0.8,2.6,1.6,3.9,2.4c0.2,0.1,0.3,0.2,0.5,0.3c1.4,0.8,2.7,1.6,4.1,2.4c0,0,0,0,0,0
		c1.4,0.8,2.8,1.6,4.3,2.3c0.1,0.1,0.2,0.1,0.4,0.2c1.4,0.7,2.8,1.5,4.2,2.2c0.2,0.1,0.4,0.2,0.6,0.3c1.4,0.7,2.7,1.4,4.1,2.1
		c0.2,0.1,0.4,0.2,0.6,0.3c1.4,0.7,2.8,1.4,4.3,2c0.1,0,0.2,0.1,0.3,0.1c1.4,0.7,2.9,1.3,4.3,2c0.1,0.1,0.2,0.1,0.3,0.2
		c1.4,0.6,2.9,1.3,4.3,1.9c0.2,0.1,0.5,0.2,0.7,0.3c1.4,0.6,2.8,1.2,4.2,1.8c0.2,0.1,0.5,0.2,0.7,0.3c1.4,0.6,2.8,1.2,4.2,1.8
		c0.2,0.1,0.3,0.1,0.5,0.2c1.4,0.6,2.8,1.2,4.2,1.8c0.1,0,0.2,0.1,0.2,0.1c1.4,0.6,2.9,1.2,4.3,1.7c0.2,0.1,0.4,0.2,0.7,0.3
		c1.4,0.5,2.7,1.1,4.1,1.6c0.3,0.1,0.5,0.2,0.8,0.3c1.3,0.5,2.7,1.1,4,1.6c0.2,0.1,0.5,0.2,0.7,0.3c1.3,0.5,2.7,1.1,4,1.6
		c19.9,7.9,37.1,14.7,46,21.6c1.4,1.1,2.7,2.1,4,3.2c0.4,0.3,0.8,0.7,1.2,1c0.9,0.7,1.8,1.5,2.6,2.2c0.4,0.4,0.9,0.8,1.3,1.2
		c0.8,0.7,1.6,1.4,2.3,2.2c0.4,0.4,0.8,0.7,1.2,1.1c0.9,0.9,1.7,1.7,2.6,2.6c0.2,0.2,0.4,0.4,0.6,0.7c1,1.1,2,2.1,2.9,3.2
		c0.3,0.3,0.5,0.6,0.8,1c0.6,0.8,1.3,1.5,1.9,2.3c0.3,0.4,0.6,0.8,0.9,1.2c0.5,0.7,1.1,1.4,1.6,2.1c0.3,0.4,0.6,0.8,0.8,1.2
		c0.5,0.8,1,1.6,1.5,2.4c0.2,0.3,0.4,0.6,0.6,0.9c0.7,1.1,1.3,2.2,1.8,3.2c0.1,0.3,0.2,0.5,0.4,0.8c0.4,0.8,0.8,1.7,1.2,2.5
		c0.2,0.4,0.3,0.8,0.5,1.2c0.3,0.7,0.6,1.5,0.9,2.2c0.1,0.4,0.3,0.8,0.4,1.2c0.3,0.8,0.5,1.5,0.7,2.3c0.1,0.3,0.2,0.7,0.3,1
		c0.3,1.1,0.6,2.2,0.8,3.3c-0.1-0.1-0.2-0.2-0.4-0.2c-0.1-0.1-0.2-0.2-0.4-0.3c-0.1-0.1-0.3-0.1-0.5-0.2c-0.1-0.1-0.2-0.1-0.4-0.2
		c-0.2-0.1-0.3-0.1-0.5-0.1c-0.1,0-0.2-0.1-0.4-0.1c-0.2,0-0.4,0-0.6,0c-0.1,0-0.2,0-0.3,0c-0.2,0-0.4,0.1-0.6,0.1
		c-0.1,0-0.2,0-0.3,0c-0.2,0.1-0.4,0.1-0.7,0.2c-0.1,0-0.1,0-0.2,0.1c-0.2,0.1-0.5,0.2-0.7,0.4c0,0-0.1,0-0.1,0.1
		c-0.3,0.2-0.5,0.4-0.7,0.6l-25.7,27.1l-24-24C256.5,284.7,255.4,284.2,254.1,284.2z M210.2,472.6l-29.1-164.7l17.9-15.4l5.6,5.9
		l0,0l0.2,0.2l13.8,14.6l0,0l5.2,5.4l9.6,156C225.6,474.2,217.8,473.5,210.2,472.6z M141.6,106.1c0.1,0.1,0.2,0.2,0.3,0.4
		c0.8,0.9,1.6,1.7,2.5,2.6c0.2,0.2,0.4,0.4,0.6,0.6c0.8,0.8,1.7,1.6,2.6,2.5c0.2,0.2,0.4,0.4,0.6,0.5c0.9,0.8,1.9,1.7,2.9,2.5
		c0.1,0.1,0.2,0.1,0.3,0.2c1,0.8,2,1.6,3,2.3c0.2,0.2,0.4,0.3,0.7,0.5c1,0.8,2.1,1.5,3.2,2.3c0.3,0.2,0.6,0.4,0.8,0.6
		c1.1,0.8,2.2,1.5,3.4,2.3c0.2,0.2,0.5,0.3,0.7,0.5c1.1,0.7,2.2,1.4,3.3,2.1c0.2,0.1,0.4,0.2,0.6,0.4c1.2,0.7,2.5,1.5,3.8,2.2
		c0.3,0.2,0.6,0.4,1,0.6c1.2,0.7,2.5,1.4,3.8,2.1c0.3,0.2,0.7,0.4,1,0.5c1.3,0.7,2.7,1.4,4,2.1c0.2,0.1,0.4,0.2,0.6,0.3
		c1.3,0.6,2.5,1.3,3.8,1.9c0.3,0.2,0.7,0.3,1,0.5c1.4,0.7,2.8,1.3,4.2,2c0.4,0.2,0.8,0.4,1.2,0.6c1.4,0.7,2.8,1.3,4.3,2
		c0.4,0.2,0.7,0.3,1.1,0.5c1.3,0.6,2.7,1.2,4.1,1.8c0.3,0.1,0.5,0.2,0.8,0.3c1.5,0.7,3,1.3,4.5,1.9c0.4,0.2,0.8,0.4,1.2,0.5
		c1.5,0.6,3,1.2,4.5,1.9c0.4,0.2,0.9,0.4,1.3,0.5c1.5,0.6,3.1,1.2,4.6,1.9c0.3,0.1,0.6,0.2,1,0.4c1.4,0.6,2.8,1.1,4.2,1.6
		c0.4,0.2,0.8,0.3,1.2,0.5c1.5,0.6,3.1,1.2,4.7,1.8c0.5,0.2,0.9,0.3,1.4,0.5c1.6,0.6,3.1,1.2,4.7,1.7c0.4,0.2,0.8,0.3,1.2,0.5
		c1.5,0.5,3,1.1,4.5,1.6c0.3,0.1,0.6,0.2,0.9,0.3c1.6,0.6,3.1,1.1,4.7,1.7c0.4,0.2,0.8,0.3,1.3,0.4c1.6,0.6,3.2,1.1,4.7,1.7
		c0.5,0.2,0.9,0.3,1.4,0.5c1.6,0.6,3.2,1.1,4.7,1.7c0.4,0.1,0.7,0.3,1.1,0.4c1.4,0.5,2.9,1,4.3,1.5c0.3,0.1,0.7,0.2,1,0.4
		c1.6,0.5,3.1,1.1,4.7,1.6c0.5,0.2,1,0.3,1.5,0.5c1.5,0.5,3,1,4.6,1.6c0.5,0.2,1.1,0.4,1.6,0.5c1.5,0.5,2.9,1,4.4,1.5
		c21.6,7.4,40.3,13.7,52,19.2c0.6,0.3,1.3,0.6,2,1c0.2,0.1,0.4,0.2,0.5,0.3c0.5,0.3,1,0.5,1.5,0.8c0.3,0.1,0.5,0.3,0.8,0.5
		c0.4,0.2,0.9,0.5,1.3,0.7c0.3,0.2,0.6,0.3,0.9,0.5c0.4,0.3,0.9,0.5,1.3,0.8c0.3,0.2,0.6,0.4,0.9,0.6c0.4,0.3,0.9,0.5,1.3,0.8
		c0.3,0.2,0.6,0.4,1,0.6c0.4,0.3,0.9,0.6,1.3,0.9c0.3,0.2,0.7,0.5,1,0.7c0.4,0.3,0.9,0.6,1.3,0.9c0.3,0.2,0.7,0.5,1,0.7
		c0.4,0.3,0.9,0.6,1.3,1c0.3,0.3,0.7,0.5,1,0.8c0.4,0.3,0.9,0.7,1.3,1c0.3,0.3,0.7,0.6,1,0.8c0.4,0.4,0.9,0.7,1.3,1.1
		c0.3,0.3,0.7,0.6,1,0.9c0.4,0.4,0.9,0.7,1.3,1.1c0.3,0.3,0.7,0.6,1,0.9c0.4,0.4,0.9,0.8,1.3,1.2c0.3,0.3,0.7,0.7,1,1
		c0.4,0.4,0.8,0.8,1.3,1.2c0.3,0.3,0.7,0.7,1,1c0.4,0.4,0.8,0.8,1.2,1.3c0.3,0.4,0.7,0.7,1,1.1c0.4,0.4,0.8,0.9,1.2,1.3
		c0.3,0.4,0.7,0.8,1,1.1c0.4,0.5,0.8,0.9,1.2,1.4c0.3,0.4,0.6,0.8,1,1.2c0.4,0.5,0.8,0.9,1.1,1.4c0.3,0.4,0.6,0.8,1,1.3
		c0.4,0.5,0.7,1,1.1,1.5c0.3,0.4,0.6,0.9,0.9,1.3c0.4,0.5,0.7,1,1.1,1.5c0.3,0.4,0.6,0.9,0.9,1.4c0.3,0.5,0.7,1,1,1.6
		c0.3,0.5,0.6,0.9,0.9,1.4c0.3,0.5,0.6,1.1,0.9,1.6c0.3,0.5,0.5,1,0.8,1.5c0.3,0.5,0.6,1.1,0.9,1.6c0.3,0.5,0.5,1,0.8,1.5
		c0.3,0.6,0.6,1.1,0.8,1.7c0.2,0.5,0.5,1.1,0.7,1.6c0.3,0.6,0.5,1.1,0.8,1.7c0.2,0.5,0.4,1.1,0.7,1.6c0.2,0.6,0.5,1.2,0.7,1.8
		c0.2,0.6,0.4,1.1,0.6,1.7c0.2,0.6,0.4,1.2,0.6,1.8c0.2,0.6,0.4,1.2,0.5,1.8c0.2,0.6,0.4,1.2,0.5,1.8c0.2,0.6,0.3,1.2,0.5,1.8
		c0.2,0.6,0.3,1.2,0.4,1.9c0.1,0.6,0.3,1.3,0.4,1.9c0.1,0.6,0.3,1.3,0.4,1.9c0.1,0.6,0.2,1.3,0.3,1.9c0.1,0.6,0.2,1.3,0.3,1.9
		c0.1,0.7,0.1,1.3,0.2,2c0.1,0.7,0.1,1.3,0.2,2c0.1,0.7,0.1,1.4,0.1,2.1c0,0.5,0,1,0.1,1.4l-5,9.4l-17.2-20.4l0,0l-4-4.7l-30.5,41.2
		l-9-7.8c0-0.3,0-0.6,0-1c0-0.7,0-1.4-0.1-2c0-0.7-0.1-1.5-0.1-2.2c-0.1-0.7-0.1-1.3-0.2-2c-0.1-0.7-0.2-1.5-0.3-2.2
		c-0.1-0.7-0.2-1.3-0.4-2c-0.1-0.7-0.3-1.4-0.5-2.2c-0.2-0.7-0.3-1.3-0.5-2c-0.2-0.7-0.4-1.4-0.6-2.2c-0.2-0.6-0.4-1.3-0.6-1.9
		c-0.3-0.7-0.5-1.4-0.8-2.1c-0.3-0.6-0.5-1.3-0.8-1.9c-0.3-0.7-0.6-1.4-1-2.1c-0.3-0.6-0.6-1.3-0.9-1.9c-0.4-0.7-0.8-1.4-1.2-2.1
		c-0.4-0.6-0.7-1.3-1.1-1.9c-0.4-0.7-0.9-1.4-1.3-2.1c-0.4-0.6-0.8-1.2-1.2-1.9c-0.5-0.7-1-1.4-1.5-2.1c-0.4-0.6-0.9-1.2-1.4-1.8
		c-0.6-0.7-1.1-1.4-1.7-2.1c-0.5-0.6-1-1.2-1.5-1.8c-0.6-0.7-1.3-1.4-1.9-2.2c-0.5-0.6-1-1.2-1.6-1.8c-0.7-0.7-1.4-1.5-2.2-2.2
		c-0.6-0.6-1.1-1.1-1.7-1.7c-0.8-0.8-1.6-1.5-2.5-2.3c-0.6-0.5-1.1-1.1-1.7-1.6c-1-0.9-2-1.7-3-2.6c-0.5-0.4-1-0.9-1.5-1.3
		c-1.6-1.3-3.2-2.6-4.8-3.8c-10-7.7-27.8-14.7-48.4-22.9c-10.1-4-20.6-8.1-30.9-12.6c-1.7-0.7-3.4-1.5-5.2-2.3
		c-4.3-1.9-8.5-3.9-12.7-6c-2.5-1.2-5-2.5-7.4-3.8c-3.2-1.7-6.4-3.5-9.4-5.3c-29-17.5-49.1-40.2-40.8-73.2c0.4-1.4,0.8-2.8,1.2-4.3
		c0.1-0.5,0.3-0.9,0.5-1.4c0.3-0.8,0.6-1.7,0.9-2.5c0.4,1,0.9,1.9,1.5,2.8c0.1,0.2,0.2,0.3,0.3,0.5c0.5,0.9,1.1,1.8,1.7,2.7
		c0.1,0.2,0.3,0.4,0.4,0.6c0.6,0.9,1.3,1.8,2,2.7c0.1,0.1,0.2,0.2,0.3,0.4C140.1,104.4,140.9,105.2,141.6,106.1z M286.2,318.6
		l24.8-26.1l17.9,15.4l-29.1,164.7c-7.6,0.9-15.3,1.6-23.1,2.1L286.2,318.6z M252.4,71.9c18.1,10.2,36.8,20.7,38.1,31.3
		c-7.1-1.4-14.2-2.7-21.3-3.9c-0.1,0-0.3-0.1-0.4-0.1c-1.9-0.3-3.9-0.6-5.8-0.9c-0.8-0.1-1.6-0.2-2.3-0.4c-1.4-0.2-2.9-0.4-4.3-0.7
		c-1.5-0.2-2.9-0.4-4.4-0.7c-0.8-0.1-1.6-0.2-2.4-0.4c-7.7-1.1-15.3-2.2-22.8-3.2c-8.6-1.2-17-2.3-25.1-3.5c-0.1,0-0.2,0-0.3-0.1
		c-1.4-0.2-2.8-0.4-4.2-0.6c-0.3-0.1-0.7-0.1-1-0.2c-1.2-0.2-2.4-0.4-3.6-0.6c-0.4-0.1-0.9-0.1-1.3-0.2c-1.1-0.2-2.1-0.3-3.1-0.5
		c-0.5-0.1-1-0.2-1.6-0.3c-1-0.2-1.9-0.3-2.9-0.5c-0.6-0.1-1.1-0.2-1.7-0.3c-0.9-0.2-1.8-0.3-2.7-0.5c-0.6-0.1-1.2-0.2-1.8-0.3
		c-0.8-0.2-1.7-0.3-2.5-0.5c-0.6-0.1-1.2-0.2-1.8-0.4c-0.8-0.2-1.6-0.3-2.4-0.5c-0.6-0.1-1.2-0.3-1.7-0.4c-0.8-0.2-1.6-0.4-2.4-0.6
		c-0.5-0.1-1.1-0.3-1.6-0.4c-0.8-0.2-1.6-0.4-2.4-0.6c-0.5-0.1-1-0.2-1.4-0.4c-1-0.3-2-0.6-3-0.8c-0.2-0.1-0.5-0.1-0.7-0.2
		c0-0.1,0-0.1,0-0.2c0-0.2,0.1-0.5,0.1-0.7c0.1-0.4,0.2-0.8,0.3-1.2c0.1-0.3,0.1-0.5,0.2-0.8c0.1-0.4,0.2-0.8,0.3-1.1
		c0.1-0.3,0.2-0.5,0.3-0.8c0.1-0.4,0.3-0.8,0.4-1.2c0.1-0.3,0.2-0.5,0.3-0.8c0.2-0.4,0.4-0.9,0.6-1.3c0.1-0.2,0.2-0.4,0.3-0.6
		c0.3-0.6,0.6-1.3,1-1.9c0.1-0.2,0.2-0.3,0.3-0.5c0.3-0.5,0.5-1,0.8-1.5c0.1-0.2,0.3-0.5,0.4-0.7c0.2-0.4,0.5-0.8,0.8-1.2
		c0.2-0.3,0.3-0.5,0.5-0.8c0.3-0.4,0.5-0.8,0.8-1.2c0.2-0.3,0.4-0.5,0.6-0.8c0.3-0.4,0.6-0.8,0.9-1.2c0.2-0.3,0.4-0.5,0.6-0.8
		c0.4-0.5,0.7-1,1.1-1.4c0.1-0.2,0.3-0.4,0.4-0.6c0.5-0.7,1.1-1.3,1.6-1.9c0.2-0.2,0.3-0.4,0.5-0.6c0.4-0.5,0.8-0.9,1.2-1.4
		c0.2-0.2,0.5-0.5,0.7-0.7c0.4-0.4,0.8-0.8,1.1-1.2c0.3-0.3,0.5-0.5,0.8-0.8c0.4-0.4,0.8-0.8,1.2-1.1c0.3-0.3,0.5-0.5,0.8-0.8
		c0.4-0.4,0.8-0.8,1.2-1.2c0.3-0.2,0.5-0.5,0.8-0.7c0.5-0.5,1-0.9,1.6-1.4c0.2-0.1,0.3-0.3,0.5-0.4c0.7-0.6,1.4-1.2,2.1-1.8
		c0.2-0.2,0.5-0.4,0.7-0.5c0.5-0.4,1-0.8,1.5-1.2c0.3-0.2,0.6-0.4,0.9-0.7c0.5-0.3,0.9-0.7,1.4-1c0.3-0.2,0.6-0.4,0.9-0.7
		c0.5-0.3,0.9-0.7,1.4-1c0.3-0.2,0.6-0.4,0.9-0.6c0.5-0.3,1-0.7,1.5-1c0.3-0.2,0.6-0.4,0.8-0.5c0.7-0.4,1.3-0.8,2-1.3
		c0.1-0.1,0.3-0.2,0.4-0.2c0.8-0.5,1.6-0.9,2.4-1.4c0.3-0.1,0.5-0.3,0.8-0.4c0.6-0.3,1.1-0.6,1.7-0.9c0.3-0.2,0.6-0.3,1-0.5
		c0.5-0.3,1-0.5,1.5-0.8c0.3-0.2,0.7-0.3,1-0.5c0.5-0.2,1-0.5,1.6-0.7c0.3-0.1,0.6-0.3,1-0.4c0.6-0.2,1.1-0.5,1.7-0.7
		c0.3-0.1,0.5-0.2,0.8-0.3c0.1,0,0.1-0.1,0.2-0.1C208.1,46.9,231.5,60,252.4,71.9z M116.9,68.8c15.3-27.6,43.2-44.1,74.6-44.1
		c1.5,0,3,0,4.5,0.1c-0.2,0.1-0.3,0.2-0.5,0.2c-0.3,0.1-0.5,0.3-0.8,0.4c-0.7,0.4-1.4,0.7-2,1.1c-0.2,0.1-0.5,0.3-0.7,0.4
		c-0.9,0.5-1.7,1-2.6,1.5c-0.1,0.1-0.3,0.2-0.4,0.3c-0.7,0.5-1.5,0.9-2.2,1.4c-0.3,0.2-0.5,0.3-0.8,0.5c-0.7,0.4-1.3,0.9-2,1.3
		c-0.2,0.1-0.4,0.3-0.6,0.4c-0.8,0.6-1.6,1.2-2.4,1.8c-0.2,0.1-0.4,0.3-0.6,0.4c-0.6,0.5-1.3,1-1.9,1.4c-0.2,0.2-0.5,0.4-0.7,0.6
		c-0.7,0.5-1.3,1.1-2,1.6c-0.1,0.1-0.3,0.2-0.4,0.3c-0.8,0.6-1.5,1.3-2.3,1.9c-0.2,0.2-0.4,0.4-0.6,0.6c-0.6,0.5-1.1,1-1.7,1.5
		c-0.2,0.2-0.4,0.4-0.6,0.6c-0.7,0.7-1.4,1.3-2.1,2c0,0,0,0-0.1,0.1c-0.7,0.7-1.4,1.4-2,2.1c-0.2,0.2-0.4,0.4-0.6,0.6
		c-0.5,0.5-1,1.1-1.5,1.6c-0.2,0.2-0.3,0.4-0.5,0.6c-0.6,0.7-1.2,1.4-1.8,2.2c-0.1,0.1-0.2,0.2-0.3,0.3c-0.5,0.6-1,1.2-1.5,1.9
		c-0.2,0.2-0.3,0.4-0.5,0.7c-0.4,0.6-0.9,1.2-1.3,1.7c-0.1,0.2-0.2,0.3-0.4,0.5c-0.5,0.7-1,1.5-1.5,2.2c-0.1,0.2-0.2,0.3-0.3,0.5
		c-0.4,0.6-0.7,1.2-1.1,1.8c-0.1,0.2-0.3,0.4-0.4,0.7c-0.4,0.6-0.7,1.3-1.1,1.9c-0.1,0.1-0.1,0.2-0.2,0.3c-0.4,0.7-0.8,1.5-1.1,2.2
		c-0.1,0.2-0.2,0.4-0.3,0.6c-0.3,0.6-0.5,1.1-0.8,1.7c-0.1,0.2-0.2,0.4-0.3,0.6c-0.6,1.5-1.2,3-1.6,4.4c-0.1,0.2-0.1,0.4-0.2,0.6
		c-0.2,0.6-0.3,1.1-0.4,1.7c0,0.2-0.1,0.4-0.1,0.6c0,0.1,0,0.2-0.1,0.3c-0.1-0.1-0.3-0.1-0.4-0.2c-0.7-0.3-1.4-0.5-2.1-0.8
		c-0.2-0.1-0.4-0.2-0.6-0.2c-0.8-0.3-1.6-0.7-2.4-1c-0.2-0.1-0.4-0.2-0.6-0.3c-0.6-0.3-1.2-0.6-1.8-0.8c-0.2-0.1-0.4-0.2-0.7-0.3
		c-0.7-0.4-1.4-0.7-2.1-1.1c-0.4-0.2-0.7-0.3-1.1-0.5c-0.4-0.1-0.8-0.2-1.2-0.2c-0.8,0-1.6,0.2-2.3,0.5c-0.3,0.1-0.5,0.3-0.8,0.5
		c-0.1,0-0.1,0.1-0.2,0.1c-0.1,0-0.1,0.1-0.1,0.2c-0.4,0.4-0.7,0.8-1,1.3c-0.3,0.5-0.5,1-0.5,1.6l-0.1,0.7c-0.5,0.9-1,1.9-1.5,2.8
		c-0.2,0.3-0.3,0.7-0.5,1c-0.3,0.6-0.6,1.2-0.9,1.8c-0.2,0.4-0.4,0.8-0.5,1.2c-0.2,0.5-0.5,1.1-0.7,1.6c-0.2,0.4-0.3,0.8-0.5,1.3
		c-0.2,0.5-0.4,1-0.6,1.5c-0.2,0.4-0.3,0.8-0.5,1.3c-0.2,0.5-0.4,1-0.6,1.5c-0.2,0.4-0.3,0.8-0.4,1.2c-0.2,0.5-0.4,1-0.5,1.5
		c-0.1,0.4-0.3,0.8-0.4,1.2c-0.2,0.5-0.3,1-0.5,1.5c-0.1,0.4-0.2,0.8-0.3,1.2c-0.1,0.3-0.2,0.7-0.3,1c-0.1,0.2-0.2,0.3-0.4,0.5
		c-1.1,1.5-2.1,2.9-3.2,4.4c0,0.1-0.1,0.1-0.1,0.2c-1.1,1.6-2,3.1-3,4.7c-0.1,0.2-0.3,0.5-0.4,0.7c-0.9,1.5-1.8,3.1-2.6,4.6
		c-0.1,0.2-0.2,0.4-0.3,0.6c-0.8,1.6-1.6,3.2-2.4,4.8C104.5,105.2,107.2,86.3,116.9,68.8z M84.6,253.5c-12.4-27.8-3.5-57.3,1-69
		c4.6-11.8,10.5-20.9,15.7-26.2c0,0.4,0,0.7,0.1,1.1c0,0.6,0.1,1.1,0.1,1.7c0,0.7,0.1,1.4,0.2,2.2c0.1,0.5,0.1,1.1,0.2,1.6
		c0.1,0.7,0.2,1.5,0.3,2.2c0.1,0.5,0.1,1,0.2,1.5c0.1,0.8,0.3,1.5,0.4,2.3c0.1,0.5,0.2,0.9,0.3,1.4c0.2,0.8,0.4,1.7,0.5,2.5
		c0.1,0.4,0.2,0.8,0.3,1.2c0.3,1.1,0.6,2.2,0.9,3.3c0,0.1,0,0.2,0.1,0.3c0.3,1.2,0.7,2.4,1.1,3.6c0.1,0.3,0.2,0.6,0.3,0.8
		c0.3,0.9,0.6,1.8,0.9,2.7c0.1,0.4,0.3,0.8,0.5,1.2c0.3,0.8,0.6,1.5,0.9,2.3c0.2,0.4,0.4,0.9,0.5,1.3c0.3,0.7,0.6,1.4,0.9,2.1
		c0.2,0.4,0.4,0.9,0.6,1.3c0.3,0.7,0.6,1.4,1,2c0.2,0.5,0.4,0.9,0.7,1.3c0.3,0.7,0.7,1.3,1,2c0.2,0.4,0.5,0.9,0.7,1.3
		c0.4,0.6,0.7,1.3,1.1,1.9c0.3,0.4,0.5,0.9,0.8,1.3c0.4,0.6,0.8,1.3,1.2,1.9c0.3,0.4,0.5,0.8,0.8,1.3c0.4,0.6,0.8,1.3,1.2,1.9
		c0.3,0.4,0.5,0.8,0.8,1.2c0.4,0.7,0.9,1.3,1.4,1.9c0.3,0.4,0.5,0.7,0.7,1.1c0.5,0.7,1,1.4,1.6,2.1c0.2,0.3,0.4,0.6,0.6,0.8
		c1.5,1.9,3,3.8,4.6,5.6c0.2,0.2,0.4,0.5,0.7,0.7c0.6,0.7,1.2,1.3,1.7,1.9c0.3,0.3,0.6,0.6,0.9,1c0.5,0.5,1,1.1,1.5,1.6
		c0.3,0.3,0.7,0.7,1,1c0.5,0.5,1,1,1.5,1.5c0.4,0.4,0.7,0.7,1.1,1c0.5,0.5,1,0.9,1.5,1.4c0.4,0.3,0.7,0.7,1.1,1
		c0.5,0.4,1,0.9,1.5,1.3c0.4,0.3,0.8,0.7,1.1,1c0.5,0.4,1,0.8,1.5,1.2c0.4,0.3,0.8,0.6,1.2,0.9c0.5,0.4,1,0.8,1.5,1.2
		c0.4,0.3,0.8,0.6,1.2,0.9c0.5,0.4,1,0.8,1.5,1.1c0.4,0.3,0.8,0.6,1.1,0.8c0.5,0.4,1.1,0.8,1.6,1.1c0.4,0.2,0.7,0.5,1.1,0.7
		c0.6,0.4,1.2,0.8,1.8,1.2c0.3,0.2,0.6,0.4,0.9,0.6c0.9,0.6,1.8,1.1,2.7,1.6c1.3,0.8,2.6,1.6,3.8,2.4c0.4,0.2,0.7,0.4,1,0.7
		c1,0.6,2,1.3,3,1.9c0.3,0.2,0.6,0.4,0.8,0.6c1.2,0.8,2.4,1.7,3.5,2.5c0.2,0.2,0.5,0.4,0.7,0.5c0.9,0.7,1.9,1.4,2.8,2.1
		c0.3,0.2,0.6,0.5,0.9,0.7c1,0.8,2.1,1.7,3,2.5c0.1,0.1,0.1,0.1,0.2,0.2c1.1,0.9,2.1,1.8,3.1,2.7c0.3,0.2,0.5,0.5,0.8,0.7
		c0.8,0.7,1.5,1.5,2.3,2.2c0.2,0.2,0.5,0.4,0.7,0.7c0.9,0.9,1.8,1.9,2.7,2.8c0.2,0.2,0.3,0.3,0.4,0.5c0.7,0.8,1.4,1.6,2.1,2.4
		c0.2,0.3,0.4,0.5,0.7,0.8c0.7,0.9,1.4,1.7,2.1,2.6c0.1,0.1,0.2,0.2,0.2,0.3c0.7,1,1.4,1.9,2.1,2.9c0.2,0.2,0.3,0.5,0.5,0.7
		c0.3,0.4,0.5,0.8,0.8,1.2l-0.2,0.2c0,0,0,0,0,0L176.6,299l-30.5-41.2l-4,4.7l0,0l-17.2,20.4l-18.7-35.1L84.6,253.5z M146.6,458.3
		l-61-195l6.5-1.7l9.2-2.4l18.2,34.1l43.9,170.2C157.6,461.9,152,460.1,146.6,458.3z M129.4,292.7l16.3-19.3l25.6,34.6l28.8,163.2
		c-8.9-1.4-17.6-3-26.1-5L129.4,292.7z M243.1,475.1l-9.6-156.7l20.6-22.3l22.4,22.4l-9.6,156.6C258.9,475.3,251,475.3,243.1,475.1z
		 M363.3,458.3c-5.3,1.8-10.9,3.6-16.7,5.2l43.9-170.2l3.4-6.4l5.4-10.1l0,0l0.1-0.2l0.5-0.9l0,0l8.8-16.6l15.7,4.2L363.3,458.3z"/>
</g>
</svg>
