<?xml version="1.0" encoding="utf-8"?>
<!-- Generator: Adobe Illustrator 22.1.0, SVG Export Plug-In . SVG Version: 6.00 Build 0)  -->
<svg version="1.1" id="Layer_1" xmlns="http://www.w3.org/2000/svg" xmlns:xlink="http://www.w3.org/1999/xlink" x="0px" y="0px"
	 viewBox="0 0 500 500" style="enable-background:new 0 0 500 500;" xml:space="preserve">
<style type="text/css">
	.st0{fill:#A9E56B;}
	.st1{fill:#F266B9;}
</style>
<g>
	<path class="st0" d="M426.1,112.2C463.2,213.4,411,325.9,309.8,363C208.6,400.1,96,347.9,58.9,246.7l-38.3,14.1
		c44.8,122.4,180.9,185.4,303.3,140.6c122.4-44.8,185.4-180.9,140.6-303.3L426.1,112.2z"/>
	<path class="st1" d="M305.3,350.7c94.4-34.6,143.1-139.6,108.5-234l-12.3,4.5L83.5,237.7l-12.3,4.5
		C105.8,336.6,210.8,385.3,305.3,350.7z"/>
	<path d="M459.9,85.8L459.9,85.8l-38.4,14.1l-12.3,4.5L66.7,229.9l-12.3,4.5l-38.3,14.1c-6.8,2.5-10.3,10-7.8,16.8
		C55.6,394.4,199.2,461,328.4,413.7C457.4,366.4,524,223,476.9,94c0-0.1-0.1-0.2-0.1-0.4C474.3,86.8,466.7,83.3,459.9,85.8z
		 M83.5,237.7l317.9-116.5l12.3-4.5c34.6,94.4-14.1,199.4-108.5,234s-199.4-14.1-234-108.5L83.5,237.7z M323.8,401.4
		C201.5,446.2,65.4,383.1,20.6,260.8l38.3-14.1C96,347.9,208.6,400.1,309.8,363C411,325.9,463.2,213.4,426.1,112.2l38.3-14.1
		C509.3,220.5,446.2,356.5,323.8,401.4z"/>
	<path d="M173,273.4c3.8,10.4-1.5,21.9-11.9,25.7c-10.4,3.8-21.9-1.5-25.7-11.9c-3.8-10.4,9.9-31.2,9.9-31.2S169.2,263,173,273.4z"
		/>
	<path d="M254.8,306.3c3.8,10.4-1.5,21.9-11.9,25.7c-10.4,3.8-21.9-1.5-25.7-11.9c-3.8-10.4,9.9-31.2,9.9-31.2
		S251,295.9,254.8,306.3z"/>
	<path d="M236,229.4c3.8,10.4-1.5,21.9-11.9,25.7c-10.4,3.8-21.9-1.5-25.7-11.9c-3.8-10.4,9.9-31.2,9.9-31.2S232.1,219,236,229.4z"
		/>
	<path d="M336.9,276.2c3.8,10.4-1.5,21.9-11.9,25.7c-10.4,3.8-21.9-1.5-25.7-11.9c-3.8-10.4,9.9-31.2,9.9-31.2
		S333.1,265.8,336.9,276.2z"/>
	<path d="M310,209.2c3.8,10.4-1.5,21.9-11.9,25.7c-10.4,3.8-21.9-1.5-25.7-11.9c-3.8-10.4,9.9-31.2,9.9-31.2S306.2,198.8,310,209.2z
		"/>
	<path d="M391,201.7c3.8,10.4-1.5,21.9-11.9,25.7c-10.4,3.8-21.9-1.5-25.7-11.9c-3.8-10.4,9.9-31.2,9.9-31.2S387.2,191.3,391,201.7z
		"/>
</g>
</svg>
