<?xml version="1.0" encoding="utf-8"?>
<!-- Generator: Adobe Illustrator 22.1.0, SVG Export Plug-In . SVG Version: 6.00 Build 0)  -->
<svg version="1.1" id="Layer_1" xmlns="http://www.w3.org/2000/svg" xmlns:xlink="http://www.w3.org/1999/xlink" x="0px" y="0px"
	 viewBox="0 0 500 500" style="enable-background:new 0 0 500 500;" xml:space="preserve">
<style type="text/css">
	.st0{fill:#FFFFFF;}
	.st1{fill:#73BFCB;}
	.st2{fill:#F6F039;}
	.st3{fill:#F266B9;}
	.st4{fill:#FFFF33;}
</style>
<g>
	<g>
		<path class="st0" d="M355,233c-1,1.9-2,3.6-3.2,5.1c-0.8,1-2,1.5-3.2,1.5c-0.9,0-1.8-0.3-2.6-0.9c-1.7-1.4-2-4-0.6-5.7
			c2.3-2.8,4.1-7,5.4-12c0.1-0.2,0.1-0.4,0.2-0.6c5.6-21.9,2.5-59.6-6.2-77.9c-0.5-1.1-1-2-1.5-2.9c-0.2-0.3-0.4-0.6-0.6-1
			c-0.1-0.2-0.2-0.3-0.3-0.5c-0.3-0.4-0.6-0.8-0.8-1.2c-0.2-0.2-0.4-0.5-0.6-0.7c-0.4-0.4-0.7-0.8-1.2-1.2c0,0-0.1-0.1-0.1-0.1
			c-0.2-0.2-0.3-0.3-0.5-0.4c-0.1,0-0.1-0.1-0.2-0.1c-0.2-0.1-0.3-0.2-0.5-0.3c-0.1,0-0.1-0.1-0.2-0.1c-0.2-0.1-0.4-0.3-0.7-0.3
			c0,0,0,0,0,0c-0.2-0.1-0.4-0.2-0.6-0.2c-0.1,0-0.1,0-0.2,0c-0.2,0-0.5-0.1-0.7-0.1c-13.5,0-27.7,19.4-37,32.2
			c-0.2,0.2-0.3,0.5-0.5,0.7l-0.1,0.1c0,0,0,0,0,0c-3.2,4.4-5.8,7.8-7.9,10c-1.6,1.6-4.2,1.6-5.7,0c-1.6-1.6-1.6-4.2,0-5.7
			c1.1-1.1,2.5-2.9,4.2-5.1c-11.8-5.4-24.5-9.3-37.6-11.7c0.2,3.4-0.2,6.1-0.4,7.5c1.1,5.5,0.5,10-1.9,13.5c-2.7,4-6.8,5.1-8.1,5.4
			c-4.5,1.3-8.6,1.9-12.3,1.9c-4.5,0-8.3-1-11.5-2.9c-4.7-2.9-6.3-7-6.8-8.6c-2.6-5.3-2.7-12.3-1.9-18.7
			c-18.1,1.6-35.7,6.1-51.7,13.5c1.7,2.2,3.1,4.1,4.3,5.2c1.6,1.6,1.6,4.2,0,5.7c-1.6,1.6-4.2,1.6-5.7,0c-2.3-2.3-5-6-8.5-10.8
			c-9-12.3-22.4-30.7-35.4-32.1c-0.5-0.1-1.1-0.1-1.6-0.1c-0.2,0-0.5,0-0.7,0.1c-0.1,0-0.1,0-0.2,0c-0.2,0.1-0.4,0.1-0.6,0.2
			c0,0,0,0-0.1,0c-0.2,0.1-0.4,0.2-0.7,0.3c-0.1,0-0.1,0.1-0.2,0.1c-0.2,0.1-0.3,0.2-0.5,0.4c-0.1,0-0.1,0.1-0.2,0.1
			c-0.2,0.1-0.4,0.3-0.5,0.4c0,0-0.1,0.1-0.1,0.1c-0.2,0.2-0.4,0.4-0.6,0.6c0,0,0,0,0,0c-0.2,0.2-0.3,0.4-0.5,0.5
			c0,0-0.1,0.1-0.1,0.1c0,0-0.1,0.1-0.1,0.1c-0.1,0.2-0.3,0.3-0.4,0.5c-0.3,0.4-0.6,0.8-0.8,1.2c-0.1,0.1-0.2,0.2-0.3,0.4
			c-0.2,0.3-0.4,0.7-0.7,1.1c-0.1,0.3-0.3,0.5-0.4,0.8c0,0.1-0.1,0.2-0.1,0.3c-0.3,0.6-0.6,1.2-1,1.9c-10.8,22.7-13,75.2-0.6,90.5
			c1.4,1.7,1.1,4.3-0.6,5.7c-0.8,0.6-1.7,0.9-2.6,0.9c-1.2,0-2.4-0.5-3.2-1.5c-1.3-1.6-2.4-3.4-3.4-5.4c-4.2,11.2-6.3,22.8-6.3,34.6
			c0,1.9,0.1,3.8,0.2,5.6c0,0,0,0,0,0c0.1,1.8,0.3,3.5,0.4,5.3c0,0.1,0,0.2,0,0.3c0.2,1.6,0.4,3.2,0.7,4.8c0,0.3,0.1,0.6,0.1,0.8
			c0.3,1.5,0.5,2.9,0.9,4.3c0.1,0.4,0.2,0.9,0.3,1.3c0.3,1.3,0.6,2.6,1,3.9c0.2,0.6,0.3,1.2,0.5,1.7c0.3,1,0.6,2.1,1,3.1
			c0.3,0.8,0.5,1.6,0.8,2.4c0.3,0.7,0.5,1.5,0.8,2.2c0.4,1.1,0.9,2.2,1.3,3.2c0.2,0.6,0.5,1.1,0.7,1.7c0.6,1.2,1.1,2.5,1.7,3.7
			c0.2,0.4,0.4,0.8,0.6,1.3c9.1,17.8,23.4,33.4,41.3,45.3c0.4,0.3,0.9,0.6,1.4,0.9c0.6,0.4,1.1,0.7,1.7,1.1c1.1,0.7,2.2,1.3,3.3,2
			c0.3,0.2,0.5,0.3,0.8,0.4c20,11.6,43.6,18.8,68.5,20.4c0,0,0,0,0,0c1.5,0.1,3,0.2,4.4,0.2c0.3,0,0.7,0,1,0c1.5,0,3.1,0.1,4.6,0.1
			c1.7,0,3.3,0,4.9-0.1c0.3,0,0.7,0,1,0c1.7-0.1,3.3-0.1,4.9-0.2c0,0,0.1,0,0.1,0c1.7-0.1,3.4-0.3,5-0.4c0.2,0,0.3,0,0.5,0
			c8.9-0.9,17.6-2.5,26-4.8c0,0,0.1,0,0.1,0c3.2-0.9,6.4-1.9,9.5-2.9c0.3-0.1,0.5-0.2,0.8-0.3c1.4-0.5,2.8-1,4.2-1.5
			c0.4-0.2,0.8-0.3,1.2-0.5c0.9-0.4,1.9-0.7,2.8-1.1c0.6-0.2,1.2-0.5,1.8-0.7c1-0.4,2-0.9,3.1-1.4c0.9-0.4,1.8-0.8,2.6-1.2
			c0.2-0.1,0.3-0.2,0.5-0.3c25.9-12.6,46.5-32,58.3-55.4c0.1-0.1,0.1-0.2,0.2-0.3c0.7-1.3,1.3-2.7,1.9-4.1c0.3-0.6,0.5-1.1,0.8-1.7
			c1.1-2.5,2-5,2.9-7.6c2-6,3.4-12.2,4.3-18.4c0-0.1,0-0.1,0-0.1c0.1-1.1,0.3-2.1,0.4-3.2c0.3-3.2,0.5-6.5,0.5-9.7
			C361.1,255.6,359,244.1,355,233z M138.1,188.2c-2.7,8.8-14.2,37.9-25,31.8s-7-52.8-3.4-56.8C115.1,157.1,140.8,179.4,138.1,188.2z
			 M326.8,220c-10.8,6.1-22.3-23-25-31.8c-2.7-8.8,23-31.1,28.4-25C333.8,167.3,337.7,213.9,326.8,220z"/>
		<g>
			<path class="st1" d="M419.2,442c4.3,3.3,9.1,4.9,14,4.9c9.8,0,18.3-6.4,22.5-12.7c1.2-1.8,2-3.6,2.4-5.2
				c-1.9,0.5-3.8,0.8-5.6,0.8c0,0,0,0,0,0c-4.9,0-9.3-2-12.9-5.8c-8.3-8.8-11-25.5-11.5-36.5c-0.1-2-0.2-3.9-0.1-5.6
				c0-0.1,0-0.1,0-0.2c0-0.4,0-0.7,0-1.1c0-0.5,0-1,0.1-1.5c0.6-9.7-5.3-38.3-28.1-40c-0.5,0-1-0.1-1.5-0.1c-0.2,0-0.4,0-0.6,0
				c-0.3,0-0.6,0-0.9,0c-0.2,0-0.5,0-0.7,0c-0.3,0-0.5,0-0.8,0.1c-0.2,0-0.5,0.1-0.7,0.1c-0.2,0-0.5,0.1-0.7,0.1
				c-0.2,0-0.5,0.1-0.7,0.1c-0.2,0-0.4,0.1-0.7,0.1c-0.2,0.1-0.5,0.1-0.7,0.2c-0.2,0.1-0.4,0.1-0.6,0.2c-0.2,0.1-0.5,0.1-0.7,0.2
				c-0.2,0.1-0.4,0.1-0.6,0.2c-0.2,0.1-0.5,0.2-0.7,0.3c-0.2,0.1-0.4,0.2-0.6,0.2c-0.2,0.1-0.5,0.2-0.7,0.3
				c-0.2,0.1-0.4,0.2-0.5,0.3c-0.2,0.1-0.5,0.2-0.7,0.4c-0.2,0.1-0.3,0.2-0.5,0.3c-0.2,0.1-0.5,0.3-0.7,0.4
				c-0.1,0.1-0.3,0.2-0.4,0.3c-0.2,0.2-0.5,0.3-0.7,0.5c-0.1,0.1-0.3,0.2-0.4,0.3c-0.2,0.2-0.5,0.4-0.7,0.6
				c-0.1,0.1-0.2,0.2-0.3,0.2c-0.9,0.8-1.8,1.7-2.6,2.7c0.2,1,0.4,2,0.5,3.1c3.3-1.8,6.5-2.3,8.9-2.3c6,0,11.9,3,16.1,8.2
				c5,6.3,6.8,14.7,4.8,23.2c-0.4,1.8-0.8,3.5-1.2,5.3C404.5,406.6,399.6,427.2,419.2,442z"/>
			<path class="st1" d="M415,210.9c-1.8,26.2-21.2,44.6-37.5,59.7c0.1,0,0.2,0,0.3-0.1c1-0.2,2-0.4,3-0.6c4.7-0.7,9.3-1.1,13.8-1.1
				c0.1,0,0.1,0,0.2,0c1,0,2,0,3,0.1c0.3,0,0.6,0,0.9,0c1,0,1.9,0.1,2.8,0.2c0.1,0,0.2,0,0.3,0c1.1,0.1,2.2,0.2,3.3,0.4
				c0.1,0,0.2,0,0.3,0c9.2,1.3,17.7,4.4,25,9c0.8-2,1.1-4.1,0.9-6.2c-0.5-5.1-3.7-9.4-8.3-11.4c-1.2-0.5-2.1-1.6-2.4-2.9
				c-0.3-1.3,0.1-2.6,0.9-3.6c3.1-3.5,5.7-16.9,2.4-29.2C422.6,220.5,420,214.6,415,210.9z"/>
			<path class="st1" d="M55.9,308.8c0.4,1.5,1,2.8,1.7,4.1c0.3,0.6,0.7,1.2,1.1,1.7c0.1,0.1,0.1,0.2,0.2,0.2
				c0.4,0.6,0.9,1.1,1.4,1.7c0,0,0,0,0.1,0.1c0.5,0.6,1.1,1.1,1.7,1.6c0,0,0.1,0.1,0.1,0.1c0.5,0.4,1,0.8,1.6,1.2
				c0.2,0.1,0.4,0.3,0.7,0.4c2.5,1.6,5.3,2.6,8.4,2.8c3.3,0.3,6.7-0.3,9.8-1.7c1-2.4,2.3-5.1,3.4-6.6c0.2-0.2,0.4-0.4,0.6-0.6
				c0.1-0.1,0.2-0.1,0.3-0.2c0.1-0.1,0.3-0.2,0.4-0.3c-3.1-6.6-5.5-13.4-7.2-20.3c-0.2-0.6-0.3-1.3-0.5-2c-0.1-0.6-0.3-1.2-0.4-1.9
				c-0.3-1.3-0.5-2.5-0.7-3.8c-0.1-0.4-0.1-0.8-0.2-1.2c-0.5-3-0.8-6-1.1-9c0-0.1,0-0.1,0-0.2c-1.2-1.2-2.5-2.4-3.8-3.6
				c-16.4-15.2-36.6-33.9-38.4-60.5c-5,3.7-7.6,9.6-8.9,14.5c-3.3,12.3-0.8,25.8,2.4,29.2c0.9,1,1.2,2.3,0.9,3.6
				c-0.3,1.3-1.2,2.3-2.4,2.9c-4.7,2-7.9,6.4-8.3,11.4c-0.6,6.4,3.2,12.2,9.3,14.3c1.3,0.5,2.3,1.6,2.7,2.9c0.3,1.4-0.1,2.8-1.1,3.8
				c-2.4,2.4-3.9,5.5-4.2,8.8c-0.7,7.8,5,14.7,12.8,15.4c4.2,0.4,8.2-1.1,11.1-4c-0.4-0.9-0.7-1.8-0.9-2.8c-1.9-7-1-14.4,2.6-20.7
				c1.1-1.9,3.6-2.6,5.5-1.5c1.9,1.1,2.6,3.6,1.5,5.5C55.1,298.7,54.5,303.8,55.9,308.8z"/>
		</g>
		<path class="st2" d="M479.2,367.6c-2.7,1.4-5.4,2.1-8,2.1c0,0,0,0,0,0c-4.3,0-8.2-1.8-11.7-5.3c-4.4-4.4-7.5-11-9.6-17.4
			c0,0,0,0,0-0.1c0-0.1,0-0.1-0.1-0.2c-0.2-0.5-0.3-1-0.5-1.6c-0.1-0.3-0.2-0.6-0.3-0.9c-0.1-0.5-0.3-1-0.4-1.5
			c-0.1-0.3-0.2-0.6-0.2-0.9c-0.1-0.4-0.2-0.9-0.3-1.3c-0.1-0.3-0.2-0.7-0.2-1c-0.1-0.4-0.1-0.7-0.2-1.1c-0.1-0.4-0.2-0.7-0.2-1.1
			c-0.1-0.3-0.1-0.5-0.1-0.8c-0.1-0.4-0.1-0.8-0.2-1.2c0-0.2-0.1-0.4-0.1-0.6c-0.1-0.4-0.1-0.8-0.1-1.1c0-0.3,0-0.5-0.1-0.7
			c0-0.3-0.1-0.6-0.1-0.8c0-0.5,0-0.9,0-1.3c0-2-3.4-10.5-11.5-18.6c-6.4-6.4-17.2-14-32.4-14c-3.9,0-7.9,0.5-11.9,1.5
			c-1.2,0.3-2.3,0.6-3.4,1c-0.1,0-0.2,0.1-0.3,0.1c-1,0.4-2,0.8-3,1.2c-0.1,0.1-0.3,0.1-0.4,0.2c-0.9,0.4-1.8,0.9-2.7,1.4
			c-0.1,0.1-0.3,0.2-0.4,0.2c-0.9,0.5-1.7,1.1-2.5,1.7c-0.1,0.1-0.3,0.2-0.4,0.3c-0.8,0.6-1.6,1.3-2.3,1.9c-0.1,0.1-0.2,0.2-0.3,0.3
			c-0.7,0.7-1.4,1.4-2.1,2.2c-0.1,0.1-0.1,0.2-0.2,0.3c-0.7,0.8-1.3,1.7-2,2.6c0,0,0,0.1-0.1,0.1c-0.6,0.9-1.2,1.9-1.7,2.9
			c0,0,0,0.1-0.1,0.1c4,6.8,7,14.1,9.1,21.6c0.1-0.1,0.2-0.2,0.3-0.3c0.5-0.4,1-0.8,1.5-1.2c0.3-0.2,0.5-0.4,0.8-0.6
			c0.5-0.3,1-0.7,1.6-1c0.3-0.2,0.6-0.4,0.9-0.5c0.5-0.3,1.1-0.6,1.7-0.8c0.3-0.1,0.6-0.3,0.9-0.4c0.6-0.3,1.2-0.5,1.9-0.7
			c0.3-0.1,0.5-0.2,0.8-0.2c0.7-0.2,1.4-0.4,2.1-0.5c0.3-0.1,0.6-0.1,0.8-0.2c0.8-0.1,1.6-0.3,2.4-0.4c0.1,0,0.2,0,0.3,0
			c0.8-0.1,1.7-0.1,2.6-0.1c0.2,0,0.5,0,0.7,0c0.9,0,1.9,0,2.8,0.1c27.1,2,36.6,32.6,35.6,48.5c0,0.5,0,1-0.1,1.5c0,0.3,0,0.6,0,0.9
			c0,0.2,0,0.3,0,0.5c0,2.9,0.2,6.8,0.7,11c7.2,7.4,15.2,9.3,25.1,6.3c10.9-3.4,19.1-11.2,20.8-19.9
			C483.5,375.4,482.3,371.1,479.2,367.6z"/>
		<path class="st3" d="M379.5,278.5c-0.5,0.1-0.9,0.2-1.4,0.3c-0.2,0.1-0.5,0.1-0.7,0.2c-0.4,0.1-0.8,0.2-1.2,0.4
			c-0.3,0.1-0.5,0.2-0.8,0.3c-0.4,0.1-0.8,0.3-1.2,0.4c-0.2,0.1-0.5,0.2-0.7,0.3c-0.4,0.2-0.8,0.3-1.1,0.5c-0.2,0.1-0.5,0.2-0.7,0.3
			c-0.4,0.2-0.7,0.4-1.1,0.6c-0.2,0.1-0.4,0.2-0.6,0.3c-0.4,0.2-0.8,0.4-1.1,0.7c-0.2,0.1-0.4,0.2-0.6,0.3c-0.1,0-0.1,0.1-0.2,0.1
			c-0.7,4.6-1.7,9-2.9,13.4c-0.1,0.5-0.3,0.9-0.4,1.4c-0.1,0.3-0.2,0.5-0.2,0.8c-0.7,2.4-1.5,4.8-2.4,7.1c0.3,0.4,0.6,0.7,0.8,1.1
			c0.4,0.5,0.8,1,1.2,1.5c0.1,0.1,0.2,0.2,0.2,0.3c0,0,0.1-0.1,0.1-0.1c0.6-0.9,1.3-1.8,2-2.7c0.1-0.2,0.3-0.4,0.5-0.6
			c0.7-0.8,1.4-1.7,2.2-2.5c0.1-0.1,0.2-0.2,0.3-0.3c0.7-0.7,1.5-1.4,2.3-2.1c0.1-0.1,0.3-0.2,0.4-0.4c0.8-0.7,1.7-1.3,2.6-2
			c0.2-0.1,0.4-0.3,0.6-0.4c0.9-0.6,1.9-1.2,2.8-1.7c0.1,0,0.2-0.1,0.2-0.1c0.9-0.5,1.9-1,2.9-1.4c0.2-0.1,0.4-0.2,0.6-0.3
			c1-0.4,2.1-0.8,3.2-1.2c0.2-0.1,0.4-0.1,0.7-0.2c1.1-0.4,2.3-0.7,3.5-1c4.7-1.1,9.3-1.7,13.9-1.7c18,0,30.6,8.9,38.1,16.4
			c0.1,0.1,0.3,0.3,0.4,0.4c0.4,0.4,0.8,0.8,1.2,1.3c0.2,0.2,0.4,0.5,0.7,0.8c0.3,0.3,0.6,0.7,0.9,1c0.2,0.3,0.5,0.6,0.7,0.8
			c0.3,0.3,0.5,0.6,0.8,0.9c0.2,0.3,0.5,0.6,0.7,0.9c0.2,0.3,0.5,0.6,0.7,0.9c0.1,0.1,0.2,0.2,0.2,0.3c-2.4-7.6-6.1-14.3-11-19.8
			c-2.1-2.4-4.5-4.5-7-6.5c-10.6-8-24.6-11.6-40.2-10.5c-0.1,0-0.1,0-0.2,0c-0.9,0.1-1.9,0.2-2.9,0.3c-0.2,0-0.4,0-0.6,0.1
			c-1.1,0.1-2.2,0.3-3.3,0.5c-0.7,0.1-1.4,0.2-2.1,0.4C379.9,278.4,379.7,278.5,379.5,278.5z"/>
		<path class="st0" d="M358.2,424.6c9.2-9.2,18.2-36.6,15.9-65.2c-0.1-0.3-0.2-0.5-0.2-0.8c-0.4-3.8-0.9-7.6-1.7-11.3c0,0,0,0,0,0
			c-2.1-10.6-5.9-20.2-11.1-28.5c0,0,0,0,0,0c-0.9-1.5-1.9-2.9-2.8-4.2c-12.9,26.6-36.1,48.1-64.7,61.5c-0.5,0.2-1,0.5-1.6,0.7
			c-0.7,0.3-1.3,0.6-2,0.9c-1.2,0.5-2.5,1.1-3.8,1.6c-0.2,0.1-0.5,0.2-0.7,0.3c-1.3,0.5-2.6,1-4,1.5c-0.2,0.1-0.4,0.2-0.7,0.2
			c-12.9,4.7-26.7,7.9-41.1,9.3c-0.2,0-0.4,0-0.5,0.1c-3.4,0.3-6.8,0.5-10.2,0.7c-0.4,0-0.8,0-1.1,0c-1.7,0-3.3,0.1-5,0.1
			c-1.6,0-3.2,0-4.8-0.1c-0.4,0-0.7,0-1.1,0c-1.5,0-2.9-0.1-4.4-0.2c-0.1,0-0.2,0-0.3,0c-26.3-1.6-50.8-9.1-71.4-21
			c-0.2-0.1-0.5-0.3-0.7-0.4c-0.9-0.5-1.8-1-2.7-1.6c-0.6-0.4-1.3-0.8-1.9-1.2c-0.3-0.2-0.6-0.4-0.9-0.6
			c-18.3-11.7-33.4-27-43.7-45.1c-0.5,0.9-1.1,2.3-1.8,4.1c-0.1,0.2-0.2,0.5-0.3,0.7c-5.3,13.7-13.6,45.4-4.7,72.6
			c6.7,20.7,22.2,34.6,45.9,41.5c3.5,1,7.1,1.9,10.9,2.8c-2.5-14,3.4-30.2,6.8-35.2c1.2-1.9,3.8-2.4,5.6-1.1
			c1.9,1.2,2.4,3.8,1.1,5.6c-3.1,4.7-8.5,21.6-4.6,33c0.2,0.5,0.4,1,0.6,1.5c0,0,0,0,0,0c0.2,0.5,0.5,1,0.8,1.5c0,0,0,0,0,0
			c0.2,0.4,0.5,0.8,0.8,1.2c0.1,0.1,0.1,0.2,0.2,0.3c0.3,0.3,0.5,0.7,0.8,1c0.1,0.1,0.2,0.3,0.4,0.4c0.3,0.3,0.5,0.5,0.8,0.8
			c0.2,0.2,0.4,0.3,0.5,0.5c0.3,0.2,0.5,0.4,0.8,0.6c0.2,0.2,0.5,0.3,0.7,0.5c0.2,0.2,0.5,0.3,0.7,0.5c0.3,0.2,0.7,0.4,1,0.5
			c0.2,0.1,0.4,0.2,0.6,0.3c0.6,0.3,1.2,0.5,1.8,0.7c0.6,0.2,1.2,0.4,1.8,0.5c0.2,0,0.3,0.1,0.5,0.1c0.5,0.1,1,0.2,1.4,0.3
			c0.1,0,0.3,0.1,0.4,0.1c0.6,0.1,1.1,0.2,1.7,0.2c0.1,0,0.3,0,0.4,0c0.4,0,0.8,0,1.2,0c0.2,0,0.4,0,0.6,0c0.4,0,0.7-0.1,1.1-0.1
			c0.3,0,0.5-0.1,0.8-0.1c0.4-0.1,0.7-0.1,1-0.2c0.2-0.1,0.5-0.1,0.7-0.2c0.2-0.1,0.4-0.1,0.6-0.2c0.3-0.1,0.5-0.2,0.8-0.3
			c0.1-0.1,0.3-0.1,0.4-0.2c0.5-0.2,1-0.5,1.5-0.8c0.2-0.1,0.4-0.2,0.6-0.4c0.3-0.2,0.5-0.4,0.8-0.5c0.1-0.1,0.3-0.2,0.4-0.3
			c0.5-0.4,1.1-0.9,1.6-1.4c0.1-0.1,0.1-0.1,0.2-0.2c0.3-0.3,0.6-0.6,0.9-0.9c5.7-6.4,9.3-17,12-27.1c0.6-2.2,2.8-3.4,5-2.8
			c2.2,0.6,3.4,2.8,2.8,5c-2.4,8.7-5.1,17.2-9.2,24.1c10.3,0.8,21,1.2,31.9,1.2c18,0,36.5-1.1,54-3.1c-4.4-7.9-6.7-18-8.3-28.3
			c-0.4-2.2,1.2-4.3,3.4-4.6c2.2-0.4,4.3,1.2,4.6,3.4c1.8,11.3,4.5,23.4,10.6,30.1c0,0,0,0,0,0c0.3,0.4,0.7,0.7,1,1
			c0.1,0.1,0.2,0.2,0.3,0.3c0.3,0.3,0.6,0.5,1,0.8c0.1,0.1,0.3,0.2,0.4,0.3c0.3,0.2,0.7,0.5,1,0.7c0.1,0.1,0.2,0.1,0.4,0.2
			c0.4,0.2,0.7,0.4,1.1,0.6c0.1,0.1,0.3,0.1,0.4,0.2c0.4,0.2,0.7,0.3,1.1,0.4c0.2,0.1,0.3,0.1,0.5,0.2c0.4,0.1,0.7,0.2,1.1,0.3
			c0.2,0,0.4,0.1,0.6,0.1c0.4,0.1,0.7,0.1,1.1,0.2c0.2,0,0.5,0,0.7,0.1c0.3,0,0.7,0,1.1,0c0.2,0,0.4,0,0.6,0c0.6,0,1.2,0,1.8-0.1
			c0.2,0,0.4,0,0.6-0.1c0.8-0.1,1.6-0.2,2.5-0.4c0.7-0.2,1.4-0.3,2-0.6c0.2-0.1,0.3-0.1,0.5-0.2c0.5-0.2,0.9-0.3,1.4-0.5
			c0.2-0.1,0.3-0.2,0.5-0.3c0.4-0.2,0.8-0.4,1.2-0.7c0.2-0.1,0.3-0.2,0.5-0.3c0.4-0.3,0.8-0.5,1.1-0.8c0.1-0.1,0.3-0.2,0.4-0.4
			c0.3-0.3,0.7-0.6,1-1c0.1-0.1,0.2-0.3,0.3-0.4c0.3-0.4,0.6-0.7,0.9-1.1c0.1-0.1,0.2-0.3,0.3-0.4c0.3-0.4,0.6-0.8,0.8-1.3
			c0.1-0.1,0.2-0.3,0.2-0.4c0.2-0.5,0.5-0.9,0.7-1.4c4.7-10.9,1.2-27.7-1.3-32.6c-1-2-0.3-4.4,1.7-5.5c2-1,4.4-0.3,5.5,1.7
			c2.5,4.9,6.2,19.1,3.9,32C341.5,434.9,353,429.8,358.2,424.6z"/>
		<g>
			<path d="M160.8,235.3c-10.5,0-18.9,8.5-18.9,18.9s8.5,18.9,18.9,18.9c10.5,0,18.9-8.5,18.9-18.9S171.3,235.3,160.8,235.3z
				 M160.3,249.8c0,0.2,0,0.3,0,0.5l0,0c-0.2,1.3-0.6,2.5-1.3,3.5c-0.6,1.2-1.6,2.4-3.1,3.4c-0.9,0.6-1.6,0.9-1.7,0.9
				c-0.1,0-0.8-0.3-1.7-0.9c-1.5-1-2.5-2.2-3.1-3.4c-0.6-1-1.1-2.2-1.2-3.5l0,0c0-0.2,0-0.3,0-0.5c0,0,0-0.1,0-0.1
				c0-0.1,0-0.1,0-0.2c0.1-2.2,1.5-3.9,3.3-3.8c1.2,0,1.5,0.6,2.8,0.6c1.3,0,1.6-0.6,2.8-0.6c1.8-0.1,3.3,1.7,3.3,3.8
				c0,0.1,0,0.1,0,0.2C160.3,249.7,160.3,249.7,160.3,249.8z M164.4,266c-1.5,0-2.7-1.2-2.7-2.7c0-1.5,1.2-2.7,2.7-2.7
				s2.7,1.2,2.7,2.7C167.1,264.8,165.9,266,164.4,266z"/>
			<path d="M281.7,235.3c-10.5,0-18.9,8.5-18.9,18.9s8.5,18.9,18.9,18.9c10.5,0,18.9-8.5,18.9-18.9S292.1,235.3,281.7,235.3z
				 M281.7,249.8c0,0.2,0,0.3,0,0.5l0,0c-0.2,1.3-0.6,2.5-1.3,3.5c-0.6,1.2-1.6,2.4-3.1,3.4c-0.9,0.6-1.6,0.9-1.7,0.9
				c-0.1,0-0.8-0.3-1.7-0.9c-1.5-1-2.5-2.2-3.1-3.4c-0.6-1-1.1-2.2-1.2-3.5l0,0c0-0.2,0-0.3,0-0.5c0,0,0-0.1,0-0.1
				c0-0.1,0-0.1,0-0.2c0.1-2.2,1.5-3.9,3.3-3.8c1.2,0,1.5,0.6,2.8,0.6c1.3,0,1.6-0.6,2.8-0.6c1.8-0.1,3.3,1.7,3.3,3.8
				c0,0.1,0,0.1,0,0.2C281.7,249.7,281.7,249.7,281.7,249.8z M285.3,266c-1.5,0-2.7-1.2-2.7-2.7c0-1.5,1.2-2.7,2.7-2.7
				c1.5,0,2.7,1.2,2.7,2.7C288,264.8,286.8,266,285.3,266z"/>
			<circle class="st3" cx="130.1" cy="292.6" r="15.3"/>
			<circle class="st3" cx="312.3" cy="292.6" r="15.3"/>
			<path d="M222.1,305.3c-14.6,0-26.6-11.9-26.6-26.6c0-2.2,1.8-4.1,4.1-4.1c2.2,0,4.1,1.8,4.1,4.1c0,10.2,8.3,18.4,18.4,18.4
				c10.2,0,18.4-8.3,18.4-18.4c0-2.2,1.8-4.1,4.1-4.1c2.2,0,4.1,1.8,4.1,4.1C248.7,293.4,236.8,305.3,222.1,305.3z"/>
		</g>
		<g>
			<path d="M109.7,163.2c-3.6,4-7.4,50.7,3.4,56.8s22.3-23,25-31.8C140.8,179.4,115.1,157.1,109.7,163.2z"/>
			<path d="M326.8,220c10.8-6.1,7-52.8,3.4-56.8c-5.4-6.1-31.1,16.2-28.4,25C304.5,197,316,226.1,326.8,220z"/>
		</g>
		<g>
			<path class="st4" d="M218.5,103.1c2.9,2.4,9.1,6.7,14.1,6.8c0.1-0.1,0.1-0.1,0.2-0.2c0.9-0.7,2-1,3-0.8c0.5-0.5,1.1-1.3,1.4-2.3
				c0.5-1.8-0.2-4.2-1.8-7c-0.8,0.1-1.7,0.1-2.5,0.1c-7.5,0-13.3-3.4-16.7-6c0,0,0,0,0,0c-0.1,0.7-0.1,1.3-0.1,2
				C216.4,95.7,218.8,102.4,218.5,103.1z"/>
			<path class="st4" d="M238.7,133.6c0.2,0.1,0.3,0.1,0.5,0.2c-0.3-4.1-1.5-10-5.2-15.8c-0.4,0-0.8,0-1.2,0
				c-6.1,0-12.2-3.3-16.1-6.1c-0.1,0.8-0.1,1.6,0,2.5c0.5,0,3.1,6.5,2.7,7.5C224.2,127.2,232.2,130.7,238.7,133.6z"/>
			<path class="st4" d="M231.9,71.6c0.4-4.2-0.2-12.1-6.1-24c-0.2-0.3-0.5-0.6-0.7-0.9c-1.3,3.7-2.8,7.8-4.4,10.7
				c-1.1,2-1.3,4-0.6,5.8C220.8,65.1,223.3,68.5,231.9,71.6z"/>
			<path class="st4" d="M243.5,156.4c0.1-3.4-0.4-8.6-3.2-13.2c-1.3-0.7-3-1.4-4.8-2.2c-5.3-2.3-12-5.3-17.6-9.6
				c-0.3-0.1-0.7-0.2-1-0.3c-0.1,0.5-0.1,1-0.2,1.5c0.3,0,2,11.5,2.1,11.7C222.9,150.9,235.6,154.8,243.5,156.4z"/>
			<path class="st4" d="M218,167.2c0.2,0.3,0.3,0.7,0.4,1.1c0,0,0.6,2.4,3.4,4c3.7,2.2,9.7,2.1,17.3-0.1c0.2-0.1,0.4-0.1,0.5-0.1
				c0,0,1.9-0.4,3-2.1c0.8-1.3,1.1-3.1,0.9-5.3c-5.8-1.1-18.2-4-26.4-10.4c-0.2-0.1-0.4-0.1-0.6-0.2
				C216.1,159.1,216.3,163.9,218,167.2z"/>
			<path class="st4" d="M219.2,85.6c1.4,1.5,7.3,6.8,15.6,5.9c1-1.6,1.3-5.3-2.5-11.2c-6.1-1.9-10.9-4.2-14.3-7
				c-0.4,1.3-0.8,2.9-0.7,4.8C217.9,78.2,219.6,85,219.2,85.6z"/>
		</g>
	</g>
	<path d="M482.3,359.4c-1.4-1.1-3.4-1.2-4.8-0.2c-2.3,1.6-4.4,2.3-6.2,2.3c-2.1,0-4-0.9-6-2.9c-3.2-3.2-5.6-8.3-7.4-13.4
		c2.3-22.5-3.2-42.5-15.6-56.5c-1.6-1.8-3.4-3.5-5.2-5.1c1.9-3.6,2.7-7.8,2.3-11.9c-0.6-6.5-4-12.2-9.2-15.9
		c3.7-8,4.5-21.5,1.5-32.6c-3.1-11.7-10-19.8-19.4-22.8c-1.3-0.4-2.7-0.2-3.7,0.6c-1.1,0.8-1.7,2.1-1.6,3.4
		c1.3,26.5-18.4,44.8-35.8,61c-0.6,0.6-1.3,1.2-1.9,1.8c0-15.7-3.4-31-10.1-45.5c0,0,0-0.1,0-0.1c0.2-0.6,0.3-1.3,0.4-1.9
		c0.1-0.2,0.1-0.5,0.2-0.7c5.2-24,1.9-59.3-7.2-79.2c-0.1-0.2-0.1-0.3-0.2-0.5c-0.1-0.1-0.1-0.3-0.2-0.4c-0.6-1.3-1.2-2.5-1.9-3.6
		c0,0,0-0.1-0.1-0.1c-0.3-0.5-0.7-1.1-1-1.6c-0.1-0.1-0.1-0.2-0.2-0.3c-0.3-0.5-0.7-1-1-1.4c0,0,0-0.1-0.1-0.1c0,0,0,0,0,0
		c-1.7-2.3-3.6-4-5.6-5.2c0,0,0,0,0,0c-1-0.6-2-1-3-1.3c0,0-0.1,0-0.1,0c-0.4-0.1-0.9-0.2-1.3-0.3c-0.1,0-0.2,0-0.3,0
		c-0.5-0.1-1-0.1-1.5-0.1c-0.5,0-1.1,0-1.6,0.1c-0.2,0-0.4,0-0.5,0.1c-0.4,0-0.7,0.1-1.1,0.1c-0.2,0-0.4,0.1-0.6,0.1
		c-0.3,0.1-0.6,0.1-1,0.2c-0.2,0-0.4,0.1-0.7,0.2c-0.3,0.1-0.6,0.1-0.9,0.2c-0.2,0.1-0.4,0.1-0.7,0.2c-0.3,0.1-0.6,0.2-0.9,0.3
		c-0.2,0.1-0.4,0.2-0.7,0.2c-0.3,0.1-0.6,0.2-0.9,0.3c-0.2,0.1-0.4,0.2-0.7,0.3c-0.3,0.1-0.6,0.3-0.9,0.4c-0.2,0.1-0.4,0.2-0.7,0.3
		c-0.3,0.1-0.6,0.3-0.9,0.4c-0.2,0.1-0.4,0.2-0.6,0.4c-0.3,0.2-0.6,0.3-0.9,0.5c-0.2,0.1-0.4,0.3-0.6,0.4c-0.3,0.2-0.6,0.4-0.9,0.5
		c-0.2,0.1-0.4,0.3-0.6,0.4c-0.3,0.2-0.6,0.4-0.9,0.6c-0.2,0.1-0.4,0.3-0.6,0.4c-0.3,0.2-0.6,0.4-0.9,0.6c-0.2,0.1-0.4,0.3-0.6,0.4
		c-0.3,0.2-0.6,0.5-0.9,0.7c-0.2,0.1-0.4,0.3-0.5,0.4c-0.3,0.3-0.6,0.5-0.9,0.8c-0.2,0.1-0.3,0.3-0.5,0.4c-0.3,0.3-0.6,0.5-0.9,0.8
		c-0.2,0.1-0.3,0.3-0.5,0.4c-0.3,0.3-0.6,0.6-0.9,0.9c-0.1,0.1-0.3,0.3-0.4,0.4c-0.3,0.3-0.7,0.7-1,1c-0.1,0.1-0.2,0.2-0.3,0.3
		c-0.4,0.4-0.7,0.7-1.1,1.1c-0.1,0.1-0.2,0.2-0.2,0.2c-0.4,0.4-0.8,0.9-1.3,1.3c0,0,0,0,0,0.1c-2.2,2.4-4.3,4.9-6.3,7.4
		c0,0,0,0-0.1,0.1c-0.4,0.5-0.7,0.9-1.1,1.4c0,0.1-0.1,0.1-0.1,0.2c-0.3,0.4-0.7,0.9-1,1.3c-0.1,0.1-0.1,0.1-0.2,0.2
		c-0.3,0.4-0.7,0.9-1,1.3c-0.1,0.1-0.1,0.1-0.1,0.2c-0.3,0.4-0.6,0.8-0.9,1.3c-0.1,0.1-0.1,0.2-0.2,0.2c-0.3,0.4-0.6,0.8-0.9,1.2
		c-0.1,0.1-0.1,0.1-0.2,0.2c-0.3,0.4-0.6,0.8-0.9,1.2c0,0-0.1,0.1-0.1,0.1c-0.2,0.2-0.3,0.4-0.5,0.7c-13.7-6.5-28.6-11-44-13.5
		c0.1,0.2,0.1,0.3,0.1,0.5c-0.7-2.2-1.6-4.4-2.9-6.6c0.3-3.9,0.5-14.1-5.8-24.5c1.4-1.3,2.8-3.3,3.5-5.9c1.1-4.2,0.1-8.8-2.9-13.7
		c1.8-3.5,3-9.6-2.8-18.7c1.4-5.3,2.6-19.2-11.9-42.1c-0.9-1.4-2.4-2.1-4-1.8c-1.6,0.2-2.9,1.4-3.3,3c0,0.1-3.4,12.6-6.6,18.3
		c-2.3,4.1-2.7,8.6-1.1,12.6c-1.9,3.1-5.1,10.1-2.1,19.1c-2.1,4.8-3.9,11.9-0.6,19.1c-1.3,5.1-2.2,12.5,0.7,18.6
		c-1.7,5.6-3.2,14-0.5,21.5c0,0,0,0,0,0c-0.1-0.3-0.2-0.6-0.3-0.9c-20.2,1.6-39.8,6.7-57.6,15c-0.1-0.1-0.2-0.3-0.3-0.4
		c-0.1-0.1-0.2-0.2-0.3-0.3c-0.2-0.3-0.5-0.7-0.7-1c-0.1-0.2-0.2-0.3-0.3-0.5c-0.2-0.3-0.5-0.6-0.7-1c-0.1-0.2-0.2-0.3-0.4-0.5
		c-0.2-0.3-0.5-0.6-0.7-1c-0.1-0.2-0.2-0.3-0.4-0.5c-0.2-0.3-0.5-0.7-0.8-1c-0.1-0.2-0.2-0.3-0.4-0.5c-0.3-0.3-0.5-0.7-0.8-1
		c-0.1-0.1-0.2-0.3-0.3-0.4c-0.3-0.4-0.6-0.7-0.8-1.1c-0.1-0.1-0.2-0.3-0.3-0.4c-0.3-0.4-0.6-0.7-0.9-1.1c-0.1-0.1-0.2-0.3-0.3-0.4
		c-0.3-0.4-0.6-0.8-1-1.2c-0.1-0.1-0.2-0.2-0.2-0.3c-0.4-0.5-0.8-1-1.2-1.4c0,0,0,0,0,0c-1.3-1.5-2.6-2.9-3.9-4.3
		c-0.1-0.1-0.2-0.2-0.2-0.2c-0.4-0.4-0.7-0.8-1.1-1.1c-0.1-0.1-0.2-0.2-0.4-0.4c-0.3-0.3-0.7-0.6-1-1c-0.1-0.1-0.3-0.3-0.4-0.4
		c-0.3-0.3-0.6-0.6-0.9-0.9c-0.2-0.1-0.3-0.3-0.5-0.4c-0.3-0.3-0.6-0.5-0.9-0.8c-0.2-0.2-0.4-0.3-0.5-0.5c-0.3-0.2-0.6-0.5-0.9-0.7
		c-0.2-0.2-0.4-0.3-0.6-0.5c-0.3-0.2-0.6-0.5-0.9-0.7c-0.2-0.2-0.4-0.3-0.6-0.4c-0.3-0.2-0.6-0.4-0.9-0.6c-0.2-0.1-0.4-0.3-0.6-0.4
		c-0.3-0.2-0.6-0.4-0.8-0.6c-0.2-0.1-0.4-0.3-0.6-0.4c-0.3-0.2-0.6-0.4-0.8-0.5c-0.2-0.1-0.4-0.3-0.6-0.4c-0.3-0.2-0.6-0.3-0.9-0.5
		c-0.2-0.1-0.4-0.2-0.7-0.4c-0.3-0.2-0.6-0.3-0.9-0.4c-0.2-0.1-0.4-0.2-0.7-0.3c-0.3-0.1-0.6-0.3-0.9-0.4c-0.2-0.1-0.4-0.2-0.7-0.3
		c-0.3-0.1-0.6-0.2-0.9-0.3c-0.2-0.1-0.5-0.2-0.7-0.3c-0.3-0.1-0.6-0.2-0.9-0.3c-0.2-0.1-0.5-0.1-0.7-0.2c-0.3-0.1-0.6-0.2-0.9-0.2
		c-0.2-0.1-0.4-0.1-0.7-0.2c-0.3-0.1-0.6-0.1-1-0.2c-0.2,0-0.4-0.1-0.6-0.1c-0.4-0.1-0.7-0.1-1.1-0.1c-0.2,0-0.4,0-0.5-0.1
		c-0.5,0-1.1-0.1-1.6-0.1c-0.5,0-1,0-1.5,0.1c-0.1,0-0.2,0-0.3,0c-0.4,0.1-0.9,0.2-1.3,0.3c0,0-0.1,0-0.1,0c-1,0.3-2,0.7-3,1.3
		c0,0,0,0,0,0c-2,1.1-3.8,2.8-5.6,5.1c0,0,0,0,0,0c0,0,0,0,0,0c-0.4,0.5-0.7,1-1,1.5c-0.1,0.1-0.1,0.2-0.2,0.2c-1,1.6-2,3.3-3,5.3
		c-9.6,20.1-13,57.4-7.2,81.7c0,0.2,0.1,0.4,0.1,0.6c-6.4,13.5-9.8,27.8-10.3,42.4c-16.9-15.7-35.2-33.6-33.9-59.2
		c0.1-1.3-0.5-2.6-1.6-3.4c-1.1-0.8-2.5-1-3.7-0.6c-9.4,3-16.3,11.1-19.4,22.8c-3,11.1-2.2,24.6,1.5,32.6c-5.2,3.6-8.6,9.4-9.2,15.9
		c-0.7,8.2,3.1,15.9,9.8,20.3c-1.8,2.9-2.9,6.2-3.2,9.6c-1.1,12.2,7.9,23.1,20.2,24.2c5.8,0.5,11.6-1.3,16.1-4.9
		c0.1,0.1,0.1,0.1,0.2,0.2c0.5,0.6,1,1.2,1.5,1.7c0.2,0.2,0.3,0.3,0.5,0.5c0.4,0.4,0.9,0.9,1.4,1.3c0.3,0.3,0.6,0.5,0.9,0.7
		c0.4,0.3,0.7,0.6,1.1,0.8c0.4,0.3,0.9,0.6,1.3,0.8c0.2,0.1,0.5,0.3,0.7,0.5c0,0,0.1,0,0.1,0.1c3.3,1.8,7,3,10.9,3.4
		c0.8,0.1,1.7,0.1,2.5,0.1c0,0,0,0,0,0c1.6,0,3.1-0.1,4.6-0.4c-5.5,17.1-10.7,44.9-2.6,70.2c7.5,23.7,24.9,39.6,51.5,47.2
		c5.1,1.5,10.6,2.8,16.3,4c0.1,0.2,0.2,0.3,0.3,0.5c0.2,0.3,0.4,0.6,0.6,1c0.4,0.5,0.7,1.1,1.1,1.6c0.1,0.1,0.2,0.3,0.3,0.4
		c1.1,1.4,2.4,2.7,3.8,3.8c0,0,0.1,0.1,0.1,0.1c0.6,0.5,1.3,1,2,1.4c0.1,0.1,0.3,0.2,0.4,0.3c0.6,0.4,1.3,0.7,2,1
		c0.2,0.1,0.4,0.2,0.5,0.3c0.8,0.4,1.7,0.7,2.6,1c3.4,1.1,6.7,1.7,9.8,1.7c0.7,0,1.4,0,2.2-0.1c0.1,0,0.2,0,0.3,0
		c0.7-0.1,1.4-0.2,2.1-0.3c0.1,0,0.1,0,0.2,0c0.7-0.1,1.4-0.3,2-0.5c0,0,0,0,0.1,0c0.7-0.2,1.4-0.5,2-0.7c0.1,0,0.2-0.1,0.2-0.1
		c0.6-0.3,1.2-0.5,1.8-0.9c2.2-1.2,4.1-2.6,5.9-4.4c12.1,1,24.9,1.6,37.9,1.6c19.9,0,40.6-1.3,59.8-3.7c0.1,0.1,0.1,0.1,0.2,0.2
		c0.4,0.4,0.9,0.8,1.3,1.1c0.2,0.2,0.5,0.3,0.7,0.5c0.3,0.2,0.5,0.4,0.8,0.6c0.1,0.1,0.3,0.2,0.4,0.3c0.1,0.1,0.2,0.1,0.4,0.2
		c0.5,0.3,1,0.6,1.5,0.8c0.1,0.1,0.3,0.1,0.4,0.2c0.6,0.3,1.2,0.6,1.8,0.8c0,0,0.1,0,0.1,0c0.7,0.3,1.3,0.5,2,0.7
		c0.1,0,0.3,0.1,0.4,0.1c0.5,0.1,1.1,0.3,1.6,0.4c0.2,0,0.4,0.1,0.6,0.1c0.5,0.1,1.1,0.2,1.6,0.2c0.2,0,0.4,0,0.5,0.1
		c0.7,0.1,1.4,0.1,2.2,0.1c2.2,0,4.6-0.3,7-0.8c1-0.2,1.9-0.5,2.8-0.8c0.3-0.1,0.6-0.2,0.8-0.3c0.6-0.2,1.2-0.4,1.8-0.7
		c0.3-0.2,0.7-0.4,1-0.5c0.5-0.3,1-0.5,1.4-0.8c0.4-0.2,0.7-0.5,1.1-0.8c0.4-0.3,0.8-0.5,1.1-0.8c0.4-0.3,0.8-0.7,1.2-1
		c0.3-0.3,0.6-0.5,0.8-0.8c0.4-0.4,0.8-0.9,1.2-1.3c0.2-0.2,0.4-0.5,0.6-0.7c0.4-0.5,0.8-1,1.1-1.6c0.2-0.2,0.3-0.4,0.5-0.7
		c0.4-0.6,0.7-1.2,1-1.8c0.1-0.2,0.2-0.3,0.3-0.5c14.6-3.6,32.9-9.6,41.3-18.1c11.7-11.7,20.7-40.7,18.3-70.8
		c2.4-2.2,5.1-3.4,7.8-3.4c3.6,0,7.1,1.9,9.7,5.2c3.5,4.3,4.6,10.3,3.3,16.3c-0.4,1.7-0.8,3.5-1.2,5.2
		c-5.3,22.3-11.3,47.6,12.5,65.6c5.8,4.4,12.1,6.6,18.9,6.6c0,0,0,0,0,0c12.8,0,23.9-8.2,29.3-16.3c4-6.1,5.2-12.3,3.1-17.1
		c-0.4-1-1.3-1.9-2.4-2.2c-1.1-0.4-2.2-0.3-3.3,0.2c-2.8,1.4-5.3,2.2-7.5,2.2c0,0,0,0,0,0c-2.6,0-4.9-1.1-7-3.3
		c-2.8-3-4.9-7.6-6.4-12.8c4.4,2.5,9.2,3.7,14.2,3.7c3.5,0,7.2-0.6,10.9-1.8c13.8-4.3,24.1-14.5,26.3-26.1
		C492.2,373,489.2,365,482.3,359.4z M415,210.9c5,3.7,7.6,9.6,8.9,14.5c3.3,12.3,0.8,25.8-2.4,29.2c-0.9,1-1.2,2.3-0.9,3.6
		c0.3,1.3,1.2,2.3,2.4,2.9c4.7,2,7.9,6.4,8.3,11.4c0.2,2.1-0.1,4.2-0.9,6.2c-7.3-4.7-15.8-7.7-25-9c-0.1,0-0.2,0-0.3,0
		c-1.1-0.2-2.2-0.3-3.3-0.4c-0.1,0-0.2,0-0.3,0c-0.9-0.1-1.9-0.1-2.8-0.2c-0.3,0-0.6,0-0.9,0c-1,0-2-0.1-3-0.1c-0.1,0-0.1,0-0.2,0
		c-4.5,0-9.1,0.4-13.8,1.1c-1,0.2-2,0.4-3,0.6c-0.1,0-0.2,0-0.3,0.1C393.8,255.6,413.3,237.1,415,210.9z M364.4,298.8
		c0.1-0.3,0.2-0.5,0.2-0.8c0.1-0.5,0.3-0.9,0.4-1.4c1.3-4.4,2.2-8.9,2.9-13.4c0.1,0,0.1-0.1,0.2-0.1c0.2-0.1,0.4-0.2,0.6-0.3
		c0.4-0.2,0.8-0.4,1.1-0.7c0.2-0.1,0.4-0.2,0.6-0.3c0.4-0.2,0.7-0.4,1.1-0.6c0.2-0.1,0.5-0.2,0.7-0.3c0.4-0.2,0.7-0.3,1.1-0.5
		c0.2-0.1,0.5-0.2,0.7-0.3c0.4-0.1,0.8-0.3,1.2-0.4c0.2-0.1,0.5-0.2,0.8-0.3c0.4-0.1,0.8-0.3,1.2-0.4c0.2-0.1,0.5-0.1,0.7-0.2
		c0.5-0.1,0.9-0.2,1.4-0.3c0.2,0,0.4-0.1,0.6-0.1c0.7-0.1,1.4-0.3,2.1-0.4c1.1-0.2,2.2-0.3,3.3-0.5c0.2,0,0.4,0,0.6-0.1
		c1-0.1,1.9-0.2,2.9-0.3c0.1,0,0.1,0,0.2,0c15.5-1.1,29.6,2.5,40.2,10.5c2.5,1.9,4.9,4.1,7,6.5c5,5.5,8.7,12.3,11,19.8
		c-0.1-0.1-0.2-0.2-0.2-0.3c-0.2-0.3-0.5-0.6-0.7-0.9c-0.2-0.3-0.5-0.6-0.7-0.9c-0.3-0.3-0.5-0.6-0.8-0.9c-0.2-0.3-0.5-0.6-0.7-0.8
		c-0.3-0.3-0.6-0.7-0.9-1c-0.2-0.3-0.4-0.5-0.7-0.8c-0.4-0.4-0.8-0.9-1.2-1.3c-0.1-0.1-0.3-0.3-0.4-0.4
		c-7.5-7.5-20.2-16.4-38.1-16.4c-4.5,0-9.2,0.6-13.9,1.7c-1.2,0.3-2.4,0.6-3.5,1c-0.2,0.1-0.5,0.1-0.7,0.2c-1.1,0.4-2.2,0.8-3.2,1.2
		c-0.2,0.1-0.4,0.2-0.6,0.3c-1,0.4-2,0.9-2.9,1.4c-0.1,0-0.2,0.1-0.2,0.1c-1,0.5-1.9,1.1-2.8,1.7c-0.2,0.1-0.4,0.3-0.6,0.4
		c-0.9,0.6-1.8,1.3-2.6,2c-0.1,0.1-0.3,0.2-0.4,0.4c-0.8,0.7-1.5,1.4-2.3,2.1c-0.1,0.1-0.2,0.2-0.3,0.3c-0.8,0.8-1.5,1.6-2.2,2.5
		c-0.2,0.2-0.3,0.4-0.5,0.6c-0.7,0.9-1.4,1.8-2,2.7c0,0-0.1,0.1-0.1,0.1c-0.1-0.1-0.2-0.2-0.2-0.3c-0.4-0.5-0.8-1-1.2-1.5
		c-0.3-0.4-0.6-0.7-0.8-1.1C362.9,303.6,363.7,301.2,364.4,298.8z M242.6,170c-1.1,1.7-3,2.1-3,2.1c-0.2,0-0.4,0.1-0.5,0.1
		c-7.6,2.2-13.6,2.2-17.3,0.1c-2.8-1.6-3.4-4-3.4-4c-0.1-0.4-0.2-0.7-0.4-1.1c-1.7-3.3-1.9-8.3-1.4-13.3c8.1,6.7,21,9.7,26.9,10.8
		C243.7,167,243.4,168.8,242.6,170z M240.2,143.2c2.9,4.6,3.4,9.8,3.2,13.2c-7.8-1.7-20.6-5.6-24.7-12.1c-0.1-0.2-1.8-11.7-2.1-11.7
		c0.1-0.7,0.2-1.3,0.3-2c5.7,4.7,13,7.9,18.5,10.3C237.3,141.8,238.9,142.5,240.2,143.2z M238.7,133.6c-6.5-2.8-14.5-6.4-19.4-11.7
		c0.4-1.1-2.2-7.5-2.7-7.5c0-0.8,0-1.6,0-2.5c4,2.8,10,6.1,16.1,6.1c0.4,0,0.8,0,1.2,0c3.8,5.8,4.9,11.7,5.2,15.8
		C239,133.7,238.8,133.6,238.7,133.6z M220.6,57.4c1.6-2.9,3.2-7.2,4.5-11c6.5,12.5,7.1,20.8,6.7,25.2c-8.5-3.1-11.1-6.5-11.9-8.4
		C219.2,61.4,219.4,59.5,220.6,57.4z M217.9,73.3c3.4,2.8,8.2,5.1,14.3,7c3.8,5.9,3.5,9.5,2.5,11.2c-8.2,0.9-14.1-4.4-15.6-5.9
		c0.4-0.6-1.3-7.4-2-7.5C217.2,76.2,217.5,74.6,217.9,73.3z M216.2,93.6c3.4,2.7,9.2,6,16.7,6c0.8,0,1.6,0,2.5-0.1
		c1.6,2.8,2.3,5.2,1.8,7c-0.3,1-0.8,1.8-1.4,2.3c-1-0.1-2.1,0.2-3,0.8c-0.1,0.1-0.1,0.1-0.2,0.2c-5-0.1-11.2-4.4-14.1-6.8
		c0.2-0.7-2.2-7.3-2.5-7.4C216,95,216.1,94.3,216.2,93.6z M91,232.6c1,2,2.2,3.9,3.4,5.4c0.8,1,2,1.5,3.2,1.5c0.9,0,1.8-0.3,2.6-0.9
		c1.7-1.4,2-4,0.6-5.7c-12.4-15.3-10.2-67.8,0.6-90.5c0.3-0.7,0.6-1.3,1-1.9c0-0.1,0.1-0.2,0.1-0.3c0.1-0.3,0.3-0.5,0.4-0.8
		c0.2-0.4,0.4-0.7,0.7-1.1c0.1-0.1,0.2-0.3,0.3-0.4c0.3-0.4,0.6-0.8,0.8-1.2c0.1-0.2,0.3-0.4,0.4-0.5c0,0,0.1-0.1,0.1-0.1
		c0,0,0.1-0.1,0.1-0.1c0.2-0.2,0.3-0.4,0.5-0.5c0,0,0,0,0,0c0.2-0.2,0.4-0.4,0.6-0.6c0,0,0.1-0.1,0.1-0.1c0.2-0.2,0.3-0.3,0.5-0.4
		c0.1,0,0.1-0.1,0.2-0.1c0.2-0.1,0.3-0.2,0.5-0.4c0.1,0,0.1-0.1,0.2-0.1c0.2-0.1,0.4-0.3,0.7-0.3c0,0,0,0,0.1,0
		c0.2-0.1,0.4-0.2,0.6-0.2c0.1,0,0.1,0,0.2,0c0.2,0,0.5-0.1,0.7-0.1c0.5,0,1.1,0,1.6,0.1c13,1.5,26.4,19.8,35.4,32.1
		c3.5,4.7,6.2,8.5,8.5,10.8c1.6,1.6,4.2,1.6,5.7,0c1.6-1.6,1.6-4.2,0-5.7c-1.1-1.1-2.6-3-4.3-5.2c16-7.3,33.6-11.9,51.7-13.5
		c-0.8,6.4-0.6,13.4,1.9,18.7c0.5,1.6,2.1,5.7,6.8,8.6c3.2,1.9,7,2.9,11.5,2.9c3.7,0,7.8-0.6,12.3-1.9c1.3-0.3,5.4-1.4,8.1-5.4
		c2.4-3.5,3-8,1.9-13.5c0.3-1.5,0.6-4.6,0.3-8.4c0,0.3,0.1,0.6,0.1,0.9c13.1,2.3,25.8,6.2,37.6,11.7c-1.6,2.2-3.1,4-4.2,5.1
		c-1.6,1.6-1.6,4.2,0,5.7c1.6,1.6,4.2,1.6,5.7,0c2.2-2.2,4.7-5.6,7.9-10c0,0,0,0,0,0l0.1-0.1c0.2-0.2,0.3-0.4,0.5-0.7
		c9.4-12.8,23.5-32.2,37-32.2c0.2,0,0.5,0,0.7,0.1c0.1,0,0.1,0,0.2,0c0.2,0.1,0.4,0.1,0.6,0.2c0,0,0,0,0,0c0.2,0.1,0.4,0.2,0.7,0.3
		c0.1,0,0.1,0.1,0.2,0.1c0.2,0.1,0.3,0.2,0.5,0.3c0.1,0,0.1,0.1,0.2,0.1c0.2,0.1,0.4,0.3,0.5,0.4c0,0,0.1,0.1,0.1,0.1
		c0.4,0.4,0.8,0.8,1.2,1.2c0.2,0.2,0.4,0.5,0.6,0.7c0.3,0.4,0.6,0.8,0.8,1.2c0.1,0.2,0.2,0.3,0.3,0.5c0.2,0.3,0.4,0.6,0.6,1
		c0.5,0.9,1,1.9,1.5,2.9c8.7,18.3,11.8,56,6.2,77.9c-0.1,0.2-0.1,0.4-0.2,0.6c-1.3,5-3.1,9.1-5.4,12c-1.4,1.7-1.1,4.3,0.6,5.7
		c0.8,0.6,1.7,0.9,2.6,0.9c1.2,0,2.4-0.5,3.2-1.5c1.2-1.5,2.3-3.2,3.2-5.1c4.1,11.1,6.1,22.5,6.1,34.3c0,3.3-0.2,6.5-0.5,9.7
		c-0.1,1.1-0.2,2.1-0.4,3.2c0,0.1,0,0.1,0,0.1c-0.8,6.3-2.3,12.4-4.3,18.4c-0.9,2.6-1.8,5.1-2.9,7.6c-0.2,0.6-0.5,1.2-0.8,1.7
		c-0.6,1.4-1.3,2.7-1.9,4.1c-0.1,0.1-0.1,0.2-0.2,0.3c-11.8,23.3-32.4,42.8-58.3,55.4c-0.2,0.1-0.3,0.2-0.5,0.3
		c-0.9,0.4-1.8,0.8-2.6,1.2c-1,0.5-2,0.9-3.1,1.4c-0.6,0.3-1.2,0.5-1.8,0.7c-0.9,0.4-1.8,0.8-2.8,1.1c-0.4,0.2-0.8,0.3-1.2,0.5
		c-1.4,0.5-2.8,1-4.2,1.5c-0.3,0.1-0.5,0.2-0.8,0.3c-3.1,1.1-6.3,2-9.5,2.9c0,0-0.1,0-0.1,0c-8.4,2.3-17.1,3.9-26,4.8
		c-0.2,0-0.3,0-0.5,0c-1.7,0.2-3.3,0.3-5,0.4c0,0-0.1,0-0.1,0c-1.6,0.1-3.3,0.2-4.9,0.2c-0.3,0-0.7,0-1,0c-1.6,0-3.3,0.1-4.9,0.1
		c-1.5,0-3.1,0-4.6-0.1c-0.3,0-0.7,0-1,0c-1.5-0.1-3-0.1-4.4-0.2c0,0,0,0,0,0c-24.9-1.5-48.5-8.7-68.5-20.4
		c-0.3-0.1-0.5-0.3-0.8-0.4c-1.1-0.6-2.2-1.3-3.3-2c-0.6-0.4-1.1-0.7-1.7-1.1c-0.5-0.3-0.9-0.6-1.4-0.9
		c-17.9-11.9-32.2-27.5-41.3-45.3c-0.2-0.4-0.4-0.8-0.6-1.3c-0.6-1.2-1.2-2.4-1.7-3.7c-0.3-0.6-0.5-1.1-0.7-1.7
		c-0.5-1.1-0.9-2.1-1.3-3.2c-0.3-0.7-0.6-1.5-0.8-2.2c-0.3-0.8-0.6-1.6-0.8-2.4c-0.3-1-0.7-2.1-1-3.1c-0.2-0.6-0.3-1.2-0.5-1.7
		c-0.4-1.3-0.7-2.6-1-3.9c-0.1-0.4-0.2-0.9-0.3-1.3c-0.3-1.4-0.6-2.9-0.9-4.3c0-0.3-0.1-0.6-0.1-0.8c-0.3-1.6-0.5-3.2-0.7-4.8
		c0-0.1,0-0.2,0-0.3c-0.2-1.7-0.3-3.5-0.4-5.3c0,0,0,0,0,0c-0.1-1.9-0.2-3.7-0.2-5.6C84.7,255.4,86.8,243.8,91,232.6z M250.5,146.7
		c0.1,0.5,0.3,1,0.4,1.5C250.7,147.7,250.6,147.2,250.5,146.7z M251.1,149.3c0.1,0.4,0.1,0.7,0.2,1.1
		C251.2,150.1,251.1,149.7,251.1,149.3z M251.3,151.1c0,0.4,0.1,0.8,0.1,1.1C251.4,151.9,251.4,151.5,251.3,151.1z M72.6,322.7
		c-3-0.3-5.9-1.3-8.4-2.8c-0.2-0.1-0.5-0.3-0.7-0.4c-0.5-0.4-1.1-0.8-1.6-1.2c0,0-0.1-0.1-0.1-0.1c-0.6-0.5-1.1-1-1.7-1.6
		c0,0,0,0-0.1-0.1c-0.5-0.5-0.9-1.1-1.4-1.7c-0.1-0.1-0.1-0.2-0.2-0.2c-0.4-0.6-0.7-1.1-1.1-1.7c-0.7-1.3-1.3-2.7-1.7-4.1
		c-1.4-4.9-0.7-10.1,1.8-14.5c1.1-1.9,0.4-4.4-1.5-5.5c-1.9-1.1-4.4-0.4-5.5,1.5c-3.6,6.3-4.5,13.7-2.6,20.7c0.3,1,0.6,1.9,0.9,2.8
		c-2.9,2.9-7,4.3-11.1,4c-7.8-0.7-13.5-7.6-12.8-15.4c0.3-3.3,1.8-6.5,4.2-8.8c1-1,1.4-2.4,1.1-3.8c-0.3-1.4-1.3-2.5-2.7-2.9
		c-6-2-9.9-7.9-9.3-14.3c0.5-5.1,3.7-9.4,8.3-11.4c1.2-0.5,2.1-1.6,2.4-2.9c0.3-1.3-0.1-2.6-0.9-3.6c-3.1-3.5-5.7-16.9-2.4-29.2
		c1.3-4.8,3.8-10.7,8.9-14.5c1.8,26.7,21.9,45.3,38.4,60.5c1.3,1.2,2.6,2.4,3.8,3.6c0,0.1,0,0.1,0,0.2c0.2,3,0.6,6.1,1.1,9
		c0.1,0.4,0.1,0.8,0.2,1.2c0.2,1.3,0.5,2.5,0.7,3.8c0.1,0.6,0.3,1.2,0.4,1.9c0.2,0.7,0.3,1.3,0.5,2c1.7,6.9,4.1,13.7,7.2,20.3
		c-0.1,0.1-0.3,0.2-0.4,0.3c-0.1,0.1-0.2,0.1-0.3,0.2c-0.2,0.2-0.4,0.4-0.6,0.6c-1.1,1.4-2.4,4.1-3.4,6.6
		C79.3,322.4,75.9,323,72.6,322.7z M358.2,424.6c-5.2,5.2-16.6,10.3-32.6,14.7c2.3-12.8-1.3-27.1-3.9-32c-1-2-3.5-2.8-5.5-1.7
		c-2,1-2.8,3.5-1.7,5.5c2.6,4.9,6,21.8,1.3,32.6c-0.2,0.5-0.4,1-0.7,1.4c-0.1,0.1-0.2,0.3-0.2,0.4c-0.3,0.5-0.5,0.9-0.8,1.3
		c-0.1,0.1-0.2,0.3-0.3,0.4c-0.3,0.4-0.6,0.8-0.9,1.1c-0.1,0.1-0.2,0.3-0.3,0.4c-0.3,0.3-0.7,0.7-1,1c-0.1,0.1-0.3,0.2-0.4,0.4
		c-0.4,0.3-0.7,0.6-1.1,0.8c-0.2,0.1-0.3,0.2-0.5,0.3c-0.4,0.2-0.8,0.5-1.2,0.7c-0.2,0.1-0.3,0.2-0.5,0.3c-0.4,0.2-0.9,0.4-1.4,0.5
		c-0.2,0.1-0.3,0.1-0.5,0.2c-0.6,0.2-1.3,0.4-2,0.6c-0.9,0.2-1.7,0.3-2.5,0.4c-0.2,0-0.4,0-0.6,0.1c-0.6,0.1-1.2,0.1-1.8,0.1
		c-0.2,0-0.4,0-0.6,0c-0.4,0-0.7,0-1.1,0c-0.2,0-0.5,0-0.7-0.1c-0.4,0-0.7-0.1-1.1-0.2c-0.2,0-0.4-0.1-0.6-0.1
		c-0.4-0.1-0.7-0.2-1.1-0.3c-0.2-0.1-0.3-0.1-0.5-0.2c-0.4-0.1-0.7-0.3-1.1-0.4c-0.1-0.1-0.3-0.1-0.4-0.2c-0.4-0.2-0.7-0.4-1.1-0.6
		c-0.1-0.1-0.2-0.1-0.4-0.2c-0.3-0.2-0.7-0.4-1-0.7c-0.2-0.1-0.3-0.2-0.4-0.3c-0.3-0.3-0.6-0.5-1-0.8c-0.1-0.1-0.2-0.2-0.3-0.3
		c-0.3-0.3-0.7-0.7-1-1c0,0,0,0,0,0c-6.1-6.7-8.7-18.8-10.6-30.1c-0.4-2.2-2.4-3.7-4.6-3.4c-2.2,0.4-3.7,2.4-3.4,4.6
		c1.6,10.3,3.9,20.4,8.3,28.3c-17.5,2-36,3.1-54,3.1c-10.9,0-21.6-0.4-31.9-1.2c4.1-6.9,6.9-15.5,9.2-24.1c0.6-2.2-0.7-4.4-2.8-5
		c-2.2-0.6-4.4,0.7-5,2.8c-2.7,10.1-6.3,20.7-12,27.1c-0.3,0.3-0.6,0.6-0.9,0.9c-0.1,0.1-0.1,0.1-0.2,0.2c-0.5,0.5-1,1-1.6,1.4
		c-0.1,0.1-0.3,0.2-0.4,0.3c-0.3,0.2-0.5,0.4-0.8,0.5c-0.2,0.1-0.4,0.2-0.6,0.4c-0.5,0.3-1,0.5-1.5,0.8c-0.1,0.1-0.3,0.1-0.4,0.2
		c-0.3,0.1-0.5,0.2-0.8,0.3c-0.2,0.1-0.4,0.1-0.6,0.2c-0.2,0.1-0.5,0.1-0.7,0.2c-0.3,0.1-0.7,0.2-1,0.2c-0.2,0-0.5,0.1-0.8,0.1
		c-0.4,0-0.7,0.1-1.1,0.1c-0.2,0-0.4,0-0.6,0c-0.4,0-0.8,0-1.2,0c-0.1,0-0.3,0-0.4,0c-0.5,0-1.1-0.1-1.7-0.2c-0.1,0-0.3,0-0.4-0.1
		c-0.5-0.1-0.9-0.2-1.4-0.3c-0.2,0-0.3-0.1-0.5-0.1c-0.6-0.2-1.2-0.3-1.8-0.5c-0.6-0.2-1.2-0.4-1.8-0.7c-0.2-0.1-0.4-0.2-0.6-0.3
		c-0.3-0.2-0.7-0.3-1-0.5c-0.3-0.1-0.5-0.3-0.7-0.5c-0.3-0.2-0.5-0.3-0.7-0.5c-0.3-0.2-0.5-0.4-0.8-0.6c-0.2-0.2-0.4-0.3-0.5-0.5
		c-0.3-0.3-0.5-0.5-0.8-0.8c-0.1-0.1-0.2-0.3-0.4-0.4c-0.3-0.3-0.5-0.6-0.8-1c-0.1-0.1-0.1-0.2-0.2-0.3c-0.3-0.4-0.5-0.8-0.8-1.2
		c0,0,0,0,0,0c-0.3-0.5-0.5-1-0.8-1.5c0,0,0,0,0,0c-0.2-0.5-0.4-1-0.6-1.5c-3.9-11.3,1.5-28.2,4.6-33c1.2-1.9,0.7-4.4-1.1-5.6
		c-1.9-1.2-4.4-0.7-5.6,1.1c-3.4,5-9.2,21.2-6.8,35.2c-3.8-0.9-7.5-1.8-10.9-2.8c-23.7-6.8-39.1-20.8-45.9-41.5
		c-8.9-27.2-0.6-58.9,4.7-72.6c0.1-0.2,0.2-0.4,0.3-0.7c0.7-1.8,1.3-3.2,1.8-4.1c10.3,18.1,25.4,33.4,43.7,45.1
		c0.3,0.2,0.6,0.4,0.9,0.6c0.6,0.4,1.3,0.8,1.9,1.2c0.9,0.5,1.8,1.1,2.7,1.6c0.2,0.1,0.5,0.3,0.7,0.4c20.7,11.9,45.1,19.4,71.4,21
		c0.1,0,0.2,0,0.3,0c1.5,0.1,2.9,0.2,4.4,0.2c0.4,0,0.7,0,1.1,0c1.6,0,3.2,0.1,4.8,0.1c1.7,0,3.3,0,5-0.1c0.4,0,0.8,0,1.1,0
		c3.4-0.1,6.8-0.3,10.2-0.7c0.2,0,0.4,0,0.5-0.1c14.4-1.4,28.3-4.6,41.1-9.3c0.2-0.1,0.4-0.2,0.7-0.2c1.3-0.5,2.6-1,4-1.5
		c0.2-0.1,0.5-0.2,0.7-0.3c1.3-0.5,2.5-1.1,3.8-1.6c0.7-0.3,1.3-0.6,2-0.9c0.5-0.2,1.1-0.5,1.6-0.7c28.7-13.4,51.8-34.9,64.7-61.5
		c1,1.3,1.9,2.7,2.8,4.2c0,0,0,0,0,0c5.2,8.4,8.9,18,11.1,28.5c0,0,0,0,0,0c0.8,3.7,1.3,7.5,1.7,11.3c0,0.3,0.1,0.6,0.2,0.8
		C376.4,388.1,367.3,415.5,358.2,424.6z M439.6,424.1c3.7,3.9,8,5.8,12.9,5.8c0,0,0,0,0,0c1.8,0,3.7-0.3,5.6-0.8
		c-0.4,1.6-1.2,3.4-2.4,5.2c-4.2,6.3-12.8,12.7-22.5,12.7c-4.9,0-9.7-1.7-14-4.9c-19.6-14.8-14.7-35.4-9.5-57.2
		c0.4-1.8,0.8-3.5,1.2-5.3c1.9-8.5,0.2-16.9-4.8-23.2c-4.2-5.2-10-8.2-16.1-8.2c-2.4,0-5.6,0.5-8.9,2.3c-0.2-1-0.3-2-0.5-3.1
		c0.8-1,1.7-1.9,2.6-2.7c0.1-0.1,0.2-0.2,0.3-0.2c0.2-0.2,0.5-0.4,0.7-0.6c0.1-0.1,0.3-0.2,0.4-0.3c0.2-0.2,0.5-0.3,0.7-0.5
		c0.1-0.1,0.3-0.2,0.4-0.3c0.2-0.1,0.4-0.3,0.7-0.4c0.2-0.1,0.3-0.2,0.5-0.3c0.2-0.1,0.5-0.3,0.7-0.4c0.2-0.1,0.3-0.2,0.5-0.3
		c0.2-0.1,0.5-0.2,0.7-0.3c0.2-0.1,0.4-0.2,0.6-0.2c0.2-0.1,0.5-0.2,0.7-0.3c0.2-0.1,0.4-0.1,0.6-0.2c0.2-0.1,0.5-0.2,0.7-0.2
		c0.2-0.1,0.4-0.1,0.6-0.2c0.2-0.1,0.5-0.1,0.7-0.2c0.2,0,0.4-0.1,0.7-0.1c0.2,0,0.5-0.1,0.7-0.1c0.2,0,0.5-0.1,0.7-0.1
		c0.2,0,0.5-0.1,0.7-0.1c0.3,0,0.5,0,0.8-0.1c0.2,0,0.5,0,0.7,0c0.3,0,0.6,0,0.9,0c0.2,0,0.4,0,0.6,0c0.5,0,1,0,1.5,0.1
		c22.9,1.7,28.7,30.3,28.1,40c0,0.4,0,0.9-0.1,1.5c0,0.3,0,0.7,0,1.1c0,0.1,0,0.1,0,0.2c0,1.8,0,3.6,0.1,5.6
		C428.6,398.6,431.3,415.3,439.6,424.1z M482.6,380c-1.7,8.7-9.8,16.5-20.8,19.9c-9.9,3.1-17.9,1.1-25.1-6.3
		c-0.5-4.3-0.7-8.1-0.7-11c0-0.2,0-0.3,0-0.5c0-0.3,0-0.6,0-0.9c0-0.5,0-1.1,0.1-1.5c0.9-15.9-8.5-46.5-35.6-48.5
		c-1-0.1-1.9-0.1-2.8-0.1c-0.2,0-0.5,0-0.7,0c-0.9,0-1.7,0.1-2.6,0.1c-0.1,0-0.2,0-0.3,0c-0.8,0.1-1.6,0.2-2.4,0.4
		c-0.3,0.1-0.6,0.1-0.8,0.2c-0.7,0.2-1.4,0.3-2.1,0.5c-0.3,0.1-0.5,0.2-0.8,0.2c-0.6,0.2-1.3,0.4-1.9,0.7c-0.3,0.1-0.6,0.3-0.9,0.4
		c-0.6,0.3-1.1,0.5-1.7,0.8c-0.3,0.2-0.6,0.3-0.9,0.5c-0.5,0.3-1.1,0.6-1.6,1c-0.3,0.2-0.5,0.4-0.8,0.6c-0.5,0.4-1,0.8-1.5,1.2
		c-0.1,0.1-0.2,0.2-0.3,0.3c-2.1-7.5-5.1-14.8-9.1-21.6c0,0,0-0.1,0.1-0.1c0.5-1,1.1-2,1.7-2.9c0,0,0-0.1,0.1-0.1
		c0.6-0.9,1.3-1.8,2-2.6c0.1-0.1,0.1-0.2,0.2-0.3c0.7-0.8,1.4-1.5,2.1-2.2c0.1-0.1,0.2-0.2,0.3-0.3c0.7-0.7,1.5-1.3,2.3-1.9
		c0.1-0.1,0.3-0.2,0.4-0.3c0.8-0.6,1.6-1.2,2.5-1.7c0.1-0.1,0.3-0.2,0.4-0.2c0.9-0.5,1.8-1,2.7-1.4c0.1-0.1,0.3-0.1,0.4-0.2
		c1-0.4,2-0.9,3-1.2c0.1,0,0.2-0.1,0.3-0.1c1.1-0.4,2.2-0.7,3.4-1c4-1,8.1-1.5,11.9-1.5c15.2,0,26,7.6,32.4,14
		c8.1,8.1,11.5,16.6,11.5,18.6c0,0.4,0,0.8,0,1.3c0,0.2,0,0.5,0.1,0.8c0,0.2,0,0.5,0.1,0.7c0,0.3,0.1,0.7,0.1,1.1
		c0,0.2,0.1,0.4,0.1,0.6c0.1,0.4,0.1,0.8,0.2,1.2c0,0.3,0.1,0.5,0.1,0.8c0.1,0.4,0.1,0.7,0.2,1.1c0.1,0.4,0.1,0.7,0.2,1.1
		c0.1,0.3,0.2,0.7,0.2,1c0.1,0.4,0.2,0.9,0.3,1.3c0.1,0.3,0.2,0.6,0.2,0.9c0.1,0.5,0.3,1,0.4,1.5c0.1,0.3,0.2,0.6,0.3,0.9
		c0.2,0.5,0.3,1,0.5,1.6c0,0.1,0,0.1,0.1,0.2c0,0,0,0,0,0.1c2.1,6.3,5.2,13,9.6,17.4c3.5,3.5,7.4,5.3,11.7,5.3c0,0,0,0,0,0
		c2.6,0,5.3-0.7,8-2.1C482.3,371.1,483.5,375.4,482.6,380z"/>
</g>
</svg>
