<?xml version='1.0' encoding='utf-8'?>
<svg xmlns="http://www.w3.org/2000/svg" version="1.1" x="0px" y="0px" viewBox="0 0 750 500" style="enable-background:new 0 0 750 500;" xml:space="preserve">
<g id="Objects">
	<g>
		<g>
			<path style="fill:#AE71E2;" d="M623.167,167.86c-0.711-0.881-1.828-1.474-2.948-1.519c-1.226-0.05-2.494,0.552-3.262,1.511     c0.353,1.374,0.531,2.894,0.514,4.542c-0.049,4.675-1.394,9.08-3.785,12.857c1.365,1.123,3.281,1.793,5.13,1.752     c2.365-0.053,4.23-1.178,5.13-1.843c1.296-0.958,2.302-2.139,3.315-3.402c-0.436-0.506-0.847-1.026-1.231-1.572     C623.319,176.334,622.3,171.839,623.167,167.86z" />
			<path style="fill:#D999FF;" d="M649.023,167.103c-1.694,0.156-3.339,1.263-5.027,3.383c-0.549,0.688-1.436,1.016-2.299,0.85     c-0.864-0.166-1.565-0.799-1.819-1.641c-0.947-3.139-2.794-5.364-4.941-5.951c-0.367-0.1-0.745-0.148-1.128-0.148     c-2.342,0-4.842,1.793-5.746,4.315c-1.015,2.835-0.31,6.495,1.839,9.55c1.976,2.806,4.893,4.96,9.684,7.129     c2.909-0.598,5.92-1.326,8.563-2.654c2.928-1.471,5.092-3.588,6.095-5.963c1.064-2.522,0.7-5.484-0.885-7.204     C652.275,167.595,650.613,166.957,649.023,167.103z" />
			<path style="fill:#AE71E2;" d="M648.589,162.388c1.432-0.133,2.87,0.06,4.209,0.528c0.86-1.72,1.17-3.597,0.845-5.263     c-0.382-1.967-1.707-3.662-3.372-4.319c-1.614-0.634-3.663-0.178-4.662,1.041c-0.176,0.215-0.382,0.389-0.606,0.525     c-0.218,2.875-1.643,5.654-3.849,7.458c0.655,0.727,1.25,1.553,1.769,2.466C644.694,163.376,646.568,162.575,648.589,162.388z" />
			<path style="fill:#D999FF;" d="M614.777,163.415c1.603-1.212,3.62-1.886,5.632-1.805c1.733,0.069,3.426,0.702,4.822,1.732     c2.601-3.406,7.03-5.239,10.956-4.165c0.293,0.08,0.581,0.178,0.866,0.287c0.128-0.115,0.269-0.219,0.426-0.306     c1.947-1.083,3.128-3.602,2.749-5.859c-0.376-2.241-2.294-4.194-4.461-4.544c-2.154-0.349-4.544,0.898-5.563,2.895     c-0.482,0.945-1.534,1.455-2.576,1.245c-1.041-0.21-1.815-1.086-1.894-2.145c-0.196-2.632-1.286-4.717-2.989-5.719     c-1.599-0.941-3.747-0.942-5.346-0.001c-1.627,0.955-2.731,2.899-2.75,4.837c-0.001,0.131-0.015,0.259-0.038,0.385     c1.414,3.86,1.047,8.35-1.153,11.87C613.938,162.503,614.378,162.937,614.777,163.415z" />
			<path style="fill:#AE71E2;" d="M590.514,164.916c2.087,0.232,4.117,1.094,5.767,2.459c1.379-1.994,3.011-3.856,5.148-5.232     c2.051-1.32,4.826-2.149,7.532-1.842c2.472-3.13,2.314-8.08-0.357-11.043c-1.79-1.987-4.589-2.903-6.81-2.226     c-1.082,0.329-2.033,1.136-2.545,2.158c-0.362,0.723-0.681,1.901-0.139,3.403c0.377,1.044-0.021,2.209-0.958,2.803     c-0.936,0.595-2.16,0.46-2.944-0.325c-1.281-1.283-3.602-1.558-5.285-0.625c-1.705,0.944-2.814,3.054-2.696,5.133     C587.345,161.637,588.634,163.732,590.514,164.916z" />
			<path style="fill:#CAD0FC;" d="M667.69,65.72c0,2.53-0.99,4.91-2.78,6.7c-1.78,1.79-4.16,2.77-6.7,2.77h-36.67     c0.18-3.42-0.1-6.98-0.1-10.33c0-2.36-3.67-2.36-3.67,0c0,3.35-0.28,6.91-0.1,10.33h-37.01c-0.05-3.14-0.33-6.32-0.42-9.44     c-0.07-2.11-3.33-2.12-3.29,0c0.07,3.12-0.04,6.29,0.08,9.43c-5.09-0.15-9.18-4.34-9.18-9.46c0-5.22,4.25-9.47,9.47-9.47h17.59     c0.16,3.66,0.33,7.34,0.62,10.99c0.16,1.94,3.04,2,3.07,0c0.05-3.66-0.03-7.34-0.12-10.99h46.71c-0.05,0.17-0.08,0.36-0.08,0.57     c0.01,3.62,0,7.21,0.5,10.8c0.19,1.36,2.56,1.36,2.75,0c0.5-3.59,0.49-7.18,0.5-10.8c0-0.21-0.03-0.4-0.09-0.57h9.44     C663.44,56.25,667.69,60.5,667.69,65.72z" />
			<path style="fill:#D999FF;" d="M610.324,165.688c-1.872-1.297-4.594-0.683-6.332,0.436c-2.263,1.457-3.91,3.93-5.352,6.384     c-0.423,0.72-1.194,1.163-2.028,1.168h-0.014c-0.829,0-1.598-0.433-2.027-1.143c-1.096-1.816-3.166-2.947-5.172-2.947     c-0.435,0-0.868,0.054-1.286,0.164c-2.289,0.608-4.258,2.828-4.788,5.401c-0.518,2.509,0.197,5.425,1.911,7.797     c1.586,2.196,4.024,4.025,7.047,5.29c2.367,0.99,5.05,1.661,8.628,2.152c7.335-3.47,11.741-10.171,11.824-18.046     C612.752,170.856,612.548,167.228,610.324,165.688z" />
			<path style="fill:#E9EDFF;" d="M653.95,82.29h-72.37c-8.99,4.48-14.76,13.75-14.76,23.83v84.11c0,5.11,4.16,9.27,9.28,9.27h83.34     c5.11,0,9.27-4.16,9.27-9.27v-84.11C668.71,96.04,662.94,86.77,653.95,82.29z M661.34,100.26c1.13,1.8,1.89,3.87,1.79,6.03     c-0.08,1.81-2.67,2.22-3.18,0.43c-0.02-0.09-0.05-0.17-0.07-0.26c-0.44-1.52-0.93-2.96-1.78-4.31c-0.47-0.74-0.35-1.45,0.06-1.97     C658.89,99.25,660.52,98.95,661.34,100.26z M575.53,98.45c1.38-1.97,4.64-0.07,3.25,1.9c-1.5,2.11-2.65,4.56-3.26,7.07     c-0.4,1.65-3.13,1.31-2.99-0.4C572.8,103.83,573.7,101.08,575.53,98.45z M576.73,190.87c-3.95-4.03-4.08-9.96-4.2-15.24     c-0.14-6.83-0.23-13.66-0.28-20.49c-0.12-13.91-0.44-27.85-0.75-41.77c-0.04-2.2,3.39-2.19,3.42,0     c0.2,13.26,0.36,26.55,0.74,39.8c0.19,6.7,0.38,13.4,0.49,20.1c0.08,5.32-0.57,11.4,2.84,15.86     C580,190.45,577.83,192,576.73,190.87z M662.58,151.72c-0.24,6.42-0.28,12.86-0.38,19.28c-0.1,6.31,0.19,12.76-0.38,19.04     c-0.06,0.62-0.36,1.06-0.75,1.32c-0.54,1.37-1.55,2.07-2.78,2.41c-0.58,0.17-1.22,0.25-1.88,0.28c-2.78,0.13-5.64,0.04-8.43,0.01     c-5.87-0.07-11.77-0.27-17.63-0.57c-2.13-0.11-2.14-3.39,0-3.31c4.85,0.19,9.71,0.35,14.56,0.15c2.43-0.1,4.86-0.17,7.29-0.26     c1.38-0.04,4.55,0.33,5.48-0.85c0.2-0.27,0.46-0.43,0.73-0.53c-0.12-3.56-0.01-7.15,0.13-10.74c-1.46,3.36-4.39,6.27-8.26,8.22     c-3.4,1.7-7.05,2.52-10.5,3.21c-0.15,0.03-0.31,0.05-0.47,0.05c-0.32,0-0.64-0.07-0.94-0.2c-3.11-1.36-5.59-2.74-7.62-4.25     c-1.1,1.35-2.35,2.77-3.99,3.99c-2.33,1.72-5.12,2.7-7.83,2.77h-0.28c-2.85,0-5.71-1.02-7.87-2.75c-2.34,2.48-5.22,4.54-8.55,6     c-0.3,0.14-0.63,0.2-0.95,0.2c-0.1,0-0.2,0-0.3-0.02c-4.36-0.55-7.6-1.34-10.52-2.56c-3.83-1.61-6.96-3.99-9.06-6.89     c-2.52-3.48-3.5-7.68-2.71-11.52c0.73-3.56,3.08-6.63,6.12-8.21c-1.35-1.8-2.18-3.95-2.31-6.14c-0.22-3.89,1.84-7.73,5.13-9.55     c2.04-1.13,4.42-1.41,6.61-0.92c0.15-0.8,0.4-1.57,0.78-2.31c1.09-2.19,3.06-3.86,5.39-4.57c3.56-1.08,7.71-0.04,10.71,2.6     c0.89-1.71,2.23-3.18,3.88-4.15c3.08-1.82,7.06-1.81,10.15,0c1.83,1.08,3.26,2.74,4.18,4.81c2.09-1.42,4.69-2.08,7.19-1.68     c3.16,0.51,5.95,2.69,7.42,5.57c2.33-1.44,5.4-1.77,8.07-0.72c3.18,1.25,5.59,4.25,6.28,7.82c0.56,2.84,0.01,5.99-1.5,8.75     c0.01,0.02,0.03,0.04,0.05,0.06c0.87,0.94,1.54,2.06,2,3.27c0.13-5.7,0.29-11.41,0.28-17.11c-0.01-12.87,0.63-25.71,0.85-38.57     c0.01-0.53,0.22-0.92,0.54-1.17c0.92-0.76,2.69-0.36,2.66,1.17C662.91,126.01,663.07,138.86,662.58,151.72z" />
			<path style="fill:#2D0303;" d="M575.519,107.421c0.614-2.515,1.764-4.958,3.259-7.07c1.397-1.974-1.867-3.871-3.244-1.897     c-1.835,2.631-2.734,5.381-2.999,8.564C572.391,108.733,575.118,109.067,575.519,107.421z" />
			<path style="fill:#2D0303;" d="M576.146,173.268c-0.103-6.7-0.294-13.396-0.486-20.096c-0.381-13.252-0.54-26.54-0.738-39.798     c-0.033-2.198-3.466-2.203-3.418,0c0.305,13.914,0.63,27.853,0.742,41.769c0.054,6.831,0.141,13.659,0.288,20.49     c0.114,5.273,0.251,11.21,4.195,15.235c1.106,1.129,3.272-0.416,2.258-1.743C575.58,184.669,576.227,178.588,576.146,173.268z" />
			<path style="fill:#2D0303;" d="M658.097,102.153c0.903,1.427,1.392,2.952,1.852,4.564c0.509,1.79,3.103,1.384,3.183-0.43     c0.096-2.153-0.664-4.228-1.791-6.03C660.062,98.21,656.799,100.104,658.097,102.153z" />
			<path style="fill:#2D0303;" d="M659.968,113.151c-0.223,12.864-0.854,25.698-0.846,38.569c0.003,5.703-0.153,11.41-0.284,17.112     c-0.461-1.213-1.128-2.33-1.998-3.273c-0.018-0.019-0.036-0.036-0.054-0.055c1.509-2.765,2.059-5.914,1.506-8.756     c-0.695-3.569-3.104-6.566-6.284-7.819c-2.67-1.052-5.737-0.719-8.069,0.718c-1.466-2.875-4.259-5.058-7.418-5.567     c-2.498-0.402-5.097,0.259-7.195,1.679c-0.919-2.065-2.349-3.732-4.181-4.809c-3.081-1.814-7.063-1.815-10.145-0.003     c-1.655,0.972-2.995,2.442-3.885,4.155c-3-2.639-7.141-3.686-10.701-2.6c-2.333,0.71-4.301,2.375-5.399,4.568     c-0.371,0.738-0.63,1.515-0.779,2.312c-2.187-0.49-4.57-0.208-6.607,0.921c-3.289,1.821-5.35,5.656-5.129,9.545     c0.125,2.192,0.96,4.341,2.313,6.14c-3.041,1.58-5.394,4.656-6.126,8.208c-0.792,3.843,0.196,8.044,2.71,11.524     c2.098,2.904,5.23,5.285,9.06,6.886c2.92,1.221,6.164,2.014,10.518,2.569c0.1,0.013,0.201,0.019,0.3,0.019     c0.327,0,0.653-0.068,0.953-0.2c3.33-1.466,6.214-3.52,8.552-6.002c2.157,1.731,5.019,2.749,7.871,2.749     c0.091,0,0.183-0.001,0.275-0.003c2.718-0.063,5.502-1.046,7.834-2.77c1.644-1.215,2.894-2.641,3.985-3.989     c2.034,1.516,4.515,2.892,7.621,4.251c0.301,0.132,0.624,0.199,0.948,0.199c0.157,0,0.313-0.016,0.467-0.047     c3.449-0.692,7.101-1.511,10.494-3.215c3.877-1.948,6.805-4.86,8.267-8.212c-0.139,3.584-0.253,7.177-0.134,10.733     c-0.271,0.098-0.524,0.265-0.732,0.532c-0.925,1.18-4.1,0.806-5.478,0.855c-2.429,0.086-4.858,0.16-7.286,0.259     c-4.852,0.201-9.717,0.041-14.567-0.15c-2.135-0.085-2.121,3.201,0,3.31c5.867,0.299,11.76,0.499,17.635,0.565     c2.793,0.031,5.645,0.123,8.434-0.013c2.06-0.1,3.859-0.668,4.652-2.683c0.397-0.266,0.698-0.704,0.753-1.327     c0.566-6.277,0.283-12.729,0.381-19.032c0.099-6.427,0.141-12.861,0.383-19.284c0.484-12.86,0.331-25.707,0.586-38.569     C663.21,111.09,660.003,111.089,659.968,113.151z M589.923,154.446c1.683-0.933,4.004-0.658,5.285,0.625     c0.784,0.785,2.008,0.92,2.944,0.325c0.937-0.594,1.335-1.759,0.958-2.803c-0.542-1.502-0.223-2.68,0.139-3.403     c0.512-1.022,1.463-1.829,2.545-2.158c2.221-0.677,5.02,0.239,6.81,2.226c2.671,2.963,2.829,7.913,0.357,11.043     c-2.706-0.307-5.481,0.522-7.532,1.842c-2.137,1.376-3.769,3.238-5.148,5.232c-1.65-1.365-3.68-2.227-5.767-2.459     c-1.88-1.184-3.169-3.279-3.287-5.337C587.109,157.5,588.218,155.39,589.923,154.446z M600.911,190.39     c-3.578-0.491-6.261-1.162-8.628-2.152c-3.023-1.265-5.461-3.094-7.047-5.29c-1.714-2.372-2.429-5.288-1.911-7.797     c0.53-2.573,2.499-4.793,4.788-5.401c0.418-0.11,0.851-0.164,1.286-0.164c2.006,0,4.076,1.131,5.172,2.947     c0.429,0.71,1.198,1.143,2.027,1.143h0.014c0.834-0.005,1.605-0.448,2.028-1.168c1.442-2.454,3.089-4.927,5.352-6.384     c1.738-1.119,4.46-1.733,6.332-0.436c2.224,1.54,2.428,5.168,2.411,6.656C612.652,180.219,608.246,186.92,600.911,190.39z      M645.003,154.9c0.224-0.136,0.43-0.31,0.606-0.525c0.999-1.219,3.048-1.675,4.662-1.041c1.665,0.657,2.99,2.352,3.372,4.319     c0.325,1.666,0.015,3.543-0.845,5.263c-1.339-0.468-2.777-0.661-4.209-0.528c-2.021,0.187-3.895,0.988-5.666,2.436     c-0.519-0.913-1.114-1.739-1.769-2.466C643.36,160.554,644.785,157.775,645.003,154.9z M614.611,150.252     c0.023-0.126,0.037-0.254,0.038-0.385c0.019-1.938,1.123-3.882,2.75-4.837c1.599-0.941,3.747-0.94,5.346,0.001     c1.703,1.002,2.793,3.087,2.989,5.719c0.079,1.059,0.853,1.935,1.894,2.145c1.042,0.21,2.094-0.3,2.576-1.245     c1.019-1.997,3.409-3.244,5.563-2.895c2.167,0.35,4.085,2.303,4.461,4.544c0.379,2.257-0.802,4.776-2.749,5.859     c-0.157,0.087-0.298,0.191-0.426,0.306c-0.285-0.109-0.573-0.207-0.866-0.287c-3.926-1.074-8.355,0.759-10.956,4.165     c-1.396-1.03-3.089-1.663-4.822-1.732c-2.012-0.081-4.029,0.593-5.632,1.805c-0.399-0.478-0.839-0.912-1.319-1.293     C615.658,158.602,616.025,154.112,614.611,150.252z M623.946,185.16c-0.9,0.665-2.765,1.79-5.13,1.843     c-1.849,0.041-3.765-0.629-5.13-1.752c2.391-3.777,3.736-8.182,3.785-12.857c0.017-1.648-0.161-3.168-0.514-4.542     c0.768-0.959,2.036-1.561,3.262-1.511c1.12,0.045,2.237,0.638,2.948,1.519c-0.867,3.979,0.152,8.474,2.863,12.326     c0.384,0.546,0.795,1.066,1.231,1.572C626.248,183.021,625.242,184.202,623.946,185.16z M654.244,175.973     c-1.003,2.375-3.167,4.492-6.095,5.963c-2.643,1.328-5.654,2.056-8.563,2.654c-4.791-2.169-7.708-4.323-9.684-7.129     c-2.149-3.055-2.854-6.715-1.839-9.55c0.904-2.522,3.404-4.315,5.746-4.315c0.383,0,0.761,0.048,1.128,0.148     c2.147,0.587,3.994,2.812,4.941,5.951c0.254,0.842,0.955,1.475,1.819,1.641c0.863,0.166,1.75-0.162,2.299-0.85     c1.688-2.12,3.333-3.227,5.027-3.383c1.59-0.146,3.252,0.492,4.336,1.666C654.944,170.489,655.308,173.451,654.244,175.973z" />
			<path style="fill:#2D0303;" d="M664.596,81.025c1.973-0.821,3.785-2.029,5.341-3.585c3.129-3.129,4.852-7.291,4.852-11.721     c0-9.138-7.434-16.574-16.574-16.574H577.32c-9.138,0-16.573,7.436-16.573,16.574c0,6.882,4.218,12.796,10.203,15.298     c-7.013,6.303-11.229,15.402-11.229,25.098v84.115c0,9.029,7.346,16.376,16.376,16.376h83.342     c9.029,0,16.376-7.347,16.376-16.376v-84.115C675.815,96.423,671.604,87.328,664.596,81.025z M567.85,65.719     c0-5.222,4.249-9.47,9.47-9.47h17.59c0.159,3.658,0.326,7.338,0.623,10.986c0.158,1.94,3.039,2.001,3.067,0     c0.049-3.653-0.034-7.331-0.122-10.986h46.717c-0.052,0.174-0.089,0.36-0.088,0.572c0.011,3.618,0.007,7.204,0.504,10.796     c0.189,1.359,2.559,1.36,2.747,0c0.499-3.592,0.495-7.178,0.506-10.796c0-0.212-0.037-0.398-0.089-0.572h9.44     c5.223,0,9.471,4.248,9.471,9.47c0,2.532-0.984,4.911-2.772,6.698c-1.787,1.788-4.166,2.772-6.699,2.772h-3.452h-33.22     c0.181-3.421-0.106-6.978-0.106-10.332c0-2.356-3.663-2.36-3.663,0c0,3.354-0.288,6.911-0.107,10.332h-36.89h-0.113     c-0.051-3.144-0.33-6.319-0.428-9.441c-0.065-2.106-3.328-2.119-3.282,0c0.068,3.117-0.042,6.296,0.073,9.434     C571.941,75.026,567.85,70.842,567.85,65.719z M668.712,190.23c0,5.113-4.16,9.273-9.273,9.273h-83.342     c-5.114,0-9.274-4.16-9.274-9.273v-84.115c0-10.08,5.769-19.348,14.761-23.823h72.371c8.99,4.476,14.757,13.744,14.757,23.823     V190.23z" />
			<path style="fill:#9CA8E2;" d="M649.53,56.25h8.68c5.23,0,9.48,4.25,9.48,9.47c0,2.53-0.99,4.91-2.78,6.7     c-1.78,1.79-4.16,2.77-6.7,2.77h-8.31C656.31,66.84,653.06,60.19,649.53,56.25z" />
			<path style="fill:#CAD0FC;" d="M668.71,106.12v84.11c0,5.11-4.16,9.27-9.27,9.27h-5.19c1.82-1.88,3.13-3.92,4.04-5.73     c1.23-0.34,2.24-1.04,2.78-2.41c0.39-0.26,0.69-0.7,0.75-1.32c0.57-6.28,0.28-12.73,0.38-19.04c0.1-6.42,0.14-12.86,0.38-19.28     c0.49-12.86,0.33-25.71,0.59-38.57c0.03-1.53-1.74-1.93-2.66-1.17c-0.1-1.95-0.32-3.79-0.63-5.52c0.02,0.09,0.05,0.17,0.07,0.26     c0.51,1.79,3.1,1.38,3.18-0.43c0.1-2.16-0.66-4.23-1.79-6.03c-0.82-1.31-2.45-1.01-3.18-0.08c-3.53-9.59-10.13-15.19-14.24-17.89     h10.03C662.94,86.77,668.71,96.04,668.71,106.12z" />
			<path style="fill:#FFA1A1;" d="M638.962,122.792c0-5.884,5.534-10.654,12.36-10.654c6.827,0,12.362,4.77,12.362,10.654     c0,5.885-5.535,10.654-12.362,10.654C644.496,133.446,638.962,128.677,638.962,122.792" />
			<path style="fill:#FFA1A1;" d="M571.852,122.069c0-5.485,4.462-9.931,9.967-9.931s9.967,4.446,9.967,9.931     c0,5.486-4.463,9.931-9.967,9.931S571.852,127.555,571.852,122.069" />
		</g>
		<g>
			<path style="fill:#2D0303;" d="M589.087,106.781c0-5.435,4.406-9.841,9.841-9.841c5.434,0,9.841,4.406,9.841,9.841     c0,5.435-4.407,9.841-9.841,9.841C593.493,116.622,589.087,112.216,589.087,106.781" />
			<path style="fill:#FFFFFF;" d="M598.482,103.652c0-1.842,1.493-3.334,3.334-3.334c1.842,0,3.334,1.492,3.334,3.334     c0,1.841-1.492,3.334-3.334,3.334C599.975,106.986,598.482,105.493,598.482,103.652" />
			<path style="fill:#FFFFFF;" d="M592.705,106.986c0-1,0.811-1.812,1.812-1.812c1,0,1.81,0.812,1.81,1.812s-0.81,1.811-1.81,1.811     C593.516,108.797,592.705,107.986,592.705,106.986" />
			<path style="fill:#2D0303;" d="M626.768,106.781c0-5.435,4.405-9.841,9.84-9.841c5.434,0,9.841,4.406,9.841,9.841     c0,5.435-4.407,9.841-9.841,9.841C631.173,116.622,626.768,112.216,626.768,106.781" />
			<path style="fill:#FFFFFF;" d="M636.162,103.652c0-1.842,1.493-3.334,3.334-3.334c1.842,0,3.334,1.492,3.334,3.334     c0,1.841-1.492,3.334-3.334,3.334C637.655,106.986,636.162,105.493,636.162,103.652" />
			<path style="fill:#FFFFFF;" d="M630.385,106.986c0-1,0.811-1.812,1.812-1.812c1,0,1.81,0.812,1.81,1.812s-0.81,1.811-1.81,1.811     C631.196,108.797,630.385,107.986,630.385,106.986" />
			<path style="fill:#2D0303;" d="M617.632,119.619c-2.439,0-4.877-1.112-6.567-3.008c-0.579-0.651-0.523-1.649,0.129-2.228     c0.65-0.58,1.648-0.524,2.228,0.128c1.134,1.272,2.764,2.004,4.366,1.949c1.605-0.052,3.198-0.889,4.267-2.237     c0.541-0.684,1.534-0.8,2.217-0.259c0.684,0.541,0.799,1.534,0.258,2.217c-1.636,2.069-4.119,3.352-6.639,3.434     C617.805,119.618,617.718,119.619,617.632,119.619" />
		</g>
	</g>
	<g>
		<g>
			<path style="fill:#AE71E2;" d="M643.804,263.996c-2.323-1.064-5.337-0.692-7.332,0.908c-1.993,1.599-3.009,4.462-2.472,6.961     c0.012,0.057,0.018,0.116,0.028,0.173c1.373,0.599,2.644,1.438,3.725,2.511c0.799,0.794,1.47,1.693,2.012,2.661     c1.725-0.74,3.59-1.146,5.466-1.195c0.212-2.328,1.122-4.613,2.617-6.446C647.55,267.218,645.951,264.982,643.804,263.996z" />
			<path style="fill:#D999FF;" d="M601.149,281.199c-1.512,0.993-2.539,2.708-2.724,4.507c1.061-0.464,2.177-0.824,3.376-1.041     c6.164-1.118,11.083,2.548,12.275,6.739c0.787,2.763,0.18,5.921-1.666,8.662c-0.181,0.268-0.368,0.526-0.562,0.777     c0.991,0.714,1.853,1.602,2.551,2.614c2.621-1.431,5.606-2.181,8.591-2.181h0.034c-0.279-2.592,0.071-5.18,1.068-7.485     c1.769-4.094,5.561-6.999,9.693-7.654c1-2.086,0.597-4.925-1.038-6.549c-1.815-1.803-5.115-2.085-7.209-0.618     c-1.187,0.83-2.757,0.857-3.971,0.07c-1.215-0.788-1.829-2.234-1.554-3.655c0.239-1.228-0.23-2.651-1.252-3.804     c-1.023-1.153-2.383-1.785-3.628-1.698c-1.248,0.09-2.5,0.912-3.347,2.199c-0.847,1.288-1.108,2.763-0.695,3.946     c0.448,1.289,0.119,2.721-0.849,3.684s-2.403,1.286-3.689,0.831C604.786,279.92,602.717,280.17,601.149,281.199z" />
			<path style="fill:#D999FF;" d="M614.623,262.799c3.438-0.246,6.972,1.274,9.452,4.069c1.123,1.267,1.962,2.717,2.481,4.241     c0.074-0.012,0.147-0.019,0.221-0.03c-0.178-4.429,1.778-8.929,5.25-11.715c4.035-3.239,9.89-3.982,14.612-1.875     c0.228-1.227-0.133-2.64-0.995-3.471c-1.157-1.113-3.331-1.291-4.652-0.379c-1.003,0.693-2.292,0.823-3.413,0.345     c-1.12-0.479-1.918-1.498-2.112-2.702c-0.276-1.711-1.364-3.353-2.985-4.505c-1.621-1.152-3.528-1.639-5.236-1.336     c-1.707,0.302-3.331,1.417-4.457,3.055c-1.126,1.64-1.582,3.556-1.252,5.257c0.232,1.199-0.167,2.434-1.059,3.269     c-0.891,0.835-2.148,1.152-3.33,0.843c-1.988-0.522-5.755-1.162-8.644,0.421c-1.715,0.94-2.853,2.838-2.801,4.442     c1.184,0.585,2.3,1.305,3.316,2.151C610.696,263.68,612.632,262.942,614.623,262.799z" />
			<path style="fill:#AE71E2;" d="M595.253,268.487c-3.101,1.039-5.524,3.877-6.255,7.062c0.613,0.244,1.206,0.542,1.77,0.9     c1.111,0.704,2.024,1.547,2.785,2.479c0.97-1.441,2.221-2.698,3.699-3.668c2.007-1.316,4.33-2.044,6.686-2.149     c0.137-0.884,0.376-1.763,0.713-2.618C602.145,268.292,598.418,267.424,595.253,268.487z" />
			<path style="fill:#D999FF;" d="M576.397,302.355c-1.196-0.505-2.741-0.399-4.133,0.283c-1.391,0.683-2.42,1.839-2.753,3.094     c-0.333,1.255-0.012,2.769,0.859,4.051c0.87,1.283,2.16,2.14,3.448,2.294c0.393,0.047,0.761,0.159,1.099,0.319     c11.04-3.023,22.707-3.606,34.093-1.753c0.294-1.001,0.173-2.163-0.365-3.034c-0.667-1.077-2.017-1.79-3.28-1.743     c-1.513,0.078-2.919-0.856-3.463-2.282c-0.544-1.426-0.116-3.04,1.063-4.01c1.396-1.146,2.713-2.23,3.554-3.476     c0.654-0.972,0.932-2.025,0.726-2.749c-0.341-1.198-2.371-2.021-4.178-1.694c-2.394,0.433-4.637,2.15-7.11,4.18     c-1.056,0.866-2.514,1.051-3.752,0.476c-1.237-0.576-2.036-1.812-2.053-3.177c-0.054-4.319-0.474-8.967-3.186-10.685     c-1.31-0.832-2.841-0.561-3.636-0.326c-1.832,0.541-3.495,1.933-4.237,3.545c-1.746,3.793-0.276,8.433,1.682,11.509     c0.835,1.312,0.72,3.013-0.284,4.2C579.488,302.564,577.829,302.96,576.397,302.355z" />
			<path style="fill:#AE71E2;" d="M664.684,268.083c2.284,1.792,3.895,4.404,4.631,7.27c1.464-0.229,2.985-0.156,4.442,0.221     c0.132-0.093,0.27-0.18,0.419-0.255c0.874-0.445,1.592-1.381,1.924-2.507c0.331-1.126,0.234-2.304-0.26-3.15     c-0.495-0.846-1.473-1.508-2.617-1.773c-1.143-0.265-2.313-0.098-3.128,0.445c-1.444,0.963-3.371,0.741-4.558-0.523     c-1.188-1.265-1.288-3.201-0.238-4.581c0.703-0.926,0.464-2.7-0.511-3.797c-1.134-1.276-3.164-1.999-5.427-1.953     c-1.903,0.044-3.845,0.578-5.724,1.255c-0.224,1.215-0.657,2.394-1.305,3.48c0.77,1.085,1.394,2.273,1.846,3.524     C657.75,264.952,661.706,265.746,664.684,268.083z" />
			<path style="fill:#D999FF;" d="M641.404,284.368c-0.054,1.029-0.225,2.051-0.518,3.04c1.202,0.679,2.269,1.573,3.135,2.622     c2.404-1.611,5.359-2.39,8.299-2.012c4.673,0.6,8.642,4.044,10.036,8.475c3.103-1.036,6.271-1.889,9.491-2.547     c0.099-0.121,0.204-0.238,0.32-0.347c1.805-1.693,2.903-3.844,3.012-5.9c0.105-1.988-0.845-3.998-2.31-4.886     c-1.33-0.807-3.285-0.622-4.186,0.394c-1.063,1.201-2.8,1.541-4.237,0.828c-1.436-0.712-2.218-2.3-1.905-3.874     c0.479-2.41-0.443-5.079-2.24-6.489c-1.752-1.374-4.466-1.521-6.181-0.336c-1.627,1.127-2.335,3.66-1.485,5.317     c0.673,1.312,0.465,2.905-0.524,4.001c-0.988,1.095-2.552,1.465-3.927,0.928C646.004,282.733,643.346,283.055,641.404,284.368z" />
			<path style="fill:#AE71E2;" d="M626.748,309.093c-3.433-1.395-7.711-0.689-10.546,1.697c-0.049,0.439-0.122,0.874-0.224,1.304     c4.677,1.188,9.274,2.789,13.721,4.818c7.533-7.648,16.364-13.681,25.993-17.864c-0.426-1.972-2.284-3.729-4.278-3.985     c-2.086-0.27-4.451,1.091-5.27,3.031c-0.665,1.579-2.366,2.457-4.038,2.088c-1.674-0.369-2.844-1.882-2.783-3.594     c0.059-1.65-1.697-3.379-3.546-3.49c-2.025-0.127-4.248,1.388-5.166,3.512c-0.942,2.179-0.711,5.059,0.605,7.516     c0.707,1.32,0.509,2.94-0.491,4.052C629.724,309.29,628.133,309.656,626.748,309.093z" />
			<path style="fill:#E9EDFF;" d="M664.71,353.5c-1.9,10.42-3.56,20.88-4.98,31.37c-1.42,10.49-2.59,20.99-3.51,31.51     c-0.53,6.05-7.09,9.21-12.54,10.07c-1.7,0.27-3.45,0.25-5.16-0.04c-3.54-0.58-6.92-2.28-9.41-4.83     c-16.53-33.87-36.85-67.35-60.46-99.57c3.73-1.54,7.59-2.74,11.52-3.61c16.13-3.59,33.48-1.58,48.74,6     c0.44,0.22,0.9,0.34,1.36,0.37C643.91,331.08,656.05,341.21,664.71,353.5z" />
			<path style="fill:#E9EDFF;" d="M657.524,439.209c-1.998,1.634-4.368,2.867-6.974,3.678c-0.955,2.983-2.057,5.923-3.302,8.802     c0.033,0.027,0.069,0.052,0.101,0.081c3.314,2.999,7.774,4.862,12.235,5.114c2.176,0.122,4.853-0.295,5.843-1.832     c0.731-1.136,0.666-3.162-0.186-5.707c-1.365-4.08-3.749-7.883-6.816-10.931C658.134,438.688,657.836,438.954,657.524,439.209z" />
			<path style="fill:#E9EDFF;" d="M665.902,347.17c3.033-15.76,6.612-31.409,10.744-46.878c-15.762,2.473-30.352,9.962-41.739,21.46     C646.876,327.788,657.626,336.611,665.902,347.17z" />
			<path style="fill:#D999FF;" d="M656.35,428.82c-0.6,1.84-1.74,3.59-3.32,4.89c-3.18,2.61-7.95,3.7-13.1,3     c-0.05-0.01-0.09-0.01-0.14-0.02c-3.26-0.46-5.71-1.49-7.29-3.08c-0.6-0.6-1.05-1.32-1.34-2.06c2.68,1.22,5.57,1.96,8.51,2.14     c0.5,0.04,1,0.06,1.5,0.06c1.21,0,2.42-0.09,3.62-0.28C648.65,432.86,652.89,431.35,656.35,428.82z" />
			<path style="fill:#AE71E2;" d="M572.099,295.222c-1.121-3.667-1.187-7.372-0.158-10.686c-0.674-0.969-2.068-1.594-3.318-1.418     c-1.555,0.223-3.059,1.585-3.576,3.24c-0.546,1.744-0.153,3.858,1.026,5.52c0.801,1.127,0.874,2.617,0.187,3.819     c-0.686,1.2-2.002,1.894-3.386,1.774c-1.887-0.159-3.945,0.999-4.783,2.697c-0.839,1.699-0.509,4.037,0.767,5.437     c0.845,0.928,2.137,1.476,3.427,1.548c-0.036-1.095,0.08-2.186,0.36-3.243c0.866-3.262,3.232-6.05,6.492-7.649     C570.098,295.789,571.094,295.443,572.099,295.222z" />
			<path style="fill:#E9EDFF;" d="M645.21,443.91c-1.56,4.42-3.46,8.73-5.68,12.85c-0.84,1.11-1.79,2.09-2.86,2.91     c-1.53,1.2-3.29,2.09-5.25,2.64c-3.34,0.94-7.02,0.8-10.33-0.33l9.19-21.13c2.33,1.44,5.18,2.41,8.52,2.88     c0.4,0.06,0.8,0.1,1.2,0.14c0.98,0.1,1.94,0.15,2.89,0.15C643.67,444.02,644.45,443.98,645.21,443.91z" />
			<path style="fill:#D999FF;" d="M575.822,278.41c1.556-1.41,3.44-2.491,5.495-3.098c0.177-0.053,0.355-0.099,0.53-0.144     c0.919-6.052,5.279-11.449,11.149-13.417c1.861-0.623,3.808-0.878,5.74-0.802c0.12-0.758,0.317-1.509,0.589-2.241     c-0.094-0.143-0.182-0.293-0.256-0.453c-0.837-1.82-2.895-3.093-4.901-3.016c-2.002,0.072-3.967,1.486-4.67,3.362     c-0.521,1.387-1.846,2.305-3.325,2.305h-0.023c-1.488-0.009-2.813-0.947-3.318-2.346c-0.776-2.148-1.743-4.399-3.046-4.811     c-0.394-0.124-0.851-0.042-1.363,0.244c-0.954,0.534-1.78,1.623-2.051,2.709c-0.612,2.441,0.145,5.256,1.2,8.682     c0.319,1.04,0.146,2.168-0.473,3.064c-0.618,0.894-1.612,1.457-2.697,1.525c-1.56,0.099-3.078,1.173-3.691,2.61     c-0.473,1.111-0.411,2.456,0.103,3.563C572.652,276.462,574.392,277.254,575.822,278.41z" />
			<path style="fill:#2D0303;" d="M681.264,292.591c0.579-1.47,0.927-2.995,1.007-4.517c0.159-2.996-0.73-5.914-2.383-8.213     c1.391-1.344,2.449-3.082,3.026-5.045c0.887-3.012,0.543-6.197-0.942-8.738c-1.485-2.541-4.091-4.403-7.15-5.11     c-0.69-0.159-1.387-0.256-2.078-0.291c-0.235-2.138-1.126-4.251-2.647-5.962c-2.539-2.858-6.509-4.444-10.902-4.336     c-2.343,0.054-4.545,0.547-6.625,1.215c-0.515-0.985-1.177-1.899-1.997-2.69c-2.519-2.428-6.114-3.398-9.464-2.803     c-1.046-1.981-2.592-3.749-4.513-5.114c-3.163-2.247-7.025-3.172-10.591-2.539c-3.569,0.632-6.874,2.83-9.071,6.028     c-1.215,1.769-2.023,3.746-2.384,5.762c-2.985-0.233-6.347,0.114-9.459,1.819c-0.401,0.22-0.785,0.461-1.153,0.718     c-2.413-2.948-6.207-4.774-10.027-4.635c-2.548,0.092-5.02,1.051-7.035,2.601c-1.158-1.612-2.744-3.067-4.948-3.764     c-2.268-0.719-4.744-0.428-6.969,0.815c-2.678,1.496-4.725,4.182-5.477,7.184c-0.784,3.128-0.365,6.272,0.31,9.02     c-2.474,1.199-4.534,3.266-5.615,5.802c-1.022,2.399-1.134,5.137-0.427,7.639c-2.544,1.458-4.574,3.898-5.483,6.8     c-0.703,2.247-0.745,4.668-0.173,6.985c-2.723,1.091-5.061,3.145-6.373,5.803c-2.128,4.314-1.353,9.81,1.888,13.365     c2.277,2.499,5.62,3.874,8.966,3.874c0.714,0,1.429-0.064,2.133-0.191c0.36,0.501,0.75,0.97,1.166,1.407     c-1.432,0.591-2.849,1.222-4.246,1.902c-0.95,0.462-1.646,1.323-1.897,2.35c-0.251,1.027-0.032,2.112,0.598,2.961     c24.576,33.11,45.647,67.59,62.63,102.483c0.149,0.306,0.341,0.589,0.57,0.84c0.199,0.219,0.408,0.429,0.616,0.64     c-0.811,2.729-0.474,5.793,0.863,8.509l-11.824,27.186c-0.723,1.662-0.078,3.602,1.496,4.501     c3.695,2.108,7.897,3.193,12.114,3.193c2.199,0,4.403-0.295,6.539-0.893c5.311-1.49,9.734-4.773,12.786-9.414     c3.897,2.497,8.411,3.975,13.066,4.237c5.486,0.31,9.938-1.541,12.214-5.078c1.977-3.071,2.171-7.042,0.578-11.805     c-1.873-5.599-5.124-10.601-9.45-14.583c1.718-4.035,1.884-8.583,0.182-12.409c0.286-0.976,0.488-2.005,0.584-3.096     c3.54-40.442,10.802-80.792,21.586-119.928c0.308-1.121,0.049-2.322-0.695-3.215     C683.466,292.997,682.385,292.533,681.264,292.591z M653.637,258.735c1.879-0.677,3.821-1.211,5.724-1.255     c2.263-0.046,4.293,0.677,5.427,1.953c0.975,1.097,1.214,2.871,0.511,3.797c-1.05,1.38-0.95,3.316,0.238,4.581     c1.187,1.264,3.114,1.486,4.558,0.523c0.815-0.543,1.985-0.71,3.128-0.445c1.144,0.265,2.122,0.927,2.617,1.773     c0.494,0.846,0.591,2.024,0.26,3.15c-0.332,1.126-1.05,2.062-1.924,2.507c-0.149,0.075-0.287,0.162-0.419,0.255     c-1.457-0.377-2.978-0.45-4.442-0.221c-0.736-2.866-2.347-5.478-4.631-7.27c-2.978-2.337-6.934-3.131-10.506-2.344     c-0.452-1.251-1.076-2.439-1.846-3.524C652.98,261.129,653.413,259.95,653.637,258.735z M652.111,282.654     c0.989-1.096,1.197-2.689,0.524-4.001c-0.85-1.657-0.142-4.19,1.485-5.317c1.715-1.185,4.429-1.038,6.181,0.336     c1.797,1.41,2.719,4.079,2.24,6.489c-0.313,1.574,0.469,3.162,1.905,3.874c1.437,0.713,3.174,0.373,4.237-0.828     c0.901-1.016,2.856-1.201,4.186-0.394c1.465,0.888,2.415,2.898,2.31,4.886c-0.109,2.056-1.207,4.207-3.012,5.9     c-0.116,0.109-0.221,0.226-0.32,0.347c-3.22,0.658-6.388,1.511-9.491,2.547c-1.394-4.431-5.363-7.875-10.036-8.475     c-2.94-0.378-5.895,0.401-8.299,2.012c-0.866-1.049-1.933-1.943-3.135-2.622c0.293-0.989,0.464-2.011,0.518-3.04     c1.942-1.313,4.6-1.635,6.78-0.786C649.559,284.119,651.123,283.749,652.111,282.654z M631.216,304.126     c-1.316-2.457-1.547-5.337-0.605-7.516c0.918-2.124,3.141-3.639,5.166-3.512c1.849,0.111,3.605,1.84,3.546,3.49     c-0.061,1.712,1.109,3.225,2.783,3.594c1.672,0.369,3.373-0.509,4.038-2.088c0.819-1.94,3.184-3.301,5.27-3.031     c1.994,0.256,3.852,2.013,4.278,3.985c-9.629,4.183-18.46,10.216-25.993,17.864c-4.447-2.029-9.044-3.63-13.721-4.818     c0.102-0.43,0.175-0.865,0.224-1.304c2.835-2.386,7.113-3.092,10.546-1.697c1.385,0.563,2.976,0.197,3.977-0.915     C631.725,307.066,631.923,305.446,631.216,304.126z M645.231,276.015c-1.876,0.049-3.741,0.455-5.466,1.195     c-0.542-0.968-1.213-1.867-2.012-2.661c-1.081-1.073-2.352-1.912-3.725-2.511c-0.01-0.057-0.016-0.116-0.028-0.173     c-0.537-2.499,0.479-5.362,2.472-6.961c1.995-1.6,5.009-1.972,7.332-0.908c2.147,0.986,3.746,3.222,4.044,5.573     C646.353,271.402,645.443,273.687,645.231,276.015z M608.504,258.286c2.889-1.583,6.656-0.943,8.644-0.421     c1.182,0.309,2.439-0.008,3.33-0.843c0.892-0.835,1.291-2.07,1.059-3.269c-0.33-1.701,0.126-3.617,1.252-5.257     c1.126-1.638,2.75-2.753,4.457-3.055c1.708-0.303,3.615,0.184,5.236,1.336c1.621,1.152,2.709,2.794,2.985,4.505     c0.194,1.204,0.992,2.223,2.112,2.702c1.121,0.478,2.41,0.348,3.413-0.345c1.321-0.912,3.495-0.734,4.652,0.379     c0.862,0.831,1.223,2.244,0.995,3.471c-4.722-2.107-10.577-1.364-14.612,1.875c-3.472,2.786-5.428,7.286-5.25,11.715     c-0.074,0.011-0.147,0.018-0.221,0.03c-0.519-1.524-1.358-2.974-2.481-4.241c-2.48-2.795-6.014-4.315-9.452-4.069     c-1.991,0.143-3.927,0.881-5.604,2.08c-1.016-0.846-2.132-1.566-3.316-2.151C605.651,261.124,606.789,259.226,608.504,258.286z      M606.553,280.543c1.286,0.455,2.721,0.132,3.689-0.831s1.297-2.395,0.849-3.684c-0.413-1.183-0.152-2.658,0.695-3.946     c0.847-1.287,2.099-2.109,3.347-2.199c1.245-0.087,2.605,0.545,3.628,1.698c1.022,1.153,1.491,2.576,1.252,3.804     c-0.275,1.421,0.339,2.867,1.554,3.655c1.214,0.787,2.784,0.76,3.971-0.07c2.094-1.467,5.394-1.185,7.209,0.618     c1.635,1.624,2.038,4.463,1.038,6.549c-4.132,0.655-7.924,3.56-9.693,7.654c-0.997,2.305-1.347,4.893-1.068,7.485h-0.034     c-2.985,0-5.97,0.75-8.591,2.181c-0.698-1.012-1.56-1.9-2.551-2.614c0.194-0.251,0.381-0.509,0.562-0.777     c1.846-2.741,2.453-5.899,1.666-8.662c-1.192-4.191-6.111-7.857-12.275-6.739c-1.199,0.217-2.315,0.577-3.376,1.041     c0.185-1.799,1.212-3.514,2.724-4.507C602.717,280.17,604.786,279.92,606.553,280.543z M580.775,297.177     c-1.958-3.076-3.428-7.716-1.682-11.509c0.742-1.612,2.405-3.004,4.237-3.545c0.795-0.235,2.326-0.506,3.636,0.326     c2.712,1.718,3.132,6.366,3.186,10.685c0.017,1.365,0.816,2.601,2.053,3.177c1.238,0.575,2.696,0.39,3.752-0.476     c2.473-2.03,4.716-3.747,7.11-4.18c1.807-0.327,3.837,0.496,4.178,1.694c0.206,0.724-0.072,1.777-0.726,2.749     c-0.841,1.246-2.158,2.33-3.554,3.476c-1.179,0.97-1.607,2.584-1.063,4.01c0.544,1.426,1.95,2.36,3.463,2.282     c1.263-0.047,2.613,0.666,3.28,1.743c0.538,0.871,0.659,2.033,0.365,3.034c-11.386-1.853-23.053-1.27-34.093,1.753     c-0.338-0.16-0.706-0.272-1.099-0.319c-1.288-0.154-2.578-1.011-3.448-2.294c-0.871-1.282-1.192-2.796-0.859-4.051     c0.333-1.255,1.362-2.411,2.753-3.094c1.392-0.682,2.937-0.788,4.133-0.283c1.432,0.605,3.091,0.209,4.094-0.978     C581.495,300.19,581.61,298.489,580.775,297.177z M604.651,270.493c-0.337,0.855-0.576,1.734-0.713,2.618     c-2.356,0.105-4.679,0.833-6.686,2.149c-1.478,0.97-2.729,2.227-3.699,3.668c-0.761-0.932-1.674-1.775-2.785-2.479     c-0.564-0.358-1.157-0.656-1.77-0.9c0.731-3.185,3.154-6.023,6.255-7.062C598.418,267.424,602.145,268.292,604.651,270.493z      M570.711,272.583c0.613-1.437,2.131-2.511,3.691-2.61c1.085-0.068,2.079-0.631,2.697-1.525c0.619-0.896,0.792-2.024,0.473-3.064     c-1.055-3.426-1.812-6.241-1.2-8.682c0.271-1.086,1.097-2.175,2.051-2.709c0.512-0.286,0.969-0.368,1.363-0.244     c1.303,0.412,2.27,2.663,3.046,4.811c0.505,1.399,1.83,2.337,3.318,2.346h0.023c1.479,0,2.804-0.918,3.325-2.305     c0.703-1.876,2.668-3.29,4.67-3.362c2.006-0.077,4.064,1.196,4.901,3.016c0.074,0.16,0.162,0.31,0.256,0.453     c-0.272,0.732-0.469,1.483-0.589,2.241c-1.932-0.076-3.879,0.179-5.74,0.802c-5.87,1.968-10.23,7.365-11.149,13.417     c-0.175,0.045-0.353,0.091-0.53,0.144c-2.055,0.607-3.939,1.688-5.495,3.098c-1.43-1.156-3.17-1.948-5.008-2.264     C570.3,275.039,570.238,273.694,570.711,272.583z M562.645,303.91c-0.28,1.057-0.396,2.148-0.36,3.243     c-1.29-0.072-2.582-0.62-3.427-1.548c-1.276-1.4-1.606-3.738-0.767-5.437c0.838-1.698,2.896-2.856,4.783-2.697     c1.384,0.12,2.7-0.574,3.386-1.774c0.687-1.202,0.614-2.692-0.187-3.819c-1.179-1.662-1.572-3.776-1.026-5.52     c0.517-1.655,2.021-3.017,3.576-3.24c1.25-0.176,2.644,0.449,3.318,1.418c-1.029,3.314-0.963,7.019,0.158,10.686     c-1.005,0.221-2.001,0.567-2.962,1.039C565.877,297.86,563.511,300.648,562.645,303.91z M639.532,456.762     c-2.058,2.728-4.806,4.622-8.117,5.55c-3.337,0.935-7.02,0.795-10.324-0.331l9.191-21.133c2.331,1.444,5.182,2.41,8.517,2.879     c1.38,0.194,2.746,0.289,4.088,0.289c0.784,0,1.558-0.035,2.323-0.101C643.653,448.335,641.752,452.638,639.532,456.762z      M639.788,436.694c-3.261-0.459-5.712-1.496-7.287-3.082c-0.598-0.602-1.049-1.32-1.337-2.061     c3.127,1.43,6.552,2.199,10.007,2.199c1.206,0,2.416-0.093,3.617-0.283c3.858-0.61,8.099-2.113,11.557-4.644     c-0.597,1.84-1.733,3.592-3.317,4.888C649.815,436.338,644.989,437.426,639.788,436.694z M665.241,449.345     c0.852,2.545,0.917,4.571,0.186,5.707c-0.99,1.537-3.667,1.954-5.843,1.832c-4.461-0.252-8.921-2.115-12.235-5.114     c-0.032-0.029-0.068-0.054-0.101-0.081c1.245-2.879,2.347-5.819,3.302-8.802c2.606-0.811,4.976-2.044,6.974-3.678     c0.312-0.255,0.61-0.521,0.901-0.795C661.492,441.462,663.876,445.265,665.241,449.345z M656.217,416.384L656.217,416.384     c-0.53,6.05-7.085,9.204-12.539,10.067c-5.219,0.83-10.883-1.078-14.569-4.869c-16.525-33.874-36.851-67.348-60.456-99.569     c19.07-7.848,41.283-7.028,60.261,2.392c0.432,0.214,0.893,0.334,1.354,0.362c13.642,6.316,25.786,16.448,34.446,28.735     C660.906,374.336,658.058,395.347,656.217,416.384z M665.902,347.17c-8.276-10.559-19.026-19.382-30.995-25.418     c11.387-11.498,25.977-18.987,41.739-21.46C672.514,315.761,668.935,331.41,665.902,347.17z" />
			<path style="fill:#CAD0FC;" d="M629.11,421.58c-16.53-33.87-36.85-67.35-60.46-99.57c3.73-1.54,7.59-2.74,11.52-3.61     c11.92,19.3,53.61,87.71,58.35,108.01C634.98,425.83,631.6,424.13,629.11,421.58z" />
			<path style="fill:#CAD0FC;" d="M640,443.87c-0.3,6.08-1.5,11.38-3.33,15.8c-1.53,1.2-3.29,2.09-5.25,2.64     c-3.34,0.94-7.02,0.8-10.33-0.33l9.19-21.13c2.33,1.44,5.18,2.41,8.52,2.88C639.2,443.79,639.6,443.83,640,443.87z" />
			<path style="fill:#AE71E2;" d="M631.16,431.55c2.68,1.22,5.57,1.96,8.51,2.14c0.11,1.02,0.2,2.03,0.26,3.02     c-0.05-0.01-0.09-0.01-0.14-0.02c-3.26-0.46-5.71-1.49-7.29-3.08C631.9,433.01,631.45,432.29,631.16,431.55z" />
			<path style="fill:#FFA1A1;" d="M650.261,362.389c-0.734-4.636,3.029-9.085,8.408-9.938c5.378-0.852,10.334,2.215,11.069,6.851     c0.735,4.635-3.03,9.084-8.408,9.937C655.952,370.091,650.996,367.025,650.261,362.389" />
			<path style="fill:#FFA1A1;" d="M597.392,370.77c-0.735-4.636,3.029-9.085,8.407-9.938c5.379-0.852,10.334,2.214,11.07,6.85     c0.734,4.636-3.03,9.085-8.409,9.938C603.082,378.472,598.126,375.405,597.392,370.77" />
		</g>
		<g>
			<path style="fill:#F2385C;" d="M633.816,365.476c-1.861,0.326-3.587,1.167-4.587,2.22c1.384,1.727,3.254,2.683,5.135,2.385     c1.993-0.316,3.54-1.969,4.278-4.234C637.315,365.319,635.532,365.175,633.816,365.476z" />
			<path style="fill:#BF1B4E;" d="M638.588,359.332c-4.029,2.175-7.91,2.852-11.562,2.019c0.012,0.498,0.058,1.001,0.138,1.506     c0.243,1.534,0.779,2.92,1.509,4.063c1.15-1.136,3.003-2.028,4.981-2.375c1.832-0.321,3.756-0.169,5.235,0.388     c0.263-1.215,0.308-2.562,0.088-3.949C638.887,360.419,638.758,359.866,638.588,359.332z" />
			<path style="fill:#2D0303;" d="M639.742,357.904c-0.079-0.194-0.232-0.347-0.426-0.428c-0.193-0.081-0.41-0.081-0.603,0     c-0.109,0.044-0.233,0.115-0.457,0.242c-4.163,2.354-8.121,2.981-11.762,1.862c-0.23-0.07-0.479-0.032-0.676,0.104     c-0.198,0.136-0.323,0.355-0.34,0.594c-0.063,0.924-0.019,1.874,0.131,2.825c0.85,5.357,4.888,9.185,9.001,8.533     c4.114-0.653,6.771-5.541,5.921-10.898C640.376,359.753,640.11,358.8,639.742,357.904z M634.364,370.081     c-1.881,0.298-3.751-0.658-5.135-2.385c1-1.053,2.726-1.894,4.587-2.22c1.716-0.301,3.499-0.157,4.826,0.371     C637.904,368.112,636.357,369.765,634.364,370.081z M638.889,364.933c-1.479-0.557-3.403-0.709-5.235-0.388     c-1.978,0.347-3.831,1.239-4.981,2.375c-0.73-1.143-1.266-2.529-1.509-4.063c-0.08-0.505-0.126-1.008-0.138-1.506     c3.652,0.833,7.533,0.156,11.562-2.019c0.17,0.534,0.299,1.087,0.389,1.652C639.197,362.371,639.152,363.718,638.889,364.933z" />
			<path style="fill:#2D0303;" d="M616.244,351.345c-0.009,0.001-0.016,0.002-0.025,0.004c-2.862,0.453-5.145,3.087-5.82,6.718     c-0.207,1.111,0.527,2.179,1.638,2.386c1.109,0.206,2.179-0.528,2.385-1.638c0.383-2.057,1.516-3.278,2.438-3.425     c0.002,0,0.004-0.001,0.006-0.001c0.928-0.142,2.389,0.683,3.387,2.537c0.423,0.786,1.287,1.185,2.122,1.052     c0.221-0.035,0.44-0.107,0.649-0.22c0.996-0.535,1.368-1.775,0.832-2.77C622.102,352.725,619.113,350.903,616.244,351.345z" />
			<path style="fill:#2D0303;" d="M645.838,346.653c-0.008,0.002-0.015,0.003-0.024,0.005c-2.863,0.453-5.146,3.087-5.821,6.718     c-0.206,1.111,0.527,2.179,1.638,2.386c1.11,0.206,2.179-0.528,2.386-1.638c0.382-2.057,1.515-3.278,2.438-3.425     c0.002-0.001,0.004-0.001,0.006-0.001c0.928-0.142,2.389,0.683,3.386,2.537c0.424,0.786,1.287,1.185,2.123,1.052     c0.221-0.035,0.44-0.107,0.648-0.22c0.996-0.535,1.368-1.775,0.832-2.77C651.696,348.034,648.708,346.212,645.838,346.653z" />
		</g>
	</g>
	<g>
		<g>
			<path style="fill:#CAD0FC;" d="M222.66,78.81c-5.42-2.93-11.45-5.53-17.89-7.71c-1.98-0.67-4-1.31-6.05-1.9     c0.06-0.04,0.1-0.09,0.16-0.14c0.12-0.12,0.24-0.23,0.36-0.35c0.1-0.1,0.19-0.19,0.28-0.28c0.12-0.12,0.24-0.25,0.35-0.37     c0.09-0.1,0.18-0.19,0.27-0.29c0.11-0.12,0.22-0.25,0.33-0.38c0.08-0.1,0.16-0.19,0.24-0.29c0.11-0.14,0.21-0.27,0.32-0.41     c0.07-0.1,0.15-0.19,0.22-0.28c0.1-0.15,0.21-0.3,0.31-0.46c0.06-0.08,0.12-0.17,0.18-0.25c0.13-0.2,0.25-0.39,0.37-0.59     c0.03-0.05,0.06-0.09,0.09-0.14c0.14-0.25,0.28-0.49,0.41-0.74c0.05-0.09,0.09-0.18,0.13-0.27c0.07-0.15,0.15-0.29,0.22-0.44     c1.73,0.64,3.41,1.4,5.03,2.25c3.9,2.05,7.42,4.68,10.39,7.79C219.97,75.21,221.38,76.97,222.66,78.81z" />
			<path style="fill:#D999FF;" d="M166.57,106.54c-4.61,5.68-12.76,7.82-18.55,4.87c-2.17-1.1-4.12-2.84-6.04-5.43     c-0.99-1.33-1.96-2.88-2.96-4.68c-0.19-0.33-0.36-0.66-0.53-0.98c-0.41-0.77-0.77-1.5-1.11-2.21c-0.62-1.33-1.11-2.58-1.5-3.78     h-0.01c-0.59-1.83-0.93-3.54-1.03-5.2c-0.24-4.12,1.21-7.97,3.8-10.04c2.02-1.61,4.54-2.13,6.94-2.13c2.24,0,4.37,0.45,5.87,0.87     c0.51,0.14,1.03,0.3,1.54,0.47c0.84,1.09,1.8,2.09,2.83,3.01c-1.1,0.97-2.07,2.15-2.91,3.22c-1.63,2.07-3.12,4.25-4.28,6.63     c-0.91,1.87,1.89,3.51,2.8,1.64c1.04-2.13,2.27-4.13,3.94-5.81c1.15-1.16,2.64-2.08,3.9-3.17c1.28,0.76,2.64,1.39,4.05,1.86     c0.3,0.1,0.61,0.2,0.92,0.28c1.91,0.54,3.91,0.81,5.9,0.81c0.17,0,0.34-0.01,0.52-0.01C171.97,94.55,170.53,101.65,166.57,106.54     z" />
			<path style="fill:#D999FF;" d="M232.86,112.56c-15.27-9.23-31.64-16.31-48.82-21.09c-1.95-0.56-3.91-1.07-5.88-1.56     c-0.09-1.4-0.24-2.81-0.48-4.25c0.38-0.2,0.74-0.42,1.09-0.66c0.52-0.23,0.95-0.58,1.29-1c0.79-0.7,1.49-1.51,2.06-2.4     c1.07-1.68,1.68-3.64,1.81-5.63c1.96-0.43,4.05-0.98,6.14-1.73c0.17,0.07,0.35,0.13,0.53,0.18c2.67,0.63,5.29,1.33,7.85,2.1     c11.9,3.6,22.48,8.67,30.4,14.61C231.29,98.09,232.45,105.49,232.86,112.56z" />
			<path style="fill:#D999FF;" d="M197.18,58.39c0,0.01,0,0.01,0,0.02c-0.1,0.56-0.25,1.11-0.46,1.63     c-1.38,3.55-4.84,5.65-6.79,6.58c-2.75,1.32-5.83,2.07-8.72,2.67c-1.29-1.67-2.81-3.17-4.51-4.43c-0.9-0.68-1.86-1.29-2.86-1.82     c0.57-2.06,0.59-4.43,0.97-6.46c0.55-2.86,1.39-5.56,2.69-8.17c0.95-1.93-1.92-3.64-2.91-1.7c-1.38,2.72-2.63,5.56-3.58,8.46     c-0.56,1.73-1.25,4.02-1.35,6.13c-2.08-0.57-3.99-0.61-6.26-0.38c-3.53-3.95-4.68-9.98-2.7-14.92c2.17-5.39,7.97-9.15,13.78-8.93     c3.33,0.12,6.91,1.4,11.28,4.01c2.54,1.52,4.63,3.07,6.31,4.68c1.26,1.2,2.28,2.44,3.09,3.73     C196.95,52.33,197.69,55.58,197.18,58.39z" />
			<path style="fill:#FFFFFF;" d="M226.4,120.92c-0.9,2.24-3,4.03-5.36,4.55c-0.34,0.07-0.62,0.33-0.73,0.66     c-0.11,0.34-0.03,0.7,0.21,0.96c2.82,3.14,3.93,6.75,3.03,9.91c-0.88,3.11-3.61,5.58-6.79,6.16c-0.33,0.06-0.62,0.29-0.74,0.61     c-0.12,0.32-0.07,0.68,0.14,0.95c2.49,3.28,3.33,6.98,2.3,10.17c-1.01,3.15-3.76,5.64-6.99,6.35c-0.34,0.07-0.61,0.31-0.72,0.63     c-0.12,0.32-0.06,0.68,0.15,0.94c2.28,2.87,3.14,6.3,2.31,9.18c-0.9,3.08-3.94,5.31-6.79,4.96c-0.3-0.04-0.59,0.06-0.8,0.27     c-0.22,0.2-0.33,0.49-0.3,0.78c0.2,2.63-0.86,4.88-2.9,6.18c-1.78,1.13-4.17,1.53-6.55,1.08c-2.1-0.39-4.23-1.4-6.35-3     c-0.25-0.18-0.57-0.24-0.86-0.16c-0.3,0.09-0.54,0.31-0.65,0.6c-0.97,2.5-3.95,4.31-7.26,4.41c-3.23,0.09-6.46-1.45-8.42-4.02     c-0.17-0.23-0.43-0.37-0.72-0.39c-0.28-0.01-0.56,0.09-0.76,0.3c-2.04,2.06-4.76,2.97-7.28,2.43c-2.47-0.53-4.6-2.43-5.41-4.82     c-0.1-0.29-0.33-0.52-0.62-0.62c-0.3-0.1-0.62-0.05-0.87,0.12c-3.25,2.23-5.89,3.16-8.29,2.95c-2.49-0.22-5.2-2.21-5.27-4.83     c-0.01-0.34-0.2-0.65-0.49-0.82s-0.66-0.18-0.96-0.02c-3.06,1.61-5.91,2.16-8.45,1.63c-2.83-0.59-5.09-2.68-5.48-5.08     c-0.06-0.34-0.3-0.63-0.62-0.76c-0.33-0.12-0.7-0.07-0.97,0.15c-2.24,1.8-5.6,1.85-8.18,0.12c-2.49-1.67-3.92-4.79-3.56-7.76     c0.03-0.28-0.06-0.57-0.25-0.78c-0.19-0.21-0.48-0.34-0.76-0.32c-1.7,0.04-3.68,0.03-5.51-0.53c-1.87-0.58-3.29-1.73-3.89-3.13     c-0.89-2.08-0.04-4.63,0.91-7.05c0.13-0.34,0.07-0.71-0.16-0.99c-0.22-0.27-0.58-0.41-0.93-0.34c-2.32,0.42-4.95-1.14-6.13-3.64     c-1.14-2.44-0.72-5.59,1.03-7.64c0.23-0.27,0.3-0.63,0.19-0.96c-0.11-0.33-0.39-0.57-0.73-0.65c-3.01-0.65-5.12-3.99-4.61-7.28     c0.5-3.24,3.46-5.91,6.73-6.09c0.38-0.02,0.71-0.25,0.86-0.6c0.14-0.35,0.08-0.75-0.17-1.03c-1.36-1.53-1.65-3.45-1.65-4.78     c-0.01-1.95,0.63-3.64,1.77-4.66c1.09-0.98,2.8-1.45,4.69-1.28c1.81,0.17,3.59,0.85,5.32,1.51c0.31,0.12,0.67,0.07,0.94-0.14     c0.27-0.2,0.42-0.53,0.39-0.87c-0.3-3.3,2-6.63,5.12-7.43c3.1-0.79,6.73,1.04,7.93,4c0.19,0.46,0.68,0.71,1.15,0.59     c0.48-0.12,0.8-0.57,0.75-1.06c-0.28-2.66,0.74-5.09,2.59-6.2c0.68-0.4,1.46-0.62,2.25-0.66c0.01,0.02,0.02,0.03,0.03,0.05     c0.17,0.33,0.35,0.66,0.54,1c2.03,3.66,5.19,8.69,10.09,11.9c0.6,0.4,1.24,0.77,1.9,1.11c0.32,0.16,0.65,0.31,0.97,0.45     c0.1,0.05,0.21,0.09,0.31,0.13c0.23,0.1,0.46,0.19,0.69,0.28c0.12,0.04,0.23,0.08,0.35,0.12c0.24,0.09,0.48,0.17,0.73,0.24     c0.1,0.03,0.19,0.06,0.29,0.09c0.33,0.1,0.67,0.19,1.02,0.27c0.06,0.01,0.13,0.03,0.2,0.04c0.28,0.06,0.56,0.12,0.84,0.17     c0.12,0.02,0.23,0.04,0.35,0.06c0.24,0.03,0.48,0.07,0.73,0.1c0.12,0.01,0.23,0.03,0.35,0.04c0.28,0.03,0.56,0.05,0.84,0.07     c0.08,0,0.15,0.01,0.23,0.02c0.35,0.01,0.71,0.02,1.07,0.02c0.02,0,0.04,0.01,0.06,0.01c0.05,0,0.11-0.01,0.17-0.01     c0.31,0,0.61-0.01,0.92-0.03c0.11,0,0.22-0.01,0.33-0.01c0.32-0.03,0.65-0.05,0.97-0.09c0.06-0.01,0.12-0.01,0.17-0.02     c0.38-0.04,0.76-0.1,1.14-0.16c0.09-0.01,0.18-0.03,0.27-0.05c0.3-0.05,0.6-0.11,0.9-0.18c0.1-0.02,0.2-0.04,0.3-0.07     c0.75-0.18,1.5-0.39,2.24-0.65c0.1-0.03,0.19-0.06,0.28-0.1c0.3-0.1,0.59-0.21,0.88-0.33c0.08-0.03,0.17-0.07,0.26-0.1     c0.36-0.15,0.72-0.31,1.08-0.48c0.04-0.02,0.07-0.04,0.1-0.05c0.32-0.16,0.64-0.32,0.96-0.49c0.09-0.05,0.19-0.1,0.28-0.15     c0.28-0.16,0.56-0.32,0.84-0.49c0.07-0.04,0.14-0.08,0.2-0.12c0.34-0.21,0.68-0.43,1-0.66c0.07-0.04,0.13-0.09,0.2-0.14     c0.26-0.18,0.52-0.38,0.78-0.57c0.09-0.07,0.18-0.14,0.27-0.21c0.27-0.22,0.54-0.44,0.8-0.67c0.05-0.03,0.09-0.07,0.13-0.11     c0.31-0.26,0.6-0.54,0.89-0.82c0.08-0.07,0.15-0.14,0.22-0.22c0.22-0.22,0.44-0.44,0.65-0.67c0.08-0.09,0.16-0.17,0.24-0.26     c0.27-0.3,0.54-0.61,0.8-0.93c3.1-3.83,5.05-8.58,5.8-13.85c1.85,0.47,3.69,0.97,5.52,1.5c15.22,4.36,29.77,10.59,43.44,18.59     C227,118.49,226.85,119.77,226.4,120.92z" />
			<path style="fill:#D999FF;" d="M176.84,75.5c-0.04,0.81-0.28,1.62-0.71,2.28c-0.23,0.37-0.53,0.69-0.86,0.98     c-2.64,0.98-5.57,1.18-8.31,0.56c-0.47-0.1-0.93-0.23-1.39-0.38c-2.43-0.81-4.63-2.29-6.32-4.2c-0.02-0.08-0.03-0.15-0.05-0.23     c-0.35-1.13-0.45-2.09-0.3-2.88c0.08-0.39,0.22-0.76,0.43-1.11c0.38-0.61,1.15-1.52,3.49-2.37h0.04c3.41-0.48,4.74-0.4,7.6,1.13     c0.95,0.51,1.84,1.11,2.67,1.81C174.62,72.32,175.88,73.82,176.84,75.5z" />
			<path style="fill:#CAD0FC;" d="M228.229,121.648c-0.954,2.395-2.909,4.323-5.283,5.287c2.567,3.381,3.478,7.181,2.503,10.608     c-0.949,3.331-3.627,6.071-6.89,7.18c2.232,3.497,2.885,7.356,1.783,10.772c-1.078,3.34-3.766,6.068-7.049,7.261     c2.03,3.118,2.707,6.69,1.807,9.786c-1.058,3.643-4.348,6.275-7.79,6.413c-0.091,2.902-1.451,5.371-3.828,6.885     c-2.2,1.401-5.104,1.898-7.973,1.363c-2.073-0.385-4.157-1.283-6.209-2.671c-1.585,2.662-4.841,4.443-8.496,4.546     c-0.109,0.003-0.219,0.005-0.327,0.005c-3.383,0-6.728-1.484-9.018-3.969c-2.406,2.022-5.44,2.856-8.303,2.242     c-2.726-0.586-5.118-2.474-6.376-4.952c-2.249,1.422-5.301,2.915-8.574,2.624c-2.879-0.254-6.005-2.289-6.851-5.297     c-3.029,1.362-5.901,1.77-8.552,1.218c-3.064-0.641-5.608-2.719-6.627-5.281c-2.81,1.523-6.455,1.339-9.319-0.585     c-2.773-1.862-4.488-5.178-4.485-8.51h-0.001c-1.678,0-3.413-0.12-5.071-0.632c-2.43-0.751-4.299-2.298-5.127-4.242     c-0.983-2.305-0.468-4.755,0.367-7.135c-2.688-0.22-5.36-2.087-6.641-4.812c-1.288-2.741-1.069-6.042,0.48-8.608     c-3.287-1.444-5.363-5.219-4.768-9.065c0.553-3.565,3.442-6.594,6.907-7.495c-0.759-1.346-1.157-2.942-1.164-4.697     c-0.009-2.509,0.875-4.745,2.425-6.135c1.506-1.35,3.76-1.997,6.19-1.775c1.586,0.144,3.073,0.604,4.51,1.128     c0.339-3.681,3.054-7.096,6.59-8.002c3.037-0.779,6.368,0.314,8.521,2.537c0.467-2.148,1.662-3.966,3.382-4.993     c0.715-0.427,1.498-0.703,2.303-0.845c-0.043-0.088-0.086-0.177-0.128-0.264c-0.036-0.075-0.07-0.15-0.105-0.225     c-0.115-0.242-0.227-0.484-0.334-0.722c-0.038-0.083-0.076-0.166-0.113-0.249c-0.133-0.298-0.262-0.594-0.384-0.887     c-0.015-0.035-0.028-0.07-0.043-0.105c-0.079-0.191-0.158-0.381-0.233-0.569c-1.163-0.073-2.319-0.108-3.466-0.108     c-9.17,0-17.793,2.281-25.212,6.708c-11.214,6.686-18.704,18.203-19.672,29.917c0.012,2.552,0.112,5.112,0.302,7.672     c1.255,7.926,5.348,15.978,11.649,22.697c6.339,6.754,15.021,12.562,26.543,17.754c28.908,13.039,61.837,16.655,92.9,10.234     c11.523-20.186,18.177-42.623,19.78-66.719c0.127-1.896,0.214-3.876,0.253-5.915c-1.368-0.872-2.744-1.728-4.131-2.564     C228.848,119.545,228.636,120.628,228.229,121.648z" />
			<path style="fill:#9CA8E2;" d="M180.229,213.759c-11.948,0-23.833-1.445-35.13-4.342c-20.788-5.331-40.56-15.906-56.637-30.156     c0.003,0.012,0.006,0.024,0.009,0.036c8.85,17.39,29.268,30.111,57.55,35.84c24.492,4.96,51.449,3.866,70.726-2.83     c0.785-1.22,1.537-2.475,2.273-3.747l-0.423,0.115C206.189,212.062,193.172,213.759,180.229,213.759z" />
			<path style="fill:#9CA8E2;" d="M216.019,200.27c-11.018,2.4-22.275,3.588-33.525,3.588c-22.434,0-44.847-4.72-65.335-13.961     c-12.389-5.584-21.811-11.92-28.804-19.37c-0.932-0.994-1.818-2.012-2.664-3.046c0.357,1.635,0.723,3.251,1.096,4.846     c16.312,15.853,37.212,27.605,59.293,33.267c22.673,5.814,47.805,5.614,70.846-0.555c7.802-10.107,12.805-22.36,14.474-35.003     c-3.395,9.925-7.754,19.461-13.071,28.556C217.827,199.45,216.99,200.059,216.019,200.27z" />
			<path style="fill:#2D0303;" d="M152.91,84.527c-1.635,2.075-3.116,4.258-4.277,6.635c-0.912,1.867,1.882,3.512,2.799,1.636     c1.039-2.126,2.263-4.125,3.937-5.812c1.149-1.159,2.644-2.078,3.896-3.167c-1.227-0.722-2.379-1.566-3.446-2.51     C154.718,82.282,153.751,83.461,152.91,84.527z" />
			<path style="fill:#2D0303;" d="M177.499,48.406c0.956-1.929-1.92-3.635-2.905-1.698c-1.382,2.719-2.635,5.561-3.58,8.462     c-0.562,1.728-1.252,4.018-1.358,6.133c1.283,0.351,2.625,0.9,4.148,1.712c0.014,0.007,0.027,0.016,0.041,0.023     c0.568-2.058,0.581-4.426,0.969-6.458C175.36,53.717,176.203,51.02,177.499,48.406z" />
			<path style="fill:#2D0303;" d="M239.608,107.572c-0.397-3.955-1.012-7.731-1.851-11.308     c-2.623-11.196-7.415-20.488-14.243-27.619c-5.186-5.416-11.739-9.575-19.08-12.144c-0.025-3.654-1.155-7.457-3.27-10.806     c-2.506-3.968-6.352-7.47-11.757-10.704c-5.428-3.253-10.088-4.849-14.664-5.021c-8.834-0.332-17.328,5.173-20.633,13.384     c-2.666,6.633-1.672,14.328,2.291,20.142c-1.312,0.93-2.34,2.03-3.133,3.334c-0.454,0.744-0.802,1.535-1.056,2.357     c-0.383,0.412-0.76,0.83-1.13,1.255c-6.707-1.366-12.639-0.294-16.882,3.104c-4.423,3.542-6.833,9.527-6.447,16.014     c0.041,0.675,0.113,1.349,0.209,2.028c-11.002-0.263-21.408,2.361-30.344,7.693c-12.643,7.538-21.258,20.434-22.94,33.823     c-0.128,0.364-0.202,0.753-0.205,1.161c-0.001,0.279,0.001,0.559,0.002,0.838c-0.072,0.981-0.108,1.963-0.103,2.944     c0.008,1.972,0.169,3.947,0.467,5.916c1.019,13.132,4,26.031,6.835,37.433c0.062,0.252,0.152,0.495,0.268,0.727     c9.753,19.568,32.009,33.765,62.669,39.975c10.608,2.149,21.68,3.206,32.462,3.206c15.819,0,31.015-2.275,43.207-6.715     c0.713-0.26,1.324-0.742,1.743-1.374c9.488-14.3,15.658-32.041,18.339-52.733c2.247-17.338,2.031-36.313-0.642-56.397     C239.696,107.908,239.656,107.738,239.608,107.572z M198.876,69.061c0.125-0.116,0.247-0.235,0.367-0.353     c0.095-0.093,0.189-0.186,0.281-0.281c0.119-0.121,0.235-0.244,0.35-0.368c0.087-0.095,0.176-0.19,0.262-0.285     c0.114-0.128,0.223-0.257,0.333-0.387c0.08-0.096,0.162-0.19,0.24-0.287c0.11-0.136,0.215-0.274,0.321-0.411     c0.072-0.094,0.146-0.187,0.216-0.282c0.109-0.15,0.213-0.301,0.317-0.454c0.06-0.086,0.121-0.17,0.179-0.257     c0.127-0.192,0.247-0.387,0.365-0.582c0.03-0.049,0.062-0.097,0.091-0.147c0.144-0.243,0.281-0.49,0.412-0.739     c0.046-0.088,0.087-0.177,0.131-0.266c0.074-0.148,0.151-0.296,0.22-0.445c5.933,2.216,11.215,5.646,15.423,10.041     c1.582,1.651,2.996,3.413,4.273,5.254c-7.084-3.831-15.214-7.1-23.933-9.607C198.776,69.158,198.825,69.109,198.876,69.061z      M228.846,91.134c2.441,6.961,3.606,14.36,4.012,21.43c-17.005-10.284-35.364-17.889-54.7-22.655     c-0.085-1.397-0.236-2.813-0.474-4.247c0.373-0.198,0.734-0.421,1.085-0.657c0.519-0.236,0.955-0.582,1.291-1     c0.791-0.705,1.49-1.511,2.061-2.402c1.068-1.679,1.683-3.643,1.806-5.632c1.963-0.435,4.057-0.978,6.139-1.73     c0.173,0.072,0.351,0.134,0.538,0.178C205.68,77.982,219.233,83.909,228.846,91.134z M160.699,46.004     c2.171-5.395,7.974-9.152,13.777-8.936c3.333,0.125,6.917,1.401,11.28,4.017c4.429,2.65,7.504,5.398,9.401,8.402     c1.796,2.844,2.534,6.091,2.025,8.908c0,0.004-0.001,0.008-0.002,0.013c-0.099,0.56-0.252,1.109-0.456,1.631     c-1.382,3.555-4.846,5.647-6.791,6.578c-2.75,1.322-5.833,2.07-8.723,2.67c-1.985-2.564-4.504-4.714-7.366-6.249     c-0.145,0.526-0.317,1.036-0.552,1.51c-0.745,1.505-2.844,0.92-3.322-0.434c-0.297-0.842-0.366-1.808-0.315-2.811     c-2.072-0.567-3.988-0.613-6.253-0.379C159.874,56.97,158.717,50.937,160.699,46.004z M158.904,71.635     c0.076-0.397,0.217-0.76,0.431-1.111c0.376-0.618,1.147-1.522,3.484-2.373c0.014-0.002,0.028-0.002,0.042-0.004     c3.406-0.48,4.736-0.393,7.6,1.136c2.658,1.417,4.891,3.603,6.383,6.217c-0.043,0.81-0.287,1.616-0.711,2.282     c-0.233,0.364-0.529,0.693-0.864,0.982c-3.084,1.148-6.581,1.219-9.702,0.179c-2.422-0.808-4.622-2.289-6.317-4.206     c-0.018-0.075-0.029-0.149-0.052-0.222C158.85,73.384,158.751,72.417,158.904,71.635z M138.639,79.09     c2.016-1.614,4.544-2.128,6.944-2.128c2.238,0,4.365,0.446,5.867,0.864c0.511,0.142,1.025,0.301,1.536,0.475     c0.842,1.091,1.8,2.093,2.833,3.008c0.9-0.795,1.889-1.456,2.985-1.785c1.883-0.564,2.734,1.69,1.735,2.981     c-0.369,0.477-0.806,0.907-1.275,1.314c1.286,0.757,2.643,1.39,4.055,1.861c2.19,0.73,4.505,1.093,6.822,1.093     c0.171,0,0.342-0.009,0.514-0.013c1.312,7.787-0.125,14.892-4.086,19.777c-4.608,5.686-12.756,7.827-18.552,4.872     c-3.283-1.671-6.06-4.791-9.003-10.113c-0.182-0.33-0.358-0.653-0.526-0.972c-0.409-0.772-0.773-1.506-1.105-2.216     c-0.622-1.332-1.119-2.574-1.509-3.778c0-0.001-0.001-0.002-0.001-0.003c-0.593-1.832-0.931-3.533-1.032-5.195     C134.598,85.01,136.052,81.162,138.639,79.09z M132.259,103.734c0.175,0.328,0.353,0.66,0.54,0.998     c2.279,4.123,6.003,9.956,11.995,13.008c0.319,0.162,0.642,0.312,0.968,0.455c0.101,0.045,0.204,0.086,0.307,0.129     c0.23,0.096,0.462,0.188,0.695,0.275c0.114,0.043,0.229,0.085,0.344,0.125c0.242,0.085,0.487,0.164,0.732,0.239     c0.096,0.03,0.191,0.062,0.288,0.09c0.337,0.098,0.677,0.187,1.018,0.267c0.067,0.014,0.134,0.027,0.2,0.042     c0.28,0.061,0.561,0.118,0.843,0.168c0.118,0.02,0.235,0.039,0.353,0.057c0.242,0.038,0.483,0.072,0.726,0.102     c0.119,0.014,0.237,0.029,0.356,0.041c0.278,0.029,0.556,0.052,0.835,0.069c0.077,0.005,0.153,0.013,0.229,0.017     c0.355,0.018,0.711,0.028,1.068,0.029c0.02,0,0.04,0.002,0.06,0.002c0.058,0,0.115-0.005,0.173-0.005     c0.307-0.003,0.615-0.012,0.924-0.027c0.108-0.006,0.217-0.012,0.325-0.019c0.325-0.021,0.649-0.049,0.973-0.084     c0.058-0.007,0.115-0.011,0.173-0.017c0.381-0.045,0.761-0.101,1.14-0.164c0.089-0.015,0.177-0.033,0.266-0.049     c0.3-0.055,0.601-0.115,0.9-0.182c0.1-0.021,0.199-0.043,0.297-0.066c0.756-0.179,1.506-0.395,2.246-0.65     c0.094-0.032,0.187-0.066,0.281-0.099c0.292-0.105,0.584-0.215,0.873-0.331c0.086-0.036,0.173-0.069,0.259-0.104     c0.365-0.152,0.727-0.311,1.086-0.481c0.034-0.016,0.066-0.034,0.1-0.05c0.322-0.154,0.641-0.318,0.957-0.487     c0.094-0.05,0.187-0.102,0.28-0.154c0.282-0.156,0.562-0.318,0.839-0.486c0.069-0.041,0.138-0.081,0.207-0.124     c0.338-0.21,0.671-0.428,1-0.655c0.064-0.045,0.128-0.092,0.192-0.138c0.265-0.188,0.528-0.38,0.786-0.579     c0.09-0.069,0.179-0.138,0.268-0.208c0.271-0.215,0.539-0.436,0.803-0.663c0.043-0.038,0.088-0.074,0.131-0.112     c0.302-0.264,0.597-0.539,0.886-0.819c0.075-0.073,0.149-0.148,0.223-0.223c0.22-0.219,0.436-0.444,0.649-0.672     c0.079-0.086,0.158-0.171,0.237-0.258c0.273-0.303,0.541-0.611,0.799-0.93c3.103-3.827,5.052-8.584,5.797-13.854     c17.236,4.389,33.653,11.132,48.964,20.096c0.147,1.241,0.004,2.518-0.454,3.664c-0.894,2.245-2.997,4.032-5.357,4.553     c-0.343,0.075-0.62,0.327-0.727,0.662c-0.108,0.334-0.029,0.7,0.206,0.961c2.827,3.139,3.932,6.751,3.033,9.91     c-0.884,3.105-3.611,5.577-6.787,6.153c-0.337,0.061-0.619,0.293-0.743,0.614c-0.125,0.319-0.073,0.681,0.135,0.954     c2.494,3.275,3.336,6.98,2.308,10.166c-1.016,3.149-3.762,5.641-6.996,6.346c-0.333,0.072-0.605,0.311-0.719,0.631     c-0.115,0.322-0.056,0.679,0.156,0.946c2.277,2.869,3.137,6.301,2.301,9.179c-0.896,3.083-3.935,5.308-6.786,4.959     c-0.295-0.037-0.587,0.062-0.801,0.266c-0.214,0.204-0.325,0.493-0.303,0.788c0.2,2.624-0.855,4.873-2.894,6.171     c-1.782,1.135-4.171,1.532-6.552,1.088c-2.096-0.391-4.232-1.399-6.348-2.999c-0.247-0.188-0.568-0.247-0.866-0.162     c-0.298,0.085-0.538,0.305-0.649,0.595c-0.963,2.502-3.947,4.314-7.259,4.409c-3.228,0.093-6.454-1.449-8.415-4.017     c-0.173-0.226-0.436-0.367-0.722-0.386c-0.28-0.014-0.564,0.088-0.764,0.292c-2.034,2.065-4.755,2.973-7.277,2.431     c-2.472-0.531-4.596-2.422-5.41-4.816c-0.099-0.292-0.329-0.522-0.622-0.62c-0.293-0.097-0.615-0.052-0.869,0.123     c-3.251,2.223-5.889,3.158-8.29,2.949c-2.488-0.22-5.2-2.213-5.271-4.83c-0.009-0.342-0.193-0.654-0.487-0.825     c-0.295-0.172-0.657-0.18-0.958-0.022c-3.064,1.614-5.908,2.163-8.457,1.631c-2.829-0.591-5.081-2.678-5.477-5.075     c-0.058-0.346-0.294-0.636-0.622-0.761c-0.327-0.124-0.697-0.067-0.97,0.153c-2.235,1.8-5.598,1.845-8.179,0.112     c-2.485-1.668-3.915-4.786-3.56-7.756c0.034-0.284-0.057-0.569-0.25-0.781c-0.192-0.211-0.478-0.342-0.753-0.323     c-1.707,0.04-3.682,0.035-5.512-0.53c-1.875-0.58-3.295-1.721-3.895-3.13c-0.886-2.078-0.034-4.621,0.914-7.048     c0.13-0.333,0.07-0.711-0.157-0.986c-0.227-0.276-0.585-0.408-0.938-0.344c-2.32,0.422-4.951-1.142-6.122-3.635     c-1.149-2.446-0.727-5.59,1.029-7.645c0.225-0.264,0.296-0.627,0.185-0.955c-0.11-0.329-0.386-0.576-0.725-0.65     c-3.01-0.657-5.123-3.992-4.612-7.281c0.501-3.238,3.457-5.912,6.728-6.088c0.378-0.019,0.71-0.255,0.857-0.603     c0.146-0.35,0.08-0.751-0.171-1.035c-1.354-1.53-1.643-3.442-1.648-4.777c-0.008-1.945,0.637-3.643,1.769-4.658     c1.098-0.985,2.807-1.452,4.693-1.279c1.809,0.165,3.592,0.847,5.316,1.507c0.319,0.122,0.676,0.071,0.948-0.135     c0.271-0.205,0.418-0.536,0.387-0.875c-0.297-3.295,1.998-6.626,5.118-7.425c3.099-0.793,6.73,1.039,7.933,4.001     c0.184,0.456,0.676,0.705,1.152,0.587c0.476-0.119,0.793-0.569,0.743-1.059c-0.272-2.663,0.747-5.097,2.596-6.202     c0.678-0.404,1.455-0.622,2.245-0.664C132.238,103.696,132.249,103.715,132.259,103.734z M216.747,212.307     c-19.277,6.696-46.234,7.79-70.726,2.83c-28.282-5.729-48.7-18.45-57.55-35.84c-0.003-0.012-0.006-0.024-0.009-0.036     c16.077,14.25,35.849,24.825,56.637,30.156c11.297,2.897,23.182,4.342,35.13,4.342c12.943,0,25.96-1.697,38.368-5.084     l0.423-0.115C218.284,209.832,217.532,211.087,216.747,212.307z M216.926,205.039c-23.041,6.169-48.173,6.369-70.846,0.555     c-22.081-5.662-42.981-17.414-59.293-33.267c-0.373-1.595-0.739-3.211-1.096-4.846c0.846,1.034,1.732,2.052,2.664,3.046     c6.993,7.45,16.415,13.786,28.804,19.37c20.488,9.241,42.901,13.961,65.335,13.961c11.25,0,22.507-1.188,33.525-3.588     c0.971-0.211,1.808-0.82,2.31-1.678c5.317-9.095,9.676-18.631,13.071-28.556C229.73,182.679,224.728,194.932,216.926,205.039z      M232.759,126.936c-1.603,24.096-8.257,46.533-19.78,66.719c-31.063,6.421-63.992,2.805-92.9-10.234     c-11.522-5.192-20.204-11-26.543-17.754c-6.301-6.719-10.394-14.771-11.649-22.697c-0.19-2.56-0.29-5.12-0.302-7.672     c0.968-11.714,8.458-23.231,19.672-29.917c7.419-4.427,16.042-6.708,25.212-6.708c1.147,0,2.303,0.035,3.466,0.108     c0.075,0.188,0.154,0.378,0.233,0.569c0.015,0.035,0.028,0.07,0.043,0.105c0.122,0.293,0.251,0.589,0.384,0.887     c0.037,0.083,0.075,0.166,0.113,0.249c0.107,0.238,0.219,0.48,0.334,0.722c0.035,0.075,0.069,0.15,0.105,0.225     c0.042,0.087,0.085,0.176,0.128,0.264c-0.805,0.142-1.588,0.418-2.303,0.845c-1.72,1.027-2.915,2.845-3.382,4.993     c-2.153-2.223-5.484-3.316-8.521-2.537c-3.536,0.906-6.251,4.321-6.59,8.002c-1.437-0.524-2.924-0.984-4.51-1.128     c-2.43-0.222-4.684,0.425-6.19,1.775c-1.55,1.39-2.434,3.626-2.425,6.135c0.007,1.755,0.405,3.351,1.164,4.697     c-3.465,0.901-6.354,3.93-6.907,7.495c-0.595,3.846,1.481,7.621,4.768,9.065c-1.549,2.566-1.768,5.867-0.48,8.608     c1.281,2.725,3.953,4.592,6.641,4.812c-0.835,2.38-1.35,4.83-0.367,7.135c0.828,1.944,2.697,3.491,5.127,4.242     c1.658,0.512,3.393,0.632,5.071,0.632h0.001c-0.003,3.332,1.712,6.648,4.485,8.51c2.864,1.924,6.509,2.108,9.319,0.585     c1.019,2.562,3.563,4.64,6.627,5.281c2.651,0.552,5.523,0.144,8.552-1.218c0.846,3.008,3.972,5.043,6.851,5.297     c3.273,0.291,6.325-1.202,8.574-2.624c1.258,2.478,3.65,4.366,6.376,4.952c2.863,0.614,5.897-0.22,8.303-2.242     c2.29,2.485,5.635,3.969,9.018,3.969c0.108,0,0.218-0.002,0.327-0.005c3.655-0.103,6.911-1.884,8.496-4.546     c2.052,1.388,4.136,2.286,6.209,2.671c2.869,0.535,5.773,0.038,7.973-1.363c2.377-1.514,3.737-3.983,3.828-6.885     c3.442-0.138,6.732-2.77,7.79-6.413c0.9-3.096,0.223-6.668-1.807-9.786c3.283-1.193,5.971-3.921,7.049-7.261     c1.102-3.416,0.449-7.275-1.783-10.772c3.263-1.109,5.941-3.849,6.89-7.18c0.975-3.427,0.064-7.227-2.503-10.608     c2.374-0.964,4.329-2.892,5.283-5.287c0.407-1.02,0.619-2.103,0.652-3.191c1.387,0.836,2.763,1.692,4.131,2.564     C232.973,123.06,232.886,125.04,232.759,126.936z" />
			<path style="fill:#2D0303;" d="M160.54,82.505c0.999-1.291,0.148-3.545-1.735-2.981c-1.097,0.329-2.085,0.99-2.985,1.785     c1.066,0.945,2.219,1.789,3.446,2.51C159.734,83.412,160.171,82.982,160.54,82.505z" />
			<path style="fill:#2D0303;" d="M169.655,61.302c-0.051,1.003,0.018,1.97,0.315,2.811c0.478,1.354,2.577,1.939,3.322,0.434     c0.235-0.474,0.407-0.984,0.552-1.51c-0.014-0.007-0.027-0.016-0.041-0.023C172.28,62.203,170.938,61.654,169.655,61.302z" />
			<path style="fill:#FFA1A1;" d="M192.434,131.774c-2.73-5.213-0.04-12.006,6.008-15.173c6.048-3.167,13.163-1.508,15.893,3.705     c2.73,5.213,0.04,12.006-6.008,15.173S195.163,136.987,192.434,131.774" />
			<path style="fill:#FFA1A1;" d="M132.981,162.906c-2.729-5.213-0.04-12.006,6.008-15.173c6.048-3.167,13.164-1.508,15.894,3.704     c2.729,5.213,0.039,12.007-6.008,15.174C142.827,169.777,135.711,168.119,132.981,162.906" />
			<path style="fill:#AE71E2;" d="M141.98,105.98c1.68,0.5,3.54,1.31,4.77,1.49c5.95,0.84,11.39-3.86,14.19-9.17     c2.01-3.79,3.13-8.05,3.3-12.34c1.91,0.54,3.91,0.81,5.9,0.81c0.17,0,0.34-0.01,0.52-0.01c1.31,7.79-0.13,14.89-4.09,19.78     c-4.61,5.68-12.76,7.82-18.55,4.87C145.85,110.31,143.9,108.57,141.98,105.98z" />
			<path style="fill:#AE71E2;" d="M166.96,79.32c1.73-1.3,3.34-2.75,4.55-4.54c0.75-1.11,1.32-2.38,1.62-3.69     c1.49,1.23,2.75,2.73,3.71,4.41c-0.04,0.81-0.28,1.62-0.71,2.28c-0.23,0.37-0.53,0.69-0.86,0.98     C172.63,79.74,169.7,79.94,166.96,79.32z" />
			<path style="fill:#E9EDFF;" d="M177.89,97.16c1.85,0.47,3.69,0.97,5.52,1.5c-0.36,4.63-0.86,9.23-2.75,13.43     c-2.77,6.19-8.54,10.94-15.14,12.47c-6.6,1.53-13.88-0.19-19.09-4.51c-1.09-0.91-2.34-2.09-3.54-3.42c0.6,0.4,1.24,0.77,1.9,1.11     c0.32,0.16,0.65,0.31,0.97,0.45c0.1,0.05,0.21,0.09,0.31,0.13c0.23,0.1,0.46,0.19,0.69,0.28c0.12,0.04,0.23,0.08,0.35,0.12     c0.24,0.09,0.48,0.17,0.73,0.24c0.1,0.03,0.19,0.06,0.29,0.09c0.33,0.1,0.67,0.19,1.02,0.27c0.06,0.01,0.13,0.03,0.2,0.04     c0.28,0.06,0.56,0.12,0.84,0.17c0.12,0.02,0.23,0.04,0.35,0.06c0.24,0.03,0.48,0.07,0.73,0.1c0.12,0.01,0.23,0.03,0.35,0.04     c0.28,0.03,0.56,0.05,0.84,0.07c0.08,0,0.15,0.01,0.23,0.02c0.35,0.01,0.71,0.02,1.07,0.02c0.02,0,0.04,0.01,0.06,0.01     c0.05,0,0.11-0.01,0.17-0.01c0.31,0,0.61-0.01,0.92-0.03c0.11,0,0.22-0.01,0.33-0.01c0.32-0.03,0.65-0.05,0.97-0.09     c0.06-0.01,0.12-0.01,0.17-0.02c0.38-0.04,0.76-0.1,1.14-0.16c0.09-0.01,0.18-0.03,0.27-0.05c0.3-0.05,0.6-0.11,0.9-0.18     c0.1-0.02,0.2-0.04,0.3-0.07c0.75-0.18,1.5-0.39,2.24-0.65c0.1-0.03,0.19-0.06,0.28-0.1c0.3-0.1,0.59-0.21,0.88-0.33     c0.08-0.03,0.17-0.07,0.26-0.1c0.36-0.15,0.72-0.31,1.08-0.48c0.04-0.02,0.07-0.04,0.1-0.05c0.32-0.16,0.64-0.32,0.96-0.49     c0.09-0.05,0.19-0.1,0.28-0.15c0.28-0.16,0.56-0.32,0.84-0.49c0.07-0.04,0.14-0.08,0.2-0.12c0.34-0.21,0.68-0.43,1-0.66     c0.07-0.04,0.13-0.09,0.2-0.14c0.26-0.18,0.52-0.38,0.78-0.57c0.09-0.07,0.18-0.14,0.27-0.21c0.27-0.22,0.54-0.44,0.8-0.67     c0.05-0.03,0.09-0.07,0.13-0.11c0.31-0.26,0.6-0.54,0.89-0.82c0.08-0.07,0.15-0.14,0.22-0.22c0.22-0.22,0.44-0.44,0.65-0.67     c0.08-0.09,0.16-0.17,0.24-0.26c0.27-0.3,0.54-0.61,0.8-0.93C175.19,107.18,177.14,102.43,177.89,97.16z" />
			<path style="fill:#AE71E2;" d="M198.45,76.52c-3.16,1.91-6.73,3.12-10.38,3.54c0.49,2.68-0.2,5.56-1.85,7.73     c-0.64,0.84-1.42,1.59-1.84,2.55c-0.16,0.36-0.27,0.74-0.34,1.13c-1.95-0.56-3.91-1.07-5.88-1.56c-0.09-1.4-0.24-2.81-0.48-4.25     c0.38-0.2,0.74-0.42,1.09-0.66c0.52-0.23,0.95-0.58,1.29-1c0.79-0.7,1.49-1.51,2.06-2.4c1.07-1.68,1.68-3.64,1.81-5.63     c1.96-0.43,4.05-0.98,6.14-1.73c0.17,0.07,0.35,0.13,0.53,0.18C193.27,75.05,195.89,75.75,198.45,76.52z" />
			<path style="fill:#AE71E2;" d="M176.7,64.86c5.57-1.22,10.6-4.92,13.25-9.99c1.46-2.8,2.16-5.96,2.12-9.11     c1.26,1.2,2.28,2.44,3.09,3.73c1.79,2.84,2.53,6.09,2.02,8.9c0,0.01,0,0.01,0,0.02c-0.1,0.56-0.25,1.11-0.46,1.63     c-1.38,3.55-4.84,5.65-6.79,6.58c-2.75,1.32-5.83,2.07-8.72,2.67C179.92,67.62,178.4,66.12,176.7,64.86z" />
			<path style="fill:#9CA8E2;" d="M207.99,65.77c-0.29,0.72-0.63,1.41-1.01,2.09c-0.64,1.15-1.38,2.23-2.21,3.24     c-1.98-0.67-4-1.31-6.05-1.9c0.06-0.04,0.1-0.09,0.16-0.14c0.12-0.12,0.24-0.23,0.36-0.35c0.1-0.1,0.19-0.19,0.28-0.28     c0.12-0.12,0.24-0.25,0.35-0.37c0.09-0.1,0.18-0.19,0.27-0.29c0.11-0.12,0.22-0.25,0.33-0.38c0.08-0.1,0.16-0.19,0.24-0.29     c0.11-0.14,0.21-0.27,0.32-0.41c0.07-0.1,0.15-0.19,0.22-0.28c0.1-0.15,0.21-0.3,0.31-0.46c0.06-0.08,0.12-0.17,0.18-0.25     c0.13-0.2,0.25-0.39,0.37-0.59c0.03-0.05,0.06-0.09,0.09-0.14c0.14-0.25,0.28-0.49,0.41-0.74c0.05-0.09,0.09-0.18,0.13-0.27     c0.07-0.15,0.15-0.29,0.22-0.44C204.69,64.16,206.37,64.92,207.99,65.77z" />
		</g>
		<g>
			<path style="fill:#2D0303;" d="M172.066,138.859c-2.16,1.131-4.836,1.276-7.213,0.381c-0.816-0.308-1.227-1.218-0.92-2.034     c0.307-0.816,1.216-1.228,2.033-0.92c1.596,0.6,3.374,0.491,4.773-0.299c1.397-0.79,2.422-2.271,2.742-3.961     c0.162-0.857,0.988-1.42,1.844-1.258c0.857,0.162,1.42,0.988,1.258,1.845c-0.491,2.592-2.095,4.88-4.289,6.122     C172.218,138.777,172.142,138.819,172.066,138.859" />
			<path style="fill:#2D0303;" d="M158.789,138.447c-0.939,0.492-2.125,0.365-2.943-0.4c-1.927-1.803-3.994-2.199-5.039-1.658     c-0.002,0.001-0.004,0.003-0.007,0.004c-1.038,0.543-1.894,2.449-1.525,5.045c0.2,1.403-0.776,2.701-2.178,2.901     c-1.402,0.2-2.701-0.776-2.901-2.178c-0.652-4.583,1.006-8.627,4.224-10.312c0.009-0.005,0.018-0.009,0.028-0.014     c3.232-1.674,7.512-0.706,10.903,2.466c1.034,0.967,1.088,2.59,0.121,3.625C159.269,138.143,159.038,138.317,158.789,138.447" />
			<path style="fill:#2D0303;" d="M192.068,121.021c-0.939,0.491-2.125,0.365-2.942-0.4c-1.928-1.803-3.995-2.199-5.04-1.658     c-0.002,0.001-0.004,0.002-0.006,0.003c-1.039,0.544-1.895,2.45-1.525,5.046c0.199,1.403-0.777,2.7-2.178,2.901     c-1.403,0.199-2.702-0.776-2.901-2.178c-0.652-4.584,1.005-8.627,4.223-10.313c0.01-0.005,0.018-0.009,0.028-0.014     c3.233-1.674,7.512-0.705,10.903,2.467c1.034,0.967,1.089,2.59,0.121,3.625C192.548,120.716,192.317,120.89,192.068,121.021" />
		</g>
	</g>
	<g>
		<g>
			<path style="fill:#FFFFFF;" d="M240.78,349.28c-1.32,2.17-3,4.13-4.96,5.82c-4.18,3.63-9.61,6.01-15.31,6.56     c-8.03,0.78-16.71-2.05-23.23-7.57c-1.25-1.06-3.07-1.12-4.39-0.15c-9.3,6.8-20.91,10.53-32.76,10.53h-0.47     c-11.88-0.09-23.72-4-33.33-10.99c-0.62-0.45-1.35-0.68-2.09-0.68c-0.6,0-1.2,0.15-1.74,0.46c-10.51,5.92-23.29,8.01-35.06,5.73     c-0.94-0.18-1.83-0.39-2.67-0.62c-3.73-1.01-6.5-2.48-8.42-4.46c-2.21-2.27-3.67-5.66-4.12-9.57     c-0.96-8.45,3.33-17.49,10.43-21.97c7.21-4.57,17.12-4.43,24.08,0.32c1.62,1.11,3.83,0.69,4.93-0.93     c1.11-1.62,0.69-3.83-0.93-4.94c-4.22-2.88-9.26-4.48-14.39-4.8c2.48-5.3,7.05-9.66,12.51-11.75c6.51-2.49,14.22-1.76,20.14,1.91     c0.87,0.54,1.93,0.68,2.91,0.38c0.98-0.3,1.78-1,2.2-1.93c5.51-12.22,16.07-21.64,28.26-25.22c12.27-3.61,25.93-1.5,36.55,5.63     c10.61,7.14,17.72,18.99,19.01,31.72c0.1,0.95,0.58,1.83,1.33,2.42c0.75,0.6,1.71,0.86,2.66,0.74     c7.4-0.95,15.61,3.38,19.52,10.31C245.27,333.04,245.01,342.3,240.78,349.28z" />
			<path style="fill:#2D0303;" d="M224.543,308.69c-2.327-13.512-10.255-25.872-21.665-33.541     c-12.347-8.299-28.239-10.75-42.513-6.557c-13.198,3.878-24.346,13.161-31.065,25.733c-7.169-3.187-15.661-3.494-22.982-0.686     c-8.329,3.196-15.088,10.403-17.78,18.907c-3.42,0.677-6.718,1.949-9.674,3.816c-9.462,5.98-14.963,17.547-13.688,28.782     c0.619,5.459,2.779,10.333,6.081,13.724c3.41,3.502,8.26,5.822,14.828,7.095c12.668,2.454,26.353,0.467,37.91-5.448     c10.451,7.043,23.008,10.956,35.612,11.061c0.175,0.001,0.348,0.002,0.523,0.002c12.415,0,24.624-3.654,34.726-10.354     c7.717,5.677,17.171,8.399,26.337,7.51c10.543-1.021,20.374-7.066,25.656-15.773c5.609-9.247,5.913-21.109,0.775-30.22     C242.878,314.326,233.741,308.889,224.543,308.69z M240.776,349.276c-4.144,6.831-11.91,11.578-20.268,12.389     c-8.027,0.779-16.708-2.053-23.227-7.571c-1.252-1.06-3.068-1.125-4.391-0.155c-9.299,6.803-20.914,10.535-32.759,10.535     c-0.155,0-0.311,0-0.466-0.002c-11.885-0.097-23.723-4.001-33.335-10.992c-0.62-0.45-1.353-0.679-2.09-0.679     c-0.599,0-1.2,0.152-1.743,0.457c-10.509,5.922-23.289,8.011-35.061,5.731c-5.098-0.987-8.725-2.648-11.09-5.076     c-2.21-2.269-3.67-5.667-4.113-9.57c-0.958-8.454,3.329-17.491,10.426-21.976c7.216-4.562,17.118-4.428,24.08,0.323     c1.619,1.106,3.83,0.69,4.935-0.932c1.106-1.62,0.689-3.83-0.931-4.935c-4.223-2.883-9.259-4.485-14.392-4.8     c2.477-5.302,7.052-9.658,12.511-11.752c6.505-2.494,14.221-1.763,20.14,1.911c0.868,0.54,1.928,0.678,2.907,0.38     c0.979-0.299,1.782-1.005,2.203-1.936c5.508-12.211,16.072-21.639,28.256-25.219c12.271-3.605,25.933-1.498,36.548,5.638     c10.613,7.133,17.723,18.989,19.019,31.712c0.097,0.955,0.575,1.829,1.326,2.423c0.751,0.597,1.712,0.865,2.661,0.741     c7.401-0.953,15.608,3.381,19.515,10.309C245.275,333.036,245.009,342.297,240.776,349.276z" />
			<path style="fill:#E9EDFF;" d="M210.24,319.42c-0.01-0.05-0.02-0.11-0.03-0.17C210.28,319.29,210.28,319.36,210.24,319.42z" />
			<path style="fill:#E9EDFF;" d="M237.19,353.26c-0.42,0.64-0.88,1.26-1.37,1.84c-4.18,3.63-9.61,6.01-15.31,6.56     c-8.03,0.78-16.71-2.05-23.23-7.57c-1.25-1.06-3.07-1.12-4.39-0.15c-9.3,6.8-20.91,10.53-32.76,10.53h-0.47     c-11.88-0.09-23.72-4-33.33-10.99c-0.62-0.45-1.35-0.68-2.09-0.68c-0.6,0-1.2,0.15-1.74,0.46c-10.51,5.92-23.29,8.01-35.06,5.73     c-0.94-0.18-1.83-0.39-2.67-0.62c-0.37-0.37-0.71-0.75-1.03-1.15c-4.08-4.99-5.44-12.22-2.95-18.16     c2.54-6.09,8.64-10.16,15.05-11.73c5.09-1.25,10.6-1.1,15.4,1c2.25,0.99,4.91,2.39,6.97,1.04c1.54-1,1.9-3.16,1.46-4.94     c-0.45-1.77-1.52-3.32-2.33-4.96c-0.82-1.64-1.39-3.57-0.77-5.29c0.5-1.39,1.69-2.41,2.95-3.15c4.98-2.91,11.88-2.02,15.94,2.08     c4.38-6.67,9.7-13.52,16.36-17.9c3.74-2.46,8.02-4.03,12.39-4.98c9.95-2.14,20.76-0.95,29.53,4.2     c8.77,5.16,15.22,14.46,16.02,24.6c0.01,0.19,0.05,0.41,0.22,0.5c0.1,0.05,0.21-0.02,0.26-0.11c0.4,1.99,2.37,3.73,4.36,4.1     c2.06,0.38,4.17,0.01,6.26-0.02c6.93-0.1,13.77,3.89,17.11,9.97C241.31,339.55,241,347.46,237.19,353.26z" />
			<path style="fill:#FFA1A1;" d="M188.881,332.338c0-5.884,5.535-10.654,12.361-10.654c6.827,0,12.362,4.77,12.362,10.654     c0,5.885-5.535,10.654-12.362,10.654C194.416,342.992,188.881,338.223,188.881,332.338" />
			<path style="fill:#FFA1A1;" d="M121.772,332.338c0-5.884,5.534-10.654,12.361-10.654s12.362,4.77,12.362,10.654     c0,5.885-5.535,10.654-12.362,10.654S121.772,338.223,121.772,332.338" />
		</g>
		<g>
			<path style="fill:#F2385C;" d="M161.899,334.072c1.374,2.409,3.503,3.96,5.89,3.96c2.53,0,4.77-1.742,6.128-4.402     c-1.54-0.914-3.719-1.445-5.902-1.409C165.645,332.261,163.344,332.963,161.899,334.072z" />
			<path style="fill:#BF1B4E;" d="M160.417,325.781c-0.084,0.619-0.126,1.252-0.126,1.893c0,1.947,0.392,3.769,1.071,5.327     c1.647-1.18,4.118-1.922,6.634-1.963c2.333-0.038,4.685,0.527,6.407,1.508c0.563-1.453,0.884-3.112,0.884-4.872     c0-0.718-0.053-1.428-0.159-2.122C169.714,327.454,164.775,327.529,160.417,325.781z" />
			<path style="fill:#2D0303;" d="M148.847,306.486c-5.434,0-9.84,4.406-9.84,9.841s4.406,9.841,9.84,9.841     c5.435,0,9.841-4.406,9.841-9.841S154.282,306.486,148.847,306.486z M144.437,318.343c-1.001,0-1.812-0.811-1.812-1.811     s0.811-1.812,1.812-1.812c1,0,1.811,0.812,1.811,1.812S145.437,318.343,144.437,318.343z M151.737,316.532     c-1.841,0-3.334-1.493-3.334-3.334c0-1.842,1.493-3.334,3.334-3.334s3.333,1.492,3.333,3.334     C155.07,315.039,153.578,316.532,151.737,316.532z" />
			<path style="fill:#FFFFFF;" d="M151.737,309.864c-1.841,0-3.334,1.492-3.334,3.334c0,1.841,1.493,3.334,3.334,3.334     s3.333-1.493,3.333-3.334C155.07,311.356,153.578,309.864,151.737,309.864z" />
			<path style="fill:#FFFFFF;" d="M144.437,314.72c-1.001,0-1.812,0.812-1.812,1.812s0.811,1.811,1.812,1.811     c1,0,1.811-0.811,1.811-1.811S145.437,314.72,144.437,314.72z" />
			<path style="fill:#2D0303;" d="M186.528,306.486c-5.435,0-9.841,4.406-9.841,9.841s4.406,9.841,9.841,9.841     c5.434,0,9.84-4.406,9.84-9.841S191.962,306.486,186.528,306.486z M182.116,318.343c-1,0-1.811-0.811-1.811-1.811     s0.811-1.812,1.811-1.812s1.811,0.812,1.811,1.812S183.116,318.343,182.116,318.343z M189.417,316.532     c-1.841,0-3.334-1.493-3.334-3.334c0-1.842,1.493-3.334,3.334-3.334s3.334,1.492,3.334,3.334     C192.751,315.039,191.258,316.532,189.417,316.532z" />
			<path style="fill:#FFFFFF;" d="M189.417,309.864c-1.841,0-3.334,1.492-3.334,3.334c0,1.841,1.493,3.334,3.334,3.334     s3.334-1.493,3.334-3.334C192.751,311.356,191.258,309.864,189.417,309.864z" />
			<path style="fill:#FFFFFF;" d="M182.116,314.72c-1,0-1.811,0.812-1.811,1.812s0.811,1.811,1.811,1.811s1.811-0.811,1.811-1.811     S183.116,314.72,182.116,314.72z" />
			<path style="fill:#2D0303;" d="M176.395,323.396c-0.224-0.137-0.492-0.179-0.748-0.119c-0.143,0.035-0.31,0.097-0.613,0.21     c-5.617,2.099-10.64,2.098-14.929-0.002c-0.27-0.133-0.587-0.135-0.858-0.005c-0.272,0.13-0.469,0.376-0.537,0.67     c-0.26,1.131-0.392,2.317-0.392,3.524c0,6.799,4.249,12.331,9.471,12.331c5.222,0,9.47-5.532,9.47-12.331     c0-1.25-0.141-2.483-0.421-3.664C176.778,323.755,176.619,323.533,176.395,323.396z M167.789,338.032     c-2.387,0-4.516-1.551-5.89-3.96c1.445-1.109,3.746-1.811,6.116-1.851c2.183-0.036,4.362,0.495,5.902,1.409     C172.559,336.29,170.319,338.032,167.789,338.032z M174.403,332.546c-1.722-0.981-4.074-1.546-6.407-1.508     c-2.516,0.041-4.987,0.783-6.634,1.963c-0.679-1.558-1.071-3.38-1.071-5.327c0-0.641,0.042-1.274,0.126-1.893     c4.358,1.748,9.297,1.673,14.711-0.229c0.106,0.694,0.159,1.404,0.159,2.122C175.287,329.434,174.966,331.093,174.403,332.546z" />
		</g>
		<g>
			<path style="fill:#8B8B8B;" d="M136.13,379.965c-1.377-1.331-3.234-1.874-4.948-1.445c-1.582,0.396-3.015,1.613-3.893,3.283     c-0.879-1.67-2.311-2.887-3.893-3.283c-1.714-0.429-3.572,0.114-4.948,1.445c-2.055,1.987-2.871,5.553-2.347,8.709     c0.523,3.156,2.231,5.885,4.347,7.771c2.016,1.797,6.71,5.033,6.841,4.919c0.131,0.114,4.824-3.122,6.841-4.919     c2.116-1.886,3.823-4.615,4.347-7.771C139.001,385.518,138.185,381.952,136.13,379.965" />
			<path style="fill:#8B8B8B;" d="M178.312,387.067c-1.376-1.331-3.234-1.873-4.948-1.444c-1.582,0.395-3.014,1.613-3.893,3.282     c-0.878-1.669-2.31-2.887-3.893-3.282c-1.714-0.429-3.571,0.113-4.948,1.444c-2.055,1.987-2.87,5.553-2.347,8.709     c0.524,3.156,2.232,5.885,4.348,7.771c2.016,1.797,6.71,5.034,6.84,4.919c0.131,0.115,4.824-3.122,6.841-4.919     c2.116-1.886,3.824-4.615,4.347-7.771C181.183,392.62,180.367,389.054,178.312,387.067" />
			<path style="fill:#8B8B8B;" d="M217.773,379.965c-1.376-1.331-3.234-1.874-4.948-1.445c-1.582,0.396-3.014,1.613-3.893,3.283     c-0.878-1.67-2.31-2.887-3.893-3.283c-1.714-0.429-3.571,0.114-4.948,1.445c-2.055,1.987-2.87,5.553-2.347,8.709     c0.524,3.156,2.232,5.885,4.348,7.771c2.016,1.797,6.71,5.033,6.84,4.919c0.131,0.114,4.824-3.122,6.841-4.919     c2.116-1.886,3.824-4.615,4.347-7.771C220.644,385.518,219.828,381.952,217.773,379.965" />
			<path style="fill:#8B8B8B;" d="M204.356,418.242c-1.376-1.331-3.234-1.874-4.948-1.445c-1.582,0.395-3.015,1.613-3.893,3.283     c-0.878-1.67-2.311-2.888-3.893-3.283c-1.714-0.429-3.571,0.114-4.948,1.445c-2.055,1.986-2.871,5.552-2.347,8.708     c0.524,3.157,2.231,5.886,4.347,7.771c2.016,1.798,6.71,5.034,6.841,4.92c0.131,0.114,4.824-3.122,6.841-4.92     c2.116-1.885,3.824-4.614,4.347-7.771C207.227,423.794,206.411,420.228,204.356,418.242" />
			<path style="fill:#8B8B8B;" d="M158.815,419.82c-1.376-1.331-3.234-1.873-4.948-1.445c-1.582,0.396-3.014,1.613-3.893,3.283     c-0.878-1.67-2.311-2.887-3.893-3.283c-1.714-0.428-3.571,0.114-4.948,1.445c-2.055,1.987-2.871,5.553-2.347,8.709     c0.524,3.156,2.231,5.885,4.348,7.771c2.016,1.797,6.71,5.034,6.84,4.919c0.131,0.115,4.824-3.122,6.841-4.919     c2.116-1.886,3.824-4.615,4.347-7.771C161.686,425.373,160.87,421.807,158.815,419.82" />
			<path style="fill:#FFA1A1;" d="M136.13,379.965c-1.377-1.331-3.234-1.874-4.948-1.445c-1.582,0.396-3.015,1.613-3.893,3.283     c-0.879-1.67-2.311-2.887-3.893-3.283c-1.714-0.429-3.572,0.114-4.948,1.445c-2.055,1.987-2.871,5.553-2.347,8.709     c0.523,3.156,2.231,5.885,4.347,7.771c2.016,1.797,6.71,5.033,6.841,4.919c0.131,0.114,4.824-3.122,6.841-4.919     c2.116-1.886,3.823-4.615,4.347-7.771C139.001,385.518,138.185,381.952,136.13,379.965" />
			<path style="fill:#FFA1A1;" d="M178.312,387.067c-1.376-1.331-3.234-1.873-4.948-1.444c-1.582,0.395-3.014,1.613-3.893,3.282     c-0.878-1.669-2.31-2.887-3.893-3.282c-1.714-0.429-3.571,0.113-4.948,1.444c-2.055,1.987-2.87,5.553-2.347,8.709     c0.524,3.156,2.232,5.885,4.348,7.771c2.016,1.797,6.71,5.034,6.84,4.919c0.131,0.115,4.824-3.122,6.841-4.919     c2.116-1.886,3.824-4.615,4.347-7.771C181.183,392.62,180.367,389.054,178.312,387.067" />
			<path style="fill:#FFA1A1;" d="M217.773,379.965c-1.376-1.331-3.234-1.874-4.948-1.445c-1.582,0.396-3.014,1.613-3.893,3.283     c-0.878-1.67-2.31-2.887-3.893-3.283c-1.714-0.429-3.571,0.114-4.948,1.445c-2.055,1.987-2.87,5.553-2.347,8.709     c0.524,3.156,2.232,5.885,4.348,7.771c2.016,1.797,6.71,5.033,6.84,4.919c0.131,0.114,4.824-3.122,6.841-4.919     c2.116-1.886,3.824-4.615,4.347-7.771C220.644,385.518,219.828,381.952,217.773,379.965" />
			<path style="fill:#FFA1A1;" d="M204.356,418.242c-1.376-1.331-3.234-1.874-4.948-1.445c-1.582,0.395-3.015,1.613-3.893,3.283     c-0.878-1.67-2.311-2.888-3.893-3.283c-1.714-0.429-3.571,0.114-4.948,1.445c-2.055,1.986-2.871,5.552-2.347,8.708     c0.524,3.157,2.231,5.886,4.347,7.771c2.016,1.798,6.71,5.034,6.841,4.92c0.131,0.114,4.824-3.122,6.841-4.92     c2.116-1.885,3.824-4.614,4.347-7.771C207.227,423.794,206.411,420.228,204.356,418.242" />
			<path style="fill:#FFA1A1;" d="M158.815,419.82c-1.376-1.331-3.234-1.873-4.948-1.445c-1.582,0.396-3.014,1.613-3.893,3.283     c-0.878-1.67-2.311-2.887-3.893-3.283c-1.714-0.428-3.571,0.114-4.948,1.445c-2.055,1.987-2.871,5.553-2.347,8.709     c0.524,3.156,2.231,5.885,4.348,7.771c2.016,1.797,6.71,5.034,6.84,4.919c0.131,0.115,4.824-3.122,6.841-4.919     c2.116-1.886,3.824-4.615,4.347-7.771C161.686,425.373,160.87,421.807,158.815,419.82" />
		</g>
	</g>
	<g>
		<g>
			<path style="fill:#9CA8E2;" d="M383.383,334.758c2.892,3.712,5.318,7.74,7.537,11.775c0.481-0.38,0.959-0.752,1.438-1.12     C389.854,341.403,386.809,337.802,383.383,334.758z" />
			<path style="fill:#CAD0FC;" d="M449.996,400.894c8.874-10.77,13.351-23.789,12.285-35.719     c-0.847-9.474-5.35-18.132-11.962-23.839c-0.735-0.456-1.485-0.882-2.255-1.267c-0.214-0.108-0.425-0.207-0.636-0.307     c-0.37-0.034-0.736-0.124-1.085-0.274c-4.353-1.879-9.209-2.829-14.452-2.781h-0.023c-0.371,0-0.734-0.06-1.079-0.171     c-3.622,0.114-7.295,0.689-10.937,1.722c-8.471,2.401-16.99,7.164-26.046,14.56c-0.623,0.508-1.374,0.756-2.12,0.756     c-0.973,0-1.936-0.421-2.6-1.233c-0.548-0.673-0.79-1.493-0.748-2.296c-3.803-7.068-8.122-14.233-14.367-19.506     c-2.433-2.053-5.522-3.981-8.946-5.273c-0.166-0.037-0.332-0.079-0.498-0.115c-3.143-0.669-6.393-0.893-9.661-0.664     c-0.378,0.026-0.751-0.013-1.11-0.103c-9.204,0.919-17.636,5.356-22.717,12.005c-4.167,5.446-6.627,12.846-6.926,20.834     c-0.253,6.858,0.964,14.304,3.721,22.76c7.956,24.44,24.852,45.554,46.819,58.793c15.267-2.726,30.046-7.591,43.948-14.483     C432.384,417.461,442.654,409.807,449.996,400.894z" />
			<path style="fill:#E9EDFF;" d="M367.967,318.669l3.096-15.228c1.838-9.04,7.085-16.823,14.774-21.913     c7.693-5.092,16.906-6.882,25.939-5.045c9.036,1.839,16.818,7.085,21.912,14.773c5.093,7.694,6.884,16.906,5.046,25.941     l-2.555,12.574c3.095,0.262,6.074,0.83,8.914,1.701l2.535-12.468c2.322-11.414,0.057-23.048-6.375-32.759v-0.001     c-6.429-9.71-16.255-16.335-27.668-18.656c-11.411-2.319-23.045-0.055-32.76,6.375c-9.711,6.429-16.337,16.256-18.657,27.669     l-3.19,15.696c2.372,0.092,4.722,0.385,7.027,0.875C366.659,318.343,367.314,318.498,367.967,318.669z" />
			<path style="fill:#9CA8E2;" d="M466.209,364.8l0.003,0.024c1.157,12.955-3.643,27.016-13.17,38.58     c-7.704,9.35-18.396,17.339-32.688,24.424c-6.562,3.254-13.316,6.064-20.221,8.425c6.388-1.749,12.714-3.739,18.83-6.172     c14.27-5.678,25.646-13.159,33.811-22.235c9.503-10.558,14.719-23.718,14.311-36.104     C467.006,369.394,466.705,367.069,466.209,364.8z" />
			<path style="fill:#2D0303;" d="M451.741,334.424l2.848-14.005c2.699-13.273,0.066-26.802-7.413-38.095     c-7.477-11.292-18.904-18.998-32.176-21.697c-13.268-2.697-26.799-0.065-38.097,7.413c-11.292,7.478-18.997,18.905-21.696,32.177     l-3.589,17.662c-10.564,1.404-19.898,6.571-25.908,14.435c-5.075,6.633-7.945,15.159-8.3,24.66     c-0.283,7.662,1.04,15.869,4.045,25.087c9.147,28.098,29.412,52.069,55.597,65.765c0.497,0.26,1.029,0.383,1.553,0.383     c0.282,0,0.562-0.039,0.832-0.108c0.014,0,0.026,0.002,0.039,0.002c0.248,0,0.5-0.028,0.752-0.086     c13.665-3.129,27.795-6.364,41.215-11.703c15.238-6.063,27.457-14.131,36.318-23.981c10.651-11.834,16.493-26.71,16.028-40.813     C473.263,355.708,464.636,341.242,451.741,334.424z M362.168,301.632c2.32-11.413,8.946-21.24,18.657-27.669     c9.715-6.43,21.349-8.694,32.76-6.375c11.413,2.321,21.239,8.946,27.668,18.656v0.001c6.432,9.711,8.697,21.345,6.375,32.759     l-2.535,12.468c-2.84-0.871-5.819-1.439-8.914-1.701l2.555-12.574c1.838-9.035,0.047-18.247-5.046-25.941     c-5.094-7.688-12.876-12.934-21.912-14.773c-9.033-1.837-18.246-0.047-25.939,5.045c-7.689,5.09-12.936,12.873-14.774,21.913     l-3.096,15.228c-0.653-0.171-1.308-0.326-1.962-0.466c-2.305-0.49-4.655-0.783-7.027-0.875L362.168,301.632z M374.693,321.236     l3.33-16.379c1.461-7.182,5.628-13.364,11.735-17.407c6.11-4.043,13.425-5.468,20.602-4.006     c7.179,1.46,13.36,5.628,17.406,11.734c4.044,6.11,5.468,13.428,4.007,20.604l-2.871,14.131c-3.622,0.237-7.27,0.867-10.88,1.891     c-6.702,1.9-13.374,5.097-20.209,9.681C392.079,332.465,383.89,325.293,374.693,321.236z M392.358,345.413     c-0.479,0.368-0.957,0.74-1.438,1.12c-2.219-4.035-4.645-8.063-7.537-11.775C386.809,337.802,389.854,341.403,392.358,345.413z      M374.653,438.776c-21.967-13.239-38.863-34.353-46.819-58.793c-2.757-8.456-3.974-15.902-3.721-22.76     c0.299-7.988,2.759-15.388,6.926-20.834c5.081-6.649,13.513-11.086,22.717-12.005c0.359,0.09,0.732,0.129,1.11,0.103     c3.268-0.229,6.518-0.005,9.661,0.664c0.166,0.036,0.332,0.078,0.498,0.115c3.424,1.292,6.513,3.22,8.946,5.273     c6.245,5.273,10.564,12.438,14.367,19.506c-0.042,0.803,0.2,1.623,0.748,2.296c0.664,0.812,1.627,1.233,2.6,1.233     c0.746,0,1.497-0.248,2.12-0.756c9.056-7.396,17.575-12.159,26.046-14.56c3.642-1.033,7.315-1.608,10.937-1.722     c0.345,0.111,0.708,0.171,1.079,0.171h0.023c5.243-0.048,10.099,0.902,14.452,2.781c0.349,0.15,0.715,0.24,1.085,0.274     c0.211,0.1,0.422,0.199,0.636,0.307c0.77,0.385,1.52,0.811,2.255,1.267c6.612,5.707,11.115,14.365,11.962,23.839     c1.066,11.93-3.411,24.949-12.285,35.719c-7.342,8.913-17.612,16.567-31.395,23.399     C404.699,431.185,389.92,436.05,374.653,438.776z M452.774,407.846c-8.165,9.076-19.541,16.557-33.811,22.235     c-6.116,2.433-12.442,4.423-18.83,6.172c6.905-2.361,13.659-5.171,20.221-8.425c14.292-7.085,24.984-15.074,32.688-24.424     c9.527-11.564,14.327-25.625,13.17-38.58l-0.003-0.024c0.496,2.269,0.797,4.594,0.876,6.942     C467.493,384.128,462.277,397.288,452.774,407.846z" />
			<path style="fill:#FFA1A1;" d="M407.403,391.388c1.232-5.754,7.643-9.259,14.318-7.83c6.676,1.43,11.089,7.252,9.857,13.006     s-7.642,9.26-14.318,7.831C410.585,402.965,406.172,397.142,407.403,391.388" />
			<path style="fill:#FFA1A1;" d="M341.781,377.339c1.232-5.754,7.643-9.26,14.318-7.831c6.676,1.43,11.089,7.253,9.857,13.007     s-7.642,9.259-14.318,7.83C344.962,388.915,340.549,383.093,341.781,377.339" />
		</g>
		<g>
			<path style="fill:#2D0303;" d="M361.987,364.219c1.138-5.314,6.368-8.7,11.682-7.562c5.315,1.137,8.7,6.368,7.563,11.682     c-1.138,5.315-6.369,8.7-11.683,7.563C364.235,374.763,360.849,369.532,361.987,364.219" />
			<path style="fill:#FFFFFF;" d="M371.829,363.127c0.386-1.801,2.157-2.948,3.958-2.563c1.8,0.386,2.947,2.159,2.562,3.959     c-0.385,1.8-2.158,2.947-3.958,2.562C372.591,366.699,371.443,364.927,371.829,363.127" />
			<path style="fill:#FFFFFF;" d="M365.481,365.177c0.209-0.978,1.172-1.601,2.15-1.392c0.978,0.21,1.601,1.172,1.392,2.151     c-0.209,0.978-1.172,1.601-2.15,1.391C365.895,367.118,365.272,366.156,365.481,365.177" />
			<path style="fill:#2D0303;" d="M398.832,372.107c1.138-5.314,6.368-8.7,11.682-7.562s8.7,6.369,7.562,11.682     c-1.138,5.315-6.368,8.7-11.682,7.563C401.079,382.652,397.693,377.421,398.832,372.107" />
			<path style="fill:#FFFFFF;" d="M408.674,371.014c0.386-1.8,2.157-2.947,3.958-2.562c1.801,0.386,2.947,2.158,2.562,3.958     c-0.385,1.801-2.158,2.948-3.958,2.562C409.436,374.587,408.288,372.815,408.674,371.014" />
			<path style="fill:#FFFFFF;" d="M402.326,373.065c0.21-0.978,1.172-1.601,2.15-1.392c0.978,0.209,1.602,1.172,1.392,2.151     c-0.209,0.977-1.172,1.6-2.15,1.391C402.74,375.005,402.117,374.044,402.326,373.065" />
			<path style="fill:#2D0303;" d="M387.211,382.749c-2.386-0.511-4.536-2.108-5.792-4.316c-0.431-0.758-0.165-1.722,0.593-2.153     c0.757-0.43,1.72-0.167,2.152,0.592c0.842,1.481,2.283,2.539,3.861,2.82c1.58,0.286,3.314-0.199,4.641-1.295     c0.672-0.554,1.667-0.46,2.222,0.212c0.555,0.672,0.461,1.667-0.212,2.222c-2.033,1.681-4.73,2.416-7.211,1.968     C387.38,382.784,387.295,382.768,387.211,382.749" />
			<path style="fill:#2D0303;" d="M390.513,400.927c0.796-4.431-2.273-8.661-6.798-9.229c-4.036-0.505-7.873,2.246-8.697,6.228     c-0.47,2.265,0.083,4.487,1.329,6.214c0.718,0.993,0.898,2.275,0.489,3.431l-3.105,8.773c-0.772,2.178,0.594,4.527,2.868,4.936     l4.339,0.78c2.274,0.408,4.372-1.32,4.407-3.63l0.141-9.269c0.018-1.22,0.601-2.386,1.619-3.06     C388.837,404.954,390.117,403.133,390.513,400.927" />
		</g>
	</g>
	<g>
		<g>
			<path style="fill:#D999FF;" d="M460.077,192.143c1.531,1.335,3.147,2.745,4.825,4.274c-0.578-3.849-1.304-7.383-2.177-11.203     c-0.257-1.119,0.045-2.294,0.808-3.153c0.763-0.857,1.899-1.293,3.037-1.17c3.976,0.431,7.853,0.565,11.69,0.395     c-4.172-2.931-8.448-6.242-13.017-10.069c-3.499,0.867-7.086,1.189-10.598,1.286c0.411,4.238-0.146,8.528-1.694,13.139     C455.156,187.851,457.56,189.948,460.077,192.143z" />
			<path style="fill:#9CA8E2;" d="M312.396,93.166c3.803,0.415,7.449,1.591,10.77,3.505c1.362,0.785,3.158,1.868,4.658,3.183     c0.771-1.465,1.631-2.888,2.588-4.26c-2.902-7.214-10.918-12.267-18.681-11.625c-8.067,0.667-15.399,7.451-16.691,15.442     c-0.213,1.318-0.18,2.273,0.097,2.838c0.346,0.704,1.396,1.291,2.612,1.461c1.613,0.225,3.523-0.135,5.37-0.483     c1.557-0.293,3.118,0.48,3.83,1.894c0.711,1.414,0.401,3.129-0.761,4.204c-0.589,0.544-0.95,1.449-0.968,2.422     c-0.018,0.974,0.311,1.891,0.879,2.456c0.569,0.565,1.491,0.888,2.461,0.866c0.973-0.023,1.877-0.39,2.418-0.981     c0.881-0.964,2.22-1.367,3.486-1.048c1.266,0.318,2.256,1.306,2.577,2.571c0.37,1.46,1.583,2.751,3.017,3.213     c1.021,0.329,2.195,0.244,3.205-0.18c-0.001-0.073-0.003-0.15-0.002-0.223c0.009-4.941,0.899-9.729,2.601-14.21     c-0.233-0.279-0.468-0.566-0.719-0.858c-1.074-1.247-2.246-2.37-3.597-3.316c-2.719-1.905-5.855-3.07-9.15-3.467     C310.252,96.312,310.212,92.927,312.396,93.166z" />
			<path style="fill:#D999FF;" d="M344.461,55.268c-2.037-1.563-4.229-2.113-5.708-2.299c-0.024-0.003-0.047-0.006-0.071-0.01     c-0.362-0.043-0.726-0.071-1.081-0.083c-0.164-0.006-0.327-0.009-0.492-0.009c-1.481,0-3.008,0.229-4.993,0.739     c-0.133,0.034-0.334,0.086-0.46,0.518c-0.498,1.714-0.773,3.046-0.891,4.321c-0.213,2.298,0.132,4.528,1.001,6.451     c0.966,2.141,2.683,4,4.375,4.738c1.221,0.531,2.177,0.329,2.465,0.013c0.175-0.19,0.299-0.592,0.33-1.075     c0.035-0.531-0.018-1.41-0.467-2.611c-0.529-1.412-0.108-3.005,1.049-3.972c1.159-0.966,2.8-1.097,4.096-0.324     c0.776,0.463,1.612,0.767,2.355,0.858c0.459,0.057,0.876,0.03,1.176-0.075c0.719-0.25,0.807-1.076,0.812-1.42     C347.981,59.293,346.478,56.816,344.461,55.268z" />
			<path style="fill:#9CA8E2;" d="M473.664,76.305c-6.087,2.681-10.951,8.633-12.987,15.762c0.685,0.92,1.334,1.865,1.953,2.831     c2.039-4.777,6.507-8.996,10.444-11.478c2.115-1.334,4.038,2,1.952,3.338c-2.685,1.72-4.948,3.935-6.529,6.719     c-1.226,2.158-1.891,4.557-2.88,6.814c1.587,3.358,2.789,6.911,3.533,10.597c2.103-1.055,3.754-3.242,3.853-5.533     c0.054-1.259,0.773-2.395,1.886-2.985c1.113-0.591,2.457-0.546,3.529,0.117c0.726,0.448,1.712,0.568,2.707,0.325     c0.994-0.241,1.817-0.799,2.255-1.53c0.439-0.731,0.544-1.72,0.288-2.711c-0.255-0.991-0.824-1.806-1.561-2.234     c-1.494-0.869-2.147-2.689-1.542-4.31c0.602-1.62,2.284-2.572,3.986-2.25c3.997,0.754,8.845,1.304,10.876-1.16     c1.785-2.166,0.545-6.277-1.732-8.759C489.008,74.753,480.586,73.259,473.664,76.305z" />
			<path style="fill:#E9EDFF;" d="M453.9,148.45c-0.56,0.88-1.15,1.76-1.76,2.64c-1.98,2.86-4.23,5.7-6.73,8.51l-0.62-0.62     c-0.27-0.26-0.54-0.52-0.81-0.79c-1.91-1.88-4.12-4.03-8.28-7.98c-1.42-1.35-3.67-1.3-5.02,0.13c-1.35,1.42-1.29,3.67,0.13,5.02     c3.32,3.15,5.38,5.14,7.05,6.78c0.7,0.68,1.33,1.3,1.95,1.91c0.23,0.23,0.47,0.46,0.7,0.69c-0.55,0.55-1.12,1.09-1.69,1.63     c-8.06,7.64-18.04,15.03-29.89,22.13c-27.12-9.48-47.76-21.17-61.37-34.75c-4.98-4.98-8.93-10.15-11.78-15.39     c-1.02-1.88-1.9-3.77-2.63-5.66c-1.86-4.76-2.8-9.54-2.79-14.27c0.03-14.44,9.08-26.83,23.05-31.57     c3.75-1.27,7.66-1.91,11.62-1.91c4.25,0,8.55,0.73,12.79,2.19c9.45,3.25,18.04,9.84,25.54,19.58c1.19,1.56,3.42,1.85,4.98,0.65     c1.55-1.19,1.84-3.42,0.65-4.98c-2.68-3.48-5.5-6.61-8.45-9.37c6.89-10.22,17.75-14.73,30.02-12.37     c9.07,1.74,17.21,6.84,23.06,13.89c0.22,0.43,0.53,0.82,0.91,1.14c3.95,5.11,6.73,11.15,7.86,17.64     C464.33,124.52,461.39,136.67,453.9,148.45z" />
			<path style="fill:#2D0303;" d="M470.802,69.805c-6.751,2.973-12.334,8.911-15.479,16.185     c-6.445-6.195-14.557-10.618-23.421-12.318c-14.752-2.83-28.335,2.668-36.827,14.758c-4.706-3.524-9.7-6.201-14.948-8.005     c-6.709-2.308-13.578-3.064-20.247-2.269c-1.858-1.767-3.717-3.533-5.577-5.3c-1.39-1.32-2.778-2.64-4.168-3.962     c2.966-1.328,4.876-4.301,4.924-7.767c0.056-4.015-2.407-8.526-6.273-11.493h-0.001c-2.588-1.987-5.719-3.266-9.057-3.702     l-0.088-0.011c-0.601-0.076-1.207-0.124-1.8-0.145c-2.326-0.078-4.634,0.215-7.495,0.951c-2.664,0.686-4.724,2.71-5.509,5.414     c-0.629,2.163-0.982,3.906-1.143,5.647c-0.328,3.52,0.225,6.989,1.599,10.031c1.702,3.77,4.697,6.882,8.012,8.326     c1.435,0.624,2.899,0.929,4.305,0.929c2.415,0,4.651-0.901,6.233-2.626c0.285-0.311,0.543-0.645,0.774-0.999     c1.599,1.519,3.197,3.038,4.796,4.557c0.703,0.669,1.407,1.338,2.11,2.006c-0.132,0.043-0.265,0.081-0.397,0.126     c-5.978,2.027-11.317,5.292-15.716,9.572c-4.881-8.306-14.552-13.624-24.264-12.821c-11.36,0.941-21.298,10.136-23.116,21.389     c-0.293,1.812-0.536,4.52,0.733,7.103c1.403,2.854,4.395,4.859,8.004,5.364c0.469,0.065,0.932,0.105,1.391,0.125     c-0.022,0.248-0.034,0.498-0.039,0.749c-0.052,2.912,1.031,5.69,2.973,7.621c1.942,1.932,4.729,2.996,7.637,2.93     c1.198-0.029,2.365-0.247,3.452-0.637c1.43,1.875,3.414,3.316,5.7,4.052c1.153,0.372,2.348,0.553,3.539,0.553     c0.836,0,1.668-0.1,2.483-0.276c1.557,9.07,6.359,20.653,18.64,32.913c14.637,14.611,36.719,27.052,65.632,36.98     c0.376,0.128,0.766,0.192,1.154,0.192c0.627,0,1.25-0.167,1.803-0.492c13.859-8.166,25.384-16.788,34.477-25.77     c0.521,0.501,1.082,1.037,1.692,1.62c0.808,4.375,0.244,8.835-1.749,13.905c-0.499,1.27-0.227,2.714,0.702,3.715     c2.849,3.071,5.912,5.743,9.155,8.572c3.676,3.205,7.477,6.52,11.503,10.861c0.688,0.741,1.637,1.137,2.606,1.137     c0.477,0,0.96-0.097,1.416-0.295c1.384-0.603,2.235-2.014,2.124-3.518c-0.496-6.741-1.313-12.082-2.384-17.336     c6.244,0.328,12.315-0.044,18.431-1.125c1.457-0.256,2.602-1.392,2.874-2.847c0.27-1.456-0.391-2.927-1.658-3.692     c-7-4.219-13.965-9.335-21.92-16.095c-0.928-0.788-2.194-1.046-3.356-0.686c-4.267,1.328-9.027,1.551-13.605,1.534     c-0.325-0.31-0.632-0.604-0.929-0.889c3.611-4.031,6.746-8.128,9.389-12.285c7.153-11.255,10.601-22.929,10.132-34.112     c4.078-1.157,7.51-4.246,9.111-8.16c1.205,0.109,2.445,0.022,3.661-0.274c2.828-0.688,5.259-2.43,6.669-4.781     c1.29-2.151,1.727-4.817,1.235-7.415c3.594-0.103,7.488-1.092,10.2-4.384c4.492-5.449,2.332-13.381-1.98-18.08     C492.248,67.778,480.419,65.57,470.802,69.805z M347.145,62.448c-0.3,0.105-0.717,0.132-1.176,0.075     c-0.743-0.091-1.579-0.395-2.355-0.858c-1.296-0.773-2.937-0.642-4.096,0.324c-1.157,0.967-1.578,2.56-1.049,3.972     c0.449,1.201,0.502,2.08,0.467,2.611c-0.031,0.483-0.155,0.885-0.33,1.075c-0.288,0.316-1.244,0.518-2.465-0.013     c-1.692-0.738-3.409-2.597-4.375-4.738c-0.869-1.923-1.214-4.153-1.001-6.451c0.118-1.275,0.393-2.607,0.891-4.321     c0.126-0.432,0.327-0.484,0.46-0.518c1.985-0.51,3.512-0.739,4.993-0.739c0.165,0,0.328,0.003,0.492,0.009     c0.355,0.012,0.719,0.04,1.081,0.083c0.024,0.004,0.047,0.007,0.071,0.01c1.479,0.186,3.671,0.736,5.708,2.299     c2.017,1.548,3.52,4.025,3.496,5.76C347.952,61.372,347.864,62.198,347.145,62.448z M454.645,172.503     c3.512-0.097,7.099-0.419,10.598-1.286c4.569,3.827,8.845,7.138,13.017,10.069c-3.837,0.17-7.714,0.036-11.69-0.395     c-1.138-0.123-2.274,0.313-3.037,1.17c-0.763,0.859-1.065,2.034-0.808,3.153c0.873,3.82,1.599,7.354,2.177,11.203     c-1.678-1.529-3.294-2.939-4.825-4.274c-2.517-2.195-4.921-4.292-7.126-6.501C454.499,181.031,455.056,176.741,454.645,172.503z      M312.396,96.57c3.295,0.397,6.431,1.562,9.15,3.467c1.351,0.946,2.523,2.069,3.597,3.316c0.251,0.292,0.486,0.579,0.719,0.858     c-1.702,4.481-2.592,9.269-2.601,14.21c-0.001,0.073,0.001,0.15,0.002,0.223c-1.01,0.424-2.184,0.509-3.205,0.18     c-1.434-0.462-2.647-1.753-3.017-3.213c-0.321-1.265-1.311-2.253-2.577-2.571c-1.266-0.319-2.605,0.084-3.486,1.048     c-0.541,0.591-1.445,0.958-2.418,0.981c-0.97,0.022-1.892-0.301-2.461-0.866c-0.568-0.565-0.897-1.482-0.879-2.456     c0.018-0.973,0.379-1.878,0.968-2.422c1.162-1.075,1.472-2.79,0.761-4.204c-0.712-1.414-2.273-2.187-3.83-1.894     c-1.847,0.348-3.757,0.708-5.37,0.483c-1.216-0.17-2.266-0.757-2.612-1.461c-0.277-0.565-0.31-1.52-0.097-2.838     c1.292-7.991,8.624-14.775,16.691-15.442c7.763-0.642,15.779,4.411,18.681,11.625c-0.957,1.372-1.817,2.795-2.588,4.26     c-1.5-1.315-3.296-2.398-4.658-3.183c-3.321-1.914-6.967-3.09-10.77-3.505C310.212,92.927,310.252,96.312,312.396,96.57z      M453.904,148.451c-2.39,3.76-5.226,7.477-8.491,11.145c-0.21-0.207-0.417-0.41-0.622-0.612     c-2.131-2.095-4.334-4.261-9.087-8.776c-1.421-1.351-3.669-1.295-5.02,0.128c-1.352,1.422-1.294,3.67,0.128,5.02     c4.709,4.475,6.89,6.619,8.999,8.694c0.232,0.227,0.466,0.458,0.703,0.69c-8.339,8.219-18.894,16.165-31.582,23.76     c-27.119-9.48-47.763-21.168-61.372-34.752c-11.272-11.252-17.218-23.463-17.196-35.314c0.027-14.44,9.072-26.833,23.042-31.57     c3.755-1.273,7.666-1.91,11.628-1.91c4.243,0,8.545,0.729,12.783,2.187c9.45,3.25,18.043,9.839,25.54,19.583     c1.196,1.554,3.424,1.845,4.98,0.65c1.555-1.196,1.845-3.426,0.65-4.982c-2.681-3.483-5.5-6.61-8.45-9.373     c6.898-10.223,17.758-14.724,30.027-12.372c9.065,1.74,17.206,6.84,23.058,13.892c0.221,0.436,0.533,0.824,0.912,1.139     c3.951,5.112,6.73,11.155,7.853,17.641C464.327,124.518,461.393,136.667,453.904,148.451z M495.427,88.617     c-2.031,2.464-6.879,1.914-10.876,1.16c-1.702-0.322-3.384,0.63-3.986,2.25c-0.605,1.621,0.048,3.441,1.542,4.31     c0.737,0.428,1.306,1.243,1.561,2.234c0.256,0.991,0.151,1.98-0.288,2.711c-0.438,0.731-1.261,1.289-2.255,1.53     c-0.995,0.243-1.981,0.123-2.707-0.325c-1.072-0.663-2.416-0.708-3.529-0.117c-1.113,0.59-1.832,1.726-1.886,2.985     c-0.099,2.291-1.75,4.478-3.853,5.533c-0.744-3.686-1.946-7.239-3.533-10.597c0.989-2.257,1.654-4.656,2.88-6.814     c1.581-2.784,3.844-4.999,6.529-6.719c2.086-1.338,0.163-4.672-1.952-3.338c-3.937,2.482-8.405,6.701-10.444,11.478     c-0.619-0.966-1.268-1.911-1.953-2.831c2.036-7.129,6.9-13.081,12.987-15.762c6.922-3.046,15.344-1.552,20.031,3.553     C495.972,82.34,497.212,86.451,495.427,88.617z" />
			<path style="fill:#CAD0FC;" d="M439.81,164.05c0.23,0.23,0.47,0.46,0.7,0.69c-0.55,0.55-1.12,1.09-1.69,1.63     c-8.06,7.64-18.04,15.03-29.89,22.13c-27.12-9.48-47.76-21.17-61.37-34.75c-4.98-4.98-8.93-10.15-11.78-15.39     c9.35,9.83,36.69,35.32,67.61,33.5c14.87-0.87,26.19-5,34.47-9.72C438.56,162.82,439.19,163.44,439.81,164.05z" />
			<path style="fill:#CAD0FC;" d="M452.14,151.09c-1.98,2.86-4.23,5.7-6.73,8.51l-0.62-0.62c-0.27-0.26-0.54-0.52-0.81-0.79     C447.47,155.66,450.17,153.16,452.14,151.09z" />
			<path style="fill:#FFA1A1;" d="M425.827,136.095c-0.612-5.852,4.396-11.172,11.186-11.883c6.79-0.71,12.79,3.458,13.402,9.311     c0.612,5.852-4.396,11.172-11.185,11.883C432.44,146.116,426.439,141.948,425.827,136.095" />
			<path style="fill:#FFA1A1;" d="M359.082,143.079c-0.612-5.853,4.396-11.173,11.185-11.883c6.79-0.711,12.791,3.458,13.403,9.31     c0.613,5.852-4.395,11.173-11.185,11.884C365.695,153.1,359.694,148.932,359.082,143.079" />
		</g>
		<g>
			<path style="fill:#BF1B4E;" d="M411.416,131.494c-5.188,2.455-10.091,3.044-14.607,1.76c-0.02,0.623,0.004,1.257,0.071,1.895     c0.203,1.936,0.782,3.708,1.619,5.186c1.517-1.345,3.895-2.34,6.394-2.643c2.316-0.28,4.714,0.038,6.529,0.833     c0.409-1.503,0.555-3.186,0.372-4.937C411.72,132.874,411.593,132.174,411.416,131.494z" />
			<path style="fill:#F2385C;" d="M405.035,138.868c-2.352,0.285-4.569,1.223-5.89,2.477c1.618,2.253,3.896,3.574,6.27,3.325     c2.517-0.263,4.563-2.229,5.638-5.017C409.425,138.905,407.203,138.606,405.035,138.868z" />
			<path style="fill:#2D0303;" d="M412.956,129.782c-0.086-0.248-0.268-0.45-0.505-0.564c-0.236-0.113-0.508-0.127-0.756-0.04     c-0.138,0.05-0.298,0.129-0.589,0.273c-5.367,2.671-10.363,3.193-14.846,1.551c-0.283-0.103-0.598-0.072-0.855,0.085     c-0.257,0.156-0.428,0.423-0.464,0.722c-0.141,1.151-0.149,2.344-0.023,3.545c0.707,6.762,5.509,11.822,10.702,11.279     c5.194-0.544,8.844-6.487,8.136-13.25C413.626,132.14,413.356,130.928,412.956,129.782z M405.415,144.67     c-2.374,0.249-4.652-1.072-6.27-3.325c1.321-1.254,3.538-2.192,5.89-2.477c2.168-0.262,4.39,0.037,6.018,0.785     C409.978,142.441,407.932,144.407,405.415,144.67z M411.422,138.525c-1.815-0.795-4.213-1.113-6.529-0.833     c-2.499,0.303-4.877,1.298-6.394,2.643c-0.837-1.478-1.416-3.25-1.619-5.186c-0.067-0.638-0.091-1.272-0.071-1.895     c4.516,1.284,9.419,0.695,14.607-1.76c0.177,0.68,0.304,1.38,0.378,2.094C411.977,135.339,411.831,137.022,411.422,138.525z" />
			<path style="fill:#2D0303;" d="M383.973,120.011c-0.011,0.001-0.02,0.002-0.031,0.003c-3.613,0.378-6.646,3.524-7.733,8.024     c-0.332,1.378,0.515,2.763,1.893,3.096c1.376,0.332,2.763-0.514,3.095-1.891c0.615-2.55,2.114-4.004,3.28-4.126     c0.002,0,0.005-0.001,0.007-0.001c1.171-0.118,2.945,1.013,4.071,3.4c0.478,1.014,1.533,1.568,2.587,1.458     c0.279-0.029,0.559-0.105,0.827-0.231c1.281-0.605,1.83-2.133,1.227-3.415C391.215,122.128,387.595,119.649,383.973,120.011z" />
			<path style="fill:#2D0303;" d="M421.334,116.102c-0.011,0.001-0.02,0.002-0.031,0.003c-3.613,0.378-6.646,3.524-7.733,8.024     c-0.332,1.377,0.515,2.763,1.893,3.096c1.377,0.331,2.762-0.514,3.095-1.891c0.615-2.55,2.114-4.005,3.28-4.126     c0.002-0.001,0.005-0.001,0.007-0.001c1.172-0.118,2.945,1.013,4.071,3.4c0.478,1.014,1.533,1.568,2.587,1.458     c0.279-0.029,0.559-0.105,0.827-0.231c1.281-0.605,1.83-2.133,1.227-3.415C428.576,118.219,424.956,115.74,421.334,116.102z" />
		</g>
	</g>
</g>
</svg>