<?xml version="1.0" encoding="utf-8"?>
<!-- Generator: Adobe Illustrator 22.1.0, SVG Export Plug-In . SVG Version: 6.00 Build 0)  -->
<svg version="1.1" id="Layer_1" xmlns="http://www.w3.org/2000/svg" xmlns:xlink="http://www.w3.org/1999/xlink" x="0px" y="0px"
	 viewBox="0 0 500 500" style="enable-background:new 0 0 500 500;" xml:space="preserve">
<style type="text/css">
	.st0{fill:#73BFCB;}
	.st1{fill:#FFFFFF;}
	.st2{fill:#F266B9;}
	.st3{fill:#F6F039;}
</style>
<g>
	<g>
		<path class="st0" d="M399.5,155c-1.5,0-3.1,0.1-4.6,0.2c-0.7,0-1.5,0.1-2.2,0.1c-1.5,0.1-3,0.2-4.5,0.3c-0.7,0.1-1.5,0.1-2.2,0.2
			c-1.6,0.1-3.1,0.3-4.7,0.4c-0.7,0.1-1.3,0.1-2,0.2c-1.7,0.2-3.4,0.4-5.1,0.6c-0.5,0.1-1,0.1-1.5,0.2c-2,0.3-4,0.6-5.9,0.9
			c-0.2,0-0.4,0.1-0.7,0.1c-15.7,2.6-31.1,6.7-46,12.3c-0.1,0-0.2,0.1-0.3,0.1c-2,0.7-4,1.5-5.9,2.3c-0.5,0.2-0.9,0.4-1.4,0.6
			c-1.6,0.7-3.2,1.3-4.8,2c-0.7,0.3-1.4,0.6-2.1,0.9c-1.1,0.5-2.3,1-3.4,1.6c0.4,0.1,0.7,0.2,1.1,0.4c0.2,0,0.3,0.1,0.5,0.1
			c0,0,0.1,0,0.1,0c8.6,2.8,16.6,7.3,23.5,13.2c1-0.2,2.1-0.5,3.1-0.7c1-0.2,2-0.4,2.9-0.7c1.4-0.3,2.8-0.6,4.2-0.8
			c1-0.2,2.1-0.4,3.1-0.6c1-0.2,2-0.3,3-0.5c14-2.4,28.1-3.6,42.2-3.6c17.4,0,34.5,1.8,51.4,5.3l5.6-32.2c-12.5-2-25.2-2.9-37.7-2.9
			C403.3,154.9,401.4,154.9,399.5,155z"/>
		<path class="st1" d="M327.6,209.6c-9.1-12-22.4-19.8-37.4-21.9c-1.5-0.2-3-0.4-4.6-0.4c-1.8-0.1-3.4-1.4-3.8-3.2
			c-4.9-23.3-24.1-41.1-47.7-44.4c-2.6-0.4-5.2-0.5-7.7-0.5c-19.7,0-38.2,10.5-48.4,27.4c-0.6,1-1.5,1.6-2.6,1.9
			c-1.1,0.2-2.2,0-3.2-0.6c-7.3-4.9-15.4-8.1-24.2-9.3c-2.6-0.4-5.2-0.5-7.7-0.5c-26.7,0-50,19-55.4,45.2c-0.4,2.1-2.5,3.6-4.7,3.2
			c-0.5-0.1-0.9-0.1-1.4-0.2c-2.6-0.3-5.2-0.5-7.7-0.5c-28.1,0-52.2,21-56,49c-2.1,15,1.9,29.9,11,41.9s22.4,19.8,37.4,21.9
			c7.5,1,15.1,0.5,22.3-1.4c0.3-0.1,0.7-0.1,1.1-0.1c1,0,1.9,0.3,2.6,1c1,0.9,1.5,2.2,1.4,3.5c-3.1,30.5,18.3,57.6,48.7,61.7
			c2.6,0.4,5.2,0.5,7.7,0.5c21.6,0,41.6-12.6,51-32.1c0.7-1.4,2-2.3,3.5-2.3c1.6-0.1,2.9,0.8,3.7,2.1c8.8,15.6,24,26,41.7,28.4
			c2.6,0.4,5.2,0.5,7.7,0.5c28.1,0,52.2-21,56-49c1.5-10.8-0.2-21.7-4.8-31.6c-0.9-2-0.1-4.4,1.8-5.4c16.6-8.4,28-24.4,30.5-42.8
			C340.6,236.6,336.7,221.7,327.6,209.6z"/>
		<path class="st2" d="M464.4,244.2l14.2-32.8c-12.7-5.2-25.6-9.3-38.8-12.4c0,0-0.1,0-0.1,0c-27.6-6.3-56.3-7.6-84.4-4.1
			c0,0-0.1,0-0.1,0c-2.2,0.3-4.5,0.6-6.7,0.9c-0.1,0-0.3,0-0.4,0.1c-2.2,0.3-4.4,0.7-6.6,1.1c-0.1,0-0.3,0-0.4,0.1
			c-2.3,0.4-4.6,0.9-6.8,1.4c0.4,0.4,0.7,0.8,1,1.2c0,0,0,0,0.1,0.1c0,0,0,0,0,0c0,0,0,0,0,0c0.1,0.1,0.1,0.1,0.2,0.2
			c0.6,0.7,1.2,1.4,1.7,2.2c0,0,0.1,0.1,0.1,0.1c0,0,0,0,0,0c5,6.6,8.8,14,11.1,21.8c4.5-0.2,9-0.4,13.4-0.4
			C396.7,223.7,432,230.8,464.4,244.2z"/>
		<path class="st3" d="M291.7,173.9c0.5-0.3,1.1-0.5,1.6-0.8c0.9-0.5,1.9-0.9,2.8-1.4c1.2-0.6,2.5-1.2,3.7-1.7c1-0.5,2-0.9,3-1.4
			c1.2-0.5,2.4-1.1,3.6-1.6c1-0.4,2.1-0.9,3.1-1.3c1.2-0.5,2.3-0.9,3.5-1.4c1.1-0.4,2.2-0.9,3.3-1.3c1.1-0.4,2.2-0.8,3.3-1.2
			c2.5-0.9,4.9-1.7,7.4-2.6c0.8-0.3,1.7-0.6,2.5-0.8c1.3-0.4,2.7-0.8,4-1.2c1-0.3,1.9-0.6,2.9-0.9c1.3-0.4,2.6-0.7,4-1.1
			c1-0.3,2-0.5,3-0.8c1.3-0.3,2.6-0.6,3.9-1c1-0.2,2.1-0.5,3.1-0.7c1.3-0.3,2.6-0.6,3.8-0.8c1.1-0.2,2.2-0.4,3.3-0.7
			c1.2-0.2,2.5-0.5,3.7-0.7c1.1-0.2,2.3-0.4,3.4-0.6c1.2-0.2,2.4-0.4,3.6-0.6c1.3-0.2,2.5-0.4,3.8-0.5c1.1-0.1,2.2-0.3,3.3-0.4
			c1.7-0.2,3.3-0.4,5-0.5c1.2-0.1,2.4-0.2,3.5-0.3c1.9-0.2,3.7-0.3,5.6-0.4c1-0.1,2.1-0.1,3.1-0.2c1.1-0.1,2.2-0.1,3.3-0.2v-31.4
			c-41.5,1.3-82,13.3-117.8,34.9C284.1,157.3,288.8,165.3,291.7,173.9z"/>
		<path d="M487.7,210.8l-17.4,40.3c-0.4,1-1.2,1.8-2.2,2.2c-0.5,0.2-1,0.3-1.5,0.3c-0.5,0-1.1-0.1-1.6-0.3
			c-32.3-14-67.9-21.4-103-21.4c-5.2,0-10.5,0.2-15.6,0.5c1.2,6.6,1.4,13.4,0.4,20.3c-2.7,19.8-14.4,37.2-31.5,47.2
			c4.1,10.3,5.4,21.5,3.9,32.6c-4.4,31.9-31.9,56-64.1,56c0,0,0,0,0,0c-2.9,0-5.9-0.2-8.9-0.6c-17.9-2.5-33.6-12-43.9-26.5
			c-11.7,18.7-32.6,30.5-54.9,30.5c-2.9,0-5.9-0.2-8.9-0.6c-32.9-4.5-56.5-32.5-56-65.1c-6.6,1.2-13.4,1.3-20.1,0.4
			c-17.1-2.3-32.3-11.2-42.8-25C9.1,287.7,4.6,270.7,7,253.5c4.4-31.9,31.9-56,64.1-56c2.2,0,4.5,0.1,6.7,0.3
			c7.5-28,33.2-48,62.5-48c2.9,0,5.9,0.2,8.8,0.6c8.6,1.2,16.7,4,24.1,8.4c12-17.3,32-27.8,53.1-27.8c2.9,0,5.9,0.2,8.8,0.6
			c12.7,1.7,24.2,7.2,33.5,15.2c0.2-0.3,0.5-0.5,0.8-0.7c39.2-24.7,84.3-38.1,130.4-38.8c1.1-0.1,2.1,0.4,2.9,1.2
			c0.8,0.8,1.2,1.8,1.2,2.9v35.4c0.4,0,0.8,0,1.1,0c14.4,0,28.9,1.3,43.1,3.7c1.1,0.2,2,0.8,2.6,1.7c0.6,0.9,0.9,2,0.7,3l-6.4,36.7
			c13.7,3.4,27.2,7.9,40.3,13.5C487.6,206.3,488.6,208.7,487.7,210.8z M405.1,154.9c-1.9,0-3.7,0-5.6,0.1c-1.5,0-3.1,0.1-4.6,0.2
			c-0.7,0-1.5,0.1-2.2,0.1c-1.5,0.1-3,0.2-4.5,0.3c-0.7,0.1-1.5,0.1-2.2,0.2c-1.6,0.1-3.1,0.3-4.7,0.4c-0.7,0.1-1.3,0.1-2,0.2
			c-1.7,0.2-3.4,0.4-5.1,0.6c-0.5,0.1-1,0.1-1.5,0.2c-2,0.3-4,0.6-5.9,0.9c-0.2,0-0.4,0.1-0.7,0.1c-15.7,2.6-31.1,6.7-46,12.3
			c-0.1,0-0.2,0.1-0.3,0.1c-2,0.7-4,1.5-5.9,2.3c-0.5,0.2-0.9,0.4-1.4,0.6c-1.6,0.7-3.2,1.3-4.8,2c-0.7,0.3-1.4,0.6-2.1,0.9
			c-1.1,0.5-2.3,1-3.4,1.6c0.4,0.1,0.7,0.2,1.1,0.4c0.2,0,0.3,0.1,0.5,0.1c0,0,0.1,0,0.1,0c8.6,2.8,16.6,7.3,23.5,13.2
			c1-0.2,2.1-0.5,3.1-0.7c1-0.2,2-0.4,2.9-0.7c1.4-0.3,2.8-0.6,4.2-0.8c1-0.2,2.1-0.4,3.1-0.6c1-0.2,2-0.3,3-0.5
			c14-2.4,28.1-3.6,42.2-3.6c17.4,0,34.5,1.8,51.4,5.3l5.6-32.2C430.4,155.9,417.7,154.9,405.1,154.9z M278.1,150.4
			c6.1,6.9,10.7,14.9,13.6,23.5c0.5-0.3,1.1-0.5,1.6-0.8c0.9-0.5,1.9-0.9,2.8-1.4c1.2-0.6,2.5-1.2,3.7-1.7c1-0.5,2-0.9,3-1.4
			c1.2-0.5,2.4-1.1,3.6-1.6c1-0.4,2.1-0.9,3.1-1.3c1.2-0.5,2.3-0.9,3.5-1.4c1.1-0.4,2.2-0.9,3.3-1.3c1.1-0.4,2.2-0.8,3.3-1.2
			c2.5-0.9,4.9-1.7,7.4-2.6c0.8-0.3,1.7-0.6,2.5-0.8c1.3-0.4,2.7-0.8,4-1.2c1-0.3,1.9-0.6,2.9-0.9c1.3-0.4,2.6-0.7,4-1.1
			c1-0.3,2-0.5,3-0.8c1.3-0.3,2.6-0.6,3.9-1c1-0.2,2.1-0.5,3.1-0.7c1.3-0.3,2.6-0.6,3.8-0.8c1.1-0.2,2.2-0.4,3.3-0.7
			c1.2-0.2,2.5-0.5,3.7-0.7c1.1-0.2,2.3-0.4,3.4-0.6c1.2-0.2,2.4-0.4,3.6-0.6c1.3-0.2,2.5-0.4,3.8-0.5c1.1-0.1,2.2-0.3,3.3-0.4
			c1.7-0.2,3.3-0.4,5-0.5c1.2-0.1,2.4-0.2,3.5-0.3c1.9-0.2,3.7-0.3,5.6-0.4c1-0.1,2.1-0.1,3.1-0.2c1.1-0.1,2.2-0.1,3.3-0.2v-31.4
			C354.4,116.9,313.9,128.9,278.1,150.4z M327.6,209.6c-9.1-12-22.4-19.8-37.4-21.9c-1.5-0.2-3-0.4-4.6-0.4
			c-1.8-0.1-3.4-1.4-3.8-3.2c-4.9-23.3-24.1-41.1-47.7-44.4c-2.6-0.4-5.2-0.5-7.7-0.5c-19.7,0-38.2,10.5-48.4,27.4
			c-0.6,1-1.5,1.6-2.6,1.9c-1.1,0.2-2.2,0-3.2-0.6c-7.3-4.9-15.4-8.1-24.2-9.3c-2.6-0.4-5.2-0.5-7.7-0.5c-26.7,0-50,19-55.4,45.2
			c-0.4,2.1-2.5,3.6-4.7,3.2c-0.5-0.1-0.9-0.1-1.4-0.2c-2.6-0.3-5.2-0.5-7.7-0.5c-28.1,0-52.2,21-56,49c-2.1,15,1.9,29.9,11,41.9
			s22.4,19.8,37.4,21.9c7.5,1,15.1,0.5,22.3-1.4c0.3-0.1,0.7-0.1,1.1-0.1c1,0,1.9,0.3,2.6,1c1,0.9,1.5,2.2,1.4,3.5
			c-3.1,30.5,18.3,57.6,48.7,61.7c2.6,0.4,5.2,0.5,7.7,0.5c21.6,0,41.6-12.6,51-32.1c0.7-1.4,2-2.3,3.5-2.3c1.6-0.1,2.9,0.8,3.7,2.1
			c8.8,15.6,24,26,41.7,28.4c2.6,0.4,5.2,0.5,7.7,0.5c28.1,0,52.2-21,56-49c1.5-10.8-0.2-21.7-4.8-31.6c-0.9-2-0.1-4.4,1.8-5.4
			c16.6-8.4,28-24.4,30.5-42.8C340.6,236.6,336.7,221.7,327.6,209.6z M478.6,211.3c-12.7-5.2-25.6-9.3-38.8-12.4c0,0-0.1,0-0.1,0
			c-27.6-6.3-56.3-7.6-84.4-4.1c0,0-0.1,0-0.1,0c-2.2,0.3-4.5,0.6-6.7,0.9c-0.1,0-0.3,0-0.4,0.1c-2.2,0.3-4.4,0.7-6.6,1.1
			c-0.1,0-0.3,0-0.4,0.1c-2.3,0.4-4.6,0.9-6.8,1.4c0.4,0.4,0.7,0.8,1,1.2c0,0,0,0,0.1,0.1c0,0,0,0,0,0c0,0,0,0,0,0
			c0.1,0.1,0.1,0.1,0.2,0.2c0.6,0.7,1.2,1.4,1.7,2.2c0,0,0.1,0.1,0.1,0.1c0,0,0,0,0,0c5,6.6,8.8,14,11.1,21.8
			c4.5-0.2,9-0.4,13.4-0.4c34.8,0,70.2,7.1,102.5,20.4L478.6,211.3z"/>
	</g>
	<g>
		<path d="M129.3,237.4c-10.5,0-19,8.5-19,19c0,10.5,8.5,19,19,19c10.5,0,19-8.5,19-19C148.3,245.9,139.8,237.4,129.3,237.4z
			 M128.8,251.9c0,0.2,0,0.3,0,0.5l0,0c-0.2,1.3-0.6,2.5-1.3,3.5c-0.7,1.2-1.7,2.4-3.2,3.4c-0.9,0.6-1.6,0.9-1.7,0.9
			c-0.1,0-0.8-0.3-1.7-0.9c-1.5-1-2.5-2.2-3.2-3.4c-0.6-1-1.1-2.2-1.3-3.5l0,0c0-0.2,0-0.3,0-0.5c0,0,0-0.1,0-0.1c0-0.1,0-0.1,0-0.2
			c0.1-2.2,1.5-3.9,3.3-3.8c1.2,0,1.5,0.6,2.8,0.6c1.3,0,1.6-0.6,2.8-0.6c1.8-0.1,3.3,1.7,3.3,3.8c0,0.1,0,0.1,0,0.2
			C128.7,251.8,128.8,251.9,128.8,251.9z M132.9,268.2c-1.5,0-2.7-1.2-2.7-2.7c0-1.5,1.2-2.7,2.7-2.7c1.5,0,2.7,1.2,2.7,2.7
			C135.6,267,134.4,268.2,132.9,268.2z"/>
		<path d="M250.6,237.4c-10.5,0-19,8.5-19,19c0,10.5,8.5,19,19,19c10.5,0,19-8.5,19-19C269.6,245.9,261.1,237.4,250.6,237.4z
			 M250.6,251.9c0,0.2,0,0.3,0,0.5l0,0c-0.2,1.3-0.6,2.5-1.3,3.5c-0.7,1.2-1.7,2.4-3.2,3.4c-0.9,0.6-1.6,0.9-1.7,0.9
			c-0.1,0-0.8-0.3-1.7-0.9c-1.5-1-2.5-2.2-3.2-3.4c-0.6-1-1.1-2.2-1.3-3.5l0,0c0-0.2,0-0.3,0-0.5c0,0,0-0.1,0-0.1c0-0.1,0-0.1,0-0.2
			c0.1-2.2,1.5-3.9,3.3-3.8c1.2,0,1.5,0.6,2.8,0.6c1.3,0,1.6-0.6,2.8-0.6c1.8-0.1,3.3,1.7,3.3,3.8c0,0.1,0,0.1,0,0.2
			C250.6,251.8,250.6,251.9,250.6,251.9z M254.2,268.2c-1.5,0-2.7-1.2-2.7-2.7c0-1.5,1.2-2.7,2.7-2.7c1.5,0,2.7,1.2,2.7,2.7
			C256.9,267,255.7,268.2,254.2,268.2z"/>
		<circle class="st2" cx="98.5" cy="294.9" r="15.4"/>
		<circle class="st2" cx="281.3" cy="294.9" r="15.4"/>
		<path d="M190.8,307.7c-14.7,0-26.6-12-26.6-26.6c0-2.2,1.8-4.1,4.1-4.1s4.1,1.8,4.1,4.1c0,10.2,8.3,18.5,18.5,18.5
			s18.5-8.3,18.5-18.5c0-2.2,1.8-4.1,4.1-4.1s4.1,1.8,4.1,4.1C217.5,295.7,205.5,307.7,190.8,307.7z"/>
	</g>
</g>
</svg>
