<?xml version="1.0" encoding="utf-8"?>
<!-- Generator: Adobe Illustrator 22.1.0, SVG Export Plug-In . SVG Version: 6.00 Build 0)  -->
<svg version="1.1" id="Layer_1" xmlns="http://www.w3.org/2000/svg" xmlns:xlink="http://www.w3.org/1999/xlink" x="0px" y="0px"
	 viewBox="0 0 500 500" style="enable-background:new 0 0 500 500;" xml:space="preserve">
<style type="text/css">
	.st0{fill:#A9E56B;}
</style>
<path class="st0" d="M377.2,301.3c0.5-1.2,1.2-2.3,1.8-3.5c17.5-42,3.4-87.8-31.2-102c-23.5-10-33.9-0.2-58.9-11.4
	c-25-11.1-24.7-25.4-47.8-36.1c-33.9-16.2-77.2,4-96.7,45.2c-0.6,1.2-0.9,2.4-1.4,3.7c-0.4,0.9-1,1.7-1.4,2.7
	c-1.3,3-2.3,5.9-3.3,9.2l-0.2-0.2c-8.3,27.1-9.1,53.6-5.8,78c2.7,27.8,11.4,59.8,31.9,91.8c11.1,19.7,23.2,31.6,24.4,31.5
	c0.8,1,17.8,2,39.9-2.9c37.4-6.2,67.1-21.2,89.5-37.8c20.4-13.9,39.5-32.3,54-56.6l-0.4-0.1c1.8-2.8,3.3-5.6,4.7-8.6
	C376.6,303.3,376.8,302.3,377.2,301.3z"/>
</svg>
