<?xml version="1.0" encoding="UTF-8" standalone="no"?>
<!DOCTYPE svg PUBLIC "-//W3C//DTD SVG 1.1//EN" "http://www.w3.org/Graphics/SVG/1.1/DTD/svg11.dtd">
<svg width="100%" height="100%" viewBox="0 0 101 102" version="1.1" xmlns="http://www.w3.org/2000/svg" xmlns:xlink="http://www.w3.org/1999/xlink" xml:space="preserve" xmlns:serif="http://www.serif.com/" style="fill-rule:evenodd;clip-rule:evenodd;stroke-linecap:round;stroke-linejoin:round;stroke-miterlimit:10;">
    <g transform="matrix(1,0,0,1,-320.503,-351.29)">
        <path d="M394.968,357.903C380,356.568 365.544,357.446 351.649,360.224C339.454,362.662 330.262,372.905 329.222,385.298C328.08,398.896 328.26,413.026 330.034,427.591C331.65,440.844 342.49,451.068 355.798,452.139C368.711,453.178 381.725,452.966 394.597,451.506C407.555,450.036 417.957,439.979 419.528,427.032C421.222,413.064 421.573,398.851 420.808,384.638C420.049,370.521 409.05,359.161 394.968,357.903Z" style="fill:rgb(72,62,117);fill-opacity:0.15;fill-rule:nonzero;"/>
        <g>
            <path d="M387.597,446.506C374.725,447.966 361.711,448.178 348.798,447.139C335.49,446.068 324.65,435.844 323.034,422.591C321.26,408.026 321.08,393.896 322.222,380.298C323.262,367.905 332.454,357.662 344.649,355.224C358.544,352.446 373,351.568 387.968,352.903C402.05,354.161 413.049,365.521 413.808,379.638C414.573,393.851 414.222,408.064 412.528,422.032C410.957,434.979 400.555,445.036 387.597,446.506Z" style="fill:white;fill-rule:nonzero;"/>
            <g>
                <g>
                    <path d="M346.216,422.988C344.556,422.44 342.814,421.884 341.09,422.176C339.365,422.467 337.7,423.911 337.802,425.657C337.861,426.676 338.51,427.597 339.354,428.172C340.197,428.746 341.216,429.009 342.229,429.134C343.386,429.278 344.593,429.247 345.671,428.802C346.749,428.358 347.679,427.448 347.929,426.309C348.178,425.171 347.77,423.502 346.216,422.988Z" style="fill:rgb(254,172,234);fill-rule:nonzero;"/>
                    <g>
                        <path d="M356.52,419.501C354.946,417.473 352.358,416.274 349.793,416.388C347.229,416.501 344.756,417.922 343.164,420.001C341.938,418.373 340.712,416.746 339.487,415.118" style="fill:none;fill-rule:nonzero;stroke:rgb(72,62,117);stroke-width:2px;"/>
                        <path d="M346.517,417.26C346.028,416.191 345.538,415.12 345.038,414.05" style="fill:none;fill-rule:nonzero;stroke:rgb(72,62,117);stroke-width:2px;"/>
                    </g>
                </g>
                <g>
                    <path d="M389.784,422.988C391.444,422.44 393.186,421.884 394.91,422.176C396.635,422.467 398.3,423.911 398.198,425.657C398.139,426.676 397.49,427.597 396.646,428.172C395.803,428.746 394.784,429.009 393.771,429.134C392.614,429.278 391.407,429.247 390.329,428.802C389.251,428.358 388.321,427.448 388.071,426.309C387.822,425.171 388.23,423.502 389.784,422.988Z" style="fill:rgb(254,172,234);fill-rule:nonzero;"/>
                    <g>
                        <path d="M379.487,419.269C381.06,417.241 383.649,416.042 386.214,416.156C388.778,416.269 391.251,417.691 392.843,419.769C394.069,418.142 395.295,416.514 396.52,414.886" style="fill:none;fill-rule:nonzero;stroke:rgb(72,62,117);stroke-width:2px;"/>
                        <path d="M389.49,417.029C389.98,415.959 390.47,414.888 390.97,413.819" style="fill:none;fill-rule:nonzero;stroke:rgb(72,62,117);stroke-width:2px;"/>
                    </g>
                </g>
                <path d="M364.186,420.741C365.07,421.911 366.594,422.562 368.05,422.393C369.506,422.224 370.841,421.241 371.433,419.9" style="fill:none;fill-rule:nonzero;stroke:rgb(72,62,117);stroke-width:2px;"/>
            </g>
            <g>
                <path d="M392.504,372.098C392.915,371.077 393.236,369.997 393.226,368.896C393.215,367.794 392.839,366.661 392.032,365.911C390.692,364.667 388.451,364.812 386.968,365.881C385.484,366.95 384.658,368.726 384.25,370.508C383.371,369.065 381.566,368.248 379.901,368.543C378.237,368.838 376.821,370.224 376.492,371.882C376.163,373.54 376.941,375.363 378.321,377.407C376.425,377.743 374.994,379.689 375.142,381.609C375.289,383.529 376.919,385.201 378.822,385.498C380.725,385.795 382.735,384.76 383.765,383.764C384.141,385.001 384.725,386.198 385.616,387.135C386.508,388.073 387.73,388.734 389.023,388.788C390.315,388.843 391.656,388.231 392.324,387.123C392.889,386.189 392.934,385.014 392.685,383.952C392.436,382.888 391.919,381.911 391.459,380.579C393.271,381.047 395.278,380.684 396.812,379.612C397.611,379.052 398.304,378.272 398.541,377.325C398.886,375.952 398.183,374.461 397.061,373.602C395.938,372.743 394.473,372.437 392.504,372.098Z" style="fill:rgb(214,194,253);fill-rule:nonzero;"/>
                <path d="M387.752,374.729C386.558,373.881 384.728,374.121 383.79,375.246C382.854,376.371 382.951,378.214 384,379.235C385.05,380.256 386.896,380.301 387.994,379.334C389.093,378.367 389.679,376.095 387.752,374.729Z" style="fill:white;fill-rule:nonzero;"/>
                <path d="M392.504,372.098C392.915,371.077 393.236,369.997 393.226,368.896C393.215,367.794 392.839,366.661 392.032,365.911C390.692,364.667 388.451,364.812 386.968,365.881C385.484,366.95 384.658,368.726 384.25,370.508C383.371,369.065 381.566,368.248 379.901,368.543C378.237,368.838 376.821,370.224 376.492,371.882C376.163,373.54 376.941,375.363 378.321,377.407C376.425,377.743 374.994,379.689 375.142,381.609C375.289,383.529 376.919,385.201 378.822,385.498C380.725,385.795 382.735,384.76 383.765,383.764C384.141,385.001 384.725,386.198 385.616,387.135C386.508,388.073 387.73,388.734 389.023,388.788C390.315,388.843 391.656,388.231 392.324,387.123C392.889,386.189 392.934,385.014 392.685,383.952C392.436,382.888 391.919,381.911 391.459,380.579C393.271,381.047 395.278,380.684 396.812,379.612C397.611,379.052 398.304,378.272 398.541,377.325C398.886,375.952 398.183,374.461 397.061,373.602C395.938,372.743 394.473,372.437 392.504,372.098Z" style="fill:none;fill-rule:nonzero;stroke:rgb(72,62,117);stroke-width:2px;"/>
            </g>
            <path d="M348.798,447.139C361.711,448.178 374.725,447.966 387.597,446.506C400.555,445.036 410.957,434.979 412.528,422.032C412.658,420.959 412.766,419.882 412.88,418.807C407.062,425.638 399.266,430.789 390.84,433.98C380.195,438.011 368.594,439.08 357.233,438.373C346.887,437.729 336.689,435.65 326.614,433.18C331.154,440.984 339.343,446.378 348.798,447.139Z" style="fill:rgb(72,62,117);fill-opacity:0.15;fill-rule:nonzero;"/>
            <path d="M387.597,446.506C374.725,447.966 361.711,448.178 348.798,447.139C335.49,446.068 324.65,435.844 323.034,422.591C321.26,408.026 321.08,393.896 322.222,380.298C323.262,367.905 332.454,357.662 344.649,355.224C358.544,352.446 373,351.568 387.968,352.903C402.05,354.161 413.049,365.521 413.808,379.638C414.573,393.851 414.222,408.064 412.528,422.032C410.957,434.979 400.555,445.036 387.597,446.506Z" style="fill:none;fill-rule:nonzero;stroke:rgb(72,62,117);stroke-width:2px;"/>
        </g>
    </g>
</svg>
