<?xml version="1.0" encoding="UTF-8" standalone="no"?>
<!DOCTYPE svg PUBLIC "-//W3C//DTD SVG 1.1//EN" "http://www.w3.org/Graphics/SVG/1.1/DTD/svg11.dtd">
<svg width="100%" height="100%" viewBox="0 0 109 96" version="1.1" xmlns="http://www.w3.org/2000/svg" xmlns:xlink="http://www.w3.org/1999/xlink" xml:space="preserve" xmlns:serif="http://www.serif.com/" style="fill-rule:evenodd;clip-rule:evenodd;stroke-linecap:round;stroke-linejoin:round;stroke-miterlimit:10;">
    <g transform="matrix(1,0,0,1,-318.704,-201.442)">
        <path d="M414.625,231.988C414.224,225.865 413.151,219.766 411.088,213.721C409.734,209.753 404.538,208.774 401.884,212.02C398.211,216.509 395.199,221.537 392.962,226.888C383.54,225.52 374.115,224.921 364.735,225.017C363.192,219.455 360.849,214.116 357.787,209.222C355.565,205.667 350.287,205.982 348.442,209.746C345.675,215.393 343.856,221.214 342.683,227.142C334.957,229.965 329.191,236.899 327.929,245.334C326.529,254.687 326.018,263.976 326.568,273.276C327.203,284.004 335.343,292.798 345.964,294.431C365.224,297.393 384.871,297.841 404.246,295.761C414.431,294.668 422.664,287.008 424.464,276.924C425.829,269.278 426.69,261.346 427.003,253.314C427.36,244.264 422.407,235.973 414.625,231.988Z" style="fill:rgb(72,62,117);fill-opacity:0.15;fill-rule:nonzero;"/>
        <g>
            <g>
                <path d="M333.434,226.76C334.103,219.657 335.617,212.635 338.457,205.77C340.06,201.896 345.307,201.248 347.75,204.655C351.793,210.29 354.86,216.627 356.742,223.303L333.434,226.76Z" style="fill:white;fill-rule:nonzero;"/>
                <path d="M333.434,226.76C334.103,219.657 335.617,212.635 338.457,205.77C340.06,201.896 345.307,201.248 347.75,204.655C351.793,210.29 354.86,216.627 356.742,223.303L333.434,226.76Z" style="fill:none;fill-rule:nonzero;stroke:rgb(72,62,117);stroke-width:2px;"/>
            </g>
            <g>
                <path d="M406.252,226.76C405.582,219.657 404.068,212.635 401.228,205.77C399.625,201.896 394.378,201.248 391.935,204.655C387.892,210.29 384.825,216.627 382.943,223.303L406.252,226.76Z" style="fill:white;fill-rule:nonzero;"/>
                <path d="M406.252,226.76C405.582,219.657 404.068,212.635 401.228,205.77C399.625,201.896 394.378,201.248 391.935,204.655C387.892,210.29 384.825,216.627 382.943,223.303L406.252,226.76Z" style="fill:none;fill-rule:nonzero;stroke:rgb(72,62,117);stroke-width:2px;"/>
            </g>
            <g>
                <path d="M399.596,288.078C380.392,291.381 360.756,292.177 341.347,290.441C330.644,289.484 321.963,281.223 320.65,270.557C319.512,261.311 319.434,252.008 320.239,242.585C321.13,232.143 328.949,223.531 339.298,221.882C359.46,218.67 380.174,218.515 400.973,222.26C411.621,224.177 419.358,233.459 419.62,244.275C419.816,252.31 419.459,260.281 418.581,267.998C417.423,278.176 409.691,286.342 399.596,288.078Z" style="fill:white;fill-rule:nonzero;"/>
                <g>
                    <path d="M389.596,242.368C390.478,244.102 391.736,245.714 393.459,246.617C395.183,247.518 397.424,247.585 398.993,246.435C400.564,245.286 401.124,242.816 399.913,241.292C401.115,242.978 403.465,243.736 405.428,243.08C407.391,242.424 408.812,240.413 408.785,238.344C408.759,236.274 407.294,234.305 405.324,233.674" style="fill:none;fill-rule:nonzero;stroke:rgb(72,62,117);stroke-width:2px;"/>
                    <path d="M333.143,234.341C332.004,235.073 330.818,235.855 330.174,237.046C329.531,238.237 329.659,239.962 330.81,240.674C331.918,241.36 333.365,240.838 334.491,240.182C333.318,241.859 333.369,244.293 334.611,245.919C335.852,247.545 338.188,248.235 340.114,247.544C342.04,246.854 343.406,244.837 343.331,242.792" style="fill:none;fill-rule:nonzero;stroke:rgb(72,62,117);stroke-width:2px;"/>
                </g>
                <g>
                    <g>
                        <path d="M342.693,276.665C341.315,275.19 338.952,274.747 337.133,275.622C336.472,275.939 335.862,276.446 335.615,277.137C335.349,277.877 335.54,278.708 335.866,279.424C336.503,280.828 337.706,282.013 339.193,282.421C340.679,282.829 342.424,282.355 343.347,281.12C344.27,279.886 344.015,278.079 342.693,276.665Z" style="fill:rgb(254,172,234);fill-rule:nonzero;"/>
                        <g>
                            <path d="M349.643,266.377C347.602,264.912 344.445,265.345 342.873,267.304C341.301,269.264 341.564,272.439 343.436,274.114C345.308,275.788 348.494,275.697 350.267,273.917C352.039,272.138 352.544,268.459 349.643,266.377Z" style="fill:rgb(72,62,117);fill-rule:nonzero;stroke:rgb(72,62,117);stroke-width:2px;"/>
                            <path d="M343.877,266.767C343.187,265.73 342.666,264.58 342.344,263.376" style="fill:none;fill-rule:nonzero;stroke:rgb(72,62,117);stroke-width:2px;"/>
                            <path d="M345.737,266.001C345.512,264.835 345.684,263.596 346.218,262.535" style="fill:none;fill-rule:nonzero;stroke:rgb(72,62,117);stroke-width:2px;"/>
                            <path d="M345.805,272.172C345.021,272.172 344.235,271.843 343.729,271.222C342.876,270.175 342.995,268.52 343.988,267.607C344.98,266.694 346.638,266.713 347.612,267.648L347.613,267.649C348.19,268.206 348.477,268.936 348.422,269.707C348.365,270.489 347.943,271.252 347.321,271.699C346.876,272.018 346.341,272.172 345.805,272.172Z" style="fill:white;fill-rule:nonzero;"/>
                        </g>
                    </g>
                    <g>
                        <path d="M396.19,276.299C397.567,274.824 399.93,274.381 401.749,275.256C402.41,275.573 403.02,276.08 403.268,276.771C403.534,277.511 403.342,278.342 403.017,279.058C402.379,280.462 401.176,281.647 399.69,282.055C398.204,282.463 396.459,281.989 395.536,280.754C394.613,279.52 394.868,277.713 396.19,276.299Z" style="fill:rgb(254,172,234);fill-rule:nonzero;"/>
                        <g>
                            <path d="M386.728,266.377C388.769,264.912 391.926,265.345 393.498,267.304C395.07,269.264 394.807,272.439 392.935,274.114C391.063,275.788 387.877,275.697 386.105,273.917C384.332,272.138 383.826,268.459 386.728,266.377Z" style="fill:rgb(72,62,117);fill-rule:nonzero;stroke:rgb(72,62,117);stroke-width:2px;"/>
                            <path d="M388.505,271.809C387.968,271.809 387.433,271.655 386.987,271.334C386.365,270.887 385.943,270.122 385.886,269.341C385.831,268.571 386.118,267.841 386.695,267.285L386.696,267.284C387.668,266.35 389.326,266.33 390.32,267.242C391.313,268.157 391.431,269.812 390.58,270.858C390.074,271.479 389.289,271.809 388.505,271.809Z" style="fill:white;fill-rule:nonzero;"/>
                            <path d="M392.494,266.767C393.184,265.73 393.705,264.58 394.027,263.376" style="fill:none;fill-rule:nonzero;stroke:rgb(72,62,117);stroke-width:2px;"/>
                            <path d="M390.634,266.001C390.86,264.835 390.688,263.596 390.154,262.535" style="fill:none;fill-rule:nonzero;stroke:rgb(72,62,117);stroke-width:2px;"/>
                        </g>
                    </g>
                    <g>
                        <path d="M372.365,272.799C371.317,272.96 370.216,272.621 369.409,271.937L368.476,272.056C367.913,272.784 367.061,273.282 366.146,273.394C366.116,274.318 366.153,275.241 366.446,276.112C366.849,277.312 367.853,278.402 369.115,278.508C370.588,278.633 371.889,277.37 372.325,275.957C372.641,274.931 372.609,273.847 372.482,272.771C372.442,272.78 372.404,272.793 372.365,272.799Z" style="fill:rgb(254,172,234);fill-rule:nonzero;"/>
                        <path d="M375.263,270.413C374.817,271.648 373.662,272.599 372.364,272.799C371.066,272.999 369.678,272.44 368.881,271.396C368.371,272.531 367.205,273.34 365.963,273.42C364.722,273.5 363.461,272.847 362.81,271.787" style="fill:none;fill-rule:nonzero;stroke:rgb(72,62,117);stroke-width:2px;"/>
                    </g>
                </g>
                <path d="M321.538,274.606C324.275,283.257 332.044,289.609 341.347,290.441C360.756,292.177 380.392,291.381 399.596,288.078C409.099,286.444 416.504,279.109 418.306,269.764C412.373,274.247 404.59,277.499 396.692,279.054C386.654,281.031 376.315,280.554 366.095,280.07C351.115,279.36 335.963,278.614 321.538,274.606Z" style="fill:rgb(72,62,117);fill-opacity:0.15;fill-rule:nonzero;"/>
                <path d="M399.596,288.078C380.392,291.381 360.756,292.177 341.347,290.441C330.644,289.484 321.963,281.223 320.65,270.557C319.512,261.311 319.434,252.008 320.239,242.585C321.13,232.143 328.949,223.531 339.298,221.882C359.46,218.67 380.174,218.515 400.973,222.26C411.621,224.177 419.358,233.459 419.62,244.275C419.816,252.31 419.459,260.281 418.581,267.998C417.423,278.176 409.691,286.342 399.596,288.078Z" style="fill:none;fill-rule:nonzero;stroke:rgb(72,62,117);stroke-width:2px;"/>
            </g>
        </g>
    </g>
</svg>
