<?xml version="1.0" encoding="UTF-8" standalone="no"?>
<!DOCTYPE svg PUBLIC "-//W3C//DTD SVG 1.1//EN" "http://www.w3.org/Graphics/SVG/1.1/DTD/svg11.dtd">
<svg width="100%" height="100%" viewBox="0 0 107 100" version="1.1" xmlns="http://www.w3.org/2000/svg" xmlns:xlink="http://www.w3.org/1999/xlink" xml:space="preserve" xmlns:serif="http://www.serif.com/" style="fill-rule:evenodd;clip-rule:evenodd;stroke-linecap:round;stroke-linejoin:round;stroke-miterlimit:10;">
    <g transform="matrix(1,0,0,1,-319.273,-49.8818)">
        <path d="M349.173,146.237C364.545,149.201 380.296,150.199 395.919,149.195C407.371,148.46 417.17,140.579 420.054,129.471C424.017,114.209 425.827,99.236 425.811,84.475C425.798,72.384 417.481,61.816 405.745,58.91C388.521,54.645 371.321,53.254 354.432,54.356C341.736,55.184 331.487,64.949 329.832,77.565C328,91.535 327.178,105.988 327.739,121.098C328.199,133.433 337.052,143.901 349.173,146.237Z" style="fill:rgb(72,62,117);fill-opacity:0.15;fill-rule:nonzero;"/>
        <g>
            <path d="M391.861,144.054C376.353,146.195 360.571,146.35 345.024,144.516C332.765,143.071 323.171,133.277 321.812,121.009C320.149,105.981 319.914,91.506 320.721,77.44C321.451,64.737 330.959,54.25 343.561,52.497C360.325,50.165 377.581,50.297 395.07,53.293C406.987,55.335 416.053,65.267 416.949,77.325C418.042,92.045 417.33,107.11 414.492,122.621C412.426,133.91 403.229,142.485 391.861,144.054Z" style="fill:white;fill-rule:nonzero;"/>
            <g>
                <path d="M344.5,122.867C339.873,118.451 334.518,125.511 339.487,128.534C342.977,130.657 347.763,125.98 344.5,122.867Z" style="fill:rgb(254,172,234);fill-rule:nonzero;"/>
                <path d="M338.813,125.337C338.514,126.327 338.215,127.317 337.917,128.307" style="fill:none;fill-rule:nonzero;stroke:rgb(72,62,117);stroke-width:2px;"/>
                <path d="M341.279,126.122C341.167,127.186 341.054,128.251 340.942,129.316" style="fill:none;fill-rule:nonzero;stroke:rgb(72,62,117);stroke-width:2px;"/>
            </g>
            <g>
                <path d="M343,109.074C346.097,109.581 349.056,110.908 351.466,113.431C349.549,115.763 347.367,117.877 344.976,119.72" style="fill:none;fill-rule:nonzero;stroke:rgb(72,62,117);stroke-width:2px;"/>
                <path d="M351.466,113.431C348.796,113.371 346.03,113.727 343.384,114.081" style="fill:none;fill-rule:nonzero;stroke:rgb(72,62,117);stroke-width:2px;"/>
            </g>
            <g>
                <path d="M392.212,107.733C389.672,108.82 387.253,110.188 384.719,112.733C387.118,114.482 389.605,116.112 392.165,117.616" style="fill:none;fill-rule:nonzero;stroke:rgb(72,62,117);stroke-width:2px;"/>
                <path d="M384.719,112.733C387.16,112.72 389.687,112.743 392.129,112.729" style="fill:none;fill-rule:nonzero;stroke:rgb(72,62,117);stroke-width:2px;"/>
            </g>
            <g>
                <path d="M393.217,122.867C397.844,118.451 403.199,125.511 398.23,128.534C394.739,130.657 389.954,125.98 393.217,122.867Z" style="fill:rgb(254,172,234);fill-rule:nonzero;"/>
                <path d="M395.996,126.149C396.164,127.326 396.332,128.503 396.501,129.679" style="fill:none;fill-rule:nonzero;stroke:rgb(72,62,117);stroke-width:2px;"/>
                <path d="M399.19,125.309C399.452,126.406 399.713,127.503 399.975,128.6C399.957,128.455 399.937,128.311 399.19,125.309Z" style="fill:none;fill-rule:nonzero;stroke:rgb(72,62,117);stroke-width:2px;"/>
            </g>
            <g>
                <path d="M375.589,118.514C375.248,117.407 374.553,116.465 373.803,115.545C373.146,116.509 372.097,117.212 370.94,117.391C370.178,117.509 369.392,117.394 368.68,117.097C368.789,117.98 368.927,118.861 369.215,119.701C369.575,120.751 370.192,121.747 371.116,122.365C372.039,122.981 373.298,123.157 374.274,122.628C375.647,121.885 376.046,120.005 375.589,118.514Z" style="fill:rgb(254,172,234);fill-rule:nonzero;"/>
                <path d="M374.353,114.398C373.906,115.931 372.519,117.147 370.94,117.391C369.362,117.636 367.673,116.896 366.782,115.569C366.533,116.744 365.37,117.655 364.17,117.615C362.969,117.575 361.869,116.59 361.698,115.401" style="fill:none;fill-rule:nonzero;stroke:rgb(72,62,117);stroke-width:2px;"/>
            </g>
            <path d="M371.709,135.788C355.807,137.095 339.898,134.128 324.453,129.963C328.348,137.798 335.951,143.447 345.025,144.517C360.572,146.351 376.354,146.196 391.862,144.055C403.23,142.486 412.427,133.911 414.493,122.622C414.9,120.398 415.251,118.185 415.572,115.979C404.574,128.048 388.079,134.443 371.709,135.788Z" style="fill:rgb(72,62,117);fill-opacity:0.15;fill-rule:nonzero;"/>
            <path d="M391.861,144.054C376.353,146.195 360.571,146.35 345.024,144.516C332.765,143.071 323.171,133.277 321.812,121.009C320.149,105.981 319.914,91.506 320.721,77.44C321.451,64.737 330.959,54.25 343.561,52.497C360.325,50.165 377.581,50.297 395.07,53.293C406.987,55.335 416.053,65.267 416.949,77.325C418.042,92.045 417.33,107.11 414.492,122.621C412.426,133.91 403.229,142.485 391.861,144.054Z" style="fill:none;fill-rule:nonzero;stroke:rgb(72,62,117);stroke-width:2px;"/>
        </g>
    </g>
</svg>
