<?xml version="1.0" encoding="UTF-8" standalone="no"?>
<!DOCTYPE svg PUBLIC "-//W3C//DTD SVG 1.1//EN" "http://www.w3.org/Graphics/SVG/1.1/DTD/svg11.dtd">
<svg width="100%" height="100%" viewBox="0 0 102 102" version="1.1" xmlns="http://www.w3.org/2000/svg" xmlns:xlink="http://www.w3.org/1999/xlink" xml:space="preserve" xmlns:serif="http://www.serif.com/" style="fill-rule:evenodd;clip-rule:evenodd;stroke-linecap:round;stroke-linejoin:round;stroke-miterlimit:10;">
    <g transform="matrix(1,0,0,1,-50.2797,-48.036)">
        <path d="M83.268,147.884C96.114,149.562 109.122,149.994 122.051,149.172C135.066,148.345 145.953,138.814 148.162,125.961C150.545,112.094 151.598,97.916 151.538,83.682C151.478,69.544 141.055,57.654 127.052,55.702C112.168,53.626 97.687,53.789 83.67,55.876C71.369,57.708 61.683,67.483 60.031,79.81C58.218,93.335 57.698,107.457 58.75,122.09C59.707,135.409 70.029,146.156 83.268,147.884Z" style="fill:rgb(72,62,117);fill-opacity:0.15;fill-rule:nonzero;"/>
        <g>
            <path d="M117.374,143.252C104.502,144.712 91.488,144.924 78.575,143.884C65.267,142.813 54.426,132.59 52.811,119.336C51.037,104.772 50.857,90.642 51.999,77.044C53.039,64.651 62.23,54.408 74.425,51.97C88.321,49.192 102.777,48.313 117.745,49.65C131.827,50.907 142.826,62.266 143.585,76.384C144.349,90.597 143.999,104.81 142.305,118.778C140.734,131.724 130.332,141.782 117.374,143.252Z" style="fill:white;fill-rule:nonzero;"/>
            <path d="M103.087,64.936C103.969,66.67 105.227,68.282 106.951,69.185C108.674,70.086 110.916,70.153 112.485,69.003C114.055,67.854 114.615,65.384 113.405,63.86C114.607,65.546 116.957,66.304 118.92,65.648C120.882,64.992 122.303,62.981 122.276,60.912C122.25,58.842 120.786,56.873 118.815,56.241" style="fill:none;fill-rule:nonzero;stroke:rgb(72,62,117);stroke-width:2px;"/>
            <g>
                <g>
                    <path d="M73.566,117.774C72.331,116.722 70.597,116.216 69.028,116.628C67.46,117.042 66.149,118.445 66.026,120.063C65.934,121.271 66.48,122.469 67.31,123.353C68.366,124.476 69.927,125.149 71.461,124.998C72.996,124.848 74.447,123.82 74.971,122.37C75.494,120.92 75.051,119.039 73.566,117.774Z" style="fill:rgb(254,172,234);fill-rule:nonzero;"/>
                    <g>
                        <path d="M78.701,115.36C76.367,115.36 74.33,113.603 73.931,111.265C73.733,110.104 73.653,108.943 73.691,107.813C73.737,106.462 74.308,105.217 75.299,104.306C76.27,103.413 77.526,102.952 78.837,103.022C81.507,103.174 83.532,105.244 83.625,107.841C83.663,108.939 83.618,110.032 83.489,111.09C83.194,113.491 81.185,115.326 78.815,115.36L78.701,115.36Z" style="fill:rgb(72,62,117);fill-rule:nonzero;"/>
                        <path d="M79.644,109.724C78.744,109.724 77.855,109.226 77.439,108.39C76.866,107.238 77.344,105.76 78.482,105.162C79.618,104.564 81.107,105.005 81.731,106.129L81.732,106.13C82.057,106.714 82.121,107.392 81.912,108.038C81.701,108.691 81.238,109.226 80.641,109.505C80.323,109.654 79.983,109.724 79.644,109.724Z" style="fill:white;fill-rule:nonzero;"/>
                    </g>
                </g>
                <g>
                    <path d="M123.368,115.65C124.603,114.598 126.337,114.092 127.906,114.504C129.474,114.918 130.785,116.321 130.908,117.939C131,119.147 130.454,120.345 129.624,121.229C128.568,122.352 127.007,123.025 125.472,122.874C123.938,122.724 122.487,121.696 121.963,120.246C121.44,118.796 121.883,116.915 123.368,115.65Z" style="fill:rgb(254,172,234);fill-rule:nonzero;"/>
                    <g>
                        <path d="M118.785,113.447C118.6,113.472 118.413,113.486 118.223,113.488C118.219,113.488 118.107,113.489 118.104,113.489C115.733,113.493 113.694,111.69 113.363,109.295C113.217,108.24 113.154,107.147 113.176,106.047C113.226,103.451 115.215,101.352 117.807,101.158C119.196,101.068 120.459,101.503 121.444,102.381C122.449,103.276 123.04,104.513 123.107,105.862C123.164,106.984 123.102,108.146 122.924,109.317C122.59,111.475 120.86,113.163 118.785,113.447Z" style="fill:rgb(72,62,117);fill-rule:nonzero;"/>
                        <path d="M119.694,107.81C118.701,107.946 117.653,107.451 117.177,106.533C116.587,105.39 117.04,103.905 118.167,103.289C119.293,102.668 120.79,103.09 121.432,104.204L121.432,104.205C121.766,104.784 121.841,105.459 121.643,106.108C121.443,106.765 120.988,107.307 120.396,107.597C120.171,107.707 119.934,107.777 119.694,107.81Z" style="fill:white;fill-rule:nonzero;"/>
                    </g>
                </g>
                <g>
                    <path d="M105.471,106.013C101.123,105.015 96.515,105.176 91.93,107.234C91.588,109.742 93.014,112.356 95.241,113.562C97.468,114.767 100.341,114.575 102.477,113.215C104.614,111.855 105.985,109.423 105.471,106.013Z" style="fill:rgb(72,62,117);fill-rule:nonzero;"/>
                    <path d="M94.137,112.773C94.479,113.071 94.842,113.346 95.241,113.562C97.468,114.767 100.341,114.575 102.477,113.215C103.576,112.516 104.466,111.528 105.007,110.275C99.722,108.491 96.14,110.725 94.137,112.773Z" style="fill:rgb(244,143,184);fill-rule:nonzero;stroke:rgb(244,143,184);stroke-width:2px;"/>
                    <path d="M105.471,106.013C101.123,105.015 96.515,105.176 91.93,107.234C91.588,109.742 93.014,112.356 95.241,113.562C97.468,114.767 100.341,114.575 102.477,113.215C104.614,111.855 105.985,109.423 105.471,106.013Z" style="fill:none;fill-rule:nonzero;stroke:rgb(72,62,117);stroke-width:2px;"/>
                </g>
            </g>
            <path d="M143.056,111.432C137.108,119.322 128.589,125.202 119.314,128.714C108.669,132.745 97.068,133.813 85.707,133.107C75.452,132.469 65.344,130.422 55.356,127.98C59.604,136.828 68.352,143.061 78.574,143.884C91.487,144.924 104.501,144.712 117.373,143.252C130.331,141.782 140.733,131.724 142.304,118.778C142.601,116.337 142.841,113.886 143.056,111.432Z" style="fill:rgb(72,62,117);fill-opacity:0.15;fill-rule:nonzero;"/>
            <path d="M117.374,143.252C104.502,144.712 91.488,144.924 78.575,143.884C65.267,142.813 54.426,132.59 52.811,119.336C51.037,104.772 50.857,90.642 51.999,77.044C53.039,64.651 62.23,54.408 74.425,51.97C88.321,49.192 102.777,48.313 117.745,49.65C131.827,50.907 142.826,62.266 143.585,76.384C144.349,90.597 143.999,104.81 142.305,118.778C140.734,131.724 130.332,141.782 117.374,143.252Z" style="fill:none;fill-rule:nonzero;stroke:rgb(72,62,117);stroke-width:2px;"/>
        </g>
    </g>
</svg>
