<?xml version="1.0" encoding="UTF-8" standalone="no"?>
<!DOCTYPE svg PUBLIC "-//W3C//DTD SVG 1.1//EN" "http://www.w3.org/Graphics/SVG/1.1/DTD/svg11.dtd">
<svg width="100%" height="100%" viewBox="0 0 111 94" version="1.1" xmlns="http://www.w3.org/2000/svg" xmlns:xlink="http://www.w3.org/1999/xlink" xml:space="preserve" xmlns:serif="http://www.serif.com/" style="fill-rule:evenodd;clip-rule:evenodd;stroke-linecap:round;stroke-linejoin:round;stroke-miterlimit:10;">
    <g transform="matrix(1,0,0,1,-454.016,-51.3373)">
        <path d="M482.421,141.6C501.628,144.881 521.265,145.657 540.672,143.899C550.873,142.975 559.234,135.454 561.201,125.401C562.694,117.779 563.686,109.863 564.133,101.837C564.638,92.794 559.824,84.421 552.11,80.308C551.812,74.179 550.841,68.063 548.879,61.985C547.591,57.995 542.412,56.93 539.705,60.131C535.958,64.558 532.863,69.535 530.537,74.849C521.139,73.324 511.726,72.568 502.345,72.508C500.895,66.921 498.641,61.543 495.661,56.599C493.498,53.008 488.216,53.234 486.308,56.968C483.448,62.568 481.533,68.358 480.261,74.265C472.489,76.96 466.609,83.796 465.207,92.209C463.65,101.537 462.986,110.818 463.381,120.124C463.836,130.861 471.828,139.791 482.421,141.6Z" style="fill:rgb(72,62,117);fill-opacity:0.15;fill-rule:nonzero;"/>
        <g>
            <g>
                <path d="M468.745,76.655C469.415,69.552 470.929,62.53 473.768,55.665C475.372,51.791 480.619,51.143 483.062,54.55C487.105,60.185 490.172,66.522 492.054,73.198L468.745,76.655Z" style="fill:white;fill-rule:nonzero;"/>
                <path d="M468.745,76.655C469.415,69.552 470.929,62.53 473.768,55.665C475.372,51.791 480.619,51.143 483.062,54.55C487.105,60.185 490.172,66.522 492.054,73.198L468.745,76.655Z" style="fill:none;fill-rule:nonzero;stroke:rgb(72,62,117);stroke-width:2px;"/>
            </g>
            <g>
                <path d="M541.563,76.655C540.894,69.552 539.38,62.53 536.54,55.665C534.937,51.791 529.69,51.143 527.247,54.55C523.204,60.185 520.137,66.522 518.255,73.198L541.563,76.655Z" style="fill:white;fill-rule:nonzero;"/>
                <path d="M541.563,76.655C540.894,69.552 539.38,62.53 536.54,55.665C534.937,51.791 529.69,51.143 527.247,54.55C523.204,60.185 520.137,66.522 518.255,73.198L541.563,76.655Z" style="fill:none;fill-rule:nonzero;stroke:rgb(72,62,117);stroke-width:2px;"/>
            </g>
            <g>
                <path d="M534.907,137.974C515.703,141.277 496.067,142.073 476.659,140.338C465.955,139.381 457.275,131.119 455.962,120.453C454.824,111.208 454.745,101.904 455.551,92.481C456.442,82.039 464.261,73.427 474.61,71.778C494.772,68.567 515.486,68.411 536.285,72.156C546.933,74.073 554.669,83.355 554.931,94.171C555.127,102.207 554.771,110.177 553.892,117.894C552.735,128.072 545.002,136.238 534.907,137.974Z" style="fill:white;fill-rule:nonzero;"/>
                <g>
                    <g>
                        <g>
                            <path d="M489.369,84.54C484.762,82.662 478.871,85.025 476.839,89.567C474.806,94.109 476.97,100.075 481.44,102.259C485.911,104.443 491.947,102.483 494.281,98.088C496.615,93.694 495.187,86.911 489.369,84.54Z" style="fill:rgb(72,62,117);fill-rule:nonzero;stroke:rgb(72,62,117);stroke-width:2px;"/>
                            <path d="M488.762,95.465C487.02,95.465 485.342,94.332 484.735,92.684C484.073,90.889 484.773,88.734 486.364,87.672C487.957,86.609 490.214,86.788 491.618,88.088C492.673,89.063 493.122,90.281 492.955,91.707C492.73,93.608 491.129,95.211 489.23,95.437C489.073,95.457 488.917,95.465 488.762,95.465Z" style="fill:white;fill-rule:nonzero;"/>
                            <path d="M481.765,100.263C481.201,100.263 480.637,100.11 480.154,99.79C478.867,98.937 478.448,97.097 479.239,95.772C480.027,94.448 481.844,93.94 483.208,94.669C483.979,95.081 484.51,95.768 484.7,96.603C484.894,97.458 484.711,98.378 484.209,99.063C483.64,99.841 482.703,100.263 481.765,100.263Z" style="fill:white;fill-rule:nonzero;"/>
                        </g>
                        <path d="M474.383,102.012C475.372,102.658 476.392,103.335 477.019,104.336C477.646,105.337 477.763,106.76 476.967,107.633C476.08,108.606 474.489,108.5 473.289,107.957C471.598,107.19 470.249,105.698 469.659,103.936C469.408,103.187 469.31,102.301 469.767,101.656C470.193,101.057 471.003,100.834 471.733,100.917C472.462,101 473.196,101.236 474.383,102.012Z" style="fill:rgb(254,172,234);fill-rule:nonzero;"/>
                    </g>
                    <g>
                        <g>
                            <path d="M529.619,84.54C525.012,82.662 519.121,85.025 517.089,89.567C515.056,94.109 517.22,100.075 521.69,102.259C526.161,104.443 532.197,102.483 534.531,98.088C536.865,93.694 535.437,86.911 529.619,84.54Z" style="fill:rgb(72,62,117);fill-rule:nonzero;stroke:rgb(72,62,117);stroke-width:2px;"/>
                            <path d="M529.012,95.465C527.27,95.465 525.592,94.332 524.985,92.684C524.323,90.889 525.022,88.735 526.613,87.672C528.206,86.609 530.464,86.789 531.868,88.088C532.923,89.063 533.372,90.281 533.205,91.707C532.98,93.608 531.379,95.211 529.48,95.437C529.323,95.457 529.167,95.465 529.012,95.465Z" style="fill:white;fill-rule:nonzero;"/>
                            <path d="M522.016,100.263C521.451,100.263 520.888,100.11 520.405,99.79C519.118,98.937 518.699,97.097 519.49,95.772C520.278,94.448 522.096,93.94 523.459,94.669C524.23,95.081 524.761,95.768 524.951,96.603C525.145,97.458 524.962,98.378 524.46,99.063C523.891,99.841 522.953,100.263 522.016,100.263Z" style="fill:white;fill-rule:nonzero;"/>
                        </g>
                        <path d="M539.591,100.535C538.602,101.181 537.582,101.858 536.955,102.859C536.329,103.86 536.211,105.283 537.007,106.156C537.894,107.13 539.485,107.023 540.685,106.48C542.377,105.714 543.725,104.221 544.315,102.459C544.566,101.71 544.664,100.824 544.207,100.179C543.782,99.58 542.972,99.357 542.242,99.44C541.512,99.523 540.778,99.759 539.591,100.535Z" style="fill:rgb(254,172,234);fill-rule:nonzero;"/>
                    </g>
                    <g>
                        <path d="M500.961,98.739C501.158,96.885 501.723,94.999 502.982,93.624C504.242,92.249 506.311,91.509 508.046,92.192C509.251,92.666 510.141,93.743 510.67,94.925C511.199,96.107 511.414,97.402 511.624,98.68L500.961,98.739Z" style="fill:rgb(72,62,117);fill-rule:nonzero;"/>
                        <path d="M510.984,95.756C507.939,94.465 504.144,95.235 501.545,96.086C501.24,96.937 501.056,97.841 500.96,98.738L511.623,98.679C511.462,97.695 511.293,96.702 510.984,95.756Z" style="fill:rgb(244,143,184);fill-rule:nonzero;stroke:rgb(244,143,184);stroke-width:2px;"/>
                        <path d="M500.961,98.739C501.158,96.885 501.723,94.999 502.982,93.624C504.242,92.249 506.311,91.509 508.046,92.192C509.251,92.666 510.141,93.743 510.67,94.925C511.199,96.107 511.414,97.402 511.624,98.68L500.961,98.739Z" style="fill:none;fill-rule:nonzero;stroke:rgb(72,62,117);stroke-width:2px;"/>
                    </g>
                </g>
                <path d="M457.166,125.389C460.142,133.581 467.679,139.534 476.659,140.337C496.067,142.072 515.703,141.276 534.907,137.973C544.12,136.389 551.349,129.442 553.424,120.504C547.503,124.949 539.764,128.173 531.91,129.719C521.872,131.696 511.533,131.219 501.313,130.735C486.475,130.032 471.467,129.298 457.166,125.389Z" style="fill:rgb(72,62,117);fill-opacity:0.15;fill-rule:nonzero;"/>
                <path d="M534.907,137.974C515.703,141.277 496.067,142.073 476.659,140.338C465.955,139.381 457.275,131.119 455.962,120.453C454.824,111.208 454.745,101.904 455.551,92.481C456.442,82.039 464.261,73.427 474.61,71.778C494.772,68.567 515.486,68.411 536.285,72.156C546.933,74.073 554.669,83.355 554.931,94.171C555.127,102.207 554.771,110.177 553.892,117.894C552.735,128.072 545.002,136.238 534.907,137.974Z" style="fill:none;fill-rule:nonzero;stroke:rgb(72,62,117);stroke-width:2px;"/>
            </g>
        </g>
    </g>
</svg>
