<?xml version="1.0" encoding="UTF-8" standalone="no"?>
<!DOCTYPE svg PUBLIC "-//W3C//DTD SVG 1.1//EN" "http://www.w3.org/Graphics/SVG/1.1/DTD/svg11.dtd">
<svg width="100%" height="100%" viewBox="0 0 109 97" version="1.1" xmlns="http://www.w3.org/2000/svg" xmlns:xlink="http://www.w3.org/1999/xlink" xml:space="preserve" xmlns:serif="http://www.serif.com/" style="fill-rule:evenodd;clip-rule:evenodd;stroke-linecap:round;stroke-linejoin:round;stroke-miterlimit:10;">
    <g transform="matrix(1,0,0,1,-182.552,-353.042)">
        <path d="M274.936,377.739C273.697,371.729 271.795,365.836 268.921,360.133C267.034,356.389 261.753,356.133 259.57,359.713C256.55,364.665 254.259,370.059 252.78,375.668C243.26,375.609 233.841,376.312 224.563,377.698C222.269,372.401 219.214,367.434 215.509,363.008C212.819,359.793 207.634,360.831 206.324,364.814C204.36,370.788 203.36,376.804 203.013,382.836C195.748,386.695 190.992,394.356 190.902,402.886C190.802,412.343 191.575,421.614 193.399,430.749C195.504,441.287 204.776,448.878 215.521,449.034C235.005,449.318 254.526,447.058 273.431,442.333C283.368,439.849 290.471,431.129 290.865,420.893C291.166,413.131 290.926,405.157 290.132,397.159C289.238,388.146 283.193,380.614 274.936,377.739Z" style="fill:rgb(72,62,117);fill-opacity:0.15;fill-rule:nonzero;"/>
        <g>
            <g>
                <path d="M197.281,378.36C197.95,371.257 199.464,364.235 202.304,357.37C203.907,353.496 209.155,352.847 211.598,356.254C215.64,361.889 218.707,368.227 220.589,374.903L197.281,378.36Z" style="fill:white;fill-rule:nonzero;"/>
                <path d="M197.281,378.36C197.95,371.257 199.464,364.235 202.304,357.37C203.907,353.496 209.155,352.847 211.598,356.254C215.64,361.889 218.707,368.227 220.589,374.903L197.281,378.36Z" style="fill:none;fill-rule:nonzero;stroke:rgb(72,62,117);stroke-width:2px;"/>
            </g>
            <g>
                <path d="M270.099,378.36C269.43,371.257 267.916,364.235 265.076,357.37C263.473,353.496 258.226,352.847 255.782,356.254C251.74,361.889 248.673,368.227 246.791,374.903L270.099,378.36Z" style="fill:white;fill-rule:nonzero;"/>
                <path d="M270.099,378.36C269.43,371.257 267.916,364.235 265.076,357.37C263.473,353.496 258.226,352.847 255.782,356.254C251.74,361.889 248.673,368.227 246.791,374.903L270.099,378.36Z" style="fill:none;fill-rule:nonzero;stroke:rgb(72,62,117);stroke-width:2px;"/>
            </g>
            <g>
                <path d="M263.443,439.679C244.239,442.981 224.604,443.778 205.195,442.042C194.491,441.085 185.811,432.824 184.498,422.158C183.36,412.912 183.281,403.609 184.086,394.186C184.978,383.743 192.796,375.131 203.146,373.483C223.308,370.271 244.022,370.116 264.821,373.861C275.469,375.778 283.205,385.06 283.467,395.876C283.663,403.911 283.307,411.881 282.428,419.599C281.27,429.777 273.537,437.943 263.443,439.679Z" style="fill:white;fill-rule:nonzero;"/>
                <g>
                    <g>
                        <path d="M206.97,421.349C211.633,422.786 216.387,423.932 221.753,425.139C218.233,421.353 214.293,417.956 209.995,414.988C209.045,416.849 208.095,418.71 206.97,421.349Z" style="fill:rgb(72,62,117);fill-rule:nonzero;stroke:rgb(72,62,117);stroke-width:2px;"/>
                        <g>
                            <path d="M203.42,423.892C202.324,422.331 199.931,421.878 198.341,422.931C196.751,423.983 196.233,426.364 197.24,427.982C198.249,429.6 200.613,430.184 202.259,429.221C203.905,428.258 204.75,425.786 203.42,423.892Z" style="fill:rgb(254,172,234);fill-rule:nonzero;"/>
                            <path d="M195.689,425.776C196.724,425.407 197.759,425.038 198.794,424.67" style="fill:none;fill-rule:nonzero;stroke:rgb(72,62,117);stroke-width:2px;"/>
                            <path d="M196.744,428.872C197.518,428.456 198.293,428.04 199.068,427.624" style="fill:none;fill-rule:nonzero;stroke:rgb(72,62,117);stroke-width:2px;"/>
                        </g>
                    </g>
                    <g>
                        <g>
                            <path d="M270.955,423.625C269.714,422.241 267.338,422.09 265.932,423.305C264.524,424.52 264.328,426.892 265.517,428.321C266.705,429.751 269.073,429.991 270.524,428.83C271.976,427.669 272.376,425.21 270.955,423.625Z" style="fill:rgb(254,172,234);fill-rule:nonzero;"/>
                            <path d="M269.943,425.123C270.922,425.461 271.901,425.8 272.881,426.138" style="fill:none;fill-rule:nonzero;stroke:rgb(72,62,117);stroke-width:2px;"/>
                            <path d="M268.885,428.038C269.707,428.545 270.531,429.053 271.354,429.56" style="fill:none;fill-rule:nonzero;stroke:rgb(72,62,117);stroke-width:2px;"/>
                        </g>
                        <path d="M262.753,420.599C258.089,422.036 253.336,423.182 247.97,424.389C251.489,420.603 255.429,417.206 259.728,414.238C260.678,416.099 261.627,417.96 262.753,420.599Z" style="fill:rgb(72,62,117);fill-rule:nonzero;stroke:rgb(72,62,117);stroke-width:2px;"/>
                    </g>
                    <path d="M227.895,428.072C228.006,427.094 228.13,426.076 228.669,425.252C229.208,424.428 230.297,423.874 231.201,424.264C231.95,424.59 232.322,425.411 232.71,426.129C233.097,426.847 233.701,427.603 234.518,427.59C235.105,427.58 235.608,427.16 235.962,426.691C236.317,426.222 236.58,425.684 236.988,425.261C237.897,424.321 239.505,424.164 240.579,424.912C241.652,425.66 242.062,427.222 241.495,428.401" style="fill:none;fill-rule:nonzero;stroke:rgb(72,62,117);stroke-width:2px;"/>
                </g>
                <path d="M263.553,431.353C253.514,433.33 243.175,432.853 232.955,432.369C217.113,431.618 201.075,430.833 185.911,426.184C185.827,426.501 185.772,426.818 185.716,427.136C188.702,435.306 196.229,441.24 205.194,442.041C224.603,443.777 244.238,442.98 263.442,439.678C271.777,438.245 278.491,432.422 281.233,424.709C275.985,427.833 269.803,430.123 263.553,431.353Z" style="fill:rgb(72,62,117);fill-opacity:0.15;fill-rule:nonzero;"/>
                <path d="M263.443,439.679C244.239,442.981 224.604,443.778 205.195,442.042C194.491,441.085 185.811,432.824 184.498,422.158C183.36,412.912 183.281,403.609 184.086,394.186C184.978,383.743 192.796,375.131 203.146,373.483C223.308,370.271 244.022,370.116 264.821,373.861C275.469,375.778 283.205,385.06 283.467,395.876C283.663,403.911 283.307,411.881 282.428,419.599C281.27,429.777 273.537,437.943 263.443,439.679Z" style="fill:none;fill-rule:nonzero;stroke:rgb(72,62,117);stroke-width:2px;"/>
            </g>
        </g>
    </g>
</svg>
