<?xml version="1.0" encoding="UTF-8" standalone="no"?>
<!DOCTYPE svg PUBLIC "-//W3C//DTD SVG 1.1//EN" "http://www.w3.org/Graphics/SVG/1.1/DTD/svg11.dtd">
<svg width="100%" height="100%" viewBox="0 0 105 100" version="1.1" xmlns="http://www.w3.org/2000/svg" xmlns:xlink="http://www.w3.org/1999/xlink" xml:space="preserve" xmlns:serif="http://www.serif.com/" style="fill-rule:evenodd;clip-rule:evenodd;stroke-linecap:round;stroke-linejoin:round;stroke-miterlimit:10;">
    <g transform="matrix(1,0,0,1,-457.655,-199.689)">
        <path d="M535.511,204.754C520.544,203.418 506.087,204.296 492.192,207.074C479.997,209.513 470.806,219.756 469.765,232.148C468.623,245.746 468.803,259.877 470.578,274.441C472.193,287.694 483.034,297.918 496.341,298.989C509.254,300.028 522.268,299.816 535.141,298.356C548.099,296.886 558.5,286.829 560.071,273.882C561.766,259.915 562.116,245.701 561.352,231.488C560.593,217.371 549.593,206.012 535.511,204.754Z" style="fill:rgb(72,62,117);fill-opacity:0.15;fill-rule:nonzero;"/>
        <g>
            <path d="M524.75,294.905C511.877,296.365 498.863,296.577 485.95,295.538C472.643,294.467 461.802,284.243 460.187,270.99C458.412,256.426 458.232,242.295 459.374,228.697C460.415,216.305 469.606,206.062 481.801,203.623C495.696,200.845 510.153,199.967 525.12,201.303C539.202,202.561 550.202,213.92 550.961,228.037C551.725,242.25 551.375,256.464 549.68,270.431C548.109,283.378 537.708,293.435 524.75,294.905Z" style="fill:white;fill-rule:nonzero;"/>
            <g>
                <g>
                    <g>
                        <path d="M489.075,259.065C487.303,257.535 484.339,257.665 482.706,259.343C481.074,261.022 481.027,263.988 482.606,265.717C484.185,267.446 487.143,267.669 488.964,266.195C490.783,264.72 491.676,261.31 489.075,259.065Z" style="fill:rgb(72,62,117);fill-rule:nonzero;stroke:rgb(72,62,117);stroke-width:2px;"/>
                        <path d="M487.65,264.33C487.072,264.33 486.494,264.13 486.048,263.731C485.176,262.948 485.004,261.576 485.656,260.606C486.308,259.634 487.643,259.275 488.697,259.786C489.479,260.167 489.963,260.801 490.059,261.571C490.175,262.491 489.709,263.341 489.198,263.774C488.762,264.146 488.206,264.33 487.65,264.33Z" style="fill:white;fill-rule:nonzero;"/>
                        <path d="M488.404,258.594C486.601,257.433 484.238,256.568 482.099,256.717C479.959,256.865 477.875,257.722 476.249,259.12" style="fill:none;fill-rule:nonzero;stroke:rgb(72,62,117);stroke-width:2px;"/>
                    </g>
                    <g>
                        <path d="M481.907,269.37C480.011,267.795 476.874,268.033 475.237,269.878C473.6,271.723 473.737,274.865 475.528,276.56C477.318,278.256 480.464,278.221 482.217,276.486C483.969,274.752 484.282,271.344 481.907,269.37Z" style="fill:rgb(254,172,234);fill-rule:nonzero;"/>
                        <path d="M476.517,273.649C475.771,275.026 475.025,276.403 474.28,277.78" style="fill:none;fill-rule:nonzero;stroke:rgb(72,62,117);stroke-width:2px;"/>
                        <path d="M479.444,275.285C479.099,276.432 478.755,277.58 478.411,278.727" style="fill:none;fill-rule:nonzero;stroke:rgb(72,62,117);stroke-width:2px;"/>
                    </g>
                </g>
                <g>
                    <g>
                        <path d="M537.293,268.29C535.766,267.269 533.692,267.092 532.04,267.898C530.389,268.704 529.242,270.485 529.255,272.323C529.267,274.161 530.47,275.951 532.189,276.601C533.362,277.043 534.699,276.965 535.862,276.5C537.395,275.888 538.671,274.558 539.018,272.945C539.365,271.332 538.81,269.305 537.293,268.29Z" style="fill:rgb(254,172,234);fill-rule:nonzero;"/>
                        <path d="M534.216,274.112L535.077,278.158" style="fill:none;fill-rule:nonzero;stroke:rgb(72,62,117);stroke-width:2px;"/>
                        <path d="M537.917,273.166C538.348,274.428 538.778,275.69 539.208,276.953" style="fill:none;fill-rule:nonzero;stroke:rgb(72,62,117);stroke-width:2px;"/>
                    </g>
                    <g>
                        <path d="M523.252,257.688C525.024,256.159 527.988,256.288 529.621,257.966C531.253,259.645 531.3,262.612 529.721,264.34C528.142,266.07 525.183,266.292 523.363,264.818C521.544,263.344 520.651,259.934 523.252,257.688Z" style="fill:rgb(72,62,117);fill-rule:nonzero;stroke:rgb(72,62,117);stroke-width:2px;"/>
                        <path d="M527.681,262.943C527.125,262.943 526.57,262.758 526.131,262.387C525.619,261.954 525.154,261.105 525.27,260.185C525.367,259.415 525.85,258.781 526.632,258.4C527.687,257.889 529.022,258.249 529.673,259.22C530.325,260.191 530.155,261.565 529.281,262.345C528.836,262.744 528.258,262.943 527.681,262.943Z" style="fill:white;fill-rule:nonzero;"/>
                        <path d="M524.012,257.168C525.815,256.007 528.088,255.192 530.227,255.34C532.367,255.488 534.451,256.345 536.077,257.743" style="fill:none;fill-rule:nonzero;stroke:rgb(72,62,117);stroke-width:2px;"/>
                    </g>
                </g>
                <g>
                    <path d="M511.028,259.642C507.736,259.056 504.306,259.258 500.357,260.622C499.708,264.288 500.363,268.169 502.178,271.419C502.747,272.438 503.442,273.412 504.381,274.104C505.319,274.796 506.532,275.181 507.672,274.936C509.609,274.519 510.749,272.515 511.357,270.629C512.474,267.169 512.632,263.405 511.028,259.642Z" style="fill:rgb(72,62,117);fill-rule:nonzero;"/>
                    <path d="M500.988,268.715C501.303,269.649 501.697,270.557 502.178,271.419C502.747,272.438 503.442,273.412 504.381,274.104C505.319,274.796 506.532,275.181 507.672,274.936C509.609,274.519 510.749,272.515 511.357,270.629C511.735,269.458 511.992,268.25 512.119,267.021C507.461,265.289 503.398,267.094 500.988,268.715Z" style="fill:rgb(244,143,184);fill-rule:nonzero;stroke:rgb(244,143,184);stroke-width:2px;"/>
                    <path d="M511.028,259.642C507.736,259.056 504.306,259.258 500.357,260.622C499.708,264.288 500.363,268.169 502.178,271.419C502.747,272.438 503.442,273.412 504.381,274.104C505.319,274.796 506.532,275.181 507.672,274.936C509.609,274.519 510.749,272.515 511.357,270.629C512.474,267.169 512.632,263.405 511.028,259.642Z" style="fill:none;fill-rule:nonzero;stroke:rgb(72,62,117);stroke-width:2px;"/>
                </g>
            </g>
            <path d="M550.544,261.77C544.592,270.987 535.254,277.789 524.978,281.68C514.333,285.712 502.732,286.78 491.371,286.073C482.06,285.494 472.871,283.748 463.781,281.607C468.325,289.397 476.506,294.779 485.95,295.539C498.863,296.578 511.877,296.366 524.75,294.906C537.708,293.436 548.109,283.379 549.68,270.432C550.029,267.555 550.307,264.665 550.544,261.77Z" style="fill:rgb(72,62,117);fill-opacity:0.15;fill-rule:nonzero;"/>
            <path d="M524.75,294.905C511.877,296.365 498.863,296.577 485.95,295.538C472.643,294.467 461.802,284.243 460.187,270.99C458.412,256.426 458.232,242.295 459.374,228.697C460.415,216.305 469.606,206.062 481.801,203.623C495.696,200.845 510.153,199.967 525.12,201.303C539.202,202.561 550.202,213.92 550.961,228.037C551.725,242.25 551.375,256.464 549.68,270.431C548.109,283.378 537.708,293.435 524.75,294.905Z" style="fill:none;fill-rule:nonzero;stroke:rgb(72,62,117);stroke-width:2px;"/>
        </g>
    </g>
</svg>
