<?xml version="1.0" encoding="UTF-8" standalone="no"?>
<!DOCTYPE svg PUBLIC "-//W3C//DTD SVG 1.1//EN" "http://www.w3.org/Graphics/SVG/1.1/DTD/svg11.dtd">
<svg width="100%" height="100%" viewBox="0 0 114 104" version="1.1" xmlns="http://www.w3.org/2000/svg" xmlns:xlink="http://www.w3.org/1999/xlink" xml:space="preserve" xmlns:serif="http://www.serif.com/" style="fill-rule:evenodd;clip-rule:evenodd;stroke-linecap:round;stroke-linejoin:round;stroke-miterlimit:10;">
    <g transform="matrix(1,0,0,1,-177.64,-50.5234)">
        <path d="M285.342,66.812C282.127,67.143 278.962,67.878 275.882,68.911C273.645,62.078 267.436,57.192 260.12,56.605C244.192,55.326 228.949,56.864 214.503,60.773C208.394,62.426 203.678,67.108 201.914,72.977C197.966,71.819 193.906,71.121 189.822,71.065C185.104,71.001 182.561,76.623 185.705,80.142C190.392,85.39 195.491,90.264 200.913,94.748C201.171,109.711 202.679,124.573 205.363,139.479C206.913,148.084 214.353,154.321 223.097,154.4C237.82,154.532 252.707,152.973 267.833,149.613C276.006,147.798 281.797,140.553 281.921,132.182C282.136,117.57 281.244,102.945 279.299,88.461C283.205,84.361 286.867,80.029 290.249,75.487C293.068,71.702 290.036,66.328 285.342,66.812Z" style="fill:rgb(72,62,117);fill-opacity:0.15;fill-rule:nonzero;"/>
        <g>
            <g>
                <path d="M262.641,68.5C268.137,65.954 274.021,64.251 280.005,63.902C284.716,63.628 287.506,69.131 284.523,72.787C279.649,78.759 274.282,84.329 268.492,89.418L262.641,68.5Z" style="fill:white;fill-rule:nonzero;"/>
                <path d="M262.641,68.5C268.137,65.954 274.021,64.251 280.005,63.902C284.716,63.628 287.506,69.131 284.523,72.787C279.649,78.759 274.282,84.329 268.492,89.418L262.641,68.5Z" style="fill:none;fill-rule:nonzero;stroke:rgb(72,62,117);stroke-width:2px;"/>
            </g>
            <g>
                <path d="M201.756,68.5C196.259,65.954 190.376,64.251 184.391,63.902C179.68,63.628 176.89,69.131 179.874,72.787C184.748,78.759 190.115,84.329 195.905,89.418L201.756,68.5Z" style="fill:white;fill-rule:nonzero;"/>
                <path d="M201.756,68.5C196.259,65.954 190.376,64.251 184.391,63.902C179.68,63.628 176.89,69.131 179.874,72.787C184.748,78.759 190.115,84.329 195.905,89.418L201.756,68.5Z" style="fill:none;fill-rule:nonzero;stroke:rgb(72,62,117);stroke-width:2px;"/>
            </g>
            <g>
                <path d="M273.681,129.056C274.895,108.584 273.972,87.986 270.93,67.705C269.733,59.721 263.274,53.587 255.262,52.583C239.407,50.597 224.11,51.455 209.505,54.718C201.895,56.418 196.191,62.806 195.465,70.57C193.515,91.426 194.071,112.09 196.874,132.94C198.04,141.606 205.195,148.167 213.927,148.635C228.629,149.422 243.571,148.526 258.832,145.843C267.078,144.393 273.185,137.413 273.681,129.056Z" style="fill:white;fill-rule:nonzero;"/>
                <g>
                    <path d="M247.556,59.126C251.722,64.352 254.381,70.765 255.134,77.406" style="fill:none;fill-rule:nonzero;stroke:rgb(72,62,117);stroke-width:2px;"/>
                    <path d="M246.033,65.999C248.33,64.073 251.037,62.639 253.922,61.821" style="fill:none;fill-rule:nonzero;stroke:rgb(72,62,117);stroke-width:2px;"/>
                    <path d="M248.918,71.013C250.814,68.849 253.517,67.409 256.371,67.042" style="fill:none;fill-rule:nonzero;stroke:rgb(72,62,117);stroke-width:2px;"/>
                    <path d="M251.467,75.946C253.689,75.058 255.912,74.17 258.134,73.281" style="fill:none;fill-rule:nonzero;stroke:rgb(72,62,117);stroke-width:2px;"/>
                </g>
                <g>
                    <g>
                        <path d="M216.427,127.592C214.747,127.223 212.912,127.166 211.385,127.958C209.859,128.751 208.784,130.583 209.297,132.225C209.575,133.116 210.275,133.839 211.102,134.271C211.929,134.703 212.876,134.865 213.809,134.877C215.135,134.894 216.501,134.6 217.577,133.825C218.654,133.05 219.393,131.744 219.279,130.423C219.165,129.102 218.057,127.95 216.427,127.592Z" style="fill:rgb(254,172,234);fill-rule:nonzero;"/>
                        <g>
                            <path d="M215.306,125.465C212.814,125.465 210.328,124.123 209.056,121.973C207.542,119.414 207.859,115.938 209.811,113.707C211.778,111.458 215.186,110.698 217.912,111.898C221.057,113.284 222.795,116.187 222.34,119.293C221.914,122.204 219.52,124.743 216.646,125.33C216.205,125.422 215.755,125.465 215.306,125.465Z" style="fill:rgb(72,62,117);fill-rule:nonzero;"/>
                            <path d="M215.291,123.163C213.612,123.163 211.938,122.259 211.083,120.811C210.062,119.087 210.276,116.744 211.592,115.239C212.918,113.722 215.217,113.209 217.057,114.02C219.137,114.936 220.33,116.942 220.026,119.011C219.736,120.999 218.16,122.67 216.195,123.073C215.896,123.133 215.594,123.163 215.291,123.163Z" style="fill:white;fill-rule:nonzero;"/>
                        </g>
                    </g>
                    <path d="M229.097,122.194C232.987,120.973 237.306,121.175 241.065,122.753" style="fill:none;fill-rule:nonzero;stroke:rgb(72,62,117);stroke-width:2px;"/>
                    <path d="M205.917,111.588C204.202,111.429 202.621,110.249 201.98,108.65C201.625,107.762 201.633,106.575 202.422,106.036C203.126,105.556 204.149,105.855 204.722,106.485C205.295,107.116 205.519,107.984 205.672,108.822C205.825,109.66 205.935,110.529 205.917,111.588Z" style="fill:rgb(170,199,255);fill-rule:nonzero;stroke:rgb(170,199,255);stroke-width:2px;"/>
                    <path d="M258.441,109.346C258.658,107.598 259.703,105.971 261.203,105.046C261.792,104.683 262.578,104.434 263.152,104.822C263.576,105.108 263.743,105.677 263.664,106.182C263.586,106.687 263.3,107.138 262.977,107.534C261.818,108.956 260.054,109.868 258.441,109.346Z" style="fill:rgb(170,199,255);fill-rule:nonzero;stroke:rgb(170,199,255);stroke-width:2px;"/>
                    <g>
                        <path d="M254.125,126.842C255.805,126.473 257.64,126.416 259.167,127.208C260.693,128.001 261.768,129.833 261.255,131.475C260.977,132.366 260.277,133.089 259.45,133.521C258.623,133.953 257.676,134.115 256.743,134.127C255.417,134.144 254.051,133.85 252.975,133.075C251.898,132.3 251.159,130.994 251.273,129.673C251.387,128.352 252.495,127.2 254.125,126.842Z" style="fill:rgb(254,172,234);fill-rule:nonzero;"/>
                        <g>
                            <path d="M253.435,125.648C252.985,125.648 252.535,125.604 252.092,125.513C249.219,124.926 246.824,122.387 246.398,119.476C245.942,116.37 247.681,113.467 250.826,112.081C253.553,110.878 256.96,111.64 258.928,113.89C260.879,116.12 261.198,119.597 259.685,122.156C258.412,124.306 255.926,125.648 253.435,125.648Z" style="fill:rgb(72,62,117);fill-rule:nonzero;"/>
                            <path d="M253.45,123.345C253.147,123.345 252.843,123.316 252.545,123.254C250.581,122.853 249.005,121.183 248.713,119.192C248.409,117.124 249.602,115.118 251.682,114.202C253.522,113.391 255.82,113.904 257.147,115.42C258.463,116.926 258.677,119.269 257.656,120.993C256.8,122.441 255.127,123.345 253.45,123.345Z" style="fill:white;fill-rule:nonzero;"/>
                        </g>
                    </g>
                </g>
                <path d="M273.935,123.555C271.504,127.219 267.531,130.514 263.148,132.606C257.344,135.378 250.848,136.311 244.443,136.908C228.836,138.365 213.064,138.009 197.532,135.897C199.749,143.06 206.22,148.222 213.926,148.635C228.628,149.422 243.57,148.526 258.831,145.843C267.077,144.393 273.184,137.413 273.68,129.056C273.789,127.223 273.861,125.389 273.935,123.555Z" style="fill:rgb(72,62,117);fill-opacity:0.15;fill-rule:nonzero;"/>
                <path d="M273.681,129.056C274.895,108.584 273.972,87.986 270.93,67.705C269.733,59.721 263.274,53.587 255.262,52.583C239.407,50.597 224.11,51.455 209.505,54.718C201.895,56.418 196.191,62.806 195.465,70.57C193.515,91.426 194.071,112.09 196.874,132.94C198.04,141.606 205.195,148.167 213.927,148.635C228.629,149.422 243.571,148.526 258.832,145.843C267.078,144.393 273.185,137.413 273.681,129.056Z" style="fill:none;fill-rule:nonzero;stroke:rgb(72,62,117);stroke-width:2px;"/>
            </g>
        </g>
    </g>
</svg>
