<?xml version="1.0" encoding="UTF-8" standalone="no"?>
<!DOCTYPE svg PUBLIC "-//W3C//DTD SVG 1.1//EN" "http://www.w3.org/Graphics/SVG/1.1/DTD/svg11.dtd">
<svg width="100%" height="100%" viewBox="0 0 118 101" version="1.1" xmlns="http://www.w3.org/2000/svg" xmlns:xlink="http://www.w3.org/1999/xlink" xml:space="preserve" xmlns:serif="http://www.serif.com/" style="fill-rule:evenodd;clip-rule:evenodd;stroke-linecap:round;stroke-linejoin:round;stroke-miterlimit:10;">
    <g transform="matrix(1,0,0,1,-43.3276,-200.627)">
        <path d="M155.757,220.902C152.525,220.817 149.292,221.137 146.104,221.766C144.765,214.701 139.237,209.056 132.059,207.532C116.428,204.213 101.113,203.775 86.285,205.792C80.014,206.645 74.734,210.681 72.229,216.274C68.463,214.617 64.526,213.403 60.484,212.821C55.814,212.15 52.568,217.397 55.232,221.292C59.204,227.099 63.634,232.589 68.433,237.735C66.762,252.606 66.345,267.539 67.088,282.667C67.516,291.4 74.091,298.543 82.752,299.747C97.335,301.774 112.3,302.144 127.733,300.76C136.071,300.012 142.746,293.573 143.947,285.288C146.042,270.825 147.04,256.207 146.976,241.593C151.378,238.03 155.567,234.206 159.506,230.137C162.789,226.747 160.474,221.028 155.757,220.902Z" style="fill:rgb(72,62,117);fill-opacity:0.15;fill-rule:nonzero;"/>
        <g>
            <g>
                <path d="M128.328,218.605C133.825,216.059 139.708,214.356 145.693,214.007C150.404,213.733 153.194,219.236 150.21,222.892C145.336,228.864 139.969,234.434 134.179,239.523L128.328,218.605Z" style="fill:white;fill-rule:nonzero;"/>
                <path d="M128.328,218.605C133.825,216.059 139.708,214.356 145.693,214.007C150.404,213.733 153.194,219.236 150.21,222.892C145.336,228.864 139.969,234.434 134.179,239.523L128.328,218.605Z" style="fill:none;fill-rule:nonzero;stroke:rgb(72,62,117);stroke-width:2px;"/>
            </g>
            <g>
                <path d="M67.443,218.605C61.947,216.059 56.063,214.356 50.078,214.007C45.368,213.733 42.577,219.236 45.561,222.892C50.435,228.864 55.802,234.434 61.592,239.523L67.443,218.605Z" style="fill:white;fill-rule:nonzero;"/>
                <path d="M67.443,218.605C61.947,216.059 56.063,214.356 50.078,214.007C45.368,213.733 42.577,219.236 45.561,222.892C50.435,228.864 55.802,234.434 61.592,239.523L67.443,218.605Z" style="fill:none;fill-rule:nonzero;stroke:rgb(72,62,117);stroke-width:2px;"/>
            </g>
            <g>
                <path d="M139.368,279.16C140.582,258.688 139.659,238.09 136.617,217.809C135.42,209.825 128.961,203.69 120.95,202.687C105.094,200.701 89.797,201.559 75.193,204.822C67.583,206.522 61.878,212.91 61.152,220.674C59.202,241.529 59.758,262.194 62.562,283.044C63.727,291.71 70.882,298.271 79.614,298.739C94.316,299.526 109.259,298.63 124.52,295.947C132.765,294.497 138.872,287.517 139.368,279.16Z" style="fill:white;fill-rule:nonzero;"/>
                <g>
                    <g>
                        <path d="M77.556,276.686C75.981,275.564 73.541,275.934 72.37,277.473C71.2,279.012 71.494,281.462 72.994,282.681C74.496,283.9 76.954,283.684 78.22,282.221C79.485,280.759 79.517,278.082 77.556,276.686Z" style="fill:rgb(254,172,234);fill-rule:nonzero;"/>
                        <g>
                            <path d="M75.94,272.542C77.98,270.074 80.269,267.813 82.761,265.803" style="fill:none;fill-rule:nonzero;stroke:rgb(72,62,117);stroke-width:2px;"/>
                            <path d="M76.671,266.371C79.125,268.06 81.323,270.121 83.167,272.461" style="fill:none;fill-rule:nonzero;stroke:rgb(72,62,117);stroke-width:2px;"/>
                        </g>
                    </g>
                    <g>
                        <path d="M126.954,275.686C128.529,274.564 130.969,274.934 132.14,276.473C133.31,278.012 133.017,280.462 131.516,281.681C130.015,282.9 127.556,282.684 126.291,281.221C125.025,279.759 124.993,277.082 126.954,275.686Z" style="fill:rgb(254,172,234);fill-rule:nonzero;"/>
                        <g>
                            <path d="M120.688,271.247C122.173,268.777 123.941,266.478 125.947,264.41" style="fill:none;fill-rule:nonzero;stroke:rgb(72,62,117);stroke-width:2px;"/>
                            <path d="M119.62,265.329C122.429,266.547 124.937,268.449 126.869,270.824" style="fill:none;fill-rule:nonzero;stroke:rgb(72,62,117);stroke-width:2px;"/>
                        </g>
                    </g>
                    <path d="M93.501,271.946C98.709,269.843 104.757,269.919 109.911,272.149" style="fill:none;fill-rule:nonzero;stroke:rgb(72,62,117);stroke-width:2px;"/>
                </g>
                <path d="M139.654,272.987C137.217,276.612 133.274,279.867 128.932,281.941C123.127,284.712 116.631,285.644 110.227,286.243C94.513,287.71 78.634,287.337 62.999,285.187C64.964,292.769 71.621,298.31 79.615,298.739C94.317,299.526 109.26,298.63 124.521,295.947C132.766,294.497 138.873,287.517 139.369,279.16C139.49,277.104 139.575,275.045 139.654,272.987Z" style="fill:rgb(72,62,117);fill-opacity:0.15;fill-rule:nonzero;"/>
                <path d="M139.368,279.16C140.582,258.688 139.659,238.09 136.617,217.809C135.42,209.825 128.961,203.69 120.95,202.687C105.094,200.701 89.797,201.559 75.193,204.822C67.583,206.522 61.878,212.91 61.152,220.674C59.202,241.529 59.758,262.194 62.562,283.044C63.727,291.71 70.882,298.271 79.614,298.739C94.316,299.526 109.259,298.63 124.52,295.947C132.765,294.497 138.872,287.517 139.368,279.16Z" style="fill:none;fill-rule:nonzero;stroke:rgb(72,62,117);stroke-width:2px;"/>
                <g>
                    <path d="M121.482,227.794C121.152,228.087 120.809,228.364 120.454,228.626C118.29,230.221 115.204,229.82 113.479,227.758C110.728,224.47 108.439,220.979 106.628,217.172C105.549,214.902 106.291,212.148 108.352,210.707C108.447,210.64 108.543,210.575 108.64,210.512C110.556,209.254 113.131,209.506 114.828,211.049C118.105,214.029 120.835,217.643 122.747,221.897C123.652,223.911 123.135,226.327 121.482,227.794Z" style="fill:rgb(255,204,112);fill-rule:nonzero;"/>
                    <path d="M107.658,219.161C109.235,222.107 111.104,224.872 113.276,227.5C116.249,225.25 119.221,223 122.195,220.75C120.719,217.785 118.836,215.15 116.645,212.84C113.585,214.854 110.588,216.962 107.658,219.161Z" style="fill:rgb(219,170,81);fill-rule:nonzero;"/>
                    <path d="M121.482,227.794C121.152,228.087 120.809,228.364 120.454,228.626C118.29,230.221 115.204,229.82 113.479,227.758C110.728,224.47 108.439,220.979 106.628,217.172C105.549,214.902 106.291,212.148 108.352,210.707C108.447,210.64 108.543,210.575 108.64,210.512C110.556,209.254 113.131,209.506 114.828,211.049C118.105,214.029 120.835,217.643 122.747,221.897C123.652,223.911 123.135,226.327 121.482,227.794Z" style="fill:none;fill-rule:nonzero;stroke:rgb(72,62,117);stroke-width:2px;"/>
                    <path d="M112.382,221.243C112.217,221.243 112.052,221.216 111.893,221.159C111.181,220.906 110.746,220.099 110.926,219.363C111.104,218.629 111.857,218.115 112.611,218.213C113.122,218.282 113.526,218.546 113.748,218.958C113.979,219.387 113.993,219.948 113.782,220.386C113.525,220.916 112.957,221.243 112.382,221.243Z" style="fill:rgb(255,204,112);fill-rule:nonzero;"/>
                    <path d="M118.031,222.265C117.866,222.265 117.701,222.238 117.542,222.181C116.829,221.926 116.395,221.119 116.575,220.384C116.753,219.651 117.51,219.136 118.259,219.234C118.771,219.303 119.175,219.567 119.396,219.979C119.628,220.408 119.641,220.969 119.43,221.408C119.174,221.938 118.606,222.265 118.031,222.265Z" style="fill:rgb(255,204,112);fill-rule:nonzero;"/>
                    <path d="M115.922,218.657C115.757,218.657 115.592,218.63 115.433,218.573C114.722,218.318 114.287,217.512 114.466,216.776C114.644,216.042 115.398,215.525 116.15,215.626C116.662,215.695 117.066,215.959 117.287,216.371C117.518,216.8 117.532,217.361 117.321,217.8C117.066,218.329 116.497,218.657 115.922,218.657Z" style="fill:rgb(255,204,112);fill-rule:nonzero;"/>
                    <path d="M114.359,224.536C114.195,224.536 114.03,224.509 113.872,224.453C113.159,224.198 112.725,223.392 112.904,222.656C113.083,221.919 113.837,221.404 114.59,221.506C115.101,221.575 115.504,221.839 115.726,222.25C115.957,222.679 115.971,223.24 115.76,223.679C115.503,224.208 114.934,224.536 114.359,224.536Z" style="fill:rgb(255,204,112);fill-rule:nonzero;"/>
                </g>
            </g>
        </g>
    </g>
</svg>
