<?xml version="1.0" encoding="UTF-8" standalone="no"?>
<!DOCTYPE svg PUBLIC "-//W3C//DTD SVG 1.1//EN" "http://www.w3.org/Graphics/SVG/1.1/DTD/svg11.dtd">
<svg width="100%" height="100%" viewBox="0 0 109 101" version="1.1" xmlns="http://www.w3.org/2000/svg" xmlns:xlink="http://www.w3.org/1999/xlink" xml:space="preserve" xmlns:serif="http://www.serif.com/" style="fill-rule:evenodd;clip-rule:evenodd;stroke-linecap:round;stroke-linejoin:round;stroke-miterlimit:10;">
    <g transform="matrix(1,0,0,1,-184.961,-199.986)">
        <path d="M220.581,299.621C236.128,301.454 251.911,301.3 267.418,299.158C278.786,297.589 287.983,289.014 290.049,277.726C292.887,262.215 293.599,247.149 292.506,232.429C291.611,220.371 282.545,210.439 270.627,208.397C253.138,205.401 235.882,205.269 219.118,207.601C206.516,209.355 197.008,219.841 196.279,232.544C195.471,246.611 195.707,261.086 197.37,276.113C198.728,288.382 208.323,298.175 220.581,299.621Z" style="fill:rgb(72,62,117);fill-opacity:0.15;fill-rule:nonzero;"/>
        <g>
            <path d="M257.549,294.158C242.042,296.3 226.259,296.454 210.712,294.621C198.454,293.175 188.859,283.382 187.501,271.113C185.838,256.086 185.602,241.611 186.41,227.544C187.139,214.841 196.647,204.355 209.249,202.601C226.013,200.269 243.269,200.401 260.758,203.397C272.676,205.439 281.742,215.371 282.637,227.429C283.73,242.149 283.018,257.215 280.18,272.726C278.114,284.014 268.917,292.589 257.549,294.158Z" style="fill:white;fill-rule:nonzero;"/>
            <g>
                <path d="M225.432,221.466C235.841,222.567 246.662,218.822 254.164,211.523" style="fill:none;fill-rule:nonzero;stroke:rgb(72,62,117);stroke-width:2px;"/>
                <path d="M225.306,217.681C233.187,216.722 240.752,213.316 246.695,208.052" style="fill:none;fill-rule:nonzero;stroke:rgb(72,62,117);stroke-width:2px;"/>
                <path d="M201.34,218.723C201.471,222.722 204.386,226.475 208.228,227.594C212.069,228.711 216.543,227.108 219.817,224.872C226.076,228.65 233.691,230.125 240.908,228.959C248.125,227.792 254.887,223.993 259.637,218.435" style="fill:none;fill-rule:nonzero;stroke:rgb(72,62,117);stroke-width:2px;"/>
            </g>
            <g>
                <g>
                    <path d="M213.013,274.924C211.54,273.395 209.084,272.905 207.144,273.768C205.203,274.631 203.919,276.793 204.107,278.908C204.295,281.024 205.95,282.932 208.021,283.401C210.093,283.87 212.417,282.853 213.464,281.005C214.512,279.157 214.448,276.415 213.013,274.924Z" style="fill:rgb(254,172,234);fill-rule:nonzero;"/>
                    <g>
                        <path d="M220.769,264.841C218.998,263.756 216.416,264.316 215.253,266.036C214.09,267.757 214.534,270.361 216.201,271.6C217.868,272.839 220.489,272.512 221.801,270.902C223.113,269.292 223.16,266.306 220.769,264.841Z" style="fill:rgb(72,62,117);fill-rule:nonzero;stroke:rgb(72,62,117);stroke-width:2px;"/>
                        <path d="M219.599,269.58C218.831,269.58 218.067,269.188 217.651,268.505C217.077,267.564 217.294,266.262 218.146,265.543C218.966,264.852 220.238,264.82 221.104,265.466C221.26,265.582 221.378,265.74 221.445,265.923C222.129,267.783 221.403,268.932 220.574,269.351C220.267,269.507 219.932,269.58 219.599,269.58Z" style="fill:white;fill-rule:nonzero;"/>
                    </g>
                </g>
                <g>
                    <path d="M259.362,274.924C260.835,273.395 263.29,272.905 265.231,273.768C267.172,274.631 268.455,276.793 268.267,278.908C268.08,281.024 266.424,282.932 264.353,283.401C262.282,283.87 259.958,282.853 258.91,281.005C257.863,279.157 257.926,276.415 259.362,274.924Z" style="fill:rgb(254,172,234);fill-rule:nonzero;"/>
                    <g>
                        <path d="M254.269,264.841C252.498,263.756 249.916,264.316 248.753,266.036C247.59,267.757 248.034,270.361 249.701,271.6C251.368,272.839 253.989,272.512 255.301,270.902C256.613,269.292 256.66,266.306 254.269,264.841Z" style="fill:rgb(72,62,117);fill-rule:nonzero;stroke:rgb(72,62,117);stroke-width:2px;"/>
                        <path d="M253.099,269.58C252.331,269.58 251.567,269.188 251.151,268.505C250.577,267.564 250.794,266.262 251.646,265.543C252.466,264.852 253.738,264.82 254.604,265.466C254.76,265.582 254.878,265.74 254.945,265.923C255.629,267.783 254.903,268.932 254.074,269.351C253.767,269.507 253.432,269.58 253.099,269.58Z" style="fill:white;fill-rule:nonzero;"/>
                    </g>
                </g>
                <g>
                    <path d="M228.922,269.2C229.83,263.721 226.928,257.816 222.034,255.19C217.14,252.563 210.615,253.407 206.551,257.192C202.486,260.978 201.182,267.427 203.454,272.494C205.727,277.562 211.41,280.877 216.94,280.359C222.47,279.843 227.859,275.616 228.922,269.2Z" style="fill:none;fill-rule:nonzero;stroke:rgb(72,62,117);stroke-width:2px;"/>
                    <path d="M242.293,268.158C241.385,262.679 244.287,256.775 249.181,254.148C254.075,251.521 260.6,252.366 264.664,256.151C268.729,259.936 270.033,266.385 267.761,271.453C265.488,276.521 259.806,279.836 254.275,279.318C248.745,278.801 243.356,274.574 242.293,268.158Z" style="fill:none;fill-rule:nonzero;stroke:rgb(72,62,117);stroke-width:2px;"/>
                    <path d="M228.604,263.633C230.644,261.988 233.247,261.042 235.869,261.029C238.2,261.017 240.523,261.742 242.454,263.044" style="fill:none;fill-rule:nonzero;stroke:rgb(72,62,117);stroke-width:2px;"/>
                </g>
                <path d="M234.404,274.76C235.165,273.896 235.98,272.994 237.075,272.64C238.171,272.285 239.612,272.73 239.925,273.838C240.17,274.709 239.632,275.639 238.904,276.178C239.831,275.915 240.938,275.837 241.653,276.484C242.342,277.107 242.389,278.249 241.905,279.042C241.421,279.836 240.518,280.303 239.602,280.461C238.686,280.62 237.746,280.508 236.827,280.372" style="fill:none;fill-rule:nonzero;stroke:rgb(72,62,117);stroke-width:2px;"/>
            </g>
            <path d="M237.49,285.122C221.411,286.443 205.324,283.395 189.718,279.158C193.464,287.462 201.293,293.51 210.712,294.621C226.259,296.454 242.042,296.3 257.549,294.158C268.917,292.589 278.114,284.014 280.18,272.726C280.635,270.239 281.016,267.767 281.363,265.303C270.367,277.379 253.866,283.776 237.49,285.122Z" style="fill:rgb(72,62,117);fill-opacity:0.15;fill-rule:nonzero;"/>
            <path d="M257.549,294.158C242.042,296.3 226.259,296.454 210.712,294.621C198.454,293.175 188.859,283.382 187.501,271.113C185.838,256.086 185.602,241.611 186.41,227.544C187.139,214.841 196.647,204.355 209.249,202.601C226.013,200.269 243.269,200.401 260.758,203.397C272.676,205.439 281.742,215.371 282.637,227.429C283.73,242.149 283.018,257.215 280.18,272.726C278.114,284.014 268.917,292.589 257.549,294.158Z" style="fill:none;fill-rule:nonzero;stroke:rgb(72,62,117);stroke-width:2px;"/>
        </g>
    </g>
</svg>
