<?xml version="1.0" encoding="UTF-8" standalone="no"?>
<!DOCTYPE svg PUBLIC "-//W3C//DTD SVG 1.1//EN" "http://www.w3.org/Graphics/SVG/1.1/DTD/svg11.dtd">
<svg width="100%" height="100%" viewBox="0 0 118 102" version="1.1" xmlns="http://www.w3.org/2000/svg" xmlns:xlink="http://www.w3.org/1999/xlink" xml:space="preserve" xmlns:serif="http://www.serif.com/" style="fill-rule:evenodd;clip-rule:evenodd;stroke-linecap:round;stroke-linejoin:round;stroke-miterlimit:10;">
    <g transform="matrix(1,0,0,1,-446.385,-354.656)">
        <path d="M558.795,374.798C554.665,374.784 550.545,375.426 546.535,376.541C545.319,369.114 539.494,363.217 531.999,361.805C516.296,358.847 500.975,358.763 486.197,361.121C479.949,362.118 474.763,366.275 472.387,371.924C468.584,370.355 464.62,369.231 460.565,368.744C455.881,368.181 452.758,373.502 455.51,377.333C459.615,383.049 464.17,388.435 469.087,393.468C467.76,408.373 467.687,423.311 468.777,438.417C469.408,447.139 476.145,454.127 484.832,455.131C499.458,456.821 514.428,456.846 529.824,455.107C538.143,454.168 544.668,447.576 545.678,439.265C547.342,425.555 548.019,411.73 547.752,397.923C553.081,393.63 558.112,388.968 562.757,383.942C565.96,380.479 563.514,374.815 558.795,374.798Z" style="fill:rgb(72,62,117);fill-opacity:0.15;fill-rule:nonzero;"/>
        <g>
            <g>
                <path d="M534.186,372.634C539.682,370.088 545.566,368.385 551.55,368.037C556.261,367.763 559.051,373.266 556.068,376.921C551.194,382.894 545.827,388.463 540.037,393.553L534.186,372.634Z" style="fill:white;fill-rule:nonzero;"/>
                <path d="M534.186,372.634C539.682,370.088 545.566,368.385 551.55,368.037C556.261,367.763 559.051,373.266 556.068,376.921C551.194,382.894 545.827,388.463 540.037,393.553L534.186,372.634Z" style="fill:none;fill-rule:nonzero;stroke:rgb(72,62,117);stroke-width:2px;"/>
            </g>
            <g>
                <path d="M470.5,372.634C465.004,370.088 459.12,368.385 453.135,368.037C448.425,367.763 445.635,373.266 448.618,376.921C453.492,382.894 458.859,388.463 464.648,393.553L470.5,372.634Z" style="fill:white;fill-rule:nonzero;"/>
                <path d="M470.5,372.634C465.004,370.088 459.12,368.385 453.135,368.037C448.425,367.763 445.635,373.266 448.618,376.921C453.492,382.894 458.859,388.463 464.648,393.553L470.5,372.634Z" style="fill:none;fill-rule:nonzero;stroke:rgb(72,62,117);stroke-width:2px;"/>
            </g>
            <g>
                <path d="M542.425,433.189C543.639,412.717 542.716,392.12 539.674,371.838C538.477,363.854 532.018,357.72 524.006,356.716C508.151,354.73 492.854,355.588 478.249,358.851C470.64,360.551 464.935,366.94 464.209,374.703C462.259,395.559 462.815,416.223 465.618,437.073C466.784,445.74 473.939,452.3 482.671,452.768C497.373,453.555 512.316,452.659 527.576,449.976C535.822,448.527 541.929,441.546 542.425,433.189Z" style="fill:white;fill-rule:nonzero;"/>
                <path d="M506.726,373.723C507.608,375.456 508.867,377.069 510.589,377.971C512.313,378.873 514.555,378.94 516.124,377.79C517.694,376.641 518.254,374.17 517.044,372.647C518.246,374.332 520.596,375.09 522.559,374.435C524.522,373.779 525.943,371.768 525.915,369.699C525.889,367.629 524.424,365.66 522.454,365.028" style="fill:none;fill-rule:nonzero;stroke:rgb(72,62,117);stroke-width:2px;"/>
                <g>
                    <g>
                        <path d="M484.098,430.166C482.859,429.087 480.763,429.201 479.65,430.409C478.536,431.617 478.591,433.716 479.768,434.863C480.944,436.01 483.042,436.014 484.223,434.87C485.403,433.726 485.607,431.48 484.098,430.166Z" style="fill:rgb(254,172,234);fill-rule:nonzero;"/>
                        <g>
                            <path d="M489.571,419.809C487.571,418.769 484.834,419.473 483.601,421.36C482.369,423.247 482.838,426.053 484.629,427.421C486.421,428.788 489.268,428.491 490.721,426.768C492.175,425.043 492.561,421.365 489.571,419.809Z" style="fill:rgb(72,62,117);fill-rule:nonzero;stroke:rgb(72,62,117);stroke-width:2px;"/>
                            <path d="M480.296,418.164C480.76,419.875 481.929,421.382 483.471,422.257" style="fill:none;fill-rule:nonzero;stroke:rgb(72,62,117);stroke-width:2px;"/>
                            <path d="M483.797,416.324C484.141,417.758 484.767,419.122 485.629,420.318" style="fill:none;fill-rule:nonzero;stroke:rgb(72,62,117);stroke-width:2px;"/>
                            <path d="M485.955,425.297C485.426,425.297 484.895,425.125 484.472,424.773C483.552,424.013 483.364,422.601 484.051,421.627C484.74,420.649 486.134,420.355 487.159,420.966C487.793,421.344 488.192,421.933 488.285,422.626C488.379,423.334 488.134,424.089 487.644,424.596C487.197,425.06 486.576,425.297 485.955,425.297Z" style="fill:white;fill-rule:nonzero;"/>
                        </g>
                    </g>
                    <g>
                        <path d="M529.295,429.021C530.534,427.942 532.63,428.056 533.744,429.264C534.857,430.472 534.802,432.571 533.626,433.718C532.449,434.866 530.351,434.869 529.171,433.725C527.99,432.582 527.786,430.336 529.295,429.021Z" style="fill:rgb(254,172,234);fill-rule:nonzero;"/>
                        <g>
                            <path d="M522.406,417.717C524.406,416.677 527.143,417.381 528.376,419.268C529.607,421.155 529.139,423.961 527.347,425.329C525.556,426.696 522.709,426.399 521.256,424.676C519.802,422.953 519.416,419.273 522.406,417.717Z" style="fill:rgb(72,62,117);fill-rule:nonzero;stroke:rgb(72,62,117);stroke-width:2px;"/>
                            <path d="M531.681,416.072C531.217,417.783 530.047,419.29 528.506,420.165" style="fill:none;fill-rule:nonzero;stroke:rgb(72,62,117);stroke-width:2px;"/>
                            <path d="M528.18,414.232C527.836,415.666 527.21,417.031 526.349,418.226" style="fill:none;fill-rule:nonzero;stroke:rgb(72,62,117);stroke-width:2px;"/>
                            <path d="M523.294,423.259C522.672,423.259 522.052,423.022 521.605,422.557C521.116,422.051 520.871,421.297 520.964,420.589C521.057,419.897 521.456,419.307 522.089,418.929L522.09,418.928C523.116,418.317 524.508,418.615 525.197,419.589C525.884,420.564 525.695,421.976 524.776,422.737C524.352,423.087 523.823,423.259 523.294,423.259Z" style="fill:white;fill-rule:nonzero;"/>
                        </g>
                    </g>
                    <g>
                        <path d="M510.564,419.349C507.933,417.76 504.307,418.037 501.947,420.005C499.587,421.974 498.666,425.492 499.756,428.365C500.848,431.238 503.873,433.256 506.945,433.162C510.016,433.068 512.912,430.868 513.824,427.933C514.737,424.997 513.771,421.286 510.564,419.349Z" style="fill:rgb(72,62,117);fill-rule:nonzero;"/>
                        <path d="M514.016,427.08C508.169,425.183 502.594,427.092 499.777,428.408C500.883,431.257 503.89,433.256 506.946,433.162C510.017,433.068 512.913,430.868 513.825,427.933C513.91,427.657 513.963,427.368 514.016,427.08Z" style="fill:rgb(244,143,184);fill-rule:nonzero;stroke:rgb(244,143,184);stroke-width:2px;"/>
                        <path d="M510.564,419.349C507.933,417.76 504.307,418.037 501.947,420.005C499.587,421.974 498.666,425.492 499.756,428.365C500.848,431.238 503.873,433.256 506.945,433.162C510.016,433.068 512.912,430.868 513.824,427.933C514.737,424.997 513.771,421.286 510.564,419.349Z" style="fill:none;fill-rule:nonzero;stroke:rgb(72,62,117);stroke-width:2px;"/>
                    </g>
                </g>
                <path d="M542.589,429.638C540.151,432.635 536.731,435.278 533.014,437.052C527.209,439.823 520.713,440.756 514.309,441.354C498.341,442.844 482.201,442.436 466.321,440.193C468.584,447.273 475.022,452.358 482.671,452.768C497.373,453.555 512.316,452.659 527.576,449.976C535.822,448.527 541.929,441.546 542.425,433.189C542.495,432.007 542.533,430.822 542.589,429.638Z" style="fill:rgb(72,62,117);fill-opacity:0.15;fill-rule:nonzero;"/>
                <path d="M542.425,433.189C543.639,412.717 542.716,392.12 539.674,371.838C538.477,363.854 532.018,357.72 524.006,356.716C508.151,354.73 492.854,355.588 478.249,358.851C470.64,360.551 464.935,366.94 464.209,374.703C462.259,395.559 462.815,416.223 465.618,437.073C466.784,445.74 473.939,452.3 482.671,452.768C497.373,453.555 512.316,452.659 527.576,449.976C535.822,448.527 541.929,441.546 542.425,433.189Z" style="fill:none;fill-rule:nonzero;stroke:rgb(72,62,117);stroke-width:2px;"/>
            </g>
        </g>
    </g>
</svg>
