<?xml version="1.0" encoding="UTF-8" standalone="no"?>
<!DOCTYPE svg PUBLIC "-//W3C//DTD SVG 1.1//EN" "http://www.w3.org/Graphics/SVG/1.1/DTD/svg11.dtd">
<svg width="100%" height="100%" viewBox="0 0 105 100" version="1.1" xmlns="http://www.w3.org/2000/svg" xmlns:xlink="http://www.w3.org/1999/xlink" xml:space="preserve" xmlns:serif="http://www.serif.com/" style="fill-rule:evenodd;clip-rule:evenodd;stroke-linecap:round;stroke-linejoin:round;stroke-miterlimit:10;">
    <g transform="matrix(1,0,0,1,-48.8081,-351.587)">
        <path d="M126.503,355.958C108.812,354.608 91.618,356.087 75.146,359.974C62.762,362.896 54.275,374.225 54.734,386.94C55.243,401.02 56.829,415.411 59.888,430.216C62.385,442.305 72.853,451.16 85.193,451.455C100.842,451.829 116.542,450.201 131.782,446.621C142.954,443.998 151.31,434.601 152.313,423.169C153.69,407.461 152.992,392.395 150.531,377.841C148.514,365.921 138.559,356.879 126.503,355.958Z" style="fill:rgb(72,62,117);fill-opacity:0.15;fill-rule:nonzero;"/>
        <g>
            <path d="M121.397,445.759C105.889,447.9 90.106,448.055 74.56,446.222C62.301,444.776 52.706,434.982 51.348,422.713C49.685,407.687 49.449,393.211 50.257,379.145C50.987,366.442 60.494,355.955 73.097,354.202C89.86,351.87 107.117,352.002 124.605,354.998C136.523,357.04 145.59,366.972 146.485,379.03C147.577,393.75 146.865,408.815 144.028,424.326C141.962,435.615 132.765,444.19 121.397,445.759Z" style="fill:white;fill-rule:nonzero;"/>
            <path d="M60.722,379.538C67.983,379.14 74.438,372.785 74.951,365.53C75.976,369.8 80.928,372.39 85.243,371.579C89.559,370.768 93.002,367.198 94.571,363.097C94.014,366.306 96.532,369.513 99.654,370.439C102.776,371.366 106.215,370.385 108.932,368.589C111.649,366.793 113.778,364.257 115.867,361.758C114.697,365.079 117.145,368.853 120.409,370.176C123.672,371.498 127.4,370.908 130.743,369.802C129.083,372.217 128.847,375.538 130.146,378.164C131.446,380.79 134.229,382.616 137.156,382.763" style="fill:none;fill-rule:nonzero;stroke:rgb(72,62,117);stroke-width:2px;"/>
            <g>
                <g>
                    <path d="M75.781,418.036C74.318,417.522 72.688,417.34 71.218,417.835C69.749,418.331 68.488,419.598 68.286,421.136C68.085,422.671 68.993,424.237 70.338,425.004C71.683,425.771 73.377,425.795 74.831,425.263C76.257,424.74 77.538,423.622 77.909,422.149C78.281,420.677 77.604,418.677 75.781,418.036Z" style="fill:rgb(254,172,234);fill-rule:nonzero;"/>
                    <path d="M74.606,414.56C75.609,412.398 77.836,410.857 80.213,410.679C82.591,410.501 85.022,411.696 86.335,413.685" style="fill:none;fill-rule:nonzero;stroke:rgb(72,62,117);stroke-width:2px;"/>
                </g>
                <g>
                    <path d="M123.373,419.548C124.726,418.789 126.299,418.326 127.832,418.561C129.366,418.795 130.827,419.824 131.291,421.304C131.755,422.781 131.131,424.481 129.939,425.469C128.748,426.458 127.083,426.774 125.56,426.501C124.064,426.234 122.609,425.354 121.989,423.968C121.369,422.581 121.688,420.494 123.373,419.548Z" style="fill:rgb(254,172,234);fill-rule:nonzero;"/>
                    <g>
                        <path d="M119.535,410.871C117.671,408.816 114.159,408.553 112.009,410.307C109.858,412.06 109.41,415.554 111.049,417.793C112.687,420.032 116.152,420.664 118.474,419.145C120.797,417.627 122.171,413.776 119.535,410.871Z" style="fill:rgb(72,62,117);fill-rule:nonzero;stroke:rgb(72,62,117);stroke-width:2px;"/>
                        <path d="M115.843,415.49C115.381,415.49 114.918,415.383 114.497,415.157C113.195,414.459 112.611,412.787 113.193,411.43C113.776,410.072 115.39,409.346 116.794,409.809C117.693,410.106 118.347,410.727 118.637,411.557C118.933,412.407 118.81,413.438 118.322,414.182C117.775,415.019 116.812,415.49 115.843,415.49Z" style="fill:white;fill-rule:nonzero;"/>
                    </g>
                </g>
                <path d="M92.468,416.437C93.496,418.402 95.701,419.689 97.917,419.619C100.134,419.548 102.253,418.124 103.154,416.097" style="fill:none;fill-rule:nonzero;stroke:rgb(72,62,117);stroke-width:2px;"/>
            </g>
            <path d="M74.56,446.222C90.106,448.055 105.889,447.9 121.397,445.759C132.765,444.19 141.962,435.615 144.028,424.326C144.217,423.294 144.372,422.27 144.541,421.242C133.723,430.967 118.992,436.219 104.352,437.423C87.213,438.831 70.064,435.277 53.499,430.605C57.217,438.987 65.083,445.104 74.56,446.222Z" style="fill:rgb(72,62,117);fill-opacity:0.15;fill-rule:nonzero;"/>
            <path d="M121.397,445.759C105.889,447.9 90.106,448.055 74.56,446.222C62.301,444.776 52.706,434.982 51.348,422.713C49.685,407.687 49.449,393.211 50.257,379.145C50.987,366.442 60.494,355.955 73.097,354.202C89.86,351.87 107.117,352.002 124.605,354.998C136.523,357.04 145.59,366.972 146.485,379.03C147.577,393.75 146.865,408.815 144.028,424.326C141.962,435.615 132.765,444.19 121.397,445.759Z" style="fill:none;fill-rule:nonzero;stroke:rgb(72,62,117);stroke-width:2px;"/>
            <g>
                <g>
                    <path d="M94.424,431.273C91.736,428.279 87.916,426.148 83.452,425.386C81.034,424.974 78.751,426.529 78.434,428.735C78.004,431.731 78.306,434.829 79.385,437.792C80.016,439.523 81.921,440.646 83.922,440.42C87.553,440.012 91.069,438.751 94.002,436.769L94.424,431.273Z" style="fill:rgb(214,194,253);fill-rule:nonzero;"/>
                    <path d="M89.069,431.52C88.353,431.316 87.615,431.187 86.872,431.135" style="fill:none;fill-rule:nonzero;stroke:rgb(72,62,117);stroke-width:2px;"/>
                    <path d="M89.371,434.924C88.463,434.943 87.556,434.962 86.649,434.981" style="fill:none;fill-rule:nonzero;stroke:rgb(72,62,117);stroke-width:2px;"/>
                    <path d="M94.424,431.273C91.736,428.279 87.916,426.148 83.452,425.386C81.034,424.974 78.751,426.529 78.434,428.735C78.004,431.731 78.306,434.829 79.385,437.792C80.016,439.523 81.921,440.646 83.922,440.42C87.553,440.012 91.069,438.751 94.002,436.769L94.424,431.273Z" style="fill:none;fill-rule:nonzero;stroke:rgb(72,62,117);stroke-width:2px;"/>
                </g>
                <g>
                    <path d="M100.621,431.273C103.31,428.279 107.129,426.148 111.594,425.386C114.011,424.974 116.294,426.529 116.611,428.735C117.041,431.731 116.739,434.829 115.66,437.792C115.029,439.523 113.124,440.646 111.124,440.42C107.493,440.012 103.976,438.751 101.043,436.769L100.621,431.273Z" style="fill:rgb(214,194,253);fill-rule:nonzero;"/>
                    <path d="M105.977,431.52C106.693,431.316 107.431,431.187 108.173,431.135" style="fill:none;fill-rule:nonzero;stroke:rgb(72,62,117);stroke-width:2px;"/>
                    <path d="M105.675,434.924C106.582,434.943 107.489,434.962 108.397,434.981" style="fill:none;fill-rule:nonzero;stroke:rgb(72,62,117);stroke-width:2px;"/>
                    <path d="M100.621,431.273C103.31,428.279 107.129,426.148 111.594,425.386C114.011,424.974 116.294,426.529 116.611,428.735C117.041,431.731 116.739,434.829 115.66,437.792C115.029,439.523 113.124,440.646 111.124,440.42C107.493,440.012 103.976,438.751 101.043,436.769L100.621,431.273Z" style="fill:none;fill-rule:nonzero;stroke:rgb(72,62,117);stroke-width:2px;"/>
                </g>
                <g>
                    <path d="M101.128,430.52C99.531,429.208 97.089,429.045 95.332,430.135C93.576,431.224 92.635,433.484 93.1,435.498C93.566,437.511 95.402,439.129 97.458,439.338C99.514,439.547 101.638,438.33 102.498,436.451C103.358,434.572 102.993,432.051 101.128,430.52Z" style="fill:rgb(214,194,253);fill-rule:nonzero;"/>
                    <path d="M101.128,430.52C99.531,429.208 97.089,429.045 95.332,430.135C93.576,431.224 92.635,433.484 93.1,435.498C93.566,437.511 95.402,439.129 97.458,439.338C99.514,439.547 101.638,438.33 102.498,436.451C103.358,434.572 102.993,432.051 101.128,430.52Z" style="fill:none;fill-rule:nonzero;stroke:rgb(72,62,117);stroke-width:2px;"/>
                </g>
            </g>
        </g>
    </g>
</svg>
