<?xml version="1.0" encoding="utf-8"?>
<!-- Generator: Adobe Illustrator 22.1.0, SVG Export Plug-In . SVG Version: 6.00 Build 0)  -->
<svg version="1.1" id="Layer_1" xmlns="http://www.w3.org/2000/svg" xmlns:xlink="http://www.w3.org/1999/xlink" x="0px" y="0px"
	 viewBox="0 0 500 500" style="enable-background:new 0 0 500 500;" xml:space="preserve">
<style type="text/css">
	.st0{fill:#A9E56B;}
	.st1{fill:#F6F039;}
	.st2{fill:#F266B9;}
</style>
<g>
	<path class="st0" d="M255.1,303.8c32.7,14.4,47.6,52.7,33.2,85.3l40.6,17.9c24.2-55-0.8-119.5-55.9-143.8
		c-55-24.2-119.5,0.8-143.8,55.9l40.6,17.9C184.1,304.3,222.4,289.4,255.1,303.8z"/>
	<path class="st1" d="M296.7,209.4c-84.7-37.3-184,1.3-221.3,86l42.3,18.6c27-61.4,99-89.4,160.5-62.4s89.4,99,62.4,160.5l42.3,18.6
		C420,346,381.4,246.7,296.7,209.4z"/>
	<path class="st2" d="M63.7,290.3L63.7,290.3c40.1-91.1,146.9-132.6,238-92.5c91.1,40.1,132.6,146.9,92.5,238l0,0L438,455
		c50.7-115.2-1.7-250.3-117-301c-115.2-50.7-250.3,1.7-301,117L63.7,290.3z"/>
	<path d="M14.9,282.6l47.7,21c1.3,0.6,2.7,0.9,4.1,1c1,0.9,2.2,1.7,3.5,2.3l44.8,19.7c1.6,0.7,3.3,1.1,4.9,1.1
		c1.1,1.2,2.5,2.2,4.1,2.9l40.6,17.9c6.4,2.8,13.9-0.1,16.7-6.5c11.6-26.3,42.4-38.2,68.6-26.7c26.3,11.6,38.2,42.4,26.7,68.6
		c-2.8,6.4,0.1,13.9,6.5,16.7l40.6,17.9c1.6,0.7,3.3,1.1,4.9,1.1c0,0,0,0,0,0c1.1,1.2,2.5,2.2,4.1,2.9l44.8,19.7
		c1.3,0.6,2.7,0.9,4.1,1c1,0.9,2.2,1.7,3.5,2.3l47.7,21c6.4,2.8,13.9-0.1,16.7-6.5c53.5-121.6-1.8-264.1-123.5-317.7
		C204.5,88.9,62,144.3,8.4,265.9C5.6,272.3,8.5,279.8,14.9,282.6z M64.3,301.6C64.3,301.6,64.3,301.6,64.3,301.6
		C64.3,301.6,64.3,301.6,64.3,301.6z M117.1,322.9c0,0.1,0.1,0.2,0.1,0.4C117.2,323.2,117.2,323.1,117.1,322.9z M118.7,326.2
		c0.1,0.1,0.1,0.2,0.2,0.3C118.9,326.4,118.8,326.3,118.7,326.2z M288.3,389.1c14.4-32.7-0.5-71-33.2-85.3
		c-32.7-14.4-71,0.5-85.3,33.2l-40.6-17.9c24.2-55,88.7-80.1,143.8-55.9c55,24.2,80.1,88.7,55.9,143.8L288.3,389.1z M330.3,419.6
		c0.1,0,0.3,0,0.4-0.1C330.5,419.5,330.4,419.6,330.3,419.6z M332.3,419.2C332.3,419.2,332.3,419.2,332.3,419.2
		C332.3,419.2,332.3,419.2,332.3,419.2z M333.8,418.6c0.1-0.1,0.3-0.1,0.4-0.2C334,418.5,333.9,418.6,333.8,418.6z M340.4,412.1
		c27-61.4-0.9-133.4-62.4-160.5s-133.4,0.9-160.5,62.4l-42.3-18.6c37.3-84.7,136.6-123.3,221.3-86c84.7,37.3,123.3,136.6,86,221.3
		L340.4,412.1z M335.6,417.7C335.6,417.7,335.6,417.7,335.6,417.7C335.6,417.7,335.6,417.7,335.6,417.7z M336.9,416.7
		c0.1-0.1,0.2-0.2,0.3-0.3C337.1,416.6,337,416.7,336.9,416.7z M338.4,415.3C338.4,415.3,338.4,415.3,338.4,415.3
		C338.4,415.3,338.4,415.3,338.4,415.3z M339.4,414c0.1-0.1,0.2-0.2,0.2-0.4C339.5,413.7,339.5,413.9,339.4,414z M116.5,319.7
		c0-0.1,0-0.3,0-0.4C116.5,319.5,116.5,319.6,116.5,319.7z M116.9,316c0-0.1,0.1-0.3,0.1-0.4C117,315.8,116.9,315.9,116.9,316z
		 M385.5,443C385.5,443,385.5,443,385.5,443C385.5,443,385.5,443,385.5,443z M321,154.1c115.2,50.7,167.7,185.7,117,301l-43.7-19.2
		l0,0c40.1-91.1-1.4-197.9-92.5-238c-91.1-40.1-197.9,1.4-238,92.5v0L20,271C70.8,155.8,205.8,103.3,321,154.1z M389,441.7
		c0.1,0,0.1-0.1,0.2-0.1C389.1,441.6,389,441.6,389,441.7z M390.6,440.6c0.1-0.1,0.1-0.1,0.2-0.2
		C390.7,440.5,390.7,440.5,390.6,440.6z M392,439.3c0-0.1,0.1-0.1,0.1-0.2C392.1,439.2,392,439.2,392,439.3z M393.2,437.7
		c0.1-0.1,0.1-0.2,0.2-0.3C393.3,437.5,393.3,437.6,393.2,437.7z M63,298.2c0-0.1,0-0.1,0-0.2C63,298,63,298.1,63,298.2z
		 M62.7,296.2c0-0.1,0-0.2,0-0.2C62.7,296,62.7,296.1,62.7,296.2z M62.7,294.3c0-0.1,0-0.1,0-0.2C62.7,294.2,62.7,294.3,62.7,294.3z
		 M63,292.4c0-0.1,0.1-0.2,0.1-0.4C63.1,292.1,63.1,292.3,63,292.4z"/>
</g>
</svg>
