<?xml version='1.0' encoding='utf-8'?>
<svg xmlns="http://www.w3.org/2000/svg" version="1.1" viewBox="-70.46000000000001 -129.928 763.926 746.481" width="763.926" height="746.481">
  <g>
    <g>
      <path style="fill:#AE71E2;" d="M643.804,263.996c-2.323-1.064-5.337-0.692-7.332,0.908c-1.993,1.599-3.009,4.462-2.472,6.961     c0.012,0.057,0.018,0.116,0.028,0.173c1.373,0.599,2.644,1.438,3.725,2.511c0.799,0.794,1.47,1.693,2.012,2.661     c1.725-0.74,3.59-1.146,5.466-1.195c0.212-2.328,1.122-4.613,2.617-6.446C647.55,267.218,645.951,264.982,643.804,263.996z" />
      <path style="fill:#D999FF;" d="M601.149,281.199c-1.512,0.993-2.539,2.708-2.724,4.507c1.061-0.464,2.177-0.824,3.376-1.041     c6.164-1.118,11.083,2.548,12.275,6.739c0.787,2.763,0.18,5.921-1.666,8.662c-0.181,0.268-0.368,0.526-0.562,0.777     c0.991,0.714,1.853,1.602,2.551,2.614c2.621-1.431,5.606-2.181,8.591-2.181h0.034c-0.279-2.592,0.071-5.18,1.068-7.485     c1.769-4.094,5.561-6.999,9.693-7.654c1-2.086,0.597-4.925-1.038-6.549c-1.815-1.803-5.115-2.085-7.209-0.618     c-1.187,0.83-2.757,0.857-3.971,0.07c-1.215-0.788-1.829-2.234-1.554-3.655c0.239-1.228-0.23-2.651-1.252-3.804     c-1.023-1.153-2.383-1.785-3.628-1.698c-1.248,0.09-2.5,0.912-3.347,2.199c-0.847,1.288-1.108,2.763-0.695,3.946     c0.448,1.289,0.119,2.721-0.849,3.684s-2.403,1.286-3.689,0.831C604.786,279.92,602.717,280.17,601.149,281.199z" />
      <path style="fill:#D999FF;" d="M614.623,262.799c3.438-0.246,6.972,1.274,9.452,4.069c1.123,1.267,1.962,2.717,2.481,4.241     c0.074-0.012,0.147-0.019,0.221-0.03c-0.178-4.429,1.778-8.929,5.25-11.715c4.035-3.239,9.89-3.982,14.612-1.875     c0.228-1.227-0.133-2.64-0.995-3.471c-1.157-1.113-3.331-1.291-4.652-0.379c-1.003,0.693-2.292,0.823-3.413,0.345     c-1.12-0.479-1.918-1.498-2.112-2.702c-0.276-1.711-1.364-3.353-2.985-4.505c-1.621-1.152-3.528-1.639-5.236-1.336     c-1.707,0.302-3.331,1.417-4.457,3.055c-1.126,1.64-1.582,3.556-1.252,5.257c0.232,1.199-0.167,2.434-1.059,3.269     c-0.891,0.835-2.148,1.152-3.33,0.843c-1.988-0.522-5.755-1.162-8.644,0.421c-1.715,0.94-2.853,2.838-2.801,4.442     c1.184,0.585,2.3,1.305,3.316,2.151C610.696,263.68,612.632,262.942,614.623,262.799z" />
      <path style="fill:#AE71E2;" d="M595.253,268.487c-3.101,1.039-5.524,3.877-6.255,7.062c0.613,0.244,1.206,0.542,1.77,0.9     c1.111,0.704,2.024,1.547,2.785,2.479c0.97-1.441,2.221-2.698,3.699-3.668c2.007-1.316,4.33-2.044,6.686-2.149     c0.137-0.884,0.376-1.763,0.713-2.618C602.145,268.292,598.418,267.424,595.253,268.487z" />
      <path style="fill:#D999FF;" d="M576.397,302.355c-1.196-0.505-2.741-0.399-4.133,0.283c-1.391,0.683-2.42,1.839-2.753,3.094     c-0.333,1.255-0.012,2.769,0.859,4.051c0.87,1.283,2.16,2.14,3.448,2.294c0.393,0.047,0.761,0.159,1.099,0.319     c11.04-3.023,22.707-3.606,34.093-1.753c0.294-1.001,0.173-2.163-0.365-3.034c-0.667-1.077-2.017-1.79-3.28-1.743     c-1.513,0.078-2.919-0.856-3.463-2.282c-0.544-1.426-0.116-3.04,1.063-4.01c1.396-1.146,2.713-2.23,3.554-3.476     c0.654-0.972,0.932-2.025,0.726-2.749c-0.341-1.198-2.371-2.021-4.178-1.694c-2.394,0.433-4.637,2.15-7.11,4.18     c-1.056,0.866-2.514,1.051-3.752,0.476c-1.237-0.576-2.036-1.812-2.053-3.177c-0.054-4.319-0.474-8.967-3.186-10.685     c-1.31-0.832-2.841-0.561-3.636-0.326c-1.832,0.541-3.495,1.933-4.237,3.545c-1.746,3.793-0.276,8.433,1.682,11.509     c0.835,1.312,0.72,3.013-0.284,4.2C579.488,302.564,577.829,302.96,576.397,302.355z" />
      <path style="fill:#AE71E2;" d="M664.684,268.083c2.284,1.792,3.895,4.404,4.631,7.27c1.464-0.229,2.985-0.156,4.442,0.221     c0.132-0.093,0.27-0.18,0.419-0.255c0.874-0.445,1.592-1.381,1.924-2.507c0.331-1.126,0.234-2.304-0.26-3.15     c-0.495-0.846-1.473-1.508-2.617-1.773c-1.143-0.265-2.313-0.098-3.128,0.445c-1.444,0.963-3.371,0.741-4.558-0.523     c-1.188-1.265-1.288-3.201-0.238-4.581c0.703-0.926,0.464-2.7-0.511-3.797c-1.134-1.276-3.164-1.999-5.427-1.953     c-1.903,0.044-3.845,0.578-5.724,1.255c-0.224,1.215-0.657,2.394-1.305,3.48c0.77,1.085,1.394,2.273,1.846,3.524     C657.75,264.952,661.706,265.746,664.684,268.083z" />
      <path style="fill:#D999FF;" d="M641.404,284.368c-0.054,1.029-0.225,2.051-0.518,3.04c1.202,0.679,2.269,1.573,3.135,2.622     c2.404-1.611,5.359-2.39,8.299-2.012c4.673,0.6,8.642,4.044,10.036,8.475c3.103-1.036,6.271-1.889,9.491-2.547     c0.099-0.121,0.204-0.238,0.32-0.347c1.805-1.693,2.903-3.844,3.012-5.9c0.105-1.988-0.845-3.998-2.31-4.886     c-1.33-0.807-3.285-0.622-4.186,0.394c-1.063,1.201-2.8,1.541-4.237,0.828c-1.436-0.712-2.218-2.3-1.905-3.874     c0.479-2.41-0.443-5.079-2.24-6.489c-1.752-1.374-4.466-1.521-6.181-0.336c-1.627,1.127-2.335,3.66-1.485,5.317     c0.673,1.312,0.465,2.905-0.524,4.001c-0.988,1.095-2.552,1.465-3.927,0.928C646.004,282.733,643.346,283.055,641.404,284.368z" />
      <path style="fill:#AE71E2;" d="M626.748,309.093c-3.433-1.395-7.711-0.689-10.546,1.697c-0.049,0.439-0.122,0.874-0.224,1.304     c4.677,1.188,9.274,2.789,13.721,4.818c7.533-7.648,16.364-13.681,25.993-17.864c-0.426-1.972-2.284-3.729-4.278-3.985     c-2.086-0.27-4.451,1.091-5.27,3.031c-0.665,1.579-2.366,2.457-4.038,2.088c-1.674-0.369-2.844-1.882-2.783-3.594     c0.059-1.65-1.697-3.379-3.546-3.49c-2.025-0.127-4.248,1.388-5.166,3.512c-0.942,2.179-0.711,5.059,0.605,7.516     c0.707,1.32,0.509,2.94-0.491,4.052C629.724,309.29,628.133,309.656,626.748,309.093z" />
      <path style="fill:#E9EDFF;" d="M664.71,353.5c-1.9,10.42-3.56,20.88-4.98,31.37c-1.42,10.49-2.59,20.99-3.51,31.51     c-0.53,6.05-7.09,9.21-12.54,10.07c-1.7,0.27-3.45,0.25-5.16-0.04c-3.54-0.58-6.92-2.28-9.41-4.83     c-16.53-33.87-36.85-67.35-60.46-99.57c3.73-1.54,7.59-2.74,11.52-3.61c16.13-3.59,33.48-1.58,48.74,6     c0.44,0.22,0.9,0.34,1.36,0.37C643.91,331.08,656.05,341.21,664.71,353.5z" />
      <path style="fill:#E9EDFF;" d="M657.524,439.209c-1.998,1.634-4.368,2.867-6.974,3.678c-0.955,2.983-2.057,5.923-3.302,8.802     c0.033,0.027,0.069,0.052,0.101,0.081c3.314,2.999,7.774,4.862,12.235,5.114c2.176,0.122,4.853-0.295,5.843-1.832     c0.731-1.136,0.666-3.162-0.186-5.707c-1.365-4.08-3.749-7.883-6.816-10.931C658.134,438.688,657.836,438.954,657.524,439.209z" />
      <path style="fill:#E9EDFF;" d="M665.902,347.17c3.033-15.76,6.612-31.409,10.744-46.878c-15.762,2.473-30.352,9.962-41.739,21.46     C646.876,327.788,657.626,336.611,665.902,347.17z" />
      <path style="fill:#D999FF;" d="M656.35,428.82c-0.6,1.84-1.74,3.59-3.32,4.89c-3.18,2.61-7.95,3.7-13.1,3     c-0.05-0.01-0.09-0.01-0.14-0.02c-3.26-0.46-5.71-1.49-7.29-3.08c-0.6-0.6-1.05-1.32-1.34-2.06c2.68,1.22,5.57,1.96,8.51,2.14     c0.5,0.04,1,0.06,1.5,0.06c1.21,0,2.42-0.09,3.62-0.28C648.65,432.86,652.89,431.35,656.35,428.82z" />
      <path style="fill:#AE71E2;" d="M572.099,295.222c-1.121-3.667-1.187-7.372-0.158-10.686c-0.674-0.969-2.068-1.594-3.318-1.418     c-1.555,0.223-3.059,1.585-3.576,3.24c-0.546,1.744-0.153,3.858,1.026,5.52c0.801,1.127,0.874,2.617,0.187,3.819     c-0.686,1.2-2.002,1.894-3.386,1.774c-1.887-0.159-3.945,0.999-4.783,2.697c-0.839,1.699-0.509,4.037,0.767,5.437     c0.845,0.928,2.137,1.476,3.427,1.548c-0.036-1.095,0.08-2.186,0.36-3.243c0.866-3.262,3.232-6.05,6.492-7.649     C570.098,295.789,571.094,295.443,572.099,295.222z" />
      <path style="fill:#E9EDFF;" d="M645.21,443.91c-1.56,4.42-3.46,8.73-5.68,12.85c-0.84,1.11-1.79,2.09-2.86,2.91     c-1.53,1.2-3.29,2.09-5.25,2.64c-3.34,0.94-7.02,0.8-10.33-0.33l9.19-21.13c2.33,1.44,5.18,2.41,8.52,2.88     c0.4,0.06,0.8,0.1,1.2,0.14c0.98,0.1,1.94,0.15,2.89,0.15C643.67,444.02,644.45,443.98,645.21,443.91z" />
      <path style="fill:#D999FF;" d="M575.822,278.41c1.556-1.41,3.44-2.491,5.495-3.098c0.177-0.053,0.355-0.099,0.53-0.144     c0.919-6.052,5.279-11.449,11.149-13.417c1.861-0.623,3.808-0.878,5.74-0.802c0.12-0.758,0.317-1.509,0.589-2.241     c-0.094-0.143-0.182-0.293-0.256-0.453c-0.837-1.82-2.895-3.093-4.901-3.016c-2.002,0.072-3.967,1.486-4.67,3.362     c-0.521,1.387-1.846,2.305-3.325,2.305h-0.023c-1.488-0.009-2.813-0.947-3.318-2.346c-0.776-2.148-1.743-4.399-3.046-4.811     c-0.394-0.124-0.851-0.042-1.363,0.244c-0.954,0.534-1.78,1.623-2.051,2.709c-0.612,2.441,0.145,5.256,1.2,8.682     c0.319,1.04,0.146,2.168-0.473,3.064c-0.618,0.894-1.612,1.457-2.697,1.525c-1.56,0.099-3.078,1.173-3.691,2.61     c-0.473,1.111-0.411,2.456,0.103,3.563C572.652,276.462,574.392,277.254,575.822,278.41z" />
      <path style="fill:#2D0303;" d="M681.264,292.591c0.579-1.47,0.927-2.995,1.007-4.517c0.159-2.996-0.73-5.914-2.383-8.213     c1.391-1.344,2.449-3.082,3.026-5.045c0.887-3.012,0.543-6.197-0.942-8.738c-1.485-2.541-4.091-4.403-7.15-5.11     c-0.69-0.159-1.387-0.256-2.078-0.291c-0.235-2.138-1.126-4.251-2.647-5.962c-2.539-2.858-6.509-4.444-10.902-4.336     c-2.343,0.054-4.545,0.547-6.625,1.215c-0.515-0.985-1.177-1.899-1.997-2.69c-2.519-2.428-6.114-3.398-9.464-2.803     c-1.046-1.981-2.592-3.749-4.513-5.114c-3.163-2.247-7.025-3.172-10.591-2.539c-3.569,0.632-6.874,2.83-9.071,6.028     c-1.215,1.769-2.023,3.746-2.384,5.762c-2.985-0.233-6.347,0.114-9.459,1.819c-0.401,0.22-0.785,0.461-1.153,0.718     c-2.413-2.948-6.207-4.774-10.027-4.635c-2.548,0.092-5.02,1.051-7.035,2.601c-1.158-1.612-2.744-3.067-4.948-3.764     c-2.268-0.719-4.744-0.428-6.969,0.815c-2.678,1.496-4.725,4.182-5.477,7.184c-0.784,3.128-0.365,6.272,0.31,9.02     c-2.474,1.199-4.534,3.266-5.615,5.802c-1.022,2.399-1.134,5.137-0.427,7.639c-2.544,1.458-4.574,3.898-5.483,6.8     c-0.703,2.247-0.745,4.668-0.173,6.985c-2.723,1.091-5.061,3.145-6.373,5.803c-2.128,4.314-1.353,9.81,1.888,13.365     c2.277,2.499,5.62,3.874,8.966,3.874c0.714,0,1.429-0.064,2.133-0.191c0.36,0.501,0.75,0.97,1.166,1.407     c-1.432,0.591-2.849,1.222-4.246,1.902c-0.95,0.462-1.646,1.323-1.897,2.35c-0.251,1.027-0.032,2.112,0.598,2.961     c24.576,33.11,45.647,67.59,62.63,102.483c0.149,0.306,0.341,0.589,0.57,0.84c0.199,0.219,0.408,0.429,0.616,0.64     c-0.811,2.729-0.474,5.793,0.863,8.509l-11.824,27.186c-0.723,1.662-0.078,3.602,1.496,4.501     c3.695,2.108,7.897,3.193,12.114,3.193c2.199,0,4.403-0.295,6.539-0.893c5.311-1.49,9.734-4.773,12.786-9.414     c3.897,2.497,8.411,3.975,13.066,4.237c5.486,0.31,9.938-1.541,12.214-5.078c1.977-3.071,2.171-7.042,0.578-11.805     c-1.873-5.599-5.124-10.601-9.45-14.583c1.718-4.035,1.884-8.583,0.182-12.409c0.286-0.976,0.488-2.005,0.584-3.096     c3.54-40.442,10.802-80.792,21.586-119.928c0.308-1.121,0.049-2.322-0.695-3.215     C683.466,292.997,682.385,292.533,681.264,292.591z M653.637,258.735c1.879-0.677,3.821-1.211,5.724-1.255     c2.263-0.046,4.293,0.677,5.427,1.953c0.975,1.097,1.214,2.871,0.511,3.797c-1.05,1.38-0.95,3.316,0.238,4.581     c1.187,1.264,3.114,1.486,4.558,0.523c0.815-0.543,1.985-0.71,3.128-0.445c1.144,0.265,2.122,0.927,2.617,1.773     c0.494,0.846,0.591,2.024,0.26,3.15c-0.332,1.126-1.05,2.062-1.924,2.507c-0.149,0.075-0.287,0.162-0.419,0.255     c-1.457-0.377-2.978-0.45-4.442-0.221c-0.736-2.866-2.347-5.478-4.631-7.27c-2.978-2.337-6.934-3.131-10.506-2.344     c-0.452-1.251-1.076-2.439-1.846-3.524C652.98,261.129,653.413,259.95,653.637,258.735z M652.111,282.654     c0.989-1.096,1.197-2.689,0.524-4.001c-0.85-1.657-0.142-4.19,1.485-5.317c1.715-1.185,4.429-1.038,6.181,0.336     c1.797,1.41,2.719,4.079,2.24,6.489c-0.313,1.574,0.469,3.162,1.905,3.874c1.437,0.713,3.174,0.373,4.237-0.828     c0.901-1.016,2.856-1.201,4.186-0.394c1.465,0.888,2.415,2.898,2.31,4.886c-0.109,2.056-1.207,4.207-3.012,5.9     c-0.116,0.109-0.221,0.226-0.32,0.347c-3.22,0.658-6.388,1.511-9.491,2.547c-1.394-4.431-5.363-7.875-10.036-8.475     c-2.94-0.378-5.895,0.401-8.299,2.012c-0.866-1.049-1.933-1.943-3.135-2.622c0.293-0.989,0.464-2.011,0.518-3.04     c1.942-1.313,4.6-1.635,6.78-0.786C649.559,284.119,651.123,283.749,652.111,282.654z M631.216,304.126     c-1.316-2.457-1.547-5.337-0.605-7.516c0.918-2.124,3.141-3.639,5.166-3.512c1.849,0.111,3.605,1.84,3.546,3.49     c-0.061,1.712,1.109,3.225,2.783,3.594c1.672,0.369,3.373-0.509,4.038-2.088c0.819-1.94,3.184-3.301,5.27-3.031     c1.994,0.256,3.852,2.013,4.278,3.985c-9.629,4.183-18.46,10.216-25.993,17.864c-4.447-2.029-9.044-3.63-13.721-4.818     c0.102-0.43,0.175-0.865,0.224-1.304c2.835-2.386,7.113-3.092,10.546-1.697c1.385,0.563,2.976,0.197,3.977-0.915     C631.725,307.066,631.923,305.446,631.216,304.126z M645.231,276.015c-1.876,0.049-3.741,0.455-5.466,1.195     c-0.542-0.968-1.213-1.867-2.012-2.661c-1.081-1.073-2.352-1.912-3.725-2.511c-0.01-0.057-0.016-0.116-0.028-0.173     c-0.537-2.499,0.479-5.362,2.472-6.961c1.995-1.6,5.009-1.972,7.332-0.908c2.147,0.986,3.746,3.222,4.044,5.573     C646.353,271.402,645.443,273.687,645.231,276.015z M608.504,258.286c2.889-1.583,6.656-0.943,8.644-0.421     c1.182,0.309,2.439-0.008,3.33-0.843c0.892-0.835,1.291-2.07,1.059-3.269c-0.33-1.701,0.126-3.617,1.252-5.257     c1.126-1.638,2.75-2.753,4.457-3.055c1.708-0.303,3.615,0.184,5.236,1.336c1.621,1.152,2.709,2.794,2.985,4.505     c0.194,1.204,0.992,2.223,2.112,2.702c1.121,0.478,2.41,0.348,3.413-0.345c1.321-0.912,3.495-0.734,4.652,0.379     c0.862,0.831,1.223,2.244,0.995,3.471c-4.722-2.107-10.577-1.364-14.612,1.875c-3.472,2.786-5.428,7.286-5.25,11.715     c-0.074,0.011-0.147,0.018-0.221,0.03c-0.519-1.524-1.358-2.974-2.481-4.241c-2.48-2.795-6.014-4.315-9.452-4.069     c-1.991,0.143-3.927,0.881-5.604,2.08c-1.016-0.846-2.132-1.566-3.316-2.151C605.651,261.124,606.789,259.226,608.504,258.286z      M606.553,280.543c1.286,0.455,2.721,0.132,3.689-0.831s1.297-2.395,0.849-3.684c-0.413-1.183-0.152-2.658,0.695-3.946     c0.847-1.287,2.099-2.109,3.347-2.199c1.245-0.087,2.605,0.545,3.628,1.698c1.022,1.153,1.491,2.576,1.252,3.804     c-0.275,1.421,0.339,2.867,1.554,3.655c1.214,0.787,2.784,0.76,3.971-0.07c2.094-1.467,5.394-1.185,7.209,0.618     c1.635,1.624,2.038,4.463,1.038,6.549c-4.132,0.655-7.924,3.56-9.693,7.654c-0.997,2.305-1.347,4.893-1.068,7.485h-0.034     c-2.985,0-5.97,0.75-8.591,2.181c-0.698-1.012-1.56-1.9-2.551-2.614c0.194-0.251,0.381-0.509,0.562-0.777     c1.846-2.741,2.453-5.899,1.666-8.662c-1.192-4.191-6.111-7.857-12.275-6.739c-1.199,0.217-2.315,0.577-3.376,1.041     c0.185-1.799,1.212-3.514,2.724-4.507C602.717,280.17,604.786,279.92,606.553,280.543z M580.775,297.177     c-1.958-3.076-3.428-7.716-1.682-11.509c0.742-1.612,2.405-3.004,4.237-3.545c0.795-0.235,2.326-0.506,3.636,0.326     c2.712,1.718,3.132,6.366,3.186,10.685c0.017,1.365,0.816,2.601,2.053,3.177c1.238,0.575,2.696,0.39,3.752-0.476     c2.473-2.03,4.716-3.747,7.11-4.18c1.807-0.327,3.837,0.496,4.178,1.694c0.206,0.724-0.072,1.777-0.726,2.749     c-0.841,1.246-2.158,2.33-3.554,3.476c-1.179,0.97-1.607,2.584-1.063,4.01c0.544,1.426,1.95,2.36,3.463,2.282     c1.263-0.047,2.613,0.666,3.28,1.743c0.538,0.871,0.659,2.033,0.365,3.034c-11.386-1.853-23.053-1.27-34.093,1.753     c-0.338-0.16-0.706-0.272-1.099-0.319c-1.288-0.154-2.578-1.011-3.448-2.294c-0.871-1.282-1.192-2.796-0.859-4.051     c0.333-1.255,1.362-2.411,2.753-3.094c1.392-0.682,2.937-0.788,4.133-0.283c1.432,0.605,3.091,0.209,4.094-0.978     C581.495,300.19,581.61,298.489,580.775,297.177z M604.651,270.493c-0.337,0.855-0.576,1.734-0.713,2.618     c-2.356,0.105-4.679,0.833-6.686,2.149c-1.478,0.97-2.729,2.227-3.699,3.668c-0.761-0.932-1.674-1.775-2.785-2.479     c-0.564-0.358-1.157-0.656-1.77-0.9c0.731-3.185,3.154-6.023,6.255-7.062C598.418,267.424,602.145,268.292,604.651,270.493z      M570.711,272.583c0.613-1.437,2.131-2.511,3.691-2.61c1.085-0.068,2.079-0.631,2.697-1.525c0.619-0.896,0.792-2.024,0.473-3.064     c-1.055-3.426-1.812-6.241-1.2-8.682c0.271-1.086,1.097-2.175,2.051-2.709c0.512-0.286,0.969-0.368,1.363-0.244     c1.303,0.412,2.27,2.663,3.046,4.811c0.505,1.399,1.83,2.337,3.318,2.346h0.023c1.479,0,2.804-0.918,3.325-2.305     c0.703-1.876,2.668-3.29,4.67-3.362c2.006-0.077,4.064,1.196,4.901,3.016c0.074,0.16,0.162,0.31,0.256,0.453     c-0.272,0.732-0.469,1.483-0.589,2.241c-1.932-0.076-3.879,0.179-5.74,0.802c-5.87,1.968-10.23,7.365-11.149,13.417     c-0.175,0.045-0.353,0.091-0.53,0.144c-2.055,0.607-3.939,1.688-5.495,3.098c-1.43-1.156-3.17-1.948-5.008-2.264     C570.3,275.039,570.238,273.694,570.711,272.583z M562.645,303.91c-0.28,1.057-0.396,2.148-0.36,3.243     c-1.29-0.072-2.582-0.62-3.427-1.548c-1.276-1.4-1.606-3.738-0.767-5.437c0.838-1.698,2.896-2.856,4.783-2.697     c1.384,0.12,2.7-0.574,3.386-1.774c0.687-1.202,0.614-2.692-0.187-3.819c-1.179-1.662-1.572-3.776-1.026-5.52     c0.517-1.655,2.021-3.017,3.576-3.24c1.25-0.176,2.644,0.449,3.318,1.418c-1.029,3.314-0.963,7.019,0.158,10.686     c-1.005,0.221-2.001,0.567-2.962,1.039C565.877,297.86,563.511,300.648,562.645,303.91z M639.532,456.762     c-2.058,2.728-4.806,4.622-8.117,5.55c-3.337,0.935-7.02,0.795-10.324-0.331l9.191-21.133c2.331,1.444,5.182,2.41,8.517,2.879     c1.38,0.194,2.746,0.289,4.088,0.289c0.784,0,1.558-0.035,2.323-0.101C643.653,448.335,641.752,452.638,639.532,456.762z      M639.788,436.694c-3.261-0.459-5.712-1.496-7.287-3.082c-0.598-0.602-1.049-1.32-1.337-2.061     c3.127,1.43,6.552,2.199,10.007,2.199c1.206,0,2.416-0.093,3.617-0.283c3.858-0.61,8.099-2.113,11.557-4.644     c-0.597,1.84-1.733,3.592-3.317,4.888C649.815,436.338,644.989,437.426,639.788,436.694z M665.241,449.345     c0.852,2.545,0.917,4.571,0.186,5.707c-0.99,1.537-3.667,1.954-5.843,1.832c-4.461-0.252-8.921-2.115-12.235-5.114     c-0.032-0.029-0.068-0.054-0.101-0.081c1.245-2.879,2.347-5.819,3.302-8.802c2.606-0.811,4.976-2.044,6.974-3.678     c0.312-0.255,0.61-0.521,0.901-0.795C661.492,441.462,663.876,445.265,665.241,449.345z M656.217,416.384L656.217,416.384     c-0.53,6.05-7.085,9.204-12.539,10.067c-5.219,0.83-10.883-1.078-14.569-4.869c-16.525-33.874-36.851-67.348-60.456-99.569     c19.07-7.848,41.283-7.028,60.261,2.392c0.432,0.214,0.893,0.334,1.354,0.362c13.642,6.316,25.786,16.448,34.446,28.735     C660.906,374.336,658.058,395.347,656.217,416.384z M665.902,347.17c-8.276-10.559-19.026-19.382-30.995-25.418     c11.387-11.498,25.977-18.987,41.739-21.46C672.514,315.761,668.935,331.41,665.902,347.17z" />
      <path style="fill:#CAD0FC;" d="M629.11,421.58c-16.53-33.87-36.85-67.35-60.46-99.57c3.73-1.54,7.59-2.74,11.52-3.61     c11.92,19.3,53.61,87.71,58.35,108.01C634.98,425.83,631.6,424.13,629.11,421.58z" />
      <path style="fill:#CAD0FC;" d="M640,443.87c-0.3,6.08-1.5,11.38-3.33,15.8c-1.53,1.2-3.29,2.09-5.25,2.64     c-3.34,0.94-7.02,0.8-10.33-0.33l9.19-21.13c2.33,1.44,5.18,2.41,8.52,2.88C639.2,443.79,639.6,443.83,640,443.87z" />
      <path style="fill:#AE71E2;" d="M631.16,431.55c2.68,1.22,5.57,1.96,8.51,2.14c0.11,1.02,0.2,2.03,0.26,3.02     c-0.05-0.01-0.09-0.01-0.14-0.02c-3.26-0.46-5.71-1.49-7.29-3.08C631.9,433.01,631.45,432.29,631.16,431.55z" />
      <path style="fill:#FFA1A1;" d="M650.261,362.389c-0.734-4.636,3.029-9.085,8.408-9.938c5.378-0.852,10.334,2.215,11.069,6.851     c0.735,4.635-3.03,9.084-8.408,9.937C655.952,370.091,650.996,367.025,650.261,362.389" />
      <path style="fill:#FFA1A1;" d="M597.392,370.77c-0.735-4.636,3.029-9.085,8.407-9.938c5.379-0.852,10.334,2.214,11.07,6.85     c0.734,4.636-3.03,9.085-8.409,9.938C603.082,378.472,598.126,375.405,597.392,370.77" />
    </g>
    <g>
      <path style="fill:#F2385C;" d="M633.816,365.476c-1.861,0.326-3.587,1.167-4.587,2.22c1.384,1.727,3.254,2.683,5.135,2.385     c1.993-0.316,3.54-1.969,4.278-4.234C637.315,365.319,635.532,365.175,633.816,365.476z" />
      <path style="fill:#BF1B4E;" d="M638.588,359.332c-4.029,2.175-7.91,2.852-11.562,2.019c0.012,0.498,0.058,1.001,0.138,1.506     c0.243,1.534,0.779,2.92,1.509,4.063c1.15-1.136,3.003-2.028,4.981-2.375c1.832-0.321,3.756-0.169,5.235,0.388     c0.263-1.215,0.308-2.562,0.088-3.949C638.887,360.419,638.758,359.866,638.588,359.332z" />
      <path style="fill:#2D0303;" d="M639.742,357.904c-0.079-0.194-0.232-0.347-0.426-0.428c-0.193-0.081-0.41-0.081-0.603,0     c-0.109,0.044-0.233,0.115-0.457,0.242c-4.163,2.354-8.121,2.981-11.762,1.862c-0.23-0.07-0.479-0.032-0.676,0.104     c-0.198,0.136-0.323,0.355-0.34,0.594c-0.063,0.924-0.019,1.874,0.131,2.825c0.85,5.357,4.888,9.185,9.001,8.533     c4.114-0.653,6.771-5.541,5.921-10.898C640.376,359.753,640.11,358.8,639.742,357.904z M634.364,370.081     c-1.881,0.298-3.751-0.658-5.135-2.385c1-1.053,2.726-1.894,4.587-2.22c1.716-0.301,3.499-0.157,4.826,0.371     C637.904,368.112,636.357,369.765,634.364,370.081z M638.889,364.933c-1.479-0.557-3.403-0.709-5.235-0.388     c-1.978,0.347-3.831,1.239-4.981,2.375c-0.73-1.143-1.266-2.529-1.509-4.063c-0.08-0.505-0.126-1.008-0.138-1.506     c3.652,0.833,7.533,0.156,11.562-2.019c0.17,0.534,0.299,1.087,0.389,1.652C639.197,362.371,639.152,363.718,638.889,364.933z" />
      <path style="fill:#2D0303;" d="M616.244,351.345c-0.009,0.001-0.016,0.002-0.025,0.004c-2.862,0.453-5.145,3.087-5.82,6.718     c-0.207,1.111,0.527,2.179,1.638,2.386c1.109,0.206,2.179-0.528,2.385-1.638c0.383-2.057,1.516-3.278,2.438-3.425     c0.002,0,0.004-0.001,0.006-0.001c0.928-0.142,2.389,0.683,3.387,2.537c0.423,0.786,1.287,1.185,2.122,1.052     c0.221-0.035,0.44-0.107,0.649-0.22c0.996-0.535,1.368-1.775,0.832-2.77C622.102,352.725,619.113,350.903,616.244,351.345z" />
      <path style="fill:#2D0303;" d="M645.838,346.653c-0.008,0.002-0.015,0.003-0.024,0.005c-2.863,0.453-5.146,3.087-5.821,6.718     c-0.206,1.111,0.527,2.179,1.638,2.386c1.11,0.206,2.179-0.528,2.386-1.638c0.382-2.057,1.515-3.278,2.438-3.425     c0.002-0.001,0.004-0.001,0.006-0.001c0.928-0.142,2.389,0.683,3.386,2.537c0.424,0.786,1.287,1.185,2.123,1.052     c0.221-0.035,0.44-0.107,0.648-0.22c0.996-0.535,1.368-1.775,0.832-2.77C651.696,348.034,648.708,346.212,645.838,346.653z" />
    </g>
  </g>
</svg>