<?xml version='1.0' encoding='utf-8'?>
<svg xmlns="http://www.w3.org/2000/svg" version="1.1" viewBox="-52.513 -45.06 415.77299999999997 480.433" width="415.77299999999997" height="480.433">
  <g>
    <g>
      <path style="fill:#FFFFFF;" d="M240.78,349.28c-1.32,2.17-3,4.13-4.96,5.82c-4.18,3.63-9.61,6.01-15.31,6.56     c-8.03,0.78-16.71-2.05-23.23-7.57c-1.25-1.06-3.07-1.12-4.39-0.15c-9.3,6.8-20.91,10.53-32.76,10.53h-0.47     c-11.88-0.09-23.72-4-33.33-10.99c-0.62-0.45-1.35-0.68-2.09-0.68c-0.6,0-1.2,0.15-1.74,0.46c-10.51,5.92-23.29,8.01-35.06,5.73     c-0.94-0.18-1.83-0.39-2.67-0.62c-3.73-1.01-6.5-2.48-8.42-4.46c-2.21-2.27-3.67-5.66-4.12-9.57     c-0.96-8.45,3.33-17.49,10.43-21.97c7.21-4.57,17.12-4.43,24.08,0.32c1.62,1.11,3.83,0.69,4.93-0.93     c1.11-1.62,0.69-3.83-0.93-4.94c-4.22-2.88-9.26-4.48-14.39-4.8c2.48-5.3,7.05-9.66,12.51-11.75c6.51-2.49,14.22-1.76,20.14,1.91     c0.87,0.54,1.93,0.68,2.91,0.38c0.98-0.3,1.78-1,2.2-1.93c5.51-12.22,16.07-21.64,28.26-25.22c12.27-3.61,25.93-1.5,36.55,5.63     c10.61,7.14,17.72,18.99,19.01,31.72c0.1,0.95,0.58,1.83,1.33,2.42c0.75,0.6,1.71,0.86,2.66,0.74     c7.4-0.95,15.61,3.38,19.52,10.31C245.27,333.04,245.01,342.3,240.78,349.28z" />
      <path style="fill:#2D0303;" d="M224.543,308.69c-2.327-13.512-10.255-25.872-21.665-33.541     c-12.347-8.299-28.239-10.75-42.513-6.557c-13.198,3.878-24.346,13.161-31.065,25.733c-7.169-3.187-15.661-3.494-22.982-0.686     c-8.329,3.196-15.088,10.403-17.78,18.907c-3.42,0.677-6.718,1.949-9.674,3.816c-9.462,5.98-14.963,17.547-13.688,28.782     c0.619,5.459,2.779,10.333,6.081,13.724c3.41,3.502,8.26,5.822,14.828,7.095c12.668,2.454,26.353,0.467,37.91-5.448     c10.451,7.043,23.008,10.956,35.612,11.061c0.175,0.001,0.348,0.002,0.523,0.002c12.415,0,24.624-3.654,34.726-10.354     c7.717,5.677,17.171,8.399,26.337,7.51c10.543-1.021,20.374-7.066,25.656-15.773c5.609-9.247,5.913-21.109,0.775-30.22     C242.878,314.326,233.741,308.889,224.543,308.69z M240.776,349.276c-4.144,6.831-11.91,11.578-20.268,12.389     c-8.027,0.779-16.708-2.053-23.227-7.571c-1.252-1.06-3.068-1.125-4.391-0.155c-9.299,6.803-20.914,10.535-32.759,10.535     c-0.155,0-0.311,0-0.466-0.002c-11.885-0.097-23.723-4.001-33.335-10.992c-0.62-0.45-1.353-0.679-2.09-0.679     c-0.599,0-1.2,0.152-1.743,0.457c-10.509,5.922-23.289,8.011-35.061,5.731c-5.098-0.987-8.725-2.648-11.09-5.076     c-2.21-2.269-3.67-5.667-4.113-9.57c-0.958-8.454,3.329-17.491,10.426-21.976c7.216-4.562,17.118-4.428,24.08,0.323     c1.619,1.106,3.83,0.69,4.935-0.932c1.106-1.62,0.689-3.83-0.931-4.935c-4.223-2.883-9.259-4.485-14.392-4.8     c2.477-5.302,7.052-9.658,12.511-11.752c6.505-2.494,14.221-1.763,20.14,1.911c0.868,0.54,1.928,0.678,2.907,0.38     c0.979-0.299,1.782-1.005,2.203-1.936c5.508-12.211,16.072-21.639,28.256-25.219c12.271-3.605,25.933-1.498,36.548,5.638     c10.613,7.133,17.723,18.989,19.019,31.712c0.097,0.955,0.575,1.829,1.326,2.423c0.751,0.597,1.712,0.865,2.661,0.741     c7.401-0.953,15.608,3.381,19.515,10.309C245.275,333.036,245.009,342.297,240.776,349.276z" />
      <path style="fill:#E9EDFF;" d="M210.24,319.42c-0.01-0.05-0.02-0.11-0.03-0.17C210.28,319.29,210.28,319.36,210.24,319.42z" />
      <path style="fill:#E9EDFF;" d="M237.19,353.26c-0.42,0.64-0.88,1.26-1.37,1.84c-4.18,3.63-9.61,6.01-15.31,6.56     c-8.03,0.78-16.71-2.05-23.23-7.57c-1.25-1.06-3.07-1.12-4.39-0.15c-9.3,6.8-20.91,10.53-32.76,10.53h-0.47     c-11.88-0.09-23.72-4-33.33-10.99c-0.62-0.45-1.35-0.68-2.09-0.68c-0.6,0-1.2,0.15-1.74,0.46c-10.51,5.92-23.29,8.01-35.06,5.73     c-0.94-0.18-1.83-0.39-2.67-0.62c-0.37-0.37-0.71-0.75-1.03-1.15c-4.08-4.99-5.44-12.22-2.95-18.16     c2.54-6.09,8.64-10.16,15.05-11.73c5.09-1.25,10.6-1.1,15.4,1c2.25,0.99,4.91,2.39,6.97,1.04c1.54-1,1.9-3.16,1.46-4.94     c-0.45-1.77-1.52-3.32-2.33-4.96c-0.82-1.64-1.39-3.57-0.77-5.29c0.5-1.39,1.69-2.41,2.95-3.15c4.98-2.91,11.88-2.02,15.94,2.08     c4.38-6.67,9.7-13.52,16.36-17.9c3.74-2.46,8.02-4.03,12.39-4.98c9.95-2.14,20.76-0.95,29.53,4.2     c8.77,5.16,15.22,14.46,16.02,24.6c0.01,0.19,0.05,0.41,0.22,0.5c0.1,0.05,0.21-0.02,0.26-0.11c0.4,1.99,2.37,3.73,4.36,4.1     c2.06,0.38,4.17,0.01,6.26-0.02c6.93-0.1,13.77,3.89,17.11,9.97C241.31,339.55,241,347.46,237.19,353.26z" />
      <path style="fill:#FFA1A1;" d="M188.881,332.338c0-5.884,5.535-10.654,12.361-10.654c6.827,0,12.362,4.77,12.362,10.654     c0,5.885-5.535,10.654-12.362,10.654C194.416,342.992,188.881,338.223,188.881,332.338" />
      <path style="fill:#FFA1A1;" d="M121.772,332.338c0-5.884,5.534-10.654,12.361-10.654s12.362,4.77,12.362,10.654     c0,5.885-5.535,10.654-12.362,10.654S121.772,338.223,121.772,332.338" />
    </g>
    <g>
      <path style="fill:#F2385C;" d="M161.899,334.072c1.374,2.409,3.503,3.96,5.89,3.96c2.53,0,4.77-1.742,6.128-4.402     c-1.54-0.914-3.719-1.445-5.902-1.409C165.645,332.261,163.344,332.963,161.899,334.072z" />
      <path style="fill:#BF1B4E;" d="M160.417,325.781c-0.084,0.619-0.126,1.252-0.126,1.893c0,1.947,0.392,3.769,1.071,5.327     c1.647-1.18,4.118-1.922,6.634-1.963c2.333-0.038,4.685,0.527,6.407,1.508c0.563-1.453,0.884-3.112,0.884-4.872     c0-0.718-0.053-1.428-0.159-2.122C169.714,327.454,164.775,327.529,160.417,325.781z" />
      <path style="fill:#2D0303;" d="M148.847,306.486c-5.434,0-9.84,4.406-9.84,9.841s4.406,9.841,9.84,9.841     c5.435,0,9.841-4.406,9.841-9.841S154.282,306.486,148.847,306.486z M144.437,318.343c-1.001,0-1.812-0.811-1.812-1.811     s0.811-1.812,1.812-1.812c1,0,1.811,0.812,1.811,1.812S145.437,318.343,144.437,318.343z M151.737,316.532     c-1.841,0-3.334-1.493-3.334-3.334c0-1.842,1.493-3.334,3.334-3.334s3.333,1.492,3.333,3.334     C155.07,315.039,153.578,316.532,151.737,316.532z" />
      <path style="fill:#FFFFFF;" d="M151.737,309.864c-1.841,0-3.334,1.492-3.334,3.334c0,1.841,1.493,3.334,3.334,3.334     s3.333-1.493,3.333-3.334C155.07,311.356,153.578,309.864,151.737,309.864z" />
      <path style="fill:#FFFFFF;" d="M144.437,314.72c-1.001,0-1.812,0.812-1.812,1.812s0.811,1.811,1.812,1.811     c1,0,1.811-0.811,1.811-1.811S145.437,314.72,144.437,314.72z" />
      <path style="fill:#2D0303;" d="M186.528,306.486c-5.435,0-9.841,4.406-9.841,9.841s4.406,9.841,9.841,9.841     c5.434,0,9.84-4.406,9.84-9.841S191.962,306.486,186.528,306.486z M182.116,318.343c-1,0-1.811-0.811-1.811-1.811     s0.811-1.812,1.811-1.812s1.811,0.812,1.811,1.812S183.116,318.343,182.116,318.343z M189.417,316.532     c-1.841,0-3.334-1.493-3.334-3.334c0-1.842,1.493-3.334,3.334-3.334s3.334,1.492,3.334,3.334     C192.751,315.039,191.258,316.532,189.417,316.532z" />
      <path style="fill:#FFFFFF;" d="M189.417,309.864c-1.841,0-3.334,1.492-3.334,3.334c0,1.841,1.493,3.334,3.334,3.334     s3.334-1.493,3.334-3.334C192.751,311.356,191.258,309.864,189.417,309.864z" />
      <path style="fill:#FFFFFF;" d="M182.116,314.72c-1,0-1.811,0.812-1.811,1.812s0.811,1.811,1.811,1.811s1.811-0.811,1.811-1.811     S183.116,314.72,182.116,314.72z" />
      <path style="fill:#2D0303;" d="M176.395,323.396c-0.224-0.137-0.492-0.179-0.748-0.119c-0.143,0.035-0.31,0.097-0.613,0.21     c-5.617,2.099-10.64,2.098-14.929-0.002c-0.27-0.133-0.587-0.135-0.858-0.005c-0.272,0.13-0.469,0.376-0.537,0.67     c-0.26,1.131-0.392,2.317-0.392,3.524c0,6.799,4.249,12.331,9.471,12.331c5.222,0,9.47-5.532,9.47-12.331     c0-1.25-0.141-2.483-0.421-3.664C176.778,323.755,176.619,323.533,176.395,323.396z M167.789,338.032     c-2.387,0-4.516-1.551-5.89-3.96c1.445-1.109,3.746-1.811,6.116-1.851c2.183-0.036,4.362,0.495,5.902,1.409     C172.559,336.29,170.319,338.032,167.789,338.032z M174.403,332.546c-1.722-0.981-4.074-1.546-6.407-1.508     c-2.516,0.041-4.987,0.783-6.634,1.963c-0.679-1.558-1.071-3.38-1.071-5.327c0-0.641,0.042-1.274,0.126-1.893     c4.358,1.748,9.297,1.673,14.711-0.229c0.106,0.694,0.159,1.404,0.159,2.122C175.287,329.434,174.966,331.093,174.403,332.546z" />
    </g>
    <g>
      <path style="fill:#8B8B8B;" d="M136.13,379.965c-1.377-1.331-3.234-1.874-4.948-1.445c-1.582,0.396-3.015,1.613-3.893,3.283     c-0.879-1.67-2.311-2.887-3.893-3.283c-1.714-0.429-3.572,0.114-4.948,1.445c-2.055,1.987-2.871,5.553-2.347,8.709     c0.523,3.156,2.231,5.885,4.347,7.771c2.016,1.797,6.71,5.033,6.841,4.919c0.131,0.114,4.824-3.122,6.841-4.919     c2.116-1.886,3.823-4.615,4.347-7.771C139.001,385.518,138.185,381.952,136.13,379.965" />
      <path style="fill:#8B8B8B;" d="M178.312,387.067c-1.376-1.331-3.234-1.873-4.948-1.444c-1.582,0.395-3.014,1.613-3.893,3.282     c-0.878-1.669-2.31-2.887-3.893-3.282c-1.714-0.429-3.571,0.113-4.948,1.444c-2.055,1.987-2.87,5.553-2.347,8.709     c0.524,3.156,2.232,5.885,4.348,7.771c2.016,1.797,6.71,5.034,6.84,4.919c0.131,0.115,4.824-3.122,6.841-4.919     c2.116-1.886,3.824-4.615,4.347-7.771C181.183,392.62,180.367,389.054,178.312,387.067" />
      <path style="fill:#8B8B8B;" d="M217.773,379.965c-1.376-1.331-3.234-1.874-4.948-1.445c-1.582,0.396-3.014,1.613-3.893,3.283     c-0.878-1.67-2.31-2.887-3.893-3.283c-1.714-0.429-3.571,0.114-4.948,1.445c-2.055,1.987-2.87,5.553-2.347,8.709     c0.524,3.156,2.232,5.885,4.348,7.771c2.016,1.797,6.71,5.033,6.84,4.919c0.131,0.114,4.824-3.122,6.841-4.919     c2.116-1.886,3.824-4.615,4.347-7.771C220.644,385.518,219.828,381.952,217.773,379.965" />
      <path style="fill:#8B8B8B;" d="M204.356,418.242c-1.376-1.331-3.234-1.874-4.948-1.445c-1.582,0.395-3.015,1.613-3.893,3.283     c-0.878-1.67-2.311-2.888-3.893-3.283c-1.714-0.429-3.571,0.114-4.948,1.445c-2.055,1.986-2.871,5.552-2.347,8.708     c0.524,3.157,2.231,5.886,4.347,7.771c2.016,1.798,6.71,5.034,6.841,4.92c0.131,0.114,4.824-3.122,6.841-4.92     c2.116-1.885,3.824-4.614,4.347-7.771C207.227,423.794,206.411,420.228,204.356,418.242" />
      <path style="fill:#8B8B8B;" d="M158.815,419.82c-1.376-1.331-3.234-1.873-4.948-1.445c-1.582,0.396-3.014,1.613-3.893,3.283     c-0.878-1.67-2.311-2.887-3.893-3.283c-1.714-0.428-3.571,0.114-4.948,1.445c-2.055,1.987-2.871,5.553-2.347,8.709     c0.524,3.156,2.231,5.885,4.348,7.771c2.016,1.797,6.71,5.034,6.84,4.919c0.131,0.115,4.824-3.122,6.841-4.919     c2.116-1.886,3.824-4.615,4.347-7.771C161.686,425.373,160.87,421.807,158.815,419.82" />
      <path style="fill:#FFA1A1;" d="M136.13,379.965c-1.377-1.331-3.234-1.874-4.948-1.445c-1.582,0.396-3.015,1.613-3.893,3.283     c-0.879-1.67-2.311-2.887-3.893-3.283c-1.714-0.429-3.572,0.114-4.948,1.445c-2.055,1.987-2.871,5.553-2.347,8.709     c0.523,3.156,2.231,5.885,4.347,7.771c2.016,1.797,6.71,5.033,6.841,4.919c0.131,0.114,4.824-3.122,6.841-4.919     c2.116-1.886,3.823-4.615,4.347-7.771C139.001,385.518,138.185,381.952,136.13,379.965" />
      <path style="fill:#FFA1A1;" d="M178.312,387.067c-1.376-1.331-3.234-1.873-4.948-1.444c-1.582,0.395-3.014,1.613-3.893,3.282     c-0.878-1.669-2.31-2.887-3.893-3.282c-1.714-0.429-3.571,0.113-4.948,1.444c-2.055,1.987-2.87,5.553-2.347,8.709     c0.524,3.156,2.232,5.885,4.348,7.771c2.016,1.797,6.71,5.034,6.84,4.919c0.131,0.115,4.824-3.122,6.841-4.919     c2.116-1.886,3.824-4.615,4.347-7.771C181.183,392.62,180.367,389.054,178.312,387.067" />
      <path style="fill:#FFA1A1;" d="M217.773,379.965c-1.376-1.331-3.234-1.874-4.948-1.445c-1.582,0.396-3.014,1.613-3.893,3.283     c-0.878-1.67-2.31-2.887-3.893-3.283c-1.714-0.429-3.571,0.114-4.948,1.445c-2.055,1.987-2.87,5.553-2.347,8.709     c0.524,3.156,2.232,5.885,4.348,7.771c2.016,1.797,6.71,5.033,6.84,4.919c0.131,0.114,4.824-3.122,6.841-4.919     c2.116-1.886,3.824-4.615,4.347-7.771C220.644,385.518,219.828,381.952,217.773,379.965" />
      <path style="fill:#FFA1A1;" d="M204.356,418.242c-1.376-1.331-3.234-1.874-4.948-1.445c-1.582,0.395-3.015,1.613-3.893,3.283     c-0.878-1.67-2.311-2.888-3.893-3.283c-1.714-0.429-3.571,0.114-4.948,1.445c-2.055,1.986-2.871,5.552-2.347,8.708     c0.524,3.157,2.231,5.886,4.347,7.771c2.016,1.798,6.71,5.034,6.841,4.92c0.131,0.114,4.824-3.122,6.841-4.92     c2.116-1.885,3.824-4.614,4.347-7.771C207.227,423.794,206.411,420.228,204.356,418.242" />
      <path style="fill:#FFA1A1;" d="M158.815,419.82c-1.376-1.331-3.234-1.873-4.948-1.445c-1.582,0.396-3.014,1.613-3.893,3.283     c-0.878-1.67-2.311-2.887-3.893-3.283c-1.714-0.428-3.571,0.114-4.948,1.445c-2.055,1.987-2.871,5.553-2.347,8.709     c0.524,3.156,2.231,5.885,4.348,7.771c2.016,1.797,6.71,5.034,6.84,4.919c0.131,0.115,4.824-3.122,6.841-4.919     c2.116-1.886,3.824-4.615,4.347-7.771C161.686,425.373,160.87,421.807,158.815,419.82" />
    </g>
  </g>
</svg>