<?xml version='1.0' encoding='utf-8'?>
<svg xmlns="http://www.w3.org/2000/svg" version="1.1" viewBox="-94.115 -94.115 779.9300000000001 772.827" width="779.9300000000001" height="772.827">
  <g>
    <g>
      <path style="fill:#AE71E2;" d="M623.167,167.86c-0.711-0.881-1.828-1.474-2.948-1.519c-1.226-0.05-2.494,0.552-3.262,1.511     c0.353,1.374,0.531,2.894,0.514,4.542c-0.049,4.675-1.394,9.08-3.785,12.857c1.365,1.123,3.281,1.793,5.13,1.752     c2.365-0.053,4.23-1.178,5.13-1.843c1.296-0.958,2.302-2.139,3.315-3.402c-0.436-0.506-0.847-1.026-1.231-1.572     C623.319,176.334,622.3,171.839,623.167,167.86z" />
      <path style="fill:#D999FF;" d="M649.023,167.103c-1.694,0.156-3.339,1.263-5.027,3.383c-0.549,0.688-1.436,1.016-2.299,0.85     c-0.864-0.166-1.565-0.799-1.819-1.641c-0.947-3.139-2.794-5.364-4.941-5.951c-0.367-0.1-0.745-0.148-1.128-0.148     c-2.342,0-4.842,1.793-5.746,4.315c-1.015,2.835-0.31,6.495,1.839,9.55c1.976,2.806,4.893,4.96,9.684,7.129     c2.909-0.598,5.92-1.326,8.563-2.654c2.928-1.471,5.092-3.588,6.095-5.963c1.064-2.522,0.7-5.484-0.885-7.204     C652.275,167.595,650.613,166.957,649.023,167.103z" />
      <path style="fill:#AE71E2;" d="M648.589,162.388c1.432-0.133,2.87,0.06,4.209,0.528c0.86-1.72,1.17-3.597,0.845-5.263     c-0.382-1.967-1.707-3.662-3.372-4.319c-1.614-0.634-3.663-0.178-4.662,1.041c-0.176,0.215-0.382,0.389-0.606,0.525     c-0.218,2.875-1.643,5.654-3.849,7.458c0.655,0.727,1.25,1.553,1.769,2.466C644.694,163.376,646.568,162.575,648.589,162.388z" />
      <path style="fill:#D999FF;" d="M614.777,163.415c1.603-1.212,3.62-1.886,5.632-1.805c1.733,0.069,3.426,0.702,4.822,1.732     c2.601-3.406,7.03-5.239,10.956-4.165c0.293,0.08,0.581,0.178,0.866,0.287c0.128-0.115,0.269-0.219,0.426-0.306     c1.947-1.083,3.128-3.602,2.749-5.859c-0.376-2.241-2.294-4.194-4.461-4.544c-2.154-0.349-4.544,0.898-5.563,2.895     c-0.482,0.945-1.534,1.455-2.576,1.245c-1.041-0.21-1.815-1.086-1.894-2.145c-0.196-2.632-1.286-4.717-2.989-5.719     c-1.599-0.941-3.747-0.942-5.346-0.001c-1.627,0.955-2.731,2.899-2.75,4.837c-0.001,0.131-0.015,0.259-0.038,0.385     c1.414,3.86,1.047,8.35-1.153,11.87C613.938,162.503,614.378,162.937,614.777,163.415z" />
      <path style="fill:#AE71E2;" d="M590.514,164.916c2.087,0.232,4.117,1.094,5.767,2.459c1.379-1.994,3.011-3.856,5.148-5.232     c2.051-1.32,4.826-2.149,7.532-1.842c2.472-3.13,2.314-8.08-0.357-11.043c-1.79-1.987-4.589-2.903-6.81-2.226     c-1.082,0.329-2.033,1.136-2.545,2.158c-0.362,0.723-0.681,1.901-0.139,3.403c0.377,1.044-0.021,2.209-0.958,2.803     c-0.936,0.595-2.16,0.46-2.944-0.325c-1.281-1.283-3.602-1.558-5.285-0.625c-1.705,0.944-2.814,3.054-2.696,5.133     C587.345,161.637,588.634,163.732,590.514,164.916z" />
      <path style="fill:#CAD0FC;" d="M667.69,65.72c0,2.53-0.99,4.91-2.78,6.7c-1.78,1.79-4.16,2.77-6.7,2.77h-36.67     c0.18-3.42-0.1-6.98-0.1-10.33c0-2.36-3.67-2.36-3.67,0c0,3.35-0.28,6.91-0.1,10.33h-37.01c-0.05-3.14-0.33-6.32-0.42-9.44     c-0.07-2.11-3.33-2.12-3.29,0c0.07,3.12-0.04,6.29,0.08,9.43c-5.09-0.15-9.18-4.34-9.18-9.46c0-5.22,4.25-9.47,9.47-9.47h17.59     c0.16,3.66,0.33,7.34,0.62,10.99c0.16,1.94,3.04,2,3.07,0c0.05-3.66-0.03-7.34-0.12-10.99h46.71c-0.05,0.17-0.08,0.36-0.08,0.57     c0.01,3.62,0,7.21,0.5,10.8c0.19,1.36,2.56,1.36,2.75,0c0.5-3.59,0.49-7.18,0.5-10.8c0-0.21-0.03-0.4-0.09-0.57h9.44     C663.44,56.25,667.69,60.5,667.69,65.72z" />
      <path style="fill:#D999FF;" d="M610.324,165.688c-1.872-1.297-4.594-0.683-6.332,0.436c-2.263,1.457-3.91,3.93-5.352,6.384     c-0.423,0.72-1.194,1.163-2.028,1.168h-0.014c-0.829,0-1.598-0.433-2.027-1.143c-1.096-1.816-3.166-2.947-5.172-2.947     c-0.435,0-0.868,0.054-1.286,0.164c-2.289,0.608-4.258,2.828-4.788,5.401c-0.518,2.509,0.197,5.425,1.911,7.797     c1.586,2.196,4.024,4.025,7.047,5.29c2.367,0.99,5.05,1.661,8.628,2.152c7.335-3.47,11.741-10.171,11.824-18.046     C612.752,170.856,612.548,167.228,610.324,165.688z" />
      <path style="fill:#E9EDFF;" d="M653.95,82.29h-72.37c-8.99,4.48-14.76,13.75-14.76,23.83v84.11c0,5.11,4.16,9.27,9.28,9.27h83.34     c5.11,0,9.27-4.16,9.27-9.27v-84.11C668.71,96.04,662.94,86.77,653.95,82.29z M661.34,100.26c1.13,1.8,1.89,3.87,1.79,6.03     c-0.08,1.81-2.67,2.22-3.18,0.43c-0.02-0.09-0.05-0.17-0.07-0.26c-0.44-1.52-0.93-2.96-1.78-4.31c-0.47-0.74-0.35-1.45,0.06-1.97     C658.89,99.25,660.52,98.95,661.34,100.26z M575.53,98.45c1.38-1.97,4.64-0.07,3.25,1.9c-1.5,2.11-2.65,4.56-3.26,7.07     c-0.4,1.65-3.13,1.31-2.99-0.4C572.8,103.83,573.7,101.08,575.53,98.45z M576.73,190.87c-3.95-4.03-4.08-9.96-4.2-15.24     c-0.14-6.83-0.23-13.66-0.28-20.49c-0.12-13.91-0.44-27.85-0.75-41.77c-0.04-2.2,3.39-2.19,3.42,0     c0.2,13.26,0.36,26.55,0.74,39.8c0.19,6.7,0.38,13.4,0.49,20.1c0.08,5.32-0.57,11.4,2.84,15.86     C580,190.45,577.83,192,576.73,190.87z M662.58,151.72c-0.24,6.42-0.28,12.86-0.38,19.28c-0.1,6.31,0.19,12.76-0.38,19.04     c-0.06,0.62-0.36,1.06-0.75,1.32c-0.54,1.37-1.55,2.07-2.78,2.41c-0.58,0.17-1.22,0.25-1.88,0.28c-2.78,0.13-5.64,0.04-8.43,0.01     c-5.87-0.07-11.77-0.27-17.63-0.57c-2.13-0.11-2.14-3.39,0-3.31c4.85,0.19,9.71,0.35,14.56,0.15c2.43-0.1,4.86-0.17,7.29-0.26     c1.38-0.04,4.55,0.33,5.48-0.85c0.2-0.27,0.46-0.43,0.73-0.53c-0.12-3.56-0.01-7.15,0.13-10.74c-1.46,3.36-4.39,6.27-8.26,8.22     c-3.4,1.7-7.05,2.52-10.5,3.21c-0.15,0.03-0.31,0.05-0.47,0.05c-0.32,0-0.64-0.07-0.94-0.2c-3.11-1.36-5.59-2.74-7.62-4.25     c-1.1,1.35-2.35,2.77-3.99,3.99c-2.33,1.72-5.12,2.7-7.83,2.77h-0.28c-2.85,0-5.71-1.02-7.87-2.75c-2.34,2.48-5.22,4.54-8.55,6     c-0.3,0.14-0.63,0.2-0.95,0.2c-0.1,0-0.2,0-0.3-0.02c-4.36-0.55-7.6-1.34-10.52-2.56c-3.83-1.61-6.96-3.99-9.06-6.89     c-2.52-3.48-3.5-7.68-2.71-11.52c0.73-3.56,3.08-6.63,6.12-8.21c-1.35-1.8-2.18-3.95-2.31-6.14c-0.22-3.89,1.84-7.73,5.13-9.55     c2.04-1.13,4.42-1.41,6.61-0.92c0.15-0.8,0.4-1.57,0.78-2.31c1.09-2.19,3.06-3.86,5.39-4.57c3.56-1.08,7.71-0.04,10.71,2.6     c0.89-1.71,2.23-3.18,3.88-4.15c3.08-1.82,7.06-1.81,10.15,0c1.83,1.08,3.26,2.74,4.18,4.81c2.09-1.42,4.69-2.08,7.19-1.68     c3.16,0.51,5.95,2.69,7.42,5.57c2.33-1.44,5.4-1.77,8.07-0.72c3.18,1.25,5.59,4.25,6.28,7.82c0.56,2.84,0.01,5.99-1.5,8.75     c0.01,0.02,0.03,0.04,0.05,0.06c0.87,0.94,1.54,2.06,2,3.27c0.13-5.7,0.29-11.41,0.28-17.11c-0.01-12.87,0.63-25.71,0.85-38.57     c0.01-0.53,0.22-0.92,0.54-1.17c0.92-0.76,2.69-0.36,2.66,1.17C662.91,126.01,663.07,138.86,662.58,151.72z" />
      <path style="fill:#2D0303;" d="M575.519,107.421c0.614-2.515,1.764-4.958,3.259-7.07c1.397-1.974-1.867-3.871-3.244-1.897     c-1.835,2.631-2.734,5.381-2.999,8.564C572.391,108.733,575.118,109.067,575.519,107.421z" />
      <path style="fill:#2D0303;" d="M576.146,173.268c-0.103-6.7-0.294-13.396-0.486-20.096c-0.381-13.252-0.54-26.54-0.738-39.798     c-0.033-2.198-3.466-2.203-3.418,0c0.305,13.914,0.63,27.853,0.742,41.769c0.054,6.831,0.141,13.659,0.288,20.49     c0.114,5.273,0.251,11.21,4.195,15.235c1.106,1.129,3.272-0.416,2.258-1.743C575.58,184.669,576.227,178.588,576.146,173.268z" />
      <path style="fill:#2D0303;" d="M658.097,102.153c0.903,1.427,1.392,2.952,1.852,4.564c0.509,1.79,3.103,1.384,3.183-0.43     c0.096-2.153-0.664-4.228-1.791-6.03C660.062,98.21,656.799,100.104,658.097,102.153z" />
      <path style="fill:#2D0303;" d="M659.968,113.151c-0.223,12.864-0.854,25.698-0.846,38.569c0.003,5.703-0.153,11.41-0.284,17.112     c-0.461-1.213-1.128-2.33-1.998-3.273c-0.018-0.019-0.036-0.036-0.054-0.055c1.509-2.765,2.059-5.914,1.506-8.756     c-0.695-3.569-3.104-6.566-6.284-7.819c-2.67-1.052-5.737-0.719-8.069,0.718c-1.466-2.875-4.259-5.058-7.418-5.567     c-2.498-0.402-5.097,0.259-7.195,1.679c-0.919-2.065-2.349-3.732-4.181-4.809c-3.081-1.814-7.063-1.815-10.145-0.003     c-1.655,0.972-2.995,2.442-3.885,4.155c-3-2.639-7.141-3.686-10.701-2.6c-2.333,0.71-4.301,2.375-5.399,4.568     c-0.371,0.738-0.63,1.515-0.779,2.312c-2.187-0.49-4.57-0.208-6.607,0.921c-3.289,1.821-5.35,5.656-5.129,9.545     c0.125,2.192,0.96,4.341,2.313,6.14c-3.041,1.58-5.394,4.656-6.126,8.208c-0.792,3.843,0.196,8.044,2.71,11.524     c2.098,2.904,5.23,5.285,9.06,6.886c2.92,1.221,6.164,2.014,10.518,2.569c0.1,0.013,0.201,0.019,0.3,0.019     c0.327,0,0.653-0.068,0.953-0.2c3.33-1.466,6.214-3.52,8.552-6.002c2.157,1.731,5.019,2.749,7.871,2.749     c0.091,0,0.183-0.001,0.275-0.003c2.718-0.063,5.502-1.046,7.834-2.77c1.644-1.215,2.894-2.641,3.985-3.989     c2.034,1.516,4.515,2.892,7.621,4.251c0.301,0.132,0.624,0.199,0.948,0.199c0.157,0,0.313-0.016,0.467-0.047     c3.449-0.692,7.101-1.511,10.494-3.215c3.877-1.948,6.805-4.86,8.267-8.212c-0.139,3.584-0.253,7.177-0.134,10.733     c-0.271,0.098-0.524,0.265-0.732,0.532c-0.925,1.18-4.1,0.806-5.478,0.855c-2.429,0.086-4.858,0.16-7.286,0.259     c-4.852,0.201-9.717,0.041-14.567-0.15c-2.135-0.085-2.121,3.201,0,3.31c5.867,0.299,11.76,0.499,17.635,0.565     c2.793,0.031,5.645,0.123,8.434-0.013c2.06-0.1,3.859-0.668,4.652-2.683c0.397-0.266,0.698-0.704,0.753-1.327     c0.566-6.277,0.283-12.729,0.381-19.032c0.099-6.427,0.141-12.861,0.383-19.284c0.484-12.86,0.331-25.707,0.586-38.569     C663.21,111.09,660.003,111.089,659.968,113.151z M589.923,154.446c1.683-0.933,4.004-0.658,5.285,0.625     c0.784,0.785,2.008,0.92,2.944,0.325c0.937-0.594,1.335-1.759,0.958-2.803c-0.542-1.502-0.223-2.68,0.139-3.403     c0.512-1.022,1.463-1.829,2.545-2.158c2.221-0.677,5.02,0.239,6.81,2.226c2.671,2.963,2.829,7.913,0.357,11.043     c-2.706-0.307-5.481,0.522-7.532,1.842c-2.137,1.376-3.769,3.238-5.148,5.232c-1.65-1.365-3.68-2.227-5.767-2.459     c-1.88-1.184-3.169-3.279-3.287-5.337C587.109,157.5,588.218,155.39,589.923,154.446z M600.911,190.39     c-3.578-0.491-6.261-1.162-8.628-2.152c-3.023-1.265-5.461-3.094-7.047-5.29c-1.714-2.372-2.429-5.288-1.911-7.797     c0.53-2.573,2.499-4.793,4.788-5.401c0.418-0.11,0.851-0.164,1.286-0.164c2.006,0,4.076,1.131,5.172,2.947     c0.429,0.71,1.198,1.143,2.027,1.143h0.014c0.834-0.005,1.605-0.448,2.028-1.168c1.442-2.454,3.089-4.927,5.352-6.384     c1.738-1.119,4.46-1.733,6.332-0.436c2.224,1.54,2.428,5.168,2.411,6.656C612.652,180.219,608.246,186.92,600.911,190.39z      M645.003,154.9c0.224-0.136,0.43-0.31,0.606-0.525c0.999-1.219,3.048-1.675,4.662-1.041c1.665,0.657,2.99,2.352,3.372,4.319     c0.325,1.666,0.015,3.543-0.845,5.263c-1.339-0.468-2.777-0.661-4.209-0.528c-2.021,0.187-3.895,0.988-5.666,2.436     c-0.519-0.913-1.114-1.739-1.769-2.466C643.36,160.554,644.785,157.775,645.003,154.9z M614.611,150.252     c0.023-0.126,0.037-0.254,0.038-0.385c0.019-1.938,1.123-3.882,2.75-4.837c1.599-0.941,3.747-0.94,5.346,0.001     c1.703,1.002,2.793,3.087,2.989,5.719c0.079,1.059,0.853,1.935,1.894,2.145c1.042,0.21,2.094-0.3,2.576-1.245     c1.019-1.997,3.409-3.244,5.563-2.895c2.167,0.35,4.085,2.303,4.461,4.544c0.379,2.257-0.802,4.776-2.749,5.859     c-0.157,0.087-0.298,0.191-0.426,0.306c-0.285-0.109-0.573-0.207-0.866-0.287c-3.926-1.074-8.355,0.759-10.956,4.165     c-1.396-1.03-3.089-1.663-4.822-1.732c-2.012-0.081-4.029,0.593-5.632,1.805c-0.399-0.478-0.839-0.912-1.319-1.293     C615.658,158.602,616.025,154.112,614.611,150.252z M623.946,185.16c-0.9,0.665-2.765,1.79-5.13,1.843     c-1.849,0.041-3.765-0.629-5.13-1.752c2.391-3.777,3.736-8.182,3.785-12.857c0.017-1.648-0.161-3.168-0.514-4.542     c0.768-0.959,2.036-1.561,3.262-1.511c1.12,0.045,2.237,0.638,2.948,1.519c-0.867,3.979,0.152,8.474,2.863,12.326     c0.384,0.546,0.795,1.066,1.231,1.572C626.248,183.021,625.242,184.202,623.946,185.16z M654.244,175.973     c-1.003,2.375-3.167,4.492-6.095,5.963c-2.643,1.328-5.654,2.056-8.563,2.654c-4.791-2.169-7.708-4.323-9.684-7.129     c-2.149-3.055-2.854-6.715-1.839-9.55c0.904-2.522,3.404-4.315,5.746-4.315c0.383,0,0.761,0.048,1.128,0.148     c2.147,0.587,3.994,2.812,4.941,5.951c0.254,0.842,0.955,1.475,1.819,1.641c0.863,0.166,1.75-0.162,2.299-0.85     c1.688-2.12,3.333-3.227,5.027-3.383c1.59-0.146,3.252,0.492,4.336,1.666C654.944,170.489,655.308,173.451,654.244,175.973z" />
      <path style="fill:#2D0303;" d="M664.596,81.025c1.973-0.821,3.785-2.029,5.341-3.585c3.129-3.129,4.852-7.291,4.852-11.721     c0-9.138-7.434-16.574-16.574-16.574H577.32c-9.138,0-16.573,7.436-16.573,16.574c0,6.882,4.218,12.796,10.203,15.298     c-7.013,6.303-11.229,15.402-11.229,25.098v84.115c0,9.029,7.346,16.376,16.376,16.376h83.342     c9.029,0,16.376-7.347,16.376-16.376v-84.115C675.815,96.423,671.604,87.328,664.596,81.025z M567.85,65.719     c0-5.222,4.249-9.47,9.47-9.47h17.59c0.159,3.658,0.326,7.338,0.623,10.986c0.158,1.94,3.039,2.001,3.067,0     c0.049-3.653-0.034-7.331-0.122-10.986h46.717c-0.052,0.174-0.089,0.36-0.088,0.572c0.011,3.618,0.007,7.204,0.504,10.796     c0.189,1.359,2.559,1.36,2.747,0c0.499-3.592,0.495-7.178,0.506-10.796c0-0.212-0.037-0.398-0.089-0.572h9.44     c5.223,0,9.471,4.248,9.471,9.47c0,2.532-0.984,4.911-2.772,6.698c-1.787,1.788-4.166,2.772-6.699,2.772h-3.452h-33.22     c0.181-3.421-0.106-6.978-0.106-10.332c0-2.356-3.663-2.36-3.663,0c0,3.354-0.288,6.911-0.107,10.332h-36.89h-0.113     c-0.051-3.144-0.33-6.319-0.428-9.441c-0.065-2.106-3.328-2.119-3.282,0c0.068,3.117-0.042,6.296,0.073,9.434     C571.941,75.026,567.85,70.842,567.85,65.719z M668.712,190.23c0,5.113-4.16,9.273-9.273,9.273h-83.342     c-5.114,0-9.274-4.16-9.274-9.273v-84.115c0-10.08,5.769-19.348,14.761-23.823h72.371c8.99,4.476,14.757,13.744,14.757,23.823     V190.23z" />
      <path style="fill:#9CA8E2;" d="M649.53,56.25h8.68c5.23,0,9.48,4.25,9.48,9.47c0,2.53-0.99,4.91-2.78,6.7     c-1.78,1.79-4.16,2.77-6.7,2.77h-8.31C656.31,66.84,653.06,60.19,649.53,56.25z" />
      <path style="fill:#CAD0FC;" d="M668.71,106.12v84.11c0,5.11-4.16,9.27-9.27,9.27h-5.19c1.82-1.88,3.13-3.92,4.04-5.73     c1.23-0.34,2.24-1.04,2.78-2.41c0.39-0.26,0.69-0.7,0.75-1.32c0.57-6.28,0.28-12.73,0.38-19.04c0.1-6.42,0.14-12.86,0.38-19.28     c0.49-12.86,0.33-25.71,0.59-38.57c0.03-1.53-1.74-1.93-2.66-1.17c-0.1-1.95-0.32-3.79-0.63-5.52c0.02,0.09,0.05,0.17,0.07,0.26     c0.51,1.79,3.1,1.38,3.18-0.43c0.1-2.16-0.66-4.23-1.79-6.03c-0.82-1.31-2.45-1.01-3.18-0.08c-3.53-9.59-10.13-15.19-14.24-17.89     h10.03C662.94,86.77,668.71,96.04,668.71,106.12z" />
      <path style="fill:#FFA1A1;" d="M638.962,122.792c0-5.884,5.534-10.654,12.36-10.654c6.827,0,12.362,4.77,12.362,10.654     c0,5.885-5.535,10.654-12.362,10.654C644.496,133.446,638.962,128.677,638.962,122.792" />
      <path style="fill:#FFA1A1;" d="M571.852,122.069c0-5.485,4.462-9.931,9.967-9.931s9.967,4.446,9.967,9.931     c0,5.486-4.463,9.931-9.967,9.931S571.852,127.555,571.852,122.069" />
    </g>
    <g>
      <path style="fill:#2D0303;" d="M589.087,106.781c0-5.435,4.406-9.841,9.841-9.841c5.434,0,9.841,4.406,9.841,9.841     c0,5.435-4.407,9.841-9.841,9.841C593.493,116.622,589.087,112.216,589.087,106.781" />
      <path style="fill:#FFFFFF;" d="M598.482,103.652c0-1.842,1.493-3.334,3.334-3.334c1.842,0,3.334,1.492,3.334,3.334     c0,1.841-1.492,3.334-3.334,3.334C599.975,106.986,598.482,105.493,598.482,103.652" />
      <path style="fill:#FFFFFF;" d="M592.705,106.986c0-1,0.811-1.812,1.812-1.812c1,0,1.81,0.812,1.81,1.812s-0.81,1.811-1.81,1.811     C593.516,108.797,592.705,107.986,592.705,106.986" />
      <path style="fill:#2D0303;" d="M626.768,106.781c0-5.435,4.405-9.841,9.84-9.841c5.434,0,9.841,4.406,9.841,9.841     c0,5.435-4.407,9.841-9.841,9.841C631.173,116.622,626.768,112.216,626.768,106.781" />
      <path style="fill:#FFFFFF;" d="M636.162,103.652c0-1.842,1.493-3.334,3.334-3.334c1.842,0,3.334,1.492,3.334,3.334     c0,1.841-1.492,3.334-3.334,3.334C637.655,106.986,636.162,105.493,636.162,103.652" />
      <path style="fill:#FFFFFF;" d="M630.385,106.986c0-1,0.811-1.812,1.812-1.812c1,0,1.81,0.812,1.81,1.812s-0.81,1.811-1.81,1.811     C631.196,108.797,630.385,107.986,630.385,106.986" />
      <path style="fill:#2D0303;" d="M617.632,119.619c-2.439,0-4.877-1.112-6.567-3.008c-0.579-0.651-0.523-1.649,0.129-2.228     c0.65-0.58,1.648-0.524,2.228,0.128c1.134,1.272,2.764,2.004,4.366,1.949c1.605-0.052,3.198-0.889,4.267-2.237     c0.541-0.684,1.534-0.8,2.217-0.259c0.684,0.541,0.799,1.534,0.258,2.217c-1.636,2.069-4.119,3.352-6.639,3.434     C617.805,119.618,617.718,119.619,617.632,119.619" />
    </g>
  </g>
</svg>