<?xml version='1.0' encoding='utf-8'?>
<svg xmlns="http://www.w3.org/2000/svg" version="1.1" viewBox="-102.9 -66.39699999999999 352.596 309.37" width="352.596" height="309.37">
  <g>
    <g>
      <path style="fill:#CAD0FC;" d="M222.66,78.81c-5.42-2.93-11.45-5.53-17.89-7.71c-1.98-0.67-4-1.31-6.05-1.9     c0.06-0.04,0.1-0.09,0.16-0.14c0.12-0.12,0.24-0.23,0.36-0.35c0.1-0.1,0.19-0.19,0.28-0.28c0.12-0.12,0.24-0.25,0.35-0.37     c0.09-0.1,0.18-0.19,0.27-0.29c0.11-0.12,0.22-0.25,0.33-0.38c0.08-0.1,0.16-0.19,0.24-0.29c0.11-0.14,0.21-0.27,0.32-0.41     c0.07-0.1,0.15-0.19,0.22-0.28c0.1-0.15,0.21-0.3,0.31-0.46c0.06-0.08,0.12-0.17,0.18-0.25c0.13-0.2,0.25-0.39,0.37-0.59     c0.03-0.05,0.06-0.09,0.09-0.14c0.14-0.25,0.28-0.49,0.41-0.74c0.05-0.09,0.09-0.18,0.13-0.27c0.07-0.15,0.15-0.29,0.22-0.44     c1.73,0.64,3.41,1.4,5.03,2.25c3.9,2.05,7.42,4.68,10.39,7.79C219.97,75.21,221.38,76.97,222.66,78.81z" />
      <path style="fill:#D999FF;" d="M166.57,106.54c-4.61,5.68-12.76,7.82-18.55,4.87c-2.17-1.1-4.12-2.84-6.04-5.43     c-0.99-1.33-1.96-2.88-2.96-4.68c-0.19-0.33-0.36-0.66-0.53-0.98c-0.41-0.77-0.77-1.5-1.11-2.21c-0.62-1.33-1.11-2.58-1.5-3.78     h-0.01c-0.59-1.83-0.93-3.54-1.03-5.2c-0.24-4.12,1.21-7.97,3.8-10.04c2.02-1.61,4.54-2.13,6.94-2.13c2.24,0,4.37,0.45,5.87,0.87     c0.51,0.14,1.03,0.3,1.54,0.47c0.84,1.09,1.8,2.09,2.83,3.01c-1.1,0.97-2.07,2.15-2.91,3.22c-1.63,2.07-3.12,4.25-4.28,6.63     c-0.91,1.87,1.89,3.51,2.8,1.64c1.04-2.13,2.27-4.13,3.94-5.81c1.15-1.16,2.64-2.08,3.9-3.17c1.28,0.76,2.64,1.39,4.05,1.86     c0.3,0.1,0.61,0.2,0.92,0.28c1.91,0.54,3.91,0.81,5.9,0.81c0.17,0,0.34-0.01,0.52-0.01C171.97,94.55,170.53,101.65,166.57,106.54     z" />
      <path style="fill:#D999FF;" d="M232.86,112.56c-15.27-9.23-31.64-16.31-48.82-21.09c-1.95-0.56-3.91-1.07-5.88-1.56     c-0.09-1.4-0.24-2.81-0.48-4.25c0.38-0.2,0.74-0.42,1.09-0.66c0.52-0.23,0.95-0.58,1.29-1c0.79-0.7,1.49-1.51,2.06-2.4     c1.07-1.68,1.68-3.64,1.81-5.63c1.96-0.43,4.05-0.98,6.14-1.73c0.17,0.07,0.35,0.13,0.53,0.18c2.67,0.63,5.29,1.33,7.85,2.1     c11.9,3.6,22.48,8.67,30.4,14.61C231.29,98.09,232.45,105.49,232.86,112.56z" />
      <path style="fill:#D999FF;" d="M197.18,58.39c0,0.01,0,0.01,0,0.02c-0.1,0.56-0.25,1.11-0.46,1.63     c-1.38,3.55-4.84,5.65-6.79,6.58c-2.75,1.32-5.83,2.07-8.72,2.67c-1.29-1.67-2.81-3.17-4.51-4.43c-0.9-0.68-1.86-1.29-2.86-1.82     c0.57-2.06,0.59-4.43,0.97-6.46c0.55-2.86,1.39-5.56,2.69-8.17c0.95-1.93-1.92-3.64-2.91-1.7c-1.38,2.72-2.63,5.56-3.58,8.46     c-0.56,1.73-1.25,4.02-1.35,6.13c-2.08-0.57-3.99-0.61-6.26-0.38c-3.53-3.95-4.68-9.98-2.7-14.92c2.17-5.39,7.97-9.15,13.78-8.93     c3.33,0.12,6.91,1.4,11.28,4.01c2.54,1.52,4.63,3.07,6.31,4.68c1.26,1.2,2.28,2.44,3.09,3.73     C196.95,52.33,197.69,55.58,197.18,58.39z" />
      <path style="fill:#FFFFFF;" d="M226.4,120.92c-0.9,2.24-3,4.03-5.36,4.55c-0.34,0.07-0.62,0.33-0.73,0.66     c-0.11,0.34-0.03,0.7,0.21,0.96c2.82,3.14,3.93,6.75,3.03,9.91c-0.88,3.11-3.61,5.58-6.79,6.16c-0.33,0.06-0.62,0.29-0.74,0.61     c-0.12,0.32-0.07,0.68,0.14,0.95c2.49,3.28,3.33,6.98,2.3,10.17c-1.01,3.15-3.76,5.64-6.99,6.35c-0.34,0.07-0.61,0.31-0.72,0.63     c-0.12,0.32-0.06,0.68,0.15,0.94c2.28,2.87,3.14,6.3,2.31,9.18c-0.9,3.08-3.94,5.31-6.79,4.96c-0.3-0.04-0.59,0.06-0.8,0.27     c-0.22,0.2-0.33,0.49-0.3,0.78c0.2,2.63-0.86,4.88-2.9,6.18c-1.78,1.13-4.17,1.53-6.55,1.08c-2.1-0.39-4.23-1.4-6.35-3     c-0.25-0.18-0.57-0.24-0.86-0.16c-0.3,0.09-0.54,0.31-0.65,0.6c-0.97,2.5-3.95,4.31-7.26,4.41c-3.23,0.09-6.46-1.45-8.42-4.02     c-0.17-0.23-0.43-0.37-0.72-0.39c-0.28-0.01-0.56,0.09-0.76,0.3c-2.04,2.06-4.76,2.97-7.28,2.43c-2.47-0.53-4.6-2.43-5.41-4.82     c-0.1-0.29-0.33-0.52-0.62-0.62c-0.3-0.1-0.62-0.05-0.87,0.12c-3.25,2.23-5.89,3.16-8.29,2.95c-2.49-0.22-5.2-2.21-5.27-4.83     c-0.01-0.34-0.2-0.65-0.49-0.82s-0.66-0.18-0.96-0.02c-3.06,1.61-5.91,2.16-8.45,1.63c-2.83-0.59-5.09-2.68-5.48-5.08     c-0.06-0.34-0.3-0.63-0.62-0.76c-0.33-0.12-0.7-0.07-0.97,0.15c-2.24,1.8-5.6,1.85-8.18,0.12c-2.49-1.67-3.92-4.79-3.56-7.76     c0.03-0.28-0.06-0.57-0.25-0.78c-0.19-0.21-0.48-0.34-0.76-0.32c-1.7,0.04-3.68,0.03-5.51-0.53c-1.87-0.58-3.29-1.73-3.89-3.13     c-0.89-2.08-0.04-4.63,0.91-7.05c0.13-0.34,0.07-0.71-0.16-0.99c-0.22-0.27-0.58-0.41-0.93-0.34c-2.32,0.42-4.95-1.14-6.13-3.64     c-1.14-2.44-0.72-5.59,1.03-7.64c0.23-0.27,0.3-0.63,0.19-0.96c-0.11-0.33-0.39-0.57-0.73-0.65c-3.01-0.65-5.12-3.99-4.61-7.28     c0.5-3.24,3.46-5.91,6.73-6.09c0.38-0.02,0.71-0.25,0.86-0.6c0.14-0.35,0.08-0.75-0.17-1.03c-1.36-1.53-1.65-3.45-1.65-4.78     c-0.01-1.95,0.63-3.64,1.77-4.66c1.09-0.98,2.8-1.45,4.69-1.28c1.81,0.17,3.59,0.85,5.32,1.51c0.31,0.12,0.67,0.07,0.94-0.14     c0.27-0.2,0.42-0.53,0.39-0.87c-0.3-3.3,2-6.63,5.12-7.43c3.1-0.79,6.73,1.04,7.93,4c0.19,0.46,0.68,0.71,1.15,0.59     c0.48-0.12,0.8-0.57,0.75-1.06c-0.28-2.66,0.74-5.09,2.59-6.2c0.68-0.4,1.46-0.62,2.25-0.66c0.01,0.02,0.02,0.03,0.03,0.05     c0.17,0.33,0.35,0.66,0.54,1c2.03,3.66,5.19,8.69,10.09,11.9c0.6,0.4,1.24,0.77,1.9,1.11c0.32,0.16,0.65,0.31,0.97,0.45     c0.1,0.05,0.21,0.09,0.31,0.13c0.23,0.1,0.46,0.19,0.69,0.28c0.12,0.04,0.23,0.08,0.35,0.12c0.24,0.09,0.48,0.17,0.73,0.24     c0.1,0.03,0.19,0.06,0.29,0.09c0.33,0.1,0.67,0.19,1.02,0.27c0.06,0.01,0.13,0.03,0.2,0.04c0.28,0.06,0.56,0.12,0.84,0.17     c0.12,0.02,0.23,0.04,0.35,0.06c0.24,0.03,0.48,0.07,0.73,0.1c0.12,0.01,0.23,0.03,0.35,0.04c0.28,0.03,0.56,0.05,0.84,0.07     c0.08,0,0.15,0.01,0.23,0.02c0.35,0.01,0.71,0.02,1.07,0.02c0.02,0,0.04,0.01,0.06,0.01c0.05,0,0.11-0.01,0.17-0.01     c0.31,0,0.61-0.01,0.92-0.03c0.11,0,0.22-0.01,0.33-0.01c0.32-0.03,0.65-0.05,0.97-0.09c0.06-0.01,0.12-0.01,0.17-0.02     c0.38-0.04,0.76-0.1,1.14-0.16c0.09-0.01,0.18-0.03,0.27-0.05c0.3-0.05,0.6-0.11,0.9-0.18c0.1-0.02,0.2-0.04,0.3-0.07     c0.75-0.18,1.5-0.39,2.24-0.65c0.1-0.03,0.19-0.06,0.28-0.1c0.3-0.1,0.59-0.21,0.88-0.33c0.08-0.03,0.17-0.07,0.26-0.1     c0.36-0.15,0.72-0.31,1.08-0.48c0.04-0.02,0.07-0.04,0.1-0.05c0.32-0.16,0.64-0.32,0.96-0.49c0.09-0.05,0.19-0.1,0.28-0.15     c0.28-0.16,0.56-0.32,0.84-0.49c0.07-0.04,0.14-0.08,0.2-0.12c0.34-0.21,0.68-0.43,1-0.66c0.07-0.04,0.13-0.09,0.2-0.14     c0.26-0.18,0.52-0.38,0.78-0.57c0.09-0.07,0.18-0.14,0.27-0.21c0.27-0.22,0.54-0.44,0.8-0.67c0.05-0.03,0.09-0.07,0.13-0.11     c0.31-0.26,0.6-0.54,0.89-0.82c0.08-0.07,0.15-0.14,0.22-0.22c0.22-0.22,0.44-0.44,0.65-0.67c0.08-0.09,0.16-0.17,0.24-0.26     c0.27-0.3,0.54-0.61,0.8-0.93c3.1-3.83,5.05-8.58,5.8-13.85c1.85,0.47,3.69,0.97,5.52,1.5c15.22,4.36,29.77,10.59,43.44,18.59     C227,118.49,226.85,119.77,226.4,120.92z" />
      <path style="fill:#D999FF;" d="M176.84,75.5c-0.04,0.81-0.28,1.62-0.71,2.28c-0.23,0.37-0.53,0.69-0.86,0.98     c-2.64,0.98-5.57,1.18-8.31,0.56c-0.47-0.1-0.93-0.23-1.39-0.38c-2.43-0.81-4.63-2.29-6.32-4.2c-0.02-0.08-0.03-0.15-0.05-0.23     c-0.35-1.13-0.45-2.09-0.3-2.88c0.08-0.39,0.22-0.76,0.43-1.11c0.38-0.61,1.15-1.52,3.49-2.37h0.04c3.41-0.48,4.74-0.4,7.6,1.13     c0.95,0.51,1.84,1.11,2.67,1.81C174.62,72.32,175.88,73.82,176.84,75.5z" />
      <path style="fill:#CAD0FC;" d="M228.229,121.648c-0.954,2.395-2.909,4.323-5.283,5.287c2.567,3.381,3.478,7.181,2.503,10.608     c-0.949,3.331-3.627,6.071-6.89,7.18c2.232,3.497,2.885,7.356,1.783,10.772c-1.078,3.34-3.766,6.068-7.049,7.261     c2.03,3.118,2.707,6.69,1.807,9.786c-1.058,3.643-4.348,6.275-7.79,6.413c-0.091,2.902-1.451,5.371-3.828,6.885     c-2.2,1.401-5.104,1.898-7.973,1.363c-2.073-0.385-4.157-1.283-6.209-2.671c-1.585,2.662-4.841,4.443-8.496,4.546     c-0.109,0.003-0.219,0.005-0.327,0.005c-3.383,0-6.728-1.484-9.018-3.969c-2.406,2.022-5.44,2.856-8.303,2.242     c-2.726-0.586-5.118-2.474-6.376-4.952c-2.249,1.422-5.301,2.915-8.574,2.624c-2.879-0.254-6.005-2.289-6.851-5.297     c-3.029,1.362-5.901,1.77-8.552,1.218c-3.064-0.641-5.608-2.719-6.627-5.281c-2.81,1.523-6.455,1.339-9.319-0.585     c-2.773-1.862-4.488-5.178-4.485-8.51h-0.001c-1.678,0-3.413-0.12-5.071-0.632c-2.43-0.751-4.299-2.298-5.127-4.242     c-0.983-2.305-0.468-4.755,0.367-7.135c-2.688-0.22-5.36-2.087-6.641-4.812c-1.288-2.741-1.069-6.042,0.48-8.608     c-3.287-1.444-5.363-5.219-4.768-9.065c0.553-3.565,3.442-6.594,6.907-7.495c-0.759-1.346-1.157-2.942-1.164-4.697     c-0.009-2.509,0.875-4.745,2.425-6.135c1.506-1.35,3.76-1.997,6.19-1.775c1.586,0.144,3.073,0.604,4.51,1.128     c0.339-3.681,3.054-7.096,6.59-8.002c3.037-0.779,6.368,0.314,8.521,2.537c0.467-2.148,1.662-3.966,3.382-4.993     c0.715-0.427,1.498-0.703,2.303-0.845c-0.043-0.088-0.086-0.177-0.128-0.264c-0.036-0.075-0.07-0.15-0.105-0.225     c-0.115-0.242-0.227-0.484-0.334-0.722c-0.038-0.083-0.076-0.166-0.113-0.249c-0.133-0.298-0.262-0.594-0.384-0.887     c-0.015-0.035-0.028-0.07-0.043-0.105c-0.079-0.191-0.158-0.381-0.233-0.569c-1.163-0.073-2.319-0.108-3.466-0.108     c-9.17,0-17.793,2.281-25.212,6.708c-11.214,6.686-18.704,18.203-19.672,29.917c0.012,2.552,0.112,5.112,0.302,7.672     c1.255,7.926,5.348,15.978,11.649,22.697c6.339,6.754,15.021,12.562,26.543,17.754c28.908,13.039,61.837,16.655,92.9,10.234     c11.523-20.186,18.177-42.623,19.78-66.719c0.127-1.896,0.214-3.876,0.253-5.915c-1.368-0.872-2.744-1.728-4.131-2.564     C228.848,119.545,228.636,120.628,228.229,121.648z" />
      <path style="fill:#9CA8E2;" d="M180.229,213.759c-11.948,0-23.833-1.445-35.13-4.342c-20.788-5.331-40.56-15.906-56.637-30.156     c0.003,0.012,0.006,0.024,0.009,0.036c8.85,17.39,29.268,30.111,57.55,35.84c24.492,4.96,51.449,3.866,70.726-2.83     c0.785-1.22,1.537-2.475,2.273-3.747l-0.423,0.115C206.189,212.062,193.172,213.759,180.229,213.759z" />
      <path style="fill:#9CA8E2;" d="M216.019,200.27c-11.018,2.4-22.275,3.588-33.525,3.588c-22.434,0-44.847-4.72-65.335-13.961     c-12.389-5.584-21.811-11.92-28.804-19.37c-0.932-0.994-1.818-2.012-2.664-3.046c0.357,1.635,0.723,3.251,1.096,4.846     c16.312,15.853,37.212,27.605,59.293,33.267c22.673,5.814,47.805,5.614,70.846-0.555c7.802-10.107,12.805-22.36,14.474-35.003     c-3.395,9.925-7.754,19.461-13.071,28.556C217.827,199.45,216.99,200.059,216.019,200.27z" />
      <path style="fill:#2D0303;" d="M152.91,84.527c-1.635,2.075-3.116,4.258-4.277,6.635c-0.912,1.867,1.882,3.512,2.799,1.636     c1.039-2.126,2.263-4.125,3.937-5.812c1.149-1.159,2.644-2.078,3.896-3.167c-1.227-0.722-2.379-1.566-3.446-2.51     C154.718,82.282,153.751,83.461,152.91,84.527z" />
      <path style="fill:#2D0303;" d="M177.499,48.406c0.956-1.929-1.92-3.635-2.905-1.698c-1.382,2.719-2.635,5.561-3.58,8.462     c-0.562,1.728-1.252,4.018-1.358,6.133c1.283,0.351,2.625,0.9,4.148,1.712c0.014,0.007,0.027,0.016,0.041,0.023     c0.568-2.058,0.581-4.426,0.969-6.458C175.36,53.717,176.203,51.02,177.499,48.406z" />
      <path style="fill:#2D0303;" d="M239.608,107.572c-0.397-3.955-1.012-7.731-1.851-11.308     c-2.623-11.196-7.415-20.488-14.243-27.619c-5.186-5.416-11.739-9.575-19.08-12.144c-0.025-3.654-1.155-7.457-3.27-10.806     c-2.506-3.968-6.352-7.47-11.757-10.704c-5.428-3.253-10.088-4.849-14.664-5.021c-8.834-0.332-17.328,5.173-20.633,13.384     c-2.666,6.633-1.672,14.328,2.291,20.142c-1.312,0.93-2.34,2.03-3.133,3.334c-0.454,0.744-0.802,1.535-1.056,2.357     c-0.383,0.412-0.76,0.83-1.13,1.255c-6.707-1.366-12.639-0.294-16.882,3.104c-4.423,3.542-6.833,9.527-6.447,16.014     c0.041,0.675,0.113,1.349,0.209,2.028c-11.002-0.263-21.408,2.361-30.344,7.693c-12.643,7.538-21.258,20.434-22.94,33.823     c-0.128,0.364-0.202,0.753-0.205,1.161c-0.001,0.279,0.001,0.559,0.002,0.838c-0.072,0.981-0.108,1.963-0.103,2.944     c0.008,1.972,0.169,3.947,0.467,5.916c1.019,13.132,4,26.031,6.835,37.433c0.062,0.252,0.152,0.495,0.268,0.727     c9.753,19.568,32.009,33.765,62.669,39.975c10.608,2.149,21.68,3.206,32.462,3.206c15.819,0,31.015-2.275,43.207-6.715     c0.713-0.26,1.324-0.742,1.743-1.374c9.488-14.3,15.658-32.041,18.339-52.733c2.247-17.338,2.031-36.313-0.642-56.397     C239.696,107.908,239.656,107.738,239.608,107.572z M198.876,69.061c0.125-0.116,0.247-0.235,0.367-0.353     c0.095-0.093,0.189-0.186,0.281-0.281c0.119-0.121,0.235-0.244,0.35-0.368c0.087-0.095,0.176-0.19,0.262-0.285     c0.114-0.128,0.223-0.257,0.333-0.387c0.08-0.096,0.162-0.19,0.24-0.287c0.11-0.136,0.215-0.274,0.321-0.411     c0.072-0.094,0.146-0.187,0.216-0.282c0.109-0.15,0.213-0.301,0.317-0.454c0.06-0.086,0.121-0.17,0.179-0.257     c0.127-0.192,0.247-0.387,0.365-0.582c0.03-0.049,0.062-0.097,0.091-0.147c0.144-0.243,0.281-0.49,0.412-0.739     c0.046-0.088,0.087-0.177,0.131-0.266c0.074-0.148,0.151-0.296,0.22-0.445c5.933,2.216,11.215,5.646,15.423,10.041     c1.582,1.651,2.996,3.413,4.273,5.254c-7.084-3.831-15.214-7.1-23.933-9.607C198.776,69.158,198.825,69.109,198.876,69.061z      M228.846,91.134c2.441,6.961,3.606,14.36,4.012,21.43c-17.005-10.284-35.364-17.889-54.7-22.655     c-0.085-1.397-0.236-2.813-0.474-4.247c0.373-0.198,0.734-0.421,1.085-0.657c0.519-0.236,0.955-0.582,1.291-1     c0.791-0.705,1.49-1.511,2.061-2.402c1.068-1.679,1.683-3.643,1.806-5.632c1.963-0.435,4.057-0.978,6.139-1.73     c0.173,0.072,0.351,0.134,0.538,0.178C205.68,77.982,219.233,83.909,228.846,91.134z M160.699,46.004     c2.171-5.395,7.974-9.152,13.777-8.936c3.333,0.125,6.917,1.401,11.28,4.017c4.429,2.65,7.504,5.398,9.401,8.402     c1.796,2.844,2.534,6.091,2.025,8.908c0,0.004-0.001,0.008-0.002,0.013c-0.099,0.56-0.252,1.109-0.456,1.631     c-1.382,3.555-4.846,5.647-6.791,6.578c-2.75,1.322-5.833,2.07-8.723,2.67c-1.985-2.564-4.504-4.714-7.366-6.249     c-0.145,0.526-0.317,1.036-0.552,1.51c-0.745,1.505-2.844,0.92-3.322-0.434c-0.297-0.842-0.366-1.808-0.315-2.811     c-2.072-0.567-3.988-0.613-6.253-0.379C159.874,56.97,158.717,50.937,160.699,46.004z M158.904,71.635     c0.076-0.397,0.217-0.76,0.431-1.111c0.376-0.618,1.147-1.522,3.484-2.373c0.014-0.002,0.028-0.002,0.042-0.004     c3.406-0.48,4.736-0.393,7.6,1.136c2.658,1.417,4.891,3.603,6.383,6.217c-0.043,0.81-0.287,1.616-0.711,2.282     c-0.233,0.364-0.529,0.693-0.864,0.982c-3.084,1.148-6.581,1.219-9.702,0.179c-2.422-0.808-4.622-2.289-6.317-4.206     c-0.018-0.075-0.029-0.149-0.052-0.222C158.85,73.384,158.751,72.417,158.904,71.635z M138.639,79.09     c2.016-1.614,4.544-2.128,6.944-2.128c2.238,0,4.365,0.446,5.867,0.864c0.511,0.142,1.025,0.301,1.536,0.475     c0.842,1.091,1.8,2.093,2.833,3.008c0.9-0.795,1.889-1.456,2.985-1.785c1.883-0.564,2.734,1.69,1.735,2.981     c-0.369,0.477-0.806,0.907-1.275,1.314c1.286,0.757,2.643,1.39,4.055,1.861c2.19,0.73,4.505,1.093,6.822,1.093     c0.171,0,0.342-0.009,0.514-0.013c1.312,7.787-0.125,14.892-4.086,19.777c-4.608,5.686-12.756,7.827-18.552,4.872     c-3.283-1.671-6.06-4.791-9.003-10.113c-0.182-0.33-0.358-0.653-0.526-0.972c-0.409-0.772-0.773-1.506-1.105-2.216     c-0.622-1.332-1.119-2.574-1.509-3.778c0-0.001-0.001-0.002-0.001-0.003c-0.593-1.832-0.931-3.533-1.032-5.195     C134.598,85.01,136.052,81.162,138.639,79.09z M132.259,103.734c0.175,0.328,0.353,0.66,0.54,0.998     c2.279,4.123,6.003,9.956,11.995,13.008c0.319,0.162,0.642,0.312,0.968,0.455c0.101,0.045,0.204,0.086,0.307,0.129     c0.23,0.096,0.462,0.188,0.695,0.275c0.114,0.043,0.229,0.085,0.344,0.125c0.242,0.085,0.487,0.164,0.732,0.239     c0.096,0.03,0.191,0.062,0.288,0.09c0.337,0.098,0.677,0.187,1.018,0.267c0.067,0.014,0.134,0.027,0.2,0.042     c0.28,0.061,0.561,0.118,0.843,0.168c0.118,0.02,0.235,0.039,0.353,0.057c0.242,0.038,0.483,0.072,0.726,0.102     c0.119,0.014,0.237,0.029,0.356,0.041c0.278,0.029,0.556,0.052,0.835,0.069c0.077,0.005,0.153,0.013,0.229,0.017     c0.355,0.018,0.711,0.028,1.068,0.029c0.02,0,0.04,0.002,0.06,0.002c0.058,0,0.115-0.005,0.173-0.005     c0.307-0.003,0.615-0.012,0.924-0.027c0.108-0.006,0.217-0.012,0.325-0.019c0.325-0.021,0.649-0.049,0.973-0.084     c0.058-0.007,0.115-0.011,0.173-0.017c0.381-0.045,0.761-0.101,1.14-0.164c0.089-0.015,0.177-0.033,0.266-0.049     c0.3-0.055,0.601-0.115,0.9-0.182c0.1-0.021,0.199-0.043,0.297-0.066c0.756-0.179,1.506-0.395,2.246-0.65     c0.094-0.032,0.187-0.066,0.281-0.099c0.292-0.105,0.584-0.215,0.873-0.331c0.086-0.036,0.173-0.069,0.259-0.104     c0.365-0.152,0.727-0.311,1.086-0.481c0.034-0.016,0.066-0.034,0.1-0.05c0.322-0.154,0.641-0.318,0.957-0.487     c0.094-0.05,0.187-0.102,0.28-0.154c0.282-0.156,0.562-0.318,0.839-0.486c0.069-0.041,0.138-0.081,0.207-0.124     c0.338-0.21,0.671-0.428,1-0.655c0.064-0.045,0.128-0.092,0.192-0.138c0.265-0.188,0.528-0.38,0.786-0.579     c0.09-0.069,0.179-0.138,0.268-0.208c0.271-0.215,0.539-0.436,0.803-0.663c0.043-0.038,0.088-0.074,0.131-0.112     c0.302-0.264,0.597-0.539,0.886-0.819c0.075-0.073,0.149-0.148,0.223-0.223c0.22-0.219,0.436-0.444,0.649-0.672     c0.079-0.086,0.158-0.171,0.237-0.258c0.273-0.303,0.541-0.611,0.799-0.93c3.103-3.827,5.052-8.584,5.797-13.854     c17.236,4.389,33.653,11.132,48.964,20.096c0.147,1.241,0.004,2.518-0.454,3.664c-0.894,2.245-2.997,4.032-5.357,4.553     c-0.343,0.075-0.62,0.327-0.727,0.662c-0.108,0.334-0.029,0.7,0.206,0.961c2.827,3.139,3.932,6.751,3.033,9.91     c-0.884,3.105-3.611,5.577-6.787,6.153c-0.337,0.061-0.619,0.293-0.743,0.614c-0.125,0.319-0.073,0.681,0.135,0.954     c2.494,3.275,3.336,6.98,2.308,10.166c-1.016,3.149-3.762,5.641-6.996,6.346c-0.333,0.072-0.605,0.311-0.719,0.631     c-0.115,0.322-0.056,0.679,0.156,0.946c2.277,2.869,3.137,6.301,2.301,9.179c-0.896,3.083-3.935,5.308-6.786,4.959     c-0.295-0.037-0.587,0.062-0.801,0.266c-0.214,0.204-0.325,0.493-0.303,0.788c0.2,2.624-0.855,4.873-2.894,6.171     c-1.782,1.135-4.171,1.532-6.552,1.088c-2.096-0.391-4.232-1.399-6.348-2.999c-0.247-0.188-0.568-0.247-0.866-0.162     c-0.298,0.085-0.538,0.305-0.649,0.595c-0.963,2.502-3.947,4.314-7.259,4.409c-3.228,0.093-6.454-1.449-8.415-4.017     c-0.173-0.226-0.436-0.367-0.722-0.386c-0.28-0.014-0.564,0.088-0.764,0.292c-2.034,2.065-4.755,2.973-7.277,2.431     c-2.472-0.531-4.596-2.422-5.41-4.816c-0.099-0.292-0.329-0.522-0.622-0.62c-0.293-0.097-0.615-0.052-0.869,0.123     c-3.251,2.223-5.889,3.158-8.29,2.949c-2.488-0.22-5.2-2.213-5.271-4.83c-0.009-0.342-0.193-0.654-0.487-0.825     c-0.295-0.172-0.657-0.18-0.958-0.022c-3.064,1.614-5.908,2.163-8.457,1.631c-2.829-0.591-5.081-2.678-5.477-5.075     c-0.058-0.346-0.294-0.636-0.622-0.761c-0.327-0.124-0.697-0.067-0.97,0.153c-2.235,1.8-5.598,1.845-8.179,0.112     c-2.485-1.668-3.915-4.786-3.56-7.756c0.034-0.284-0.057-0.569-0.25-0.781c-0.192-0.211-0.478-0.342-0.753-0.323     c-1.707,0.04-3.682,0.035-5.512-0.53c-1.875-0.58-3.295-1.721-3.895-3.13c-0.886-2.078-0.034-4.621,0.914-7.048     c0.13-0.333,0.07-0.711-0.157-0.986c-0.227-0.276-0.585-0.408-0.938-0.344c-2.32,0.422-4.951-1.142-6.122-3.635     c-1.149-2.446-0.727-5.59,1.029-7.645c0.225-0.264,0.296-0.627,0.185-0.955c-0.11-0.329-0.386-0.576-0.725-0.65     c-3.01-0.657-5.123-3.992-4.612-7.281c0.501-3.238,3.457-5.912,6.728-6.088c0.378-0.019,0.71-0.255,0.857-0.603     c0.146-0.35,0.08-0.751-0.171-1.035c-1.354-1.53-1.643-3.442-1.648-4.777c-0.008-1.945,0.637-3.643,1.769-4.658     c1.098-0.985,2.807-1.452,4.693-1.279c1.809,0.165,3.592,0.847,5.316,1.507c0.319,0.122,0.676,0.071,0.948-0.135     c0.271-0.205,0.418-0.536,0.387-0.875c-0.297-3.295,1.998-6.626,5.118-7.425c3.099-0.793,6.73,1.039,7.933,4.001     c0.184,0.456,0.676,0.705,1.152,0.587c0.476-0.119,0.793-0.569,0.743-1.059c-0.272-2.663,0.747-5.097,2.596-6.202     c0.678-0.404,1.455-0.622,2.245-0.664C132.238,103.696,132.249,103.715,132.259,103.734z M216.747,212.307     c-19.277,6.696-46.234,7.79-70.726,2.83c-28.282-5.729-48.7-18.45-57.55-35.84c-0.003-0.012-0.006-0.024-0.009-0.036     c16.077,14.25,35.849,24.825,56.637,30.156c11.297,2.897,23.182,4.342,35.13,4.342c12.943,0,25.96-1.697,38.368-5.084     l0.423-0.115C218.284,209.832,217.532,211.087,216.747,212.307z M216.926,205.039c-23.041,6.169-48.173,6.369-70.846,0.555     c-22.081-5.662-42.981-17.414-59.293-33.267c-0.373-1.595-0.739-3.211-1.096-4.846c0.846,1.034,1.732,2.052,2.664,3.046     c6.993,7.45,16.415,13.786,28.804,19.37c20.488,9.241,42.901,13.961,65.335,13.961c11.25,0,22.507-1.188,33.525-3.588     c0.971-0.211,1.808-0.82,2.31-1.678c5.317-9.095,9.676-18.631,13.071-28.556C229.73,182.679,224.728,194.932,216.926,205.039z      M232.759,126.936c-1.603,24.096-8.257,46.533-19.78,66.719c-31.063,6.421-63.992,2.805-92.9-10.234     c-11.522-5.192-20.204-11-26.543-17.754c-6.301-6.719-10.394-14.771-11.649-22.697c-0.19-2.56-0.29-5.12-0.302-7.672     c0.968-11.714,8.458-23.231,19.672-29.917c7.419-4.427,16.042-6.708,25.212-6.708c1.147,0,2.303,0.035,3.466,0.108     c0.075,0.188,0.154,0.378,0.233,0.569c0.015,0.035,0.028,0.07,0.043,0.105c0.122,0.293,0.251,0.589,0.384,0.887     c0.037,0.083,0.075,0.166,0.113,0.249c0.107,0.238,0.219,0.48,0.334,0.722c0.035,0.075,0.069,0.15,0.105,0.225     c0.042,0.087,0.085,0.176,0.128,0.264c-0.805,0.142-1.588,0.418-2.303,0.845c-1.72,1.027-2.915,2.845-3.382,4.993     c-2.153-2.223-5.484-3.316-8.521-2.537c-3.536,0.906-6.251,4.321-6.59,8.002c-1.437-0.524-2.924-0.984-4.51-1.128     c-2.43-0.222-4.684,0.425-6.19,1.775c-1.55,1.39-2.434,3.626-2.425,6.135c0.007,1.755,0.405,3.351,1.164,4.697     c-3.465,0.901-6.354,3.93-6.907,7.495c-0.595,3.846,1.481,7.621,4.768,9.065c-1.549,2.566-1.768,5.867-0.48,8.608     c1.281,2.725,3.953,4.592,6.641,4.812c-0.835,2.38-1.35,4.83-0.367,7.135c0.828,1.944,2.697,3.491,5.127,4.242     c1.658,0.512,3.393,0.632,5.071,0.632h0.001c-0.003,3.332,1.712,6.648,4.485,8.51c2.864,1.924,6.509,2.108,9.319,0.585     c1.019,2.562,3.563,4.64,6.627,5.281c2.651,0.552,5.523,0.144,8.552-1.218c0.846,3.008,3.972,5.043,6.851,5.297     c3.273,0.291,6.325-1.202,8.574-2.624c1.258,2.478,3.65,4.366,6.376,4.952c2.863,0.614,5.897-0.22,8.303-2.242     c2.29,2.485,5.635,3.969,9.018,3.969c0.108,0,0.218-0.002,0.327-0.005c3.655-0.103,6.911-1.884,8.496-4.546     c2.052,1.388,4.136,2.286,6.209,2.671c2.869,0.535,5.773,0.038,7.973-1.363c2.377-1.514,3.737-3.983,3.828-6.885     c3.442-0.138,6.732-2.77,7.79-6.413c0.9-3.096,0.223-6.668-1.807-9.786c3.283-1.193,5.971-3.921,7.049-7.261     c1.102-3.416,0.449-7.275-1.783-10.772c3.263-1.109,5.941-3.849,6.89-7.18c0.975-3.427,0.064-7.227-2.503-10.608     c2.374-0.964,4.329-2.892,5.283-5.287c0.407-1.02,0.619-2.103,0.652-3.191c1.387,0.836,2.763,1.692,4.131,2.564     C232.973,123.06,232.886,125.04,232.759,126.936z" />
      <path style="fill:#2D0303;" d="M160.54,82.505c0.999-1.291,0.148-3.545-1.735-2.981c-1.097,0.329-2.085,0.99-2.985,1.785     c1.066,0.945,2.219,1.789,3.446,2.51C159.734,83.412,160.171,82.982,160.54,82.505z" />
      <path style="fill:#2D0303;" d="M169.655,61.302c-0.051,1.003,0.018,1.97,0.315,2.811c0.478,1.354,2.577,1.939,3.322,0.434     c0.235-0.474,0.407-0.984,0.552-1.51c-0.014-0.007-0.027-0.016-0.041-0.023C172.28,62.203,170.938,61.654,169.655,61.302z" />
      <path style="fill:#FFA1A1;" d="M192.434,131.774c-2.73-5.213-0.04-12.006,6.008-15.173c6.048-3.167,13.163-1.508,15.893,3.705     c2.73,5.213,0.04,12.006-6.008,15.173S195.163,136.987,192.434,131.774" />
      <path style="fill:#FFA1A1;" d="M132.981,162.906c-2.729-5.213-0.04-12.006,6.008-15.173c6.048-3.167,13.164-1.508,15.894,3.704     c2.729,5.213,0.039,12.007-6.008,15.174C142.827,169.777,135.711,168.119,132.981,162.906" />
      <path style="fill:#AE71E2;" d="M141.98,105.98c1.68,0.5,3.54,1.31,4.77,1.49c5.95,0.84,11.39-3.86,14.19-9.17     c2.01-3.79,3.13-8.05,3.3-12.34c1.91,0.54,3.91,0.81,5.9,0.81c0.17,0,0.34-0.01,0.52-0.01c1.31,7.79-0.13,14.89-4.09,19.78     c-4.61,5.68-12.76,7.82-18.55,4.87C145.85,110.31,143.9,108.57,141.98,105.98z" />
      <path style="fill:#AE71E2;" d="M166.96,79.32c1.73-1.3,3.34-2.75,4.55-4.54c0.75-1.11,1.32-2.38,1.62-3.69     c1.49,1.23,2.75,2.73,3.71,4.41c-0.04,0.81-0.28,1.62-0.71,2.28c-0.23,0.37-0.53,0.69-0.86,0.98     C172.63,79.74,169.7,79.94,166.96,79.32z" />
      <path style="fill:#E9EDFF;" d="M177.89,97.16c1.85,0.47,3.69,0.97,5.52,1.5c-0.36,4.63-0.86,9.23-2.75,13.43     c-2.77,6.19-8.54,10.94-15.14,12.47c-6.6,1.53-13.88-0.19-19.09-4.51c-1.09-0.91-2.34-2.09-3.54-3.42c0.6,0.4,1.24,0.77,1.9,1.11     c0.32,0.16,0.65,0.31,0.97,0.45c0.1,0.05,0.21,0.09,0.31,0.13c0.23,0.1,0.46,0.19,0.69,0.28c0.12,0.04,0.23,0.08,0.35,0.12     c0.24,0.09,0.48,0.17,0.73,0.24c0.1,0.03,0.19,0.06,0.29,0.09c0.33,0.1,0.67,0.19,1.02,0.27c0.06,0.01,0.13,0.03,0.2,0.04     c0.28,0.06,0.56,0.12,0.84,0.17c0.12,0.02,0.23,0.04,0.35,0.06c0.24,0.03,0.48,0.07,0.73,0.1c0.12,0.01,0.23,0.03,0.35,0.04     c0.28,0.03,0.56,0.05,0.84,0.07c0.08,0,0.15,0.01,0.23,0.02c0.35,0.01,0.71,0.02,1.07,0.02c0.02,0,0.04,0.01,0.06,0.01     c0.05,0,0.11-0.01,0.17-0.01c0.31,0,0.61-0.01,0.92-0.03c0.11,0,0.22-0.01,0.33-0.01c0.32-0.03,0.65-0.05,0.97-0.09     c0.06-0.01,0.12-0.01,0.17-0.02c0.38-0.04,0.76-0.1,1.14-0.16c0.09-0.01,0.18-0.03,0.27-0.05c0.3-0.05,0.6-0.11,0.9-0.18     c0.1-0.02,0.2-0.04,0.3-0.07c0.75-0.18,1.5-0.39,2.24-0.65c0.1-0.03,0.19-0.06,0.28-0.1c0.3-0.1,0.59-0.21,0.88-0.33     c0.08-0.03,0.17-0.07,0.26-0.1c0.36-0.15,0.72-0.31,1.08-0.48c0.04-0.02,0.07-0.04,0.1-0.05c0.32-0.16,0.64-0.32,0.96-0.49     c0.09-0.05,0.19-0.1,0.28-0.15c0.28-0.16,0.56-0.32,0.84-0.49c0.07-0.04,0.14-0.08,0.2-0.12c0.34-0.21,0.68-0.43,1-0.66     c0.07-0.04,0.13-0.09,0.2-0.14c0.26-0.18,0.52-0.38,0.78-0.57c0.09-0.07,0.18-0.14,0.27-0.21c0.27-0.22,0.54-0.44,0.8-0.67     c0.05-0.03,0.09-0.07,0.13-0.11c0.31-0.26,0.6-0.54,0.89-0.82c0.08-0.07,0.15-0.14,0.22-0.22c0.22-0.22,0.44-0.44,0.65-0.67     c0.08-0.09,0.16-0.17,0.24-0.26c0.27-0.3,0.54-0.61,0.8-0.93C175.19,107.18,177.14,102.43,177.89,97.16z" />
      <path style="fill:#AE71E2;" d="M198.45,76.52c-3.16,1.91-6.73,3.12-10.38,3.54c0.49,2.68-0.2,5.56-1.85,7.73     c-0.64,0.84-1.42,1.59-1.84,2.55c-0.16,0.36-0.27,0.74-0.34,1.13c-1.95-0.56-3.91-1.07-5.88-1.56c-0.09-1.4-0.24-2.81-0.48-4.25     c0.38-0.2,0.74-0.42,1.09-0.66c0.52-0.23,0.95-0.58,1.29-1c0.79-0.7,1.49-1.51,2.06-2.4c1.07-1.68,1.68-3.64,1.81-5.63     c1.96-0.43,4.05-0.98,6.14-1.73c0.17,0.07,0.35,0.13,0.53,0.18C193.27,75.05,195.89,75.75,198.45,76.52z" />
      <path style="fill:#AE71E2;" d="M176.7,64.86c5.57-1.22,10.6-4.92,13.25-9.99c1.46-2.8,2.16-5.96,2.12-9.11     c1.26,1.2,2.28,2.44,3.09,3.73c1.79,2.84,2.53,6.09,2.02,8.9c0,0.01,0,0.01,0,0.02c-0.1,0.56-0.25,1.11-0.46,1.63     c-1.38,3.55-4.84,5.65-6.79,6.58c-2.75,1.32-5.83,2.07-8.72,2.67C179.92,67.62,178.4,66.12,176.7,64.86z" />
      <path style="fill:#9CA8E2;" d="M207.99,65.77c-0.29,0.72-0.63,1.41-1.01,2.09c-0.64,1.15-1.38,2.23-2.21,3.24     c-1.98-0.67-4-1.31-6.05-1.9c0.06-0.04,0.1-0.09,0.16-0.14c0.12-0.12,0.24-0.23,0.36-0.35c0.1-0.1,0.19-0.19,0.28-0.28     c0.12-0.12,0.24-0.25,0.35-0.37c0.09-0.1,0.18-0.19,0.27-0.29c0.11-0.12,0.22-0.25,0.33-0.38c0.08-0.1,0.16-0.19,0.24-0.29     c0.11-0.14,0.21-0.27,0.32-0.41c0.07-0.1,0.15-0.19,0.22-0.28c0.1-0.15,0.21-0.3,0.31-0.46c0.06-0.08,0.12-0.17,0.18-0.25     c0.13-0.2,0.25-0.39,0.37-0.59c0.03-0.05,0.06-0.09,0.09-0.14c0.14-0.25,0.28-0.49,0.41-0.74c0.05-0.09,0.09-0.18,0.13-0.27     c0.07-0.15,0.15-0.29,0.22-0.44C204.69,64.16,206.37,64.92,207.99,65.77z" />
    </g>
    <g>
      <path style="fill:#2D0303;" d="M172.066,138.859c-2.16,1.131-4.836,1.276-7.213,0.381c-0.816-0.308-1.227-1.218-0.92-2.034     c0.307-0.816,1.216-1.228,2.033-0.92c1.596,0.6,3.374,0.491,4.773-0.299c1.397-0.79,2.422-2.271,2.742-3.961     c0.162-0.857,0.988-1.42,1.844-1.258c0.857,0.162,1.42,0.988,1.258,1.845c-0.491,2.592-2.095,4.88-4.289,6.122     C172.218,138.777,172.142,138.819,172.066,138.859" />
      <path style="fill:#2D0303;" d="M158.789,138.447c-0.939,0.492-2.125,0.365-2.943-0.4c-1.927-1.803-3.994-2.199-5.039-1.658     c-0.002,0.001-0.004,0.003-0.007,0.004c-1.038,0.543-1.894,2.449-1.525,5.045c0.2,1.403-0.776,2.701-2.178,2.901     c-1.402,0.2-2.701-0.776-2.901-2.178c-0.652-4.583,1.006-8.627,4.224-10.312c0.009-0.005,0.018-0.009,0.028-0.014     c3.232-1.674,7.512-0.706,10.903,2.466c1.034,0.967,1.088,2.59,0.121,3.625C159.269,138.143,159.038,138.317,158.789,138.447" />
      <path style="fill:#2D0303;" d="M192.068,121.021c-0.939,0.491-2.125,0.365-2.942-0.4c-1.928-1.803-3.995-2.199-5.04-1.658     c-0.002,0.001-0.004,0.002-0.006,0.003c-1.039,0.544-1.895,2.45-1.525,5.046c0.199,1.403-0.777,2.7-2.178,2.901     c-1.403,0.199-2.702-0.776-2.901-2.178c-0.652-4.584,1.005-8.627,4.223-10.313c0.01-0.005,0.018-0.009,0.028-0.014     c3.233-1.674,7.512-0.705,10.903,2.467c1.034,0.967,1.089,2.59,0.121,3.625C192.548,120.716,192.317,120.89,192.068,121.021" />
    </g>
  </g>
</svg>