<?xml version='1.0' encoding='utf-8'?>
<svg xmlns="http://www.w3.org/2000/svg" version="1.1" viewBox="-71.37 -71.372 570.3779999999999 578.584" width="570.3779999999999" height="578.584">
  <g>
    <g>
      <path style="fill:#D999FF;" d="M460.077,192.143c1.531,1.335,3.147,2.745,4.825,4.274c-0.578-3.849-1.304-7.383-2.177-11.203     c-0.257-1.119,0.045-2.294,0.808-3.153c0.763-0.857,1.899-1.293,3.037-1.17c3.976,0.431,7.853,0.565,11.69,0.395     c-4.172-2.931-8.448-6.242-13.017-10.069c-3.499,0.867-7.086,1.189-10.598,1.286c0.411,4.238-0.146,8.528-1.694,13.139     C455.156,187.851,457.56,189.948,460.077,192.143z" />
      <path style="fill:#9CA8E2;" d="M312.396,93.166c3.803,0.415,7.449,1.591,10.77,3.505c1.362,0.785,3.158,1.868,4.658,3.183     c0.771-1.465,1.631-2.888,2.588-4.26c-2.902-7.214-10.918-12.267-18.681-11.625c-8.067,0.667-15.399,7.451-16.691,15.442     c-0.213,1.318-0.18,2.273,0.097,2.838c0.346,0.704,1.396,1.291,2.612,1.461c1.613,0.225,3.523-0.135,5.37-0.483     c1.557-0.293,3.118,0.48,3.83,1.894c0.711,1.414,0.401,3.129-0.761,4.204c-0.589,0.544-0.95,1.449-0.968,2.422     c-0.018,0.974,0.311,1.891,0.879,2.456c0.569,0.565,1.491,0.888,2.461,0.866c0.973-0.023,1.877-0.39,2.418-0.981     c0.881-0.964,2.22-1.367,3.486-1.048c1.266,0.318,2.256,1.306,2.577,2.571c0.37,1.46,1.583,2.751,3.017,3.213     c1.021,0.329,2.195,0.244,3.205-0.18c-0.001-0.073-0.003-0.15-0.002-0.223c0.009-4.941,0.899-9.729,2.601-14.21     c-0.233-0.279-0.468-0.566-0.719-0.858c-1.074-1.247-2.246-2.37-3.597-3.316c-2.719-1.905-5.855-3.07-9.15-3.467     C310.252,96.312,310.212,92.927,312.396,93.166z" />
      <path style="fill:#D999FF;" d="M344.461,55.268c-2.037-1.563-4.229-2.113-5.708-2.299c-0.024-0.003-0.047-0.006-0.071-0.01     c-0.362-0.043-0.726-0.071-1.081-0.083c-0.164-0.006-0.327-0.009-0.492-0.009c-1.481,0-3.008,0.229-4.993,0.739     c-0.133,0.034-0.334,0.086-0.46,0.518c-0.498,1.714-0.773,3.046-0.891,4.321c-0.213,2.298,0.132,4.528,1.001,6.451     c0.966,2.141,2.683,4,4.375,4.738c1.221,0.531,2.177,0.329,2.465,0.013c0.175-0.19,0.299-0.592,0.33-1.075     c0.035-0.531-0.018-1.41-0.467-2.611c-0.529-1.412-0.108-3.005,1.049-3.972c1.159-0.966,2.8-1.097,4.096-0.324     c0.776,0.463,1.612,0.767,2.355,0.858c0.459,0.057,0.876,0.03,1.176-0.075c0.719-0.25,0.807-1.076,0.812-1.42     C347.981,59.293,346.478,56.816,344.461,55.268z" />
      <path style="fill:#9CA8E2;" d="M473.664,76.305c-6.087,2.681-10.951,8.633-12.987,15.762c0.685,0.92,1.334,1.865,1.953,2.831     c2.039-4.777,6.507-8.996,10.444-11.478c2.115-1.334,4.038,2,1.952,3.338c-2.685,1.72-4.948,3.935-6.529,6.719     c-1.226,2.158-1.891,4.557-2.88,6.814c1.587,3.358,2.789,6.911,3.533,10.597c2.103-1.055,3.754-3.242,3.853-5.533     c0.054-1.259,0.773-2.395,1.886-2.985c1.113-0.591,2.457-0.546,3.529,0.117c0.726,0.448,1.712,0.568,2.707,0.325     c0.994-0.241,1.817-0.799,2.255-1.53c0.439-0.731,0.544-1.72,0.288-2.711c-0.255-0.991-0.824-1.806-1.561-2.234     c-1.494-0.869-2.147-2.689-1.542-4.31c0.602-1.62,2.284-2.572,3.986-2.25c3.997,0.754,8.845,1.304,10.876-1.16     c1.785-2.166,0.545-6.277-1.732-8.759C489.008,74.753,480.586,73.259,473.664,76.305z" />
      <path style="fill:#E9EDFF;" d="M453.9,148.45c-0.56,0.88-1.15,1.76-1.76,2.64c-1.98,2.86-4.23,5.7-6.73,8.51l-0.62-0.62     c-0.27-0.26-0.54-0.52-0.81-0.79c-1.91-1.88-4.12-4.03-8.28-7.98c-1.42-1.35-3.67-1.3-5.02,0.13c-1.35,1.42-1.29,3.67,0.13,5.02     c3.32,3.15,5.38,5.14,7.05,6.78c0.7,0.68,1.33,1.3,1.95,1.91c0.23,0.23,0.47,0.46,0.7,0.69c-0.55,0.55-1.12,1.09-1.69,1.63     c-8.06,7.64-18.04,15.03-29.89,22.13c-27.12-9.48-47.76-21.17-61.37-34.75c-4.98-4.98-8.93-10.15-11.78-15.39     c-1.02-1.88-1.9-3.77-2.63-5.66c-1.86-4.76-2.8-9.54-2.79-14.27c0.03-14.44,9.08-26.83,23.05-31.57     c3.75-1.27,7.66-1.91,11.62-1.91c4.25,0,8.55,0.73,12.79,2.19c9.45,3.25,18.04,9.84,25.54,19.58c1.19,1.56,3.42,1.85,4.98,0.65     c1.55-1.19,1.84-3.42,0.65-4.98c-2.68-3.48-5.5-6.61-8.45-9.37c6.89-10.22,17.75-14.73,30.02-12.37     c9.07,1.74,17.21,6.84,23.06,13.89c0.22,0.43,0.53,0.82,0.91,1.14c3.95,5.11,6.73,11.15,7.86,17.64     C464.33,124.52,461.39,136.67,453.9,148.45z" />
      <path style="fill:#2D0303;" d="M470.802,69.805c-6.751,2.973-12.334,8.911-15.479,16.185     c-6.445-6.195-14.557-10.618-23.421-12.318c-14.752-2.83-28.335,2.668-36.827,14.758c-4.706-3.524-9.7-6.201-14.948-8.005     c-6.709-2.308-13.578-3.064-20.247-2.269c-1.858-1.767-3.717-3.533-5.577-5.3c-1.39-1.32-2.778-2.64-4.168-3.962     c2.966-1.328,4.876-4.301,4.924-7.767c0.056-4.015-2.407-8.526-6.273-11.493h-0.001c-2.588-1.987-5.719-3.266-9.057-3.702     l-0.088-0.011c-0.601-0.076-1.207-0.124-1.8-0.145c-2.326-0.078-4.634,0.215-7.495,0.951c-2.664,0.686-4.724,2.71-5.509,5.414     c-0.629,2.163-0.982,3.906-1.143,5.647c-0.328,3.52,0.225,6.989,1.599,10.031c1.702,3.77,4.697,6.882,8.012,8.326     c1.435,0.624,2.899,0.929,4.305,0.929c2.415,0,4.651-0.901,6.233-2.626c0.285-0.311,0.543-0.645,0.774-0.999     c1.599,1.519,3.197,3.038,4.796,4.557c0.703,0.669,1.407,1.338,2.11,2.006c-0.132,0.043-0.265,0.081-0.397,0.126     c-5.978,2.027-11.317,5.292-15.716,9.572c-4.881-8.306-14.552-13.624-24.264-12.821c-11.36,0.941-21.298,10.136-23.116,21.389     c-0.293,1.812-0.536,4.52,0.733,7.103c1.403,2.854,4.395,4.859,8.004,5.364c0.469,0.065,0.932,0.105,1.391,0.125     c-0.022,0.248-0.034,0.498-0.039,0.749c-0.052,2.912,1.031,5.69,2.973,7.621c1.942,1.932,4.729,2.996,7.637,2.93     c1.198-0.029,2.365-0.247,3.452-0.637c1.43,1.875,3.414,3.316,5.7,4.052c1.153,0.372,2.348,0.553,3.539,0.553     c0.836,0,1.668-0.1,2.483-0.276c1.557,9.07,6.359,20.653,18.64,32.913c14.637,14.611,36.719,27.052,65.632,36.98     c0.376,0.128,0.766,0.192,1.154,0.192c0.627,0,1.25-0.167,1.803-0.492c13.859-8.166,25.384-16.788,34.477-25.77     c0.521,0.501,1.082,1.037,1.692,1.62c0.808,4.375,0.244,8.835-1.749,13.905c-0.499,1.27-0.227,2.714,0.702,3.715     c2.849,3.071,5.912,5.743,9.155,8.572c3.676,3.205,7.477,6.52,11.503,10.861c0.688,0.741,1.637,1.137,2.606,1.137     c0.477,0,0.96-0.097,1.416-0.295c1.384-0.603,2.235-2.014,2.124-3.518c-0.496-6.741-1.313-12.082-2.384-17.336     c6.244,0.328,12.315-0.044,18.431-1.125c1.457-0.256,2.602-1.392,2.874-2.847c0.27-1.456-0.391-2.927-1.658-3.692     c-7-4.219-13.965-9.335-21.92-16.095c-0.928-0.788-2.194-1.046-3.356-0.686c-4.267,1.328-9.027,1.551-13.605,1.534     c-0.325-0.31-0.632-0.604-0.929-0.889c3.611-4.031,6.746-8.128,9.389-12.285c7.153-11.255,10.601-22.929,10.132-34.112     c4.078-1.157,7.51-4.246,9.111-8.16c1.205,0.109,2.445,0.022,3.661-0.274c2.828-0.688,5.259-2.43,6.669-4.781     c1.29-2.151,1.727-4.817,1.235-7.415c3.594-0.103,7.488-1.092,10.2-4.384c4.492-5.449,2.332-13.381-1.98-18.08     C492.248,67.778,480.419,65.57,470.802,69.805z M347.145,62.448c-0.3,0.105-0.717,0.132-1.176,0.075     c-0.743-0.091-1.579-0.395-2.355-0.858c-1.296-0.773-2.937-0.642-4.096,0.324c-1.157,0.967-1.578,2.56-1.049,3.972     c0.449,1.201,0.502,2.08,0.467,2.611c-0.031,0.483-0.155,0.885-0.33,1.075c-0.288,0.316-1.244,0.518-2.465-0.013     c-1.692-0.738-3.409-2.597-4.375-4.738c-0.869-1.923-1.214-4.153-1.001-6.451c0.118-1.275,0.393-2.607,0.891-4.321     c0.126-0.432,0.327-0.484,0.46-0.518c1.985-0.51,3.512-0.739,4.993-0.739c0.165,0,0.328,0.003,0.492,0.009     c0.355,0.012,0.719,0.04,1.081,0.083c0.024,0.004,0.047,0.007,0.071,0.01c1.479,0.186,3.671,0.736,5.708,2.299     c2.017,1.548,3.52,4.025,3.496,5.76C347.952,61.372,347.864,62.198,347.145,62.448z M454.645,172.503     c3.512-0.097,7.099-0.419,10.598-1.286c4.569,3.827,8.845,7.138,13.017,10.069c-3.837,0.17-7.714,0.036-11.69-0.395     c-1.138-0.123-2.274,0.313-3.037,1.17c-0.763,0.859-1.065,2.034-0.808,3.153c0.873,3.82,1.599,7.354,2.177,11.203     c-1.678-1.529-3.294-2.939-4.825-4.274c-2.517-2.195-4.921-4.292-7.126-6.501C454.499,181.031,455.056,176.741,454.645,172.503z      M312.396,96.57c3.295,0.397,6.431,1.562,9.15,3.467c1.351,0.946,2.523,2.069,3.597,3.316c0.251,0.292,0.486,0.579,0.719,0.858     c-1.702,4.481-2.592,9.269-2.601,14.21c-0.001,0.073,0.001,0.15,0.002,0.223c-1.01,0.424-2.184,0.509-3.205,0.18     c-1.434-0.462-2.647-1.753-3.017-3.213c-0.321-1.265-1.311-2.253-2.577-2.571c-1.266-0.319-2.605,0.084-3.486,1.048     c-0.541,0.591-1.445,0.958-2.418,0.981c-0.97,0.022-1.892-0.301-2.461-0.866c-0.568-0.565-0.897-1.482-0.879-2.456     c0.018-0.973,0.379-1.878,0.968-2.422c1.162-1.075,1.472-2.79,0.761-4.204c-0.712-1.414-2.273-2.187-3.83-1.894     c-1.847,0.348-3.757,0.708-5.37,0.483c-1.216-0.17-2.266-0.757-2.612-1.461c-0.277-0.565-0.31-1.52-0.097-2.838     c1.292-7.991,8.624-14.775,16.691-15.442c7.763-0.642,15.779,4.411,18.681,11.625c-0.957,1.372-1.817,2.795-2.588,4.26     c-1.5-1.315-3.296-2.398-4.658-3.183c-3.321-1.914-6.967-3.09-10.77-3.505C310.212,92.927,310.252,96.312,312.396,96.57z      M453.904,148.451c-2.39,3.76-5.226,7.477-8.491,11.145c-0.21-0.207-0.417-0.41-0.622-0.612     c-2.131-2.095-4.334-4.261-9.087-8.776c-1.421-1.351-3.669-1.295-5.02,0.128c-1.352,1.422-1.294,3.67,0.128,5.02     c4.709,4.475,6.89,6.619,8.999,8.694c0.232,0.227,0.466,0.458,0.703,0.69c-8.339,8.219-18.894,16.165-31.582,23.76     c-27.119-9.48-47.763-21.168-61.372-34.752c-11.272-11.252-17.218-23.463-17.196-35.314c0.027-14.44,9.072-26.833,23.042-31.57     c3.755-1.273,7.666-1.91,11.628-1.91c4.243,0,8.545,0.729,12.783,2.187c9.45,3.25,18.043,9.839,25.54,19.583     c1.196,1.554,3.424,1.845,4.98,0.65c1.555-1.196,1.845-3.426,0.65-4.982c-2.681-3.483-5.5-6.61-8.45-9.373     c6.898-10.223,17.758-14.724,30.027-12.372c9.065,1.74,17.206,6.84,23.058,13.892c0.221,0.436,0.533,0.824,0.912,1.139     c3.951,5.112,6.73,11.155,7.853,17.641C464.327,124.518,461.393,136.667,453.904,148.451z M495.427,88.617     c-2.031,2.464-6.879,1.914-10.876,1.16c-1.702-0.322-3.384,0.63-3.986,2.25c-0.605,1.621,0.048,3.441,1.542,4.31     c0.737,0.428,1.306,1.243,1.561,2.234c0.256,0.991,0.151,1.98-0.288,2.711c-0.438,0.731-1.261,1.289-2.255,1.53     c-0.995,0.243-1.981,0.123-2.707-0.325c-1.072-0.663-2.416-0.708-3.529-0.117c-1.113,0.59-1.832,1.726-1.886,2.985     c-0.099,2.291-1.75,4.478-3.853,5.533c-0.744-3.686-1.946-7.239-3.533-10.597c0.989-2.257,1.654-4.656,2.88-6.814     c1.581-2.784,3.844-4.999,6.529-6.719c2.086-1.338,0.163-4.672-1.952-3.338c-3.937,2.482-8.405,6.701-10.444,11.478     c-0.619-0.966-1.268-1.911-1.953-2.831c2.036-7.129,6.9-13.081,12.987-15.762c6.922-3.046,15.344-1.552,20.031,3.553     C495.972,82.34,497.212,86.451,495.427,88.617z" />
      <path style="fill:#CAD0FC;" d="M439.81,164.05c0.23,0.23,0.47,0.46,0.7,0.69c-0.55,0.55-1.12,1.09-1.69,1.63     c-8.06,7.64-18.04,15.03-29.89,22.13c-27.12-9.48-47.76-21.17-61.37-34.75c-4.98-4.98-8.93-10.15-11.78-15.39     c9.35,9.83,36.69,35.32,67.61,33.5c14.87-0.87,26.19-5,34.47-9.72C438.56,162.82,439.19,163.44,439.81,164.05z" />
      <path style="fill:#CAD0FC;" d="M452.14,151.09c-1.98,2.86-4.23,5.7-6.73,8.51l-0.62-0.62c-0.27-0.26-0.54-0.52-0.81-0.79     C447.47,155.66,450.17,153.16,452.14,151.09z" />
      <path style="fill:#FFA1A1;" d="M425.827,136.095c-0.612-5.852,4.396-11.172,11.186-11.883c6.79-0.71,12.79,3.458,13.402,9.311     c0.612,5.852-4.396,11.172-11.185,11.883C432.44,146.116,426.439,141.948,425.827,136.095" />
      <path style="fill:#FFA1A1;" d="M359.082,143.079c-0.612-5.853,4.396-11.173,11.185-11.883c6.79-0.711,12.791,3.458,13.403,9.31     c0.613,5.852-4.395,11.173-11.185,11.884C365.695,153.1,359.694,148.932,359.082,143.079" />
    </g>
    <g>
      <path style="fill:#BF1B4E;" d="M411.416,131.494c-5.188,2.455-10.091,3.044-14.607,1.76c-0.02,0.623,0.004,1.257,0.071,1.895     c0.203,1.936,0.782,3.708,1.619,5.186c1.517-1.345,3.895-2.34,6.394-2.643c2.316-0.28,4.714,0.038,6.529,0.833     c0.409-1.503,0.555-3.186,0.372-4.937C411.72,132.874,411.593,132.174,411.416,131.494z" />
      <path style="fill:#F2385C;" d="M405.035,138.868c-2.352,0.285-4.569,1.223-5.89,2.477c1.618,2.253,3.896,3.574,6.27,3.325     c2.517-0.263,4.563-2.229,5.638-5.017C409.425,138.905,407.203,138.606,405.035,138.868z" />
      <path style="fill:#2D0303;" d="M412.956,129.782c-0.086-0.248-0.268-0.45-0.505-0.564c-0.236-0.113-0.508-0.127-0.756-0.04     c-0.138,0.05-0.298,0.129-0.589,0.273c-5.367,2.671-10.363,3.193-14.846,1.551c-0.283-0.103-0.598-0.072-0.855,0.085     c-0.257,0.156-0.428,0.423-0.464,0.722c-0.141,1.151-0.149,2.344-0.023,3.545c0.707,6.762,5.509,11.822,10.702,11.279     c5.194-0.544,8.844-6.487,8.136-13.25C413.626,132.14,413.356,130.928,412.956,129.782z M405.415,144.67     c-2.374,0.249-4.652-1.072-6.27-3.325c1.321-1.254,3.538-2.192,5.89-2.477c2.168-0.262,4.39,0.037,6.018,0.785     C409.978,142.441,407.932,144.407,405.415,144.67z M411.422,138.525c-1.815-0.795-4.213-1.113-6.529-0.833     c-2.499,0.303-4.877,1.298-6.394,2.643c-0.837-1.478-1.416-3.25-1.619-5.186c-0.067-0.638-0.091-1.272-0.071-1.895     c4.516,1.284,9.419,0.695,14.607-1.76c0.177,0.68,0.304,1.38,0.378,2.094C411.977,135.339,411.831,137.022,411.422,138.525z" />
      <path style="fill:#2D0303;" d="M383.973,120.011c-0.011,0.001-0.02,0.002-0.031,0.003c-3.613,0.378-6.646,3.524-7.733,8.024     c-0.332,1.378,0.515,2.763,1.893,3.096c1.376,0.332,2.763-0.514,3.095-1.891c0.615-2.55,2.114-4.004,3.28-4.126     c0.002,0,0.005-0.001,0.007-0.001c1.171-0.118,2.945,1.013,4.071,3.4c0.478,1.014,1.533,1.568,2.587,1.458     c0.279-0.029,0.559-0.105,0.827-0.231c1.281-0.605,1.83-2.133,1.227-3.415C391.215,122.128,387.595,119.649,383.973,120.011z" />
      <path style="fill:#2D0303;" d="M421.334,116.102c-0.011,0.001-0.02,0.002-0.031,0.003c-3.613,0.378-6.646,3.524-7.733,8.024     c-0.332,1.377,0.515,2.763,1.893,3.096c1.377,0.331,2.762-0.514,3.095-1.891c0.615-2.55,2.114-4.005,3.28-4.126     c0.002-0.001,0.005-0.001,0.007-0.001c1.172-0.118,2.945,1.013,4.071,3.4c0.478,1.014,1.533,1.568,2.587,1.458     c0.279-0.029,0.559-0.105,0.827-0.231c1.281-0.605,1.83-2.133,1.227-3.415C428.576,118.219,424.956,115.74,421.334,116.102z" />
    </g>
  </g>
</svg>