<?xml version='1.0' encoding='utf-8'?>
<svg xmlns="http://www.w3.org/2000/svg" version="1.1" viewBox="-68.793 -56.819 552.0559999999999 516.815" width="552.0559999999999" height="516.815">
  <g>
    <g>
      <path style="fill:#9CA8E2;" d="M383.383,334.758c2.892,3.712,5.318,7.74,7.537,11.775c0.481-0.38,0.959-0.752,1.438-1.12     C389.854,341.403,386.809,337.802,383.383,334.758z" />
      <path style="fill:#CAD0FC;" d="M449.996,400.894c8.874-10.77,13.351-23.789,12.285-35.719     c-0.847-9.474-5.35-18.132-11.962-23.839c-0.735-0.456-1.485-0.882-2.255-1.267c-0.214-0.108-0.425-0.207-0.636-0.307     c-0.37-0.034-0.736-0.124-1.085-0.274c-4.353-1.879-9.209-2.829-14.452-2.781h-0.023c-0.371,0-0.734-0.06-1.079-0.171     c-3.622,0.114-7.295,0.689-10.937,1.722c-8.471,2.401-16.99,7.164-26.046,14.56c-0.623,0.508-1.374,0.756-2.12,0.756     c-0.973,0-1.936-0.421-2.6-1.233c-0.548-0.673-0.79-1.493-0.748-2.296c-3.803-7.068-8.122-14.233-14.367-19.506     c-2.433-2.053-5.522-3.981-8.946-5.273c-0.166-0.037-0.332-0.079-0.498-0.115c-3.143-0.669-6.393-0.893-9.661-0.664     c-0.378,0.026-0.751-0.013-1.11-0.103c-9.204,0.919-17.636,5.356-22.717,12.005c-4.167,5.446-6.627,12.846-6.926,20.834     c-0.253,6.858,0.964,14.304,3.721,22.76c7.956,24.44,24.852,45.554,46.819,58.793c15.267-2.726,30.046-7.591,43.948-14.483     C432.384,417.461,442.654,409.807,449.996,400.894z" />
      <path style="fill:#E9EDFF;" d="M367.967,318.669l3.096-15.228c1.838-9.04,7.085-16.823,14.774-21.913     c7.693-5.092,16.906-6.882,25.939-5.045c9.036,1.839,16.818,7.085,21.912,14.773c5.093,7.694,6.884,16.906,5.046,25.941     l-2.555,12.574c3.095,0.262,6.074,0.83,8.914,1.701l2.535-12.468c2.322-11.414,0.057-23.048-6.375-32.759v-0.001     c-6.429-9.71-16.255-16.335-27.668-18.656c-11.411-2.319-23.045-0.055-32.76,6.375c-9.711,6.429-16.337,16.256-18.657,27.669     l-3.19,15.696c2.372,0.092,4.722,0.385,7.027,0.875C366.659,318.343,367.314,318.498,367.967,318.669z" />
      <path style="fill:#9CA8E2;" d="M466.209,364.8l0.003,0.024c1.157,12.955-3.643,27.016-13.17,38.58     c-7.704,9.35-18.396,17.339-32.688,24.424c-6.562,3.254-13.316,6.064-20.221,8.425c6.388-1.749,12.714-3.739,18.83-6.172     c14.27-5.678,25.646-13.159,33.811-22.235c9.503-10.558,14.719-23.718,14.311-36.104     C467.006,369.394,466.705,367.069,466.209,364.8z" />
      <path style="fill:#2D0303;" d="M451.741,334.424l2.848-14.005c2.699-13.273,0.066-26.802-7.413-38.095     c-7.477-11.292-18.904-18.998-32.176-21.697c-13.268-2.697-26.799-0.065-38.097,7.413c-11.292,7.478-18.997,18.905-21.696,32.177     l-3.589,17.662c-10.564,1.404-19.898,6.571-25.908,14.435c-5.075,6.633-7.945,15.159-8.3,24.66     c-0.283,7.662,1.04,15.869,4.045,25.087c9.147,28.098,29.412,52.069,55.597,65.765c0.497,0.26,1.029,0.383,1.553,0.383     c0.282,0,0.562-0.039,0.832-0.108c0.014,0,0.026,0.002,0.039,0.002c0.248,0,0.5-0.028,0.752-0.086     c13.665-3.129,27.795-6.364,41.215-11.703c15.238-6.063,27.457-14.131,36.318-23.981c10.651-11.834,16.493-26.71,16.028-40.813     C473.263,355.708,464.636,341.242,451.741,334.424z M362.168,301.632c2.32-11.413,8.946-21.24,18.657-27.669     c9.715-6.43,21.349-8.694,32.76-6.375c11.413,2.321,21.239,8.946,27.668,18.656v0.001c6.432,9.711,8.697,21.345,6.375,32.759     l-2.535,12.468c-2.84-0.871-5.819-1.439-8.914-1.701l2.555-12.574c1.838-9.035,0.047-18.247-5.046-25.941     c-5.094-7.688-12.876-12.934-21.912-14.773c-9.033-1.837-18.246-0.047-25.939,5.045c-7.689,5.09-12.936,12.873-14.774,21.913     l-3.096,15.228c-0.653-0.171-1.308-0.326-1.962-0.466c-2.305-0.49-4.655-0.783-7.027-0.875L362.168,301.632z M374.693,321.236     l3.33-16.379c1.461-7.182,5.628-13.364,11.735-17.407c6.11-4.043,13.425-5.468,20.602-4.006     c7.179,1.46,13.36,5.628,17.406,11.734c4.044,6.11,5.468,13.428,4.007,20.604l-2.871,14.131c-3.622,0.237-7.27,0.867-10.88,1.891     c-6.702,1.9-13.374,5.097-20.209,9.681C392.079,332.465,383.89,325.293,374.693,321.236z M392.358,345.413     c-0.479,0.368-0.957,0.74-1.438,1.12c-2.219-4.035-4.645-8.063-7.537-11.775C386.809,337.802,389.854,341.403,392.358,345.413z      M374.653,438.776c-21.967-13.239-38.863-34.353-46.819-58.793c-2.757-8.456-3.974-15.902-3.721-22.76     c0.299-7.988,2.759-15.388,6.926-20.834c5.081-6.649,13.513-11.086,22.717-12.005c0.359,0.09,0.732,0.129,1.11,0.103     c3.268-0.229,6.518-0.005,9.661,0.664c0.166,0.036,0.332,0.078,0.498,0.115c3.424,1.292,6.513,3.22,8.946,5.273     c6.245,5.273,10.564,12.438,14.367,19.506c-0.042,0.803,0.2,1.623,0.748,2.296c0.664,0.812,1.627,1.233,2.6,1.233     c0.746,0,1.497-0.248,2.12-0.756c9.056-7.396,17.575-12.159,26.046-14.56c3.642-1.033,7.315-1.608,10.937-1.722     c0.345,0.111,0.708,0.171,1.079,0.171h0.023c5.243-0.048,10.099,0.902,14.452,2.781c0.349,0.15,0.715,0.24,1.085,0.274     c0.211,0.1,0.422,0.199,0.636,0.307c0.77,0.385,1.52,0.811,2.255,1.267c6.612,5.707,11.115,14.365,11.962,23.839     c1.066,11.93-3.411,24.949-12.285,35.719c-7.342,8.913-17.612,16.567-31.395,23.399     C404.699,431.185,389.92,436.05,374.653,438.776z M452.774,407.846c-8.165,9.076-19.541,16.557-33.811,22.235     c-6.116,2.433-12.442,4.423-18.83,6.172c6.905-2.361,13.659-5.171,20.221-8.425c14.292-7.085,24.984-15.074,32.688-24.424     c9.527-11.564,14.327-25.625,13.17-38.58l-0.003-0.024c0.496,2.269,0.797,4.594,0.876,6.942     C467.493,384.128,462.277,397.288,452.774,407.846z" />
      <path style="fill:#FFA1A1;" d="M407.403,391.388c1.232-5.754,7.643-9.259,14.318-7.83c6.676,1.43,11.089,7.252,9.857,13.006     s-7.642,9.26-14.318,7.831C410.585,402.965,406.172,397.142,407.403,391.388" />
      <path style="fill:#FFA1A1;" d="M341.781,377.339c1.232-5.754,7.643-9.26,14.318-7.831c6.676,1.43,11.089,7.253,9.857,13.007     s-7.642,9.259-14.318,7.83C344.962,388.915,340.549,383.093,341.781,377.339" />
    </g>
    <g>
      <path style="fill:#2D0303;" d="M361.987,364.219c1.138-5.314,6.368-8.7,11.682-7.562c5.315,1.137,8.7,6.368,7.563,11.682     c-1.138,5.315-6.369,8.7-11.683,7.563C364.235,374.763,360.849,369.532,361.987,364.219" />
      <path style="fill:#FFFFFF;" d="M371.829,363.127c0.386-1.801,2.157-2.948,3.958-2.563c1.8,0.386,2.947,2.159,2.562,3.959     c-0.385,1.8-2.158,2.947-3.958,2.562C372.591,366.699,371.443,364.927,371.829,363.127" />
      <path style="fill:#FFFFFF;" d="M365.481,365.177c0.209-0.978,1.172-1.601,2.15-1.392c0.978,0.21,1.601,1.172,1.392,2.151     c-0.209,0.978-1.172,1.601-2.15,1.391C365.895,367.118,365.272,366.156,365.481,365.177" />
      <path style="fill:#2D0303;" d="M398.832,372.107c1.138-5.314,6.368-8.7,11.682-7.562s8.7,6.369,7.562,11.682     c-1.138,5.315-6.368,8.7-11.682,7.563C401.079,382.652,397.693,377.421,398.832,372.107" />
      <path style="fill:#FFFFFF;" d="M408.674,371.014c0.386-1.8,2.157-2.947,3.958-2.562c1.801,0.386,2.947,2.158,2.562,3.958     c-0.385,1.801-2.158,2.948-3.958,2.562C409.436,374.587,408.288,372.815,408.674,371.014" />
      <path style="fill:#FFFFFF;" d="M402.326,373.065c0.21-0.978,1.172-1.601,2.15-1.392c0.978,0.209,1.602,1.172,1.392,2.151     c-0.209,0.977-1.172,1.6-2.15,1.391C402.74,375.005,402.117,374.044,402.326,373.065" />
      <path style="fill:#2D0303;" d="M387.211,382.749c-2.386-0.511-4.536-2.108-5.792-4.316c-0.431-0.758-0.165-1.722,0.593-2.153     c0.757-0.43,1.72-0.167,2.152,0.592c0.842,1.481,2.283,2.539,3.861,2.82c1.58,0.286,3.314-0.199,4.641-1.295     c0.672-0.554,1.667-0.46,2.222,0.212c0.555,0.672,0.461,1.667-0.212,2.222c-2.033,1.681-4.73,2.416-7.211,1.968     C387.38,382.784,387.295,382.768,387.211,382.749" />
      <path style="fill:#2D0303;" d="M390.513,400.927c0.796-4.431-2.273-8.661-6.798-9.229c-4.036-0.505-7.873,2.246-8.697,6.228     c-0.47,2.265,0.083,4.487,1.329,6.214c0.718,0.993,0.898,2.275,0.489,3.431l-3.105,8.773c-0.772,2.178,0.594,4.527,2.868,4.936     l4.339,0.78c2.274,0.408,4.372-1.32,4.407-3.63l0.141-9.269c0.018-1.22,0.601-2.386,1.619-3.06     C388.837,404.954,390.117,403.133,390.513,400.927" />
    </g>
  </g>
</svg>