<?xml version='1.0' encoding='utf-8'?>
<svg xmlns="http://www.w3.org/2000/svg" version="1.1" viewBox="-49.442 -50.379 216.79000000000002 217.727" width="216.79000000000002" height="217.727">
  <g>
    <g>
      <g>
        <g>
          <g>
            <g>
              <path style="fill:#76DD9F;" d="M109.806,97.955c-4.68-7.432-9.864-14.104-13.763-32.204         c-3.601-16.717-17.066-17.22-17.066-17.22v0.002v-0.002c0,0-13.757-0.015-17.065,17.22         c-3.491,18.184-9.083,24.772-13.763,32.204c-4.679,7.432-12.935,24.497-5.779,39.911c7.156,15.413,28.9,18.991,36.607,18.991         v-0.003v0.003c7.706,0,29.451-3.578,36.608-18.991C122.741,122.452,114.483,105.387,109.806,97.955z" />
            </g>
            <g>
              <g>
                <g>
                  <path style="fill:#EFDE89;" d="M105.686,98.565c-4.053-6.599-8.823-12.464-11.925-28.594           c-3.099-16.13-14.784-15.4-14.784-15.4v0.002v-0.002c0,0-11.685-0.729-14.786,15.4c-3.101,16.13-7.87,21.995-11.924,28.594           c-4.055,6.599-11.209,21.752-5.008,35.439c6.2,13.685,25.041,16.815,31.718,16.815v-0.003v0.003           c6.677,0,25.518-3.131,31.717-16.815C116.895,120.317,109.741,105.164,105.686,98.565z" />
                </g>
              </g>
              <g>
                <path style="fill:#EAD475;" d="M105.686,98.565c-4.053-6.599-8.823-12.464-11.925-28.594          c-3.099-16.13-14.784-15.4-14.784-15.4v0.002v-0.002c0,0-0.885-0.053-2.226,0.201c3.547,0.671,10.309,3.498,12.558,15.199          c3.101,16.13,7.871,21.995,11.925,28.594c4.054,6.599,11.208,21.752,5.008,35.439c-5.607,12.377-21.555,16.12-29.491,16.723          c0.839,0.063,1.589,0.093,2.227,0.093v-0.003v0.003c6.677,0,25.518-3.131,31.717-16.815          C116.895,120.317,109.741,105.164,105.686,98.565z" />
              </g>
            </g>
          </g>
          <g>
            <g>
              <g>
                <path style="fill:#ED896E;" d="M92.738,127.802c0,7.6-6.161,13.761-13.761,13.761c-7.6,0-13.762-6.161-13.762-13.761          c0-7.601,6.161-13.762,13.762-13.762C86.577,114.04,92.738,120.201,92.738,127.802z" />
              </g>
              <g>
                <path style="fill:#E8775D;" d="M86.611,116.354c0.839,1.778,1.321,3.758,1.321,5.854c0,7.6-6.161,13.761-13.761,13.761          c-2.824,0-5.449-0.854-7.634-2.314c2.201,4.669,6.937,7.907,12.439,7.907c7.6,0,13.761-6.161,13.761-13.761          C92.738,123.026,90.304,118.822,86.611,116.354z" />
              </g>
            </g>
            <g>
              <path style="fill:#FFB7A0;" d="M75.385,125.973c-1.748,3.142-4.576,4.905-6.315,3.938c-1.739-0.969-1.732-4.301,0.017-7.444         c1.749-3.143,4.576-4.905,6.315-3.938C77.141,119.497,77.134,122.829,75.385,125.973z" />
            </g>
          </g>
          <path style="opacity:0.2;fill:#FFFFFF;" d="M67.341,54.115c-2.338,2.544-4.394,6.246-5.429,11.636       c-3.491,18.184-9.083,24.772-13.763,32.204c-3.106,4.934-7.785,14.116-8.488,24.241c4.653,5.008,10.443,7.98,16.721,7.98       c15.347,0,27.789-17.744,27.789-39.633C84.172,74.205,77.239,60.18,67.341,54.115z" />
        </g>
        <g>
          <g>
            <g>
              <path style="fill:#152F47;" d="M64.623,100.146c-0.284,0.564-0.468,1.177-0.537,1.759c-0.081,0.711,1.031,0.704,1.111,0         c0.183-1.556,1.244-2.851,2.889-2.83c1.666,0.021,2.415,1.899,2.381,3.28c-0.017,0.717,1.094,0.715,1.112,0         c0.055-2.207-1.105-4.415-3.493-4.392c-0.793,0.009-1.561,0.286-2.143,0.683C65.111,99.281,64.623,100.146,64.623,100.146z" />
            </g>
            <g>
              <path style="fill:#152F47;" d="M93.332,100.146c0.283,0.564,0.468,1.177,0.536,1.759c0.082,0.711-1.031,0.704-1.111,0         c-0.183-1.556-1.243-2.851-2.889-2.83c-1.665,0.021-2.415,1.899-2.381,3.28c0.017,0.717-1.094,0.715-1.112,0         c-0.054-2.207,1.105-4.415,3.493-4.392c0.793,0.009,1.561,0.286,2.142,0.683C92.844,99.281,93.332,100.146,93.332,100.146z" />
            </g>
          </g>
          <g>
            <g>
              <path style="fill:#152F47;" d="M66.984,94.19c0,0,0.044-0.278,0.286-0.589c0.123-0.156,0.291-0.326,0.52-0.451         c0.229-0.131,0.515-0.219,0.816-0.218c0.152-0.005,0.298,0.034,0.442,0.066c0.144,0.029,0.262,0.118,0.383,0.175         c0.223,0.149,0.39,0.323,0.491,0.5c0.12,0.157,0.155,0.327,0.194,0.432c0.031,0.111,0.04,0.178,0.04,0.178         s-0.066-0.023-0.17-0.068c-0.106-0.043-0.23-0.122-0.391-0.182c-0.15-0.074-0.322-0.128-0.49-0.189         c-0.171-0.03-0.334-0.082-0.504-0.066c-0.168-0.02-0.346,0.024-0.523,0.059c-0.182,0.038-0.354,0.1-0.518,0.148         C67.214,94.108,66.984,94.19,66.984,94.19z" />
            </g>
            <g>
              <path style="fill:#152F47;" d="M87.819,93.944c0,0,0.071-0.271,0.349-0.557c0.135-0.143,0.321-0.293,0.562-0.396         c0.238-0.104,0.534-0.164,0.833-0.13c0.152,0.009,0.293,0.065,0.435,0.108c0.139,0.046,0.246,0.146,0.362,0.214         c0.204,0.175,0.354,0.365,0.433,0.548c0.104,0.171,0.124,0.343,0.151,0.449c0.02,0.116,0.023,0.181,0.023,0.181         s-0.063-0.027-0.163-0.085c-0.1-0.049-0.219-0.145-0.369-0.219c-0.145-0.088-0.309-0.165-0.468-0.24         c-0.17-0.05-0.323-0.117-0.496-0.118c-0.167-0.034-0.347-0.009-0.527,0.004c-0.183,0.021-0.361,0.064-0.53,0.098         C88.057,93.886,87.819,93.944,87.819,93.944z" />
            </g>
          </g>
          <g>
            <g>
              <path style="fill:#152F47;" d="M76.633,102.605c0.339,0.488,0.83,0.91,1.383,1.132c1.258,0.507,2.39-0.148,3.263-1.052         c0.35-0.365-0.202-0.919-0.555-0.556c-0.687,0.712-1.552,1.302-2.54,0.829c-0.333-0.161-0.67-0.456-0.874-0.749         C77.023,101.799,76.343,102.188,76.633,102.605L76.633,102.605z" />
            </g>
          </g>
          <g>
            <g>
              <path style="fill:#FF81CE;" d="M69.643,105.788c0,1.403-1.138,2.541-2.541,2.541c-1.403,0-2.54-1.138-2.54-2.541         c0-1.402,1.137-2.54,2.54-2.54C68.505,103.248,69.643,104.386,69.643,105.788z" />
            </g>
            <g>
              <path style="fill:#FF81CE;" d="M93.394,105.788c0,1.403-1.138,2.541-2.54,2.541c-1.404,0-2.541-1.138-2.541-2.541         c0-1.402,1.137-2.54,2.541-2.54C92.256,103.248,93.394,104.386,93.394,105.788z" />
            </g>
          </g>
        </g>
      </g>
      <g>
        <g>
          <path style="fill:#152F47;" d="M78.977,157.348l-0.426-0.003c-4.216-0.064-11.347-1.071-18.262-3.745       c-8.896-3.441-15.246-8.811-18.365-15.527c-7.725-16.637,2.494-35.112,5.81-40.379c0.616-0.978,1.248-1.941,1.889-2.919       c4.121-6.288,8.793-13.414,11.808-29.115c1.742-9.076,6.397-13.383,9.995-15.398c3.921-2.195,7.405-2.221,7.552-2.221       c0.138,0,13.856,0.479,17.545,17.607C100,81.794,104.45,88.711,108.755,95.4c0.493,0.766,0.981,1.525,1.466,2.293       c3.315,5.267,13.532,23.742,5.81,40.379c-3.119,6.717-9.47,12.086-18.366,15.527c-6.88,2.661-13.973,3.671-18.196,3.744v0.001       l-0.115,0.001C79.225,157.347,79.1,157.348,78.977,157.348z M78.957,49.023c-0.121,0-13.363,0.153-16.563,16.82       c-3.052,15.892-7.779,23.104-11.951,29.469c-0.638,0.973-1.266,1.931-1.879,2.904c-3.249,5.16-13.266,23.254-5.75,39.442       c7.09,15.271,29.034,18.708,36.163,18.708v0.453v-0.453c7.128,0,29.072-3.438,36.163-18.708       c7.515-16.187-2.502-34.282-5.751-39.442c-0.481-0.766-0.969-1.523-1.46-2.286c-4.352-6.763-8.852-13.756-12.366-30.075       c-1.817-8.436-6.228-12.561-9.607-14.534c-3.363-1.965-6.408-2.259-6.922-2.295L78.957,49.023L78.957,49.023z" />
        </g>
      </g>
      <g>
        <g>
          <g>
            <path style="fill:#152F47;" d="M78.977,151.311l-0.415-0.004c-3.674-0.063-9.841-0.954-15.804-3.307        c-7.725-3.048-13.238-7.817-15.946-13.794c-6.702-14.793,2.161-31.216,5.036-35.897c0.513-0.833,1.036-1.654,1.566-2.486        c3.737-5.868,7.603-11.937,10.295-25.943c2.891-15.041,13.034-15.803,15.037-15.803c0.133,0,0.217,0.004,0.248,0.005        c-0.003-0.001,0.081-0.005,0.212-0.005c2.004,0,12.146,0.762,15.037,15.803c2.692,14.006,6.557,20.073,10.295,25.941        c0.53,0.833,1.054,1.654,1.565,2.488c2.876,4.682,11.738,21.104,5.037,35.897c-2.708,5.977-8.222,10.746-15.947,13.794        c-5.922,2.337-12.045,3.231-15.727,3.305v0.003l-0.217,0.001C79.158,151.31,79.067,151.311,78.977,151.311z M78.486,55.062        c-2.355,0.075-11.178,1.291-13.813,15.002C61.945,84.255,57.852,90.68,54.242,96.35c-0.527,0.827-1.048,1.644-1.557,2.473        c-2.812,4.577-11.481,20.626-4.979,34.978c3.285,7.252,10.195,11.228,15.413,13.287c6.065,2.392,12.333,3.241,15.858,3.241        v0.447v-0.447c3.525,0,9.792-0.85,15.858-3.241c5.218-2.06,12.128-6.035,15.413-13.287        c6.502-14.353-2.167-30.401-4.979-34.978c-0.51-0.829-1.03-1.647-1.558-2.475c-3.611-5.669-7.703-12.094-10.432-26.284        c-2.676-13.927-11.737-14.962-13.919-15.005L78.486,55.062z" />
          </g>
        </g>
      </g>
    </g>
    <g>
      <g>
        <path style="fill:#FFFFFF;" d="M67.206,71.179c0.224,2.523-0.251,5.188-0.819,7.629c-1.597,6.864-5.022,13.182-9.332,18.714      c-0.489,0.627,0.39,1.518,0.884,0.884c4.39-5.634,7.916-12.021,9.592-19.004c0.628-2.619,1.166-5.51,0.926-8.222      C68.386,70.384,67.135,70.377,67.206,71.179L67.206,71.179z" />
      </g>
      <path style="fill:#FFFFFF;" d="M56.057,101.22c0,0.437-0.354,0.792-0.792,0.792c-0.437,0-0.792-0.354-0.792-0.792     c0-0.437,0.354-0.792,0.792-0.792C55.703,100.428,56.057,100.783,56.057,101.22z" />
    </g>
  </g>
</svg>