<?xml version='1.0' encoding='utf-8'?>
<svg xmlns="http://www.w3.org/2000/svg" xmlns:ns1="http://www.w3.org/1999/xlink" version="1.1" viewBox="-68.282 -68.282 529.442 526.633" width="529.442" height="526.633">
  <g>
    <g>
      <g>
        <g>
          <g>
            <path style="fill:#B3E1F4;" d="M440.497,229.072h-22.485h-22.484c0,0-7.853-0.731-7.139,9.531        c0.714,10.264,6.781,58.282,29.623,58.282c22.843,0,28.911-48.019,29.624-58.282        C448.351,228.341,440.497,229.072,440.497,229.072z" />
          </g>
          <g>
            <g>
              <path style="fill:#B3E1F4;" d="M421.403,315.603v-23.001h-6.782v23.001c-6.941,0.641-12.134,3.2-12.134,6.266         c0,3.549,6.951,3.569,15.524,3.569c8.575,0,15.526-0.021,15.526-3.569C433.538,318.804,428.345,316.244,421.403,315.603z" />
            </g>
            <g>
              <path style="fill:#92D5EA;" d="M418.012,322.582c-7.314,0-13.434-0.023-15.075-2.232c-0.287,0.488-0.449,0.995-0.449,1.52         c0,3.549,6.951,3.569,15.524,3.569c8.575,0,15.526-0.021,15.526-3.569c0-0.524-0.162-1.031-0.449-1.52         C431.446,322.559,425.328,322.582,418.012,322.582z" />
            </g>
          </g>
          <g>
            <path style="fill:#FFC9E2;" d="M430.983,244.254c-8.332,4.061-7.142,6.416-22.617,1.51c-5.994-1.9-10.983-1.768-14.853-0.896        c1.171,11.696,6.776,46.372,24.499,46.372c19.04,0,24.098-40.024,24.691-48.579c0.011-0.147,0.003-0.272,0.009-0.415        C438.53,240.67,436.753,241.443,430.983,244.254z" />
          </g>
          <g style="opacity:0.1;">
            <path style="fill:#C1422D;" d="M440.497,229.072h-1.631c0.219,1.079,0.305,2.358,0.199,3.886        c-0.714,10.264-6.781,58.282-29.624,58.282c-1.539,0-3-0.225-4.392-0.635c3.564,3.861,7.84,6.28,12.962,6.28        c22.843,0,28.911-48.019,29.624-58.282C448.351,228.341,440.497,229.072,440.497,229.072z" />
          </g>
          <g>
            <path style="fill:#152F47;" d="M418.012,325.939c-8.953,0-16.024,0-16.024-4.069c0-3.23,4.966-5.965,12.134-6.719v-18.244        c-22.313-5.567-26.194-57.739-26.232-58.268c-0.254-3.655,0.52-6.389,2.299-8.128c2.252-2.201,5.258-1.946,5.385-1.936        l44.924-0.002c0.079-0.01,3.085-0.264,5.34,1.938c1.779,1.738,2.552,4.473,2.298,8.128        c-0.037,0.536-3.921,52.701-26.231,58.268v18.244c7.168,0.754,12.135,3.488,12.135,6.719        C434.038,325.939,426.966,325.939,418.012,325.939z M395.227,229.563c-0.76,0-2.799,0.151-4.348,1.671        c-1.554,1.524-2.224,3.992-1.991,7.334c1.015,14.605,7.637,53.396,25.842,57.454l0.392,0.088v19.949l-0.454,0.042        c-6.768,0.624-11.68,3.05-11.68,5.768c0,3.069,7.298,3.069,15.024,3.069c7.728,0,15.026,0,15.026-3.069        c0-2.718-4.912-5.144-11.681-5.768l-0.454-0.042V296.11l0.392-0.088c18.205-4.058,24.827-42.849,25.842-57.454l0,0        c0.233-3.342-0.437-5.81-1.99-7.334c-1.913-1.878-4.578-1.666-4.604-1.665l-45.015,0.002        C395.514,229.571,395.405,229.563,395.227,229.563z" />
          </g>
          <path style="opacity:0.2;fill:#FFFFFF;" d="M422.089,250.453c0-7.971-1.622-15.345-4.372-21.381h-22.19       c0,0-7.853-0.731-7.139,9.531c0.508,7.3,3.726,33.692,13.758,48.33C413.447,284.153,422.089,268.881,422.089,250.453z" />
        </g>
        <g>
          <g>
            <g>
              <g>
                <g>
                  <rect x="421.486" y="209.243" transform="matrix(0.7407 -0.6718 0.6718 0.7407 -27.7567 351.2229)" style="fill:#FFB7A0;" width="39.37" height="4.66" />
                </g>
                <g>
                  <defs>
                    <rect id="SVGID_00000021820514848607481470000011463332582603929020_" x="421.486" y="209.243" transform="matrix(0.7407 -0.6718 0.6718 0.7407 -27.7567 351.2229)" width="39.37" height="4.66" />
                  </defs>
                  <clipPath id="SVGID_00000083791356957426259000000004542111107949772459_">
                    <use ns1:href="#SVGID_00000021820514848607481470000011463332582603929020_" style="overflow:visible;" />
                  </clipPath>
                  <g style="clip-path:url(#SVGID_00000083791356957426259000000004542111107949772459_);">
                    <g>
                      <g>
                        <rect x="428.449" y="206.979" transform="matrix(0.3816 -0.9243 0.9243 0.3816 61.5968 534.7202)" style="fill:#F99980;" width="3.941" height="28.693" />
                      </g>
                      <g>
                        <rect x="435.713" y="200.389" transform="matrix(0.3816 -0.9243 0.9243 0.3816 72.1815 537.3607)" style="fill:#F99980;" width="3.942" height="28.693" />
                      </g>
                    </g>
                    <g>
                      <g>
                        <rect x="442.98" y="193.799" transform="matrix(0.3816 -0.9243 0.9243 0.3816 82.7795 540.0151)" style="fill:#F99980;" width="3.941" height="28.692" />
                      </g>
                      <g>
                        <rect x="450.246" y="187.209" transform="matrix(0.3816 -0.9243 0.9243 0.3816 93.3568 542.6473)" style="fill:#F99980;" width="3.941" height="28.693" />
                      </g>
                    </g>
                  </g>
                </g>
              </g>
              <g style="opacity:0.3;">
                <rect x="422.269" y="211.272" transform="matrix(0.7408 -0.6717 0.6717 0.7408 -28.1535 351.9052)" style="fill:#E8775D;" width="39.37" height="2.33" />
              </g>
            </g>
            <g>
              <path style="fill:#152F47;" d="M428.121,227.23l-3.802-4.192l29.9-27.123l3.804,4.192L428.121,227.23z M425.731,223.108         l2.458,2.711l28.422-25.778l-2.46-2.712L425.731,223.108z" />
            </g>
          </g>
          <g>
            <g>
              <g>
                <g>
                  <rect x="415.743" y="208.879" transform="matrix(0.297 -0.9549 0.9549 0.297 104.4318 564.2629)" style="fill:#FFB7A0;" width="39.368" height="4.659" />
                </g>
                <g>
                  <defs>
                    <rect id="SVGID_00000113328303383980242250000015685266812936009870_" x="415.743" y="208.879" transform="matrix(0.297 -0.9549 0.9549 0.297 104.4318 564.2629)" width="39.368" height="4.659" />
                  </defs>
                  <clipPath id="SVGID_00000015320393247149126210000001996442431502412189_">
                    <use ns1:href="#SVGID_00000113328303383980242250000015685266812936009870_" style="overflow:visible;" />
                  </clipPath>
                  <g style="clip-path:url(#SVGID_00000015320393247149126210000001996442431502412189_);">
                    <g>
                      <g>
                        <rect x="416.769" y="223.098" transform="matrix(0.9901 -0.1405 0.1405 0.9901 -27.3511 62.8194)" style="fill:#F99980;" width="28.693" height="3.941" />
                      </g>
                      <g>
                        <rect x="419.682" y="213.731" transform="matrix(0.9901 -0.1406 0.1406 0.9901 -26.0107 63.1502)" style="fill:#F99980;" width="28.694" height="3.941" />
                      </g>
                    </g>
                    <g>
                      <g>
                        <rect x="422.597" y="204.365" transform="matrix(0.9901 -0.1406 0.1406 0.9901 -24.6658 63.4691)" style="fill:#F99980;" width="28.692" height="3.941" />
                      </g>
                      <g>
                        <rect x="425.51" y="194.999" transform="matrix(0.9901 -0.1405 0.1405 0.9901 -23.3104 63.7515)" style="fill:#F99980;" width="28.693" height="3.941" />
                      </g>
                    </g>
                  </g>
                </g>
              </g>
              <g style="opacity:0.3;">
                <rect x="416.856" y="210.389" transform="matrix(0.2968 -0.9549 0.9549 0.2968 104.9559 565.6362)" style="fill:#E8775D;" width="39.368" height="2.329" />
              </g>
            </g>
            <g>
              <path style="fill:#152F47;" d="M432.134,231.321l-5.404-1.681l11.992-38.546l5.403,1.681L432.134,231.321z M427.981,228.982         l3.494,1.087l11.397-36.636l-3.493-1.087L427.981,228.982z" />
            </g>
          </g>
        </g>
        <g>
          <g>
            <path style="fill:#F8E5E5;" d="M388.476,235.357c0,0-4.393-12.305,8.01-13.292c0,0-0.065-12.536,11.801-10.599        c0,0-3.081-6.509,5.398-11.11c8.477-4.602,4.802-11.586,4.802-11.586s17.681,6.297,11.868,18.406        c0,0,10.708,1.671,8.804,12.385c0,0,12.003,4.206,8.359,15.581c0,0-9.169,4.488-31.452,4.488        C393.782,239.631,388.476,235.357,388.476,235.357z" />
          </g>
          <g>
            <g>
              <path style="fill:#EAB9B9;" d="M437.215,220.928c-3.198,6.263-9.774,7.261-16.085,5.684         c-7.679-1.92-14.608-6.192-22.762-4.688c-0.754,0.139-0.435,1.286,0.316,1.148c12.139-2.24,31.398,14.43,39.559-1.543         C438.591,220.846,437.564,220.243,437.215,220.928L437.215,220.928z" />
            </g>
          </g>
          <g>
            <g>
              <path style="fill:#EAB9B9;" d="M409.477,212.3c4.534-0.411,8.3,2.253,12.641,2.324c3.462,0.056,6.077-3.342,7.713-5.952         c0.408-0.652-0.622-1.249-1.028-0.601c-2.732,4.361-5.929,6.24-11.046,4.264c-2.508-0.968-5.578-1.471-8.279-1.226         C408.72,211.179,408.713,212.369,409.477,212.3L409.477,212.3z" />
            </g>
          </g>
          <g style="opacity:0.1;">
            <g>
              <path style="fill:#C1422D;" d="M439.157,219.561c1.904-10.714-8.804-12.385-8.804-12.385         c5.813-12.109-11.868-18.406-11.868-18.406s1.133,2.158,0.686,4.863c4.854,3.162,10.238,8.69,6.5,16.48         c0,0,11.41,1.78,9.381,13.195c0,0,10.125,3.557,9.611,12.889c1.941-0.61,2.852-1.056,2.852-1.056         C451.16,223.768,439.157,219.561,439.157,219.561z" />
            </g>
          </g>
          <g>
            <path style="fill:#152F47;" d="M416.064,240.131c-22.203,0-27.681-4.205-27.902-4.384l-0.11-0.089l-0.047-0.133        c-0.086-0.24-2.068-5.927,0.591-10.037c1.432-2.213,3.921-3.517,7.403-3.881c0.075-1.464,0.569-6.023,3.776-8.763        c1.969-1.684,4.588-2.35,7.777-1.984c-0.539-1.982-1.107-7.144,5.893-10.943c7.926-4.302,4.736-10.647,4.597-10.915        l-0.588-1.129l1.199,0.426c0.4,0.143,9.831,3.568,12.616,10.333c1.073,2.605,1.004,5.355-0.203,8.182        c1.427,0.343,4.898,1.454,7.051,4.469c1.539,2.154,2.076,4.831,1.599,7.962c2.089,0.88,11.641,5.549,8.277,16.049        l-0.065,0.203l-0.191,0.094C447.357,235.777,438.209,240.131,416.064,240.131z M388.898,235.043        c0.873,0.568,7.101,4.088,27.166,4.088c20.164,0,29.617-3.734,31.042-4.352c3.24-10.613-7.646-14.581-8.115-14.746l-0.4-0.141        l0.074-0.418c0.538-3.026,0.081-5.585-1.356-7.603c-2.452-3.441-6.987-4.193-7.032-4.2l-0.664-0.105l0.29-0.605        c1.327-2.763,1.476-5.436,0.444-7.945c-2.09-5.079-8.469-8.264-10.989-9.353c0.683,2.265,1.315,7.469-5.436,11.133        c-7.939,4.309-5.3,10.209-5.184,10.458l0.4,0.857l-0.934-0.151c-3.258-0.532-5.876,0.019-7.776,1.641        c-3.424,2.922-3.443,8.407-3.443,8.462l0.002,0.464l-0.462,0.037c-3.389,0.27-5.773,1.435-7.088,3.464        C387.267,229.379,388.616,234.149,388.898,235.043z" />
          </g>
        </g>
        <g>
          <g style="opacity:0.3;">
            <path style="fill:#8C2315;" d="M408.849,201.321c1.381,1.02,2.479,2.998,2.487,6.376c0.022,7.864-6.059,8.278-6.059,8.278        s-1.525,1.179-3.783,1.164c3.908,2.079,7.005-0.305,7.005-0.305s6.081-0.414,6.061-8.277        C414.542,202.665,411.222,201.011,408.849,201.321z" />
          </g>
          <g>
            <g>
              <path style="fill:#C1422D;" d="M406.947,202.206c-1.682,1.828-1.992,2.577-2.899,2.922c-0.908,0.346-1.637-0.008-4.108-0.257         c-2.471-0.25-6.678,3.912-1.469,9.804c5.209,5.892,10.028,2.16,10.028,2.16s6.081-0.414,6.061-8.277         C414.538,200.692,408.627,200.379,406.947,202.206z" />
            </g>
            <g>
              <path style="fill:#152F47;" d="M404.737,218.486c-1.886,0.001-4.239-0.763-6.642-3.48c-3.423-3.872-2.754-6.752-2.051-8.124         c0.821-1.601,2.478-2.656,3.945-2.509c0.839,0.084,1.48,0.181,1.996,0.259c0.966,0.146,1.405,0.211,1.884,0.028         c0.48-0.183,0.765-0.524,1.388-1.272c0.335-0.401,0.75-0.899,1.321-1.52l0,0c0.997-1.084,2.939-1.397,4.616-0.745         c1.436,0.558,3.851,2.266,3.864,7.434c0.02,7.533-5.401,8.625-6.377,8.76C408.258,217.601,406.769,218.486,404.737,218.486z          M399.728,205.361c-0.901,0-2.141,0.705-2.794,1.978c-0.587,1.145-1.119,3.578,1.911,7.005         c4.843,5.479,9.166,2.237,9.348,2.096l0.118-0.092l0.152-0.011c0.23-0.017,5.614-0.499,5.596-7.777         c-0.013-4.575-2.026-6.039-3.227-6.504c-1.413-0.549-2.898-0.183-3.518,0.49l0,0c-0.558,0.606-0.963,1.093-1.289,1.484         c-0.671,0.805-1.076,1.291-1.801,1.567c-0.725,0.277-1.352,0.183-2.388,0.026c-0.504-0.076-1.129-0.17-1.948-0.252         C399.837,205.363,399.783,205.361,399.728,205.361z" />
            </g>
            <g>
              <g>
                <path style="fill:#8C2315;" d="M402.483,206.873c0,0,0.306-0.135,0.685-0.308c0.191-0.067,0.399-0.174,0.62-0.232          c0.209-0.1,0.442-0.146,0.653-0.239c0.207-0.092,0.447-0.127,0.635-0.229c0.188-0.1,0.436-0.119,0.595-0.219          c0.357-0.156,0.705-0.253,0.705-0.253s-0.017,0.311-0.208,0.77c-0.078,0.245-0.297,0.418-0.511,0.636          c-0.206,0.238-0.52,0.327-0.806,0.473c-0.607,0.203-1.25,0.176-1.686,0.007C402.721,207.12,402.483,206.873,402.483,206.873          z" />
              </g>
              <g>
                <g>
                  <path style="fill:#ED896E;" d="M404.126,206.193c0,0-5.25-6.971-3.723-15.405c0,0,0.577,0.783,1.841,0.303           c0,0-1.995,8.667,2.627,14.818L404.126,206.193z" />
                </g>
                <g>
                  <path style="fill:#E56142;" d="M402.247,191.12c-0.069,0.334-0.533,0.518-1.034,0.415           c-0.504-0.105-0.857-0.456-0.788-0.786c0.068-0.333,0.528-0.517,1.033-0.414           C401.963,190.439,402.314,190.79,402.247,191.12z" />
                </g>
              </g>
            </g>
          </g>
        </g>
      </g>
      <g>
        <g>
          <g>
            <path style="fill:#152F47;" d="M404.132,265.424c-0.284,0.565-0.469,1.178-0.537,1.76c-0.082,0.711,1.03,0.704,1.111,0        c0.183-1.556,1.243-2.852,2.888-2.83c1.666,0.022,2.416,1.899,2.382,3.28c-0.018,0.717,1.094,0.715,1.111,0        c0.056-2.207-1.105-4.416-3.493-4.392c-0.793,0.008-1.56,0.285-2.142,0.682C404.619,264.559,404.132,265.424,404.132,265.424z        " />
          </g>
          <g>
            <path style="fill:#152F47;" d="M432.84,265.424c0.283,0.565,0.468,1.178,0.537,1.76c0.081,0.711-1.031,0.704-1.112,0        c-0.182-1.556-1.243-2.852-2.888-2.83c-1.666,0.022-2.415,1.899-2.382,3.28c0.018,0.717-1.093,0.715-1.112,0        c-0.054-2.207,1.107-4.416,3.494-4.392c0.792,0.008,1.56,0.285,2.142,0.682C432.352,264.559,432.84,265.424,432.84,265.424z" />
          </g>
        </g>
        <g>
          <g>
            <path style="fill:#152F47;" d="M406.492,259.468c0,0,0.045-0.277,0.287-0.588c0.122-0.156,0.29-0.327,0.519-0.452        c0.229-0.131,0.516-0.219,0.816-0.218c0.152-0.005,0.298,0.034,0.442,0.066c0.144,0.029,0.263,0.119,0.384,0.176        c0.222,0.148,0.389,0.322,0.491,0.5c0.119,0.157,0.155,0.327,0.194,0.432c0.031,0.11,0.04,0.178,0.04,0.178        s-0.066-0.023-0.171-0.069c-0.105-0.043-0.229-0.122-0.391-0.182c-0.149-0.074-0.321-0.128-0.49-0.189        c-0.171-0.029-0.333-0.082-0.504-0.064c-0.167-0.021-0.345,0.023-0.523,0.058c-0.182,0.039-0.354,0.1-0.518,0.149        C406.723,259.386,406.492,259.468,406.492,259.468z" />
          </g>
          <g>
            <path style="fill:#152F47;" d="M427.328,259.222c0,0,0.07-0.27,0.348-0.556c0.136-0.143,0.321-0.294,0.564-0.395        c0.238-0.105,0.534-0.165,0.833-0.131c0.151,0.009,0.292,0.066,0.434,0.108c0.14,0.046,0.247,0.148,0.362,0.215        c0.205,0.174,0.355,0.364,0.434,0.548c0.104,0.17,0.125,0.342,0.151,0.449c0.02,0.115,0.023,0.181,0.023,0.181        s-0.063-0.028-0.162-0.086c-0.1-0.049-0.219-0.144-0.369-0.218c-0.146-0.089-0.31-0.165-0.469-0.24        c-0.17-0.05-0.323-0.117-0.495-0.118c-0.167-0.035-0.347-0.01-0.528,0.003c-0.183,0.022-0.36,0.065-0.53,0.099        C427.564,259.163,427.328,259.222,427.328,259.222z" />
          </g>
        </g>
        <g>
          <g>
            <path style="fill:#152F47;" d="M416.142,267.884c0.338,0.487,0.83,0.909,1.383,1.132c1.257,0.507,2.39-0.148,3.262-1.052        c0.35-0.365-0.202-0.919-0.554-0.557c-0.687,0.713-1.552,1.302-2.541,0.83c-0.333-0.162-0.67-0.456-0.873-0.75        C416.532,267.076,415.852,267.467,416.142,267.884L416.142,267.884z" />
          </g>
        </g>
        <g>
          <g>
            <path style="fill:#FF81CE;" d="M409.15,271.066c0,1.403-1.138,2.54-2.541,2.54c-1.402,0-2.54-1.137-2.54-2.54        c0-1.402,1.138-2.541,2.54-2.541C408.013,268.525,409.15,269.664,409.15,271.066z" />
          </g>
          <g>
            <path style="fill:#FF81CE;" d="M432.902,271.066c0,1.403-1.139,2.54-2.541,2.54c-1.404,0-2.541-1.137-2.541-2.54        c0-1.402,1.137-2.541,2.541-2.541C431.764,268.525,432.902,269.664,432.902,271.066z" />
          </g>
        </g>
      </g>
    </g>
    <g>
      <g>
        <path style="fill:#FFFFFF;" d="M392.888,244.868c0.003,3.007,0.289,6.033,0.664,9.013c0.768,6.097,2.084,12.19,4.472,17.871      c1.41,3.353,3.214,6.527,5.603,9.281c0.528,0.609,1.409-0.279,0.884-0.884c-4.2-4.842-6.533-11.066-8.047-17.215      c-1.213-4.929-1.923-9.987-2.217-15.053c-0.058-1.002-0.109-2.008-0.11-3.012C394.137,244.064,392.887,244.063,392.888,244.868      L392.888,244.868z" />
      </g>
      <path style="fill:#FFFFFF;" d="M407.108,282.568c0,0.522-0.424,0.946-0.946,0.946s-0.946-0.423-0.946-0.946     s0.423-0.946,0.946-0.946S407.108,282.045,407.108,282.568z" />
    </g>
  </g>
</svg>