<?xml version='1.0' encoding='utf-8'?>
<svg xmlns="http://www.w3.org/2000/svg" xmlns:ns1="http://www.w3.org/1999/xlink" version="1.1" viewBox="-42.355 -37.876000000000005 325.665 348.79699999999997" width="325.665" height="348.79699999999997">
  <g>
    <g>
      <g>
        <g>
          <g>
            <g>
              <g>
                <path style="fill:#FFB7A0;" d="M78.977,272.81c-10.962,0-20.944-1.19-28.439-3.14c1.294,13.789,2.438,25.594,2.689,27.025          c0.641,3.642,5.446,3.726,5.446,3.726h12.812h14.984h12.813c0,0,4.805-0.084,5.446-3.726          c0.252-1.432,1.396-13.236,2.69-27.025C99.922,271.62,89.939,272.81,78.977,272.81z" />
              </g>
              <g>
                <defs>
                  <path id="SVGID_00000039824375455028281230000002000830846261542794_" d="M78.977,272.81           c-10.962,0-20.944-1.19-28.439-3.14c1.294,13.789,2.438,25.594,2.689,27.025c0.641,3.642,5.446,3.726,5.446,3.726h12.812           h14.984h12.813c0,0,4.805-0.084,5.446-3.726c0.252-1.432,1.396-13.236,2.69-27.025           C99.922,271.62,89.939,272.81,78.977,272.81z" />
                </defs>
                <clipPath id="SVGID_00000142894696444670314490000009218131673489238717_">
                  <use ns1:href="#SVGID_00000039824375455028281230000002000830846261542794_" style="overflow:visible;" />
                </clipPath>
                <g style="clip-path:url(#SVGID_00000142894696444670314490000009218131673489238717_);">
                  <g>
                    <g>
                      <g>
                        <g>
                          <g>
                            <polygon style="fill:#E8775D;" points="9.942,312.098 9.264,311.416 100.261,220.42 100.938,221.1               " />
                          </g>
                        </g>
                        <g>
                          <g>
                            <rect x="-2.449" y="272.574" transform="matrix(0.7071 -0.7071 0.7071 0.7071 -174.9498 123.7433)" style="fill:#E8775D;" width="128.691" height="0.961" />
                          </g>
                        </g>
                      </g>
                      <g>
                        <g>
                          <g>
                            <rect x="4.347" y="279.368" transform="matrix(0.7071 -0.7071 0.7071 0.7071 -177.7639 130.5382)" style="fill:#E8775D;" width="128.689" height="0.962" />
                          </g>
                        </g>
                        <g>
                          <g>
                            <rect x="11.143" y="286.164" transform="matrix(0.7066 -0.7076 0.7076 0.7066 -180.6885 137.5226)" style="fill:#E8775D;" width="128.689" height="0.961" />
                          </g>
                        </g>
                      </g>
                    </g>
                    <g>
                      <g>
                        <g>
                          <g>
                            <rect x="17.938" y="292.96" transform="matrix(0.7071 -0.7071 0.7071 0.7071 -183.3949 144.1315)" style="fill:#E8775D;" width="128.69" height="0.961" />
                          </g>
                        </g>
                        <g>
                          <g>
                            <rect x="24.733" y="299.756" transform="matrix(0.7066 -0.7076 0.7076 0.7066 -186.3075 151.1071)" style="fill:#E8775D;" width="128.69" height="0.96" />
                          </g>
                        </g>
                      </g>
                      <g>
                        <g>
                          <g>
                            <rect x="31.529" y="306.55" transform="matrix(0.7071 -0.7071 0.7071 0.7071 -189.0227 157.7198)" style="fill:#E8775D;" width="128.689" height="0.962" />
                          </g>
                        </g>
                        <g>
                          <g>
                            <rect x="38.325" y="313.346" transform="matrix(0.7081 -0.7061 0.7061 0.7081 -191.6182 164.083)" style="fill:#E8775D;" width="128.689" height="0.962" />
                          </g>
                        </g>
                      </g>
                    </g>
                  </g>
                  <g>
                    <g>
                      <g>
                        <g>
                          <g>
                            <rect x="102.188" y="201.914" transform="matrix(0.7061 -0.7081 0.7081 0.7061 -158.3717 150.9665)" style="fill:#E8775D;" width="0.962" height="128.689" />
                          </g>
                        </g>
                        <g>
                          <g>
                            <rect x="95.393" y="208.71" transform="matrix(0.7071 -0.7071 0.7071 0.7071 -164.9981 147.7687)" style="fill:#E8775D;" width="0.961" height="128.69" />
                          </g>
                        </g>
                      </g>
                      <g>
                        <g>
                          <g>
                            <rect x="88.598" y="215.504" transform="matrix(0.7066 -0.7076 0.7076 0.7066 -171.8907 145.1432)" style="fill:#E8775D;" width="0.961" height="128.689" />
                          </g>
                        </g>
                        <g>
                          <g>
                            <rect x="81.802" y="222.3" transform="matrix(0.7076 -0.7066 0.7066 0.7076 -178.4819 141.9469)" style="fill:#E8775D;" width="0.961" height="128.689" />
                          </g>
                        </g>
                      </g>
                    </g>
                    <g>
                      <g>
                        <g>
                          <g>
                            <rect x="75.007" y="229.096" transform="matrix(0.7066 -0.7076 0.7076 0.7066 -185.4973 139.5166)" style="fill:#E8775D;" width="0.961" height="128.69" />
                          </g>
                        </g>
                        <g>
                          <g>
                            <rect x="68.211" y="235.891" transform="matrix(0.7076 -0.7066 0.7066 0.7076 -192.059 136.3176)" style="fill:#E8775D;" width="0.961" height="128.69" />
                          </g>
                        </g>
                      </g>
                      <g>
                        <g>
                          <g>
                            <rect x="61.416" y="242.686" transform="matrix(0.7062 -0.708 0.708 0.7062 -199.2039 134.0408)" style="fill:#E8775D;" width="0.961" height="128.69" />
                          </g>
                        </g>
                        <g>
                          <g>
                            <rect x="54.621" y="249.482" transform="matrix(0.7051 -0.7091 0.7091 0.7051 -206.2805 131.6102)" style="fill:#E8775D;" width="0.961" height="128.689" />
                          </g>
                        </g>
                      </g>
                    </g>
                  </g>
                </g>
              </g>
              <path style="opacity:0.2;fill:#FFFFFF;" d="M50.537,269.67c1.294,13.789,2.438,25.594,2.689,27.025         c0.641,3.642,5.446,3.726,5.446,3.726h12.805c9.525-3.716,16.236-12.614,16.236-23.004c0-1.656-0.174-3.272-0.499-4.837         c-2.665,0.15-5.418,0.23-8.238,0.23C68.015,272.81,58.032,271.62,50.537,269.67z" />
            </g>
            <g style="opacity:0.3;">
              <path style="fill:#E8775D;" d="M96.582,271.717c-1.305,13.769-2.378,24.681-2.643,26.19         c-0.189,1.073-0.677,1.887-1.302,2.514h6.644c0,0,4.805-0.084,5.446-3.726c0.252-1.432,1.396-13.236,2.69-27.025         C104.22,270.503,100.566,271.193,96.582,271.717z" />
            </g>
          </g>
          <g>
            <path style="fill:#152F47;" d="M86.469,300.921H58.673c-1.813-0.031-5.375-0.938-5.939-4.139        c-0.22-1.253-1.127-10.358-2.695-27.065l-0.066-0.71l0.69,0.179c7.741,2.015,17.796,3.124,28.313,3.124        c10.518,0,20.573-1.109,28.314-3.124l0.69-0.179l-0.066,0.71c-1.568,16.707-2.475,25.813-2.695,27.065        c-0.564,3.201-4.126,4.107-5.93,4.139H86.469z M51.101,270.329c1.524,16.23,2.405,25.071,2.618,26.279        c0.561,3.188,4.919,3.311,4.963,3.313h40.599c0.035-0.001,4.392-0.125,4.954-3.313c0.212-1.208,1.093-10.049,2.618-26.279        c-7.723,1.924-17.585,2.98-27.876,2.98C68.686,273.31,58.824,272.253,51.101,270.329z" />
          </g>
        </g>
        <g>
          <g>
            <g>
              <g>
                <path style="fill:#F99980;" d="M113.071,265.366c-0.8-6.242-7.522-7.044-7.522-7.044s-10.886,5.442-26.571,5.442          c-15.687,0-26.572-5.442-26.572-5.442s-6.724,0.802-7.522,7.044c-0.802,6.242,9.764,9.124,9.764,9.124          c12.485,3.201,24.331,2.842,24.331,2.842s11.844,0.359,24.331-2.842C103.309,274.49,113.873,271.608,113.071,265.366z" />
              </g>
              <g>
                <path style="fill:#F48771;" d="M112.072,262.386c-2.524,3.623-8.764,5.328-8.764,5.328          c-12.487,3.202-24.331,2.844-24.331,2.844s-11.846,0.358-24.331-2.844c0,0-6.239-1.705-8.765-5.328          c-0.486,0.819-0.848,1.803-0.999,2.98c-0.802,6.242,9.764,9.124,9.764,9.124c12.485,3.201,24.331,2.842,24.331,2.842          s11.844,0.359,24.331-2.842c0,0,10.564-2.882,9.763-9.124C112.92,264.189,112.559,263.205,112.072,262.386z" />
              </g>
            </g>
          </g>
          <g>
            <path style="fill:#152F47;" d="M77.926,277.843c-3.167,0-13.124-0.232-23.403-2.868c-0.456-0.124-10.983-3.074-10.136-9.672        c0.839-6.553,7.888-7.469,7.959-7.477l0.148-0.019l0.134,0.067c0.108,0.054,10.973,5.39,26.349,5.39        c15.375,0,26.24-5.336,26.348-5.39l0.134-0.066l0.148,0.018c0.071,0.008,7.12,0.924,7.96,7.477        c0.847,6.598-9.679,9.548-10.128,9.67c-12.42,3.185-24.356,2.86-24.478,2.859C78.947,277.832,78.582,277.843,77.926,277.843z         M52.326,258.839c-0.958,0.151-6.261,1.229-6.947,6.591c-0.737,5.738,9.298,8.551,9.399,8.578        c12.261,3.145,24.066,2.831,24.184,2.824c0.148,0.005,11.952,0.32,24.222-2.826c0.094-0.025,10.128-2.838,9.391-8.576l0,0        c-0.687-5.362-5.989-6.439-6.947-6.591c-1.349,0.637-11.992,5.426-26.651,5.426C64.317,264.265,53.674,259.476,52.326,258.839        z" />
          </g>
        </g>
      </g>
      <g>
        <g>
          <g>
            <g>
              <g>
                <path style="fill:#CC533B;" d="M96.693,225.488c0,6.461,5.238,11.699,11.699,11.699c6.462,0,11.699-5.238,11.699-11.699          c0-6.461-5.237-11.7-11.699-11.7C101.932,213.788,96.693,219.027,96.693,225.488z" />
              </g>
              <g>
                <path style="fill:#ED896E;" d="M100.203,227.243c0,3.554,2.881,6.435,6.435,6.435c3.554,0,6.435-2.881,6.435-6.435          c0-3.554-2.881-6.436-6.435-6.436C103.084,220.808,100.203,223.689,100.203,227.243z" />
              </g>
              <g style="opacity:0.5;">
                <path style="fill:#BF4343;" d="M118.323,219.324c-0.146,6.336-5.316,11.429-11.686,11.429c-4.196,0-7.866-2.217-9.931-5.536          c-0.002,0.092-0.014,0.18-0.014,0.271c0,6.461,5.238,11.699,11.699,11.699c6.462,0,11.699-5.238,11.699-11.699          C120.092,223.224,119.437,221.116,118.323,219.324z" />
              </g>
            </g>
            <g>
              <path style="fill:#152F47;" d="M108.393,237.688c-6.727,0-12.199-5.473-12.199-12.199c0-6.727,5.473-12.2,12.199-12.2         c6.727,0,12.199,5.473,12.199,12.2C120.592,232.215,115.119,237.688,108.393,237.688z M108.393,214.288         c-6.175,0-11.199,5.024-11.199,11.2c0,6.175,5.024,11.199,11.199,11.199s11.199-5.024,11.199-11.199         C119.592,219.313,114.568,214.288,108.393,214.288z" />
            </g>
          </g>
          <g>
            <g>
              <g>
                <path style="fill:#CC533B;" d="M61.261,225.488c0,6.461-5.237,11.699-11.698,11.699c-6.462,0-11.7-5.238-11.7-11.699          c0-6.461,5.238-11.7,11.7-11.7C56.023,213.788,61.261,219.027,61.261,225.488z" />
              </g>
              <g>
                <path style="fill:#ED896E;" d="M57.752,227.243c0,3.554-2.881,6.435-6.435,6.435c-3.555,0-6.436-2.881-6.436-6.435          c0-3.554,2.881-6.436,6.436-6.436C54.871,220.808,57.752,223.689,57.752,227.243z" />
              </g>
              <g style="opacity:0.5;">
                <path style="fill:#BF4343;" d="M39.631,219.324c0.146,6.336,5.316,11.429,11.687,11.429c4.196,0,7.865-2.217,9.93-5.536          c0.003,0.092,0.014,0.18,0.014,0.271c0,6.461-5.237,11.699-11.698,11.699c-6.462,0-11.7-5.238-11.7-11.699          C37.862,223.224,38.517,221.116,39.631,219.324z" />
              </g>
            </g>
            <g>
              <path style="fill:#152F47;" d="M49.562,237.688c-6.727,0-12.2-5.473-12.2-12.199c0-6.727,5.473-12.2,12.2-12.2         c6.726,0,12.198,5.473,12.198,12.2C61.761,232.215,56.289,237.688,49.562,237.688z M49.562,214.288         c-6.176,0-11.2,5.024-11.2,11.2c0,6.175,5.024,11.199,11.2,11.199c6.175,0,11.198-5.024,11.198-11.199         C60.761,219.313,55.737,214.288,49.562,214.288z" />
            </g>
          </g>
        </g>
        <g>
          <g>
            <path style="fill:#CC533B;" d="M103.361,258.752c0,0,7.971-4.375,7.971-17.192c0-12.816-10.004-26.259-32.355-26.259        c-22.351,0-32.355,13.442-32.355,26.259c0,12.817,7.972,17.192,7.972,17.192s-8.907,7.348-3.595,9.224        c5.314,1.877,10.003-5.473,10.003-5.473s-1.405,7.817,4.064,7.817c5.471,0,7.972-6.062,7.972-6.062s-0.313,6.939,5.939,6.939        c6.252,0,5.939-6.939,5.939-6.939s2.502,6.062,7.972,6.062c5.471,0,4.064-7.817,4.064-7.817s4.689,7.35,10.003,5.473        C112.269,266.1,103.361,258.752,103.361,258.752z" />
          </g>
          <g>
            <g>
              <path style="fill:#C1422D;" d="M103.361,258.752c0,0,7.971-4.375,7.971-17.192c0-12.816-10.004-26.259-32.355-26.259         c-1.38,0-2.71,0.053-3.996,0.151c19.55,1.506,28.358,14.082,28.358,26.107c0,12.817-7.971,17.192-7.971,17.192         s5.926,4.889,5.225,7.71c1.759,1.356,3.998,2.348,6.361,1.514C112.269,266.1,103.361,258.752,103.361,258.752z" />
            </g>
          </g>
          <g>
            <path style="fill:#E56A55;" d="M71.647,223.262c1.563,2.384-0.688,6.625-5.028,9.473c-4.34,2.848-9.127,3.225-10.69,0.843        c-1.564-2.384,0.688-6.624,5.028-9.472C65.298,221.256,70.084,220.88,71.647,223.262z" />
          </g>
          <path style="opacity:0.2;fill:#FFFFFF;" d="M80.77,232.465c0-6.963-3.422-13.096-8.616-16.7       c-17.569,2.45-25.531,14.367-25.531,25.795c0,1.556,0.121,2.982,0.328,4.296c3.55,4.103,8.69,6.699,14.427,6.699       C72.087,252.555,80.77,243.56,80.77,232.465z" />
        </g>
        <g>
          <path style="fill:#152F47;" d="M78.977,271.697c-1.874,0-3.385-0.587-4.492-1.745c-1.14-1.192-1.617-2.75-1.814-3.939       c-1.177,1.89-3.638,4.808-7.604,4.808c-1.43,0-2.565-0.489-3.373-1.455c-1.195-1.429-1.391-3.596-1.352-5.132       c-1.746,2.131-5.397,5.663-9.51,4.214c-1.152-0.407-1.82-1.088-1.985-2.023c-0.46-2.603,3.409-6.295,4.908-7.613       c-1.906-1.32-7.633-6.21-7.633-17.251c0-6.994,2.825-13.493,7.954-18.3c5.904-5.534,14.515-8.458,24.901-8.458       c10.386,0,18.997,2.925,24.901,8.458c5.129,4.807,7.954,11.307,7.954,18.3c0,11.041-5.726,15.931-7.632,17.251       c1.499,1.318,5.368,5.01,4.908,7.613c-0.165,0.936-0.834,1.616-1.986,2.023c-4.108,1.448-7.763-2.084-9.51-4.213       c0.04,1.535-0.156,3.702-1.351,5.131c-0.807,0.966-1.942,1.455-3.373,1.455c-3.966,0-6.427-2.918-7.604-4.808       c-0.197,1.189-0.674,2.747-1.814,3.939C82.362,271.11,80.851,271.697,78.977,271.697z M73.658,261.46l-0.12,2.82       c-0.002,0.031-0.112,3.121,1.675,4.985c0.911,0.95,2.177,1.432,3.765,1.432c1.587,0,2.854-0.482,3.764-1.432       c1.787-1.864,1.676-4.954,1.675-4.985l-0.121-2.819l1.082,2.607c0.024,0.058,2.446,5.753,7.51,5.753       c1.136,0,1.988-0.358,2.605-1.096c1.681-2.008,0.975-6.093,0.967-6.134l-0.443-2.477l1.356,2.12       c0.045,0.07,4.545,6.996,9.415,5.271c0.798-0.281,1.234-0.691,1.334-1.254c0.37-2.09-3.541-5.843-5.08-7.112l-0.566-0.468       l0.644-0.355c0.077-0.043,7.712-4.412,7.712-16.755c0-12.821-9.85-25.759-31.855-25.759c-22.005,0-31.855,12.938-31.855,25.759       c0,12.343,7.636,16.712,7.713,16.755l0.642,0.355l-0.565,0.468c-1.539,1.27-5.45,5.023-5.08,7.112       c0.1,0.563,0.536,0.973,1.333,1.254c4.876,1.724,9.37-5.2,9.415-5.271l1.356-2.12l-0.442,2.477       c-0.007,0.041-0.713,4.127,0.968,6.135c0.617,0.736,1.469,1.095,2.604,1.095c5.064,0,7.486-5.695,7.51-5.753L73.658,261.46z" />
        </g>
        <g>
          <g>
            <path style="fill:#E56A55;" d="M85.171,247.653c0,2.707-2.807,4.901-6.27,4.901s-6.27-2.194-6.27-4.901        c0-2.709,2.807-4.902,6.27-4.902S85.171,244.944,85.171,247.653z" />
          </g>
          <g>
            <g>
              <g>
                <path style="fill:#152F47;" d="M67.129,238.009c0,0,0.043-0.275,0.281-0.581c0.123-0.155,0.289-0.323,0.515-0.447          c0.226-0.13,0.508-0.216,0.807-0.215c0.151-0.005,0.294,0.034,0.437,0.066c0.142,0.028,0.26,0.117,0.379,0.173          c0.221,0.146,0.385,0.317,0.485,0.493c0.118,0.155,0.153,0.323,0.191,0.427c0.031,0.109,0.039,0.176,0.039,0.176          s-0.064-0.023-0.167-0.068c-0.105-0.042-0.228-0.119-0.387-0.178c-0.148-0.074-0.317-0.128-0.483-0.189          c-0.169-0.029-0.33-0.081-0.498-0.064c-0.165-0.02-0.342,0.024-0.517,0.058c-0.178,0.037-0.351,0.099-0.511,0.147          C67.355,237.928,67.129,238.009,67.129,238.009z" />
              </g>
              <g>
                <path style="fill:#152F47;" d="M87.714,237.766c0,0,0.07-0.268,0.345-0.551c0.135-0.14,0.317-0.289,0.556-0.39          c0.235-0.102,0.526-0.163,0.823-0.129c0.15,0.009,0.288,0.064,0.429,0.107c0.138,0.045,0.244,0.146,0.358,0.211          c0.202,0.173,0.35,0.36,0.429,0.542c0.103,0.169,0.122,0.338,0.15,0.444c0.019,0.113,0.022,0.178,0.022,0.178          s-0.063-0.027-0.161-0.085c-0.099-0.047-0.216-0.142-0.365-0.215c-0.145-0.088-0.305-0.164-0.462-0.237          c-0.169-0.05-0.32-0.116-0.49-0.117c-0.165-0.034-0.344-0.009-0.521,0.004c-0.181,0.021-0.358,0.063-0.524,0.097          C87.949,237.708,87.714,237.766,87.714,237.766z" />
              </g>
            </g>
            <g>
              <g>
                <g>
                  <path style="fill:#152F47;" d="M71.684,244.694c0,1.719-1.393,3.112-3.112,3.112c-1.718,0-3.11-1.393-3.11-3.112           c0-1.718,1.393-3.11,3.11-3.11C70.291,241.584,71.684,242.977,71.684,244.694z" />
                </g>
                <g>
                  <g>
                    <path style="fill:#FFFFFF;" d="M68.447,243.555c0,0.443-0.359,0.804-0.804,0.804c-0.443,0-0.803-0.36-0.803-0.804            c0-0.444,0.359-0.804,0.803-0.804C68.088,242.751,68.447,243.11,68.447,243.555z" />
                  </g>
                  <g>
                    <path style="fill:#FFFFFF;" d="M67.246,245.102c0,0.225-0.182,0.406-0.406,0.406c-0.226,0-0.407-0.182-0.407-0.406            c0-0.226,0.182-0.407,0.407-0.407C67.064,244.694,67.246,244.876,67.246,245.102z" />
                  </g>
                </g>
              </g>
              <g>
                <g>
                  <path style="fill:#152F47;" d="M92.494,244.694c0,1.719-1.394,3.112-3.111,3.112c-1.719,0-3.111-1.393-3.111-3.112           c0-1.718,1.393-3.11,3.111-3.11C91.101,241.584,92.494,242.977,92.494,244.694z" />
                </g>
                <g>
                  <g>
                    <path style="fill:#FFFFFF;" d="M89.258,243.555c0,0.443-0.359,0.804-0.804,0.804s-0.805-0.36-0.805-0.804            c0-0.444,0.36-0.804,0.805-0.804S89.258,243.11,89.258,243.555z" />
                  </g>
                  <g>
                    <path style="fill:#FFFFFF;" d="M88.057,245.102c0,0.225-0.182,0.406-0.407,0.406c-0.225,0-0.406-0.182-0.406-0.406            c0-0.226,0.182-0.407,0.406-0.407C87.875,244.694,88.057,244.876,88.057,245.102z" />
                  </g>
                </g>
              </g>
            </g>
            <g>
              <g>
                <path style="fill:#FF81CE;" d="M69.754,251.407c0,1.386-1.124,2.508-2.511,2.508c-1.386,0-2.509-1.122-2.509-2.508          c0-1.388,1.123-2.511,2.509-2.511C68.63,248.896,69.754,250.02,69.754,251.407z" />
              </g>
              <g>
                <path style="fill:#FF81CE;" d="M93.221,251.407c0,1.386-1.123,2.508-2.51,2.508c-1.387,0-2.51-1.122-2.51-2.508          c0-1.388,1.123-2.511,2.51-2.511C92.098,248.896,93.221,250.02,93.221,251.407z" />
              </g>
            </g>
            <g>
              <path style="fill:#152F47;" d="M79.662,247.826c0.643-0.281,1.059-0.766,1.104-1.365c0.07-0.919-1.11-1.582-2.313-1.627         c-0.484-0.019-0.481,0.51,0,0.527c2.012,0.076,2.014,2.118,0.006,2.199c-0.002,0-0.004-0.002-0.006-0.002         c-0.251-0.008-0.369,0.13-0.359,0.266c-0.01,0.137,0.108,0.275,0.359,0.265c0.002,0,0.004,0,0.006,0         c2.007,0.08,2.006,2.122-0.006,2.198c-0.481,0.02-0.484,0.547,0,0.528c1.309-0.05,2.242-0.706,2.313-1.628         C80.812,248.592,80.331,248.108,79.662,247.826z" />
            </g>
          </g>
        </g>
      </g>
    </g>
    <g>
      <g>
        <path style="fill:#FFFFFF;" d="M54.807,277.843c0.286,4.36,0.573,8.72,0.86,13.08c0.041,0.628,0.082,1.255,0.124,1.883      c0.052,0.799,1.303,0.805,1.25,0c-0.287-4.36-0.573-8.72-0.86-13.08c-0.041-0.628-0.082-1.255-0.124-1.883      C56.004,277.044,54.754,277.038,54.807,277.843L54.807,277.843z" />
      </g>
      <path style="fill:#FFFFFF;" d="M57.585,295.936c0,0.459-0.372,0.831-0.831,0.831s-0.831-0.372-0.831-0.831     c0-0.459,0.372-0.831,0.831-0.831S57.585,295.477,57.585,295.936z" />
    </g>
    <g>
      <g>
        <path style="fill:#FFFFFF;" d="M60.594,222.114c-3.743,1.508-6.793,5.04-8.553,8.558c-1.039,2.078-1.72,4.306-2.108,6.594      c-0.133,0.787,1.071,1.125,1.205,0.332c0.941-5.564,3.862-10.919,8.862-13.796c0.245-0.141,0.495-0.276,0.75-0.399      c0.114-0.055,0.408-0.178,0.175-0.084C61.664,223.023,61.342,221.813,60.594,222.114L60.594,222.114z" />
      </g>
      <path style="fill:#FFFFFF;" d="M51.317,240.277c0,0.385-0.312,0.696-0.696,0.696c-0.384,0-0.696-0.312-0.696-0.696     c0-0.385,0.312-0.696,0.696-0.696C51.005,239.581,51.317,239.893,51.317,240.277z" />
    </g>
  </g>
</svg>