<?xml version='1.0' encoding='utf-8'?>
<svg xmlns="http://www.w3.org/2000/svg" xmlns:ns1="http://www.w3.org/1999/xlink" version="1.1" viewBox="-41.915 -64.469 281.544 398.493" width="281.544" height="398.493">
  <g>
    <g>
      <g>
        <g>
          <g>
            <path style="fill:#55C67E;" d="M204.937,200.366c-1.035-0.283-6.119,4.374-10.718,8.862        c-1.819-7.539-4.98-18.544-7.927-18.544c-3.335,0-5.974,12.795-7.107,19.35c-4.795-4.718-10.442-9.968-11.539-9.668        c-1.972,0.538,7.351,22.409,7.351,22.409l9.502,1.973l1.226-5.146l1.048-0.362l1.312,5.508l9.502-1.973        C197.587,222.775,206.909,200.904,204.937,200.366z" />
          </g>
          <g>
            <path style="fill:#152F47;" d="M187.711,225.336l-1.296-5.443l-0.267,0.092l-1.274,5.351l-10.233-2.124l-0.102-0.24        c-1.446-3.393-8.605-20.428-7.528-22.651c0.107-0.222,0.287-0.377,0.506-0.437c0.516-0.136,1.569-0.43,11.343,9.128        c2.226-12.494,4.726-18.827,7.435-18.827c0.936,0,3.757-0.001,8.205,18.075c9.063-8.789,10.081-8.508,10.571-8.376l0,0        c0.219,0.06,0.398,0.215,0.506,0.437c1.076,2.223-6.082,19.258-7.528,22.651l-0.103,0.24L187.711,225.336z M175.355,222.339        l8.771,1.821l1.177-4.94l1.829-0.632l1.327,5.572l8.77-1.821c4.022-9.46,7.816-19.814,7.484-21.464        c-0.546,0.157-2.604,1.352-10.145,8.711l-0.629,0.614l-0.206-0.854c-4.067-16.852-6.724-18.161-7.441-18.161        c-2.061,0-4.595,7.255-6.614,18.934l-0.163,0.941l-0.681-0.67c-8.203-8.071-10.394-9.353-10.964-9.516        C167.539,202.524,171.333,212.878,175.355,222.339z" />
          </g>
        </g>
        <g>
          <g>
            <path style="fill:#76DD9F;" d="M193.038,222.196c0,0-3.339-17.707-6.745-17.707c-3.407,0-6.746,17.707-6.746,17.707        s-14.589-9.28-14.409-6.054c0.163,2.918,8.241,11.848,9.785,13.53c0.164,0.178,0.255,0.274,0.255,0.274h11.115h11.114        c0,0,0.091-0.097,0.254-0.274c1.545-1.683,9.623-10.612,9.786-13.53C207.626,212.916,193.038,222.196,193.038,222.196z" />
          </g>
          <g>
            <path style="fill:#152F47;" d="M197.407,230.447h-22.446l-0.406-0.435c-2.285-2.49-9.749-10.844-9.917-13.842        c-0.035-0.615,0.302-0.907,0.505-1.026c1.931-1.125,10.572,4.056,14.051,6.238c0.821-4.172,3.693-17.393,7.098-17.393        c3.404,0,6.276,13.221,7.097,17.393c3.479-2.183,12.124-7.372,14.05-6.238c0.204,0.119,0.54,0.411,0.506,1.026        c-0.168,3.003-7.633,11.353-9.917,13.841l-0.406,0.436H197.407z M175.395,229.447h21.793l0.104-0.112        c4.38-4.771,9.537-11.095,9.656-13.22c0.004-0.079-0.009-0.107-0.01-0.107c-0.722-0.657-6.97,2.374-13.632,6.61l-0.623,0.396        l-0.137-0.726c-1.355-7.184-4.191-17.3-6.254-17.3c-2.064,0-4.9,10.116-6.255,17.3l-0.137,0.725l-0.623-0.396        c-6.658-4.235-12.901-7.262-13.635-6.607c0.001,0-0.011,0.03-0.007,0.104c0.119,2.121,5.275,8.447,9.655,13.22        L175.395,229.447z" />
          </g>
        </g>
      </g>
      <g>
        <g>
          <g>
            <g>
              <path style="fill:#EFDE89;" d="M218.53,258.639c-11.098-37.138-31.163-33.723-31.163-33.723s-20.064-3.415-31.162,33.723         c-11.099,37.14-9.817,64.886,31.162,64.886C228.349,323.524,229.629,295.778,218.53,258.639z" />
            </g>
            <g>
              <defs>
                <path id="SVGID_00000071532935178712383460000015496855372096110258_" d="M218.53,258.639          c-11.098-37.138-31.163-33.723-31.163-33.723s-20.064-3.415-31.162,33.723c-11.099,37.14-9.817,64.886,31.162,64.886          C228.349,323.524,229.629,295.778,218.53,258.639z" />
              </defs>
              <clipPath id="SVGID_00000171712576510836520840000014680935902707254463_">
                <use ns1:href="#SVGID_00000071532935178712383460000015496855372096110258_" style="overflow:visible;" />
              </clipPath>
              <g style="clip-path:url(#SVGID_00000171712576510836520840000014680935902707254463_);">
                <g>
                  <g>
                    <g>
                      <g>
                        <g>
                          <rect x="47.058" y="238.808" transform="matrix(0.7084 -0.7058 0.7058 0.7084 -125.5004 175.3862)" style="fill:#E0C75F;" width="204.886" height="1.53" />
                        </g>
                      </g>
                      <g>
                        <g>
                          <rect x="57.876" y="249.627" transform="matrix(0.7067 -0.7075 0.7075 0.7067 -130.1295 186.8486)" style="fill:#E0C75F;" width="204.886" height="1.529" />
                        </g>
                      </g>
                    </g>
                    <g>
                      <g>
                        <g>
                          <rect x="68.695" y="260.446" transform="matrix(0.7065 -0.7077 0.7077 0.7065 -134.6345 197.7881)" style="fill:#E0C75F;" width="204.886" height="1.53" />
                        </g>
                      </g>
                      <g>
                        <g>
                          <rect x="79.515" y="271.264" transform="matrix(0.7071 -0.7071 0.7071 0.7071 -139.0595 208.3388)" style="fill:#E0C75F;" width="204.885" height="1.531" />
                        </g>
                      </g>
                    </g>
                  </g>
                  <g>
                    <g>
                      <g>
                        <g>
                          <rect x="90.333" y="282.083" transform="matrix(0.7078 -0.7065 0.7065 0.7078 -143.4821 218.8468)" style="fill:#E0C75F;" width="204.887" height="1.53" />
                        </g>
                      </g>
                      <g>
                        <g>
                          <rect x="101.152" y="292.902" transform="matrix(0.7071 -0.7071 0.7071 0.7071 -148.0252 229.9929)" style="fill:#E0C75F;" width="204.886" height="1.53" />
                        </g>
                      </g>
                    </g>
                    <g>
                      <g>
                        <g>
                          <rect x="111.97" y="303.721" transform="matrix(0.7071 -0.7071 0.7071 0.7071 -152.504 240.795)" style="fill:#E0C75F;" width="204.886" height="1.531" />
                        </g>
                      </g>
                      <g>
                        <g>
                          <rect x="122.79" y="314.54" transform="matrix(0.7075 -0.7067 0.7067 0.7075 -156.9528 251.4203)" style="fill:#E0C75F;" width="204.886" height="1.53" />
                        </g>
                      </g>
                    </g>
                  </g>
                </g>
                <g>
                  <g>
                    <g>
                      <g>
                        <g>
                          <rect x="224.467" y="137.13" transform="matrix(0.7068 -0.7074 0.7074 0.7068 -103.439 229.5847)" style="fill:#E0C75F;" width="1.531" height="204.886" />
                        </g>
                      </g>
                      <g>
                        <g>
                          <rect x="213.649" y="147.948" transform="matrix(0.7075 -0.7067 0.7067 0.7075 -114.2403 224.7841)" style="fill:#E0C75F;" width="1.53" height="204.887" />
                        </g>
                      </g>
                    </g>
                    <g>
                      <g>
                        <g>
                          <rect x="202.831" y="158.767" transform="matrix(0.7071 -0.7071 0.7071 0.7071 -125.072 220.4705)" style="fill:#E0C75F;" width="1.529" height="204.887" />
                        </g>
                      </g>
                      <g>
                        <g>
                          <rect x="192.012" y="169.586" transform="matrix(0.7071 -0.7071 0.7071 0.7071 -135.8881 215.9738)" style="fill:#E0C75F;" width="1.529" height="204.886" />
                        </g>
                      </g>
                    </g>
                  </g>
                  <g>
                    <g>
                      <g>
                        <g>
                          <rect x="181.192" y="180.405" transform="matrix(0.7078 -0.7065 0.7065 0.7078 -146.6439 211.2043)" style="fill:#E0C75F;" width="1.531" height="204.887" />
                        </g>
                      </g>
                      <g>
                        <g>
                          <rect x="170.373" y="191.224" transform="matrix(0.7068 -0.7074 0.7074 0.7068 -157.5648 207.1626)" style="fill:#E0C75F;" width="1.53" height="204.886" />
                        </g>
                      </g>
                    </g>
                    <g>
                      <g>
                        <g>
                          <rect x="159.554" y="202.043" transform="matrix(0.7065 -0.7077 0.7077 0.7065 -168.4371 202.8338)" style="fill:#E0C75F;" width="1.53" height="204.886" />
                        </g>
                      </g>
                      <g>
                        <g>
                          <rect x="148.736" y="212.862" transform="matrix(0.7065 -0.7078 0.7078 0.7065 -179.2748 198.3677)" style="fill:#E0C75F;" width="1.529" height="204.886" />
                        </g>
                      </g>
                    </g>
                  </g>
                </g>
              </g>
            </g>
            <path style="opacity:0.2;fill:#FFFFFF;" d="M179.762,226.03c-6.849,2.519-16.844,10.142-23.557,32.609        c-8.575,28.696-9.754,51.779,9.052,60.794c14.696-9.783,24.833-30.496,24.833-54.469        C190.091,250.13,186.203,236.551,179.762,226.03z" />
          </g>
          <g style="opacity:0.1;">
            <path style="fill:#E8775D;" d="M218.53,258.639c-7.531-25.204-19.187-31.724-25.904-33.316        c4.726,4.976,9.563,12.924,13.354,25.61c11.099,37.14,9.818,64.886-31.162,64.886c-6.996,0-12.81-0.826-17.628-2.354        c5.726,6.407,15.338,10.059,30.177,10.059C228.349,323.524,229.629,295.778,218.53,258.639z" />
          </g>
        </g>
        <g>
          <g>
            <g>
              <path style="fill:#152F47;" d="M203.581,284.2c0.321-0.639,0.529-1.33,0.607-1.987c0.093-0.804-1.164-0.795-1.255,0         c-0.206,1.757-1.405,3.221-3.263,3.195c-1.882-0.023-2.729-2.145-2.69-3.704c0.021-0.81-1.234-0.809-1.255,0         c-0.063,2.492,1.248,4.987,3.945,4.961c0.896-0.012,1.763-0.324,2.42-0.771C203.031,285.177,203.581,284.2,203.581,284.2z" />
            </g>
            <g>
              <path style="fill:#152F47;" d="M171.153,284.2c-0.319-0.639-0.527-1.33-0.605-1.987c-0.093-0.804,1.164-0.795,1.257,0         c0.205,1.757,1.403,3.221,3.262,3.195c1.881-0.023,2.727-2.145,2.689-3.704c-0.02-0.81,1.235-0.809,1.257,0         c0.061,2.492-1.25,4.987-3.946,4.961c-0.896-0.012-1.763-0.324-2.42-0.771C171.706,285.177,171.153,284.2,171.153,284.2z" />
            </g>
          </g>
          <g>
            <g>
              <path style="fill:#152F47;" d="M173.819,276.837c0,0,0.05-0.315,0.323-0.667c0.139-0.176,0.328-0.367,0.586-0.509         c0.26-0.148,0.582-0.247,0.923-0.246c0.172-0.005,0.336,0.039,0.5,0.075c0.161,0.033,0.296,0.134,0.433,0.197         c0.251,0.168,0.438,0.365,0.555,0.565c0.136,0.178,0.176,0.369,0.22,0.487c0.035,0.125,0.045,0.201,0.045,0.201         s-0.074-0.027-0.192-0.078c-0.12-0.048-0.259-0.138-0.441-0.204c-0.169-0.085-0.363-0.147-0.554-0.216         c-0.192-0.033-0.377-0.091-0.568-0.073c-0.189-0.022-0.391,0.028-0.592,0.065c-0.205,0.044-0.4,0.112-0.585,0.17         C174.078,276.743,173.819,276.837,173.819,276.837z" />
            </g>
            <g>
              <path style="fill:#152F47;" d="M197.353,276.557c0,0,0.08-0.304,0.394-0.628c0.153-0.161,0.363-0.331,0.636-0.445         c0.27-0.118,0.604-0.185,0.942-0.148c0.169,0.011,0.329,0.075,0.489,0.123c0.157,0.052,0.279,0.166,0.409,0.241         c0.231,0.198,0.4,0.412,0.489,0.62c0.118,0.19,0.142,0.387,0.172,0.506c0.022,0.132,0.026,0.204,0.026,0.204         s-0.071-0.03-0.185-0.096c-0.111-0.055-0.247-0.162-0.417-0.247c-0.163-0.1-0.349-0.186-0.529-0.271         c-0.191-0.057-0.364-0.133-0.559-0.135c-0.189-0.037-0.392-0.01-0.597,0.006c-0.206,0.024-0.408,0.072-0.599,0.109         C197.621,276.491,197.353,276.557,197.353,276.557z" />
            </g>
          </g>
          <g>
            <g>
              <path style="fill:#152F47;" d="M184.719,286.341c0.382,0.552,0.938,1.028,1.562,1.28c1.42,0.57,2.699-0.169,3.684-1.189         c0.395-0.412-0.229-1.038-0.626-0.627c-0.775,0.804-1.752,1.469-2.87,0.936c-0.376-0.183-0.756-0.515-0.986-0.846         C185.16,285.429,184.392,285.87,184.719,286.341L184.719,286.341z" />
            </g>
          </g>
          <g>
            <g>
              <path style="fill:#FF81CE;" d="M176.821,289.935c0,1.587-1.284,2.87-2.87,2.87c-1.584,0-2.869-1.283-2.869-2.87         c0-1.584,1.285-2.869,2.869-2.869C175.537,287.066,176.821,288.352,176.821,289.935z" />
            </g>
            <g>
              <path style="fill:#FF81CE;" d="M203.65,289.935c0,1.587-1.286,2.87-2.869,2.87c-1.587,0-2.87-1.283-2.87-2.87         c0-1.584,1.283-2.869,2.87-2.869C202.364,287.066,203.65,288.352,203.65,289.935z" />
            </g>
          </g>
        </g>
        <g>
          <path style="fill:#152F47;" d="M187.367,324.024c-15.533,0-25.973-3.878-31.915-11.855       c-7.676-10.306-7.589-27.361,0.274-53.674c5.779-19.339,14.048-27.573,19.967-31.075c6.128-3.626,10.983-3.109,11.679-3.009       c1.49-0.183,20.917-1.795,31.637,34.084c7.863,26.313,7.95,43.368,0.274,53.674       C213.341,320.147,202.901,324.024,187.367,324.024z M186.157,225.346c-4.336,0-20.151,2.24-29.473,33.436       c-7.765,25.983-7.901,42.758-0.43,52.789c5.74,7.707,15.918,11.453,31.113,11.453c15.196,0,25.374-3.746,31.114-11.453       c7.472-10.031,7.335-26.805-0.43-52.789l0,0c-10.824-36.223-30.403-33.409-30.601-33.373l-0.082,0.014l-0.084-0.014       C187.257,225.405,186.856,225.346,186.157,225.346z" />
        </g>
      </g>
    </g>
    <g>
      <g>
        <path style="fill:#FFFFFF;" d="M172.312,236.463c-1.406,0.989-2.508,2.513-3.48,3.897c-3.147,4.482-5.257,9.696-6.946,14.874      c-1.667,5.109-2.885,10.354-3.861,15.635c-0.145,0.786,1.059,1.124,1.205,0.332c1.474-7.983,3.461-16.015,6.866-23.417      c1.507-3.277,3.297-6.617,5.799-9.256c0.266-0.281,0.543-0.549,0.831-0.806c0.19-0.17,0.24-0.196,0.216-0.18      C173.596,237.083,172.972,235.998,172.312,236.463L172.312,236.463z" />
      </g>
      <path style="fill:#FFFFFF;" d="M158.583,274.873c0,0.385-0.312,0.696-0.696,0.696c-0.385,0-0.696-0.312-0.696-0.696     c0-0.385,0.312-0.696,0.696-0.696C158.271,274.177,158.583,274.488,158.583,274.873z" />
    </g>
  </g>
</svg>