<?xml version='1.0' encoding='utf-8'?>
<svg xmlns="http://www.w3.org/2000/svg" xmlns:ns1="http://www.w3.org/1999/xlink" version="1.1" viewBox="-44.028 -54.098 510.65500000000003 452.73" width="510.65500000000003" height="452.73">
  <g>
    <g>
      <g>
        <g>
          <path style="fill:#F8E5E5;" d="M449.936,273.09c0-2.811-1.96-5.16-4.586-5.767c1.194-1.084,1.948-2.643,1.948-4.382       c0-3.272-2.653-5.925-5.925-5.925c-0.008,0-0.015,0.001-0.023,0.001c0.698-0.972,1.114-2.161,1.114-3.449       c0-3.272-2.653-5.925-5.925-5.925c-0.236,0-0.467,0.018-0.696,0.044c0.443-0.83,0.696-1.777,0.696-2.784       c0-3.272-2.653-5.925-5.925-5.925c-0.596,0-1.171,0.09-1.713,0.254c0.348-0.755,0.548-1.592,0.548-2.478       c0-3.272-2.653-5.925-5.925-5.925c-1.226,0-2.365,0.373-3.311,1.011c0.153-0.527,0.24-1.082,0.24-1.658       c0-3.272-2.653-5.925-5.925-5.925c-1.579,0-3.009,0.621-4.072,1.628c-0.412-2.87-2.874-5.079-5.858-5.079       c-2.217,0-4.146,1.22-5.162,3.023c-0.22-3.072-2.775-5.498-5.903-5.498c-0.005,0-0.009,0.001-0.014,0.001       c-0.005,0-0.009-0.001-0.014-0.001c-3.128,0-5.684,2.426-5.903,5.498c-1.016-1.803-2.945-3.023-5.162-3.023       c-2.984,0-5.446,2.208-5.858,5.079c-1.062-1.007-2.493-1.628-4.072-1.628c-3.272,0-5.925,2.653-5.925,5.925       c0,0.576,0.086,1.131,0.24,1.658c-0.945-0.638-2.084-1.011-3.311-1.011c-3.272,0-5.925,2.653-5.925,5.925       c0,0.886,0.2,1.723,0.548,2.478c-0.543-0.164-1.117-0.254-1.713-0.254c-3.272,0-5.925,2.653-5.925,5.925       c0,1.007,0.253,1.954,0.696,2.784c-0.229-0.027-0.46-0.044-0.696-0.044c-3.272,0-5.925,2.653-5.925,5.925       c0,1.288,0.416,2.477,1.114,3.449c-0.008,0-0.015-0.001-0.023-0.001c-3.272,0-5.925,2.653-5.925,5.925       c0,1.739,0.754,3.299,1.948,4.382c-2.627,0.608-4.586,2.956-4.586,5.767c0,3.1,2.381,5.639,5.413,5.899       c-1.086,1.074-1.759,2.564-1.759,4.211c0,3.272,2.653,5.925,5.925,5.925c0.759,0,1.483-0.148,2.15-0.408       c-0.398,0.796-0.628,1.692-0.628,2.643c0,3.272,2.653,5.925,5.925,5.925c1.296,0,2.491-0.421,3.466-1.127       c-0.001,0.034-0.005,0.067-0.005,0.101c0,3.272,2.653,5.925,5.925,5.925c1.935,0,3.649-0.932,4.73-2.367       c-0.021,0.204-0.033,0.412-0.033,0.622c0,3.272,2.653,5.925,5.925,5.925c1.916,0,3.615-0.914,4.698-2.325       c0.657,2.557,2.97,4.449,5.732,4.449c1.526,0,2.913-0.583,3.963-1.531c0.921,1.424,2.435,2.424,4.193,2.656       c0.019,0.003,0.038,0.006,0.056,0.009c0.238,0.029,0.479,0.049,0.725,0.049c0.005,0,0.009-0.001,0.014-0.001       c0.005,0,0.009,0.001,0.014,0.001c0.246,0,0.487-0.02,0.725-0.049c0.019-0.003,0.037-0.006,0.056-0.009       c1.759-0.232,3.272-1.232,4.193-2.656c1.05,0.948,2.437,1.531,3.963,1.531c2.762,0,5.075-1.892,5.732-4.449       c1.083,1.411,2.782,2.325,4.698,2.325c3.272,0,5.925-2.653,5.925-5.925c0-0.21-0.012-0.417-0.033-0.622       c1.081,1.435,2.795,2.367,4.73,2.367c3.272,0,5.925-2.653,5.925-5.925c0-0.034-0.005-0.067-0.005-0.101       c0.975,0.706,2.17,1.127,3.466,1.127c3.272,0,5.925-2.653,5.925-5.925c0-0.951-0.23-1.846-0.628-2.643       c0.667,0.26,1.391,0.408,2.15,0.408c3.272,0,5.925-2.653,5.925-5.925c0-1.648-0.674-3.137-1.759-4.211       C447.554,278.729,449.936,276.19,449.936,273.09z" />
        </g>
        <g style="opacity:0.2;">
          <g>
            <path style="fill:#D3A1A1;" d="M385.983,306.957c-0.384,0.594-0.875,1.107-1.44,1.529c0.008,0,0.016,0.002,0.024,0.002        c0.97,0,1.883-0.237,2.69-0.652C386.794,307.597,386.366,307.302,385.983,306.957z" />
          </g>
          <g>
            <path style="fill:#D3A1A1;" d="M386.692,222.611c0.113,0.391,0.19,0.798,0.22,1.218c0.104-0.184,0.223-0.357,0.345-0.529        C387.084,223.058,386.898,222.825,386.692,222.611z" />
          </g>
          <g>
            <path style="fill:#D3A1A1;" d="M449.936,273.09c0-2.811-1.96-5.16-4.586-5.767c1.194-1.084,1.948-2.643,1.948-4.382        c0-3.272-2.653-5.925-5.925-5.925c-0.008,0-0.015,0.001-0.023,0.001c0.698-0.972,1.114-2.161,1.114-3.449        c0-3.272-2.653-5.925-5.925-5.925c-0.236,0-0.467,0.018-0.696,0.044c0.443-0.83,0.696-1.777,0.696-2.784        c0-3.272-2.653-5.925-5.925-5.925c-0.596,0-1.171,0.09-1.713,0.254c0.348-0.755,0.548-1.592,0.548-2.478        c0-3.272-2.653-5.925-5.925-5.925c-1.226,0-2.365,0.373-3.311,1.011c0.153-0.527,0.24-1.082,0.24-1.658        c0-3.272-2.653-5.925-5.925-5.925c-1.579,0-3.01,0.621-4.072,1.628c-0.412-2.87-2.874-5.079-5.858-5.079        c-2.217,0-4.146,1.22-5.162,3.024c-0.22-3.072-2.775-5.498-5.903-5.498c-0.005,0-0.009,0.001-0.014,0.001        c-0.005,0-0.009-0.001-0.014-0.001c-2.7,0-4.97,1.809-5.683,4.28c1.076-1.112,2.581-1.806,4.251-1.806        c2.984,0,5.446,2.208,5.858,5.079c1.062-1.007,2.493-1.628,4.072-1.628c3.272,0,5.925,2.653,5.925,5.925        c0,0.576-0.086,1.132-0.24,1.658c0.945-0.638,2.084-1.011,3.311-1.011c3.272,0,5.925,2.653,5.925,5.925        c0,0.886-0.2,1.723-0.548,2.478c0.543-0.164,1.117-0.254,1.713-0.254c3.272,0,5.925,2.653,5.925,5.925        c0,1.007-0.253,1.954-0.696,2.784c0.229-0.027,0.46-0.044,0.696-0.044c3.272,0,5.925,2.653,5.925,5.925        c0,1.288-0.416,2.477-1.114,3.449c0.008,0,0.015-0.001,0.023-0.001c3.272,0,5.925,2.653,5.925,5.925        c0,1.739-0.754,3.299-1.948,4.382c2.627,0.608,4.587,2.956,4.587,5.767c0,3.1-2.381,5.639-5.414,5.899        c1.086,1.074,1.76,2.564,1.76,4.211c0,3.272-2.653,5.925-5.925,5.925c-0.759,0-1.483-0.148-2.15-0.408        c0.398,0.796,0.628,1.692,0.628,2.643c0,3.272-2.653,5.925-5.925,5.925c-1.296,0-2.491-0.421-3.467-1.127        c0.001,0.034,0.005,0.067,0.005,0.101c0,3.272-2.653,5.925-5.925,5.925c-1.935,0-3.648-0.932-4.73-2.367        c0.021,0.204,0.033,0.412,0.033,0.622c0,3.272-2.653,5.925-5.925,5.925c-1.916,0-3.615-0.914-4.698-2.325        c-0.655,2.549-2.957,4.436-5.708,4.447c0.79,0.589,1.728,0.992,2.753,1.128c0.019,0.003,0.037,0.006,0.056,0.009        c0.238,0.029,0.479,0.049,0.725,0.049c0.005,0,0.009-0.001,0.014-0.001c0.005,0,0.009,0.001,0.014,0.001        c0.246,0,0.487-0.02,0.725-0.049c0.019-0.003,0.038-0.006,0.057-0.009c1.759-0.232,3.272-1.232,4.193-2.656        c1.051,0.948,2.437,1.531,3.963,1.531c2.762,0,5.076-1.892,5.732-4.449c1.083,1.411,2.782,2.325,4.698,2.325        c3.272,0,5.925-2.653,5.925-5.925c0-0.21-0.012-0.417-0.033-0.622c1.081,1.435,2.795,2.367,4.73,2.367        c3.272,0,5.925-2.653,5.925-5.925c0-0.034-0.005-0.067-0.005-0.101c0.975,0.706,2.17,1.127,3.466,1.127        c3.272,0,5.925-2.653,5.925-5.925c0-0.951-0.23-1.846-0.628-2.643c0.667,0.26,1.391,0.408,2.15,0.408        c3.272,0,5.925-2.653,5.925-5.925c0-1.648-0.674-3.137-1.759-4.211C447.554,278.729,449.936,276.19,449.936,273.09z" />
          </g>
        </g>
        <g>
          <path style="fill:#152F47;" d="M393.533,310.17c-0.295,0-0.555-0.02-0.811-0.052c-1.737-0.23-3.255-1.104-4.287-2.434       c-1.115,0.844-2.469,1.303-3.867,1.303c-2.626,0-4.951-1.594-5.932-3.969c-1.196,1.182-2.793,1.845-4.499,1.845       c-3.322,0-6.064-2.535-6.392-5.773c-1.16,1.024-2.646,1.593-4.229,1.593c-3.281,0-5.996-2.472-6.379-5.65       c-0.925,0.494-1.95,0.752-3.008,0.752c-3.543,0-6.425-2.883-6.425-6.426c0-0.64,0.094-1.265,0.28-1.869       c-0.429,0.09-0.864,0.136-1.303,0.136c-3.543,0-6.425-2.883-6.425-6.426c0-1.412,0.453-2.754,1.29-3.862       c-2.837-0.676-4.944-3.26-4.944-6.248c0-2.718,1.674-5.082,4.16-6.01c-0.976-1.154-1.522-2.622-1.522-4.14       c0-3.258,2.436-5.956,5.583-6.37c-0.492-0.924-0.749-1.947-0.749-3.003c0-3.511,2.83-6.373,6.329-6.425       c-0.266-0.714-0.404-1.476-0.404-2.24c0-3.542,2.883-6.425,6.426-6.425c0.309,0,0.616,0.023,0.922,0.067       c-0.172-0.581-0.258-1.181-0.258-1.791c0-3.542,2.883-6.425,6.426-6.425c0.908,0,1.794,0.189,2.609,0.552       c-0.026-0.233-0.039-0.467-0.039-0.7c0-3.542,2.882-6.425,6.425-6.425c1.359,0,2.666,0.427,3.756,1.217       c0.773-2.713,3.292-4.668,6.174-4.668c1.89,0,3.667,0.838,4.875,2.248c0.753-2.729,3.266-4.722,6.19-4.722       c2.948,0,5.465,1.993,6.218,4.722c1.208-1.409,2.985-2.248,4.876-2.248c2.881,0,5.399,1.955,6.173,4.668       c1.09-0.79,2.397-1.217,3.756-1.217c3.543,0,6.425,2.882,6.425,6.425c0,0.233-0.013,0.467-0.039,0.7       c0.816-0.364,1.702-0.553,2.61-0.553c3.543,0,6.425,2.882,6.425,6.425c0,0.61-0.086,1.21-0.258,1.791       c0.306-0.044,0.614-0.067,0.923-0.067c3.543,0,6.425,2.882,6.425,6.425c0,0.765-0.139,1.526-0.404,2.24       c3.499,0.052,6.329,2.914,6.329,6.425c0,1.058-0.258,2.082-0.751,3.006c3.157,0.42,5.585,3.115,5.585,6.367       c0,1.518-0.546,2.985-1.521,4.14c2.486,0.928,4.159,3.292,4.159,6.01c0,2.988-2.107,5.571-4.944,6.248       c0.838,1.108,1.291,2.45,1.291,3.862c0,3.543-2.883,6.426-6.426,6.426c-0.438,0-0.874-0.046-1.303-0.136       c0.186,0.604,0.28,1.23,0.28,1.869c0,3.543-2.882,6.426-6.425,6.426c-1.059,0-2.083-0.258-3.007-0.752       c-0.384,3.179-3.098,5.65-6.379,5.65c-1.584,0-3.069-0.569-4.23-1.593c-0.327,3.237-3.069,5.773-6.392,5.773       c-1.706,0-3.303-0.663-4.499-1.845c-0.979,2.375-3.305,3.969-5.932,3.969c-1.399,0-2.752-0.459-3.867-1.303       c-1.032,1.329-2.543,2.202-4.224,2.425C394.06,310.149,393.799,310.17,393.533,310.17z M388.632,306.192l0.318,0.493       c0.865,1.338,2.265,2.224,3.839,2.432c0.573,0.072,0.997,0.057,1.411,0.009c1.623-0.217,3.022-1.103,3.888-2.441l0.318-0.493       l0.436,0.393c1.003,0.903,2.291,1.401,3.628,1.401c2.475,0,4.633-1.675,5.248-4.073l0.256-0.995l0.625,0.814       c1.039,1.354,2.607,2.13,4.302,2.13c2.991,0,5.425-2.434,5.425-5.425c0-0.192-0.011-0.383-0.03-0.569l-0.188-1.794l1.085,1.44       c1.038,1.378,2.617,2.168,4.331,2.168c2.991,0,5.425-2.434,5.425-5.425v-0.979l0.788,0.473c0.933,0.676,2.03,1.033,3.173,1.033       c2.991,0,5.425-2.434,5.425-5.426c0-0.841-0.193-1.655-0.574-2.419l-0.579-1.162l1.208,0.473       c0.637,0.249,1.299,0.375,1.968,0.375c2.992,0,5.426-2.434,5.426-5.426c0-1.458-0.572-2.827-1.611-3.855l-0.77-0.762       l1.078-0.092c2.779-0.238,4.956-2.61,4.956-5.401c0-2.537-1.726-4.709-4.198-5.28l-0.931-0.216l0.707-0.642       c1.133-1.029,1.783-2.492,1.783-4.012c0-2.991-2.434-5.425-5.425-5.425h-0.975l0.545-0.791c0.668-0.93,1.021-2.022,1.021-3.157       c0-2.992-2.434-5.425-5.425-5.425c-0.217,0-0.429,0.017-0.638,0.041l-0.95,0.112l0.45-0.844       c0.417-0.781,0.638-1.662,0.638-2.549c0-2.991-2.434-5.425-5.425-5.425c-0.529,0-1.058,0.078-1.569,0.233l-1.064,0.321       l0.466-1.009c0.334-0.723,0.503-1.486,0.503-2.269c0-2.991-2.434-5.425-5.425-5.425c-1.086,0-2.134,0.32-3.031,0.925       l-1.146,0.774l0.386-1.328c0.145-0.5,0.22-1.011,0.22-1.519c0-2.991-2.434-5.425-5.425-5.425c-1.39,0-2.713,0.529-3.728,1.491       l-0.701,0.665l-0.138-0.956c-0.381-2.651-2.685-4.65-5.362-4.65c-1.953,0-3.765,1.061-4.727,2.769l-0.815,1.448l-0.119-1.658       c-0.201-2.822-2.575-5.033-5.404-5.033c-2.857,0-5.231,2.211-5.433,5.033l-0.119,1.658l-0.815-1.448       c-0.962-1.708-2.772-2.769-4.726-2.769c-2.677,0-4.982,1.999-5.363,4.65l-0.138,0.956l-0.701-0.665       c-1.015-0.962-2.338-1.491-3.728-1.491c-2.991,0-5.425,2.434-5.425,5.425c0,0.505,0.074,1.016,0.221,1.519l0.386,1.328       l-1.146-0.774c-0.897-0.605-1.945-0.925-3.031-0.925c-2.992,0-5.426,2.434-5.426,5.425c0,0.783,0.169,1.546,0.503,2.269       l0.466,1.009l-1.065-0.321c-0.512-0.154-1.04-0.233-1.568-0.233c-2.992,0-5.426,2.434-5.426,5.425       c0,0.887,0.221,1.768,0.638,2.549l0.45,0.844l-0.95-0.112c-0.209-0.024-0.421-0.041-0.638-0.041       c-2.991,0-5.425,2.434-5.425,5.425c0,1.136,0.352,2.228,1.02,3.157l0.568,0.792h-0.975c-0.001,0-0.001,0-0.002,0       c-3.014,0-5.446,2.434-5.446,5.424c0,1.52,0.65,2.982,1.784,4.012l0.707,0.643l-0.931,0.215       c-2.473,0.571-4.199,2.743-4.199,5.28c0,2.791,2.177,5.163,4.956,5.401l1.077,0.092l-0.768,0.762       c-1.038,1.028-1.61,2.397-1.61,3.855c0,2.992,2.434,5.426,5.425,5.426c0.669,0,1.331-0.126,1.969-0.375l1.21-0.473       l-0.581,1.162c-0.382,0.764-0.575,1.577-0.575,2.419c0,2.992,2.434,5.426,5.425,5.426c1.143,0,2.24-0.357,3.174-1.033       l0.821-0.595l-0.028,1.015c-0.006,3.078,2.428,5.512,5.42,5.512c1.714,0,3.293-0.79,4.33-2.168l1.086-1.441l-0.189,1.795       c-0.02,0.187-0.03,0.377-0.03,0.569c0,2.991,2.434,5.425,5.425,5.425c1.695,0,3.263-0.776,4.302-2.13l0.625-0.814l0.256,0.995       c0.616,2.398,2.775,4.073,5.248,4.073c1.337,0,2.625-0.498,3.628-1.401L388.632,306.192z" />
        </g>
        <g style="opacity:0.25;">
          <path style="fill:#FFFFFF;" d="M348.415,289.829c19.519-0.765,35.129-18.207,35.129-39.624c0-9.63-3.158-18.456-8.405-25.327       c-0.792-0.395-1.682-0.622-2.627-0.622c-3.272,0-5.925,2.653-5.925,5.925c0,0.576,0.086,1.131,0.24,1.658       c-0.945-0.638-2.084-1.011-3.31-1.011c-3.272,0-5.925,2.653-5.925,5.925c0,0.886,0.2,1.723,0.548,2.478       c-0.543-0.164-1.117-0.254-1.713-0.254c-3.272,0-5.925,2.653-5.925,5.925c0,1.007,0.253,1.954,0.696,2.784       c-0.229-0.027-0.46-0.044-0.696-0.044c-3.272,0-5.925,2.653-5.925,5.925c0,1.288,0.416,2.477,1.114,3.449       c-0.008,0-0.015-0.001-0.023-0.001c-3.272,0-5.925,2.653-5.925,5.925c0,1.739,0.754,3.299,1.948,4.382       c-2.627,0.608-4.587,2.956-4.587,5.767c0,3.1,2.381,5.639,5.413,5.899c-1.086,1.074-1.759,2.564-1.759,4.211       c0,3.272,2.653,5.925,5.925,5.925c0.759,0,1.483-0.148,2.15-0.408C348.656,289.069,348.52,289.442,348.415,289.829z" />
        </g>
      </g>
      <g>
        <g>
          <g>
            <path style="fill:#FFB7A0;" d="M427.547,223.397c-14.616-15.529-34.028-13.55-34.028-13.55s-19.412-1.979-34.028,13.55        c-14.616,15.529-15.682,25.067-24.664,27.378c0,0,9.58,12.008,24.207,5.132c14.627-6.876,20.098-19.72,34.485-19.72        c14.387,0,19.858,12.844,34.485,19.72c14.627,6.877,24.207-5.132,24.207-5.132        C443.229,248.464,442.163,238.926,427.547,223.397z" />
          </g>
          <g>
            <defs>
              <path id="SVGID_00000072240576888494910790000012846711385077599135_" d="M427.547,223.397         c-14.616-15.529-34.028-13.55-34.028-13.55s-19.412-1.979-34.028,13.55c-14.616,15.529-15.682,25.067-24.664,27.378         c0,0,9.58,12.008,24.207,5.132c14.627-6.876,20.098-19.72,34.485-19.72c14.387,0,19.858,12.844,34.485,19.72         c14.627,6.877,24.207-5.132,24.207-5.132C443.229,248.464,442.163,238.926,427.547,223.397z" />
            </defs>
            <clipPath id="SVGID_00000063608991933158331070000017509542782992166282_">
              <use ns1:href="#SVGID_00000072240576888494910790000012846711385077599135_" style="overflow:visible;" />
            </clipPath>
            <g style="clip-path:url(#SVGID_00000063608991933158331070000017509542782992166282_);">
              <g>
                <g>
                  <path style="fill:#FFD5CA;" d="M372.498,199.434c-4.312,5.398-7.939,11.435-11.152,17.533           c-6.567,12.465-11.382,26.187-12.131,40.346c-0.472,8.93,0.847,17.951,4.248,26.241c0.366,0.893,1.194,1.537,2.207,1.253           c0.846-0.237,1.624-1.302,1.253-2.207c-5.806-14.154-5.034-29.665-0.673-44.098c3.332-11.026,8.561-21.483,14.917-31.07           c0.957-1.444,1.943-2.869,2.969-4.265c0.281-0.383,0.57-0.76,0.855-1.141c0.147-0.195-0.323,0.415-0.038,0.05           c0.028-0.035,0.055-0.071,0.083-0.106c0.609-0.763,0.731-1.79,0-2.538C374.415,198.8,373.101,198.678,372.498,199.434           L372.498,199.434z" />
                </g>
              </g>
              <g>
                <g>
                  <path style="fill:#FFD5CA;" d="M389.135,194.67c-4.312,5.398-7.939,11.435-11.152,17.533           c-6.567,12.465-11.382,26.187-12.131,40.346c-0.472,8.93,0.847,17.951,4.248,26.241c0.366,0.893,1.194,1.537,2.207,1.253           c0.846-0.237,1.625-1.302,1.253-2.207c-5.806-14.154-5.034-29.665-0.673-44.098c3.331-11.026,8.561-21.483,14.916-31.07           c0.957-1.444,1.943-2.869,2.969-4.265c0.281-0.383,0.57-0.76,0.855-1.141c0.146-0.195-0.323,0.415-0.038,0.05           c0.028-0.035,0.056-0.071,0.083-0.106c0.609-0.763,0.731-1.79,0-2.538C391.052,194.036,389.738,193.914,389.135,194.67           L389.135,194.67z" />
                </g>
              </g>
              <g>
                <g>
                  <path style="fill:#FFD5CA;" d="M408.987,187.528c-4.312,5.398-7.939,11.435-11.152,17.533           c-6.567,12.465-11.382,26.187-12.131,40.346c-0.472,8.93,0.847,17.951,4.248,26.241c0.366,0.893,1.194,1.537,2.207,1.253           c0.846-0.237,1.624-1.302,1.253-2.207c-5.806-14.154-5.034-29.665-0.673-44.098c3.331-11.026,8.561-21.483,14.916-31.07           c0.957-1.444,1.943-2.869,2.969-4.265c0.281-0.383,0.57-0.76,0.855-1.14c0.146-0.195-0.323,0.414-0.038,0.05           c0.028-0.035,0.056-0.071,0.083-0.106c0.609-0.763,0.731-1.79,0-2.538C410.905,186.894,409.591,186.772,408.987,187.528           L408.987,187.528z" />
                </g>
              </g>
              <g>
                <g>
                  <path style="fill:#FFD5CA;" d="M424.817,194.67c-4.312,5.398-7.939,11.435-11.152,17.533           c-6.567,12.465-11.382,26.187-12.131,40.346c-0.472,8.93,0.847,17.951,4.248,26.241c0.366,0.893,1.194,1.537,2.207,1.253           c0.846-0.237,1.624-1.302,1.253-2.207c-5.806-14.154-5.034-29.665-0.673-44.098c3.331-11.026,8.561-21.483,14.917-31.07           c0.957-1.444,1.943-2.869,2.969-4.265c0.282-0.383,0.57-0.76,0.855-1.141c0.147-0.195-0.323,0.415-0.038,0.05           c0.028-0.035,0.055-0.071,0.083-0.106c0.609-0.763,0.731-1.79,0-2.538C426.734,194.036,425.42,193.914,424.817,194.67           L424.817,194.67z" />
                </g>
              </g>
              <g>
                <g>
                  <path style="fill:#FFD5CA;" d="M440.463,202.456c-4.312,5.398-7.939,11.435-11.152,17.533           c-6.567,12.465-11.382,26.187-12.132,40.346c-0.472,8.93,0.847,17.951,4.248,26.241c0.366,0.893,1.194,1.537,2.207,1.253           c0.847-0.237,1.625-1.302,1.253-2.207c-5.806-14.154-5.034-29.664-0.673-44.098c3.331-11.026,8.561-21.483,14.917-31.07           c0.957-1.444,1.943-2.869,2.969-4.265c0.281-0.383,0.57-0.76,0.855-1.141c0.147-0.195-0.323,0.415-0.038,0.05           c0.028-0.035,0.055-0.071,0.083-0.106c0.609-0.763,0.731-1.79,0-2.537C442.381,201.822,441.067,201.7,440.463,202.456           L440.463,202.456z" />
                </g>
              </g>
              <g>
                <g>
                  <path style="fill:#FFD5CA;" d="M454.709,210.622c-4.312,5.398-7.939,11.435-11.152,17.533           c-6.567,12.465-11.382,26.187-12.132,40.346c-0.472,8.93,0.847,17.951,4.248,26.241c0.366,0.893,1.194,1.537,2.207,1.253           c0.847-0.237,1.624-1.302,1.253-2.207c-5.806-14.154-5.034-29.665-0.673-44.098c3.331-11.026,8.561-21.483,14.917-31.07           c0.957-1.444,1.943-2.869,2.969-4.265c0.281-0.383,0.57-0.76,0.855-1.141c0.147-0.195-0.323,0.415-0.038,0.05           c0.028-0.035,0.055-0.071,0.083-0.106c0.609-0.763,0.731-1.79,0-2.537C456.627,209.988,455.313,209.866,454.709,210.622           L454.709,210.622z" />
                </g>
              </g>
            </g>
          </g>
        </g>
        <g style="opacity:0.39;">
          <path style="fill:#D3A1A1;" d="M393.519,225.279c0,0-19.412-1.979-34.028,13.55c-7.245,7.698-11.159,13.921-14.36,18.523       c3.796,1.054,8.504,1.092,13.903-1.446c14.627-6.876,20.098-19.72,34.485-19.72c14.387,0,19.858,12.844,34.485,19.72       c5.399,2.538,10.107,2.5,13.903,1.446c-3.201-4.603-7.115-10.826-14.36-18.523C412.932,223.3,393.519,225.279,393.519,225.279z       " />
        </g>
      </g>
      <g>
        <path style="fill:#152F47;" d="M350.123,258.517c-9.617,0-15.61-7.334-15.686-7.43l-0.481-0.604l0.747-0.192      c4.993-1.284,7.426-4.847,11.458-10.75c3.004-4.399,6.744-9.874,12.967-16.486c14.25-15.141,33.269-13.804,34.392-13.709      c1.122-0.094,20.14-1.433,34.393,13.709l0,0c6.222,6.611,9.961,12.086,12.966,16.485c4.031,5.903,6.466,9.467,11.459,10.751      l0.747,0.192l-0.482,0.604c-0.098,0.124-10,12.235-24.811,5.271c-5.943-2.794-10.29-6.478-14.493-10.041      c-6.097-5.168-11.362-9.631-19.778-9.631c-8.416,0-13.683,4.463-19.779,9.631c-4.203,3.563-8.55,7.247-14.493,10.041      C355.943,257.912,352.884,258.517,350.123,258.517z M393.519,235.686c8.783,0,14.439,4.794,20.425,9.869      c4.153,3.52,8.448,7.161,14.272,9.899c12.409,5.835,20.977-2.114,23.103-4.415c-4.853-1.544-7.443-5.336-11.267-10.936      c-2.984-4.371-6.699-9.81-12.868-16.364c-14.27-15.162-33.424-13.415-33.613-13.395l-0.051,0.005l-0.051-0.005      c-0.19-0.022-19.346-1.766-33.613,13.395c-6.17,6.555-9.885,11.994-12.87,16.365c-3.823,5.599-6.414,9.391-11.266,10.934      c2.124,2.303,10.69,10.249,23.102,4.416c5.823-2.738,10.119-6.379,14.272-9.899C379.081,240.48,384.736,235.686,393.519,235.686      z" />
      </g>
      <g>
        <g>
          <g>
            <g>
              <path style="fill:#FFFFFF;" d="M346.345,271.741c0.148,1.528,0.697,3.065,1.262,4.478c1.507,3.768,3.884,7.152,6.667,10.085         c0.481,0.507,1.301-0.208,0.819-0.716c-2.726-2.872-5.035-6.16-6.511-9.85c-0.532-1.331-1.033-2.776-1.172-4.215         C347.342,270.826,346.278,271.051,346.345,271.741L346.345,271.741z" />
            </g>
          </g>
          <g>
            <path style="fill:#FFFFFF;" d="M356.594,287.134c0.246,0.162,0.314,0.493,0.152,0.738c-0.162,0.246-0.492,0.314-0.738,0.152        c-0.246-0.162-0.314-0.493-0.152-0.738C356.018,287.04,356.348,286.972,356.594,287.134z" />
          </g>
        </g>
        <g>
          <g>
            <g>
              <path style="fill:#FFFFFF;" d="M379.29,215.652c-1.534,0.059-3.1,0.517-4.544,0.998c-3.85,1.284-7.367,3.459-10.457,6.066         c-0.534,0.451,0.132,1.311,0.667,0.859c3.027-2.553,6.444-4.667,10.214-5.924c1.359-0.453,2.832-0.868,4.276-0.924         C380.145,216.701,379.983,215.625,379.29,215.652L379.29,215.652z" />
            </g>
          </g>
          <g>
            <path style="fill:#FFFFFF;" d="M363.324,224.983c-0.176,0.236-0.51,0.284-0.746,0.108c-0.236-0.176-0.284-0.51-0.108-0.746        c0.176-0.236,0.51-0.284,0.746-0.108C363.452,224.413,363.5,224.747,363.324,224.983z" />
          </g>
        </g>
      </g>
    </g>
    <g>
      <g>
        <g>
          <g>
            <g>
              <path style="fill:#152F47;" d="M382.449,266.971c0,3.262-1.766,5.906-3.945,5.906c-2.179,0-3.945-2.644-3.945-5.906         c0-3.262,1.766-5.906,3.945-5.906C380.683,261.065,382.449,263.71,382.449,266.971z" />
            </g>
            <g>
              <g>
                <circle style="fill:#FFFFFF;" cx="377.672" cy="264.549" r="1.638" />
              </g>
              <g>
                <path style="fill:#FFFFFF;" d="M380.975,267.156c0,0.595-0.483,1.078-1.078,1.078c-0.595,0-1.078-0.483-1.078-1.078          s0.483-1.078,1.078-1.078C380.492,266.078,380.975,266.561,380.975,267.156z" />
              </g>
            </g>
          </g>
          <g>
            <g>
              <path style="fill:#152F47;" d="M412.479,266.971c0,3.262-1.766,5.906-3.945,5.906c-2.179,0-3.945-2.644-3.945-5.906         c0-3.262,1.766-5.906,3.945-5.906C410.713,261.065,412.479,263.71,412.479,266.971z" />
            </g>
            <g>
              <g>
                <path style="fill:#FFFFFF;" d="M409.339,264.549c0,0.905-0.733,1.638-1.638,1.638c-0.905,0-1.638-0.733-1.638-1.638          s0.733-1.638,1.638-1.638C408.606,262.911,409.339,263.644,409.339,264.549z" />
              </g>
              <g>
                <path style="fill:#FFFFFF;" d="M411.005,267.156c0,0.595-0.483,1.078-1.078,1.078c-0.595,0-1.078-0.483-1.078-1.078          s0.482-1.078,1.078-1.078C410.522,266.078,411.005,266.561,411.005,267.156z" />
              </g>
            </g>
          </g>
        </g>
        <g>
          <g>
            <path style="fill:#152F47;" d="M388.823,265.416c0.01,1.193,0.132,2.392,0.303,3.572c0.273,1.886,0.71,3.98,1.933,5.5        c1.173,1.457,3.137,1.664,4.558,0.43c1.456-1.263,2.075-3.423,2.491-5.231c0.321-1.398,0.549-2.839,0.64-4.271        c0.049-0.769-1.148-0.766-1.196,0c-0.067,1.061-0.206,1.997-0.405,3.04c-0.327,1.713-0.765,3.604-1.828,5.028        c-0.41,0.548-0.932,0.991-1.597,1.072c-0.597,0.073-1.176-0.205-1.622-0.688c-1.132-1.224-1.493-3.175-1.752-4.764        c-0.198-1.214-0.317-2.457-0.327-3.689C390.012,264.647,388.816,264.645,388.823,265.416L388.823,265.416z" />
          </g>
        </g>
      </g>
      <g>
        <g>
          <path style="fill:#FF81CE;" d="M379.733,273.729c-0.304,0.798-2.401,0.738-4.684-0.133c-2.283-0.871-3.886-2.224-3.582-3.021       c0.304-0.798,2.401-0.738,4.684,0.133C378.434,271.578,380.037,272.931,379.733,273.729z" />
        </g>
        <g>
          <path style="fill:#FF81CE;" d="M407.305,273.729c0.304,0.798,2.401,0.738,4.684-0.133c2.283-0.871,3.886-2.224,3.582-3.021       c-0.304-0.798-2.401-0.738-4.684,0.133C408.605,271.578,407.001,272.931,407.305,273.729z" />
        </g>
      </g>
    </g>
  </g>
</svg>