<?xml version='1.0' encoding='utf-8'?>
<svg xmlns="http://www.w3.org/2000/svg" xmlns:ns1="http://www.w3.org/1999/xlink" version="1.1" viewBox="-57.322 -75.753 419.549 394.626" width="419.549" height="394.626">
  <g>
    <g>
      <g>
        <g>
          <path style="fill:#EFDE89;" d="M299.887,229.798c0,8.716-7.065,15.781-15.782,15.781c-8.716,0-15.781-7.065-15.781-15.781       c0-8.716,7.065-15.781,15.781-15.781C292.821,214.017,299.887,221.082,299.887,229.798z" />
        </g>
        <g>
          <path style="fill:#FFFFFF;" d="M298.113,229.798c0,7.737-6.271,14.009-14.009,14.009c-7.736,0-14.008-6.271-14.008-14.009       c0-7.736,6.272-14.008,14.008-14.008C291.842,215.79,298.113,222.061,298.113,229.798z" />
        </g>
        <g>
          <g>
            <g>
              <path style="fill:#E0C75F;" d="M280.839,229.289c1.12,0,1.389-0.647,0.598-1.439l-5.42-5.42         c-0.792-0.792-1.939-0.671-2.55,0.268l-1.869,4.607c-0.252,1.092,0.461,1.984,1.58,1.984H280.839z" />
            </g>
          </g>
          <g>
            <g>
              <path style="fill:#E0C75F;" d="M281.436,231.747c0.791-0.792,0.523-1.439-0.598-1.439h-7.661         c-1.119,0-1.832,0.893-1.58,1.984l1.869,4.607c0.61,0.939,1.758,1.06,2.55,0.268L281.436,231.747z" />
            </g>
          </g>
          <g>
            <g>
              <path style="fill:#E0C75F;" d="M286.599,217.289c-1.092-0.25-1.984,0.461-1.984,1.581v7.663c0,1.12,0.648,1.389,1.439,0.597         l5.42-5.42c0.791-0.792,0.672-1.94-0.267-2.55L286.599,217.289z" />
            </g>
          </g>
          <g>
            <g>
              <path style="fill:#E0C75F;" d="M283.596,218.87c0-1.12-0.893-1.831-1.984-1.581l-4.607,1.871         c-0.939,0.61-1.06,1.758-0.268,2.55l5.42,5.42c0.791,0.792,1.439,0.523,1.439-0.597V218.87z" />
            </g>
          </g>
          <g>
            <g>
              <path style="fill:#E0C75F;" d="M287.371,230.308c-1.12,0-1.389,0.647-0.598,1.439l5.42,5.42         c0.792,0.792,1.939,0.671,2.549-0.268l1.87-4.607c0.252-1.092-0.461-1.984-1.58-1.984H287.371z" />
            </g>
          </g>
          <g>
            <g>
              <path style="fill:#E0C75F;" d="M283.596,233.064c0-1.12-0.648-1.389-1.439-0.597l-5.42,5.42         c-0.792,0.792-0.672,1.939,0.268,2.55l4.607,1.87c1.092,0.251,1.984-0.46,1.984-1.58V233.064z" />
            </g>
          </g>
          <g>
            <g>
              <path style="fill:#E0C75F;" d="M286.773,227.85c-0.791,0.792-0.522,1.439,0.598,1.439h7.661c1.119,0,1.832-0.893,1.58-1.984         l-1.87-4.607c-0.609-0.938-1.757-1.06-2.549-0.268L286.773,227.85z" />
            </g>
          </g>
          <g>
            <g>
              <path style="fill:#E0C75F;" d="M286.054,232.467c-0.791-0.792-1.439-0.523-1.439,0.597v7.663c0,1.12,0.892,1.831,1.984,1.58         l4.608-1.87c0.939-0.61,1.059-1.758,0.267-2.55L286.054,232.467z" />
            </g>
          </g>
        </g>
        <g>
          <g>
            <g>
              <path style="fill:#EFDE89;" d="M278.179,221.204c0.277,0.445,0.41,0.862,0.297,0.932c-0.113,0.07-0.427-0.235-0.702-0.681         c-0.275-0.445-0.408-0.863-0.296-0.933C277.589,220.453,277.903,220.758,278.179,221.204z" />
            </g>
            <g>
              <path style="fill:#EFDE89;" d="M280.124,222.349c0.205,0.484,0.272,0.916,0.149,0.968c-0.121,0.052-0.386-0.298-0.589-0.78         c-0.204-0.483-0.271-0.916-0.15-0.968C279.656,221.517,279.92,221.867,280.124,222.349z" />
            </g>
            <g>
              <path style="fill:#EFDE89;" d="M280.833,219.925c0.149,0.503,0.17,0.94,0.043,0.977c-0.128,0.038-0.352-0.339-0.501-0.84         c-0.148-0.503-0.169-0.94-0.043-0.979C280.46,219.046,280.684,219.423,280.833,219.925z" />
            </g>
            <g>
              <path style="fill:#EFDE89;" d="M282.624,221.846c0.018,0.524-0.074,0.952-0.207,0.957c-0.133,0.004-0.253-0.418-0.271-0.941         c-0.017-0.523,0.076-0.951,0.209-0.956C282.487,220.901,282.607,221.321,282.624,221.846z" />
            </g>
            <g>
              <path style="fill:#EFDE89;" d="M282.109,224.764c0.211,0.48,0.288,0.911,0.165,0.965c-0.121,0.053-0.391-0.293-0.603-0.771         c-0.211-0.48-0.287-0.912-0.165-0.965C281.628,223.939,281.897,224.284,282.109,224.764z" />
            </g>
          </g>
          <g>
            <g>
              <path style="fill:#EFDE89;" d="M286.987,219.665c-0.217,0.478-0.489,0.82-0.61,0.765c-0.12-0.055-0.041-0.485,0.176-0.962         c0.217-0.477,0.49-0.82,0.609-0.766C287.284,218.757,287.204,219.188,286.987,219.665z" />
            </g>
            <g>
              <path style="fill:#EFDE89;" d="M287.117,221.918c-0.289,0.439-0.609,0.735-0.721,0.662c-0.111-0.072,0.033-0.485,0.32-0.923         c0.288-0.438,0.611-0.735,0.721-0.663C287.548,221.067,287.404,221.48,287.117,221.918z" />
            </g>
            <g>
              <path style="fill:#EFDE89;" d="M289.525,221.159c-0.335,0.405-0.686,0.664-0.789,0.579c-0.101-0.085,0.087-0.48,0.421-0.883         c0.335-0.403,0.688-0.664,0.789-0.579C290.049,220.36,289.86,220.756,289.525,221.159z" />
            </g>
            <g>
              <path style="fill:#EFDE89;" d="M288.926,223.717c-0.427,0.306-0.833,0.467-0.911,0.358c-0.077-0.107,0.207-0.441,0.632-0.746         c0.427-0.306,0.833-0.467,0.911-0.359C289.635,223.077,289.352,223.411,288.926,223.717z" />
            </g>
            <g>
              <path style="fill:#EFDE89;" d="M286.214,224.911c-0.28,0.443-0.597,0.745-0.71,0.674c-0.111-0.071,0.026-0.487,0.307-0.93         c0.28-0.442,0.598-0.745,0.709-0.674C286.632,224.053,286.495,224.469,286.214,224.911z" />
            </g>
          </g>
          <g>
            <g>
              <path style="fill:#EFDE89;" d="M293.255,224.286c-0.474,0.227-0.902,0.313-0.959,0.192c-0.058-0.119,0.28-0.397,0.753-0.622         c0.473-0.225,0.903-0.313,0.959-0.193C294.065,223.782,293.727,224.061,293.255,224.286z" />
            </g>
            <g>
              <path style="fill:#EFDE89;" d="M291.903,226.094c-0.503,0.151-0.94,0.171-0.978,0.044c-0.039-0.127,0.338-0.351,0.839-0.501         c0.503-0.15,0.941-0.17,0.979-0.043C292.781,225.72,292.405,225.943,291.903,226.094z" />
            </g>
            <g>
              <path style="fill:#EFDE89;" d="M294.234,227.064c-0.517,0.094-0.952,0.065-0.977-0.066c-0.023-0.13,0.375-0.311,0.891-0.404         c0.516-0.094,0.953-0.065,0.978,0.064C295.15,226.79,294.751,226.971,294.234,227.064z" />
            </g>
            <g>
              <path style="fill:#EFDE89;" d="M292.129,228.634c-0.523-0.04-0.938-0.178-0.927-0.311c0.01-0.132,0.441-0.205,0.964-0.165         c0.522,0.041,0.938,0.18,0.929,0.311C293.084,228.602,292.653,228.675,292.129,228.634z" />
            </g>
            <g>
              <path style="fill:#EFDE89;" d="M289.285,227.804c-0.499,0.157-0.937,0.186-0.977,0.058c-0.04-0.126,0.333-0.356,0.833-0.515         c0.5-0.157,0.937-0.185,0.978-0.058C290.158,227.415,289.785,227.645,289.285,227.804z" />
            </g>
          </g>
          <g>
            <g>
              <path style="fill:#EFDE89;" d="M294.389,231.85c-0.508-0.138-0.889-0.352-0.854-0.479c0.036-0.128,0.474-0.119,0.979,0.02         c0.505,0.137,0.888,0.353,0.852,0.479C295.33,231.997,294.894,231.987,294.389,231.85z" />
            </g>
            <g>
              <path style="fill:#EFDE89;" d="M292.185,232.339c-0.48-0.215-0.824-0.484-0.77-0.605c0.054-0.121,0.485-0.045,0.963,0.168         c0.479,0.215,0.823,0.485,0.769,0.605C293.094,232.628,292.663,232.552,292.185,232.339z" />
            </g>
            <g>
              <path style="fill:#EFDE89;" d="M293.318,234.595c-0.452-0.267-0.765-0.571-0.697-0.686c0.066-0.113,0.487,0.009,0.938,0.273         c0.452,0.267,0.766,0.573,0.699,0.687C294.191,234.982,293.77,234.86,293.318,234.595z" />
            </g>
            <g>
              <path style="fill:#EFDE89;" d="M290.698,234.411c-0.37-0.372-0.595-0.746-0.5-0.84c0.095-0.094,0.469,0.132,0.838,0.503         c0.37,0.373,0.596,0.748,0.501,0.842C291.444,235.01,291.069,234.784,290.698,234.411z" />
            </g>
            <g>
              <path style="fill:#EFDE89;" d="M289.085,231.927c-0.483-0.205-0.832-0.47-0.778-0.593c0.052-0.121,0.484-0.053,0.967,0.153         c0.482,0.206,0.83,0.47,0.778,0.593C289.999,232.202,289.566,232.134,289.085,231.927z" />
            </g>
          </g>
          <g>
            <g>
              <path style="fill:#EFDE89;" d="M289.633,237.763c-0.287-0.439-0.43-0.854-0.317-0.926c0.111-0.072,0.433,0.228,0.717,0.667         c0.284,0.438,0.426,0.852,0.317,0.924C290.236,238.5,289.917,238.202,289.633,237.763z" />
            </g>
            <g>
              <path style="fill:#EFDE89;" d="M287.663,236.66c-0.216-0.48-0.292-0.91-0.172-0.964c0.121-0.055,0.392,0.289,0.607,0.767         c0.213,0.479,0.291,0.911,0.17,0.964C288.149,237.481,287.877,237.138,287.663,236.66z" />
            </g>
            <g>
              <path style="fill:#EFDE89;" d="M287.006,239.099c-0.16-0.501-0.19-0.937-0.064-0.977c0.125-0.041,0.358,0.33,0.518,0.829         c0.161,0.5,0.19,0.936,0.065,0.977C287.398,239.969,287.166,239.598,287.006,239.099z" />
            </g>
            <g>
              <path style="fill:#EFDE89;" d="M285.174,237.216c-0.027-0.523,0.054-0.952,0.188-0.958c0.132-0.009,0.261,0.41,0.289,0.933         c0.027,0.523-0.055,0.954-0.188,0.962C285.331,238.159,285.203,237.741,285.174,237.216z" />
            </g>
            <g>
              <path style="fill:#EFDE89;" d="M285.625,234.288c-0.222-0.474-0.307-0.904-0.186-0.96c0.119-0.057,0.396,0.283,0.618,0.758         c0.224,0.476,0.308,0.904,0.186,0.961C286.123,235.102,285.848,234.764,285.625,234.288z" />
            </g>
          </g>
          <g>
            <g>
              <path style="fill:#EFDE89;" d="M281.855,239.977c0.151-0.502,0.373-0.878,0.502-0.841c0.126,0.039,0.105,0.478-0.046,0.979         c-0.15,0.501-0.375,0.877-0.5,0.84C281.684,240.916,281.703,240.48,281.855,239.977z" />
            </g>
            <g>
              <path style="fill:#EFDE89;" d="M281.424,237.764c0.227-0.475,0.505-0.813,0.623-0.755c0.12,0.058,0.033,0.486-0.191,0.959         c-0.228,0.473-0.507,0.811-0.625,0.753C281.111,238.664,281.197,238.235,281.424,237.764z" />
            </g>
            <g>
              <path style="fill:#EFDE89;" d="M279.139,238.839c0.277-0.446,0.59-0.75,0.703-0.68c0.113,0.068-0.02,0.486-0.298,0.931         c-0.276,0.445-0.592,0.751-0.704,0.682C278.728,239.7,278.861,239.283,279.139,238.839z" />
            </g>
            <g>
              <path style="fill:#EFDE89;" d="M279.39,236.224c0.381-0.359,0.761-0.575,0.852-0.478c0.091,0.096-0.143,0.465-0.524,0.824         c-0.381,0.36-0.763,0.576-0.855,0.48C278.771,236.953,279.007,236.585,279.39,236.224z" />
            </g>
            <g>
              <path style="fill:#EFDE89;" d="M281.914,234.675c0.219-0.476,0.491-0.819,0.613-0.762c0.12,0.054,0.041,0.484-0.18,0.961         c-0.218,0.478-0.49,0.818-0.612,0.763C281.616,235.581,281.695,235.151,281.914,234.675z" />
            </g>
          </g>
          <g>
            <g>
              <path style="fill:#EFDE89;" d="M275.18,235.371c0.457-0.257,0.879-0.372,0.943-0.256c0.065,0.116-0.254,0.417-0.712,0.672         c-0.457,0.256-0.879,0.369-0.943,0.256C274.404,235.927,274.722,235.626,275.18,235.371z" />
            </g>
            <g>
              <path style="fill:#EFDE89;" d="M276.408,233.48c0.491-0.185,0.928-0.233,0.974-0.109c0.045,0.124-0.315,0.372-0.806,0.557         c-0.492,0.18-0.928,0.23-0.973,0.106C275.557,233.909,275.918,233.661,276.408,233.48z" />
            </g>
            <g>
              <path style="fill:#EFDE89;" d="M274.018,232.664c0.51-0.127,0.946-0.129,0.978,0c0.033,0.128-0.353,0.335-0.861,0.463         c-0.508,0.128-0.946,0.128-0.979,0C273.124,232.998,273.51,232.79,274.018,232.664z" />
            </g>
            <g>
              <path style="fill:#EFDE89;" d="M276.016,230.958c0.524,0.006,0.947,0.115,0.944,0.249c-0.001,0.132-0.427,0.234-0.949,0.229         c-0.525-0.007-0.948-0.116-0.947-0.25C275.065,231.054,275.489,230.953,276.016,230.958z" />
            </g>
            <g>
              <path style="fill:#EFDE89;" d="M278.908,231.6c0.487-0.189,0.922-0.247,0.969-0.121c0.05,0.122-0.307,0.376-0.796,0.565         c-0.488,0.192-0.922,0.248-0.971,0.123C278.063,232.044,278.42,231.79,278.908,231.6z" />
            </g>
          </g>
          <g>
            <g>
              <path style="fill:#EFDE89;" d="M273.935,228.063c0.523,0.05,0.934,0.195,0.921,0.328c-0.013,0.133-0.447,0.198-0.968,0.146         c-0.52-0.05-0.934-0.197-0.921-0.327C272.981,228.076,273.414,228.011,273.935,228.063z" />
            </g>
            <g>
              <path style="fill:#EFDE89;" d="M276.024,227.21c0.509,0.129,0.895,0.337,0.86,0.466c-0.033,0.128-0.471,0.125-0.979-0.003         c-0.507-0.132-0.894-0.34-0.859-0.468C275.079,227.078,275.517,227.079,276.024,227.21z" />
            </g>
            <g>
              <path style="fill:#EFDE89;" d="M274.525,225.176c0.491,0.188,0.851,0.435,0.803,0.559c-0.046,0.124-0.48,0.074-0.971-0.112         c-0.49-0.184-0.852-0.434-0.805-0.557C273.602,224.94,274.035,224.99,274.525,225.176z" />
            </g>
            <g>
              <path style="fill:#EFDE89;" d="M277.14,224.915c0.427,0.305,0.713,0.636,0.634,0.743c-0.076,0.108-0.484-0.051-0.91-0.355         c-0.428-0.306-0.714-0.636-0.636-0.745C276.305,224.451,276.71,224.61,277.14,224.915z" />
            </g>
            <g>
              <path style="fill:#EFDE89;" d="M279.148,227.093c0.51,0.122,0.9,0.322,0.866,0.452c-0.029,0.129-0.467,0.134-0.978,0.011         c-0.51-0.121-0.897-0.322-0.867-0.452C278.202,226.976,278.639,226.97,279.148,227.093z" />
            </g>
          </g>
        </g>
        <g style="opacity:0.1;">
          <path style="fill:#E8775D;" d="M292.125,216.224c2.005,2.646,3.208,5.934,3.208,9.511c0,8.716-7.065,15.781-15.781,15.781       c-2.932,0-5.667-0.814-8.02-2.207c2.882,3.803,7.434,6.271,12.572,6.271c8.717,0,15.782-7.065,15.782-15.781       C299.887,224.015,296.766,218.972,292.125,216.224z" />
        </g>
        <g>
          <path style="fill:#152F47;" d="M284.104,246.079c-8.977,0-16.281-7.304-16.281-16.281c0-8.978,7.304-16.281,16.281-16.281       c8.979,0,16.282,7.304,16.282,16.281C300.387,238.775,293.083,246.079,284.104,246.079z M284.104,214.517       c-8.426,0-15.281,6.855-15.281,15.281c0,8.426,6.855,15.281,15.281,15.281c8.427,0,15.282-6.855,15.282-15.281       C299.387,221.372,292.531,214.517,284.104,214.517z" />
        </g>
      </g>
      <g>
        <g>
          <g>
            <rect x="270.582" y="237.082" transform="matrix(0.3265 -0.9452 0.9452 0.3265 -20.3884 448.9897)" style="fill:#C3C5F4;" width="68.565" height="3.44" />
          </g>
          <g>
            <defs>
              <rect id="SVGID_00000036968116639000840070000016799948706453658023_" x="270.582" y="237.082" transform="matrix(0.3265 -0.9452 0.9452 0.3265 -20.3884 448.9897)" width="68.565" height="3.44" />
            </defs>
            <clipPath id="SVGID_00000047756043378924634220000013514893225819181475_">
              <use ns1:href="#SVGID_00000036968116639000840070000016799948706453658023_" style="overflow:visible;" />
            </clipPath>
            <g style="clip-path:url(#SVGID_00000047756043378924634220000013514893225819181475_);">
              <g>
                <g>
                  <rect x="250.335" y="263.544" transform="matrix(0.9822 -0.188 0.188 0.9822 -44.4761 60.6753)" style="fill:#757EEA;" width="94.703" height="2.608" />
                </g>
                <g>
                  <rect x="253.123" y="255.474" transform="matrix(0.9822 -0.188 0.188 0.9822 -42.9078 61.0527)" style="fill:#757EEA;" width="94.703" height="2.608" />
                </g>
              </g>
              <g>
                <g>
                  <rect x="255.911" y="247.402" transform="matrix(0.9822 -0.1879 0.1879 0.9822 -41.3372 61.4258)" style="fill:#757EEA;" width="94.702" height="2.608" />
                </g>
                <g>
                  <rect x="258.699" y="239.332" transform="matrix(0.9822 -0.188 0.188 0.9822 -39.7764 61.8168)" style="fill:#757EEA;" width="94.703" height="2.608" />
                </g>
              </g>
              <g>
                <g>
                  <rect x="261.487" y="231.261" transform="matrix(0.9822 -0.188 0.188 0.9822 -38.2079 62.1933)" style="fill:#757EEA;" width="94.703" height="2.609" />
                </g>
                <g>
                  <rect x="264.276" y="223.19" transform="matrix(0.9822 -0.188 0.188 0.9822 -36.6429 62.5771)" style="fill:#757EEA;" width="94.703" height="2.608" />
                </g>
              </g>
              <g>
                <g>
                  <rect x="267.064" y="215.119" transform="matrix(0.9822 -0.188 0.188 0.9822 -35.0758 62.9567)" style="fill:#757EEA;" width="94.703" height="2.608" />
                </g>
                <g>
                  <rect x="269.853" y="207.049" transform="matrix(0.9822 -0.188 0.188 0.9822 -33.5078 63.3341)" style="fill:#757EEA;" width="94.703" height="2.608" />
                </g>
              </g>
            </g>
          </g>
        </g>
        <g style="opacity:0.4;">
          <rect x="271.395" y="238.138" transform="matrix(0.3264 -0.9452 0.9452 0.3264 -20.0927 449.9675)" style="fill:#B6BBEF;" width="68.566" height="1.888" />
        </g>
        <g>
          <path style="fill:#152F47;" d="M295.605,272.402l-4.196-1.449l22.715-65.753l4.196,1.451L295.605,272.402z M292.681,270.334       l2.306,0.797l22.062-63.862l-2.306-0.797L292.681,270.334z" />
        </g>
      </g>
      <g>
        <g>
          <g>
            <g>
              <path style="fill:#CC533B;" d="M351.727,273.988c0-23.41-21.582-38.774-21.582-38.774         c-11.701,5.85-25.227,5.121-25.239,5.121c-0.012,0-13.538,0.729-25.239-5.121c0,0-21.583,15.363-21.583,38.774         c0,23.411,19.388,34.385,46.821,34.385l0,0c0,0,0,0,0.001,0l0,0l0,0C332.34,308.373,351.727,297.399,351.727,273.988z" />
            </g>
            <g>
              <defs>
                <path id="SVGID_00000032646988021216897310000005419397902219184556_" d="M351.727,273.988          c0-23.41-21.582-38.774-21.582-38.774c-11.701,5.85-25.227,5.121-25.239,5.121c-0.012,0-13.538,0.729-25.239-5.121          c0,0-21.583,15.363-21.583,38.774c0,23.411,19.388,34.385,46.821,34.385l0,0c0,0,0,0,0.001,0l0,0l0,0          C332.34,308.373,351.727,297.399,351.727,273.988z" />
              </defs>
              <clipPath id="SVGID_00000095313705597787409940000017996231216187195023_">
                <use ns1:href="#SVGID_00000032646988021216897310000005419397902219184556_" style="overflow:visible;" />
              </clipPath>
              <g style="clip-path:url(#SVGID_00000095313705597787409940000017996231216187195023_);">
                <g>
                  <g>
                    <path style="fill:#B73B27;" d="M264.141,278.15c0,0,0.051,0.166,0.145,0.476c0.067,0.32,0.284,0.747,0.541,1.28            c0.278,0.53,0.645,1.165,1.059,1.901c0.411,0.737,0.855,1.593,1.204,2.595c0.197,0.49,0.281,1.043,0.434,1.597            c0.108,0.563,0.124,1.162,0.191,1.773c0.061,0.531,0.11,1.186,0.196,1.782c0.18,0.567,0.277,1.154,0.491,1.739            c0.258,0.574,0.446,1.186,0.767,1.753c0.334,0.56,0.599,1.164,0.996,1.702c0.73,1.112,1.579,2.176,2.49,3.183            c0.469,0.493,0.905,1.017,1.396,1.487c0.494,0.478,0.988,0.955,1.478,1.427c0.236,0.246,0.476,0.479,0.708,0.732            l0.66,0.831c0.393,0.565,0.771,1.123,1.087,1.702c0.662,1.141,1.172,2.3,1.635,3.395c0.462,1.092,0.899,2.124,1.302,3.077            c0.417,0.943,0.813,1.798,1.213,2.526c0.397,0.734,0.818,1.324,1.201,1.784c0.408,0.428,0.737,0.774,1.017,0.937            c0.266,0.185,0.407,0.285,0.407,0.285s-0.151-0.083-0.435-0.241c-0.299-0.139-0.674-0.44-1.126-0.854            c-0.426-0.438-0.905-1.011-1.367-1.726c-0.47-0.711-0.94-1.549-1.396-2.484c-0.929-1.859-1.878-4.092-3.165-6.283            c-0.312-0.555-0.684-1.081-1.058-1.603l-0.599-0.735c-0.226-0.24-0.476-0.476-0.715-0.716            c-0.494-0.463-0.994-0.931-1.495-1.399c-0.508-0.477-0.97-1.004-1.456-1.508c-0.924-1.054-1.785-2.167-2.529-3.338            c-0.4-0.565-0.676-1.209-1.014-1.798c-0.326-0.6-0.523-1.257-0.782-1.868c-0.217-0.633-0.341-1.308-0.487-1.94            c-0.059-0.639-0.074-1.203-0.113-1.854c-0.038-0.569-0.024-1.132-0.1-1.667c-0.122-0.527-0.173-1.056-0.341-1.535            c-0.597-1.94-1.454-3.461-1.923-4.582c-0.229-0.573-0.383-1.02-0.422-1.345C264.174,278.32,264.141,278.15,264.141,278.15            z" />
                  </g>
                  <g>
                    <path style="fill:#B73B27;" d="M277.791,282.67c0,0,0.055,0.638,0.229,1.738c0.087,0.551,0.207,1.217,0.385,1.97            c0.168,0.756,0.419,1.592,0.698,2.494c0.301,0.897,0.684,1.848,1.176,2.802c0.513,0.953,1.147,1.853,1.929,2.738            c0.394,0.451,0.795,0.909,1.201,1.373c0.397,0.477,0.787,0.978,1.182,1.478c0.764,1.019,1.514,2.069,2.186,3.179            c0.671,1.107,1.28,2.259,1.769,3.447c0.513,1.178,0.852,2.414,1.056,3.635c0.181,1.185,0.492,2.2,0.908,3.22            c0.404,1,0.863,1.924,1.313,2.762c0.904,1.675,1.717,3.05,2.319,3.989c0.603,0.94,0.948,1.479,0.948,1.479            s-0.421-0.483-1.101-1.373c-0.667-0.898-1.642-2.174-2.633-3.829c-0.499-0.825-1.014-1.738-1.483-2.75            c-0.475-0.987-0.905-2.18-1.101-3.364c-0.215-1.136-0.584-2.284-1.075-3.411c-0.477-1.132-1.076-2.239-1.735-3.31            c-0.641-1.082-1.368-2.118-2.104-3.116c-0.378-0.491-0.753-0.979-1.123-1.461c-0.394-0.475-0.782-0.942-1.165-1.403            c-0.79-0.923-1.436-1.965-1.911-2.974c-0.463-1.023-0.807-2.021-1.068-2.955c-0.508-1.873-0.666-3.48-0.755-4.597            C277.761,283.31,277.791,282.67,277.791,282.67z" />
                  </g>
                  <g>
                    <path style="fill:#B73B27;" d="M291.612,283.407c0,0,0.229,0.51,0.678,1.362c0.462,0.853,1.121,2.07,1.911,3.531            c0.764,1.477,1.675,3.2,2.46,5.149c0.371,0.982,0.771,2,1.005,3.104c0.113,0.553,0.229,1.112,0.249,1.702            c0.052,0.536,0.036,1.13,0.138,1.627c0.13,1.025,0.415,2.103,0.733,3.117c0.32,1.022,0.685,2.019,1.078,2.966            c0.396,0.946,0.807,1.851,1.221,2.696c0.424,0.842,0.86,1.618,1.286,2.322c0.444,0.691,0.856,1.323,1.257,1.858            c0.41,0.524,0.77,0.99,1.121,1.316c0.331,0.352,0.616,0.6,0.824,0.753c0.203,0.164,0.311,0.251,0.311,0.251            s-0.118-0.072-0.34-0.208c-0.227-0.131-0.556-0.332-0.92-0.659c-0.391-0.299-0.799-0.732-1.27-1.227            c-0.463-0.504-0.945-1.104-1.431-1.79c-0.477-0.689-0.967-1.455-1.451-2.287c-0.472-0.837-0.955-1.731-1.379-2.692            c-0.425-0.96-0.852-1.962-1.184-3.02c-0.341-1.061-0.646-2.127-0.805-3.299c-0.103-0.595-0.076-1.116-0.124-1.679            c-0.011-0.514-0.113-1.037-0.214-1.552c-0.213-1.032-0.549-2.038-0.889-3.004c-0.709-1.925-1.471-3.703-2.157-5.212            c-0.689-1.51-1.228-2.79-1.599-3.688C291.76,283.94,291.612,283.407,291.612,283.407z" />
                  </g>
                </g>
                <g>
                  <g>
                    <path style="fill:#B73B27;" d="M344.155,278.15c0,0-0.051,0.166-0.145,0.476c-0.067,0.32-0.284,0.747-0.541,1.28            c-0.278,0.53-0.645,1.165-1.059,1.901c-0.411,0.737-0.855,1.593-1.203,2.595c-0.198,0.49-0.282,1.043-0.435,1.597            c-0.107,0.563-0.124,1.162-0.19,1.773c-0.062,0.531-0.11,1.186-0.195,1.782c-0.181,0.567-0.278,1.154-0.492,1.739            c-0.258,0.574-0.446,1.186-0.767,1.753c-0.334,0.56-0.599,1.164-0.996,1.702c-0.73,1.112-1.579,2.176-2.49,3.183            c-0.469,0.493-0.905,1.017-1.395,1.487c-0.495,0.478-0.989,0.955-1.479,1.427c-0.236,0.246-0.476,0.479-0.707,0.732            l-0.661,0.831c-0.393,0.565-0.771,1.123-1.087,1.702c-0.662,1.141-1.172,2.3-1.635,3.395            c-0.462,1.092-0.899,2.124-1.302,3.077c-0.417,0.943-0.813,1.798-1.213,2.526c-0.397,0.734-0.818,1.324-1.2,1.784            c-0.409,0.428-0.738,0.774-1.018,0.937c-0.266,0.185-0.406,0.285-0.406,0.285s0.15-0.083,0.434-0.241            c0.299-0.139,0.674-0.44,1.126-0.854c0.426-0.438,0.905-1.011,1.367-1.726c0.47-0.711,0.94-1.549,1.395-2.484            c0.929-1.859,1.879-4.092,3.166-6.283c0.313-0.555,0.684-1.081,1.057-1.603l0.6-0.735c0.225-0.24,0.475-0.476,0.714-0.716            c0.495-0.463,0.994-0.931,1.495-1.399c0.508-0.477,0.971-1.004,1.457-1.508c0.923-1.054,1.784-2.167,2.528-3.338            c0.4-0.565,0.676-1.209,1.014-1.798c0.326-0.6,0.523-1.257,0.782-1.868c0.217-0.633,0.341-1.308,0.487-1.94            c0.059-0.639,0.074-1.203,0.113-1.854c0.038-0.569,0.024-1.132,0.1-1.667c0.122-0.527,0.173-1.056,0.341-1.535            c0.597-1.94,1.454-3.461,1.923-4.582c0.229-0.573,0.383-1.02,0.422-1.345C344.122,278.32,344.155,278.15,344.155,278.15z" />
                  </g>
                  <g>
                    <path style="fill:#B73B27;" d="M330.505,282.67c0,0-0.055,0.638-0.229,1.738c-0.087,0.551-0.207,1.217-0.385,1.97            c-0.168,0.756-0.419,1.592-0.697,2.494c-0.302,0.897-0.685,1.848-1.177,2.802c-0.513,0.953-1.147,1.853-1.929,2.738            c-0.395,0.451-0.795,0.909-1.201,1.373c-0.397,0.477-0.787,0.978-1.182,1.478c-0.764,1.019-1.514,2.069-2.186,3.179            c-0.671,1.107-1.28,2.259-1.769,3.447c-0.513,1.178-0.851,2.414-1.056,3.635c-0.181,1.185-0.492,2.2-0.908,3.22            c-0.404,1-0.863,1.924-1.313,2.762c-0.904,1.675-1.717,3.05-2.319,3.989c-0.603,0.94-0.948,1.479-0.948,1.479            s0.421-0.483,1.101-1.373c0.667-0.898,1.642-2.174,2.633-3.829c0.499-0.825,1.014-1.738,1.483-2.75            c0.475-0.987,0.906-2.18,1.102-3.364c0.215-1.136,0.583-2.284,1.074-3.411c0.477-1.132,1.076-2.239,1.735-3.31            c0.642-1.082,1.368-2.118,2.103-3.116c0.378-0.491,0.753-0.979,1.123-1.461c0.394-0.475,0.782-0.942,1.165-1.403            c0.79-0.923,1.436-1.965,1.911-2.974c0.463-1.023,0.807-2.021,1.068-2.955c0.508-1.873,0.666-3.48,0.755-4.597            C330.535,283.31,330.505,282.67,330.505,282.67z" />
                  </g>
                  <g>
                    <path style="fill:#B73B27;" d="M316.684,283.407c0,0-0.229,0.51-0.678,1.362c-0.461,0.853-1.121,2.07-1.911,3.531            c-0.764,1.477-1.675,3.2-2.46,5.149c-0.371,0.982-0.77,2-1.004,3.104c-0.114,0.553-0.23,1.112-0.25,1.702            c-0.052,0.536-0.036,1.13-0.138,1.627c-0.13,1.025-0.415,2.103-0.733,3.117c-0.32,1.022-0.685,2.019-1.078,2.966            c-0.395,0.946-0.807,1.851-1.221,2.696c-0.424,0.842-0.86,1.618-1.286,2.322c-0.444,0.691-0.856,1.323-1.257,1.858            c-0.41,0.524-0.77,0.99-1.121,1.316c-0.331,0.352-0.616,0.6-0.824,0.753c-0.202,0.164-0.311,0.251-0.311,0.251            s0.118-0.072,0.34-0.208c0.226-0.131,0.556-0.332,0.92-0.659c0.391-0.299,0.799-0.732,1.27-1.227            c0.463-0.504,0.945-1.104,1.431-1.79c0.478-0.689,0.967-1.455,1.451-2.287c0.472-0.837,0.955-1.731,1.379-2.692            c0.425-0.96,0.852-1.962,1.184-3.02c0.341-1.061,0.646-2.127,0.805-3.299c0.104-0.595,0.076-1.116,0.124-1.679            c0.011-0.514,0.113-1.037,0.214-1.552c0.214-1.032,0.549-2.038,0.889-3.004c0.71-1.925,1.472-3.703,2.157-5.212            c0.689-1.51,1.228-2.79,1.599-3.688C316.536,283.94,316.684,283.407,316.684,283.407z" />
                  </g>
                </g>
              </g>
            </g>
            <path style="opacity:0.2;fill:#FFFFFF;" d="M279.666,235.215c0,0-21.583,15.363-21.583,38.774        c0,6.172,1.359,11.47,3.846,15.94c23.596-0.16,42.677-19.332,42.677-42.966c0-2.246-0.174-4.451-0.506-6.604        C301.037,240.409,289.686,240.224,279.666,235.215z" />
          </g>
          <g>
            <path style="fill:#ED896E;" d="M348.652,258.792c-5.958-14.63-18.508-23.577-18.508-23.577        c-11.701,5.85-25.227,5.121-25.239,5.121c-0.012,0-13.538,0.729-25.239-5.121c0,0-12.551,8.947-18.508,23.579        c1.222,3.207,4.317,5.49,7.954,5.49c2.151,0,4.108-0.803,5.608-2.116c0.771,3.912,4.216,6.864,8.355,6.864        c2.491,0,4.725-1.076,6.283-2.781c1.146,3.35,4.314,5.761,8.052,5.761c3.237,0,6.053-1.807,7.493-4.465        c1.44,2.658,4.257,4.465,7.493,4.465c3.737,0,6.907-2.411,8.053-5.761c1.558,1.705,3.792,2.781,6.283,2.781        c4.14,0,7.584-2.952,8.354-6.864c1.501,1.313,3.459,2.116,5.61,2.116C344.334,264.284,347.43,262.001,348.652,258.792z" />
          </g>
          <g style="opacity:0.3;">
            <path style="fill:#C1422D;" d="M330.144,235.215c-2.484,1.242-5.051,2.186-7.553,2.904        c6.698,9.634,14.681,25.417,12.005,43.483c-1.631,11.017-6.321,19.361-13.343,25.253        c18.472-3.736,30.473-14.452,30.473-32.867C351.727,250.578,330.144,235.215,330.144,235.215z" />
          </g>
          <g>
            <path style="fill:#152F47;" d="M304.905,308.873c-30.074,0-47.322-12.715-47.322-34.885c0-23.398,21.575-39.026,21.793-39.181        l0.245-0.174l0.268,0.134c11.343,5.67,24.431,5.094,24.987,5.069c0.607,0.026,13.702,0.601,25.044-5.069l0.269-0.134        l0.245,0.174c0.218,0.155,21.792,15.783,21.792,39.181C352.227,296.158,334.978,308.873,304.905,308.873z M279.718,235.798        c-2.346,1.771-21.135,16.634-21.135,38.19c0,21.534,16.884,33.885,46.321,33.885c29.438,0,46.322-12.35,46.322-33.885        c0-21.556-18.788-36.42-21.134-38.19c-11.511,5.641-24.653,5.067-25.208,5.037        C304.365,240.866,291.228,241.439,279.718,235.798z" />
          </g>
        </g>
        <g>
          <g>
            <g>
              <path style="fill:#EA6D59;" d="M331.965,235.017c-0.634-3.298-5.97-3.722-5.97-3.722s-8.641,2.876-21.091,2.876         c-12.45,0-21.089-2.876-21.089-2.876s-5.338,0.424-5.972,3.722c-0.636,3.298,7.749,4.819,7.749,4.819         c9.911,1.691,19.312,1.503,19.312,1.503s9.399,0.188,19.311-1.503C324.216,239.836,332.602,238.314,331.965,235.017z" />
            </g>
            <g>
              <path style="fill:#DD594B;" d="M331.172,233.44c-2.005,1.916-6.956,2.816-6.956,2.816         c-9.912,1.691-19.311,1.503-19.311,1.503s-9.4,0.188-19.312-1.503c0,0-4.951-0.9-6.956-2.816         c-0.385,0.436-0.672,0.954-0.793,1.576c-0.636,3.298,7.749,4.819,7.749,4.819c9.911,1.691,19.312,1.503,19.312,1.503         s9.399,0.188,19.311-1.503c0,0,8.386-1.521,7.749-4.819C331.845,234.395,331.557,233.876,331.172,233.44z" />
            </g>
          </g>
          <g>
            <path style="fill:#152F47;" d="M304.081,241.844c-2.501,0-10.407-0.122-18.572-1.516c-0.253-0.045-6.081-1.127-7.736-3.544        c-0.403-0.589-0.544-1.216-0.42-1.863c0.698-3.63,6.19-4.107,6.423-4.126l0.102-0.008l0.097,0.032        c0.085,0.029,8.715,2.851,20.931,2.851c12.216,0,20.848-2.822,20.933-2.851l0.097-0.032l0.102,0.008        c0.232,0.018,5.723,0.496,6.421,4.126l0,0c0.125,0.646-0.017,1.273-0.42,1.862c-1.654,2.417-7.483,3.499-7.731,3.544        c-9.85,1.681-19.318,1.51-19.41,1.511C304.882,241.839,304.596,241.844,304.081,241.844z M283.762,231.803        c-0.686,0.075-4.915,0.647-5.427,3.308c-0.073,0.38,0.013,0.743,0.263,1.108c1.178,1.721,5.514,2.839,7.085,3.125        c9.742,1.663,19.113,1.497,19.212,1.495c0.115,0.003,9.487,0.168,19.237-1.496c1.566-0.285,5.901-1.403,7.079-3.124        c0.25-0.366,0.336-0.728,0.263-1.108v-0.001c-0.512-2.662-4.738-3.233-5.425-3.308c-1.026,0.323-9.484,2.868-21.144,2.868        C293.244,234.671,284.788,232.126,283.762,231.803z" />
          </g>
        </g>
      </g>
      <g>
        <g>
          <g>
            <path style="fill:#152F47;" d="M292.006,265.25c0,0,0.046-0.299,0.306-0.631c0.132-0.168,0.313-0.351,0.558-0.485        c0.246-0.141,0.552-0.234,0.876-0.232c0.163-0.006,0.318,0.036,0.474,0.07c0.154,0.032,0.281,0.128,0.411,0.188        c0.238,0.16,0.417,0.346,0.526,0.535c0.129,0.17,0.167,0.352,0.209,0.464c0.033,0.118,0.042,0.19,0.042,0.19        s-0.07-0.025-0.182-0.073c-0.114-0.047-0.248-0.131-0.419-0.194c-0.161-0.079-0.346-0.138-0.525-0.204        c-0.184-0.031-0.358-0.088-0.54-0.069c-0.181-0.021-0.37,0.026-0.561,0.061c-0.193,0.041-0.381,0.107-0.556,0.16        C292.251,265.162,292.006,265.25,292.006,265.25z" />
          </g>
          <g>
            <path style="fill:#152F47;" d="M314.346,264.985c0,0,0.076-0.29,0.375-0.597c0.146-0.152,0.345-0.315,0.604-0.423        c0.255-0.111,0.571-0.177,0.893-0.141c0.164,0.01,0.313,0.07,0.465,0.116c0.15,0.049,0.266,0.158,0.39,0.229        c0.219,0.189,0.379,0.392,0.465,0.588c0.111,0.184,0.134,0.367,0.163,0.481c0.021,0.125,0.024,0.193,0.024,0.193        s-0.069-0.028-0.175-0.091c-0.106-0.052-0.234-0.154-0.396-0.234c-0.156-0.095-0.33-0.178-0.5-0.258        c-0.185-0.053-0.348-0.125-0.533-0.127c-0.179-0.035-0.372-0.01-0.564,0.006c-0.196,0.022-0.389,0.068-0.569,0.104        C314.601,264.923,314.346,264.985,314.346,264.985z" />
          </g>
        </g>
        <g>
          <g>
            <g>
              <path style="fill:#152F47;" d="M296.948,272.506c0,1.865-1.511,3.377-3.377,3.377c-1.864,0-3.375-1.512-3.375-3.377         c0-1.864,1.511-3.376,3.375-3.376C295.437,269.13,296.948,270.642,296.948,272.506z" />
            </g>
            <g>
              <g>
                <path style="fill:#FFFFFF;" d="M293.436,271.269c0,0.482-0.391,0.872-0.873,0.872c-0.48,0-0.871-0.39-0.871-0.872          c0-0.481,0.391-0.872,0.871-0.872C293.046,270.397,293.436,270.787,293.436,271.269z" />
              </g>
              <g>
                <path style="fill:#FFFFFF;" d="M292.132,272.947c0,0.244-0.196,0.441-0.44,0.441c-0.244,0-0.441-0.197-0.441-0.441          c0-0.244,0.197-0.441,0.441-0.441C291.935,272.506,292.132,272.703,292.132,272.947z" />
              </g>
            </g>
          </g>
          <g>
            <g>
              <path style="fill:#152F47;" d="M319.533,272.506c0,1.865-1.511,3.377-3.376,3.377c-1.865,0-3.376-1.512-3.376-3.377         c0-1.864,1.511-3.376,3.376-3.376C318.022,269.13,319.533,270.642,319.533,272.506z" />
            </g>
            <g>
              <g>
                <path style="fill:#FFFFFF;" d="M316.021,271.269c0,0.482-0.39,0.872-0.872,0.872c-0.481,0-0.872-0.39-0.872-0.872          c0-0.481,0.391-0.872,0.872-0.872C315.632,270.397,316.021,270.787,316.021,271.269z" />
              </g>
              <g>
                <path style="fill:#FFFFFF;" d="M314.718,272.947c0,0.244-0.197,0.441-0.44,0.441c-0.244,0-0.442-0.197-0.442-0.441          c0-0.244,0.198-0.441,0.442-0.441C314.52,272.506,314.718,272.703,314.718,272.947z" />
              </g>
            </g>
          </g>
        </g>
        <g>
          <g>
            <path style="fill:#FF81CE;" d="M294.855,279.79c0,1.505-1.221,2.725-2.726,2.725c-1.504,0-2.724-1.22-2.724-2.725        c0-1.505,1.22-2.725,2.724-2.725C293.635,277.065,294.855,278.285,294.855,279.79z" />
          </g>
          <g>
            <path style="fill:#FF81CE;" d="M320.322,279.79c0,1.505-1.219,2.725-2.724,2.725c-1.505,0-2.725-1.22-2.725-2.725        c0-1.505,1.22-2.725,2.725-2.725C319.103,277.065,320.322,278.285,320.322,279.79z" />
          </g>
        </g>
        <g>
          <g>
            <path style="fill:#152F47;" d="M307.58,274.378h-2.715h-2.714c0,0-0.79-0.138-0.691,1.52c0.1,1.658,1.184,4.704,3.405,4.704        s3.307-3.046,3.405-4.704C308.369,274.24,307.58,274.378,307.58,274.378z" />
          </g>
          <g>
            <path style="fill:#FFC9E2;" d="M304.861,277.908c-0.74,0-1.42,0.208-1.97,0.555c0.429,0.797,1.079,1.446,1.974,1.446        c0.893,0,1.542-0.648,1.971-1.443C306.286,278.118,305.603,277.908,304.861,277.908z" />
          </g>
        </g>
      </g>
      <g>
        <g>
          <g>
            <path style="fill:#EFDE89;" d="M301.873,271.282c1.817-1.57,4.276-1.232,6.105,0.094c0.623,0.451,1.215-0.582,0.601-1.029        c-2.292-1.66-5.336-1.819-7.549,0.094C300.449,270.943,301.294,271.781,301.873,271.282L301.873,271.282z" />
          </g>
        </g>
        <g>
          <g>
            <g>
              <g style="opacity:0.3;">
                <g>
                  <path style="fill:#C3C5F4;" d="M291.73,280.591c-5.89,0-10.681-4.792-10.681-10.682c0-5.413,4.093-8.776,10.681-8.776           c6.589,0,10.682,3.363,10.682,8.776C302.412,275.799,297.62,280.591,291.73,280.591z" />
                </g>
              </g>
              <g>
                <g>
                  <path style="fill:#EFDE89;" d="M291.73,280.591c-5.89,0-10.681-4.792-10.681-10.682c0-5.413,4.093-8.776,10.681-8.776           c6.589,0,10.682,3.363,10.682,8.776C302.412,275.799,297.62,280.591,291.73,280.591z M291.73,263.037           c-2.059,0-8.776,0.496-8.776,6.872c0,4.84,3.937,8.777,8.776,8.777c4.84,0,8.777-3.938,8.777-8.777           C300.508,263.533,293.789,263.037,291.73,263.037z" />
                </g>
              </g>
            </g>
            <g style="opacity:0.2;">
              <path style="fill:#C3C5F4;" d="M295.115,261.471c2.089,1.521,3.264,3.818,3.264,6.707c0,5.89-4.792,10.682-10.682,10.682         c-0.714,0-1.41-0.073-2.084-0.207c1.734,1.217,3.842,1.938,6.117,1.938c5.89,0,10.682-4.792,10.682-10.682         C302.412,265.496,299.691,262.447,295.115,261.471z" />
            </g>
          </g>
          <g>
            <g>
              <g style="opacity:0.3;">
                <g>
                  <path style="fill:#C3C5F4;" d="M307.397,269.909c0-5.413,4.093-8.776,10.683-8.776c6.588,0,10.681,3.363,10.681,8.776           c0,5.89-4.792,10.682-10.681,10.682C312.19,280.591,307.397,275.799,307.397,269.909z" />
                </g>
              </g>
              <g>
                <g>
                  <path style="fill:#EFDE89;" d="M307.397,269.909c0-5.413,4.093-8.776,10.683-8.776c6.588,0,10.681,3.363,10.681,8.776           c0,5.89-4.792,10.682-10.681,10.682C312.19,280.591,307.397,275.799,307.397,269.909z M309.303,269.909           c0,4.84,3.938,8.777,8.777,8.777c4.839,0,8.775-3.938,8.775-8.777c0-6.376-6.717-6.872-8.775-6.872           C316.02,263.037,309.303,263.533,309.303,269.909z" />
                </g>
              </g>
            </g>
            <g style="opacity:0.2;">
              <path style="fill:#C3C5F4;" d="M314.694,261.471c-2.089,1.521-3.263,3.818-3.263,6.707c0,5.89,4.792,10.682,10.682,10.682         c0.713,0,1.409-0.073,2.084-0.207c-1.734,1.217-3.842,1.938-6.117,1.938c-5.89,0-10.683-4.792-10.683-10.682         C307.397,265.496,310.119,262.447,314.694,261.471z" />
            </g>
          </g>
        </g>
      </g>
    </g>
    <g>
      <g>
        <path style="fill:#FFFFFF;" d="M275.65,245.539c-5.622,4.04-9.847,10.683-11.696,17.266c-0.966,3.441-1.292,7.021-1.055,10.583      c0.053,0.798,1.303,0.804,1.25,0c-0.643-9.657,3.406-18.935,10.518-25.416c0.517-0.471,1.179-1.041,1.614-1.354      C276.929,246.154,276.305,245.069,275.65,245.539L275.65,245.539z" />
      </g>
      <path style="fill:#FFFFFF;" d="M264.354,276.301c0,0.422-0.342,0.764-0.764,0.764c-0.422,0-0.765-0.342-0.765-0.764     c0-0.422,0.342-0.765,0.765-0.765C264.012,275.536,264.354,275.879,264.354,276.301z" />
    </g>
  </g>
</svg>