<?xml version='1.0' encoding='utf-8'?>
<svg xmlns="http://www.w3.org/2000/svg" version="1.1" viewBox="-63.609 -63.609 526.8399999999999 539.635" width="526.8399999999999" height="539.635">
  <g>
    <g>
      <g>
        <g>
          <g>
            <g>
              <g>
                <g>
                  <circle style="fill:#FFC9E2;" cx="364.132" cy="359.487" r="13.982" />
                </g>
                <g>
                  <circle style="fill:#F490C7;" cx="364.883" cy="359.487" r="6.563" />
                </g>
              </g>
              <g style="opacity:0.2;">
                <path style="fill:#D3A1A1;" d="M364.132,345.505c-2.647,0-5.113,0.749-7.223,2.027c0.993-0.224,2.022-0.352,3.082-0.352          c7.722,0,13.982,6.26,13.982,13.982c0,5.076-2.713,9.506-6.76,11.956c6.238-1.405,10.901-6.968,10.901-13.63          C378.115,351.765,371.855,345.505,364.132,345.505z" />
              </g>
            </g>
            <g>
              <path style="fill:#152F47;" d="M364.133,373.97c-7.985,0-14.482-6.497-14.482-14.482c0-7.985,6.497-14.482,14.482-14.482         c7.985,0,14.482,6.497,14.482,14.482C378.615,367.473,372.118,373.97,364.133,373.97z M364.133,346.005         c-7.435,0-13.482,6.048-13.482,13.482s6.048,13.482,13.482,13.482s13.482-6.048,13.482-13.482         S371.567,346.005,364.133,346.005z" />
            </g>
          </g>
          <g>
            <g>
              <g>
                <g>
                  <circle style="fill:#FFC9E2;" cx="422.906" cy="359.487" r="13.982" />
                </g>
                <g>
                  <circle style="fill:#F490C7;" cx="422.155" cy="359.487" r="6.563" />
                </g>
              </g>
              <g style="opacity:0.2;">
                <path style="fill:#D3A1A1;" d="M422.906,345.505c2.647,0,5.113,0.749,7.223,2.027c-0.993-0.224-2.022-0.352-3.082-0.352          c-7.722,0-13.982,6.26-13.982,13.982c0,5.076,2.713,9.506,6.76,11.956c-6.238-1.405-10.901-6.968-10.901-13.63          C408.923,351.765,415.184,345.505,422.906,345.505z" />
              </g>
            </g>
            <g>
              <path style="fill:#152F47;" d="M422.906,373.97c-7.985,0-14.483-6.497-14.483-14.482c0-7.985,6.497-14.482,14.483-14.482         c7.985,0,14.482,6.497,14.482,14.482C437.389,367.473,430.892,373.97,422.906,373.97z M422.906,346.005         c-7.435,0-13.483,6.048-13.483,13.482s6.048,13.482,13.483,13.482c7.435,0,13.482-6.048,13.482-13.482         S430.341,346.005,422.906,346.005z" />
            </g>
          </g>
        </g>
        <g>
          <g>
            <g>
              <path style="fill:#FFB7A0;" d="M393.541,359.307c-29.332,0-53.11,23.778-53.11,53.11c0,29.332,23.778,53.11,53.11,53.11         s53.11-23.778,53.11-53.11C446.651,383.085,422.873,359.307,393.541,359.307z M393.541,434.349         c-12.113,0-21.932-9.819-21.932-21.932c0-12.112,9.819-21.932,21.932-21.932c12.112,0,21.932,9.819,21.932,21.932         C415.473,424.53,405.653,434.349,393.541,434.349z" />
            </g>
            <g style="opacity:0.2;">
              <path style="fill:#D3A1A1;" d="M393.541,382.086c-16.751,0-30.331,13.58-30.331,30.331s13.58,30.331,30.331,30.331         s30.331-13.58,30.331-30.331S410.292,382.086,393.541,382.086z M393.541,434.349c-12.113,0-21.932-9.819-21.932-21.932         c0-12.112,9.819-21.932,21.932-21.932c12.112,0,21.932,9.819,21.932,21.932C415.473,424.53,405.653,434.349,393.541,434.349z         " />
            </g>
            <g>
              <path style="fill:#152F47;" d="M393.541,466.026c-29.561,0-53.609-24.049-53.609-53.609         c0-29.561,24.049-53.609,53.609-53.609c29.561,0,53.609,24.049,53.609,53.609         C447.15,441.978,423.102,466.026,393.541,466.026z M393.541,359.808c-29.009,0-52.609,23.601-52.609,52.609         c0,29.009,23.601,52.609,52.609,52.609s52.609-23.601,52.609-52.609C446.15,383.408,422.55,359.808,393.541,359.808z          M393.541,434.849c-12.369,0-22.432-10.063-22.432-22.432c0-12.369,10.063-22.432,22.432-22.432         c12.369,0,22.432,10.063,22.432,22.432C415.973,424.786,405.91,434.849,393.541,434.849z M393.541,390.985         c-11.817,0-21.432,9.614-21.432,21.432c0,11.817,9.614,21.432,21.432,21.432c11.817,0,21.432-9.614,21.432-21.432         C414.973,400.6,405.358,390.985,393.541,390.985z" />
            </g>
          </g>
          <g>
            <g>
              <path style="fill:#FFC9E2;" d="M369.273,429.235c0.416-0.006,0.644-0.024,0.723-0.044c-0.221,0.012-0.441,0.019-0.661,0.031         C369.314,429.226,369.293,429.23,369.273,429.235z" />
            </g>
            <g>
              <path style="fill:#FFC9E2;" d="M444.23,384.428c-6.374-11.58-16.671-20.513-28.818-25.592         c-6.898-2.884-14.402-4.291-21.872-4.314c-14.407,0.045-28.338,5.462-39.013,15.126         c-10.562,9.561-17.029,22.847-18.565,36.949c-1.102,10.11,0.762,20.227,4.786,29.514c0.67,1.547,2.586,2.293,4.132,2.37         c3.874,0.194,7.679-1.19,11.091-2.887c1.947-0.968,3.799-2.125,5.712-3.16c1.489-0.806,3.018-1.507,4.531-2.259         c0.006-0.003,0.01-0.004,0.017-0.007c0.302-0.119,0.605-0.233,0.911-0.34c0.545-0.19,1.097-0.36,1.658-0.495         c0.157-0.038,0.315-0.068,0.472-0.099c-0.084,0.001-0.154,0.003-0.255,0.003c0.106,0,0.212-0.011,0.318-0.016         c0.076-0.015,0.151-0.032,0.227-0.048c0.276-0.058,0.583-0.021,0.434,0.017c0.134-0.007,0.268-0.02,0.403-0.016         c0.171,0.004,0.34,0.017,0.51,0.028c0.302,0.059,0.605,0.113,0.905,0.187c1.014,0.249,2.006,0.58,2.996,0.91         c1.809,0.604,3.921-0.28,5.029-1.715c1.066-1.379,1.506-3.799,0.374-5.314c-0.982-1.314-1.727-2.701-2.487-4.146         c-0.002-0.004-0.003-0.005-0.005-0.009c-0.038-0.098-0.077-0.195-0.114-0.293c-0.161-0.43-0.309-0.865-0.443-1.305         c-0.251-0.826-0.451-1.666-0.602-2.516c-0.019-0.106-0.035-0.211-0.052-0.317c0-0.005,0-0.006,0-0.011         c-0.019-0.408-0.072-0.815-0.091-1.223c-0.037-0.789-0.032-1.58,0.015-2.369c0.02-0.33,0.053-0.658,0.082-0.987         c0.002-0.01,0.003-0.016,0.005-0.027c0.128-0.69,0.263-1.375,0.444-2.053c0.179-0.669,0.389-1.329,0.63-1.978         c0.055-0.148,0.121-0.294,0.172-0.444c0.041-0.121,0.051-0.156,0.047-0.147c0.107-0.196,0.218-0.381,0.247-0.44         c0.282-0.562,0.588-1.111,0.917-1.646c0.158-0.257,0.858-1.653,1.144-1.681c0.034-0.003-0.629,0.751-0.268,0.353         c0.104-0.115,0.197-0.243,0.298-0.361c0.201-0.238,0.407-0.473,0.618-0.702c0.457-0.498,0.937-0.974,1.438-1.427         c0.231-0.21,0.47-0.41,0.707-0.613c0.043-0.037,0.076-0.066,0.108-0.094c0.011-0.008,0.018-0.012,0.031-0.021         c0.559-0.387,1.114-0.772,1.698-1.12c0.54-0.322,1.094-0.62,1.661-0.894c0.041-0.02,0.132-0.063,0.234-0.112         c0.009,0.008,0.66-0.268,0.813-0.323c1.274-0.453,2.569-0.735,3.893-0.991c0.009-0.002,0.009-0.002,0.017-0.003         c0.099-0.005,0.175-0.008,0.175-0.008c0.33-0.03,0.661-0.052,0.992-0.067c0.724-0.033,1.45-0.029,2.174,0.009         c0.331,0.017,0.661,0.042,0.99,0.074c0.064,0.006,0.133,0.018,0.202,0.029c0.632,0.12,1.262,0.233,1.886,0.395         c0.619,0.161,1.231,0.348,1.834,0.563c0.054,0.019,0.197,0.057,0.353,0.103c0.02,0.011,0.056,0.03,0.122,0.065         c0.186,0.097,0.383,0.176,0.572,0.267c1.227,0.594,2.317,1.339,3.449,2.084c0.02,0.019,0.041,0.039,0.049,0.046         c0.237,0.203,0.475,0.404,0.707,0.613c0.501,0.453,0.981,0.93,1.438,1.427c0.211,0.23,0.417,0.464,0.618,0.702         c0.1,0.119,0.193,0.246,0.298,0.361c0.36,0.398-0.302-0.356-0.268-0.353c0.286,0.028,0.986,1.424,1.143,1.681         c0.412,0.669,0.788,1.361,1.125,2.071c0.044,0.093,0.087,0.188,0.13,0.283c0.109,0.309,0.235,0.612,0.34,0.923         c0.24,0.709,0.444,1.43,0.611,2.159c0.084,0.369,0.158,0.74,0.223,1.112c0.013,0.073,0.023,0.132,0.033,0.182         c0,0.001,0,0.002,0,0.003c0.068,0.775,0.122,1.546,0.122,2.324c0,0.564-0.021,1.128-0.064,1.691         c-0.015,0.202-0.044,0.405-0.056,0.607c-0.195,0.932-0.365,1.855-0.641,2.77c-0.136,0.452-0.295,0.895-0.451,1.341         c-0.003,0.01-0.011,0.031-0.021,0.057c-0.075,0.159-0.285,0.644-0.285,0.645c-1.038,2.201-0.765,5.332,1.717,6.547         c0.737,0.361,1.451,0.756,2.138,1.207c0.074,0.048,0.536,0.371,0.702,0.482c0.029,0.023,0.046,0.037,0.08,0.065         c0.21,0.174,0.416,0.352,0.619,0.534c1.283,1.151,2.418,2.431,3.776,3.503c2.956,2.332,6.368,4.008,10.215,4.008         c3.371-0.001,6.697-1.29,9.433-3.206c0.862-0.603,1.703-1.253,2.508-1.929c0.105-0.088,0.174-0.15,0.221-0.194         c0.052-0.028,0.112-0.061,0.188-0.105c0.132-0.083,0.269-0.156,0.407-0.228c0.171-0.053,0.343-0.104,0.519-0.142         c0.175,0.016,0.347,0.038,0.463,0.04c0.066,0.022,0.157,0.049,0.291,0.083c0.402,0.102,0.794,0.231,1.186,0.367         c2.414,0.844,5.273-0.968,5.886-3.342C453.231,412.853,451.389,397.432,444.23,384.428z M441.152,430.124         c0.062-0.048,0.171-0.061,0.293-0.063c-0.02,0.009-0.049,0.022-0.09,0.04C441.288,430.108,441.22,430.116,441.152,430.124z          M377.59,406.005c-0.034-0.062,0.092-0.317,0.223-0.557C377.787,405.509,377.601,406.026,377.59,406.005z M390.89,395.429         c0.022-0.027,0.226-0.045,0.401-0.056C391.109,395.402,390.882,395.438,390.89,395.429z M399.999,396.473         c0.233,0.069,0.486,0.156,0.514,0.229C400.522,396.724,400.123,396.53,399.999,396.473z M403.805,398.631         c0.032-0.006,0.158,0.106,0.254,0.195C403.928,398.733,403.792,398.634,403.805,398.631z M441.386,430.097         c0.023-0.012,0.058-0.029,0.072-0.036c0.069-0.001,0.137-0.002,0.211,0.004C441.574,430.076,441.48,430.086,441.386,430.097z         " />
            </g>
          </g>
          <g>
            <path style="fill:#FFC9E2;" d="M369.273,429.235c0.416-0.006,0.644-0.024,0.723-0.044c-0.221,0.012-0.441,0.019-0.661,0.031        C369.314,429.226,369.293,429.23,369.273,429.235z" />
          </g>
          <g style="opacity:0.2;">
            <path style="fill:#D3A1A1;" d="M413.099,392.857c-8.251-8.12-30.03-12.828-43.103,2.515        c-9.587,11.252-5.442,26.71-2.451,34.336c0.415-0.136,0.831-0.273,1.256-0.375c0.157-0.038,0.315-0.068,0.472-0.099        c-0.084,0.001-0.154,0.003-0.255,0.003c0.106,0,0.212-0.011,0.318-0.016c0.076-0.015,0.151-0.032,0.227-0.048        c0.276-0.058,0.583-0.021,0.434,0.017c0.134-0.007,0.268-0.02,0.403-0.016c0.171,0.004,0.34,0.017,0.51,0.028        c0.302,0.059,0.605,0.113,0.905,0.187c1.014,0.249,2.006,0.58,2.996,0.91c1.809,0.604,3.921-0.28,5.029-1.715        c1.066-1.379,1.506-3.799,0.374-5.314c-0.982-1.314-1.727-2.701-2.487-4.146c-0.002-0.004-0.003-0.005-0.005-0.009        c-0.038-0.098-0.077-0.195-0.114-0.293c-0.161-0.43-0.309-0.865-0.443-1.305c-0.251-0.826-0.451-1.666-0.602-2.516        c-0.019-0.106-0.035-0.211-0.052-0.317c0-0.005,0-0.006,0-0.011c-0.019-0.408-0.072-0.815-0.091-1.223        c-0.037-0.789-0.032-1.58,0.015-2.369c0.02-0.33,0.053-0.658,0.082-0.987c0.002-0.01,0.003-0.016,0.005-0.027        c0.128-0.69,0.263-1.375,0.444-2.053c0.179-0.669,0.389-1.329,0.63-1.978c0.055-0.148,0.121-0.294,0.172-0.444        c0.041-0.121,0.051-0.156,0.047-0.147c0.107-0.196,0.218-0.381,0.247-0.44c0.282-0.562,0.588-1.111,0.917-1.646        c0.158-0.257,0.858-1.653,1.144-1.681c0.034-0.003-0.629,0.751-0.268,0.353c0.104-0.115,0.197-0.243,0.298-0.361        c0.201-0.238,0.407-0.473,0.618-0.702c0.457-0.498,0.937-0.974,1.438-1.427c0.231-0.21,0.47-0.41,0.707-0.613        c0.043-0.037,0.076-0.066,0.108-0.094c0.011-0.008,0.018-0.012,0.031-0.021c0.559-0.387,1.114-0.772,1.698-1.12        c0.54-0.322,1.094-0.62,1.661-0.894c0.041-0.02,0.132-0.063,0.234-0.112c0.009,0.008,0.66-0.268,0.813-0.323        c1.274-0.453,2.569-0.735,3.893-0.991c0.009-0.002,0.009-0.002,0.017-0.003c0.099-0.005,0.175-0.008,0.175-0.008        c0.33-0.03,0.661-0.052,0.992-0.067c0.724-0.033,1.45-0.029,2.174,0.009c0.331,0.017,0.661,0.042,0.99,0.074        c0.064,0.006,0.133,0.018,0.202,0.029c0.632,0.12,1.262,0.233,1.886,0.395c0.619,0.161,1.231,0.348,1.834,0.563        c0.054,0.019,0.197,0.057,0.353,0.103c0.02,0.011,0.056,0.03,0.122,0.065c0.186,0.097,0.383,0.176,0.572,0.267        c1.227,0.594,2.317,1.339,3.449,2.084c0.02,0.019,0.041,0.039,0.049,0.046c0.237,0.203,0.475,0.404,0.707,0.613        c0.501,0.453,0.981,0.93,1.438,1.427c0.211,0.23,0.417,0.464,0.618,0.702c0.1,0.119,0.193,0.246,0.298,0.361        c0.36,0.398-0.302-0.356-0.268-0.353c0.286,0.028,0.986,1.424,1.143,1.681c0.412,0.669,0.788,1.361,1.125,2.071        c0.044,0.093,0.087,0.188,0.13,0.283c0.109,0.309,0.235,0.612,0.34,0.923c0.24,0.709,0.444,1.43,0.611,2.159        c0.084,0.369,0.158,0.74,0.223,1.112c0.013,0.073,0.023,0.132,0.033,0.182c0,0.001,0,0.002,0,0.003        c0.068,0.775,0.122,1.546,0.122,2.324c0,0.564-0.021,1.128-0.064,1.691c-0.015,0.202-0.044,0.405-0.056,0.607        c-0.195,0.932-0.365,1.855-0.641,2.77c-0.136,0.452-0.295,0.895-0.451,1.341c-0.003,0.01-0.011,0.031-0.021,0.057        c-0.075,0.159-0.285,0.644-0.285,0.645c-1.038,2.201-0.765,5.332,1.717,6.547c0.737,0.361,1.451,0.756,2.138,1.207        c0.074,0.048,0.536,0.371,0.702,0.482c0.029,0.023,0.046,0.037,0.08,0.065c0.21,0.174,0.416,0.352,0.619,0.534        c0.39,0.35,0.766,0.712,1.139,1.076C421.49,416.992,419.873,399.523,413.099,392.857z M377.59,406.005        c-0.034-0.062,0.092-0.317,0.223-0.557C377.787,405.509,377.601,406.026,377.59,406.005z M390.89,395.429        c0.022-0.027,0.226-0.045,0.401-0.056C391.109,395.402,390.882,395.438,390.89,395.429z M399.999,396.473        c0.233,0.069,0.486,0.156,0.514,0.229C400.522,396.724,400.123,396.53,399.999,396.473z M403.805,398.631        c0.032-0.006,0.158,0.106,0.254,0.195C403.928,398.733,403.792,398.634,403.805,398.631z" />
          </g>
          <g>
            <g>
              <path style="fill:#FFB7A0;" d="M348.797,398.422l-2.957,2.272c-0.463,0.356-1.133,0.268-1.488-0.195l0,0         c-0.356-0.463-0.268-1.133,0.195-1.488l2.957-2.272c0.463-0.356,1.133-0.268,1.488,0.195l0,0         C349.348,397.396,349.26,398.066,348.797,398.422z" />
            </g>
            <g>
              <path style="fill:#F8E5E5;" d="M356.591,408.808l-3.229-1.864c-0.506-0.292-0.681-0.944-0.389-1.45l0,0         c0.292-0.506,0.945-0.68,1.45-0.388l3.229,1.864c0.506,0.292,0.68,0.944,0.388,1.45l0,0         C357.749,408.925,357.097,409.1,356.591,408.808z" />
            </g>
            <g>
              <path style="fill:#FF81CE;" d="M344.457,415.23l-3.66-0.709c-0.573-0.111-0.951-0.671-0.84-1.244l0,0         c0.111-0.573,0.671-0.951,1.244-0.84l3.66,0.709c0.573,0.111,0.951,0.671,0.84,1.244l0,0         C345.59,414.963,345.031,415.341,344.457,415.23z" />
            </g>
            <g>
              <path style="fill:#FFB7A0;" d="M359.217,417.069l-2.957,2.272c-0.463,0.356-1.133,0.268-1.488-0.195l0,0         c-0.356-0.463-0.268-1.133,0.195-1.488l2.957-2.271c0.463-0.356,1.133-0.268,1.489,0.195l0,0         C359.767,416.043,359.68,416.713,359.217,417.069z" />
            </g>
            <g>
              <path style="fill:#F8E5E5;" d="M350.956,429.093l-3.229-1.864c-0.506-0.292-0.68-0.944-0.388-1.45l0,0         c0.292-0.506,0.944-0.68,1.45-0.388l3.229,1.864c0.506,0.292,0.681,0.944,0.389,1.45l0,0         C352.114,429.21,351.462,429.385,350.956,429.093z" />
            </g>
            <g>
              <path style="fill:#FFFFFF;" d="M372.311,399.483l-2.957,2.272c-0.463,0.356-1.133,0.268-1.488-0.195l0,0         c-0.356-0.463-0.268-1.133,0.195-1.488l2.957-2.271c0.463-0.356,1.133-0.268,1.488,0.195l0,0         C372.862,398.458,372.774,399.128,372.311,399.483z" />
            </g>
            <g>
              <path style="fill:#FFFFFF;" d="M368.696,421.453l-2.957,2.272c-0.463,0.356-1.133,0.268-1.488-0.195l0,0         c-0.356-0.463-0.268-1.133,0.195-1.488l2.957-2.272c0.463-0.356,1.133-0.268,1.488,0.195l0,0         C369.247,420.428,369.159,421.098,368.696,421.453z" />
            </g>
            <g>
              <path style="fill:#FF81CE;" d="M355.487,386.56l-2.957,2.272c-0.463,0.356-1.133,0.268-1.488-0.195l0,0         c-0.356-0.463-0.268-1.133,0.195-1.488l2.957-2.271c0.463-0.356,1.133-0.268,1.488,0.195l0,0         C356.038,385.535,355.95,386.205,355.487,386.56z" />
            </g>
            <g>
              <path style="fill:#FF81CE;" d="M372.031,411.595l-3.229-1.864c-0.506-0.292-0.68-0.944-0.389-1.45l0,0         c0.292-0.506,0.944-0.68,1.45-0.388l3.229,1.864c0.506,0.292,0.68,0.944,0.388,1.45v0         C373.189,411.712,372.536,411.887,372.031,411.595z" />
            </g>
            <g>
              <path style="fill:#FFB7A0;" d="M364.392,393.582h-3.729c-0.584,0-1.061-0.478-1.061-1.062l0,0         c0-0.584,0.478-1.061,1.061-1.061h3.729c0.584,0,1.061,0.478,1.061,1.061l0,0         C365.453,393.105,364.976,393.582,364.392,393.582z" />
            </g>
            <g>
              <path style="fill:#F8E5E5;" d="M361.174,378.599l-3.229-1.864c-0.506-0.292-0.68-0.944-0.389-1.45l0,0         c0.292-0.506,0.944-0.68,1.45-0.388l3.229,1.864c0.506,0.292,0.68,0.944,0.388,1.45l0,0         C362.332,378.716,361.679,378.891,361.174,378.599z" />
            </g>
            <g>
              <path style="fill:#FFB7A0;" d="M373.072,366.458l-2.957,2.272c-0.463,0.356-1.133,0.268-1.488-0.195l0,0         c-0.356-0.463-0.268-1.133,0.195-1.488l2.957-2.272c0.463-0.356,1.133-0.268,1.488,0.195l0,0         C373.623,365.432,373.535,366.102,373.072,366.458z" />
            </g>
            <g>
              <path style="fill:#FF81CE;" d="M439.101,398.422l2.957,2.272c0.463,0.356,1.133,0.268,1.488-0.195l0,0         c0.356-0.463,0.268-1.133-0.195-1.488l-2.957-2.272c-0.463-0.356-1.133-0.268-1.488,0.195l0,0         C438.55,397.396,438.638,398.066,439.101,398.422z" />
            </g>
            <g>
              <path style="fill:#FFFFFF;" d="M428.631,400.677l3.229-1.864c0.506-0.292,0.68-0.944,0.388-1.45l0,0         c-0.292-0.506-0.944-0.68-1.45-0.388l-3.229,1.864c-0.506,0.292-0.681,0.944-0.389,1.45l0,0         C427.473,400.794,428.126,400.969,428.631,400.677z" />
            </g>
            <g>
              <path style="fill:#FFB7A0;" d="M443.44,415.23l3.66-0.709c0.573-0.111,0.951-0.671,0.84-1.244l0,0         c-0.111-0.573-0.671-0.951-1.244-0.84l-3.66,0.709c-0.573,0.111-0.951,0.671-0.84,1.244l0,0         C442.307,414.963,442.867,415.341,443.44,415.23z" />
            </g>
            <g>
              <path style="fill:#FFB7A0;" d="M428.681,409.45l2.957,2.271c0.463,0.356,1.133,0.268,1.488-0.195l0,0         c0.356-0.463,0.268-1.133-0.195-1.488l-2.957-2.271c-0.463-0.356-1.133-0.268-1.488,0.195l0,0         C428.13,408.424,428.218,409.094,428.681,409.45z" />
            </g>
            <g>
              <path style="fill:#F8E5E5;" d="M434.266,425.592l3.229-1.864c0.506-0.292,0.68-0.944,0.389-1.45l0,0         c-0.292-0.506-0.944-0.68-1.45-0.389l-3.229,1.864c-0.506,0.292-0.68,0.944-0.388,1.45l0,0         C433.108,425.709,433.761,425.884,434.266,425.592z" />
            </g>
            <g>
              <path style="fill:#FF81CE;" d="M413.348,394.423l2.957,2.272c0.463,0.356,1.133,0.268,1.488-0.195l0,0         c0.356-0.463,0.268-1.133-0.195-1.488l-2.957-2.272c-0.463-0.356-1.133-0.268-1.488,0.195l0,0         C412.797,393.397,412.885,394.067,413.348,394.423z" />
            </g>
            <g>
              <path style="fill:#FF81CE;" d="M421.208,422.435l3.66,0.709c0.573,0.111,1.133-0.267,1.244-0.84l0,0         c0.111-0.573-0.267-1.133-0.84-1.244l-3.66-0.709c-0.573-0.111-1.133,0.267-1.244,0.84l0,0         C420.257,421.764,420.635,422.324,421.208,422.435z" />
            </g>
            <g>
              <path style="fill:#F8E5E5;" d="M432.41,386.56l2.957,2.272c0.463,0.356,1.133,0.268,1.489-0.195l0,0         c0.356-0.463,0.268-1.133-0.195-1.488l-2.957-2.271c-0.463-0.356-1.133-0.268-1.488,0.195l0,0         C431.86,385.535,431.947,386.205,432.41,386.56z" />
            </g>
            <g>
              <path style="fill:#F8E5E5;" d="M415.867,411.595l3.229-1.864c0.506-0.292,0.68-0.944,0.389-1.45l0,0         c-0.292-0.506-0.944-0.68-1.45-0.388l-3.229,1.864c-0.506,0.292-0.68,0.944-0.389,1.45v0         C414.709,411.712,415.361,411.887,415.867,411.595z" />
            </g>
            <g>
              <path style="fill:#FFB7A0;" d="M420.277,388.978h3.729c0.584,0,1.061-0.478,1.061-1.062l0,0c0-0.584-0.478-1.061-1.061-1.061         h-3.729c-0.584,0-1.062,0.478-1.062,1.061l0,0C419.216,388.5,419.693,388.978,420.277,388.978z" />
            </g>
            <g>
              <path style="fill:#FFB7A0;" d="M427.795,378.893l1.864-3.229c0.292-0.506,0.117-1.158-0.389-1.45l0,0         c-0.506-0.292-1.158-0.117-1.45,0.389l-1.864,3.229c-0.292,0.506-0.117,1.158,0.388,1.45l0,0         C426.85,379.573,427.503,379.399,427.795,378.893z" />
            </g>
            <g>
              <path style="fill:#FF81CE;" d="M416.623,364.632l-1.329,3.483c-0.208,0.546,0.068,1.162,0.613,1.37l0,0         c0.546,0.208,1.162-0.068,1.37-0.613l1.329-3.484c0.208-0.546-0.068-1.162-0.613-1.37l0,0         C417.448,363.81,416.832,364.086,416.623,364.632z" />
            </g>
            <g>
              <path style="fill:#F8E5E5;" d="M399.43,365.253l3.229-1.864c0.506-0.292,0.68-0.944,0.389-1.45l0,0         c-0.292-0.506-0.944-0.681-1.45-0.389l-3.229,1.864c-0.506,0.292-0.68,0.944-0.388,1.45l0,0         C398.271,365.37,398.924,365.545,399.43,365.253z" />
            </g>
            <g>
              <path style="fill:#FFFFFF;" d="M386.718,365.547l1.864-3.229c0.292-0.506,0.117-1.158-0.389-1.45l0,0         c-0.506-0.292-1.158-0.117-1.45,0.388l-1.864,3.229c-0.292,0.506-0.117,1.158,0.389,1.45l0,0         C385.773,366.227,386.426,366.052,386.718,365.547z" />
            </g>
          </g>
          <g style="opacity:0.25;">
            <path style="fill:#FFFFFF;" d="M335.962,406.597c-0.646,5.927-0.266,11.856,0.965,17.619c1.752,0.594,3.578,0.917,5.458,0.917        c13.005,0,23.548-15.042,23.548-33.596c0-9.884-2.993-18.77-7.755-24.918c-1.251,0.96-2.474,1.964-3.65,3.029        C343.965,379.21,337.499,392.496,335.962,406.597z" />
          </g>
        </g>
      </g>
      <g>
        <g>
          <g>
            <path style="fill:#FFFFFF;" d="M350.332,381.769c-1.194,0.965-2.175,2.269-3.043,3.519c-2.317,3.332-3.833,7.179-4.749,11.117        c-0.158,0.681,0.89,0.972,1.049,0.289c0.897-3.857,2.371-7.595,4.639-10.858c0.818-1.176,1.75-2.39,2.873-3.299        C351.645,382.098,350.872,381.332,350.332,381.769L350.332,381.769z" />
          </g>
        </g>
        <g>
          <circle style="fill:#FFFFFF;" cx="342.59" cy="398.799" r="0.533" />
        </g>
      </g>
      <g>
        <g>
          <g>
            <path style="fill:#FFFFFF;" d="M360.258,446.833c0.82,1.298,2.001,2.424,3.141,3.432c3.04,2.688,6.685,4.642,10.49,6.01        c0.658,0.236,1.069-0.771,0.409-1.008c-3.726-1.34-7.268-3.238-10.244-5.871c-1.073-0.949-2.171-2.016-2.942-3.238        C360.737,445.567,359.887,446.247,360.258,446.833L360.258,446.833z" />
          </g>
        </g>
        <g>
          <path style="fill:#FFFFFF;" d="M376.334,455.974c0.292,0.034,0.501,0.299,0.467,0.591c-0.034,0.292-0.299,0.502-0.591,0.467       c-0.292-0.034-0.502-0.299-0.467-0.591C375.777,456.149,376.041,455.94,376.334,455.974z" />
        </g>
      </g>
    </g>
    <g>
      <g>
        <g>
          <path style="fill:#152F47;" d="M399.025,379.328c-0.051,1.504-0.765,3.347-2.505,3.45c-1.73,0.102-2.459-2.104-2.505-3.45       c-0.011-0.305-0.26-0.452-0.496-0.444c-0.237-0.008-0.486,0.139-0.496,0.444c-0.052,1.504-0.766,3.347-2.505,3.45       c-1.732,0.102-2.459-2.104-2.505-3.45c-0.021-0.595-0.946-0.597-0.926,0c0.07,2.052,1.157,4.24,3.431,4.375       c1.492,0.088,2.476-1.042,2.995-2.348c0.513,1.261,1.495,2.259,3.007,2.348c2.267,0.134,3.368-2.535,3.43-4.375       C399.972,378.73,399.046,378.733,399.025,379.328z" />
        </g>
        <g>
          <g>
            <g>
              <g>
                <path style="fill:#152F47;" d="M375.157,380.029c0.006-1.546,0.187-3.091,0.653-4.57c0.323-1.025,0.799-2.147,1.644-2.855          c0.596-0.5,1.24-0.57,1.874-0.167c0.849,0.539,1.361,1.6,1.697,2.509c0.599,1.624,0.821,3.36,0.828,5.084          c0.003,0.77,1.199,0.771,1.196,0c-0.007-1.763-0.225-3.564-0.81-5.234c-0.427-1.219-1.052-2.473-2.114-3.258          c-0.875-0.647-1.997-0.739-2.948-0.194c-1.093,0.628-1.759,1.828-2.217,2.958c-0.732,1.802-0.989,3.794-0.997,5.728          C373.958,380.799,375.154,380.8,375.157,380.029L375.157,380.029z" />
              </g>
            </g>
          </g>
          <g>
            <g>
              <g>
                <path style="fill:#152F47;" d="M405.187,380.029c0.006-1.546,0.186-3.091,0.652-4.57c0.323-1.025,0.799-2.147,1.644-2.855          c0.596-0.5,1.24-0.57,1.874-0.167c0.849,0.539,1.361,1.6,1.697,2.509c0.599,1.624,0.821,3.36,0.828,5.084          c0.003,0.77,1.199,0.771,1.196,0c-0.007-1.763-0.225-3.564-0.81-5.234c-0.427-1.219-1.052-2.473-2.114-3.258          c-0.875-0.647-1.997-0.739-2.948-0.194c-1.093,0.628-1.759,1.828-2.217,2.958c-0.732,1.802-0.989,3.794-0.997,5.728          C403.988,380.799,405.184,380.8,405.187,380.029L405.187,380.029z" />
              </g>
            </g>
          </g>
        </g>
      </g>
      <g>
        <g>
          <path style="fill:#FF81CE;" d="M379.733,383.663c-0.304,0.798-2.401,0.738-4.684-0.133c-2.283-0.871-3.886-2.223-3.582-3.021       c0.304-0.798,2.401-0.738,4.684,0.133C378.434,381.513,380.037,382.865,379.733,383.663z" />
        </g>
        <g>
          <path style="fill:#FF81CE;" d="M407.305,383.663c0.304,0.798,2.401,0.738,4.684-0.133c2.283-0.871,3.886-2.223,3.582-3.021       c-0.304-0.798-2.401-0.738-4.684,0.133C408.605,381.513,407.001,382.865,407.305,383.663z" />
        </g>
      </g>
    </g>
    <g>
      <path style="fill:#152F47;" d="M345.625,439c-0.258,0-0.515-0.007-0.771-0.02c-1.734-0.086-3.818-0.945-4.565-2.671     c-4.218-9.733-5.886-20.025-4.824-29.766c1.584-14.534,8.235-27.769,18.727-37.267c10.817-9.792,24.792-15.21,39.348-15.255     c7.684,0.024,15.313,1.529,22.065,4.353c12.444,5.203,22.767,14.37,29.064,25.811c7.129,12.952,9.074,28.682,5.336,43.154     c-0.349,1.347-1.359,2.58-2.706,3.3c-1.259,0.675-2.62,0.813-3.829,0.389c-0.377-0.132-0.755-0.256-1.143-0.354     c-0.109-0.027-0.192-0.051-0.259-0.071c-0.075-0.004-0.163-0.013-0.256-0.022l-0.084-0.008c-0.136,0.032-0.269,0.072-0.403,0.114     c-0.044,0.03-0.168,0.095-0.285,0.171l-0.163,0.091c-0.048,0.044-0.111,0.1-0.197,0.171c-0.834,0.7-1.69,1.358-2.542,1.955     c-3.035,2.125-6.487,3.296-9.72,3.296c-0.001,0-0.002,0-0.003,0c-3.52,0-7.06-1.384-10.522-4.114     c-0.849-0.669-1.616-1.422-2.357-2.149c-0.473-0.464-0.946-0.929-1.442-1.374c-0.197-0.177-0.4-0.352-0.605-0.521l-0.737-0.514     c-0.63-0.413-1.312-0.798-2.083-1.176c-2.717-1.329-3.127-4.701-1.954-7.199c0.043-0.115,0.126-0.306,0.29-0.654l0.058-0.17     c0.135-0.384,0.271-0.768,0.388-1.158c0.219-0.725,0.366-1.446,0.523-2.211l0.106-0.518c-0.002-0.048,0.01-0.166,0.022-0.285     l0.025-0.258c0.041-0.55,0.061-1.102,0.061-1.652c0.001-0.799-0.059-1.587-0.117-2.255l-0.029-0.168     c-0.064-0.366-0.136-0.729-0.218-1.088c-0.161-0.707-0.361-1.417-0.597-2.11c-0.057-0.166-0.119-0.331-0.183-0.496     c-0.053-0.14-0.106-0.279-0.156-0.42l-0.11-0.235c-0.322-0.681-0.692-1.361-1.099-2.023c-0.034-0.055-0.092-0.16-0.165-0.292     c-0.085-0.154-0.27-0.492-0.445-0.774c-0.043-0.029-0.087-0.064-0.131-0.106l0,0c-0.026-0.024-0.053-0.052-0.08-0.082     c-0.071-0.079-0.137-0.161-0.203-0.244l-0.106-0.132c-0.195-0.231-0.397-0.46-0.604-0.685c-0.438-0.477-0.911-0.946-1.405-1.396     c-0.173-0.156-0.351-0.308-0.529-0.46l-0.532-0.393c-1.009-0.666-1.961-1.296-3.025-1.81l-0.216-0.099     c-0.125-0.056-0.25-0.112-0.37-0.175l-0.19-0.074c-0.102-0.028-0.184-0.053-0.224-0.067c-0.59-0.209-1.192-0.395-1.788-0.548     c-0.544-0.142-1.092-0.244-1.643-0.349l-0.366-0.061c-0.324-0.032-0.646-0.057-0.97-0.073c-0.713-0.038-1.428-0.039-2.126-0.009     c-0.324,0.015-0.647,0.037-0.971,0.065l-0.189,0.01c-1.39,0.273-2.59,0.546-3.772,0.966c-0.063,0.022-0.218,0.087-0.373,0.15     c-0.156,0.064-0.282,0.115-0.389,0.15v0.001l-0.216,0.103c-0.579,0.281-1.125,0.575-1.642,0.884     c-0.554,0.329-1.072,0.689-1.622,1.068l-0.354,0.296c-0.165,0.141-0.329,0.281-0.489,0.426c-0.488,0.442-0.962,0.912-1.405,1.396     c-0.206,0.224-0.407,0.453-0.605,0.686l-0.104,0.13c-0.066,0.083-0.132,0.165-0.202,0.243c-0.072,0.079-0.143,0.143-0.212,0.189     c-0.175,0.282-0.36,0.62-0.445,0.774c-0.073,0.132-0.131,0.237-0.165,0.293c-0.317,0.516-0.619,1.057-0.897,1.608     c-0.016,0.032-0.055,0.103-0.106,0.191l-0.128,0.228c-0.012,0.041-0.023,0.076-0.032,0.102c-0.033,0.1-0.074,0.203-0.115,0.305     l-0.063,0.156c-0.232,0.626-0.439,1.275-0.614,1.93c-0.181,0.677-0.316,1.369-0.436,2.016l-0.017,0.181     c-0.023,0.258-0.047,0.515-0.063,0.773c-0.046,0.767-0.051,1.546-0.015,2.314c0.01,0.197,0.027,0.395,0.045,0.591     c0.018,0.211,0.037,0.422,0.046,0.634l0.046,0.264c0.149,0.836,0.348,1.663,0.589,2.457c0.13,0.43,0.274,0.855,0.432,1.274     l0.111,0.287c0.797,1.506,1.494,2.789,2.427,4.037c1.291,1.728,0.821,4.366-0.379,5.92c-1.145,1.482-3.431,2.599-5.583,1.883     c-0.973-0.324-1.967-0.656-2.957-0.899c-0.24-0.059-0.483-0.104-0.725-0.151l-0.155-0.029c-0.133-0.006-0.279-0.017-0.427-0.02     c-0.086,0-0.183,0.004-0.274,0.011l-0.121-0.494l-0.455,0.011c0.018,0.282,0.252,0.429,0.374,0.444     c-0.023-0.003-0.136-0.006-0.245,0.018l-0.293,0.057l0.001,0.005l-0.112,0.022c-0.115,0.023-0.231,0.046-0.346,0.073     c-0.504,0.121-1.03,0.278-1.607,0.48c-0.301,0.104-0.599,0.217-0.893,0.333c-0.466,0.232-0.957,0.471-1.447,0.708     c-1.006,0.487-2.047,0.991-3.046,1.532c-0.742,0.402-1.476,0.822-2.209,1.242c-1.14,0.653-2.317,1.328-3.518,1.925     C352.156,438.05,348.772,439,345.625,439z M393.539,355.022c-14.306,0.045-28.042,5.37-38.676,14.997     c-10.311,9.333-16.847,22.343-18.404,36.632c-1.043,9.569,0.6,19.688,4.748,29.261c0.576,1.331,2.272,1.999,3.698,2.07     c3.175,0.157,6.633-0.742,10.843-2.836c1.175-0.584,2.34-1.252,3.467-1.898c0.74-0.425,1.48-0.849,2.229-1.254     c1.02-0.552,2.07-1.06,3.087-1.554c0.487-0.235,0.975-0.472,1.46-0.713c0.364-0.146,0.674-0.263,0.987-0.372     c0.608-0.213,1.166-0.379,1.704-0.509c0.112-0.026,0.224-0.049,0.334-0.071l0.038-0.039c0.049-0.001,0.099-0.005,0.147-0.008     l0.258-0.045c0.198-0.043,0.48-0.078,0.706-0.005c0.095-0.005,0.172-0.007,0.243-0.006c0.163,0.004,0.325,0.015,0.486,0.026     l0.261,0.04c0.26,0.05,0.518,0.1,0.776,0.163c1.029,0.253,2.044,0.591,3.024,0.918c1.708,0.568,3.582-0.371,4.486-1.542     c0.954-1.236,1.33-3.423,0.369-4.71c-0.975-1.304-1.723-2.679-2.529-4.213L377.14,419c-0.165-0.442-0.317-0.888-0.453-1.338     c-0.253-0.831-0.46-1.696-0.616-2.572l-0.061-0.416c-0.009-0.174-0.026-0.371-0.044-0.567c-0.019-0.211-0.037-0.422-0.046-0.634     c-0.038-0.804-0.033-1.618,0.015-2.421c0.017-0.27,0.041-0.536,0.065-0.804l0.018-0.198c0.135-0.74,0.275-1.455,0.464-2.165     c0.173-0.645,0.375-1.286,0.603-1.907c0-0.085,0.018-0.172,0.05-0.266l-0.03-0.013l0.51-0.917     c0.29-0.578,0.606-1.145,0.939-1.685c0.029-0.048,0.078-0.138,0.141-0.251c0.539-0.982,0.843-1.447,1.165-1.605     c0.179-0.208,0.358-0.412,0.543-0.612c0.465-0.506,0.959-0.996,1.471-1.46c0.168-0.151,0.339-0.298,0.51-0.444l0.364-0.309     c0.61-0.423,1.168-0.809,1.751-1.155c0.541-0.322,1.112-0.631,1.697-0.915l0.555-0.268l0.021,0.021     c0.035-0.014,0.07-0.028,0.106-0.043c0.172-0.07,0.345-0.141,0.415-0.166c1.061-0.377,2.119-0.638,3.328-0.885     c0.154-0.102,0.359-0.115,0.64-0.134l0.001,0.007l0.267-0.021c0.313-0.028,0.651-0.051,0.989-0.066     c0.729-0.031,1.477-0.029,2.223,0.01c0.338,0.017,0.676,0.043,1.013,0.075c0.061,0.006,0.132,0.017,0.201,0.028l0.256,0.047     c0.572,0.108,1.143,0.216,1.708,0.362c0.623,0.162,1.254,0.355,1.875,0.575l0.352,0.103c0.004,0.001,0.007,0.002,0.01,0.003     l0.018,0.006c0.34,0.102,0.56,0.191,0.694,0.333l0.022,0.011c1.077,0.521,2.063,1.164,3.015,1.793     c0.194,0.035,0.35,0.181,0.5,0.323l-0.003,0.004l0.263,0.224c0.184,0.158,0.369,0.316,0.55,0.479     c0.517,0.47,1.013,0.961,1.472,1.46c0.184,0.202,0.365,0.406,0.542,0.613c0.323,0.157,0.627,0.623,1.166,1.605     c0.063,0.113,0.111,0.203,0.141,0.25c0.426,0.693,0.813,1.406,1.151,2.119l0.297,0.729c0.067,0.176,0.135,0.353,0.195,0.53     c0.246,0.727,0.456,1.47,0.624,2.209c0.086,0.377,0.162,0.757,0.228,1.139l0.04,0.271c0.06,0.652,0.122,1.478,0.121,2.325     c0,0.575-0.02,1.152-0.064,1.728l-0.028,0.286c-0.011,0.105-0.021,0.21-0.028,0.314l-0.115,0.584     c-0.154,0.753-0.314,1.531-0.546,2.299c-0.121,0.404-0.262,0.803-0.401,1.202l-0.097,0.266c-0.053,0.111-0.175,0.389-0.237,0.534     l-0.048,0.109c-0.972,2.061-0.682,4.824,1.484,5.884c0.811,0.398,1.527,0.802,2.192,1.238l0.827,0.58     c0.215,0.178,0.426,0.36,0.634,0.546c0.508,0.456,0.992,0.931,1.476,1.405c0.723,0.709,1.47,1.442,2.276,2.078     c3.328,2.624,6.568,3.899,9.903,3.899c0.001,0,0.002,0,0.003,0c3.029,0,6.277-1.107,9.146-3.115     c0.636-0.445,1.273-0.926,1.903-1.434l-0.033,0.004l0.003-0.002l-0.561,0.065l1.578-0.855l0.392-0.304     c0.181-0.141,0.398-0.164,0.588-0.169l2.593-0.063l-0.542,0.233l2.838,0.262c0.17-0.066,0.339-0.145,0.506-0.233     c1.104-0.59,1.929-1.587,2.208-2.668c3.676-14.228,1.764-29.69-5.244-42.422c-6.189-11.244-16.336-20.255-28.573-25.372     C408.587,356.524,401.09,355.046,393.539,355.022z M444.491,430.245c0.539,0.065,1.1-0.001,1.657-0.189L444.491,430.245z" />
    </g>
  </g>
</svg>