<?xml version='1.0' encoding='utf-8'?>
<svg xmlns="http://www.w3.org/2000/svg" version="1.1" viewBox="-22.192 -30.831 329.944 341.31100000000004" width="329.944" height="341.31100000000004">
  <g>
    <g>
      <g>
        <g>
          <g>
            <g>
              <path style="fill:#F8E5E5;" d="M144.946,264.813c0-2.151-1.183-4.023-2.932-5.009c1.66-1.008,2.772-2.828,2.772-4.912         c0-2.43-1.51-4.503-3.641-5.345c1.61-1.019,2.683-2.811,2.683-4.857c0-2.877-2.115-5.253-4.874-5.676         c0.75-0.971,1.201-2.185,1.201-3.507c0-3.175-2.574-5.75-5.75-5.75c-0.755,0-1.475,0.15-2.136,0.414         c-0.383-2.804-2.781-4.966-5.69-4.966c-1.177,0-2.271,0.355-3.182,0.962c-0.582-2.56-2.867-4.472-5.602-4.472         c-1.554,0-2.962,0.62-3.997,1.622c-0.782-2.247-2.913-3.861-5.426-3.861c-2.112,0-3.949,1.144-4.949,2.84         c-0.999-1.698-2.841-2.84-4.953-2.84c-0.027,0-0.053,0.005-0.08,0.005c-0.027,0-0.053-0.005-0.08-0.005         c-2.113,0-3.954,1.143-4.953,2.84c-1-1.697-2.837-2.84-4.949-2.84c-2.513,0-4.644,1.615-5.426,3.861         c-1.035-1.002-2.443-1.622-3.997-1.622c-2.736,0-5.021,1.912-5.602,4.472c-0.911-0.607-2.005-0.962-3.182-0.962         c-2.909,0-5.307,2.162-5.69,4.966c-0.661-0.265-1.38-0.414-2.136-0.414c-3.175,0-5.75,2.574-5.75,5.75         c0,1.322,0.451,2.536,1.201,3.507c-2.759,0.423-4.874,2.799-4.874,5.676c0,2.046,1.072,3.838,2.683,4.857         c-2.131,0.842-3.641,2.915-3.641,5.345c0,2.084,1.113,3.904,2.772,4.912c-1.749,0.986-2.932,2.858-2.932,5.009         c0,2.523,1.628,4.662,3.889,5.436c-1.3,1.054-2.132,2.662-2.132,4.466c0,2.815,2.024,5.153,4.696,5.649         c-0.643,0.928-1.023,2.054-1.023,3.269c0,3.175,2.574,5.75,5.749,5.75c0.561,0,1.102-0.084,1.615-0.234         c-0.001,0.043-0.007,0.085-0.007,0.128c0,3.175,2.574,5.749,5.75,5.749c1.691,0,3.207-0.735,4.259-1.897         c0.32,2.872,2.754,5.106,5.711,5.106c1.652,0,3.137-0.701,4.186-1.817c0.861,2.09,2.916,3.563,5.316,3.563         c1.513,0,2.886-0.589,3.913-1.545c1.027,0.956,2.399,1.545,3.913,1.545c0.244,0,0.483-0.02,0.719-0.05         c0.236,0.029,0.475,0.05,0.719,0.05c1.513,0,2.886-0.589,3.913-1.545c1.027,0.956,2.399,1.545,3.913,1.545         c2.401,0,4.456-1.473,5.316-3.563c1.049,1.116,2.534,1.817,4.186,1.817c2.958,0,5.391-2.234,5.712-5.106         c1.052,1.162,2.568,1.897,4.259,1.897c3.175,0,5.75-2.574,5.75-5.749c0-0.043-0.006-0.085-0.006-0.128         c0.513,0.15,1.054,0.234,1.615,0.234c3.176,0,5.75-2.574,5.75-5.75c0-1.215-0.379-2.341-1.023-3.269         c2.672-0.495,4.696-2.834,4.696-5.649c0-1.804-0.832-3.412-2.132-4.466C143.318,269.474,144.946,267.336,144.946,264.813z" />
            </g>
            <g>
              <path style="fill:#E8B1B1;" d="M64.255,243.575c1.215,1.641,3.023,2.728,4.895,3.044c0.943,0.138,1.895,0.145,2.828-0.041         c0.467-0.063,0.924-0.235,1.383-0.334l1.343-0.5l0.815-0.303l0.33,0.9c0.307,0.835,0.846,1.734,1.468,2.39         c0.627,0.672,1.377,1.16,2.208,1.354c0.832,0.191,1.723,0.16,2.625-0.057c0.45-0.103,0.903-0.285,1.354-0.421l1.334-0.626         l1.088-0.51l0.698,1.072c0.159,0.244,0.468,0.638,0.758,0.912c0.305,0.29,0.63,0.552,0.981,0.757         c0.7,0.413,1.46,0.639,2.26,0.693c0.806,0.03,1.648-0.15,2.485-0.438c0.416-0.161,0.828-0.371,1.243-0.555l1.21-0.725         l0.859-0.515l0.849,0.558c0.875,0.575,2.02,1.159,3.11,1.514c1.111,0.37,2.257,0.562,3.377,0.539         c1.123-0.01,2.213-0.267,3.226-0.743c1.041-0.425,1.932-1.195,2.801-1.986l0.701-0.638l0.773,0.33         c0.869,0.371,1.955,0.673,2.959,0.85c1.025,0.172,2.06,0.207,3.05,0.058c0.99-0.154,1.903-0.538,2.714-1.102         c0.844-0.54,1.433-1.413,2.003-2.294l0.376-0.582l0.529,0.188c0.654,0.233,1.463,0.378,2.212,0.402         c0.764,0.026,1.523-0.091,2.233-0.358c0.712-0.262,1.364-0.724,1.853-1.35c0.541-0.593,0.881-1.351,1.19-2.124         c-0.158,0.81-0.351,1.649-0.806,2.393c-0.42,0.758-1.077,1.411-1.862,1.852c-0.779,0.457-1.674,0.69-2.561,0.781         c-0.903,0.079-1.762,0.055-2.705-0.15l0.904-0.393c-0.548,1.1-1.171,2.245-2.194,3.082c-0.973,0.858-2.183,1.499-3.45,1.778         c-1.263,0.29-2.547,0.334-3.793,0.218c-1.265-0.126-2.427-0.363-3.687-0.844l1.473-0.307         c-1.014,1.029-2.111,2.049-3.486,2.705c-0.651,0.387-1.393,0.591-2.112,0.837c-0.745,0.15-1.494,0.299-2.25,0.305         c-1.508,0.055-2.993-0.185-4.382-0.624c-0.695-0.223-1.372-0.484-2.025-0.799c-0.672-0.315-1.256-0.639-1.939-1.12         l1.708,0.042l-1.485,0.86c-0.536,0.238-1.062,0.491-1.619,0.695c-1.135,0.377-2.36,0.632-3.646,0.561         c-1.281-0.082-2.562-0.511-3.615-1.224c-0.532-0.349-1.005-0.766-1.434-1.215c-0.433-0.475-0.775-0.903-1.145-1.558         l1.785,0.562l-1.637,0.681c-0.588,0.159-1.157,0.355-1.766,0.46c-1.22,0.202-2.542,0.173-3.794-0.231         c-1.26-0.403-2.336-1.246-3.106-2.217c-0.758-1.01-1.261-2.057-1.577-3.293l1.145,0.597         c-0.524,0.138-1.041,0.287-1.565,0.409c-0.541,0.071-1.067,0.197-1.616,0.199c-1.086,0.073-2.187-0.074-3.226-0.371         C66.829,246.946,65.124,245.426,64.255,243.575z" />
            </g>
            <g>
              <g>
                <ellipse style="fill:#F2CECE;" cx="98.319" cy="236.42" rx="18.473" ry="9.263" />
              </g>
              <g>
                <g>
                  <g>
                    <path style="fill:#FF81CE;" d="M96.612,229.037c0,0,5.54-5.771,8.521-5.132c2.981,0.639,10.899,4.969,10.115,7.24            c-0.784,2.271-6.282,8.411-8.731,8.305C104.068,239.343,97.628,230.178,96.612,229.037z" />
                  </g>
                  <g>
                    <path style="fill:#F473C6;" d="M105.133,223.905c-2.282-0.489-6.054,2.77-7.702,4.329            c1.827-1.475,4.177-2.997,5.786-2.652c2.981,0.639,10.899,4.969,10.115,7.24c-0.414,1.199-2.143,3.471-4.041,5.338            c2.517-1.904,5.406-5.415,5.958-7.015C116.032,228.874,108.114,224.544,105.133,223.905z" />
                  </g>
                </g>
                <g>
                  <g>
                    <path style="fill:#76DD9F;" d="M83.258,231.059c0,0,5.957-7.31,8.406-7.203c2.449,0.107,9.795,7.985,8.305,10.541            c-1.491,2.555-10.914,10.117-12.192,9.629C87.777,244.026,78.55,236.065,83.258,231.059z" />
                  </g>
                  <g>
                    <path style="fill:#62CC88;" d="M91.664,223.856c-0.776-0.034-1.903,0.678-3.081,1.664            c0.076-0.009,0.159-0.032,0.229-0.029c2.449,0.106,9.796,7.985,8.305,10.541c-0.997,1.709-5.536,5.648-8.819,7.93            c2.342-0.735,10.309-7.23,11.671-9.565C101.46,231.842,94.113,223.963,91.664,223.856z" />
                  </g>
                </g>
              </g>
            </g>
            <g>
              <g>
                <path style="fill:#EADA8F;" d="M93.489,245.361c0,0-5.232-3.085-3.954-5.107c1.278-2.023,10.221-9.05,12.99-8.305          c2.768,0.745,10.853,8.354,10.484,10.086C113.008,242.035,106.707,246.955,93.489,245.361z" />
              </g>
              <g>
                <path style="fill:#DDCA7A;" d="M99.576,233.545c2.759,0.743,10.797,8.302,10.483,10.066          c1.969-0.822,2.949-1.577,2.949-1.577c0.369-1.732-7.716-9.341-10.484-10.086c-1.132-0.305-3.299,0.698-5.55,2.119          C98.041,233.61,98.964,233.381,99.576,233.545z" />
              </g>
            </g>
            <g style="opacity:0.2;">
              <g>
                <path style="fill:#D3A1A1;" d="M144.946,264.813c0-2.151-1.183-4.023-2.932-5.009c1.66-1.008,2.772-2.828,2.772-4.912          c0-2.43-1.51-4.503-3.641-5.345c1.61-1.019,2.683-2.811,2.683-4.857c0-2.877-2.115-5.253-4.874-5.676          c0.75-0.971,1.201-2.185,1.201-3.507c0-3.175-2.574-5.75-5.75-5.75c-0.755,0-1.475,0.15-2.136,0.414          c-0.383-2.804-2.781-4.966-5.69-4.966c-1.177,0-2.271,0.355-3.182,0.962c-0.582-2.56-2.866-4.472-5.602-4.472          c-0.196,0-0.39,0.01-0.581,0.029c2.578,0.322,4.628,2.331,4.979,4.9c0.661-0.265,1.38-0.414,2.136-0.414          c3.175,0,5.75,2.574,5.75,5.749c0,1.322-0.451,2.536-1.201,3.507c2.759,0.423,4.874,2.799,4.874,5.676          c0,2.046-1.073,3.838-2.683,4.857c2.131,0.842,3.641,2.915,3.641,5.345c0,2.084-1.113,3.904-2.772,4.912          c1.749,0.986,2.932,2.858,2.932,5.009c0,2.523-1.628,4.662-3.889,5.436c1.3,1.054,2.132,2.662,2.132,4.466          c0,2.815-2.024,5.153-4.696,5.649c0.643,0.928,1.023,2.054,1.023,3.269c0,3.176-2.574,5.75-5.749,5.75          c-0.561,0-1.102-0.084-1.615-0.234c0.001,0.043,0.007,0.085,0.007,0.128c0,3.175-2.574,5.75-5.749,5.75          c-1.691,0-3.207-0.735-4.259-1.897c-0.32,2.872-2.754,5.106-5.711,5.106c-1.652,0-3.137-0.701-4.186-1.817          c-0.861,2.09-2.916,3.563-5.316,3.563c-1.513,0-2.886-0.589-3.913-1.545c-1.027,0.956-2.399,1.545-3.913,1.545          c-0.244,0-0.483-0.02-0.719-0.05c-0.236,0.029-0.475,0.05-0.719,0.05c-1.514,0-2.886-0.589-3.913-1.545          c-1.027,0.956-2.399,1.545-3.913,1.545c-2.23,0-4.149-1.279-5.102-3.135c0.397,2.787,2.779,4.936,5.676,4.936          c1.652,0,3.137-0.701,4.186-1.817c0.861,2.09,2.916,3.563,5.316,3.563c1.513,0,2.886-0.589,3.913-1.545          c1.027,0.956,2.399,1.545,3.913,1.545c0.244,0,0.483-0.02,0.719-0.05c0.236,0.029,0.475,0.05,0.719,0.05          c1.513,0,2.886-0.589,3.913-1.545c1.027,0.956,2.399,1.545,3.913,1.545c2.401,0,4.456-1.473,5.316-3.563          c1.049,1.116,2.534,1.817,4.186,1.817c2.958,0,5.391-2.234,5.711-5.106c1.052,1.162,2.568,1.897,4.259,1.897          c3.175,0,5.749-2.574,5.749-5.749c0-0.043-0.005-0.085-0.006-0.128c0.513,0.15,1.054,0.234,1.615,0.234          c3.175,0,5.749-2.574,5.749-5.75c0-1.215-0.379-2.341-1.023-3.269c2.672-0.495,4.696-2.834,4.696-5.649          c0-1.804-0.832-3.412-2.132-4.466C143.318,269.474,144.946,267.336,144.946,264.813z" />
              </g>
              <g>
                <path style="fill:#D3A1A1;" d="M113.46,222.542c-0.099-0.189-0.217-0.365-0.336-0.54c0.072,0.204,0.149,0.405,0.197,0.619          C113.365,222.591,113.415,222.57,113.46,222.542z" />
              </g>
              <g>
                <path style="fill:#D3A1A1;" d="M74.454,292.872c-1.049,1.116-2.534,1.817-4.186,1.817c-2.543,0-4.69-1.657-5.448-3.946          c0.649,2.464,2.886,4.283,5.554,4.283c1.674,0,3.175-0.722,4.226-1.864C74.552,293.064,74.495,292.972,74.454,292.872z" />
              </g>
            </g>
            <g style="opacity:0.25;">
              <path style="fill:#FFFFFF;" d="M88.298,242.58c0-8.264-3.306-15.693-8.565-20.831c-0.245-0.032-0.493-0.054-0.746-0.054         c-2.736,0-5.021,1.912-5.602,4.472c-0.911-0.607-2.005-0.962-3.182-0.962c-2.909,0-5.307,2.162-5.69,4.966         c-0.661-0.265-1.38-0.414-2.136-0.414c-3.175,0-5.75,2.574-5.75,5.75c0,1.322,0.451,2.536,1.201,3.507         c-2.759,0.423-4.874,2.799-4.874,5.676c0,2.046,1.072,3.838,2.683,4.857c-2.131,0.842-3.641,2.915-3.641,5.345         c0,2.084,1.113,3.904,2.772,4.912c-1.749,0.986-2.932,2.858-2.932,5.009c0,1.716,0.764,3.242,1.957,4.294         c2.669,1,5.532,1.551,8.517,1.551C76.662,270.657,88.298,258.086,88.298,242.58z" />
            </g>
          </g>
          <g>
            <g>
              <g>
                <path style="fill:#FFFFFF;" d="M59.869,256.281c-0.557,1.511-0.74,3.213-0.851,4.806c-0.296,4.247,0.405,8.528,1.696,12.568          c0.223,0.699,1.324,0.397,1.1-0.303c-1.264-3.957-1.945-8.116-1.655-12.275c0.105-1.499,0.292-3.094,0.816-4.516          C61.229,255.872,60.121,255.598,59.869,256.281L59.869,256.281z" />
              </g>
            </g>
            <g>
              <path style="fill:#FFFFFF;" d="M62.526,275.498c0.158,0.265,0.071,0.608-0.194,0.767c-0.265,0.158-0.608,0.071-0.767-0.194         c-0.158-0.265-0.071-0.608,0.194-0.766C62.025,275.146,62.368,275.233,62.526,275.498z" />
            </g>
          </g>
        </g>
      </g>
      <g>
        <path style="fill:#152F47;" d="M106.935,300.48c-1.43,0-2.803-0.488-3.913-1.384c-1.298,1.048-3.013,1.524-4.631,1.338      c-1.622,0.186-3.333-0.29-4.632-1.338c-1.109,0.895-2.482,1.384-3.913,1.384c-2.301,0-4.378-1.246-5.469-3.227      c-1.126,0.959-2.535,1.48-4.034,1.48c-2.864,0-5.31-1.927-6.032-4.614c-1.108,0.901-2.5,1.405-3.939,1.405      c-3.277,0-5.974-2.536-6.229-5.748c-0.374,0.069-0.751,0.104-1.128,0.104c-3.446,0-6.249-2.804-6.249-6.25      c0-1.036,0.254-2.042,0.74-2.946c-2.595-0.794-4.413-3.201-4.413-5.971c0-1.619,0.619-3.149,1.721-4.306      c-2.109-1.043-3.478-3.201-3.478-5.597c0-1.991,0.955-3.853,2.536-5.022c-1.5-1.181-2.376-2.962-2.376-4.898      c0-2.287,1.221-4.338,3.172-5.437c-1.399-1.18-2.214-2.907-2.214-4.766c0-2.845,1.871-5.261,4.545-6.008      c-0.572-0.96-0.871-2.045-0.871-3.175c0-3.446,2.804-6.25,6.249-6.25c0.595,0,1.182,0.085,1.751,0.253      c0.66-2.777,3.172-4.804,6.074-4.804c1.009,0,1.992,0.241,2.879,0.703c0.857-2.511,3.198-4.212,5.906-4.212      c1.387,0,2.712,0.454,3.8,1.292c1.033-2.138,3.211-3.531,5.623-3.531c1.939,0,3.774,0.922,4.949,2.449      c1.174-1.527,3.01-2.449,4.953-2.449l0.042,0.503l0.061-0.497c0.006,0,0.012,0,0.019,0c1.986,0,3.82,0.921,4.992,2.443      c1.175-1.527,3.009-2.449,4.948-2.449c2.412,0,4.589,1.393,5.623,3.531c1.087-0.837,2.413-1.292,3.8-1.292      c2.707,0,5.049,1.701,5.906,4.212c0.886-0.461,1.869-0.702,2.878-0.702c2.902,0,5.415,2.027,6.075,4.804      c0.569-0.168,1.156-0.253,1.751-0.253c3.446,0,6.249,2.804,6.249,6.25c0,1.131-0.299,2.215-0.871,3.175      c2.674,0.747,4.544,3.163,4.544,6.008c0,1.859-0.814,3.586-2.213,4.766c1.952,1.098,3.172,3.149,3.172,5.437      c0,1.936-0.876,3.718-2.376,4.898c1.581,1.17,2.536,3.031,2.536,5.022c0,2.396-1.369,4.554-3.478,5.597      c1.102,1.156,1.721,2.686,1.721,4.306c0,2.77-1.818,5.177-4.413,5.971c0.486,0.904,0.74,1.91,0.74,2.946      c0,3.446-2.804,6.25-6.249,6.25c-0.377,0-0.754-0.035-1.128-0.104c-0.256,3.212-2.952,5.748-6.229,5.748      c-1.438,0-2.831-0.504-3.939-1.405c-0.722,2.688-3.168,4.614-6.032,4.614c-1.499,0-2.907-0.522-4.033-1.48      C111.313,299.234,109.236,300.48,106.935,300.48z M103.022,297.752l0.341,0.317c0.977,0.91,2.246,1.411,3.572,1.411      c2.135,0,4.04-1.277,4.854-3.253l0.295-0.718l0.531,0.565c1.005,1.07,2.362,1.659,3.822,1.659c2.677,0,4.918-2.004,5.214-4.661      l0.123-1.103l0.745,0.822c0.997,1.102,2.414,1.732,3.889,1.732c2.895,0,5.25-2.354,5.25-5.249v-0.668l0.634,0.06      c0.484,0.142,0.98,0.214,1.474,0.214c2.895,0,5.249-2.355,5.249-5.25c0-1.07-0.323-2.103-0.934-2.983l-0.44-0.636l0.76-0.141      c2.484-0.461,4.288-2.63,4.288-5.157c0-1.588-0.709-3.074-1.947-4.078l-0.701-0.569l0.854-0.292      c2.124-0.727,3.551-2.722,3.551-4.963c0-1.891-1.026-3.643-2.678-4.573l-0.744-0.419l0.73-0.444      c1.585-0.963,2.532-2.64,2.532-4.484c0-2.167-1.305-4.083-3.325-4.88l-0.915-0.361l0.832-0.526      c1.534-0.971,2.45-2.628,2.45-4.435c0-2.607-1.872-4.787-4.45-5.182l-0.838-0.128l0.519-0.671      c0.717-0.929,1.096-2.036,1.096-3.202c0-2.895-2.355-5.25-5.249-5.25c-0.667,0-1.323,0.128-1.95,0.378l-0.595,0.239      l-0.087-0.635c-0.352-2.585-2.586-4.534-5.194-4.534c-1.038,0-2.042,0.304-2.904,0.878l-0.604,0.402l-0.161-0.708      c-0.546-2.404-2.649-4.083-5.114-4.083c-1.367,0-2.663,0.526-3.649,1.481l-0.562,0.544l-0.257-0.739      c-0.734-2.109-2.726-3.526-4.954-3.526c-1.844,0-3.575,0.994-4.518,2.595l-0.431,0.731l-0.431-0.732      c-0.942-1.6-2.675-2.594-4.523-2.594H98.3c0,0,0,0-0.001,0c-1.836,0-3.569,0.994-4.511,2.594l-0.431,0.732l-0.431-0.731      c-0.943-1.601-2.674-2.595-4.518-2.595c-2.229,0-4.219,1.417-4.954,3.526l-0.257,0.739l-0.563-0.544      c-0.986-0.955-2.282-1.481-3.649-1.481c-2.465,0-4.568,1.679-5.114,4.083l-0.161,0.708l-0.604-0.402      c-0.863-0.574-1.868-0.878-2.905-0.878c-2.608,0-4.841,1.949-5.194,4.534l-0.087,0.635l-0.595-0.239      c-0.626-0.251-1.282-0.378-1.95-0.378c-2.895,0-5.249,2.355-5.249,5.25c0,1.165,0.379,2.272,1.097,3.202l0.519,0.671      l-0.838,0.128c-2.579,0.395-4.45,2.574-4.45,5.182c0,1.807,0.916,3.464,2.45,4.435l0.832,0.526l-0.916,0.361      c-2.02,0.798-3.325,2.713-3.325,4.88c0,1.845,0.947,3.521,2.532,4.484l0.73,0.444l-0.744,0.419      c-1.652,0.931-2.678,2.683-2.678,4.573c0,2.241,1.427,4.235,3.551,4.963l0.854,0.292l-0.701,0.569      c-1.237,1.004-1.947,2.49-1.947,4.078c0,2.527,1.803,4.696,4.287,5.157l0.76,0.141l-0.44,0.635      c-0.611,0.883-0.934,1.914-0.934,2.984c0,2.895,2.355,5.25,5.249,5.25c0.494,0,0.99-0.072,1.474-0.214l0.656-0.192l-0.016,0.684      l-0.465,0.107l0.003,0.01h0.456c0,2.895,2.355,5.249,5.249,5.249c1.475,0,2.892-0.631,3.888-1.732l0.745-0.822l0.123,1.103      c0.296,2.657,2.538,4.661,5.214,4.661c1.459,0,2.817-0.589,3.822-1.659l0.531-0.565l0.295,0.718      c0.814,1.976,2.719,3.253,4.854,3.253c1.327,0,2.595-0.501,3.572-1.411l0.341-0.317l0.341,0.317      c1.142,1.064,2.73,1.548,4.229,1.365l0.062-0.008l0.062,0.008c1.498,0.183,3.088-0.302,4.229-1.365L103.022,297.752z" />
      </g>
    </g>
    <g>
      <g>
        <g>
          <g>
            <g>
              <g>
                <path style="fill:#152F47;" d="M78.679,272.372c0.006-1.546,0.187-3.092,0.652-4.57c0.323-1.025,0.799-2.147,1.644-2.855          c0.596-0.5,1.24-0.57,1.874-0.168c0.849,0.539,1.361,1.6,1.697,2.509c0.599,1.624,0.821,3.36,0.828,5.084          c0.003,0.77,1.199,0.771,1.196,0c-0.007-1.763-0.225-3.564-0.81-5.234c-0.427-1.219-1.052-2.472-2.114-3.258          c-0.875-0.647-1.997-0.739-2.948-0.194c-1.093,0.628-1.759,1.828-2.217,2.958c-0.732,1.802-0.989,3.794-0.997,5.728          C77.479,273.142,78.675,273.142,78.679,272.372L78.679,272.372z" />
              </g>
            </g>
          </g>
          <g>
            <g>
              <g>
                <path style="fill:#152F47;" d="M108.708,272.372c0.006-1.546,0.187-3.092,0.652-4.57c0.323-1.025,0.799-2.147,1.644-2.855          c0.596-0.5,1.24-0.57,1.874-0.168c0.849,0.539,1.361,1.6,1.697,2.509c0.599,1.624,0.821,3.36,0.828,5.084          c0.003,0.77,1.199,0.771,1.196,0c-0.007-1.763-0.225-3.564-0.81-5.234c-0.427-1.219-1.052-2.472-2.114-3.258          c-0.875-0.647-1.997-0.739-2.948-0.194c-1.093,0.628-1.759,1.828-2.217,2.958c-0.732,1.802-0.989,3.794-0.997,5.728          C107.509,273.142,108.705,273.142,108.708,272.372L108.708,272.372z" />
              </g>
            </g>
          </g>
        </g>
        <g>
          <g>
            <path style="fill:#152F47;" d="M103.038,270.974c-0.107-0.2-0.268-0.315-0.441-0.317c-0.001,0-0.003,0-0.004,0        c-0.095,0-0.273,0.037-0.409,0.279c-1.475,2.612-3.107,4.004-4.721,4.025c-0.012,0-0.025,0-0.038,0        c-1.643,0-3.288-1.356-4.888-4.031c-0.139-0.233-0.325-0.279-0.409-0.264c-0.17,0.003-0.323,0.112-0.431,0.307        c-0.147,0.267-0.208,0.714,0.004,1.063c1.652,2.719,3.566,4.171,5.536,4.197c0.018,0,0.035,0,0.053,0        c1.984,0,3.964-1.448,5.731-4.192C103.242,271.695,103.185,271.246,103.038,270.974z" />
          </g>
        </g>
      </g>
      <g>
        <g>
          <ellipse transform="matrix(0.3565 -0.9343 0.9343 0.3565 -205.1223 250.2729)" style="fill:#FF81CE;" cx="79.122" cy="274.043" rx="1.546" ry="4.423" />
        </g>
        <g>
          <path style="fill:#FF81CE;" d="M110.827,275.62c0.304,0.798,2.401,0.738,4.684-0.133c2.283-0.871,3.886-2.224,3.582-3.021       c-0.304-0.798-2.401-0.738-4.684,0.133C112.126,273.469,110.522,274.822,110.827,275.62z" />
        </g>
      </g>
    </g>
  </g>
</svg>