<?xml version='1.0' encoding='utf-8'?>
<svg xmlns="http://www.w3.org/2000/svg" xmlns:ns1="http://www.w3.org/1999/xlink" version="1.1" viewBox="-73.11 -78.865 505.353 554.891" width="505.353" height="554.891">
  <g>
    <g>
      <g>
        <g>
          <g>
            <g>
              <g>
                <g>
                  <path style="fill:#FF81CE;" d="M64.977,371.677c0,0-6.684-3.334-5.046-5.433c1.638-2.099,6.004,2.03,6.004,2.03           s-4.149-8.146,0.027-8.208c4.176-0.063,3.329,6.362,3.099,7.337c0,0,2.555-6.339,5.006-4.201           c2.451,2.138-1.982,7.415-2.364,7.324L64.977,371.677z" />
                </g>
                <g>
                  <g>
                    <path style="fill:#F761C2;" d="M69.501,369.627c0,0,2.555-6.339,5.006-4.201c0.084,0.074,0.142,0.159,0.21,0.24            c0.186-0.947,0.066-1.841-0.649-2.465c-1.724-1.503-3.495,1.18-4.396,2.909C69.828,367.661,69.604,369.19,69.501,369.627z            " />
                  </g>
                  <g>
                    <path style="fill:#F761C2;" d="M66.375,370.498c0,0-0.66-1.305-1.189-2.871c-1.32-1.069-4.038-2.942-5.254-1.384            c-0.516,0.66-0.206,1.443,0.459,2.206C62.043,366.404,66.375,370.498,66.375,370.498z" />
                  </g>
                  <g>
                    <path style="fill:#F761C2;" d="M66.402,362.29c1.552-0.023,2.408,0.85,2.862,2.006c-0.122-2.033-0.829-4.268-3.301-4.23            c-2.298,0.034-2.072,2.516-1.407,4.741C64.468,363.418,64.877,362.313,66.402,362.29z" />
                  </g>
                </g>
              </g>
              <g>
                <path style="fill:#152F47;" d="M71.788,371.019l-6.888,1.178l-0.146-0.073c-0.515-0.257-5.041-2.57-5.534-4.748          c-0.119-0.523-0.009-1.021,0.318-1.439c0.368-0.473,0.864-0.73,1.475-0.781c1.17-0.088,2.556,0.669,3.617,1.416          c-0.73-1.854-1.514-4.547-0.642-5.995c0.273-0.451,0.835-0.993,1.967-1.011c1.138-0.017,2.048,0.388,2.703,1.204          c0.864,1.075,1.117,2.698,1.132,4.106c0.704-1.132,1.666-2.296,2.755-2.557c0.646-0.156,1.291,0.02,1.852,0.509          c1.168,1.018,1.201,2.766,0.092,4.921c-0.221,0.43-1.774,3.065-2.702,3.264L71.788,371.019z M65.056,371.155l6.528-1.116          c0.493-0.357,2.519-2.833,2.707-4.836c0.067-0.712-0.114-1.243-0.551-1.624c-0.318-0.277-0.615-0.356-0.961-0.289          c-1.377,0.33-2.815,3.216-3.252,4.3l-0.951-0.302c0.151-0.639,0.636-4.235-0.696-5.892          c-0.459-0.571-1.084-0.843-1.909-0.831c-0.73,0.009-0.991,0.306-1.126,0.526c-0.89,1.478,0.808,5.521,1.537,6.954          l1.308,2.571l-2.097-1.98c-0.77-0.727-3.081-2.592-4.505-2.484c-0.326,0.023-0.568,0.151-0.761,0.398          c-0.144,0.184-0.184,0.37-0.131,0.604C60.481,368.416,63.267,370.241,65.056,371.155z" />
              </g>
            </g>
            <g>
              <g>
                <g>
                  <g>
                    <path style="fill:#76DD9F;" d="M68.057,368.951l-0.005-0.027c-0.069,0.014-0.133,0.038-0.201,0.054            c-0.069,0.011-0.137,0.013-0.206,0.027l0.005,0.027c-14.918,4.139,2.119,68.398,2.119,68.398l11.865,2.498l0.034,0.173            l0.186-0.127l0.22,0.046l-0.034-0.173l10.027-6.816C92.068,433.031,83.429,367.116,68.057,368.951z" />
                  </g>
                  <g>
                    <defs>
                      <path id="SVGID_00000063618645661769886880000014112193148519848325_" d="M68.057,368.951l-0.005-0.027             c-0.069,0.014-0.133,0.038-0.201,0.054c-0.069,0.011-0.137,0.013-0.206,0.027l0.005,0.027             c-14.918,4.139,2.119,68.398,2.119,68.398l11.865,2.498l0.034,0.173l0.186-0.127l0.22,0.046l-0.034-0.173l10.027-6.816             C92.068,433.031,83.429,367.116,68.057,368.951z" />
                    </defs>
                    <clipPath id="SVGID_00000000901830104951909750000017239845138997471907_">
                      <use ns1:href="#SVGID_00000063618645661769886880000014112193148519848325_" style="overflow:visible;" />
                    </clipPath>
                    <g style="clip-path:url(#SVGID_00000000901830104951909750000017239845138997471907_);">
                      <g>
                        <g>
                          <path style="fill:#55C67E;" d="M66.141,363.006c0.615,3.116,1.229,6.231,1.844,9.347               c1.485,7.53,2.971,15.061,4.456,22.591c1.789,9.07,3.578,18.14,5.367,27.209c1.548,7.849,3.096,15.697,4.644,23.546               c0.514,2.604,1.028,5.209,1.541,7.814c0.237,1.202,0.382,2.541,0.732,3.714c0.015,0.052,0.022,0.11,0.032,0.164               c0.174,0.884,1.198,0.683,1.024-0.202c-0.615-3.116-1.229-6.231-1.844-9.347c-1.485-7.53-2.971-15.061-4.456-22.591               c-1.789-9.07-3.578-18.14-5.367-27.209c-1.548-7.849-3.096-15.697-4.644-23.546c-0.514-2.604-1.027-5.209-1.541-7.814               c-0.237-1.202-0.382-2.541-0.732-3.714c-0.015-0.052-0.022-0.11-0.032-0.164               C66.991,361.921,65.967,362.121,66.141,363.006L66.141,363.006z" />
                        </g>
                      </g>
                      <g>
                        <g>
                          <path style="fill:#55C67E;" d="M63.178,366.064c0.545,7.049,1.408,14.12,2.353,21.151               c2.087,15.521,4.841,31.041,8.677,46.241c2.334,9.246,5.084,18.398,8.527,27.184c0.325,0.828,1.24,0.27,0.915-0.56               c-6.067-15.481-10.055-32.05-13.161-48.547c-2.376-12.617-4.221-25.344-5.565-38.072               c-0.254-2.408-0.501-4.818-0.687-7.227C64.168,365.35,63.109,365.172,63.178,366.064L63.178,366.064z" />
                        </g>
                      </g>
                      <g>
                        <g>
                          <path style="fill:#55C67E;" d="M70.463,365.007c2.151,6.66,4.011,13.464,5.787,20.259               c3.909,14.96,7.212,30.165,9.428,45.484c1.369,9.461,2.31,18.987,2.461,28.445c0.014,0.889,1.074,1.061,1.059,0.17               c-0.267-16.678-2.859-33.584-6.253-50.078c-2.615-12.711-5.774-25.322-9.409-37.737               c-0.695-2.376-1.399-4.753-2.158-7.103C71.103,363.597,70.19,364.161,70.463,365.007L70.463,365.007z" />
                        </g>
                      </g>
                    </g>
                  </g>
                  <g style="opacity:0.25;">
                    <path style="fill:#FFFFFF;" d="M62.194,377.478c-1.897,10.206,0.624,27.475,3.257,40.868            c0.344-0.005,0.687-0.037,1.027-0.105c5.896-1.163,8.853-11.343,6.605-22.739C71.319,386.56,66.875,379.53,62.194,377.478            z" />
                  </g>
                </g>
                <g style="opacity:0.55;">
                  <path style="fill:#55C67E;" d="M68.057,368.951l-0.005-0.027c-0.069,0.014-0.133,0.038-0.201,0.054           c-0.069,0.011-0.137,0.013-0.206,0.027l0.005,0.027c-1.951,0.541-3.351,2.118-4.319,4.438           c14.138-1.622,22.574,54.052,23.824,62.9l4.912-3.339C92.068,433.031,83.429,367.116,68.057,368.951z" />
                </g>
              </g>
              <g>
                <path style="fill:#152F47;" d="M81.324,440.939l-0.116-0.59l-11.843-2.494l-0.079-0.298          c-0.694-2.617-16.669-63.561-2.212-68.865l-0.011-0.055l1.382-0.301l0.016,0.081c15.387-0.583,23.751,61.862,24.103,64.547          l0.04,0.306l-10.008,6.804l0.116,0.589l-0.752-0.157L81.324,440.939z M70.175,437.003l11.575,2.437l0.01-0.007l9.771-6.643          c-0.318-2.326-2.464-17.539-6.191-32.374c-5.269-20.976-11.225-31.685-17.224-30.969l-0.216,0.026l-0.116,0.04          c-5.822,1.615-7.265,13.784-4.175,35.19C65.795,419.842,69.586,434.731,70.175,437.003z" />
              </g>
            </g>
          </g>
          <g>
            <g>
              <g>
                <path style="fill:#FFFFFF;" d="M62.958,387.245c0.572,4.185,1.144,8.37,1.717,12.555c0.081,0.592,0.162,1.184,0.243,1.776          c0.104,0.763,1.29,0.602,1.185-0.162c-0.572-4.185-1.144-8.37-1.717-12.555c-0.081-0.592-0.162-1.184-0.243-1.776          C64.039,386.321,62.853,386.481,62.958,387.245L62.958,387.245z" />
              </g>
            </g>
            <g>
              <path style="fill:#FFFFFF;" d="M66.347,403.685c0.04,0.292-0.164,0.56-0.456,0.6c-0.292,0.04-0.56-0.164-0.6-0.456         c-0.04-0.292,0.164-0.56,0.456-0.6C66.039,403.189,66.307,403.393,66.347,403.685z" />
            </g>
          </g>
        </g>
        <g>
          <g>
            <g>
              <g>
                <g>
                  <path style="fill:#FF81CE;" d="M94.959,349.786c0,0-5.912-4.564-3.899-6.307c2.014-1.742,5.498,3.153,5.498,3.153           s-2.494-8.795,1.615-8.048c4.109,0.747,2.035,6.886,1.62,7.798c0,0,3.733-5.724,5.724-3.152           c1.991,2.572-3.38,6.891-3.737,6.728L94.959,349.786z" />
                </g>
                <g>
                  <g>
                    <path style="fill:#F761C2;" d="M99.793,348.651c0,0,3.733-5.724,5.724-3.152c0.069,0.088,0.108,0.183,0.16,0.276            c0.366-0.893,0.421-1.793-0.16-2.543c-1.4-1.809-3.657,0.482-4.876,2.003C100.494,346.785,99.979,348.242,99.793,348.651z            " />
                  </g>
                  <g>
                    <path style="fill:#F761C2;" d="M96.558,348.901c0,0-0.395-1.408-0.611-3.046c-1.088-1.304-3.392-3.668-4.887-2.374            c-0.634,0.548-0.481,1.376,0.023,2.253C93.1,344.046,96.558,348.901,96.558,348.901z" />
                  </g>
                  <g>
                    <path style="fill:#F761C2;" d="M98.173,340.853c1.527,0.277,2.198,1.3,2.42,2.522c0.274-2.018,0.013-4.347-2.42-4.789            c-2.261-0.411-2.52,2.067-2.298,4.379C96.058,341.585,96.672,340.58,98.173,340.853z" />
                  </g>
                </g>
              </g>
              <g>
                <path style="fill:#152F47;" d="M101.768,350.459l-6.985-0.177l-0.129-0.101c-0.455-0.352-4.448-3.497-4.511-5.73          c-0.015-0.536,0.189-1.004,0.59-1.35c0.452-0.393,0.99-0.55,1.598-0.48c1.165,0.14,2.378,1.151,3.275,2.089          c-0.358-1.96-0.605-4.754,0.531-6.006c0.354-0.39,1.012-0.814,2.125-0.611c1.12,0.204,1.935,0.777,2.42,1.705          c0.639,1.222,0.573,2.861,0.316,4.244c0.91-0.974,2.079-1.929,3.197-1.974c0.67-0.052,1.263,0.269,1.718,0.856          c0.949,1.226,0.643,2.947-0.863,4.848c-0.3,0.378-2.333,2.663-3.282,2.679V350.459z M95.137,349.29l6.62,0.168          c0.553-0.255,3.019-2.292,3.591-4.221c0.204-0.686,0.13-1.242-0.226-1.701c-0.259-0.334-0.539-0.482-0.886-0.469          c-1.415,0.057-3.384,2.609-4.023,3.589l-0.874-0.48c0.271-0.598,1.444-4.03,0.458-5.914c-0.34-0.649-0.9-1.037-1.712-1.185          c-0.716-0.133-1.032,0.108-1.206,0.299c-1.16,1.277-0.276,5.573,0.162,7.12l0.786,2.775l-1.674-2.349          c-0.615-0.862-2.521-3.139-3.939-3.309c-0.325-0.04-0.587,0.038-0.824,0.243c-0.176,0.152-0.251,0.327-0.245,0.567          C91.178,345.717,93.558,348.047,95.137,349.29z" />
              </g>
            </g>
            <g>
              <g>
                <g>
                  <g>
                    <path style="fill:#76DD9F;" d="M98.451,349.122v-0.028c-0.095,0-0.185,0.011-0.278,0.014            c-0.093-0.003-0.184-0.014-0.278-0.014v0.028c-20.706,1.174-14.965,67.515-14.965,67.515l14.965,4.747v0.176l0.278-0.088            l0.278,0.088v-0.176l14.965-4.747C113.416,416.637,119.157,350.296,98.451,349.122z" />
                  </g>
                  <g>
                    <defs>
                      <path id="SVGID_00000026862236679365009600000016629055567934146970_" d="M98.451,349.122v-0.028             c-0.095,0-0.185,0.011-0.278,0.014c-0.093-0.003-0.184-0.014-0.278-0.014v0.028             c-20.706,1.174-14.965,67.515-14.965,67.515l14.965,4.747v0.176l0.278-0.088l0.278,0.088v-0.176l14.965-4.747             C113.416,416.637,119.157,350.296,98.451,349.122z" />
                    </defs>
                    <clipPath id="SVGID_00000147917632084571997020000003692961909458056348_">
                      <use ns1:href="#SVGID_00000026862236679365009600000016629055567934146970_" style="overflow:visible;" />
                    </clipPath>
                    <g style="clip-path:url(#SVGID_00000147917632084571997020000003692961909458056348_);">
                      <g>
                        <g>
                          <path style="fill:#55C67E;" d="M97.473,342.919c0,3.175,0,6.351,0,9.527c0,7.675,0,15.351,0,23.026               c0,9.245,0,18.489,0,27.734c0,8,0,16,0,23.999c0,2.655,0,5.309,0,7.964c0,1.225-0.157,2.567,0,3.785               c0.007,0.054,0,0.113,0,0.167c0,0.901,1.4,0.902,1.4,0c0-3.176,0-6.351,0-9.527c0-7.675,0-15.351,0-23.026               c0-9.245,0-18.489,0-27.734c0-8,0-15.999,0-23.999c0-2.655,0-5.309,0-7.964c0-1.225,0.157-2.567,0-3.785               c-0.007-0.054,0-0.112,0-0.167C98.873,342.018,97.473,342.017,97.473,342.919L97.473,342.919z" />
                        </g>
                      </g>
                      <g>
                        <g>
                          <path style="fill:#55C67E;" d="M92.779,345.346c-1.113,7.021-1.812,14.125-2.393,21.206               c-1.283,15.631-1.687,31.391-0.584,47.046c0.671,9.523,1.914,19.034,4.165,28.32c0.212,0.875,1.562,0.504,1.35-0.372               c-3.966-16.363-4.913-33.39-4.718-50.176c0.149-12.839,1.023-25.682,2.559-38.429c0.29-2.411,0.592-4.824,0.972-7.223               C94.269,344.837,92.92,344.457,92.779,345.346L92.779,345.346z" />
                        </g>
                      </g>
                      <g>
                        <g>
                          <path style="fill:#55C67E;" d="M102.641,345.718c1.102,6.951,1.784,13.986,2.357,20.996               c1.26,15.434,1.661,30.991,0.601,46.449c-0.655,9.548-1.889,19.075-4.145,28.384c-0.212,0.875,1.137,1.249,1.35,0.372               c3.978-16.415,4.955-33.502,4.771-50.341c-0.142-12.977-1.026-25.961-2.586-38.844               c-0.299-2.466-0.608-4.933-0.997-7.387C103.85,344.458,102.501,344.835,102.641,345.718L102.641,345.718z" />
                        </g>
                      </g>
                    </g>
                  </g>
                  <g style="opacity:0.25;">
                    <path style="fill:#FFFFFF;" d="M87.654,358.132c-4.952,11.119-5.645,30.166-5.416,43.501            c1.405,1.252,2.959,1.953,4.596,1.953c6.263,0,11.34-10.19,11.34-22.76C98.173,368.81,93.533,358.976,87.654,358.132z" />
                  </g>
                </g>
                <g style="opacity:0.55;">
                  <path style="fill:#55C67E;" d="M98.451,349.122v-0.028c-0.095,0-0.185,0.011-0.278,0.014           c-0.093-0.003-0.184-0.014-0.278-0.014v0.028c-2.708,0.154-4.96,1.43-6.835,3.518           c19.026,1.144,15.677,57.399,15.025,66.322l7.331-2.325C113.416,416.637,119.157,350.296,98.451,349.122z" />
                </g>
              </g>
              <g>
                <path style="fill:#152F47;" d="M97.395,422.243v-0.493l-14.935-4.737l-0.029-0.333c-0.011-0.124-1.072-12.608-0.619-26.66          c0.611-18.942,3.537-31.566,8.696-37.522c1.972-2.275,4.286-3.565,6.886-3.836v-0.039l0.5-0.027          c0.063,0,0.125,0.004,0.187,0.008l0.101,0.006l0.081-0.006c0.062-0.004,0.123-0.008,0.187-0.008h0.5v0.066          c2.6,0.271,4.914,1.561,6.886,3.836c5.159,5.955,8.085,18.58,8.696,37.522c0.453,14.052-0.608,26.536-0.619,26.66          l-0.029,0.333l-14.935,4.737v0.493l-0.778-0.246L97.395,422.243z M83.401,416.262l14.772,4.686l14.772-4.686          c0.341-4.359,3.593-49.886-7.864-63.11c-1.906-2.2-4.146-3.388-6.658-3.53l-0.345-0.018l-0.155,0.018          c-2.512,0.143-4.752,1.331-6.659,3.531C79.808,366.376,83.06,411.902,83.401,416.262z" />
              </g>
            </g>
          </g>
          <g>
            <g>
              <g>
                <path style="fill:#FFFFFF;" d="M88.626,360.444c-0.672,4.17-1.343,8.34-2.014,12.51c-0.095,0.59-0.19,1.18-0.285,1.769          c-0.122,0.76,1.058,0.951,1.181,0.19c0.671-4.17,1.343-8.34,2.014-12.51c0.095-0.59,0.19-1.18,0.285-1.769          C89.929,359.875,88.749,359.683,88.626,360.444L88.626,360.444z" />
              </g>
            </g>
            <g>
              <path style="fill:#FFFFFF;" d="M87.08,377.159c-0.047,0.291-0.32,0.488-0.611,0.441c-0.291-0.047-0.488-0.32-0.441-0.611         c0.047-0.291,0.32-0.488,0.611-0.441C86.93,376.595,87.127,376.868,87.08,377.159z" />
            </g>
          </g>
        </g>
        <g>
          <g>
            <g>
              <g>
                <g>
                  <path style="fill:#FF81CE;" d="M124.127,380.833c0,0-5.094-5.462-2.825-6.855c2.269-1.393,4.914,4.003,4.914,4.003           s-1.036-9.083,2.898-7.68c3.934,1.403,0.892,7.124,0.335,7.958c0,0,4.612-5.043,6.16-2.183           c1.548,2.86-4.452,6.252-4.778,6.033L124.127,380.833z" />
                </g>
                <g>
                  <g>
                    <path style="fill:#F761C2;" d="M129.081,380.496c0,0,4.612-5.044,6.16-2.183c0.053,0.098,0.077,0.199,0.113,0.298            c0.505-0.822,0.706-1.701,0.254-2.536c-1.088-2.012-3.687-0.117-5.136,1.186            C130.076,378.768,129.331,380.123,129.081,380.496z" />
                  </g>
                  <g>
                    <path style="fill:#F761C2;" d="M125.848,380.218c0,0-0.161-1.453-0.109-3.105c-0.863-1.463-2.752-4.169-4.438-3.135            c-0.714,0.438-0.698,1.28-0.342,2.227C123.224,374.867,125.848,380.218,125.848,380.218z" />
                  </g>
                  <g>
                    <path style="fill:#F761C2;" d="M128.747,372.539c1.462,0.521,1.958,1.639,1.979,2.88c0.598-1.947,0.717-4.288-1.611-5.118            c-2.165-0.772-2.821,1.631-2.977,3.949C126.54,372.918,127.31,372.026,128.747,372.539z" />
                  </g>
                </g>
              </g>
              <g>
                <path style="fill:#152F47;" d="M130.737,382.601l-6.864-1.307l-0.111-0.12c-0.392-0.421-3.823-4.172-3.522-6.385          c0.072-0.532,0.349-0.96,0.801-1.237c0.51-0.314,1.067-0.382,1.655-0.215c1.126,0.327,2.16,1.522,2.893,2.592          c-0.035-1.992,0.174-4.79,1.498-5.84c0.413-0.329,1.13-0.64,2.196-0.259c1.072,0.383,1.783,1.081,2.112,2.075          c0.433,1.309,0.102,2.916-0.376,4.239c1.055-0.813,2.364-1.566,3.474-1.429c0.673,0.066,1.202,0.47,1.557,1.124          c0.736,1.361,0.158,3.007-1.628,4.635c-0.599,0.547-2.797,2.246-3.682,2.12L130.737,382.601z M124.383,380.372l6.505,1.239          c0.588-0.163,3.352-1.773,4.229-3.584c0.312-0.644,0.328-1.204,0.053-1.714c-0.201-0.371-0.454-0.567-0.799-0.606          c-1.406-0.173-3.762,2.026-4.552,2.889l-0.785-0.616c0.365-0.546,2.078-3.743,1.41-5.762          c-0.23-0.696-0.72-1.169-1.498-1.446c-0.685-0.245-1.037-0.06-1.239,0.099c-1.202,0.954-1.248,4.832-0.994,7.052          l0.327,2.869l-1.273-2.592c-0.467-0.951-1.979-3.506-3.351-3.903c-0.315-0.091-0.585-0.057-0.853,0.106          c-0.199,0.122-0.301,0.282-0.334,0.52C121.056,376.205,123.027,378.89,124.383,380.372z" />
              </g>
            </g>
            <g>
              <g>
                <g>
                  <g>
                    <g>
                      <path style="fill:#76DD9F;" d="M127.56,379.214l0.005-0.027c-0.07-0.011-0.138-0.011-0.207-0.02             c-0.068-0.014-0.133-0.036-0.202-0.047l-0.005,0.027c-15.423-1.344-21.952,64.814-21.952,64.814l10.24,6.493             l-0.029,0.174l0.219-0.053l0.19,0.121l0.029-0.174l11.779-2.876C127.627,447.645,142.602,382.875,127.56,379.214z" />
                    </g>
                    <g>
                      <defs>
                        <path id="SVGID_00000018916848260994955170000003789820867263170480_" d="M127.56,379.214l0.005-0.027              c-0.07-0.011-0.138-0.011-0.207-0.02c-0.068-0.014-0.133-0.036-0.202-0.047l-0.005,0.027              c-15.423-1.344-21.952,64.814-21.952,64.814l10.24,6.493l-0.029,0.174l0.219-0.053l0.19,0.121l0.029-0.174l11.779-2.876              C127.627,447.645,142.602,382.875,127.56,379.214z" />
                      </defs>
                      <clipPath id="SVGID_00000031929132490636053600000010413558535739530632_">
                        <use ns1:href="#SVGID_00000018916848260994955170000003789820867263170480_" style="overflow:visible;" />
                      </clipPath>
                      <g style="clip-path:url(#SVGID_00000031929132490636053600000010413558535739530632_);">
                        <g>
                          <g>
                            <path style="fill:#55C67E;" d="M127.846,372.974c-0.515,3.134-1.029,6.267-1.544,9.401                c-1.244,7.574-2.488,15.148-3.732,22.722c-1.498,9.122-2.997,18.245-4.495,27.367                c-1.297,7.894-2.593,15.788-3.89,23.682c-0.43,2.62-0.861,5.239-1.291,7.859c-0.199,1.209-0.531,2.514-0.614,3.735                c-0.004,0.054-0.018,0.111-0.027,0.165c-0.146,0.889,0.883,1.059,1.03,0.169c0.515-3.133,1.029-6.267,1.544-9.401                c1.244-7.574,2.488-15.148,3.732-22.722c1.498-9.122,2.997-18.245,4.495-27.367c1.297-7.894,2.593-15.788,3.89-23.682                c0.43-2.62,0.86-5.239,1.291-7.859c0.199-1.209,0.532-2.514,0.614-3.735c0.004-0.054,0.018-0.111,0.027-0.165                C129.022,372.255,127.993,372.084,127.846,372.974L127.846,372.974z" />
                          </g>
                        </g>
                        <g>
                          <g>
                            <path style="fill:#55C67E;" d="M124,374.802c-1.957,6.794-3.623,13.72-5.198,20.637                c-3.478,15.27-6.329,30.772-8.055,46.353c-1.05,9.478-1.677,19.014-1.526,28.449c0.014,0.889,1.068,0.686,1.053-0.204                c-0.265-16.626,1.798-33.543,4.661-50.083c2.19-12.651,4.916-25.219,8.111-37.612c0.604-2.344,1.217-4.689,1.886-7.01                C125.178,374.48,124.247,373.942,124,374.802L124,374.802z" />
                          </g>
                        </g>
                        <g>
                          <g>
                            <path style="fill:#55C67E;" d="M131.194,376.361c-0.316,6.992-0.954,14.016-1.669,21.003                c-1.574,15.382-3.801,30.782-7.087,45.907c-2.029,9.342-4.481,18.595-7.65,27.508c-0.298,0.838,0.634,1.37,0.933,0.53                c5.587-15.717,9.075-32.461,11.669-49.099c1.999-12.823,3.453-25.741,4.393-38.643c0.18-2.469,0.353-4.942,0.464-7.41                C132.288,375.264,131.235,375.473,131.194,376.361L131.194,376.361z" />
                          </g>
                        </g>
                      </g>
                    </g>
                  </g>
                  <g style="opacity:0.25;">
                    <path style="fill:#FFFFFF;" d="M115.333,393.295c-4.263,11.594-7.087,27.799-8.647,38.737            c0.409,0.138,0.829,0.246,1.261,0.317c6.785,1.115,13.73-6.776,15.512-17.625            C125.157,404.386,121.548,395.111,115.333,393.295z" />
                  </g>
                </g>
                <g style="opacity:0.55;">
                  <path style="fill:#55C67E;" d="M127.56,379.214l0.005-0.027c-0.07-0.011-0.138-0.011-0.207-0.02           c-0.068-0.014-0.133-0.036-0.202-0.047l-0.005,0.027c-2.017-0.176-3.881,0.812-5.599,2.646           c13.812,3.428,2.229,58.534,0.304,67.26l5.77-1.409C127.627,447.645,142.602,382.875,127.56,379.214z" />
                </g>
              </g>
              <g>
                <path style="fill:#152F47;" d="M114.794,451.292l0.097-0.594l-10.221-6.481l0.03-0.307          c0.266-2.695,6.631-65.375,22.029-65.284l0.009-0.055l0.498,0.054c0.053,0.009,0.105,0.021,0.156,0.034          c0.146,0.019,0.199,0.024,0.253,0.033l0.493,0.081l-0.013,0.082c14.618,4.84,0.598,66.262-0.012,68.9l-0.07,0.3          l-11.756,2.871l-0.097,0.593l-0.65-0.41L114.794,451.292z M105.728,443.704l9.989,6.334l0.012-0.003l11.478-2.803          c0.517-2.29,3.83-17.292,5.531-32.493c2.405-21.494,0.574-33.61-5.296-35.039l-0.214-0.052l-0.12-0.003          c-6.02-0.525-11.631,10.372-16.228,31.511C107.63,426.102,105.971,441.368,105.728,443.704z" />
              </g>
            </g>
          </g>
          <g>
            <g>
              <g>
                <path style="fill:#FFFFFF;" d="M115.259,398.746c-0.837,4.14-1.674,8.28-2.512,12.42c-0.118,0.586-0.237,1.171-0.355,1.757          c-0.153,0.755,1.02,0.993,1.173,0.237c0.837-4.14,1.674-8.28,2.512-12.42c0.118-0.586,0.237-1.171,0.355-1.757          C116.584,398.229,115.412,397.991,115.259,398.746L115.259,398.746z" />
              </g>
            </g>
            <g>
              <path style="fill:#FFFFFF;" d="M113.048,415.386c-0.058,0.288-0.34,0.475-0.628,0.417c-0.288-0.058-0.475-0.34-0.417-0.628         c0.058-0.289,0.34-0.475,0.628-0.417C112.92,414.816,113.106,415.097,113.048,415.386z" />
            </g>
          </g>
        </g>
      </g>
      <g>
        <g>
          <path style="fill:#FFC9E2;" d="M98.391,421.114c0,0-32.726-1.495-43.862-6.72c0,0,1.407,34.201,3.479,40.264       c2.071,6.062,8.524,10.869,40.383,10.869c31.859,0,38.311-4.807,40.383-10.869c2.072-6.062,3.479-40.264,3.479-40.264       C131.116,419.62,98.391,421.114,98.391,421.114z" />
        </g>
        <g>
          <path style="fill:#F4C1DD;" d="M130.263,417.728c-0.546,10.45-1.668,28.384-3.114,32.616       c-2.071,6.062-8.524,10.869-40.383,10.869c-11.35,0-19.463-0.613-25.314-1.672c4.538,3.568,14.348,5.986,36.939,5.986       c31.859,0,38.311-4.807,40.383-10.869c2.072-6.063,3.479-40.264,3.479-40.264C139.382,415.741,135.073,416.838,130.263,417.728       z" />
        </g>
        <g>
          <path style="fill:#152F47;" d="M98.391,466.026c-30.73,0-38.558-4.48-40.856-11.207c-2.071-6.061-3.448-39.006-3.505-40.405       l-0.034-0.823l0.746,0.35c10.797,5.066,42.625,6.625,43.649,6.673c1.025-0.048,32.853-1.607,43.649-6.673l0.746-0.35       l-0.034,0.823c-0.058,1.399-1.434,34.344-3.505,40.405C136.948,461.546,129.121,466.026,98.391,466.026z M55.063,415.178       c0.23,5.199,1.569,33.906,3.418,39.317c1.741,5.096,6.404,10.531,39.91,10.531c33.505,0,38.168-5.436,39.91-10.531       c1.849-5.411,3.189-34.118,3.418-39.317c-11.703,4.94-41.994,6.376-43.305,6.436l-0.023,0.002l-0.023-0.002       C97.057,421.554,66.767,420.118,55.063,415.178z" />
        </g>
        <path style="opacity:0.25;fill:#FFFFFF;" d="M98.613,421.103c-0.132,0.007-0.222,0.011-0.222,0.011s-32.726-1.495-43.862-6.72      c0,0,1.023,24.831,2.607,35.924C77.805,447.568,94.205,435.961,98.613,421.103z" />
      </g>
      <g>
        <g>
          <g>
            <path style="fill:#FFC9E2;" d="M146.48,409.885c-0.339-4.854-3.951-6.434-6.773-5.08c-2.822,1.355-20.319,7.45-41.316,7.45        c-20.996,0-38.493-6.096-41.316-7.45c-2.822-1.355-6.434,0.226-6.773,5.08c-0.339,4.854,3.725,6.209,3.725,6.209        c17.271,8.241,44.363,8.353,44.363,8.353s27.092-0.113,44.363-8.353C142.754,416.094,146.818,414.739,146.48,409.885z" />
          </g>
          <g>
            <path style="fill:#F2A7CD;" d="M146.317,408.729c-0.738,3.138-3.563,4.091-3.563,4.091        c-17.271,8.241-44.363,8.353-44.363,8.353s-27.092-0.113-44.363-8.353c0,0-2.825-0.953-3.563-4.091        c-0.073,0.365-0.133,0.744-0.162,1.156c-0.339,4.854,3.725,6.209,3.725,6.209c17.271,8.241,44.363,8.353,44.363,8.353        s27.092-0.113,44.363-8.353c0,0,4.064-1.355,3.725-6.209C146.451,409.474,146.391,409.094,146.317,408.729z" />
          </g>
        </g>
        <g>
          <path style="fill:#152F47;" d="M98.393,424.947c-0.276-0.001-27.407-0.209-44.581-8.402l0,0c-0.011,0-4.369-1.527-4.009-6.695       c0.174-2.485,1.191-4.39,2.863-5.362c1.387-0.808,3.116-0.856,4.626-0.133c2.536,1.218,19.882,7.401,41.099,7.401       c21.214,0,38.562-6.184,41.099-7.401c1.509-0.722,3.239-0.674,4.626,0.133c1.672,0.973,2.689,2.877,2.862,5.362       c0.361,5.182-4.021,6.704-4.066,6.719C125.796,424.738,98.665,424.946,98.393,424.947z M55.072,404.838       c-0.664,0-1.315,0.172-1.903,0.514c-1.377,0.801-2.218,2.424-2.368,4.568c-0.307,4.393,3.235,5.648,3.386,5.7       c17.029,8.121,43.936,8.326,44.206,8.327c0.266-0.001,27.176-0.208,44.146-8.305c0.206-0.074,3.748-1.33,3.441-5.723l0,0       c-0.149-2.145-0.99-3.767-2.367-4.568c-1.117-0.65-2.462-0.685-3.69-0.095c-2.57,1.233-20.129,7.499-41.532,7.499       c-21.405,0-38.962-6.266-41.532-7.499C56.277,404.978,55.669,404.838,55.072,404.838z" />
        </g>
      </g>
      <g>
        <g>
          <g>
            <path style="fill:#FFFFFF;" d="M57.917,425.077c0.365,4.208,0.731,8.416,1.097,12.624c0.052,0.595,0.103,1.19,0.155,1.785        c0.067,0.767,1.258,0.664,1.192-0.104c-0.365-4.208-0.731-8.416-1.097-12.624c-0.052-0.595-0.103-1.19-0.155-1.785        C59.042,424.207,57.851,424.309,57.917,425.077L57.917,425.077z" />
          </g>
        </g>
        <g>
          <path style="fill:#FFFFFF;" d="M60.493,441.664c0.026,0.293-0.192,0.552-0.485,0.577c-0.293,0.025-0.551-0.192-0.577-0.485       c-0.025-0.293,0.192-0.552,0.485-0.577C60.21,441.154,60.468,441.371,60.493,441.664z" />
        </g>
      </g>
    </g>
    <g>
      <g>
        <g>
          <g>
            <path style="fill:#152F47;" d="M105.243,446.593c-2.639-0.175-10.359-0.175-13.704,0c0,0-0.311,5.835,6.852,5.835        C105.555,452.428,105.243,446.593,105.243,446.593z" />
          </g>
          <g>
            <path style="fill:#FF81CE;" d="M98.39,452.428c1.873,0,3.223-0.402,4.214-0.991c-0.786-1.166-2.375-1.967-4.214-1.967        c-1.836,0-3.425,0.801-4.212,1.967C95.168,452.026,96.519,452.428,98.39,452.428z" />
          </g>
        </g>
        <g>
          <g>
            <g>
              <g>
                <path style="fill:#152F47;" d="M80.029,444.927c0.006-1.546,0.187-3.092,0.652-4.57c0.323-1.025,0.799-2.147,1.644-2.856          c0.596-0.5,1.24-0.57,1.874-0.167c0.849,0.539,1.361,1.6,1.696,2.509c0.599,1.624,0.821,3.36,0.828,5.084          c0.003,0.77,1.199,0.771,1.196,0c-0.007-1.763-0.225-3.564-0.81-5.234c-0.427-1.219-1.052-2.472-2.114-3.258          c-0.875-0.647-1.997-0.739-2.948-0.194c-1.093,0.628-1.759,1.828-2.217,2.958c-0.732,1.802-0.989,3.794-0.997,5.728          C78.83,445.697,80.026,445.698,80.029,444.927L80.029,444.927z" />
              </g>
            </g>
          </g>
          <g>
            <g>
              <g>
                <path style="fill:#152F47;" d="M110.059,444.927c0.006-1.546,0.187-3.092,0.653-4.57c0.323-1.025,0.799-2.147,1.644-2.856          c0.596-0.5,1.24-0.57,1.874-0.167c0.849,0.539,1.362,1.6,1.697,2.509c0.599,1.624,0.821,3.36,0.828,5.084          c0.003,0.77,1.199,0.771,1.196,0c-0.007-1.763-0.225-3.564-0.81-5.234c-0.427-1.219-1.052-2.472-2.114-3.258          c-0.875-0.647-1.997-0.739-2.948-0.194c-1.093,0.628-1.759,1.828-2.217,2.958c-0.732,1.802-0.989,3.794-0.997,5.728          C108.86,445.697,110.056,445.698,110.059,444.927L110.059,444.927z" />
              </g>
            </g>
          </g>
        </g>
      </g>
      <g>
        <g>
          <path style="fill:#FF81CE;" d="M84.605,447.269c-0.304,0.798-2.401,0.738-4.684-0.133c-2.283-0.871-3.886-2.223-3.582-3.021       c0.304-0.798,2.401-0.738,4.684,0.133C83.306,445.119,84.909,446.471,84.605,447.269z" />
        </g>
        <g>
          <path style="fill:#FF81CE;" d="M112.177,447.269c0.304,0.798,2.401,0.738,4.684-0.133c2.282-0.871,3.886-2.223,3.582-3.021       c-0.304-0.798-2.401-0.738-4.684,0.133C113.476,445.119,111.873,446.471,112.177,447.269z" />
        </g>
      </g>
    </g>
  </g>
</svg>