<?xml version='1.0' encoding='utf-8'?>
<svg xmlns="http://www.w3.org/2000/svg" xmlns:ns1="http://www.w3.org/1999/xlink" version="1.1" viewBox="-72.755 -101.975 233.553 299.44" width="233.553" height="299.44">
  <g>
    <g>
      <g>
        <g>
          <g>
            <g>
              <g>
                <g>
                  <path style="fill:#F8E5E5;" d="M102.871,108.811h-8.959H53.414c0,0,11.652,58.921,14.088,62.576           c2.436,3.654,3.873,5.481,13.051,5.481h13.359h8.959h13.359c9.177,0,10.615-1.827,13.051-5.481           c2.436-3.654,14.088-62.576,14.088-62.576H102.871z" />
                </g>
                <g>
                  <defs>
                    <path id="SVGID_1_" d="M102.871,108.811h-8.959H53.414c0,0,11.652,58.921,14.088,62.576            c2.436,3.654,3.873,5.481,13.051,5.481h13.359h8.959h13.359c9.177,0,10.615-1.827,13.051-5.481            c2.436-3.654,14.088-62.576,14.088-62.576H102.871z" />
                  </defs>
                  <clipPath id="SVGID_00000112613058438806993910000014678118631458861702_">
                    <use ns1:href="#SVGID_1_" style="overflow:visible;" />
                  </clipPath>
                  <g style="clip-path:url(#SVGID_00000112613058438806993910000014678118631458861702_);">
                    <g>
                      <g>
                        <path style="fill:#F7B0DE;" d="M91.719,186.443c-12.434-17.866-15.182-88.78-15.293-91.79l4.782-0.177              c0.027,0.723,2.801,72.513,14.438,89.234L91.719,186.443z" />
                      </g>
                    </g>
                    <g>
                      <g>
                        <g>
                          <path style="fill:#F7B0DE;" d="M84.05,187.465c-17.684-8.372-23.803-83.443-24.443-91.975l4.772-0.358               c2.43,32.394,10.219,82.565,21.719,88.008L84.05,187.465z" />
                        </g>
                      </g>
                      <g>
                        <g>
                          <path style="fill:#F7B0DE;" d="M112.585,187.465l-2.047-4.325c11.499-5.444,19.289-55.614,21.718-88.008l4.772,0.358               C136.389,104.021,130.269,179.093,112.585,187.465z" />
                        </g>
                      </g>
                      <g>
                        <g>
                          <path style="fill:#F7B0DE;" d="M104.916,186.443l-3.927-2.733c11.64-16.724,14.411-88.511,14.439-89.234l4.781,0.176               C120.099,97.663,117.351,168.578,104.916,186.443z" />
                        </g>
                      </g>
                      <g>
                        <g>
                          <rect x="95.998" y="95.828" style="fill:#F7B0DE;" width="4.785" height="91.393" />
                        </g>
                      </g>
                    </g>
                  </g>
                </g>
                <g style="opacity:0.25;">
                  <path style="fill:#FFFFFF;" d="M93.911,108.812H53.414c0,0,4.065,20.556,7.895,38.138           c3.511,1.187,7.304,1.835,11.261,1.835c18.078,0,32.733-13.523,32.733-30.204c0-3.42-0.625-6.704-1.76-9.769h-0.672H93.911           z" />
                </g>
              </g>
              <g style="opacity:0.1;">
                <path style="fill:#C1422D;" d="M126.769,108.811c2.546,5.848,3.967,12.298,3.967,19.083          c0,26.43-21.426,47.857-47.857,47.857c-4.729,0-9.293-0.697-13.607-1.974c1.863,2.06,4.39,3.091,11.281,3.091h13.359h8.959          h13.359c9.177,0,10.615-1.827,13.051-5.481c2.436-3.654,14.088-62.576,14.088-62.576H126.769z" />
              </g>
            </g>
            <g>
              <path style="fill:#152F47;" d="M116.229,177.368H80.552c-9.254,0-10.899-1.852-13.467-5.704         c-2.462-3.694-13.686-60.346-14.162-62.755l-0.118-0.597h91.172l-0.118,0.597c-0.477,2.41-11.7,59.062-14.163,62.755         C127.128,175.516,125.483,177.368,116.229,177.368z M54.022,109.312c4.062,20.506,12.03,59,13.895,61.798         c2.26,3.391,3.505,5.258,12.635,5.258h35.677c9.129,0,10.375-1.868,12.635-5.258c1.865-2.797,9.833-41.292,13.895-61.798         H54.022z" />
            </g>
          </g>
          <g>
            <g>
              <g>
                <g>
                  <path style="fill:#F6F0CD;" d="M141.766,88.535c-0.259,0-0.512,0.023-0.763,0.056c0.84-0.934,1.356-2.166,1.356-3.521           c0-2.913-2.361-5.274-5.274-5.274c-1.508,0-2.865,0.636-3.826,1.651c-0.483-0.56-0.782-0.904-0.782-0.904l-3.748-3.04           c0.482-0.796,0.764-1.726,0.764-2.724c0-2.913-2.361-5.274-5.274-5.274c-0.831,0-1.614,0.198-2.313,0.54           c-0.488-1.417-1.69-2.497-3.188-2.785c0.147-0.485,0.228-0.998,0.228-1.531c0-2.913-2.361-5.274-5.274-5.274           c-1.98,0-3.702,1.092-4.604,2.705c-0.765-0.431-1.646-0.68-2.586-0.68c-1.482,0-2.819,0.613-3.777,1.597           c-0.644-1.521-2.151-2.589-3.907-2.589c-1.112,0-2.116,0.437-2.872,1.138c-0.805-1.883-2.674-3.203-4.851-3.203           c-2.913,0-5.274,2.361-5.274,5.274c0,0.453,0.063,0.889,0.17,1.308c-0.458-0.169-0.947-0.275-1.464-0.275           c-2.095,0-3.825,1.523-4.169,3.52c-0.555-0.198-1.15-0.312-1.773-0.312c-2.696,0-4.916,2.024-5.232,4.635           c-0.701-0.345-1.488-0.544-2.323-0.544c-2.913,0-5.274,2.361-5.274,5.274c0,0.625,0.114,1.222,0.314,1.778           c-2.123,0.131-3.81,1.811-3.953,3.931c-0.681-0.278-1.426-0.434-2.207-0.434c-3.229,0-5.846,2.617-5.846,5.846           c0,0.618,0.097,1.213,0.275,1.772c-0.248-0.046-0.501-0.077-0.762-0.077c-2.293,0-4.151,1.858-4.151,4.151           c0,2.293,1.859,4.151,4.151,4.151c1.002,0,1.908-0.369,2.625-0.96c0.804,1.885,2.674,3.206,4.853,3.206           c34.436,9.618,80.733-1.492,80.733-1.492c3.214,0,5.819-2.605,5.819-5.819C147.584,91.141,144.979,88.535,141.766,88.535z" />
                </g>
                <g>
                  <g>
                    <path style="fill:#EADA8F;" d="M64.609,92.475c-0.415,0.165-0.789,0.416-1.119,0.705            c-0.092,0.084-0.178,0.167-0.261,0.252c-0.088-0.051-0.169-0.11-0.259-0.158c-0.361-0.135-0.691-0.332-1.088-0.398            c-0.75-0.228-1.6-0.202-2.366-0.009c-0.772,0.202-1.465,0.611-1.979,1.149c-0.52,0.525-0.913,1.155-1.084,1.85            c1.179-0.76,2.311-1.249,3.374-1.294c0.529-0.02,1.04,0.015,1.556,0.181c0.518,0.133,1.027,0.386,1.556,0.638l0.976,0.465            l0.331-0.824c0.085-0.212,0.26-0.528,0.425-0.774c0.172-0.261,0.369-0.497,0.585-0.725            c0.441-0.442,1.024-0.767,1.82-0.924c-0.338-0.194-0.745-0.365-1.176-0.365C65.47,92.218,65.017,92.3,64.609,92.475z" />
                  </g>
                  <g>
                    <path style="fill:#EADA8F;" d="M70.137,87.36c0.12,0.114,0.205,0.283,0.319,0.409c0.097,0.149,0.186,0.309,0.29,0.455            l1.029,1.445l0.716-1.628c0.121-0.276,0.341-0.686,0.561-0.992c0.228-0.324,0.487-0.612,0.786-0.869            c0.302-0.246,0.642-0.497,1.06-0.654c0.411-0.204,0.88-0.29,1.408-0.44c-0.444-0.299-0.967-0.497-1.535-0.549            c-0.565-0.059-1.176,0.03-1.725,0.276c-0.556,0.234-1.051,0.605-1.448,1.045c-0.065,0.075-0.124,0.151-0.185,0.226            c-0.017-0.014-0.029-0.032-0.047-0.045c-0.406-0.353-0.929-0.595-1.451-0.732c-1.07-0.253-2.165,0.05-2.838,0.738            c0.948,0.035,1.737,0.239,2.306,0.639C69.667,86.883,69.921,87.09,70.137,87.36z" />
                  </g>
                  <g>
                    <path style="fill:#EADA8F;" d="M77.56,97.803c-0.481-0.337-1.154-0.499-1.769-0.41c-0.617,0.079-1.157,0.331-1.629,0.63            c-0.082,0.054-0.149,0.115-0.226,0.171c-0.076-0.101-0.153-0.201-0.242-0.295c-0.398-0.457-0.929-0.816-1.491-1.006            c-0.559-0.204-1.143-0.238-1.681-0.181c-0.54,0.084-1.054,0.238-1.487,0.549c1.013,0.216,1.877,0.525,2.482,1.003            c0.614,0.456,0.952,1.068,1.232,1.8l0.613,1.605l1.072-1.322c0.214-0.264,0.533-0.586,0.819-0.836            c0.295-0.257,0.6-0.485,0.911-0.637c0.309-0.145,0.633-0.242,1.022-0.197c0.408,0.007,0.811,0.231,1.292,0.445            C78.323,98.639,78.055,98.142,77.56,97.803z" />
                  </g>
                  <g>
                    <path style="fill:#EADA8F;" d="M83.177,89.153c-0.277-0.016-0.569,0.037-0.831,0.149c-0.267,0.106-0.508,0.268-0.72,0.453            c-0.059,0.054-0.109,0.111-0.163,0.165c-0.058-0.034-0.112-0.073-0.172-0.105c-0.232-0.087-0.444-0.214-0.7-0.256            c-0.482-0.147-1.029-0.13-1.522-0.006c-0.496,0.13-0.942,0.393-1.273,0.739c-0.335,0.338-0.587,0.743-0.697,1.19            c0.758-0.489,1.487-0.804,2.17-0.832c0.34-0.013,0.669,0.01,1.001,0.117c0.333,0.086,0.66,0.248,1.001,0.41l0.628,0.299            l0.213-0.53c0.055-0.136,0.167-0.339,0.273-0.498c0.111-0.168,0.237-0.32,0.377-0.466c0.284-0.284,0.659-0.493,1.17-0.595            C83.716,89.263,83.454,89.154,83.177,89.153z" />
                  </g>
                  <g>
                    <path style="fill:#EADA8F;" d="M85.118,77.413c-0.446-0.037-0.892,0.022-1.316,0.134c-0.119,0.034-0.234,0.071-0.346,0.11            c-0.056-0.085-0.102-0.174-0.162-0.257c-0.263-0.281-0.471-0.604-0.798-0.84c-0.57-0.538-1.344-0.892-2.116-1.059            c-0.781-0.162-1.584-0.104-2.283,0.15c-0.7,0.239-1.331,0.63-1.793,1.176c1.394-0.157,2.626-0.092,3.598,0.34            c0.483,0.217,0.924,0.476,1.313,0.854c0.405,0.349,0.748,0.802,1.111,1.263l0.668,0.85l0.663-0.591            c0.17-0.152,0.468-0.357,0.725-0.505c0.27-0.157,0.551-0.282,0.847-0.389c0.591-0.2,1.258-0.232,2.041-0.02            c-0.217-0.324-0.505-0.658-0.891-0.85C86.004,77.566,85.561,77.438,85.118,77.413z" />
                  </g>
                  <g>
                    <path style="fill:#EADA8F;" d="M90.703,72.273c0.099,0.133,0.154,0.313,0.245,0.456c0.07,0.164,0.132,0.336,0.209,0.498            l0.771,1.597l0.979-1.484c0.166-0.252,0.451-0.619,0.72-0.884c0.279-0.281,0.584-0.521,0.921-0.724            c0.339-0.192,0.717-0.382,1.154-0.467c0.44-0.132,0.916-0.137,1.462-0.197c-0.388-0.37-0.87-0.653-1.421-0.8            c-0.547-0.153-1.164-0.168-1.746-0.018c-0.588,0.137-1.138,0.42-1.603,0.786c-0.077,0.063-0.148,0.128-0.22,0.192            c-0.014-0.017-0.023-0.036-0.038-0.052c-0.341-0.417-0.816-0.743-1.307-0.966c-1.013-0.43-2.143-0.315-2.922,0.25            c0.929,0.194,1.672,0.528,2.166,1.018C90.321,71.724,90.536,71.97,90.703,72.273z" />
                  </g>
                  <g>
                    <path style="fill:#EADA8F;" d="M97.015,84.67c-0.481-0.337-1.154-0.499-1.769-0.41c-0.617,0.079-1.157,0.331-1.629,0.63            c-0.082,0.054-0.149,0.115-0.226,0.171c-0.076-0.101-0.153-0.201-0.242-0.295c-0.398-0.457-0.929-0.816-1.491-1.006            c-0.559-0.204-1.143-0.238-1.681-0.181c-0.54,0.084-1.055,0.238-1.487,0.549c1.013,0.216,1.877,0.525,2.482,1.003            c0.614,0.456,0.952,1.068,1.231,1.8l0.613,1.605l1.072-1.322c0.214-0.264,0.533-0.586,0.819-0.836            c0.295-0.257,0.6-0.485,0.911-0.637c0.309-0.145,0.633-0.242,1.022-0.197c0.408,0.007,0.811,0.231,1.292,0.445            C97.778,85.505,97.51,85.008,97.015,84.67z" />
                  </g>
                  <g>
                    <path style="fill:#EADA8F;" d="M92.38,96.689c-0.277-0.016-0.569,0.037-0.831,0.149c-0.267,0.106-0.508,0.268-0.72,0.453            c-0.059,0.054-0.109,0.11-0.163,0.165c-0.058-0.034-0.112-0.073-0.172-0.105c-0.232-0.087-0.444-0.214-0.7-0.256            c-0.482-0.147-1.029-0.13-1.522-0.006c-0.496,0.13-0.942,0.393-1.273,0.739c-0.335,0.338-0.587,0.743-0.697,1.19            c0.758-0.489,1.487-0.804,2.17-0.832c0.34-0.013,0.668,0.01,1.001,0.117c0.333,0.085,0.66,0.248,1.001,0.41l0.628,0.299            l0.213-0.53c0.055-0.136,0.167-0.339,0.273-0.498c0.11-0.168,0.237-0.32,0.377-0.466c0.284-0.284,0.659-0.493,1.17-0.595            C92.919,96.8,92.657,96.69,92.38,96.689z" />
                  </g>
                  <g>
                    <path style="fill:#EADA8F;" d="M104.547,75.084c-0.277-0.016-0.569,0.037-0.831,0.15c-0.267,0.106-0.508,0.268-0.72,0.453            c-0.059,0.054-0.109,0.11-0.163,0.165c-0.058-0.034-0.112-0.073-0.172-0.105c-0.232-0.087-0.444-0.214-0.7-0.256            c-0.482-0.147-1.029-0.13-1.522-0.006c-0.496,0.13-0.942,0.393-1.273,0.739c-0.335,0.338-0.587,0.743-0.697,1.19            c0.758-0.489,1.487-0.803,2.17-0.832c0.34-0.013,0.669,0.01,1.001,0.117c0.333,0.086,0.66,0.248,1.001,0.41l0.628,0.299            l0.213-0.53c0.055-0.136,0.167-0.339,0.273-0.498c0.11-0.168,0.237-0.32,0.377-0.466c0.284-0.284,0.659-0.493,1.17-0.595            C105.086,75.195,104.824,75.085,104.547,75.084z" />
                  </g>
                  <g>
                    <path style="fill:#EADA8F;" d="M110.017,98.716c-0.445-0.037-0.892,0.022-1.316,0.134            c-0.119,0.034-0.234,0.071-0.346,0.109c-0.056-0.085-0.102-0.174-0.162-0.257c-0.263-0.281-0.471-0.604-0.798-0.84            c-0.57-0.538-1.344-0.892-2.115-1.06c-0.781-0.162-1.584-0.104-2.283,0.15c-0.7,0.239-1.331,0.63-1.793,1.176            c1.394-0.157,2.626-0.092,3.598,0.34c0.483,0.217,0.924,0.476,1.313,0.854c0.405,0.349,0.748,0.802,1.111,1.263            l0.668,0.85l0.663-0.59c0.17-0.152,0.467-0.357,0.725-0.505c0.27-0.157,0.551-0.282,0.847-0.389            c0.591-0.2,1.258-0.232,2.041-0.02c-0.217-0.324-0.505-0.657-0.891-0.85C110.903,98.869,110.46,98.741,110.017,98.716z" />
                  </g>
                  <g>
                    <path style="fill:#EADA8F;" d="M110.152,86.047c-0.277-0.016-0.569,0.037-0.831,0.149            c-0.267,0.106-0.508,0.268-0.72,0.453c-0.059,0.054-0.109,0.11-0.163,0.165c-0.058-0.034-0.112-0.073-0.172-0.105            c-0.232-0.087-0.444-0.214-0.7-0.256c-0.482-0.147-1.029-0.13-1.522-0.006c-0.496,0.13-0.942,0.393-1.273,0.739            c-0.335,0.338-0.587,0.743-0.697,1.19c0.758-0.489,1.487-0.803,2.17-0.832c0.34-0.013,0.669,0.01,1.001,0.117            c0.333,0.086,0.66,0.248,1.001,0.41l0.628,0.299l0.213-0.53c0.055-0.136,0.167-0.339,0.273-0.498            c0.11-0.168,0.237-0.32,0.376-0.466c0.284-0.284,0.659-0.493,1.17-0.595C110.691,86.157,110.429,86.048,110.152,86.047z" />
                  </g>
                  <g>
                    <path style="fill:#EADA8F;" d="M115.302,69.545c-0.481-0.337-1.154-0.499-1.769-0.41c-0.617,0.079-1.157,0.331-1.63,0.63            c-0.082,0.054-0.149,0.115-0.226,0.171c-0.076-0.101-0.153-0.201-0.242-0.295c-0.398-0.457-0.929-0.816-1.491-1.006            c-0.559-0.204-1.143-0.238-1.681-0.181c-0.54,0.084-1.054,0.238-1.487,0.549c1.013,0.216,1.877,0.525,2.482,1.003            c0.614,0.456,0.953,1.068,1.232,1.8l0.613,1.606l1.072-1.322c0.214-0.264,0.533-0.586,0.819-0.836            c0.295-0.257,0.6-0.485,0.911-0.637c0.309-0.145,0.633-0.242,1.022-0.197c0.408,0.007,0.811,0.231,1.292,0.445            C116.065,70.38,115.796,69.883,115.302,69.545z" />
                  </g>
                  <g>
                    <path style="fill:#EADA8F;" d="M120.873,76.608c-0.277-0.016-0.569,0.037-0.831,0.149            c-0.267,0.106-0.508,0.268-0.72,0.453c-0.059,0.054-0.109,0.11-0.163,0.165c-0.058-0.034-0.112-0.073-0.172-0.105            c-0.232-0.087-0.444-0.214-0.7-0.256c-0.482-0.147-1.029-0.13-1.522-0.006c-0.496,0.13-0.942,0.393-1.273,0.739            c-0.335,0.338-0.587,0.743-0.697,1.19c0.758-0.489,1.487-0.803,2.17-0.832c0.34-0.013,0.669,0.01,1.001,0.117            c0.333,0.086,0.66,0.249,1.001,0.41l0.628,0.299l0.213-0.53c0.055-0.136,0.167-0.339,0.273-0.498            c0.11-0.168,0.237-0.32,0.376-0.466c0.284-0.284,0.659-0.493,1.17-0.595C121.412,76.718,121.151,76.609,120.873,76.608z" />
                  </g>
                  <g>
                    <path style="fill:#EADA8F;" d="M122.715,90.319c-0.277-0.016-0.569,0.037-0.831,0.149            c-0.267,0.106-0.508,0.268-0.72,0.453c-0.059,0.054-0.109,0.11-0.163,0.165c-0.058-0.034-0.112-0.073-0.172-0.105            c-0.232-0.087-0.444-0.214-0.7-0.256c-0.482-0.147-1.029-0.13-1.522-0.006c-0.496,0.13-0.942,0.393-1.273,0.739            c-0.335,0.338-0.587,0.743-0.697,1.19c0.758-0.489,1.487-0.804,2.17-0.832c0.34-0.013,0.668,0.01,1.001,0.117            c0.333,0.086,0.66,0.248,1.001,0.41l0.628,0.299l0.213-0.53c0.055-0.136,0.167-0.339,0.273-0.498            c0.11-0.168,0.237-0.32,0.376-0.466c0.284-0.284,0.659-0.493,1.17-0.595C123.254,90.429,122.993,90.32,122.715,90.319z" />
                  </g>
                  <g>
                    <path style="fill:#EADA8F;" d="M131.388,84.716c-0.445-0.037-0.892,0.022-1.316,0.134            c-0.119,0.034-0.234,0.071-0.346,0.109c-0.056-0.085-0.102-0.174-0.162-0.257c-0.263-0.281-0.471-0.604-0.798-0.84            c-0.57-0.538-1.344-0.892-2.115-1.06c-0.781-0.162-1.584-0.104-2.283,0.15c-0.7,0.239-1.331,0.63-1.793,1.176            c1.394-0.157,2.626-0.092,3.598,0.34c0.483,0.217,0.924,0.476,1.313,0.854c0.405,0.349,0.748,0.802,1.111,1.263            l0.668,0.85l0.663-0.591c0.17-0.152,0.468-0.357,0.725-0.505c0.27-0.157,0.551-0.282,0.847-0.389            c0.591-0.2,1.258-0.232,2.041-0.02c-0.217-0.324-0.505-0.657-0.891-0.85C132.275,84.868,131.832,84.74,131.388,84.716z" />
                  </g>
                  <g>
                    <path style="fill:#EADA8F;" d="M137.705,93.766c-0.481-0.337-1.154-0.499-1.769-0.41c-0.617,0.079-1.157,0.331-1.629,0.63            c-0.082,0.054-0.149,0.115-0.226,0.171c-0.076-0.101-0.153-0.201-0.242-0.295c-0.398-0.457-0.929-0.816-1.491-1.006            c-0.559-0.204-1.143-0.238-1.681-0.181c-0.54,0.084-1.055,0.238-1.487,0.549c1.013,0.216,1.877,0.525,2.482,1.003            c0.614,0.456,0.952,1.068,1.232,1.8l0.613,1.606l1.072-1.322c0.214-0.264,0.533-0.586,0.819-0.836            c0.295-0.257,0.6-0.485,0.911-0.637c0.309-0.145,0.633-0.242,1.022-0.197c0.408,0.007,0.811,0.231,1.292,0.445            C138.468,94.601,138.2,94.104,137.705,93.766z" />
                  </g>
                </g>
                <g>
                  <g>
                    <path style="fill:#EDE4B4;" d="M76.804,71.504c0.623,0,1.218,0.114,1.773,0.312c0.183-1.061,0.764-1.979,1.576-2.616            c-0.504-0.161-1.034-0.263-1.591-0.263c-2.376,0-4.378,1.574-5.037,3.735C74.426,71.949,75.558,71.504,76.804,71.504z" />
                  </g>
                  <g>
                    <path style="fill:#EDE4B4;" d="M69.249,75.594c0.835,0,1.621,0.199,2.323,0.544c0.129-1.061,0.583-2.015,1.244-2.786            c-0.564-0.208-1.172-0.326-1.809-0.326c-2.371,0-4.376,1.564-5.04,3.717C66.868,76.026,68.008,75.594,69.249,75.594z" />
                  </g>
                  <g>
                    <path style="fill:#EDE4B4;" d="M82.746,68.295c0.517,0,1.006,0.106,1.464,0.275c-0.107-0.419-0.17-0.856-0.17-1.308            c0-0.526,0.079-1.033,0.223-1.512c-1.905,0.109-3.456,1.47-3.869,3.278C81.067,68.573,81.87,68.295,82.746,68.295z" />
                  </g>
                  <g>
                    <path style="fill:#EDE4B4;" d="M64.289,82.646c-0.199-0.556-0.314-1.153-0.314-1.778c0-0.031,0.004-0.061,0.005-0.092            c-0.89,0.589-1.537,1.504-1.781,2.58C62.803,82.952,63.516,82.694,64.289,82.646z" />
                  </g>
                  <g>
                    <path style="fill:#EDE4B4;" d="M141.766,88.535c-0.259,0-0.512,0.023-0.763,0.056c0.84-0.934,1.356-2.166,1.356-3.521            c0-2.913-2.361-5.274-5.274-5.274c-1.508,0-2.865,0.636-3.826,1.651c-0.483-0.56-0.782-0.904-0.782-0.904l-3.748-3.04            c0.482-0.796,0.764-1.726,0.764-2.724c0-2.913-2.361-5.274-5.274-5.274c-0.831,0-1.614,0.198-2.313,0.54            c-0.488-1.417-1.69-2.497-3.188-2.785c0.147-0.485,0.228-0.998,0.228-1.531c0-2.913-2.361-5.274-5.274-5.274            c-1.98,0-3.702,1.092-4.604,2.705c-0.765-0.431-1.646-0.68-2.586-0.68c-1.482,0-2.819,0.613-3.777,1.597            c-0.644-1.521-2.151-2.589-3.907-2.589c-1.112,0-2.116,0.437-2.872,1.138c-0.805-1.883-2.674-3.203-4.851-3.203            c-2.371,0-4.376,1.564-5.04,3.717c0.901-0.718,2.041-1.15,3.282-1.15c2.178,0,4.046,1.32,4.851,3.203            c0.756-0.7,1.76-1.137,2.872-1.137c1.756,0,3.263,1.067,3.907,2.589c0.958-0.984,2.295-1.597,3.777-1.597            c0.941,0,1.822,0.249,2.586,0.68c0.902-1.613,2.625-2.705,4.604-2.705c2.913,0,5.274,2.361,5.274,5.274            c0,0.533-0.081,1.046-0.227,1.531c1.498,0.288,2.7,1.369,3.188,2.785c0.699-0.343,1.482-0.54,2.314-0.54            c2.913,0,5.274,2.361,5.274,5.274c0,0.998-0.282,1.928-0.764,2.724l3.748,3.04c0,0,0.299,0.344,0.782,0.904            c0.961-1.015,2.318-1.651,3.826-1.651c2.913,0,5.274,2.361,5.274,5.274c0,1.355-0.516,2.587-1.356,3.521            c0.25-0.033,0.503-0.056,0.763-0.056c3.213,0,5.818,2.605,5.818,5.818c0,0.661-0.115,1.293-0.318,1.885            c1.268-1.067,2.076-2.665,2.076-4.452C147.584,91.141,144.979,88.535,141.766,88.535z" />
                  </g>
                  <g>
                    <path style="fill:#EDE4B4;" d="M58.129,86.143c0.782,0,1.526,0.156,2.207,0.434c0.073-1.076,0.546-2.036,1.269-2.74            c-0.543-0.168-1.12-0.261-1.718-0.261c-2.562,0-4.734,1.651-5.523,3.945C55.381,86.662,56.694,86.143,58.129,86.143z" />
                  </g>
                  <g>
                    <path style="fill:#EDE4B4;" d="M51.797,93.683c0.261,0,0.514,0.031,0.762,0.077c-0.178-0.559-0.275-1.154-0.275-1.772            c0-0.225,0.016-0.447,0.041-0.666c-1.41,0.44-2.5,1.595-2.819,3.054C50.162,93.94,50.949,93.683,51.797,93.683z" />
                  </g>
                </g>
                <g style="opacity:0.25;">
                  <path style="fill:#FFFFFF;" d="M89.719,93.352c0-9.882-8.893-18.114-20.677-19.943c-1.939,0.78-3.309,2.674-3.309,4.892           c0,0.625,0.114,1.222,0.314,1.778c-2.123,0.131-3.81,1.811-3.953,3.931c-0.681-0.278-1.426-0.434-2.207-0.434           c-3.229,0-5.846,2.617-5.846,5.846c0,0.618,0.097,1.213,0.275,1.772c-0.248-0.046-0.501-0.077-0.762-0.077           c-2.293,0-4.151,1.859-4.151,4.151c0,2.292,1.859,4.151,4.151,4.151c1.002,0,1.908-0.369,2.625-0.96           c0.804,1.885,2.674,3.206,4.853,3.206c7.552,2.109,15.674,3.221,23.753,3.673C87.886,101.977,89.719,97.835,89.719,93.352z           " />
                </g>
              </g>
              <g>
                <path style="fill:#152F47;" d="M93.763,106.055c-10.974,0-22.442-1.006-32.8-3.89c-2.082-0.025-3.968-1.161-4.97-2.955          c-0.738,0.465-1.57,0.709-2.438,0.709c-2.565,0-4.651-2.087-4.651-4.651c0-2.598,2.135-4.722,4.752-4.649          c-0.076-0.394-0.114-0.795-0.114-1.197c0-3.499,2.847-6.346,6.346-6.346c0.611,0,1.213,0.087,1.796,0.26          c0.385-1.853,1.857-3.312,3.715-3.677c-0.11-0.447-0.166-0.902-0.166-1.358c0-3.184,2.59-5.774,5.774-5.774          c0.667,0,1.317,0.114,1.941,0.339c0.611-2.566,2.919-4.43,5.613-4.43c0.473,0,0.944,0.06,1.409,0.178          c0.665-2.249,2.926-3.768,5.362-3.307c-0.023-0.206-0.035-0.411-0.035-0.613c0-3.184,2.59-5.774,5.774-5.774          c2.097,0,4.004,1.129,5.022,2.924c0.793-0.557,1.732-0.858,2.701-0.858c1.676,0,3.201,0.875,4.053,2.278          c1.658-1.351,4.063-1.665,6.034-0.761c1.068-1.584,2.861-2.55,4.788-2.55c3.184,0,5.775,2.59,5.775,5.774          c0,0.393-0.04,0.785-0.12,1.169c1.246,0.392,2.282,1.296,2.849,2.485c0.656-0.251,1.342-0.378,2.045-0.378          c3.184,0,5.774,2.59,5.774,5.774c0,0.902-0.214,1.793-0.624,2.6l3.423,2.776l0.498,0.568          c1.052-0.924,2.381-1.428,3.795-1.428c3.184,0,5.774,2.59,5.774,5.774c0,1.054-0.29,2.078-0.829,2.971          c3.362,0.139,6.054,2.918,6.054,6.313c0,3.464-2.802,6.286-6.259,6.318C140.52,100.978,118.401,106.054,93.763,106.055z           M56.378,97.648l0.262,0.614c0.753,1.764,2.477,2.903,4.393,2.903l0.134,0.019c33.913,9.473,80.02-1.387,80.482-1.498          l0.117-0.014c2.933,0,5.318-2.386,5.318-5.318c0-2.933-2.386-5.318-5.318-5.318c-0.237,0-0.468,0.021-0.697,0.051          l-1.344,0.178l0.907-1.008c0.792-0.88,1.228-2.012,1.228-3.187c0-2.633-2.142-4.774-4.774-4.774          c-1.32,0-2.55,0.531-3.463,1.495l-0.38,0.401l-1.143-1.321l-4.024-3.254l0.226-0.373c0.453-0.747,0.692-1.599,0.692-2.464          c0-2.633-2.142-4.774-4.774-4.774c-0.726,0-1.43,0.164-2.094,0.489l-0.508,0.249l-0.184-0.535          c-0.436-1.266-1.513-2.207-2.81-2.456l-0.545-0.105l0.161-0.531c0.137-0.451,0.206-0.918,0.206-1.386          c0-2.633-2.142-4.774-4.775-4.774c-1.725,0-3.323,0.938-4.167,2.449l-0.245,0.438l-0.437-0.247          c-0.714-0.403-1.523-0.616-2.34-0.616c-1.297,0-2.511,0.514-3.419,1.446l-0.525,0.54l-0.294-0.693          c-0.587-1.387-1.94-2.283-3.446-2.283c-0.934,0-1.833,0.356-2.532,1.004l-0.521,0.482l-0.279-0.652          c-0.753-1.762-2.477-2.9-4.391-2.9c-2.633,0-4.774,2.142-4.774,4.774c0,0.385,0.052,0.784,0.155,1.185l0.236,0.923          l-0.894-0.33c-2.355-0.871-4.585,0.643-4.967,2.86l-0.101,0.587l-0.561-0.201c-0.525-0.188-1.065-0.283-1.605-0.283          c-2.41,0-4.446,1.804-4.735,4.195l-0.085,0.7l-0.632-0.311c-0.665-0.327-1.372-0.493-2.102-0.493          c-2.633,0-4.774,2.142-4.774,4.774c0,0.542,0.096,1.083,0.285,1.609l0.225,0.627l-0.665,0.041          c-1.861,0.115-3.359,1.605-3.484,3.466l-0.047,0.691l-0.641-0.262c-0.646-0.264-1.325-0.397-2.018-0.397          c-2.948,0-5.346,2.398-5.346,5.346c0,0.549,0.085,1.095,0.252,1.621l0.253,0.796l-0.822-0.153          c-0.245-0.046-0.464-0.068-0.67-0.068c-2.013,0-3.651,1.638-3.651,3.651s1.638,3.651,3.651,3.651          c0.838,0,1.636-0.293,2.308-0.846L56.378,97.648z" />
              </g>
            </g>
            <g>
              <g>
                <path style="fill:#F4C9C9;" d="M147.55,95.828c-18.27,6.452-49.158,6.192-49.159,6.192c-0.001,0-30.89,0.26-49.159-6.192          c0,0-3.248,4.51,0,11.209c0,0,4.828,6.641,49.159,6.641c44.331,0,49.159-6.641,49.159-6.641          C150.798,100.338,147.55,95.828,147.55,95.828z" />
              </g>
              <g>
                <path style="fill:#EAB5B5;" d="M147.55,103.209c0,0-4.828,6.641-49.159,6.641c-44.332,0-49.159-6.641-49.159-6.641          c-0.693-1.429-1.078-2.751-1.274-3.958c-0.34,1.944-0.264,4.615,1.274,7.786c0,0,4.828,6.641,49.159,6.641          c44.331,0,49.159-6.641,49.159-6.641c1.537-3.171,1.614-5.842,1.274-7.786C148.628,100.458,148.243,101.78,147.55,103.209z" />
              </g>
            </g>
            <g>
              <path style="fill:#152F47;" d="M98.391,114.178c-44.08,0-49.36-6.567-49.564-6.847c-3.385-6.964-0.141-11.601-0.001-11.794         l0.219-0.304l0.353,0.124c17.964,6.344,48.684,6.168,48.988,6.164c0.323,0.004,31.033,0.18,48.997-6.164l0.354-0.124         l0.219,0.304c0.14,0.194,3.383,4.831,0.044,11.719C147.751,107.61,142.471,114.178,98.391,114.178z M49.653,106.759         c0.434,0.449,7.038,6.418,48.738,6.418s48.304-5.969,48.738-6.418c2.591-5.399,0.84-9.235,0.21-10.328         c-18.166,6.269-47.695,6.1-48.952,6.089c-1.248,0.003-30.781,0.179-48.944-6.089         C48.813,97.524,47.061,101.359,49.653,106.759z" />
            </g>
          </g>
        </g>
      </g>
      <g>
        <g>
          <g>
            <path style="fill:#FFFFFF;" d="M59.338,121.691c0.673,4.17,1.347,8.34,2.02,12.509c0.095,0.59,0.191,1.179,0.286,1.769        c0.123,0.76,1.304,0.57,1.181-0.191c-0.673-4.17-1.347-8.34-2.02-12.509c-0.095-0.59-0.19-1.18-0.286-1.769        C60.397,120.74,59.216,120.93,59.338,121.691L59.338,121.691z" />
          </g>
        </g>
        <g>
          <path style="fill:#FFFFFF;" d="M63.124,138.044c0.047,0.291-0.151,0.564-0.441,0.611s-0.564-0.151-0.611-0.441       c-0.047-0.29,0.151-0.564,0.441-0.611C62.804,137.555,63.078,137.753,63.124,138.044z" />
        </g>
      </g>
    </g>
    <g>
      <g>
        <g>
          <g>
            <g>
              <g>
                <path style="fill:#152F47;" d="M79.512,139.683c0.006-1.546,0.187-3.092,0.652-4.57c0.323-1.025,0.799-2.147,1.644-2.856          c0.596-0.5,1.24-0.57,1.874-0.167c0.849,0.539,1.361,1.6,1.697,2.509c0.599,1.624,0.821,3.36,0.828,5.084          c0.003,0.77,1.199,0.771,1.196,0c-0.007-1.763-0.225-3.564-0.81-5.234c-0.427-1.219-1.052-2.472-2.114-3.258          c-0.875-0.647-1.997-0.739-2.948-0.194c-1.093,0.628-1.759,1.828-2.217,2.958c-0.732,1.802-0.989,3.794-0.997,5.728          C78.312,140.453,79.508,140.454,79.512,139.683L79.512,139.683z" />
              </g>
            </g>
          </g>
          <g>
            <g>
              <g>
                <path style="fill:#152F47;" d="M109.541,139.683c0.006-1.546,0.187-3.092,0.653-4.57c0.323-1.025,0.799-2.147,1.644-2.856          c0.596-0.5,1.24-0.57,1.874-0.167c0.849,0.539,1.361,1.6,1.696,2.509c0.599,1.624,0.821,3.36,0.828,5.084          c0.003,0.77,1.199,0.771,1.196,0c-0.007-1.763-0.225-3.564-0.81-5.234c-0.427-1.219-1.052-2.472-2.114-3.258          c-0.875-0.647-1.997-0.739-2.948-0.194c-1.093,0.628-1.759,1.828-2.217,2.958c-0.732,1.802-0.989,3.794-0.997,5.728          C108.342,140.453,109.538,140.454,109.541,139.683L109.541,139.683z" />
              </g>
            </g>
          </g>
        </g>
        <g>
          <g>
            <path style="fill:#FF81CE;" d="M95.028,141.534c0,0,0.681,4.188,3.252,4.188c2.571,0,3.095-4.188,3.095-4.188        s-2.738-0.851-3.095-3.405C98.28,138.129,97.581,141.364,95.028,141.534z" />
          </g>
          <g>
            <path style="fill:#152F47;" d="M105.533,137.077c0.024-0.674-1.019-0.671-1.042,0c-0.059,1.697-0.863,3.773-2.825,3.889        c-1.953,0.115-2.772-2.372-2.825-3.889c-0.012-0.346-0.292-0.511-0.558-0.501c-0.269-0.01-0.549,0.155-0.562,0.501        c-0.058,1.697-0.863,3.773-2.824,3.889c-1.953,0.115-2.774-2.372-2.825-3.889c-0.024-0.671-1.068-0.674-1.045,0        c0.078,2.268,1.259,4.674,3.716,4.915c0.506,1.756,1.549,4.001,3.538,4.137c1.917,0.131,2.996-2.477,3.442-4.121        C104.238,142.111,105.464,139.137,105.533,137.077z M98.281,145.285c-1.383,0.094-2.255-1.986-2.666-3.327        c1.284-0.244,2.163-1.343,2.66-2.594c0.483,1.19,1.346,2.164,2.611,2.51C100.512,143.247,99.746,145.183,98.281,145.285z" />
          </g>
        </g>
      </g>
      <g>
        <g>
          <path style="fill:#FF81CE;" d="M84.087,142.931c-0.304,0.798-2.401,0.738-4.684-0.133c-2.283-0.871-3.886-2.224-3.582-3.021       c0.304-0.798,2.401-0.738,4.684,0.133C82.788,140.781,84.392,142.133,84.087,142.931z" />
        </g>
        <g>
          <path style="fill:#FF81CE;" d="M111.66,142.931c0.304,0.798,2.401,0.738,4.684-0.133c2.283-0.871,3.886-2.224,3.582-3.021       c-0.304-0.798-2.401-0.738-4.684,0.133C112.959,140.781,111.355,142.133,111.66,142.931z" />
        </g>
      </g>
    </g>
  </g>
</svg>