<?xml version='1.0' encoding='utf-8'?>
<svg xmlns="http://www.w3.org/2000/svg" xmlns:ns1="http://www.w3.org/1999/xlink" version="1.1" viewBox="-50.384 -46.293 476.195 514.0" width="476.195" height="514.0">
  <g>
    <g>
      <g>
        <g>
          <g>
            <g>
              <rect x="165.944" y="350.023" transform="matrix(0.899 -0.438 0.438 0.899 -144.9456 111.0703)" style="fill:#FFB7A0;" width="4.66" height="39.37" />
            </g>
            <g>
              <defs>
                <rect id="SVGID_1_" x="165.944" y="350.023" transform="matrix(0.899 -0.438 0.438 0.899 -144.9456 111.0703)" width="4.66" height="39.37" />
              </defs>
              <clipPath id="SVGID_00000119821509802171491640000015976585791343393413_">
                <use ns1:href="#SVGID_1_" style="overflow:visible;" />
              </clipPath>
              <g style="clip-path:url(#SVGID_00000119821509802171491640000015976585791343393413_);">
                <g>
                  <g>
                    <rect x="160.284" y="380.787" transform="matrix(0.6248 -0.7808 0.7808 0.6248 -233.3245 279.9392)" style="fill:#F99980;" width="28.693" height="3.941" />
                  </g>
                  <g>
                    <rect x="155.989" y="371.968" transform="matrix(0.6248 -0.7808 0.7808 0.6248 -228.0555 273.2959)" style="fill:#F99980;" width="28.692" height="3.942" />
                  </g>
                </g>
                <g>
                  <g>
                    <rect x="151.693" y="363.149" transform="matrix(0.6248 -0.7808 0.7808 0.6248 -222.7847 266.6449)" style="fill:#F99980;" width="28.692" height="3.941" />
                  </g>
                  <g>
                    <rect x="147.397" y="354.331" transform="matrix(0.6248 -0.7808 0.7808 0.6248 -217.5092 259.9731)" style="fill:#F99980;" width="28.693" height="3.941" />
                  </g>
                </g>
              </g>
            </g>
          </g>
          <g style="opacity:0.3;">
            <rect x="168.156" y="349.512" transform="matrix(0.899 -0.438 0.438 0.899 -144.5896 111.4449)" style="fill:#E8775D;" width="2.33" height="39.37" />
          </g>
        </g>
        <g>
          <path style="fill:#152F47;" d="M174.57,389.094l-17.68-36.293l5.088-2.48l17.679,36.293L174.57,389.094z M158.227,353.262       l16.804,34.494l3.29-1.603l-16.803-34.494L158.227,353.262z" />
        </g>
      </g>
      <g>
        <g>
          <g>
            <g>
              <rect x="163.987" y="355.435" transform="matrix(0.5521 -0.8338 0.8338 0.5521 -238.2736 306.6933)" style="fill:#FFB7A0;" width="4.66" height="39.368" />
            </g>
            <g>
              <defs>
                <rect id="SVGID_00000099648707390257307570000010429548211027415463_" x="163.987" y="355.435" transform="matrix(0.5521 -0.8338 0.8338 0.5521 -238.2736 306.6933)" width="4.66" height="39.368" />
              </defs>
              <clipPath id="SVGID_00000164475932030302526310000009842100180694382520_">
                <use ns1:href="#SVGID_00000099648707390257307570000010429548211027415463_" style="overflow:visible;" />
              </clipPath>
              <g style="clip-path:url(#SVGID_00000164475932030302526310000009842100180694382520_);">
                <g>
                  <g>
                    <rect x="164.072" y="381.165" transform="matrix(0.1419 -0.9899 0.9899 0.1419 -226.1558 505.3864)" style="fill:#F99980;" width="28.693" height="3.94" />
                  </g>
                  <g>
                    <rect x="155.894" y="375.748" transform="matrix(0.1419 -0.9899 0.9899 0.1419 -227.8115 492.6425)" style="fill:#F99980;" width="28.693" height="3.942" />
                  </g>
                </g>
                <g>
                  <g>
                    <rect x="147.717" y="370.331" transform="matrix(0.1419 -0.9899 0.9899 0.1419 -229.4683 479.896)" style="fill:#F99980;" width="28.692" height="3.942" />
                  </g>
                  <g>
                    <rect x="139.537" y="364.915" transform="matrix(0.1419 -0.9899 0.9899 0.1419 -231.1245 467.1538)" style="fill:#F99980;" width="28.693" height="3.941" />
                  </g>
                </g>
              </g>
            </g>
          </g>
          <g style="opacity:0.3;">
            <rect x="165.795" y="354.464" transform="matrix(0.5519 -0.8339 0.8339 0.5519 -237.1907 306.8831)" style="fill:#E8775D;" width="2.33" height="39.368" />
          </g>
        </g>
        <g>
          <path style="fill:#152F47;" d="M181.582,388.624l-33.655-22.291l3.125-4.72l33.655,22.292L181.582,388.624z M149.313,366.052       l31.988,21.186l2.02-3.051L151.333,363L149.313,366.052z" />
        </g>
      </g>
    </g>
    <g>
      <g>
        <g>
          <g>
            <g>
              <path style="fill:#FFB7A0;" d="M191.422,415.311c-7.082,0-13.53-0.237-18.373-2.188c0.836,13.789,3.42,38.926,3.583,40.357         c0.414,3.643,3.519,3.726,3.519,3.726h6.431h9.68h6.433c0,0,3.104-0.083,3.518-3.726c0.162-1.432,2.746-26.568,3.583-40.357         C204.952,415.074,198.503,415.311,191.422,415.311z" />
            </g>
            <g>
              <defs>
                <path id="SVGID_00000079459363506116334900000012209362040041128873_" d="M191.422,415.311          c-7.082,0-13.53-0.237-18.373-2.188c0.836,13.789,3.42,38.926,3.583,40.357c0.414,3.643,3.519,3.726,3.519,3.726h6.431h9.68          h6.433c0,0,3.104-0.083,3.518-3.726c0.162-1.432,2.746-26.568,3.583-40.357          C204.952,415.074,198.503,415.311,191.422,415.311z" />
              </defs>
              <clipPath id="SVGID_00000051350700013682382220000014782845649351828403_">
                <use ns1:href="#SVGID_00000079459363506116334900000012209362040041128873_" style="overflow:visible;" />
              </clipPath>
              <g style="clip-path:url(#SVGID_00000051350700013682382220000014782845649351828403_);">
                <g>
                  <g>
                    <g>
                      <g>
                        <g>
                          <rect x="103.293" y="413.606" transform="matrix(0.7087 -0.7055 0.7055 0.7087 -243.3181 238.9142)" style="fill:#E8775D;" width="128.689" height="0.961" />
                        </g>
                      </g>
                      <g>
                        <g>
                          <rect x="110.088" y="420.402" transform="matrix(0.7072 -0.7071 0.7071 0.7072 -246.5055 246.5852)" style="fill:#E8775D;" width="128.691" height="0.961" />
                        </g>
                      </g>
                    </g>
                    <g>
                      <g>
                        <g>
                          <rect x="116.883" y="427.196" transform="matrix(0.7071 -0.7071 0.7071 0.7071 -249.333 253.4115)" style="fill:#E8775D;" width="128.69" height="0.962" />
                        </g>
                      </g>
                      <g>
                        <g>
                          <rect x="123.68" y="433.992" transform="matrix(0.7066 -0.7076 0.7076 0.7066 -252.2755 260.531)" style="fill:#E8775D;" width="128.689" height="0.961" />
                        </g>
                      </g>
                    </g>
                  </g>
                  <g>
                    <g>
                      <g>
                        <g>
                          <rect x="130.474" y="440.788" transform="matrix(0.7076 -0.7066 0.7066 0.7076 -254.8471 266.7049)" style="fill:#E8775D;" width="128.69" height="0.961" />
                        </g>
                      </g>
                      <g>
                        <g>
                          <rect x="137.269" y="447.583" transform="matrix(0.7066 -0.7076 0.7076 0.7066 -257.9052 274.1359)" style="fill:#E8775D;" width="128.691" height="0.961" />
                        </g>
                      </g>
                    </g>
                    <g>
                      <g>
                        <g>
                          <rect x="144.065" y="454.378" transform="matrix(0.7071 -0.7071 0.7071 0.7071 -260.5936 280.5979)" style="fill:#E8775D;" width="128.69" height="0.962" />
                        </g>
                      </g>
                      <g>
                        <g>
                          <polygon style="fill:#E8775D;" points="170.047,507.493 169.367,506.811 260.363,415.816 261.044,416.495                             " />
                        </g>
                      </g>
                    </g>
                  </g>
                </g>
                <g>
                  <g>
                    <g>
                      <g>
                        <g>
                          <rect x="214.724" y="349.742" transform="matrix(0.7065 -0.7077 0.7077 0.7065 -229.8845 273.8156)" style="fill:#E8775D;" width="0.962" height="128.689" />
                        </g>
                      </g>
                      <g>
                        <g>
                          <rect x="207.929" y="356.537" transform="matrix(0.7076 -0.7066 0.7066 0.7076 -236.4654 270.3419)" style="fill:#E8775D;" width="0.961" height="128.69" />
                        </g>
                      </g>
                    </g>
                    <g>
                      <g>
                        <g>
                          <rect x="201.134" y="363.332" transform="matrix(0.7066 -0.7076 0.7076 0.7066 -243.4794 268.1545)" style="fill:#E8775D;" width="0.961" height="128.69" />
                        </g>
                      </g>
                      <g>
                        <g>
                          <rect x="194.339" y="370.128" transform="matrix(0.7076 -0.7066 0.7066 0.7076 -250.032 264.6847)" style="fill:#E8775D;" width="0.96" height="128.689" />
                        </g>
                      </g>
                    </g>
                  </g>
                  <g>
                    <g>
                      <g>
                        <g>
                          <rect x="187.543" y="376.924" transform="matrix(0.7071 -0.7071 0.7071 0.7071 -256.9531 262.1975)" style="fill:#E8775D;" width="0.961" height="128.69" />
                        </g>
                      </g>
                      <g>
                        <g>
                          <rect x="180.748" y="383.718" transform="matrix(0.7076 -0.7066 0.7066 0.7076 -263.6089 259.0551)" style="fill:#E8775D;" width="0.961" height="128.69" />
                        </g>
                      </g>
                    </g>
                    <g>
                      <g>
                        <g>
                          <rect x="173.952" y="390.513" transform="matrix(0.7066 -0.7076 0.7076 0.7066 -270.6892 256.8955)" style="fill:#E8775D;" width="0.962" height="128.69" />
                        </g>
                      </g>
                      <g>
                        <g>
                          <rect x="167.157" y="397.31" transform="matrix(0.7055 -0.7087 0.7087 0.7055 -277.7961 254.7349)" style="fill:#E8775D;" width="0.961" height="128.689" />
                        </g>
                      </g>
                    </g>
                  </g>
                </g>
              </g>
            </g>
            <path style="opacity:0.2;fill:#FFFFFF;" d="M196.605,437.574c0-9.377-4.054-17.611-10.167-22.326        c-5.105-0.151-9.712-0.643-13.39-2.124c0.836,13.789,3.42,38.926,3.583,40.357c0.414,3.643,3.519,3.726,3.519,3.726h6.431        h2.791C193.815,452.356,196.605,445.357,196.605,437.574z" />
          </g>
          <g style="opacity:0.4;">
            <path style="fill:#E8775D;" d="M202.118,414.868c-1.252,16.816-3.659,40.277-3.887,42.339h4.462c0,0,3.104-0.083,3.518-3.726        c0.162-1.432,2.746-26.568,3.583-40.357C207.552,414.027,204.953,414.553,202.118,414.868z" />
          </g>
        </g>
        <g>
          <path style="fill:#152F47;" d="M196.261,457.707h-16.11c-0.049-0.001-3.558-0.142-4.015-4.169       c-0.166-1.457-2.753-26.64-3.585-40.384l-0.048-0.79l0.734,0.296c4.93,1.985,11.687,2.151,18.186,2.151       c6.499,0,13.256-0.166,18.186-2.151l0.734-0.296l-0.048,0.79c-0.835,13.766-3.395,38.708-3.585,40.384       c-0.458,4.027-3.966,4.168-4.002,4.169H196.261z M173.596,413.866c0.879,13.875,3.37,38.13,3.533,39.559       c0.358,3.148,2.929,3.278,3.038,3.282h22.527c0.093-0.004,2.663-0.134,3.022-3.282c0.186-1.642,2.653-25.673,3.533-39.559       c-5.01,1.789-11.541,1.945-17.826,1.945C185.136,415.811,178.606,415.655,173.596,413.866z" />
        </g>
      </g>
      <g>
        <g>
          <g>
            <path style="fill:#FFB7A0;" d="M191.422,401.9c0,0-20.866-0.322-31.024-2.19c0,0,3.464,15.132,8.254,17.118        c4.789,1.986,15.067,2.93,22.771,2.93s17.981-0.943,22.77-2.93c4.79-1.986,8.254-17.118,8.254-17.118        C212.288,401.578,191.422,401.9,191.422,401.9z" />
          </g>
          <g style="opacity:0.4;">
            <g>
              <path style="fill:#E8775D;" d="M214.715,400.827c-1.328,4.915-4.75,15.965-9.106,17.772         c-0.279,0.116-0.587,0.228-0.897,0.337c3.809-0.482,7.245-1.18,9.481-2.107c4.79-1.986,8.254-17.118,8.254-17.118         C220.261,400.112,217.578,400.486,214.715,400.827z" />
            </g>
          </g>
          <path style="opacity:0.2;fill:#FFFFFF;" d="M168.651,416.828c2.068,0.858,5.162,1.52,8.628,1.997       c3.776-4.67,6.041-10.611,6.041-17.084c0-0.026-0.002-0.052-0.002-0.078c-6.979-0.274-16.857-0.838-22.921-1.953       C160.397,399.71,163.861,414.842,168.651,416.828z" />
        </g>
        <g>
          <path style="fill:#152F47;" d="M191.422,420.258c-7.613,0-18.046-0.929-22.962-2.968c-4.971-2.062-8.406-16.841-8.55-17.469       l-0.169-0.74l0.747,0.137c9.929,1.826,30.435,2.175,30.934,2.183c0.498-0.008,21.005-0.356,30.934-2.183l0.747-0.137       l-0.169,0.74c-0.144,0.628-3.579,15.407-8.55,17.469C209.468,419.329,199.035,420.258,191.422,420.258z M161.064,400.335       c0.762,3.026,3.864,14.408,7.778,16.031c4.79,1.986,15.062,2.892,22.579,2.892s17.789-0.905,22.579-2.892       c3.914-1.623,7.016-13.005,7.778-16.031c-10.33,1.737-30.145,2.063-30.35,2.065h-0.016       C191.21,402.397,171.394,402.072,161.064,400.335z" />
        </g>
      </g>
    </g>
    <g>
      <g>
        <g>
          <g>
            <path style="fill:#C3C5F4;" d="M212.504,371.796c0.227,8.895-9.142,13.23-19.545,13.495        c-10.403,0.265-19.98-3.588-20.206-12.483c-0.227-8.895,9.01-18.428,19.413-18.691        C202.569,353.852,212.277,362.9,212.504,371.796z" />
          </g>
          <g>
            <path style="fill:#B6BBEF;" d="M199.289,355.373c4.259,3.402,7.152,8.23,7.273,13.026c0.228,8.896-9.142,13.23-19.544,13.496        c-3.881,0.099-7.646-0.376-10.854-1.473c3.736,3.496,10.092,5.039,16.795,4.868c10.403-0.265,19.771-4.601,19.545-13.495        C212.331,364.999,206.614,358.126,199.289,355.373z" />
          </g>
          <g>
            <path style="fill:#D7DAF9;" d="M195.175,360.883c1.434,2.637-0.882,6.663-5.17,8.992c-4.289,2.33-8.926,2.082-10.358-0.552        c-1.432-2.636,0.885-6.663,5.173-8.991C189.106,358.002,193.745,358.249,195.175,360.883z" />
          </g>
        </g>
        <g>
          <path style="fill:#152F47;" d="M192.016,385.803c-9.177,0-19.518-3.361-19.763-12.982c-0.113-4.444,2.026-9.165,5.87-12.951       c3.904-3.847,9.018-6.126,14.031-6.253c10.259-0.29,20.61,8.737,20.851,18.167c0.11,4.32-1.973,7.924-6.024,10.422       c-3.522,2.172-8.497,3.445-14.008,3.586C192.655,385.799,192.336,385.803,192.016,385.803z M192.598,354.61       c-0.14,0-0.279,0.002-0.419,0.006c-4.761,0.12-9.629,2.295-13.354,5.965c-3.647,3.593-5.678,8.045-5.571,12.214       c0.235,9.219,10.76,12.224,19.693,11.996c5.337-0.136,10.135-1.356,13.509-3.436c3.73-2.301,5.649-5.602,5.549-9.546l0,0       C211.78,363.012,202.235,354.61,192.598,354.61z" />
        </g>
      </g>
      <g>
        <g>
          <g>
            <path style="fill:#EFDE89;" d="M196.053,394.031c-0.805,8.862-10.611,12.084-20.976,11.142        c-10.364-0.941-19.43-5.876-18.626-14.738c0.805-8.862,11.083-17.261,21.446-16.318        C188.262,375.058,196.857,385.17,196.053,394.031z" />
          </g>
          <g>
            <path style="fill:#E5CF70;" d="M184.827,376.19c3.837,3.873,6.151,9.003,5.717,13.781        c-0.804,8.862-10.611,12.084-20.975,11.143c-3.866-0.351-7.552-1.258-10.611-2.718c3.308,3.904,9.441,6.172,16.119,6.778        c10.364,0.941,20.171-2.28,20.976-11.142C196.668,387.261,191.785,379.772,184.827,376.19z" />
          </g>
          <g>
            <path style="fill:#FCEBA2;" d="M180.103,381.186c1.118,2.784-1.648,6.516-6.178,8.333c-4.528,1.817-9.105,1.035-10.223-1.748        c-1.117-2.783,1.649-6.515,6.178-8.331C174.409,377.622,178.987,378.405,180.103,381.186z" />
          </g>
        </g>
        <g>
          <path style="fill:#152F47;" d="M178.467,405.83c-1.121,0-2.269-0.053-3.436-0.158c-9.363-0.851-19.978-5.363-19.079-15.281       c0.402-4.429,3.074-8.87,7.33-12.185c4.324-3.369,9.666-5.041,14.66-4.586c4.993,0.453,9.948,3.06,13.594,7.152       c3.589,4.027,5.416,8.877,5.014,13.305c-0.391,4.305-2.877,7.643-7.189,9.656C186.408,405.11,182.624,405.83,178.467,405.83z        M176.311,374.546c-4.286,0-8.732,1.579-12.414,4.448c-4.038,3.146-6.571,7.333-6.948,11.486       c-0.833,9.184,9.269,13.387,18.173,14.195c5.32,0.483,10.224-0.175,13.816-1.85c3.972-1.854,6.259-4.91,6.616-8.84l0,0       c0.377-4.153-1.359-8.728-4.765-12.55c-3.479-3.904-8.194-6.391-12.938-6.821C177.342,374.568,176.828,374.546,176.311,374.546       z" />
        </g>
      </g>
      <g>
        <g>
          <g>
            <path style="fill:#F2A5CC;" d="M226.112,392.893c0.226,8.895-9.143,13.23-19.546,13.495        c-10.403,0.265-19.98-3.588-20.206-12.483c-0.227-8.896,9.01-18.428,19.413-18.691        C216.177,374.948,225.885,383.997,226.112,392.893z" />
          </g>
          <g>
            <path style="fill:#E88EBF;" d="M212.896,376.47c4.259,3.402,7.152,8.23,7.273,13.026c0.228,8.897-9.142,13.23-19.544,13.496        c-3.881,0.099-7.646-0.376-10.855-1.473c3.736,3.496,10.092,5.039,16.795,4.868c10.403-0.265,19.771-4.6,19.546-13.495        C225.939,386.096,220.222,379.223,212.896,376.47z" />
          </g>
          <g>
            <path style="fill:#F9B2D9;" d="M208.783,381.979c1.433,2.637-0.883,6.663-5.171,8.992c-4.289,2.33-8.926,2.082-10.357-0.552        c-1.433-2.636,0.884-6.663,5.172-8.991C202.714,379.099,207.352,379.346,208.783,381.979z" />
          </g>
        </g>
        <g>
          <path style="fill:#152F47;" d="M205.623,406.899c-9.177,0-19.518-3.361-19.763-12.982c-0.113-4.444,2.026-9.165,5.87-12.951       c3.904-3.847,9.018-6.126,14.031-6.253c10.307-0.252,20.61,8.738,20.852,18.167l0,0c0.252,9.956-10.634,13.768-20.033,14.008       C206.262,406.896,205.943,406.899,205.623,406.899z M206.205,375.707c-0.14,0-0.279,0.002-0.419,0.006       c-4.761,0.12-9.629,2.295-13.355,5.965c-3.647,3.593-5.678,8.045-5.571,12.214c0.235,9.219,10.759,12.22,19.693,11.996       c8.938-0.228,19.293-3.764,19.059-12.982l0,0C225.387,384.108,215.842,375.707,206.205,375.707z" />
        </g>
      </g>
    </g>
  </g>
</svg>