<?xml version='1.0' encoding='utf-8'?>
<svg xmlns="http://www.w3.org/2000/svg" xmlns:ns1="http://www.w3.org/1999/xlink" version="1.1" viewBox="-83.283 -40.18 430.151 378.379" width="430.151" height="378.379">
  <g>
    <g>
      <g>
        <g>
          <g>
            <g>
              <path style="fill:#C3C5F4;" d="M304.905,92.678c-10.456,0-19.885-1.798-26.582-3.967c1.165,12.723,6.382,69.984,6.963,73.284         c0.654,3.718,5.559,3.803,5.559,3.803h13.079h1.962h13.078c0,0,4.905-0.085,5.56-3.803c0.58-3.3,5.799-60.561,6.962-73.283         C324.789,90.88,315.36,92.678,304.905,92.678z" />
            </g>
            <g>
              <path style="fill:#B6BBEF;" d="M319.85,91.467c1.897,6.124,2.958,12.881,2.958,19.987c0,27.666-15.958,50.094-35.642,50.094         c-0.656,0-1.308-0.029-1.956-0.078c0.031,0.233,0.056,0.413,0.076,0.525c0.654,3.718,5.559,3.803,5.559,3.803h13.079h1.962         h13.078c0,0,4.905-0.085,5.56-3.803c0.58-3.3,5.799-60.561,6.962-73.283C328.199,89.775,324.25,90.749,319.85,91.467z" />
            </g>
            <path style="opacity:0.2;fill:#FFFFFF;" d="M304.047,114.904c0-9.156-2.839-17.308-7.261-22.587        c-7.173-0.629-13.553-2.016-18.462-3.606c0.767,8.374,3.289,36.043,5.089,54.92c0.491,0.057,0.986,0.095,1.487,0.095        C295.474,143.726,304.047,130.822,304.047,114.904z" />
          </g>
          <g>
            <path style="fill:#152F47;" d="M305.886,166.298h-15.041c-1.848-0.032-5.477-0.954-6.051-4.216        c-0.546-3.098-5.163-53.583-6.681-70.173l-0.357-3.907l0.722,0.233c4.546,1.472,14.025,3.942,26.428,3.942        c12.4,0,21.879-2.47,26.426-3.941l0.722-0.233l-0.251,2.737c-1.54,16.861-6.229,68.171-6.786,71.342        c-0.574,3.262-4.204,4.185-6.043,4.216H305.886z M278.89,89.415l0.22,2.402c1.517,16.58,6.131,67.034,6.669,70.091        c0.574,3.263,5.03,3.389,5.076,3.39h28.109c0.036-0.001,4.493-0.126,5.067-3.389c0.365-2.078,2.645-26.053,6.775-71.26        l0.112-1.233c-4.84,1.503-14.098,3.762-26.014,3.762C292.987,93.178,283.729,90.919,278.89,89.415z" />
          </g>
        </g>
        <g>
          <g>
            <g>
              <path style="fill:#C3C5F4;" d="M278.323,82.033c0,0,3.775-24.749,26.582-24.749c22.808,0,26.58,24.749,26.58,24.749         S304.469,95.978,278.323,82.033z" />
            </g>
            <g>
              <path style="fill:#B6BBEF;" d="M294.623,61.361c21.352,0,26.021,21.689,26.529,24.458c6.36-1.741,10.333-3.786,10.333-3.786         s-3.772-24.749-26.58-24.749c-6.11,0-10.846,1.785-14.516,4.387C291.723,61.473,293.13,61.361,294.623,61.361z" />
            </g>
          </g>
          <g>
            <ellipse style="fill:#969DEA;" cx="304.047" cy="64.597" rx="7.234" ry="3.078" />
          </g>
          <g>
            <g>
              <g>
                <path style="fill:#FFC9E2;" d="M305.71,67.591l3.955-27.224l-5.34-0.775l-4.017,27.641          C300.314,67.234,302.75,68.219,305.71,67.591z" />
              </g>
              <g>
                <defs>
                  <path id="SVGID_00000122707377712499989910000012708253178844102334_" d="M305.71,67.591l3.955-27.224l-5.34-0.775           l-4.017,27.641C300.314,67.234,302.75,68.219,305.71,67.591z" />
                </defs>
                <clipPath id="SVGID_00000073699989558631935440000009643782388604524714_">
                  <use ns1:href="#SVGID_00000122707377712499989910000012708253178844102334_" style="overflow:visible;" />
                </clipPath>
                <g style="clip-path:url(#SVGID_00000073699989558631935440000009643782388604524714_);">
                  <g>
                    <rect x="289.599" y="62.941" transform="matrix(0.9401 -0.3409 0.3409 0.9401 -3.7502 107.8537)" style="fill:#F99DCB;" width="30.777" height="3.311" />
                  </g>
                  <g>
                    <rect x="289.599" y="53.132" transform="matrix(0.9401 -0.3409 0.3409 0.9401 -0.4056 107.2659)" style="fill:#F99DCB;" width="30.777" height="3.311" />
                  </g>
                  <g>
                    <rect x="289.599" y="43.323" transform="matrix(0.9401 -0.3409 0.3409 0.9401 2.937 106.6699)" style="fill:#F99DCB;" width="30.777" height="3.311" />
                  </g>
                </g>
              </g>
            </g>
            <g style="opacity:0.4;">
              <path style="fill:#F99DCB;" d="M309.665,40.367l-1.758-0.256c-1.984,22.093-5.256,26.199-7.454,26.132l-0.145,0.989         c0.006,0.002,2.441,0.986,5.401,0.358L309.665,40.367z" />
            </g>
          </g>
          <g>
            <path style="fill:#152F47;" d="M303.644,88.688c-7.946,0-16.818-1.553-25.556-6.213l-0.313-0.167l0.054-0.35        c0.034-0.228,3.71-22.821,23.849-25.002l0.108,0.994c-18.019,1.952-22.36,20.992-22.905,23.812        c23.978,12.569,48.904,1.486,52.046-0.012c-0.561-2.901-5.034-22.394-23.689-23.875l0.08-0.997        c20.854,1.657,24.628,24.846,24.663,25.081l0.055,0.355l-0.319,0.164C331.533,82.571,319.412,88.687,303.644,88.688z" />
          </g>
          <g>
            <path style="fill:#152F47;" d="M303.671,68.302c-1.938,0-3.344-0.525-3.544-0.604l-0.368-0.145l0.055-0.393l4.089-28.136        l6.329,0.919l-4.077,28.063l-0.341,0.072C305.056,68.241,304.332,68.302,303.671,68.302z M300.863,66.893        c0.723,0.219,2.417,0.615,4.403,0.274l3.832-26.377l-4.351-0.632L300.863,66.893z" />
          </g>
          <g>
            <path style="fill:#152F47;" d="M304.047,68.175c-4.409,0-7.734-1.538-7.734-3.578c0-1.487,1.799-2.753,4.693-3.304        l0.188,0.982c-2.285,0.435-3.881,1.389-3.881,2.321c0,1.219,2.766,2.578,6.734,2.578c3.969,0,6.734-1.359,6.734-2.578        c0-0.993-1.806-1.999-4.293-2.392l0.156-0.987c3.12,0.493,5.137,1.819,5.137,3.379        C311.781,66.637,308.456,68.175,304.047,68.175z" />
          </g>
        </g>
        <g>
          <g>
            <g>
              <path style="fill:#B3E1F4;" d="M333.435,77.513c-0.612-0.221-6.129,3.017-12.761,4.379         c-7.308,1.502-15.768,1.589-15.768,1.589s-8.462-0.087-15.769-1.589c-6.633-1.362-12.148-4.6-12.762-4.379         c-2.043,0.736-3.434,7.624-2.288,9.125c1.145,1.502,6.704,6.04,30.818,6.04c24.114,0,29.673-4.538,30.818-6.04         C336.868,85.137,335.478,78.249,333.435,77.513z" />
            </g>
            <g>
              <path style="fill:#92D5EA;" d="M335.724,82.282c-1.145,1.502-6.704,6.04-30.818,6.04c-24.114,0-29.674-4.538-30.818-6.04         c-0.043-0.056-0.074-0.133-0.11-0.203c-0.4,1.91-0.435,3.844,0.11,4.559c1.145,1.502,6.704,6.04,30.818,6.04         c24.114,0,29.673-4.538,30.818-6.04c0.545-0.715,0.511-2.648,0.11-4.559C335.799,82.149,335.767,82.227,335.724,82.282z" />
            </g>
          </g>
          <g>
            <path style="fill:#152F47;" d="M304.905,93.178c-23.885,0-29.787-4.362-31.216-6.237c-0.815-1.069-0.57-3.912,0.095-6.168        c0.352-1.194,1.134-3.267,2.421-3.731c0.393-0.143,0.903,0.066,2.786,0.88c2.27,0.98,6.067,2.621,10.246,3.479        c7.174,1.475,15.589,1.578,15.673,1.579c0.074-0.001,8.488-0.104,15.663-1.579c4.179-0.858,7.977-2.5,10.246-3.48        c1.883-0.813,2.392-1.021,2.785-0.879l0,0c1.286,0.463,2.068,2.534,2.42,3.727c0.666,2.257,0.913,5.101,0.097,6.171        C334.691,88.816,328.786,93.178,304.905,93.178z M276.448,78.002c-0.522,0.204-1.212,1.381-1.705,3.054        c-0.714,2.424-0.71,4.687-0.259,5.278c1.045,1.371,6.325,5.843,30.421,5.843c24.092,0,29.375-4.473,30.421-5.843        c0.452-0.592,0.455-2.857-0.261-5.282c-0.477-1.619-1.14-2.773-1.743-3.046c-0.287,0.048-1.211,0.447-2.107,0.833        c-2.305,0.996-6.162,2.663-10.441,3.542c-7.271,1.495-15.779,1.598-15.864,1.599c-0.095-0.001-8.604-0.104-15.874-1.599        c-4.279-0.879-8.137-2.545-10.441-3.541C277.653,78.434,276.68,78.013,276.448,78.002z" />
          </g>
        </g>
      </g>
      <g>
        <g>
          <g>
            <path style="fill:#152F47;" d="M293.036,109.127c0,0,0.043-0.277,0.285-0.588c0.124-0.156,0.291-0.327,0.521-0.452        c0.228-0.131,0.513-0.219,0.816-0.218c0.153-0.005,0.297,0.034,0.442,0.067c0.143,0.028,0.263,0.118,0.383,0.175        c0.223,0.149,0.389,0.322,0.49,0.499c0.121,0.158,0.155,0.328,0.194,0.433c0.032,0.11,0.04,0.178,0.04,0.178        s-0.064-0.024-0.169-0.069c-0.108-0.043-0.23-0.121-0.391-0.181c-0.149-0.074-0.322-0.129-0.49-0.189        c-0.171-0.03-0.334-0.082-0.504-0.066c-0.168-0.021-0.345,0.024-0.524,0.058c-0.181,0.039-0.353,0.1-0.518,0.149        C293.265,109.045,293.036,109.127,293.036,109.127z" />
          </g>
          <g>
            <path style="fill:#152F47;" d="M313.87,108.881c0,0,0.071-0.271,0.35-0.557c0.136-0.143,0.321-0.292,0.563-0.395        c0.236-0.104,0.531-0.164,0.832-0.131c0.152,0.01,0.292,0.066,0.435,0.108c0.14,0.047,0.246,0.147,0.362,0.214        c0.204,0.175,0.354,0.365,0.435,0.549c0.103,0.17,0.122,0.342,0.15,0.449c0.02,0.115,0.023,0.181,0.023,0.181        s-0.064-0.028-0.163-0.086c-0.1-0.049-0.219-0.144-0.37-0.218c-0.145-0.088-0.308-0.166-0.467-0.241        c-0.171-0.049-0.324-0.116-0.496-0.117c-0.167-0.035-0.348-0.01-0.527,0.004c-0.183,0.021-0.362,0.064-0.53,0.098        C314.108,108.822,313.87,108.881,313.87,108.881z" />
          </g>
        </g>
        <g>
          <g>
            <g>
              <path style="fill:#152F47;" d="M297.646,115.895c0,1.739-1.409,3.148-3.149,3.148c-1.74,0-3.149-1.409-3.149-3.148         c0-1.739,1.409-3.148,3.149-3.148C296.237,112.746,297.646,114.155,297.646,115.895z" />
            </g>
            <g>
              <g>
                <path style="fill:#FFFFFF;" d="M294.371,114.741c0,0.448-0.364,0.813-0.815,0.813c-0.449,0-0.813-0.365-0.813-0.813          c0-0.45,0.363-0.814,0.813-0.814C294.007,113.927,294.371,114.291,294.371,114.741z" />
              </g>
              <g>
                <path style="fill:#FFFFFF;" d="M293.155,116.306c0,0.228-0.185,0.412-0.412,0.412c-0.227,0-0.411-0.185-0.411-0.412          c0-0.228,0.185-0.411,0.411-0.411C292.971,115.895,293.155,116.078,293.155,116.306z" />
              </g>
            </g>
          </g>
          <g>
            <path style="fill:#152F47;" d="M318.654,115.271c0.284,0.564,0.468,1.178,0.537,1.76c0.082,0.711-1.031,0.703-1.111,0        c-0.182-1.557-1.243-2.852-2.888-2.83c-1.667,0.021-2.415,1.898-2.381,3.28c0.017,0.717-1.094,0.715-1.113,0        c-0.054-2.207,1.105-4.416,3.494-4.392c0.792,0.009,1.56,0.286,2.142,0.683C318.166,114.407,318.654,115.271,318.654,115.271z        " />
          </g>
        </g>
        <g>
          <g>
            <path style="fill:#FF81CE;" d="M295.693,122.688c0,1.403-1.137,2.54-2.541,2.54c-1.402,0-2.541-1.137-2.541-2.54        s1.139-2.541,2.541-2.541C294.557,120.146,295.693,121.284,295.693,122.688z" />
          </g>
          <g>
            <path style="fill:#FF81CE;" d="M319.444,122.688c0,1.403-1.137,2.54-2.541,2.54c-1.402,0-2.54-1.137-2.54-2.54        s1.138-2.541,2.54-2.541C318.308,120.146,319.444,121.284,319.444,122.688z" />
          </g>
        </g>
        <g>
          <g>
            <path style="fill:#152F47;" d="M300.876,116.848c0.433,1.187,1.169,2.342,2.244,3.031c2.268,1.453,4.43-1.273,5.52-2.913        c0.352-0.528-0.499-1.02-0.848-0.496c-0.997,1.501-2.825,3.895-4.687,2.164c-0.572-0.532-1.016-1.311-1.283-2.046        C301.607,115.998,300.659,116.253,300.876,116.848L300.876,116.848z" />
          </g>
        </g>
      </g>
    </g>
    <g>
      <g>
        <path style="fill:#FFFFFF;" d="M282.15,97.024c1.254,10.06,2.509,20.12,3.763,30.18c0.177,1.424,0.355,2.848,0.533,4.272      c0.098,0.788,1.35,0.798,1.25,0c-1.254-10.06-2.509-20.12-3.763-30.18c-0.177-1.424-0.355-2.848-0.533-4.272      C283.302,96.236,282.051,96.226,282.15,97.024L282.15,97.024z" />
      </g>
      <path style="fill:#FFFFFF;" d="M288.493,134.583c0,0.437-0.355,0.792-0.792,0.792c-0.437,0-0.792-0.354-0.792-0.792     c0-0.437,0.354-0.792,0.792-0.792C288.138,133.791,288.493,134.146,288.493,134.583z" />
    </g>
  </g>
</svg>