<?xml version='1.0' encoding='utf-8'?>
<svg xmlns="http://www.w3.org/2000/svg" version="1.1" viewBox="-77.252 -77.083 362.296 399.567" width="362.296" height="399.567">
  <g>
    <g>
      <g>
        <g>
          <g>
            <rect x="205.169" y="245.349" style="fill:#F8E5E5;" width="52.373" height="66.083" />
          </g>
          <g>
            <polygon style="fill:#F8E5E5;" points="271.288,217.182 257.542,245.349 257.542,311.431 283.932,289.906 283.932,231.654               " />
          </g>
          <g>
            <rect x="218.915" y="208.004" style="fill:#F8E5E5;" width="52.373" height="9.178" />
          </g>
          <g>
            <path style="fill:#B3E1F4;" d="M205.169,275.044c0,0,8.374-4.72,25.425,1.066c17.052,5.785,24.816,0.026,26.948-2.88v-27.881        h-52.373V275.044z" />
          </g>
          <g>
            <path style="fill:#89D6E8;" d="M257.542,273.23c0,0,2.03-7.937,9.744-8.923c7.714-0.986,7.511,3.524,16.646-0.862v-31.791        l-12.644-14.471l-13.746,28.166V273.23z" />
          </g>
          <g style="opacity:0.2;">
            <path style="fill:#D3A1A1;" d="M248.773,245.349c1.912,6.765,4.895,14.239,4.895,22.107c0,17.998-5.554,33.971-14.134,43.975        h18.008v-66.083H248.773z" />
          </g>
          <g>
            <g>
              <polygon style="fill:#9EDEF2;" points="271.288,217.182 218.915,217.182 205.169,245.349 257.542,245.349        " />
            </g>
          </g>
          <g style="opacity:0.25;">
            <path style="fill:#FFFFFF;" d="M207.632,240.301c2.719,0.844,5.699,1.312,8.826,1.312c12.744,0,23.076-7.739,23.076-17.286        c0-2.549-0.743-4.967-2.065-7.146h-18.555L207.632,240.301z" />
          </g>
          <g style="opacity:0.25;">
            <path style="fill:#FFFFFF;" d="M205.169,292.927c0.6,0.051,1.203,0.085,1.814,0.085c13.285,0,24.055-12.203,24.055-27.255        c0-8.125-3.141-15.414-8.118-20.408h-17.751V292.927z" />
          </g>
        </g>
        <g>
          <g>
            <path style="fill:#EAA7A7;" d="M247.747,262.491l-0.963-0.963l0.995-1.016c0.71-0.753,1.055-1.566,1.026-2.424        c-0.031-0.86-0.458-1.667-1.219-2.354c-0.482-0.462-0.976-0.761-1.518-0.917c-0.708-0.202-1.464-0.131-2.124,0.2        c-0.247,0.123-0.484,0.28-0.725,0.483c-0.029-0.023-0.059-0.045-0.088-0.067c-0.553-0.402-1.25-0.598-2.133-0.598        c-0.873,0-1.567,0.191-2.116,0.582c-0.627,0.444-1.05,1.097-1.191,1.837c-0.06,0.314-0.091,0.639-0.091,0.967v3.604        c-0.142-0.012-0.278-0.035-0.425-0.035h-0.898v-3.557c0-0.335-0.03-0.665-0.091-0.979c-0.139-0.728-0.55-1.373-1.161-1.82        c-0.553-0.402-1.25-0.598-2.133-0.598c-0.873,0-1.566,0.191-2.116,0.582c-0.012,0.008-0.021,0.02-0.033,0.028        c-0.005-0.004-0.009-0.008-0.014-0.012c-0.553-0.402-1.25-0.598-2.133-0.598c-0.827,0-1.488,0.178-2.026,0.529        c-0.281-0.18-0.59-0.32-0.943-0.404l-0.351-0.066c-0.563-0.081-1.218-0.056-1.675,0.038c-0.421,0.087-0.798,0.246-1.135,0.483        c-0.205,0.146-0.398,0.321-0.59,0.532l-0.951,1.213l-0.854-1.097l-0.085-0.103c-0.113-0.128-0.222-0.24-0.335-0.345        c-0.317-0.292-0.715-0.506-1.182-0.635c-0.326-0.09-0.698-0.132-1.173-0.132c-0.255,0-0.495,0.016-0.721,0.049l-0.35,0.067        c-0.396,0.096-0.743,0.251-1.047,0.468c-0.623,0.443-1.044,1.089-1.187,1.819c-0.061,0.313-0.092,0.64-0.092,0.97v6.596        c0,0.344,0.03,0.678,0.091,0.992c0.144,0.753,0.577,1.41,1.221,1.851c0.546,0.373,1.219,0.555,2.061,0.555        c0.856,0,1.538-0.181,2.086-0.555c0.602-0.412,1.021-1.014,1.191-1.712c0.249,0.023,0.515,0.023,0.763,0        c0.168,0.678,0.573,1.271,1.154,1.683c0.553,0.393,1.242,0.584,2.106,0.584c0.819,0,1.474-0.17,2.009-0.512        c0.535,0.348,1.189,0.524,2.005,0.524c0.873,0,1.566-0.191,2.115-0.582c0.014-0.01,0.024-0.023,0.038-0.033        c0.013,0.009,0.023,0.022,0.036,0.031c0.552,0.393,1.241,0.584,2.106,0.584h4.282c0.303,0,0.604-0.029,0.91-0.089        c0.347-0.071,0.675-0.208,0.969-0.4c0.524,0.323,1.158,0.489,1.943,0.489c0.873,0,1.566-0.191,2.119-0.584        c0.04-0.029,0.08-0.058,0.118-0.089c0.185,0.163,0.373,0.3,0.566,0.413c0.44,0.258,0.93,0.389,1.429,0.389        c0.267,0,0.538-0.037,0.806-0.114c0.468-0.135,0.933-0.391,1.455-0.808c0.822-0.682,1.277-1.466,1.352-2.336        C248.885,264.458,248.741,263.485,247.747,262.491z" />
          </g>
          <g>
            <g>
              <path style="fill:#F8E5E5;" d="M217.273,265.993c-0.375,0-0.644-0.056-0.805-0.167c-0.162-0.111-0.26-0.255-0.294-0.435         c-0.034-0.179-0.051-0.371-0.051-0.576v-6.596c0-0.188,0.017-0.369,0.051-0.544c0.034-0.175,0.132-0.319,0.294-0.434         c0.162-0.115,0.439-0.173,0.831-0.173c0.264,0,0.458,0.017,0.582,0.052c0.124,0.034,0.213,0.076,0.268,0.127         c0.055,0.052,0.113,0.111,0.173,0.179l2.646,3.4h-0.076l2.633-3.387c0.085-0.094,0.164-0.166,0.237-0.218         c0.073-0.051,0.171-0.09,0.294-0.115c0.124-0.025,0.301-0.038,0.531-0.038c0.383,0,0.656,0.058,0.818,0.173         c0.162,0.115,0.26,0.262,0.294,0.441c0.034,0.179,0.051,0.366,0.051,0.562v6.596c0,0.188-0.017,0.371-0.051,0.55         c-0.034,0.179-0.132,0.324-0.294,0.435c-0.162,0.111-0.439,0.167-0.831,0.167c-0.383,0-0.656-0.058-0.818-0.173         c-0.162-0.115-0.26-0.264-0.294-0.447c-0.034-0.183-0.051-0.369-0.051-0.557v-3.63l-1.495,2.032         c-0.034,0.043-0.085,0.107-0.154,0.192c-0.068,0.085-0.166,0.162-0.294,0.23c-0.128,0.068-0.307,0.103-0.537,0.103         c-0.23,0-0.411-0.034-0.543-0.103c-0.132-0.068-0.233-0.143-0.301-0.224c-0.068-0.081-0.119-0.147-0.153-0.198l-1.483-2.019         v3.643c0,0.188-0.017,0.371-0.051,0.55c-0.034,0.179-0.132,0.324-0.294,0.435         C217.942,265.937,217.665,265.993,217.273,265.993z" />
            </g>
            <g>
              <path style="fill:#F8E5E5;" d="M228.586,266.005c-0.383,0-0.657-0.057-0.818-0.172c-0.162-0.115-0.26-0.264-0.294-0.448         c-0.034-0.183-0.051-0.368-0.051-0.556v-6.609c0-0.188,0.017-0.371,0.051-0.55c0.034-0.179,0.132-0.326,0.294-0.441         c0.162-0.115,0.439-0.173,0.831-0.173c0.392,0,0.667,0.058,0.824,0.173c0.158,0.115,0.253,0.262,0.287,0.441         c0.034,0.179,0.052,0.367,0.052,0.563v6.609c0,0.188-0.017,0.371-0.052,0.55c-0.034,0.179-0.132,0.326-0.294,0.441         C229.255,265.948,228.978,266.005,228.586,266.005z" />
            </g>
            <g>
              <path style="fill:#F8E5E5;" d="M232.881,266.005c-0.383,0-0.656-0.057-0.818-0.172c-0.162-0.115-0.26-0.264-0.294-0.448         c-0.034-0.183-0.051-0.368-0.051-0.556v-6.609c0-0.188,0.017-0.371,0.051-0.55c0.034-0.179,0.132-0.326,0.294-0.441         c0.162-0.115,0.439-0.173,0.831-0.173c0.392,0,0.667,0.058,0.825,0.173c0.157,0.115,0.253,0.262,0.287,0.441         c0.034,0.179,0.051,0.367,0.051,0.563v5.778h3.12c0.162,0,0.317,0.013,0.466,0.038c0.149,0.026,0.273,0.109,0.37,0.25         c0.098,0.141,0.147,0.377,0.147,0.71c0,0.324-0.051,0.556-0.153,0.697c-0.102,0.141-0.228,0.226-0.378,0.256         c-0.149,0.029-0.305,0.044-0.466,0.044H232.881z" />
            </g>
            <g>
              <path style="fill:#F8E5E5;" d="M240.986,266.005c-0.384,0-0.656-0.057-0.818-0.172c-0.162-0.115-0.26-0.264-0.294-0.448         c-0.034-0.183-0.051-0.368-0.051-0.556v-6.609c0-0.188,0.017-0.371,0.051-0.55c0.034-0.179,0.132-0.326,0.294-0.441         c0.162-0.115,0.439-0.173,0.831-0.173c0.392,0,0.667,0.058,0.824,0.173c0.158,0.115,0.253,0.262,0.288,0.441         c0.034,0.179,0.051,0.367,0.051,0.563v1.764l2.224-2.544c0.196-0.213,0.379-0.362,0.55-0.447         c0.17-0.085,0.345-0.102,0.524-0.052c0.179,0.052,0.375,0.179,0.588,0.383c0.349,0.316,0.528,0.593,0.537,0.831         c0.008,0.239-0.132,0.512-0.422,0.819l-2.505,2.556l2.518,2.518c0.315,0.315,0.462,0.599,0.441,0.85         c-0.022,0.252-0.207,0.522-0.556,0.812c-0.256,0.204-0.473,0.332-0.652,0.383c-0.179,0.051-0.345,0.032-0.498-0.057         c-0.154-0.09-0.324-0.245-0.512-0.467l-2.237-2.544v1.802c0,0.188-0.017,0.371-0.051,0.55         c-0.034,0.179-0.132,0.326-0.294,0.441C241.655,265.948,241.378,266.005,240.986,266.005z" />
            </g>
          </g>
        </g>
        <g>
          <g>
            <path style="fill:#89D6E8;" d="M261.852,263.223c0,0,2.45,1.673,1.646,5.575c-0.804,3.903-2.531,7.877,1.024,7.427        c3.555-0.45-1.16-12.789,1.262-14.256L261.852,263.223z" />
          </g>
          <g>
            <path style="fill:#89D6E8;" d="M266.397,263.646c0,0,2.657,2.148,2.202,7.459c-0.59,6.888-1.073,11.938,3.283,9.936        c5.332-2.45-3.466-17.109-0.226-19.071L266.397,263.646z" />
          </g>
        </g>
        <g>
          <path style="fill:#152F47;" d="M258.042,311.932h-53.373v-67.083h53.373V311.932z M205.669,310.932h51.373v-65.083h-51.373       V310.932z" />
        </g>
        <g>
          <path style="fill:#152F47;" d="M257.854,245.849h-53.486l14.233-29.166h53.487L257.854,245.849z M205.969,244.849h51.26       l13.258-27.166h-51.26L205.969,244.849z" />
        </g>
        <g>
          <path style="fill:#152F47;" d="M271.788,217.683h-53.374v-10.178h53.374V217.683z M219.415,216.683h51.374v-8.178h-51.374       V216.683z" />
        </g>
        <g>
          <path style="fill:#152F47;" d="M257.042,312.484v-67.252l0.051-0.104l14.076-28.843l13.263,15.179v58.678l-0.184,0.15       L257.042,312.484z M258.042,245.464v64.915l25.39-20.71v-57.828l-12.024-13.762L258.042,245.464z" />
        </g>
        <g>
          <rect x="255.871" y="238.001" transform="matrix(0.8875 -0.4609 0.4609 0.8875 -79.452 151.6165)" style="fill:#152F47;" width="29.732" height="1" />
        </g>
        <g>
          <polygon style="fill:#152F47;" points="272.049,254.641 257.42,247.326 257.867,246.431 271.658,253.326 283.5,233.025        284.363,233.529      " />
        </g>
        <g>
          <rect x="271.353" y="253.983" style="fill:#152F47;" width="1" height="45.774" />
        </g>
      </g>
      <g>
        <g>
          <g>
            <path style="fill:#FFFFFF;" d="M219.769,222.978c-2.3,4.704-4.6,9.409-6.9,14.113c-0.33,0.675-0.66,1.35-0.99,2.026        c-0.337,0.689,0.694,1.296,1.033,0.604c2.3-4.704,4.6-9.409,6.9-14.113c0.33-0.675,0.66-1.35,0.99-2.026        C221.139,222.893,220.108,222.286,219.769,222.978L219.769,222.978z" />
          </g>
        </g>
        <g>
          <g>
            <g>
              <path style="fill:#FFFFFF;" d="M207.92,248.401c0,4.224,0,8.448,0,12.671c0,0.597,0,1.195,0,1.792         c0,0.77,1.196,0.771,1.196,0c0-4.224,0-8.448,0-12.671c0-0.597,0-1.195,0-1.792         C209.116,247.631,207.92,247.63,207.92,248.401L207.92,248.401z" />
            </g>
          </g>
          <g>
            <circle style="fill:#FFFFFF;" cx="208.518" cy="265.148" r="0.533" />
          </g>
        </g>
      </g>
    </g>
    <g>
      <g>
        <g>
          <g>
            <g>
              <path style="fill:#152F47;" d="M220.286,290.71c0,3.262-1.766,5.906-3.945,5.906c-2.179,0-3.945-2.644-3.945-5.906         c0-3.262,1.766-5.906,3.945-5.906C218.519,284.804,220.286,287.448,220.286,290.71z" />
            </g>
            <g>
              <g>
                <path style="fill:#FFFFFF;" d="M217.146,288.288c0,0.905-0.733,1.638-1.638,1.638c-0.905,0-1.638-0.733-1.638-1.638          c0-0.905,0.733-1.638,1.638-1.638C216.413,286.65,217.146,287.383,217.146,288.288z" />
              </g>
              <g>
                <circle style="fill:#FFFFFF;" cx="217.733" cy="290.895" r="1.078" />
              </g>
            </g>
          </g>
          <g>
            <g>
              <path style="fill:#152F47;" d="M250.316,290.71c0,3.262-1.766,5.906-3.945,5.906c-2.179,0-3.945-2.644-3.945-5.906         c0-3.262,1.766-5.906,3.945-5.906C248.549,284.804,250.316,287.448,250.316,290.71z" />
            </g>
            <g>
              <g>
                <path style="fill:#FFFFFF;" d="M247.176,288.288c0,0.905-0.733,1.638-1.638,1.638c-0.905,0-1.638-0.733-1.638-1.638          c0-0.905,0.733-1.638,1.638-1.638C246.442,286.65,247.176,287.383,247.176,288.288z" />
              </g>
              <g>
                <path style="fill:#FFFFFF;" d="M248.841,290.895c0,0.595-0.483,1.078-1.078,1.078s-1.078-0.483-1.078-1.078          c0-0.595,0.483-1.078,1.078-1.078S248.841,290.299,248.841,290.895z" />
              </g>
            </g>
          </g>
        </g>
        <g>
          <path style="fill:#152F47;" d="M236.862,293.132c-0.051,1.504-0.765,3.347-2.505,3.45c-1.73,0.102-2.459-2.104-2.505-3.45       c-0.011-0.305-0.26-0.451-0.497-0.444c-0.237-0.007-0.486,0.139-0.496,0.444c-0.051,1.504-0.766,3.347-2.505,3.45       c-1.732,0.102-2.459-2.104-2.505-3.45c-0.021-0.595-0.946-0.597-0.926,0c0.07,2.052,1.157,4.241,3.431,4.375       c1.492,0.088,2.476-1.041,2.995-2.348c0.513,1.261,1.495,2.259,3.007,2.348c2.267,0.135,3.368-2.535,3.43-4.375       C237.808,292.535,236.882,292.537,236.862,293.132z" />
        </g>
      </g>
      <g>
        <g>
          <path style="fill:#FF81CE;" d="M217.569,297.467c-0.304,0.798-2.401,0.738-4.684-0.133c-2.283-0.871-3.886-2.223-3.582-3.021       c0.304-0.798,2.401-0.738,4.684,0.133S217.874,296.67,217.569,297.467z" />
        </g>
        <g>
          <path style="fill:#FF81CE;" d="M245.142,297.467c0.304,0.798,2.401,0.738,4.684-0.133c2.283-0.871,3.886-2.223,3.582-3.021       c-0.304-0.798-2.401-0.738-4.684,0.133C246.441,295.317,244.837,296.67,245.142,297.467z" />
        </g>
      </g>
    </g>
  </g>
</svg>