<?xml version='1.0' encoding='utf-8'?>
<svg xmlns="http://www.w3.org/2000/svg" xmlns:ns1="http://www.w3.org/1999/xlink" version="1.1" viewBox="-75.814 -41.851 492.03 517.877" width="492.03" height="517.877">
  <g>
    <g>
      <g>
        <g>
          <g>
            <g>
              <path style="fill:#FFB7A0;" d="M248.941,464.57c0.015,0.526-0.404,0.957-0.93,0.957h-6.922c-0.526,0-0.945-0.431-0.93-0.957         l1.86-65.813c0.015-0.526,0.458-0.957,0.984-0.957h3.094c0.526,0,0.969,0.43,0.984,0.957L248.941,464.57z" />
            </g>
            <g>
              <defs>
                <path id="SVGID_00000183951223563497238980000002109752726762097855_" d="M248.941,464.57          c0.015,0.526-0.404,0.957-0.93,0.957h-6.922c-0.526,0-0.945-0.431-0.93-0.957l1.86-65.813          c0.015-0.526,0.458-0.957,0.984-0.957h3.094c0.526,0,0.969,0.43,0.984,0.957L248.941,464.57z" />
              </defs>
              <clipPath id="SVGID_00000077283390850352620270000016565942273561310141_">
                <use ns1:href="#SVGID_00000183951223563497238980000002109752726762097855_" style="overflow:visible;" />
              </clipPath>
              <g style="clip-path:url(#SVGID_00000077283390850352620270000016565942273561310141_);">
                <g>
                  <path style="fill:#F4987F;" d="M243.041,441.413c-0.771-1.517-1.752-3.931-3.294-4.861           c-1.616-0.975-1.725,1.872-1.721,2.783c0.016,3.748,0.976,7.554,1.849,11.174c1.198,4.965,3.032,9.842,3.657,14.923           c0.302,2.457,0.407,4.931,0.458,7.405c0.017,0.817-0.27,2.551,0.251,3.276c0.267,0.372,0.89,0.014,0.62-0.362           c-0.375-0.522-0.136-2.047-0.148-2.654c-0.036-1.806-0.092-3.611-0.236-5.412c-0.324-4.047-1.348-7.813-2.432-11.704           c-1.012-3.633-1.947-7.299-2.633-11.01c-0.297-1.605-0.559-3.226-0.644-4.858c-0.025-0.478-0.254-2.711,0.329-3.004           c0.653-0.327,2.126,2.465,2.367,2.884c1.271,2.215,2.331,4.561,3.274,6.931c0.871,2.19,1.7,4.45,2.148,6.77           c0.124,0.64,0.529,3.589-0.812,2.153c-1.678-1.796-2.535-4.687-3.381-6.933c-0.628-1.666-1.218-3.35-1.75-5.05           c-0.138-0.439-0.831-0.252-0.692,0.191c0.532,1.699,1.122,3.383,1.75,5.05c0.878,2.332,1.762,4.954,3.312,6.941           c0.805,1.031,2.192,1.409,2.444-0.236c0.308-2.017-0.656-4.414-1.291-6.278           C245.519,446.754,244.371,444.028,243.041,441.413z" />
                </g>
                <g>
                  <path style="fill:#F4987F;" d="M250.427,443.569c-0.666-4.501-1.615-8.967-2.7-13.384           c-1.079-4.392-2.272-8.804-3.952-13.01c-0.568-1.422-1.178-2.879-2.055-4.143c-0.446-0.642-1.089-1.489-1.948-1.538           c-2.699-0.153-1.576,4.788-1.275,6.09c1.043,4.507,2.868,8.854,4.691,13.092c1.395,3.242,2.872,6.451,4.432,9.616           c0.084,0.17,0.168,0.341,0.253,0.51c0.207,0.413,0.826,0.05,0.62-0.362c-3.003-5.989-5.8-12.165-7.967-18.508           c-0.623-1.824-1.203-3.68-1.555-5.578c-0.194-1.046-0.557-2.697,0.055-3.683c1.148-1.851,3.092,2.478,3.402,3.157           c1.66,3.625,2.765,7.527,3.793,11.369c1.141,4.263,2.115,8.576,2.908,12.918c0.527,2.889,1.219,5.986,1.081,8.943           c-0.009,0.195-0.007,0.555-0.095,0.742c-0.091-0.053-0.176-0.133-0.243-0.205c-0.887-0.954-1.476-2.24-2.057-3.391           c-3.498-6.942-6.204-14.333-8.896-21.618c-0.063-0.171-0.126-0.342-0.189-0.513c-0.158-0.43-0.851-0.244-0.692,0.191           c2.601,7.111,5.298,14.254,8.563,21.089c0.302,0.632,2.68,6.292,4.004,5.016c0.5-0.482,0.339-1.698,0.314-2.299           C250.855,446.563,250.648,445.059,250.427,443.569z" />
                </g>
                <g>
                  <path style="fill:#F4987F;" d="M253.578,413.81c-0.973-4.075-2.208-8.119-3.837-11.982           c-0.659-1.563-1.379-3.124-2.305-4.549c-0.564-0.868-1.257-1.862-2.212-2.336c-2.186-1.085-2.395,1.551-2.163,3.017           c0.543,3.424,2.007,6.759,3.35,9.93c1.136,2.682,2.35,5.332,3.634,7.947c0.073,0.148,0.146,0.297,0.22,0.444           c0.206,0.413,0.826,0.05,0.62-0.362c-2.398-4.797-4.689-9.758-6.306-14.877c-0.248-0.785-1.928-5.549-0.211-5.612           c0.865-0.032,1.655,1.082,2.093,1.689c0.863,1.193,1.528,2.534,2.136,3.87c1.619,3.557,2.814,7.323,3.808,11.098           c0.867,3.29,1.665,6.693,1.849,10.101c0.046,0.839,0.209,2.144-0.246,2.913c-0.362,0.613-0.902,0.207-1.355-0.143           c-2.258-1.747-3.882-4.583-5.416-6.935c-2.227-3.414-4.292-6.933-6.334-10.46c-0.75-1.296-1.491-2.597-2.253-3.886           c-0.278-0.471-0.592-1.277-1.07-1.589c-0.388-0.253-0.748,0.368-0.362,0.62c-0.087-0.057,0.199,0.318,0.281,0.449           c0.252,0.398,0.488,0.808,0.727,1.214c0.761,1.299,1.508,2.606,2.263,3.908c2.014,3.474,4.053,6.939,6.255,10.299           c1.569,2.395,3.271,5.373,5.647,7.077c1.695,1.216,2.485-0.226,2.59-1.862C255.192,420.485,254.34,416.998,253.578,413.81z           " />
                </g>
              </g>
            </g>
          </g>
          <g style="opacity:0.4;">
            <path style="fill:#E8775D;" d="M247.081,398.757c-0.015-0.526-0.458-0.957-0.984-0.957h-2.871c0.526,0,0.969,0.43,0.984,0.957        l1.86,65.813c0.015,0.526-0.404,0.957-0.93,0.957h2.871c0.526,0,0.945-0.431,0.93-0.957L247.081,398.757z" />
          </g>
          <g>
            <path style="fill:#152F47;" d="M248.011,466.026h-6.922c-0.391,0-0.755-0.153-1.027-0.433        c-0.271-0.279-0.414-0.648-0.403-1.038l1.86-65.813c0.023-0.796,0.688-1.442,1.484-1.442h3.094        c0.795,0,1.461,0.646,1.484,1.441l1.86,65.814c0.011,0.39-0.133,0.759-0.404,1.037        C248.767,465.873,248.402,466.026,248.011,466.026z M243.003,398.301c-0.255,0-0.477,0.215-0.484,0.47l-1.86,65.814        c-0.003,0.118,0.039,0.229,0.12,0.313c0.081,0.084,0.191,0.13,0.31,0.13h6.922c0.118,0,0.228-0.046,0.31-0.13        c0.081-0.083,0.124-0.194,0.121-0.313l-1.86-65.814c-0.007-0.254-0.229-0.47-0.484-0.47H243.003z" />
          </g>
        </g>
        <g>
          <g>
            <g>
              <g>
                <g>
                  <ellipse transform="matrix(0.9208 -0.3901 0.3901 0.9208 -126.9832 125.1255)" style="fill:#F1C1F7;" cx="244.55" cy="375.178" rx="31.35" ry="31.35" />
                </g>
                <g>
                  <defs>
                    <ellipse id="SVGID_00000089574839292855662180000009886528226906600889_" transform="matrix(0.9208 -0.3901 0.3901 0.9208 -126.9832 125.1255)" cx="244.55" cy="375.178" rx="31.35" ry="31.35" />
                  </defs>
                  <clipPath id="SVGID_00000129923871208168148540000014187341719882232756_">
                    <use ns1:href="#SVGID_00000089574839292855662180000009886528226906600889_" style="overflow:visible;" />
                  </clipPath>
                  <g style="clip-path:url(#SVGID_00000129923871208168148540000014187341719882232756_);">
                    <g>
                      <path style="fill:#FBE6FF;" d="M259.3,342.163c-4.616,0.091-9.372,1.131-13.74,2.555             c-8.974,2.924-17.102,8.288-22.33,16.267c-2.983,4.553-4.982,9.903-4.787,15.407c0.177,4.987,2.056,9.655,5.159,13.532             c6.093,7.613,16.68,11.173,26.125,8.767c9.565-2.437,17.716-10.406,19.373-20.252c1.138-6.758,0.063-14.882-5.611-19.403             c-7.34-5.848-18.203-5.286-25.516,0.307c-4.315,3.3-7.862,8.231-8.509,13.723c-0.523,4.435,1.339,8.956,4.803,11.767             c3.546,2.877,8.339,3.951,12.749,2.631c5.025-1.504,9.205-5.873,10.992-10.745c1.357-3.699,0.243-7.675-3.128-9.809             c-2.818-1.784-6.701-1.981-9.687-0.524c-1.365,0.666-2.6,1.811-3.214,3.215c-0.518,1.183-0.348,2.568,0.858,3.273             c1.014,0.593,2.753,0.332,3.273-0.858c0.127-0.29,0.28-0.553,0.453-0.818c-0.322,0.494,0.06-0.012,0.235-0.202             c0.407-0.441-0.296,0.085,0.256-0.181c0.135-0.065,0.285-0.149,0.411-0.229c0.422-0.266-0.428,0.139,0.013-0.014             c0.31-0.107,0.619-0.205,0.94-0.276c0.108-0.024,0.217-0.042,0.326-0.064c0.567-0.113-0.551,0.029,0.031,0.001             c0.284-0.014,0.565-0.033,0.85-0.027c0.229,0.004,1.215,0.145,0.56,0.023c0.339,0.063,0.673,0.13,1.004,0.228             c0.178,0.053,0.989,0.387,0.387,0.11c0.255,0.117,0.505,0.242,0.746,0.386c0.143,0.086,0.28,0.179,0.419,0.272             c0.454,0.304-0.355-0.345,0.033,0.036c0.142,0.139,0.783,0.905,0.399,0.361c0.16,0.227,0.291,0.464,0.431,0.703             c0.273,0.466-0.107-0.358-0.009-0.03c0.041,0.138,0.092,0.271,0.129,0.411c0.046,0.171,0.08,0.345,0.11,0.52             c-0.105-0.625-0.014-0.022-0.02,0.102c-0.008,0.195-0.008,0.392-0.015,0.588c-0.023,0.641,0.071-0.312-0.007,0.086             c-0.081,0.412-0.182,0.815-0.317,1.213c-0.231,0.683-0.725,1.583-1.269,2.407c-1.181,1.787-2.693,3.358-4.546,4.404             c-1.511,0.853-3.118,1.251-4.787,1.217c-0.247-0.005-0.492-0.021-0.738-0.039c-0.774-0.056,0.237,0.051-0.213-0.02             c-0.439-0.069-0.874-0.167-1.302-0.289c-0.971-0.276-1.199-0.375-2.074-0.882c-2.732-1.583-4.426-4.435-4.39-7.607             c0.044-3.965,2.884-8.057,6.021-10.739c2.898-2.477,6.692-3.865,10.238-4.006c3.569-0.141,6.67,0.663,9.609,2.708             c0.376,0.262,0.976,0.778,1.548,1.379c0.133,0.14,0.261,0.284,0.39,0.427c0.013,0.014,0.489,0.602,0.208,0.234             c0.178,0.233,0.342,0.476,0.496,0.726c0.27,0.439,0.488,0.899,0.711,1.363c0.151,0.314-0.218-0.565-0.021-0.054             c0.06,0.156,0.122,0.311,0.18,0.467c0.121,0.328,0.232,0.661,0.333,0.996c0.192,0.631,0.351,1.273,0.482,1.919             c0.073,0.36,0.134,0.721,0.192,1.084c0.073,0.46,0.011,0.065-0.001-0.024c0.035,0.278,0.065,0.556,0.09,0.835             c0.146,1.636,0.12,3.281-0.064,4.913c-0.084,0.745,0.045-0.265-0.025,0.18c-0.031,0.196-0.062,0.391-0.097,0.586             c-0.078,0.435-0.168,0.868-0.271,1.298c-0.221,0.925-0.501,1.835-0.839,2.724c-0.216,0.568-0.528,1.246-0.94,2.008             c-0.513,0.95-1.095,1.877-1.756,2.732c-2.495,3.229-6.495,6.035-10.475,7.404c-7.605,2.615-16.143,0.372-21.718-5.366             c-2.693-2.771-4.515-6.225-5.088-10.151c-0.598-4.097,0.556-8.6,2.661-12.42c2.1-3.81,4.95-7.125,8.363-9.82             c2.744-2.167,6.586-4.262,9.617-5.458c2.985-1.178,6.087-2.061,9.238-2.667c0.595-0.115,1.192-0.219,1.791-0.314             c0.258-0.041,0.517-0.077,0.775-0.116c0.157-0.024,0.696-0.082-0.056,0.007c0.137-0.016,0.274-0.036,0.411-0.052             c0.766-0.088,1.533-0.169,2.303-0.219c0.278-0.018,0.557-0.035,0.835-0.041             C262.375,346.887,262.385,342.102,259.3,342.163L259.3,342.163z" />
                    </g>
                  </g>
                </g>
              </g>
              <g style="opacity:0.2;">
                <path style="fill:#D3A1A1;" d="M253.373,345.096c8.891,5.533,14.814,15.389,14.814,26.632          c0,17.314-14.036,31.35-31.35,31.35c-3.065,0-6.023-0.448-8.823-1.268c4.801,2.988,10.466,4.719,16.537,4.719          c17.314,0,31.35-14.036,31.35-31.35C275.901,360.929,266.39,348.908,253.373,345.096z" />
              </g>
            </g>
            <g style="opacity:0.25;">
              <ellipse transform="matrix(0.6232 -0.7821 0.7821 0.6232 -198.0792 320.2419)" style="fill:#FFFFFF;" cx="233.305" cy="365.686" rx="18.728" ry="13.888" />
            </g>
            <g>
              <g>
                <g>
                  <path style="fill:#FFFFFF;" d="M236.362,348.707c-1.815,0.64-3.55,1.779-5.119,2.862c-3.379,2.333-6.373,5.269-8.55,8.765           c-1.524,2.449-2.601,5.152-3.191,7.974c-0.157,0.751,0.996,1.072,1.154,0.318c1.648-7.88,7.322-14.185,14.297-17.925           c0.414-0.222,0.834-0.436,1.26-0.634c0.132-0.061,0.265-0.121,0.399-0.18c0.085-0.037-0.091,0.03,0.069-0.027           C237.401,349.606,237.091,348.45,236.362,348.707L236.362,348.707z" />
                </g>
              </g>
              <g>
                <path style="fill:#FFFFFF;" d="M220.682,371.438c0,0.46-0.373,0.834-0.833,0.834c-0.46,0-0.834-0.373-0.834-0.834          c0-0.46,0.373-0.834,0.834-0.834C220.308,370.605,220.682,370.978,220.682,371.438z" />
              </g>
            </g>
          </g>
          <g>
            <path style="fill:#152F47;" d="M244.55,407.028c-17.562,0-31.85-14.288-31.85-31.85c0-17.563,14.288-31.851,31.85-31.851        s31.85,14.288,31.85,31.851C276.4,392.74,262.112,407.028,244.55,407.028z M244.55,344.328        c-17.011,0-30.85,13.84-30.85,30.851c0,17.011,13.839,30.85,30.85,30.85c17.011,0,30.85-13.839,30.85-30.85        C275.4,358.168,261.561,344.328,244.55,344.328z" />
          </g>
        </g>
      </g>
      <g>
        <g>
          <g>
            <g>
              <g>
                <path style="fill:#EF6ABF;" d="M245.983,406.216c0,0,11.343-11.647,17.204-9.744c5.861,1.903,7.993,19.564,2.588,23.37          c-5.405,3.806-19.792-7.536-19.792-7.536V406.216z" />
              </g>
              <g>
                <path style="fill:#FFC9E2;" d="M246.45,408.443c0,0,9.962-7.301,10.647-5.297C257.782,405.15,246.45,408.443,246.45,408.443          z" />
              </g>
              <g>
                <path style="fill:#FFC9E2;" d="M246.777,409.859c0,0,14.25-2.882,13.96,1.305          C260.446,415.351,246.777,409.859,246.777,409.859z" />
              </g>
            </g>
            <g>
              <g>
                <path style="fill:#EF6ABF;" d="M243.118,406.216c0,0-11.342-11.647-17.204-9.744c-5.862,1.903-7.993,19.564-2.588,23.37          c5.405,3.806,19.792-7.536,19.792-7.536V406.216z" />
              </g>
              <g>
                <path style="fill:#FFC9E2;" d="M242.651,408.443c0,0-9.962-7.301-10.647-5.297          C231.319,405.15,242.651,408.443,242.651,408.443z" />
              </g>
              <g>
                <path style="fill:#FFC9E2;" d="M242.324,409.859c0,0-14.25-2.882-13.96,1.305          C228.655,415.351,242.324,409.859,242.324,409.859z" />
              </g>
            </g>
          </g>
          <g>
            <g>
              <path style="fill:#FF81CE;" d="M246.076,415.557h-3.051c-2.574,0-4.68-2.106-4.68-4.68v-3.051c0-2.574,2.106-4.68,4.68-4.68         h3.051c2.574,0,4.68,2.106,4.68,4.68v3.051C250.756,413.451,248.65,415.557,246.076,415.557z" />
            </g>
            <g>
              <path style="fill:#EF6ABF;" d="M248.673,403.857c0,0.014,0.003,0.029,0.003,0.043c0,4.66-4.171,8.544-9.704,9.422         c0.779,1.329,2.208,2.236,3.851,2.236h3.454c2.463,0,4.479-2.016,4.479-4.479v-3.454         C250.756,406.043,249.92,404.654,248.673,403.857z" />
            </g>
          </g>
        </g>
        <g>
          <path style="fill:#152F47;" d="M262.937,421.13c-4.002,0-9.445-3.004-13.846-5.973c-0.842,0.59-1.808,0.9-2.814,0.9h-3.454       c-1.006,0-1.972-0.31-2.813-0.9c-5.713,3.853-13.18,7.761-16.972,5.094c-3.184-2.242-3.804-8.575-3.007-13.857       c0.655-4.341,2.504-9.351,5.729-10.398c4.058-1.317,10.267,3.121,14.86,7.186c0.697-0.352,1.452-0.536,2.203-0.536h3.454       c0.763,0,1.503,0.18,2.204,0.535c4.593-4.064,10.802-8.499,14.859-7.185l0,0c3.226,1.048,5.075,6.059,5.729,10.398       c0.797,5.281,0.177,11.614-3.007,13.857C265.192,420.863,264.129,421.13,262.937,421.13z M249.05,413.921l0.308,0.209       c7.642,5.207,13.524,7.141,16.129,5.303c2.416-1.701,3.482-7.001,2.595-12.889c-0.768-5.083-2.749-8.85-5.05-9.597       c-2.829-0.915-7.99,1.711-14.149,7.215l-0.273,0.244l-0.316-0.188c-0.639-0.381-1.317-0.573-2.017-0.573h-3.454       c-0.699,0-1.377,0.192-2.016,0.573l-0.315,0.188l-0.273-0.244c-6.161-5.505-11.319-8.13-14.15-7.215       c-2.3,0.747-4.282,4.514-5.049,9.596c-0.888,5.889,0.179,11.188,2.595,12.89c2.607,1.84,8.487-0.097,16.129-5.303l0.308-0.21       l0.289,0.234c0.729,0.591,1.588,0.903,2.483,0.903h3.454c0.896,0,1.754-0.313,2.484-0.903L249.05,413.921z" />
        </g>
      </g>
    </g>
    <g>
      <g>
        <g>
          <g>
            <g>
              <path style="fill:#152F47;" d="M233.481,375.044c0,3.262-1.766,5.906-3.945,5.906c-2.179,0-3.945-2.644-3.945-5.906         s1.766-5.906,3.945-5.906C231.714,369.138,233.481,371.782,233.481,375.044z" />
            </g>
            <g>
              <g>
                <path style="fill:#FFFFFF;" d="M230.341,372.622c0,0.905-0.733,1.638-1.638,1.638c-0.905,0-1.638-0.733-1.638-1.638          c0-0.905,0.733-1.638,1.638-1.638C229.607,370.984,230.341,371.717,230.341,372.622z" />
              </g>
              <g>
                <path style="fill:#FFFFFF;" d="M232.006,375.229c0,0.595-0.483,1.078-1.078,1.078c-0.595,0-1.078-0.483-1.078-1.078          s0.483-1.078,1.078-1.078C231.524,374.151,232.006,374.633,232.006,375.229z" />
              </g>
            </g>
          </g>
          <g>
            <path style="fill:#152F47;" d="M262.12,377.445c-0.663-0.315-1.317-0.649-1.965-0.993c-0.573-0.303-1.141-0.617-1.698-0.948        c-0.261-0.155-0.519-0.314-0.773-0.48c-0.129-0.084-0.257-0.17-0.383-0.258c-0.06-0.042-0.118-0.085-0.177-0.127        c-0.013-0.009-0.043-0.032-0.07-0.052c-0.137-0.109-0.263-0.226-0.39-0.345c0.005-0.006,0.011-0.015,0.016-0.02        c0.081-0.086,0.166-0.167,0.253-0.246c0.794-0.725,1.862-1.401,2.911-2.055c0.749-0.467,1.507-0.921,2.276-1.351        c0.941-0.526,0.097-1.974-0.845-1.446c-1.887,1.056-3.864,2.178-5.479,3.626c-0.355,0.319-0.744,0.706-0.877,1.179        c-0.159,0.57,0.137,1.076,0.524,1.472c0.884,0.906,2.113,1.542,3.211,2.146c0.86,0.473,1.734,0.925,2.621,1.346        c0.408,0.194,0.904,0.113,1.146-0.3C262.634,378.226,262.531,377.64,262.12,377.445z M256.577,374.162        c-0.015-0.016-0.03-0.032-0.044-0.049c-0.002-0.003-0.004-0.004-0.006-0.007c-0.004-0.007-0.003-0.004-0.007-0.01        C256.581,374.155,256.591,374.172,256.577,374.162z M256.546,374.394c-0.008,0.025-0.024,0.054-0.059,0.087        C256.504,374.465,256.526,374.43,256.546,374.394z" />
          </g>
        </g>
        <g>
          <g>
            <path style="fill:#152F47;" d="M251.402,381.126c-2.639-0.176-10.359-0.176-13.704,0c0,0-0.312,5.835,6.852,5.835        C251.714,386.961,251.402,381.126,251.402,381.126z" />
          </g>
          <g>
            <path style="fill:#FF81CE;" d="M244.55,386.961c1.873,0,3.223-0.402,4.214-0.991c-0.786-1.166-2.375-1.967-4.214-1.967        c-1.836,0-3.425,0.801-4.212,1.967C241.327,386.558,242.679,386.961,244.55,386.961z" />
          </g>
        </g>
      </g>
      <g>
        <g>
          <path style="fill:#FF81CE;" d="M230.764,381.801c-0.304,0.798-2.401,0.738-4.684-0.133c-2.282-0.871-3.886-2.223-3.582-3.021       s2.401-0.738,4.684,0.133C229.465,379.651,231.069,381.004,230.764,381.801z" />
        </g>
        <g>
          <path style="fill:#FF81CE;" d="M258.336,381.801c0.304,0.798,2.401,0.738,4.684-0.133c2.283-0.871,3.886-2.223,3.582-3.021       c-0.304-0.798-2.401-0.738-4.684,0.133C259.636,379.651,258.032,381.004,258.336,381.801z" />
        </g>
      </g>
    </g>
  </g>
</svg>