<?xml version='1.0' encoding='utf-8'?>
<svg xmlns="http://www.w3.org/2000/svg" version="1.1" viewBox="-98.68 -98.68 571.403 565.902" width="571.403" height="565.902">
  <g>
    <g>
      <g>
        <g>
          <g>
            <path style="fill:#B73B27;" d="M436.813,351.498H415.51h-21.307c0,0-10.001-0.871-10.001,8.261c0,7.648,0,34.494,0,43.023        c0,1.654,0,2.631,0,2.631c0,8.529,0,35.379,0,43.025c0,9.132,10.001,8.261,10.001,8.261h21.307h21.304        c0,0,10.001,0.871,10.001-8.261c0-7.647,0-34.496,0-43.025c0,0,0-0.977,0-2.631c0-8.529,0-35.375,0-43.023        C446.814,350.627,436.813,351.498,436.813,351.498z" />
          </g>
          <g>
            <path style="fill:#CC533B;" d="M435.51,351.498h-21.304h-21.307c0,0-10.001-0.871-10.001,8.261c0,7.648,0,34.494,0,43.023        c0,1.654,0,2.631,0,2.631c0,8.529,0,35.379,0,43.025c0,9.132,10.001,8.261,10.001,8.261h21.307h21.304        c0,0,10.001,0.871,10.001-8.261c0-7.647,0-34.496,0-43.025c0,0,0-0.977,0-2.631c0-8.529,0-35.375,0-43.023        C445.511,350.627,435.51,351.498,435.51,351.498z" />
          </g>
          <path style="opacity:0.2;fill:#FFFFFF;" d="M392.899,351.498c0,0-10.001-0.871-10.001,8.261c0,7.648,0,34.494,0,43.023       c0,1.654,0,2.631,0,2.631c0,1.494,0,3.559,0,5.977c1.543,0.194,3.112,0.305,4.707,0.305c20.678,0,37.44-16.762,37.44-37.44       c0-8.563-2.881-16.449-7.717-22.757h-3.122H392.899z" />
        </g>
        <g>
          <g>
            <g>
              <g>
                <g>
                  <path style="fill:#B73B27;" d="M403.769,369.096c0,2.151-1.762,3.913-3.913,3.913h-7.827c-2.152,0-3.913-1.762-3.913-3.913           v-8.26c0-2.152,1.761-3.914,3.913-3.914h7.827c2.151,0,3.913,1.762,3.913,3.914V369.096z" />
                </g>
                <g>
                  <path style="fill:#A5271B;" d="M402.684,358.148c0.139,0.702,0.216,1.427,0.216,2.169c0,6.08-4.928,11.007-11.006,11.007           c-1.178,0-2.309-0.188-3.37-0.529c0.636,1.304,1.964,2.214,3.506,2.214h7.827c2.151,0,3.913-1.762,3.913-3.913v-8.26           C403.769,359.794,403.351,358.851,402.684,358.148z" />
                </g>
                <g>
                  <path style="fill:#D35A54;" d="M390.508,366.677c0,0-0.344-0.786-0.586-2.034c-0.123-0.625-0.223-1.364-0.238-2.175           c0-0.403-0.004-0.828,0.069-1.271c0.068-0.44,0.154-0.897,0.398-1.38c0.129-0.23,0.3-0.49,0.571-0.685           c0.152-0.093,0.265-0.191,0.463-0.251l0.296-0.084c0.366-0.131,0.849-0.16,1.276-0.214c0.831-0.06,1.564-0.011,2.2,0.067           c1.263,0.152,2.072,0.444,2.072,0.444s-0.845,0.146-2.07,0.304c-0.607,0.09-1.326,0.186-2.037,0.319           c-0.338,0.08-0.66,0.136-1.065,0.282l-0.292,0.093c0-0.002-0.041,0.053-0.065,0.061c-0.062,0.039-0.134,0.146-0.197,0.272           c-0.143,0.253-0.243,0.616-0.309,0.979c-0.064,0.363-0.132,0.741-0.163,1.11c-0.076,0.744-0.119,1.457-0.164,2.075           C390.598,365.828,390.508,366.677,390.508,366.677z" />
                </g>
              </g>
              <g>
                <g>
                  <path style="fill:#B73B27;" d="M422.03,369.096c0,2.151-1.759,3.913-3.911,3.913h-7.827c-2.153,0-3.913-1.762-3.913-3.913           v-8.26c0-2.152,1.76-3.914,3.913-3.914h7.827c2.152,0,3.911,1.762,3.911,3.914V369.096z" />
                </g>
                <g>
                  <path style="fill:#A5271B;" d="M420.944,358.148c0.14,0.702,0.218,1.427,0.218,2.169c0,6.08-4.929,11.007-11.008,11.007           c-1.177,0-2.308-0.188-3.37-0.529c0.637,1.304,1.965,2.214,3.508,2.214h7.827c2.152,0,3.911-1.762,3.911-3.913v-8.26           C422.03,359.794,421.614,358.851,420.944,358.148z" />
                </g>
                <g>
                  <path style="fill:#D35A54;" d="M408.769,366.677c0,0-0.345-0.786-0.586-2.034c-0.123-0.625-0.224-1.364-0.236-2.175           c0-0.403-0.004-0.828,0.066-1.271c0.069-0.44,0.154-0.897,0.398-1.38c0.128-0.23,0.299-0.49,0.571-0.685           c0.152-0.093,0.266-0.191,0.465-0.251l0.294-0.084c0.366-0.131,0.85-0.16,1.275-0.214c0.832-0.06,1.566-0.011,2.2,0.067           c1.265,0.152,2.074,0.444,2.074,0.444s-0.847,0.146-2.07,0.304c-0.608,0.09-1.326,0.186-2.038,0.319           c-0.339,0.08-0.658,0.136-1.065,0.282l-0.294,0.093c0.002-0.002-0.039,0.053-0.064,0.061           c-0.061,0.039-0.133,0.146-0.195,0.272c-0.145,0.253-0.244,0.616-0.309,0.979c-0.065,0.363-0.135,0.741-0.166,1.11           c-0.076,0.744-0.117,1.457-0.164,2.075C408.858,365.828,408.769,366.677,408.769,366.677z" />
                </g>
              </g>
              <g>
                <g>
                  <path style="fill:#B73B27;" d="M440.292,369.096c0,2.151-1.76,3.913-3.911,3.913h-7.827c-2.154,0-3.913-1.762-3.913-3.913           v-8.26c0-2.152,1.759-3.914,3.913-3.914h7.827c2.151,0,3.911,1.762,3.911,3.914V369.096z" />
                </g>
                <g>
                  <path style="fill:#A5271B;" d="M439.207,358.148c0.14,0.702,0.216,1.427,0.216,2.169c0,6.08-4.927,11.007-11.007,11.007           c-1.176,0-2.309-0.188-3.37-0.529c0.636,1.304,1.964,2.214,3.508,2.214h7.827c2.151,0,3.911-1.762,3.911-3.913v-8.26           C440.292,359.794,439.875,358.851,439.207,358.148z" />
                </g>
                <g>
                  <path style="fill:#D35A54;" d="M427.032,366.677c0,0-0.344-0.786-0.588-2.034c-0.123-0.625-0.222-1.364-0.236-2.175           c0-0.403-0.004-0.828,0.067-1.271c0.07-0.44,0.156-0.897,0.399-1.38c0.129-0.23,0.3-0.49,0.571-0.685           c0.152-0.093,0.264-0.191,0.463-0.251l0.296-0.084c0.364-0.131,0.849-0.16,1.274-0.214c0.833-0.06,1.565-0.011,2.202,0.067           c1.263,0.152,2.071,0.444,2.071,0.444s-0.846,0.146-2.069,0.304c-0.608,0.09-1.326,0.186-2.039,0.319           c-0.338,0.08-0.658,0.136-1.063,0.282l-0.294,0.093c0.002-0.002-0.039,0.053-0.065,0.061           c-0.06,0.039-0.132,0.146-0.195,0.272c-0.145,0.253-0.243,0.616-0.309,0.979c-0.065,0.363-0.132,0.741-0.164,1.11           c-0.076,0.744-0.119,1.457-0.165,2.075C427.119,365.828,427.032,366.677,427.032,366.677z" />
                </g>
              </g>
            </g>
            <g>
              <g>
                <g>
                  <path style="fill:#B73B27;" d="M403.769,388.663c0,2.151-1.762,3.913-3.913,3.913h-7.827c-2.152,0-3.913-1.762-3.913-3.913           v-8.262c0-2.152,1.761-3.913,3.913-3.913h7.827c2.151,0,3.913,1.761,3.913,3.913V388.663z" />
                </g>
                <g>
                  <path style="fill:#A5271B;" d="M402.684,377.713c0.139,0.705,0.216,1.43,0.216,2.173c0,6.078-4.928,11.005-11.006,11.005           c-1.178,0-2.309-0.189-3.37-0.529c0.636,1.305,1.964,2.215,3.506,2.215h7.827c2.151,0,3.913-1.762,3.913-3.913v-8.262           C403.769,379.362,403.351,378.418,402.684,377.713z" />
                </g>
                <g>
                  <path style="fill:#D35A54;" d="M390.508,386.244c0,0-0.344-0.788-0.586-2.036c-0.123-0.624-0.223-1.362-0.238-2.172           c0-0.406-0.004-0.832,0.069-1.273c0.068-0.44,0.154-0.895,0.398-1.38c0.129-0.23,0.3-0.49,0.571-0.682           c0.152-0.094,0.265-0.193,0.463-0.253l0.296-0.083c0.366-0.133,0.849-0.162,1.276-0.216c0.831-0.058,1.564-0.012,2.2,0.067           c1.263,0.153,2.072,0.445,2.072,0.445s-0.845,0.146-2.07,0.305c-0.607,0.087-1.326,0.184-2.037,0.319           c-0.338,0.078-0.66,0.135-1.065,0.282l-0.292,0.092c0-0.003-0.041,0.055-0.065,0.062c-0.062,0.04-0.134,0.147-0.197,0.273           c-0.143,0.252-0.243,0.617-0.309,0.979c-0.064,0.36-0.132,0.738-0.163,1.11c-0.076,0.743-0.119,1.457-0.164,2.075           C390.598,385.393,390.508,386.244,390.508,386.244z" />
                </g>
              </g>
              <g>
                <g>
                  <path style="fill:#B73B27;" d="M422.03,388.663c0,2.151-1.759,3.913-3.911,3.913h-7.827c-2.153,0-3.913-1.762-3.913-3.913           v-8.262c0-2.152,1.76-3.913,3.913-3.913h7.827c2.152,0,3.911,1.761,3.911,3.913V388.663z" />
                </g>
                <g>
                  <path style="fill:#A5271B;" d="M420.944,377.713c0.14,0.705,0.218,1.43,0.218,2.173c0,6.078-4.929,11.005-11.008,11.005           c-1.177,0-2.308-0.189-3.37-0.529c0.637,1.305,1.965,2.215,3.508,2.215h7.827c2.152,0,3.911-1.762,3.911-3.913v-8.262           C422.03,379.362,421.614,378.418,420.944,377.713z" />
                </g>
                <g>
                  <path style="fill:#D35A54;" d="M408.769,386.244c0,0-0.345-0.788-0.586-2.036c-0.123-0.624-0.224-1.362-0.236-2.172           c0-0.406-0.004-0.832,0.066-1.273c0.069-0.44,0.154-0.895,0.398-1.38c0.128-0.23,0.299-0.49,0.571-0.682           c0.152-0.094,0.266-0.193,0.465-0.253l0.294-0.083c0.366-0.133,0.85-0.162,1.275-0.216c0.832-0.058,1.566-0.012,2.2,0.067           c1.265,0.153,2.074,0.445,2.074,0.445s-0.847,0.146-2.07,0.305c-0.608,0.087-1.326,0.184-2.038,0.319           c-0.339,0.078-0.658,0.135-1.065,0.282l-0.294,0.092c0.002-0.003-0.039,0.055-0.064,0.062           c-0.061,0.04-0.133,0.147-0.195,0.273c-0.145,0.252-0.244,0.617-0.309,0.979c-0.065,0.36-0.135,0.738-0.166,1.11           c-0.076,0.743-0.117,1.457-0.164,2.075C408.858,385.393,408.769,386.244,408.769,386.244z" />
                </g>
              </g>
              <g>
                <g>
                  <path style="fill:#B73B27;" d="M440.292,388.663c0,2.151-1.76,3.913-3.911,3.913h-7.827c-2.154,0-3.913-1.762-3.913-3.913           v-8.262c0-2.152,1.759-3.913,3.913-3.913h7.827c2.151,0,3.911,1.761,3.911,3.913V388.663z" />
                </g>
                <g>
                  <path style="fill:#A5271B;" d="M439.207,377.713c0.14,0.705,0.216,1.43,0.216,2.173c0,6.078-4.927,11.005-11.007,11.005           c-1.176,0-2.309-0.189-3.37-0.529c0.636,1.305,1.964,2.215,3.508,2.215h7.827c2.151,0,3.911-1.762,3.911-3.913v-8.262           C440.292,379.362,439.875,378.418,439.207,377.713z" />
                </g>
                <g>
                  <path style="fill:#D35A54;" d="M427.032,386.244c0,0-0.344-0.788-0.588-2.036c-0.123-0.624-0.222-1.362-0.236-2.172           c0-0.406-0.004-0.832,0.067-1.273c0.07-0.44,0.156-0.895,0.399-1.38c0.129-0.23,0.3-0.49,0.571-0.682           c0.152-0.094,0.264-0.193,0.463-0.253l0.296-0.083c0.364-0.133,0.849-0.162,1.274-0.216           c0.833-0.058,1.565-0.012,2.202,0.067c1.263,0.153,2.071,0.445,2.071,0.445s-0.846,0.146-2.069,0.305           c-0.608,0.087-1.326,0.184-2.039,0.319c-0.338,0.078-0.658,0.135-1.063,0.282l-0.294,0.092           c0.002-0.003-0.039,0.055-0.065,0.062c-0.06,0.04-0.132,0.147-0.195,0.273c-0.145,0.252-0.243,0.617-0.309,0.979           c-0.065,0.36-0.132,0.738-0.164,1.11c-0.076,0.743-0.119,1.457-0.165,2.075           C427.119,385.393,427.032,386.244,427.032,386.244z" />
                </g>
              </g>
            </g>
          </g>
          <g>
            <g>
              <g>
                <g>
                  <path style="fill:#B73B27;" d="M403.769,408.228c0,2.151-1.762,3.913-3.913,3.913h-7.827c-2.152,0-3.913-1.762-3.913-3.913           v-8.26c0-2.153,1.761-3.913,3.913-3.913h7.827c2.151,0,3.913,1.76,3.913,3.913V408.228z" />
                </g>
                <g>
                  <path style="fill:#A5271B;" d="M402.684,397.281c0.139,0.702,0.216,1.427,0.216,2.169c0,6.08-4.928,11.007-11.006,11.007           c-1.178,0-2.309-0.188-3.37-0.53c0.636,1.305,1.964,2.215,3.506,2.215h7.827c2.151,0,3.913-1.762,3.913-3.913v-8.26           C403.769,398.927,403.351,397.983,402.684,397.281z" />
                </g>
                <g>
                  <path style="fill:#D35A54;" d="M390.508,405.81c0,0-0.344-0.787-0.586-2.034c-0.123-0.625-0.223-1.364-0.238-2.175           c0-0.405-0.004-0.828,0.069-1.27c0.068-0.441,0.154-0.898,0.398-1.381c0.129-0.229,0.3-0.491,0.571-0.684           c0.152-0.093,0.265-0.192,0.463-0.251l0.296-0.084c0.366-0.131,0.849-0.16,1.276-0.215c0.831-0.059,1.564-0.011,2.2,0.068           c1.263,0.151,2.072,0.444,2.072,0.444s-0.845,0.147-2.07,0.304c-0.607,0.089-1.326,0.186-2.037,0.319           c-0.338,0.08-0.66,0.136-1.065,0.282l-0.292,0.093c0-0.002-0.041,0.053-0.065,0.061c-0.062,0.039-0.134,0.146-0.197,0.272           c-0.143,0.253-0.243,0.616-0.309,0.979c-0.064,0.363-0.132,0.741-0.163,1.11c-0.076,0.744-0.119,1.457-0.164,2.074           C390.598,404.958,390.508,405.81,390.508,405.81z" />
                </g>
              </g>
              <g>
                <g>
                  <path style="fill:#B73B27;" d="M422.03,408.228c0,2.151-1.759,3.913-3.911,3.913h-7.827c-2.153,0-3.913-1.762-3.913-3.913           v-8.26c0-2.153,1.76-3.913,3.913-3.913h7.827c2.152,0,3.911,1.76,3.911,3.913V408.228z" />
                </g>
                <g>
                  <path style="fill:#A5271B;" d="M420.944,397.281c0.14,0.702,0.218,1.427,0.218,2.169c0,6.08-4.929,11.007-11.008,11.007           c-1.177,0-2.308-0.188-3.37-0.53c0.637,1.305,1.965,2.215,3.508,2.215h7.827c2.152,0,3.911-1.762,3.911-3.913v-8.26           C422.03,398.927,421.614,397.983,420.944,397.281z" />
                </g>
                <g>
                  <path style="fill:#D35A54;" d="M408.769,405.81c0,0-0.345-0.787-0.586-2.034c-0.123-0.625-0.224-1.364-0.236-2.175           c0-0.405-0.004-0.828,0.066-1.27c0.069-0.441,0.154-0.898,0.398-1.381c0.128-0.229,0.299-0.491,0.571-0.684           c0.152-0.093,0.266-0.192,0.465-0.251l0.294-0.084c0.366-0.131,0.85-0.16,1.275-0.215c0.832-0.059,1.566-0.011,2.2,0.068           c1.265,0.151,2.074,0.444,2.074,0.444s-0.847,0.147-2.07,0.304c-0.608,0.089-1.326,0.186-2.038,0.319           c-0.339,0.08-0.658,0.136-1.065,0.282l-0.294,0.093c0.002-0.002-0.039,0.053-0.064,0.061           c-0.061,0.039-0.133,0.146-0.195,0.272c-0.145,0.253-0.244,0.616-0.309,0.979c-0.065,0.363-0.135,0.741-0.166,1.11           c-0.076,0.744-0.117,1.457-0.164,2.074C408.858,404.958,408.769,405.81,408.769,405.81z" />
                </g>
              </g>
              <g>
                <g>
                  <path style="fill:#B73B27;" d="M440.292,408.228c0,2.151-1.76,3.913-3.911,3.913h-7.827c-2.154,0-3.913-1.762-3.913-3.913           v-8.26c0-2.153,1.759-3.913,3.913-3.913h7.827c2.151,0,3.911,1.76,3.911,3.913V408.228z" />
                </g>
                <g>
                  <path style="fill:#A5271B;" d="M439.207,397.281c0.14,0.702,0.216,1.427,0.216,2.169c0,6.08-4.927,11.007-11.007,11.007           c-1.176,0-2.309-0.188-3.37-0.53c0.636,1.305,1.964,2.215,3.508,2.215h7.827c2.151,0,3.911-1.762,3.911-3.913v-8.26           C440.292,398.927,439.875,397.983,439.207,397.281z" />
                </g>
                <g>
                  <path style="fill:#D35A54;" d="M427.032,405.81c0,0-0.344-0.787-0.588-2.034c-0.123-0.625-0.222-1.364-0.236-2.175           c0-0.405-0.004-0.828,0.067-1.27c0.07-0.441,0.156-0.898,0.399-1.381c0.129-0.229,0.3-0.491,0.571-0.684           c0.152-0.093,0.264-0.192,0.463-0.251l0.296-0.084c0.364-0.131,0.849-0.16,1.274-0.215           c0.833-0.059,1.565-0.011,2.202,0.068c1.263,0.151,2.071,0.444,2.071,0.444s-0.846,0.147-2.069,0.304           c-0.608,0.089-1.326,0.186-2.039,0.319c-0.338,0.08-0.658,0.136-1.063,0.282l-0.294,0.093           c0.002-0.002-0.039,0.053-0.065,0.061c-0.06,0.039-0.132,0.146-0.195,0.272c-0.145,0.253-0.243,0.616-0.309,0.979           c-0.065,0.363-0.132,0.741-0.164,1.11c-0.076,0.744-0.119,1.457-0.165,2.074           C427.119,404.958,427.032,405.81,427.032,405.81z" />
                </g>
              </g>
            </g>
            <g>
              <g>
                <g>
                  <path style="fill:#B73B27;" d="M403.769,427.794c0,2.153-1.762,3.913-3.913,3.913h-7.827c-2.152,0-3.913-1.76-3.913-3.913           v-8.26c0-2.152,1.761-3.913,3.913-3.913h7.827c2.151,0,3.913,1.761,3.913,3.913V427.794z" />
                </g>
                <g>
                  <path style="fill:#A5271B;" d="M402.684,416.846c0.139,0.704,0.216,1.427,0.216,2.173c0,6.077-4.928,11.005-11.006,11.005           c-1.178,0-2.309-0.188-3.37-0.529c0.636,1.302,1.964,2.213,3.506,2.213h7.827c2.151,0,3.913-1.76,3.913-3.913v-8.26           C403.769,418.492,403.351,417.55,402.684,416.846z" />
                </g>
                <g>
                  <path style="fill:#D35A54;" d="M390.508,425.377c0,0-0.344-0.789-0.586-2.038c-0.123-0.623-0.223-1.361-0.238-2.17           c0-0.406-0.004-0.832,0.069-1.273c0.068-0.44,0.154-0.898,0.398-1.38c0.129-0.23,0.3-0.491,0.571-0.683           c0.152-0.094,0.265-0.194,0.463-0.252l0.296-0.085c0.366-0.132,0.849-0.161,1.276-0.214c0.831-0.059,1.564-0.012,2.2,0.066           c1.263,0.153,2.072,0.446,2.072,0.446s-0.845,0.145-2.07,0.302c-0.607,0.09-1.326,0.188-2.037,0.323           c-0.338,0.078-0.66,0.134-1.065,0.277l-0.292,0.096c0-0.004-0.041,0.054-0.065,0.059c-0.062,0.041-0.134,0.146-0.197,0.272           c-0.143,0.253-0.243,0.62-0.309,0.979c-0.064,0.364-0.132,0.741-0.163,1.114c-0.076,0.743-0.119,1.457-0.164,2.074           C390.598,424.524,390.508,425.377,390.508,425.377z" />
                </g>
              </g>
              <g>
                <g>
                  <path style="fill:#B73B27;" d="M422.03,427.794c0,2.153-1.759,3.913-3.911,3.913h-7.827c-2.153,0-3.913-1.76-3.913-3.913           v-8.26c0-2.152,1.76-3.913,3.913-3.913h7.827c2.152,0,3.911,1.761,3.911,3.913V427.794z" />
                </g>
                <g>
                  <path style="fill:#A5271B;" d="M420.944,416.846c0.14,0.704,0.218,1.427,0.218,2.173c0,6.077-4.929,11.005-11.008,11.005           c-1.177,0-2.308-0.188-3.37-0.529c0.637,1.302,1.965,2.213,3.508,2.213h7.827c2.152,0,3.911-1.76,3.911-3.913v-8.26           C422.03,418.492,421.614,417.55,420.944,416.846z" />
                </g>
                <g>
                  <path style="fill:#D35A54;" d="M408.769,425.377c0,0-0.345-0.789-0.586-2.038c-0.123-0.623-0.224-1.361-0.236-2.17           c0-0.406-0.004-0.832,0.066-1.273c0.069-0.44,0.154-0.898,0.398-1.38c0.128-0.23,0.299-0.491,0.571-0.683           c0.152-0.094,0.266-0.194,0.465-0.252l0.294-0.085c0.366-0.132,0.85-0.161,1.275-0.214c0.832-0.059,1.566-0.012,2.2,0.066           c1.265,0.153,2.074,0.446,2.074,0.446s-0.847,0.145-2.07,0.302c-0.608,0.09-1.326,0.188-2.038,0.323           c-0.339,0.078-0.658,0.134-1.065,0.277l-0.294,0.096c0.002-0.004-0.039,0.054-0.064,0.059           c-0.061,0.041-0.133,0.146-0.195,0.272c-0.145,0.253-0.244,0.62-0.309,0.979c-0.065,0.364-0.135,0.741-0.166,1.114           c-0.076,0.743-0.117,1.457-0.164,2.074C408.858,424.524,408.769,425.377,408.769,425.377z" />
                </g>
              </g>
              <g>
                <g>
                  <path style="fill:#B73B27;" d="M440.292,427.794c0,2.153-1.76,3.913-3.911,3.913h-7.827c-2.154,0-3.913-1.76-3.913-3.913           v-8.26c0-2.152,1.759-3.913,3.913-3.913h7.827c2.151,0,3.911,1.761,3.911,3.913V427.794z" />
                </g>
                <g>
                  <path style="fill:#A5271B;" d="M439.207,416.846c0.14,0.704,0.216,1.427,0.216,2.173c0,6.077-4.927,11.005-11.007,11.005           c-1.176,0-2.309-0.188-3.37-0.529c0.636,1.302,1.964,2.213,3.508,2.213h7.827c2.151,0,3.911-1.76,3.911-3.913v-8.26           C440.292,418.492,439.875,417.55,439.207,416.846z" />
                </g>
                <g>
                  <path style="fill:#D35A54;" d="M427.032,425.377c0,0-0.344-0.789-0.588-2.038c-0.123-0.623-0.222-1.361-0.236-2.17           c0-0.406-0.004-0.832,0.067-1.273c0.07-0.44,0.156-0.898,0.399-1.38c0.129-0.23,0.3-0.491,0.571-0.683           c0.152-0.094,0.264-0.194,0.463-0.252l0.296-0.085c0.364-0.132,0.849-0.161,1.274-0.214           c0.833-0.059,1.565-0.012,2.202,0.066c1.263,0.153,2.071,0.446,2.071,0.446s-0.846,0.145-2.069,0.302           c-0.608,0.09-1.326,0.188-2.039,0.323c-0.338,0.078-0.658,0.134-1.063,0.277l-0.294,0.096           c0.002-0.004-0.039,0.054-0.065,0.059c-0.06,0.041-0.132,0.146-0.195,0.272c-0.145,0.253-0.243,0.62-0.309,0.979           c-0.065,0.364-0.132,0.741-0.164,1.114c-0.076,0.743-0.119,1.457-0.165,2.074           C427.119,424.524,427.032,425.377,427.032,425.377z" />
                </g>
              </g>
            </g>
            <g>
              <g>
                <g>
                  <path style="fill:#B73B27;" d="M403.769,447.36c0,2.152-1.762,3.914-3.913,3.914h-7.827c-2.152,0-3.913-1.762-3.913-3.914           v-8.259c0-2.153,1.761-3.913,3.913-3.913h7.827c2.151,0,3.913,1.76,3.913,3.913V447.36z" />
                </g>
                <g>
                  <path style="fill:#A5271B;" d="M402.684,436.414c0.139,0.701,0.216,1.426,0.216,2.169c0,6.079-4.928,11.007-11.006,11.007           c-1.178,0-2.309-0.188-3.37-0.53c0.636,1.303,1.964,2.215,3.506,2.215h7.827c2.151,0,3.913-1.762,3.913-3.914v-8.259           C403.769,438.059,403.351,437.116,402.684,436.414z" />
                </g>
                <g>
                  <path style="fill:#D35A54;" d="M390.508,444.942c0,0-0.344-0.789-0.586-2.036c-0.123-0.623-0.223-1.362-0.238-2.173           c0-0.405-0.004-0.831,0.069-1.271c0.068-0.44,0.154-0.897,0.398-1.38c0.129-0.23,0.3-0.493,0.571-0.684           c0.152-0.094,0.265-0.193,0.463-0.252l0.296-0.084c0.366-0.133,0.849-0.159,1.276-0.214c0.831-0.059,1.564-0.014,2.2,0.065           c1.263,0.153,2.072,0.446,2.072,0.446s-0.845,0.145-2.07,0.305c-0.607,0.087-1.326,0.184-2.037,0.319           c-0.338,0.078-0.66,0.136-1.065,0.281l-0.292,0.094c0-0.003-0.041,0.052-0.065,0.06c-0.062,0.039-0.134,0.146-0.197,0.273           c-0.143,0.252-0.243,0.617-0.309,0.978c-0.064,0.362-0.132,0.738-0.163,1.111c-0.076,0.744-0.119,1.457-0.164,2.073           C390.598,444.09,390.508,444.942,390.508,444.942z" />
                </g>
              </g>
              <g>
                <g>
                  <path style="fill:#B73B27;" d="M422.03,447.36c0,2.152-1.759,3.914-3.911,3.914h-7.827c-2.153,0-3.913-1.762-3.913-3.914           v-8.259c0-2.153,1.76-3.913,3.913-3.913h7.827c2.152,0,3.911,1.76,3.911,3.913V447.36z" />
                </g>
                <g>
                  <path style="fill:#A5271B;" d="M420.944,436.414c0.14,0.701,0.218,1.426,0.218,2.169c0,6.079-4.929,11.007-11.008,11.007           c-1.177,0-2.308-0.188-3.37-0.53c0.637,1.303,1.965,2.215,3.508,2.215h7.827c2.152,0,3.911-1.762,3.911-3.914v-8.259           C422.03,438.059,421.614,437.116,420.944,436.414z" />
                </g>
                <g>
                  <path style="fill:#D35A54;" d="M408.769,444.942c0,0-0.345-0.789-0.586-2.036c-0.123-0.623-0.224-1.362-0.236-2.173           c0-0.405-0.004-0.831,0.066-1.271c0.069-0.44,0.154-0.897,0.398-1.38c0.128-0.23,0.299-0.493,0.571-0.684           c0.152-0.094,0.266-0.193,0.465-0.252l0.294-0.084c0.366-0.133,0.85-0.159,1.275-0.214c0.832-0.059,1.566-0.014,2.2,0.065           c1.265,0.153,2.074,0.446,2.074,0.446s-0.847,0.145-2.07,0.305c-0.608,0.087-1.326,0.184-2.038,0.319           c-0.339,0.078-0.658,0.136-1.065,0.281l-0.294,0.094c0.002-0.003-0.039,0.052-0.064,0.06           c-0.061,0.039-0.133,0.146-0.195,0.273c-0.145,0.252-0.244,0.617-0.309,0.978c-0.065,0.362-0.135,0.738-0.166,1.111           c-0.076,0.744-0.117,1.457-0.164,2.073C408.858,444.09,408.769,444.942,408.769,444.942z" />
                </g>
              </g>
              <g>
                <g>
                  <path style="fill:#B73B27;" d="M440.292,447.36c0,2.152-1.76,3.914-3.911,3.914h-7.827c-2.154,0-3.913-1.762-3.913-3.914           v-8.259c0-2.153,1.759-3.913,3.913-3.913h7.827c2.151,0,3.911,1.76,3.911,3.913V447.36z" />
                </g>
                <g>
                  <path style="fill:#A5271B;" d="M439.207,436.414c0.14,0.701,0.216,1.426,0.216,2.169c0,6.079-4.927,11.007-11.007,11.007           c-1.176,0-2.309-0.188-3.37-0.53c0.636,1.303,1.964,2.215,3.508,2.215h7.827c2.151,0,3.911-1.762,3.911-3.914v-8.259           C440.292,438.059,439.875,437.116,439.207,436.414z" />
                </g>
                <g>
                  <path style="fill:#D35A54;" d="M427.032,444.942c0,0-0.344-0.789-0.588-2.036c-0.123-0.623-0.222-1.362-0.236-2.173           c0-0.405-0.004-0.831,0.067-1.271c0.07-0.44,0.156-0.897,0.399-1.38c0.129-0.23,0.3-0.493,0.571-0.684           c0.152-0.094,0.264-0.193,0.463-0.252l0.296-0.084c0.364-0.133,0.849-0.159,1.274-0.214           c0.833-0.059,1.565-0.014,2.202,0.065c1.263,0.153,2.071,0.446,2.071,0.446s-0.846,0.145-2.069,0.305           c-0.608,0.087-1.326,0.184-2.039,0.319c-0.338,0.078-0.658,0.136-1.063,0.281l-0.294,0.094           c0.002-0.003-0.039,0.052-0.065,0.06c-0.06,0.039-0.132,0.146-0.195,0.273c-0.145,0.252-0.243,0.617-0.309,0.978           c-0.065,0.362-0.132,0.738-0.164,1.111c-0.076,0.744-0.119,1.457-0.165,2.073           C427.119,444.09,427.032,444.942,427.032,444.942z" />
                </g>
              </g>
            </g>
          </g>
        </g>
        <g>
          <path style="fill:#152F47;" d="M392.196,457.221c-1.447,0-4.968-0.255-7.367-2.497c-1.613-1.508-2.431-3.623-2.431-6.285       v-88.68c0-2.662,0.817-4.777,2.431-6.285c2.93-2.739,7.538-2.51,8.048-2.479c0.79-0.042,1.345,0.002,1.369,0.005l41.264-0.002       c-0.019,0,0.528-0.046,1.357-0.005c0.642-0.042,5.138-0.21,8.017,2.48c1.613,1.508,2.431,3.623,2.431,6.285v88.68       c0,2.662-0.817,4.777-2.431,6.285c-2.929,2.738-7.533,2.511-8.046,2.478c-0.786,0.043-1.347-0.002-1.37-0.005l-41.265,0.002       c0.019,0-0.539,0.046-1.385,0.003C392.735,457.209,392.517,457.221,392.196,457.221z M392.229,351.976       c-1.394,0-4.581,0.231-6.718,2.229c-1.402,1.311-2.113,3.181-2.113,5.555v88.68c0,2.374,0.711,4.243,2.113,5.555       c2.622,2.451,6.823,2.243,7.299,2.211c0.833,0.04,1.345-0.003,1.351-0.003l41.349-0.002c0.048,0.003,0.562,0.046,1.336,0.005       c0.529,0.033,4.735,0.238,7.355-2.211c1.402-1.312,2.113-3.181,2.113-5.555v-88.68c0-2.374-0.711-4.243-2.113-5.555       c-2.623-2.451-6.826-2.243-7.297-2.211l-0.029,0.002l-0.029-0.002c-0.771-0.04-1.288,0.003-1.294,0.003l-41.349,0.002       c-0.047-0.002-0.56-0.043-1.334-0.005C392.771,351.987,392.547,351.976,392.229,351.976z" />
        </g>
      </g>
      <g>
        <g>
          <g>
            <path style="fill:#FFC9E2;" d="M382.898,415.621c0,0,57.161-23.375,67.132-18.34c9.97,5.034,12.107,24.035,12.107,24.035        S419.036,406.85,382.898,415.621z" />
          </g>
          <g>
            <g>
              <g>
                <path style="fill:#FFC9E2;" d="M382.898,415.621c0,0,57.161-23.375,67.132-18.34c9.97,5.034,12.107,24.035,12.107,24.035          S419.036,406.85,382.898,415.621z" />
              </g>
            </g>
            <g>
              <path style="fill:#F9B7D8;" d="M460.994,415.28c-16.484-7.945-36.348-9.614-53.06-9.077         c-13.562,4.727-25.035,9.418-25.035,9.418c36.138-8.771,79.239,5.695,79.239,5.695S461.849,418.761,460.994,415.28z" />
            </g>
          </g>
          <g>
            <path style="fill:#152F47;" d="M462.723,422.04l-0.744-0.25c-0.429-0.143-43.386-14.321-78.962-5.683l-0.308-0.949        c2.343-0.958,57.483-23.407,67.547-18.323c10.095,5.098,12.29,23.639,12.379,24.426L462.723,422.04z M408.466,412.322        c25.354,0,48.616,6.881,53.069,8.276c-0.534-3.588-3.245-18.587-11.73-22.871c-7.881-3.98-46.924,10.596-61.351,16.227        C395.067,412.793,401.84,412.322,408.466,412.322z" />
          </g>
        </g>
        <g>
          <g>
            <g>
              <path style="fill:#F2A5CC;" d="M382.898,415.621c0,11.45,0,27.24,0,32.817c0,8.941,9.563,8.295,9.964,8.263         c0.806,0.04,1.341-0.002,1.341-0.002h20.003h1.304h20c0,0,0.538,0.042,1.341,0.002c0.404,0.032,9.964,0.679,9.964-8.263         c0-5.318,0-19.917,0-31.188C431.027,413.769,405.592,410.113,382.898,415.621z" />
            </g>
            <g>
              <path style="fill:#E897C4;" d="M384.401,415.272c-0.513,0.195-1.014,0.387-1.503,0.574c0,0.739,0,1.495,0,2.265         c22.876-3.276,46.637-0.445,63.916,2.939c0-1.3,0-2.563,0-3.799C431.373,413.845,406.706,410.275,384.401,415.272z" />
            </g>
            <g>
              <path style="fill:#E897C4;" d="M404.806,451.274c-7.95,0-15.416-1.781-21.907-4.897c0,0.777,0,1.485,0,2.061         c0,8.941,9.563,8.295,9.964,8.263c0.806,0.04,1.341-0.002,1.341-0.002h20.003h1.304h20c0,0,0.538,0.042,1.341,0.002         c0.404,0.032,9.964,0.679,9.964-8.263c0-3.915,0-12.863,0-21.81C440.158,441.066,423.864,451.274,404.806,451.274z" />
            </g>
            <path style="opacity:0.2;fill:#FFFFFF;" d="M382.898,441.982c2.412,1.184,5.15,1.863,8.059,1.863        c9.635,0,17.445-7.34,17.445-16.393c0-6.16-3.62-11.52-8.966-14.321c-5.557,0.398-11.126,1.178-16.539,2.492        C382.898,423.984,382.898,434.659,382.898,441.982z" />
          </g>
          <g>
            <path style="fill:#152F47;" d="M392.181,457.222c-1.44,0-4.923-0.252-7.316-2.461c-1.636-1.51-2.466-3.637-2.466-6.322        v-33.211l0.382-0.093c22.341-5.422,47.21-2.107,64.142,1.628l0.393,0.087v31.589c0,2.684-0.829,4.811-2.465,6.322        c-3.034,2.804-7.835,2.459-8.039,2.438c-0.759,0.046-1.315,0.001-1.34-0.002l-41.268,0.002        c0.016-0.001-0.537,0.042-1.365,0.001C392.809,457.204,392.568,457.222,392.181,457.222z M383.398,416.016v32.423        c0,2.395,0.722,4.274,2.145,5.588c2.721,2.512,7.095,2.189,7.279,2.177c0.826,0.035,1.337-0.002,1.342-0.002l41.346-0.002        c0.044,0.002,0.562,0.038,1.315,0.003c0.253,0.014,4.63,0.331,7.347-2.177c1.422-1.313,2.143-3.192,2.143-5.587v-30.785        C429.593,413.997,405.281,410.809,383.398,416.016z" />
          </g>
        </g>
      </g>
      <g>
        <g>
          <g>
            <g>
              <path style="fill:#152F47;" d="M407.441,435.188c0,1.718-1.392,3.111-3.112,3.111c-1.717,0-3.109-1.393-3.109-3.111         c0-1.719,1.393-3.111,3.109-3.111C406.05,432.076,407.441,433.469,407.441,435.188z" />
            </g>
            <g>
              <g>
                <path style="fill:#FFFFFF;" d="M404.207,434.047c0,0.443-0.361,0.804-0.806,0.804c-0.442,0-0.802-0.36-0.802-0.804          c0-0.444,0.359-0.804,0.802-0.804C403.846,433.243,404.207,433.603,404.207,434.047z" />
              </g>
              <g>
                <path style="fill:#FFFFFF;" d="M403.005,435.595c0,0.224-0.183,0.405-0.407,0.405c-0.225,0-0.407-0.182-0.407-0.405          c0-0.226,0.183-0.407,0.407-0.407C402.822,435.188,403.005,435.369,403.005,435.595z" />
              </g>
            </g>
          </g>
          <g>
            <g>
              <path style="fill:#152F47;" d="M428.252,435.188c0,1.718-1.393,3.111-3.111,3.111c-1.719,0-3.11-1.393-3.11-3.111         c0-1.719,1.392-3.111,3.11-3.111C426.859,432.076,428.252,433.469,428.252,435.188z" />
            </g>
            <g>
              <g>
                <path style="fill:#FFFFFF;" d="M425.016,434.047c0,0.443-0.358,0.804-0.803,0.804c-0.445,0-0.804-0.36-0.804-0.804          c0-0.444,0.358-0.804,0.804-0.804C424.657,433.243,425.016,433.603,425.016,434.047z" />
              </g>
              <g>
                <path style="fill:#FFFFFF;" d="M423.814,435.595c0,0.224-0.181,0.405-0.407,0.405c-0.224,0-0.405-0.182-0.405-0.405          c0-0.226,0.182-0.407,0.405-0.407C423.634,435.188,423.814,435.369,423.814,435.595z" />
              </g>
            </g>
          </g>
        </g>
        <g>
          <g>
            <path style="fill:#152F47;" d="M402.92,429.059c0,0,0.042-0.279,0.284-0.59c0.125-0.156,0.292-0.326,0.521-0.452        c0.229-0.13,0.514-0.217,0.816-0.217c0.153-0.005,0.298,0.035,0.443,0.066c0.143,0.03,0.262,0.119,0.383,0.175        c0.222,0.149,0.389,0.323,0.491,0.5c0.119,0.157,0.154,0.328,0.193,0.432c0.031,0.111,0.039,0.179,0.039,0.179        s-0.065-0.024-0.167-0.069c-0.108-0.043-0.233-0.121-0.392-0.181c-0.15-0.075-0.322-0.129-0.489-0.19        c-0.171-0.03-0.333-0.081-0.504-0.065c-0.168-0.02-0.347,0.024-0.525,0.058c-0.18,0.039-0.352,0.101-0.517,0.15        C403.148,428.976,402.92,429.059,402.92,429.059z" />
          </g>
          <g>
            <path style="fill:#152F47;" d="M423.755,428.811c0,0,0.07-0.271,0.348-0.557c0.136-0.143,0.322-0.293,0.564-0.396        c0.238-0.103,0.532-0.164,0.832-0.131c0.152,0.011,0.292,0.066,0.435,0.109c0.14,0.046,0.248,0.148,0.363,0.215        c0.204,0.174,0.354,0.364,0.433,0.548c0.105,0.17,0.125,0.342,0.153,0.448c0.019,0.116,0.022,0.181,0.022,0.181        s-0.065-0.026-0.164-0.085c-0.099-0.049-0.218-0.143-0.368-0.218c-0.147-0.089-0.309-0.166-0.469-0.241        c-0.169-0.049-0.324-0.116-0.497-0.118c-0.165-0.033-0.346-0.009-0.526,0.004c-0.182,0.023-0.36,0.065-0.53,0.099        C423.991,428.754,423.755,428.811,423.755,428.811z" />
          </g>
        </g>
        <g>
          <g>
            <path style="fill:#FF81CE;" d="M405.577,440.655c0,1.403-1.138,2.541-2.54,2.541c-1.404,0-2.541-1.138-2.541-2.541        c0-1.402,1.137-2.541,2.541-2.541C404.439,438.114,405.577,439.253,405.577,440.655z" />
          </g>
          <g>
            <path style="fill:#FF81CE;" d="M429.329,440.655c0,1.403-1.138,2.541-2.541,2.541c-1.404,0-2.54-1.138-2.54-2.541        c0-1.402,1.136-2.541,2.54-2.541C428.191,438.114,429.329,439.253,429.329,440.655z" />
          </g>
        </g>
        <g>
          <g>
            <polygon style="fill:#FFFFFF;" points="410.676,435.7 418.949,435.7 419.306,437.078 418.407,439.188 416.764,440.4         414.99,440.4 413.116,440.4 411.852,439.391 410.676,437.76       " />
          </g>
          <g>
            <path style="fill:#152F47;" d="M418.602,435.416h-3.866h-3.863c0,0-1.128-0.12-0.986,1.318s1.688,4.082,4.85,4.082        c3.161,0,4.709-2.643,4.849-4.082C419.727,435.296,418.602,435.416,418.602,435.416z M412.039,439.217        c0.199-0.866,2.697-1.103,2.697-1.103c-2.191,0-3.337-0.486-3.815-0.764c-0.029-0.119-0.052-0.234-0.063-0.338        c-0.111-1.151,0.789-1.056,0.789-1.056h3.09h3.091c0,0,0.898-0.096,0.787,1.056c-0.012,0.104-0.034,0.219-0.064,0.338        c-0.479,0.277-1.624,0.764-3.815,0.764c0,0,2.499,0.236,2.696,1.103c-0.634,0.602-1.525,1.058-2.696,1.058        C413.564,440.274,412.673,439.818,412.039,439.217z" />
          </g>
        </g>
      </g>
    </g>
    <g>
      <g>
        <path style="fill:#FFFFFF;" d="M387.653,421.384c0.047,4.369,0.095,8.738,0.142,13.107c0.007,0.629,0.014,1.258,0.02,1.887      c0.009,0.8,1.257,0.875,1.248,0.069c-0.047-4.369-0.094-8.738-0.142-13.108c-0.007-0.629-0.014-1.258-0.02-1.887      C388.893,420.652,387.645,420.577,387.653,421.384L387.653,421.384z" />
      </g>
      <path style="fill:#FFFFFF;" d="M389.436,439.602c-0.025,0.458-0.417,0.809-0.875,0.784c-0.458-0.025-0.809-0.417-0.784-0.875     c0.025-0.458,0.417-0.809,0.875-0.784C389.11,438.752,389.462,439.143,389.436,439.602z" />
    </g>
  </g>
</svg>