<?xml version='1.0' encoding='utf-8'?>
<svg xmlns="http://www.w3.org/2000/svg" xmlns:ns1="http://www.w3.org/1999/xlink" version="1.1" viewBox="-48.029 -58.978 504.15 246.346" width="504.15" height="246.346">
  <g>
    <g>
      <g>
        <g>
          <g>
            <g>
              <g>
                <g>
                  <path style="fill:#76DD9F;" d="M429.233,93.924c-4.245-19.195-17.534-26.578-35.714-26.578           c-18.18,0-31.469,7.383-35.714,26.578c-4.245,19.195,6.275,30.48,6.275,30.48c9.598,7.752,29.439,6.829,29.439,6.829           s19.841,0.923,29.439-6.829C422.958,124.404,433.478,113.119,429.233,93.924z" />
                </g>
                <g>
                  <defs>
                    <path id="SVGID_00000063596120791451115880000013450657276085002164_" d="M429.233,93.924            c-4.245-19.195-17.534-26.578-35.714-26.578c-18.18,0-31.469,7.383-35.714,26.578c-4.245,19.195,6.275,30.48,6.275,30.48            c9.598,7.752,29.439,6.829,29.439,6.829s19.841,0.923,29.439-6.829C422.958,124.404,433.478,113.119,429.233,93.924z" />
                  </defs>
                  <clipPath id="SVGID_00000169536945600430736110000014938506996003530679_">
                    <use ns1:href="#SVGID_00000063596120791451115880000013450657276085002164_" style="overflow:visible;" />
                  </clipPath>
                  <g style="clip-path:url(#SVGID_00000169536945600430736110000014938506996003530679_);">
                    <g>
                      <g>
                        <g>
                          <path style="fill:#55C67E;" d="M395.66,61.561c-2.189,4.387-3.511,9.332-4.601,14.082               c-2.878,12.538-3.374,25.594-2.015,38.364c1.084,10.181,3.354,20.202,6.561,29.921               c0.218,0.662,1.269,0.378,1.049-0.289c-5.199-15.757-7.922-32.369-7.092-48.978c0.476-9.517,2.053-19.104,5.241-28.107               c0.533-1.506,1.084-3.017,1.796-4.445C396.91,61.486,395.973,60.934,395.66,61.561L395.66,61.561z" />
                        </g>
                      </g>
                      <g>
                        <g>
                          <path style="fill:#55C67E;" d="M384.763,62.374c-4.04,4.576-7.194,10.17-9.674,15.708               c-5.247,11.717-7.155,24.849-4.027,37.414c2.357,9.468,7.38,17.991,13.702,25.349c0.457,0.532,1.223-0.24,0.769-0.769               c-5.706-6.642-10.334-14.252-12.828-22.687c-1.968-6.658-2.541-13.657-1.768-20.553               c1.149-10.253,5.18-20.132,10.875-28.689c1.147-1.723,2.348-3.45,3.721-5.005               C385.994,62.62,385.227,61.848,384.763,62.374L384.763,62.374z" />
                        </g>
                      </g>
                      <g>
                        <g>
                          <path style="fill:#55C67E;" d="M402.766,63.033c2.691,4.54,4.565,9.689,6.09,14.714               c3.529,11.629,4.679,24.041,2.753,36.071c-1.413,8.827-4.464,17.293-8.843,25.078c-0.344,0.611,0.595,1.16,0.939,0.549               c7.371-13.105,10.773-28.018,9.723-43.02c-0.694-9.913-3.152-19.736-7.178-28.821               c-0.769-1.736-1.575-3.483-2.545-5.119C403.348,61.883,402.408,62.429,402.766,63.033L402.766,63.033z" />
                        </g>
                      </g>
                    </g>
                    <g>
                      <path style="fill:#55C67E;" d="M377.986,77.887c-0.073-0.266-0.392-0.481-0.669-0.38             c-0.653,0.238-1.306,0.477-1.958,0.715c-0.274-0.326-0.548-0.653-0.823-0.979c-0.12-0.142-0.239-0.284-0.358-0.427             c-0.184-0.219-0.582-0.204-0.769,0c-0.214,0.233-0.196,0.536,0,0.769c0.289,0.344,0.578,0.688,0.867,1.032             c-0.257,0.094-0.514,0.188-0.77,0.281c-0.183,0.067-0.366,0.134-0.549,0.2c-0.276,0.101-0.462,0.369-0.38,0.669             c0.073,0.266,0.392,0.481,0.669,0.38c0.591-0.216,1.181-0.431,1.772-0.647c0.313,0.373,0.626,0.746,0.94,1.119             c0.119,0.142,0.239,0.284,0.358,0.427c0.184,0.219,0.582,0.204,0.769,0c0.214-0.233,0.196-0.536,0-0.769             c-0.328-0.391-0.656-0.781-0.984-1.172c0.319-0.116,0.638-0.233,0.957-0.349c0.183-0.067,0.366-0.133,0.549-0.2             C377.882,78.455,378.068,78.187,377.986,77.887z" />
                    </g>
                    <g>
                      <path style="fill:#55C67E;" d="M374.742,87.329c-0.092-0.26-0.425-0.452-0.694-0.331             c-0.634,0.284-1.268,0.569-1.902,0.853c-0.297-0.306-0.594-0.612-0.89-0.918c-0.129-0.133-0.259-0.267-0.388-0.4             c-0.199-0.205-0.595-0.161-0.767,0.055c-0.196,0.247-0.157,0.549,0.055,0.767c0.313,0.322,0.626,0.645,0.939,0.967             c-0.249,0.112-0.499,0.224-0.748,0.336c-0.178,0.08-0.355,0.159-0.533,0.239c-0.268,0.12-0.435,0.401-0.331,0.694             c0.092,0.26,0.425,0.452,0.694,0.331c0.574-0.257,1.148-0.515,1.721-0.772c0.339,0.35,0.678,0.699,1.017,1.049             c0.129,0.133,0.259,0.267,0.388,0.4c0.199,0.205,0.595,0.161,0.767-0.055c0.196-0.247,0.157-0.549-0.055-0.767             c-0.355-0.366-0.71-0.732-1.065-1.098c0.31-0.139,0.619-0.278,0.929-0.417c0.178-0.08,0.355-0.159,0.533-0.239             C374.679,87.903,374.845,87.622,374.742,87.329z" />
                    </g>
                    <g>
                      <path style="fill:#55C67E;" d="M372.58,97.772c-0.121-0.248-0.474-0.4-0.728-0.249c-0.597,0.355-1.194,0.711-1.792,1.066             c-0.33-0.27-0.66-0.539-0.99-0.809c-0.144-0.118-0.288-0.235-0.431-0.353c-0.221-0.181-0.61-0.092-0.756,0.143             c-0.167,0.268-0.093,0.563,0.143,0.756c0.348,0.284,0.696,0.569,1.044,0.853c-0.235,0.14-0.47,0.28-0.705,0.419             c-0.167,0.099-0.335,0.199-0.502,0.299c-0.252,0.15-0.386,0.449-0.249,0.728c0.121,0.248,0.474,0.4,0.728,0.249             c0.54-0.322,1.081-0.643,1.621-0.965c0.377,0.308,0.754,0.616,1.131,0.925c0.144,0.118,0.288,0.235,0.431,0.353             c0.221,0.181,0.61,0.092,0.756-0.143c0.167-0.268,0.093-0.563-0.143-0.756c-0.395-0.323-0.79-0.646-1.184-0.968             c0.292-0.174,0.583-0.347,0.875-0.521c0.167-0.1,0.335-0.199,0.502-0.299C372.583,98.35,372.717,98.051,372.58,97.772z" />
                    </g>
                    <g>
                      <path style="fill:#55C67E;" d="M372.608,107.407c-0.173-0.215-0.551-0.285-0.765-0.081             c-0.504,0.479-1.007,0.958-1.51,1.437c-0.382-0.19-0.763-0.38-1.145-0.57c-0.166-0.083-0.333-0.165-0.499-0.248             c-0.256-0.127-0.615,0.046-0.705,0.307c-0.103,0.299,0.034,0.57,0.307,0.705c0.402,0.2,0.804,0.4,1.207,0.601             c-0.198,0.188-0.396,0.377-0.594,0.565c-0.141,0.134-0.282,0.269-0.423,0.403c-0.213,0.202-0.276,0.523-0.081,0.765             c0.173,0.215,0.551,0.285,0.765,0.081c0.456-0.433,0.911-0.867,1.367-1.3c0.436,0.217,0.872,0.434,1.308,0.651             c0.166,0.083,0.333,0.165,0.499,0.248c0.256,0.127,0.615-0.046,0.705-0.307c0.103-0.298-0.034-0.57-0.307-0.705             c-0.457-0.227-0.913-0.454-1.37-0.682c0.246-0.234,0.492-0.468,0.738-0.702c0.141-0.134,0.282-0.268,0.423-0.403             C372.74,107.969,372.803,107.649,372.608,107.407z" />
                    </g>
                    <g>
                      <path style="fill:#55C67E;" d="M374.795,117.35c-0.195-0.195-0.578-0.225-0.769,0c-0.45,0.529-0.9,1.059-1.351,1.588             c-0.4-0.149-0.799-0.297-1.199-0.446c-0.174-0.065-0.348-0.13-0.522-0.194c-0.268-0.099-0.607,0.11-0.669,0.38             c-0.071,0.308,0.094,0.563,0.38,0.669c0.421,0.157,0.842,0.313,1.263,0.47c-0.177,0.208-0.354,0.416-0.531,0.625             c-0.126,0.148-0.252,0.297-0.379,0.445c-0.19,0.224-0.22,0.549,0,0.769c0.195,0.195,0.578,0.225,0.769,0             c0.407-0.479,0.815-0.958,1.222-1.437c0.457,0.17,0.913,0.34,1.369,0.509c0.174,0.065,0.348,0.13,0.522,0.194             c0.268,0.1,0.607-0.11,0.669-0.38c0.071-0.308-0.094-0.563-0.38-0.669c-0.478-0.178-0.956-0.355-1.434-0.533             c0.22-0.259,0.44-0.517,0.66-0.776c0.126-0.148,0.252-0.297,0.379-0.445C374.985,117.896,375.015,117.57,374.795,117.35z             " />
                    </g>
                    <g>
                      <path style="fill:#55C67E;" d="M394.743,73.86c-0.067-0.267-0.381-0.489-0.661-0.394             c-0.658,0.224-1.315,0.449-1.973,0.673c-0.267-0.332-0.534-0.664-0.801-0.996c-0.116-0.145-0.233-0.289-0.349-0.434             c-0.179-0.223-0.578-0.216-0.769-0.016c-0.218,0.228-0.207,0.532-0.016,0.769c0.282,0.35,0.563,0.7,0.845,1.05             c-0.259,0.088-0.517,0.176-0.776,0.265c-0.184,0.063-0.369,0.126-0.553,0.189c-0.278,0.095-0.47,0.359-0.394,0.661             c0.067,0.267,0.381,0.489,0.661,0.394c0.595-0.203,1.19-0.406,1.785-0.609c0.305,0.38,0.61,0.759,0.916,1.138             c0.116,0.145,0.233,0.289,0.349,0.434c0.179,0.222,0.578,0.216,0.769,0.016c0.218-0.228,0.207-0.531,0.016-0.769             c-0.32-0.397-0.639-0.795-0.959-1.192c0.321-0.11,0.642-0.219,0.964-0.329c0.184-0.063,0.369-0.126,0.553-0.189             C394.627,74.426,394.819,74.162,394.743,73.86z" />
                    </g>
                    <g>
                      <path style="fill:#55C67E;" d="M392.78,83.442c-0.087-0.262-0.416-0.46-0.688-0.344             c-0.639,0.272-1.279,0.544-1.918,0.817c-0.291-0.312-0.582-0.623-0.873-0.935c-0.127-0.136-0.253-0.271-0.38-0.407             c-0.195-0.209-0.592-0.173-0.768,0.04c-0.201,0.243-0.168,0.545,0.04,0.768c0.307,0.328,0.613,0.657,0.92,0.985             c-0.251,0.107-0.503,0.214-0.754,0.321c-0.179,0.076-0.358,0.153-0.538,0.229c-0.27,0.115-0.442,0.393-0.344,0.688             c0.087,0.262,0.416,0.46,0.688,0.344c0.579-0.246,1.157-0.493,1.736-0.739c0.332,0.356,0.665,0.712,0.997,1.068             c0.127,0.136,0.254,0.271,0.38,0.407c0.195,0.209,0.592,0.173,0.768-0.04c0.201-0.243,0.168-0.545-0.04-0.768             c-0.348-0.373-0.696-0.746-1.044-1.118c0.312-0.133,0.625-0.266,0.937-0.399c0.179-0.076,0.358-0.152,0.537-0.229             C392.706,84.016,392.878,83.738,392.78,83.442z" />
                    </g>
                    <g>
                      <path style="fill:#55C67E;" d="M391.723,92.757c-0.121-0.248-0.474-0.4-0.728-0.25c-0.598,0.355-1.195,0.71-1.793,1.065             c-0.33-0.27-0.66-0.54-0.989-0.81c-0.144-0.118-0.287-0.235-0.431-0.353c-0.221-0.181-0.61-0.092-0.756,0.142             c-0.167,0.268-0.094,0.563,0.142,0.756c0.347,0.285,0.695,0.569,1.043,0.854c-0.235,0.14-0.47,0.279-0.705,0.419             c-0.167,0.099-0.335,0.199-0.502,0.298c-0.252,0.15-0.386,0.448-0.25,0.728c0.121,0.248,0.474,0.4,0.728,0.25             c0.541-0.321,1.081-0.642,1.622-0.963c0.377,0.309,0.754,0.617,1.13,0.926c0.144,0.118,0.287,0.235,0.431,0.353             c0.221,0.181,0.61,0.092,0.756-0.142c0.167-0.268,0.093-0.563-0.142-0.756c-0.395-0.323-0.789-0.646-1.184-0.969             c0.292-0.173,0.584-0.347,0.876-0.52c0.167-0.099,0.335-0.199,0.502-0.298C391.726,93.335,391.859,93.036,391.723,92.757             z" />
                    </g>
                    <g>
                      <path style="fill:#55C67E;" d="M391.255,101.245c-0.156-0.227-0.527-0.327-0.756-0.141             c-0.539,0.438-1.078,0.877-1.618,1.315c-0.366-0.219-0.731-0.438-1.097-0.657c-0.159-0.095-0.319-0.191-0.478-0.286             c-0.245-0.147-0.617-0.002-0.727,0.251c-0.126,0.29-0.01,0.57,0.251,0.727c0.385,0.231,0.771,0.462,1.156,0.692             c-0.212,0.172-0.424,0.345-0.636,0.517c-0.151,0.123-0.302,0.246-0.453,0.368c-0.228,0.185-0.316,0.5-0.141,0.756             c0.156,0.228,0.527,0.327,0.756,0.141c0.488-0.397,0.976-0.793,1.464-1.19c0.418,0.25,0.836,0.5,1.253,0.75             c0.159,0.095,0.319,0.191,0.478,0.286c0.245,0.147,0.617,0.002,0.727-0.251c0.126-0.29,0.01-0.571-0.251-0.727             c-0.438-0.262-0.875-0.524-1.313-0.786c0.263-0.214,0.527-0.428,0.79-0.643c0.151-0.123,0.302-0.246,0.453-0.368             C391.342,101.816,391.43,101.501,391.255,101.245z" />
                    </g>
                    <g>
                      <path style="fill:#55C67E;" d="M391.662,110.405c-0.15-0.231-0.519-0.34-0.752-0.16c-0.55,0.424-1.101,0.849-1.651,1.273             c-0.36-0.228-0.72-0.457-1.08-0.685c-0.157-0.1-0.314-0.199-0.47-0.299c-0.241-0.153-0.617-0.018-0.733,0.232             c-0.133,0.286-0.025,0.57,0.232,0.733c0.379,0.241,0.759,0.481,1.138,0.722c-0.216,0.167-0.433,0.334-0.649,0.501             c-0.154,0.119-0.308,0.238-0.463,0.357c-0.232,0.179-0.329,0.492-0.16,0.752c0.15,0.231,0.519,0.34,0.752,0.16             c0.498-0.384,0.996-0.768,1.494-1.152c0.411,0.261,0.822,0.522,1.234,0.783c0.157,0.1,0.314,0.199,0.47,0.299             c0.241,0.153,0.616,0.018,0.733-0.232c0.133-0.286,0.025-0.57-0.232-0.733c-0.431-0.273-0.861-0.547-1.292-0.82             c0.269-0.207,0.538-0.415,0.806-0.622c0.154-0.119,0.309-0.238,0.463-0.357             C391.735,110.978,391.831,110.666,391.662,110.405z" />
                    </g>
                    <g>
                      <path style="fill:#55C67E;" d="M392.767,121.39c-0.192-0.198-0.575-0.233-0.769-0.01             c-0.457,0.524-0.914,1.047-1.371,1.571c-0.398-0.154-0.795-0.307-1.193-0.461c-0.173-0.067-0.346-0.134-0.52-0.201             c-0.266-0.103-0.608,0.103-0.674,0.371c-0.075,0.307,0.087,0.564,0.371,0.674c0.419,0.162,0.838,0.324,1.257,0.486             c-0.18,0.206-0.359,0.412-0.539,0.618c-0.128,0.147-0.256,0.294-0.384,0.44c-0.193,0.221-0.227,0.546-0.01,0.769             c0.192,0.198,0.575,0.232,0.769,0.01c0.413-0.474,0.827-0.948,1.24-1.421c0.454,0.176,0.908,0.351,1.363,0.527             c0.173,0.067,0.346,0.134,0.52,0.201c0.266,0.103,0.608-0.102,0.674-0.371c0.075-0.307-0.087-0.564-0.371-0.674             c-0.476-0.184-0.951-0.368-1.427-0.552c0.223-0.256,0.446-0.512,0.669-0.767c0.128-0.147,0.256-0.293,0.384-0.44             C392.95,121.938,392.983,121.612,392.767,121.39z" />
                    </g>
                    <g>
                      <path style="fill:#55C67E;" d="M411.337,75.313c-0.188-0.202-0.57-0.246-0.769-0.028             c-0.469,0.513-0.938,1.026-1.406,1.539c-0.394-0.163-0.788-0.326-1.182-0.488c-0.172-0.071-0.343-0.142-0.515-0.213             c-0.264-0.109-0.61,0.088-0.682,0.355c-0.082,0.305,0.074,0.566,0.355,0.682c0.415,0.172,0.83,0.343,1.246,0.515             c-0.184,0.202-0.369,0.404-0.553,0.605c-0.131,0.144-0.263,0.287-0.394,0.431c-0.198,0.217-0.239,0.541-0.028,0.769             c0.188,0.202,0.57,0.246,0.769,0.028c0.424-0.464,0.848-0.928,1.273-1.392c0.45,0.186,0.9,0.372,1.35,0.558             c0.172,0.071,0.343,0.142,0.515,0.213c0.264,0.109,0.61-0.088,0.682-0.355c0.082-0.305-0.074-0.566-0.355-0.682             c-0.471-0.195-0.943-0.39-1.414-0.584c0.229-0.251,0.458-0.501,0.687-0.752c0.131-0.144,0.263-0.287,0.394-0.431             C411.507,75.865,411.549,75.541,411.337,75.313z" />
                    </g>
                    <g>
                      <path style="fill:#55C67E;" d="M414.267,85.042c-0.158-0.226-0.53-0.322-0.758-0.134c-0.535,0.443-1.07,0.887-1.606,1.33             c-0.368-0.216-0.735-0.431-1.103-0.647c-0.16-0.094-0.32-0.188-0.481-0.282c-0.246-0.145-0.617,0.003-0.725,0.258             c-0.123,0.291-0.005,0.571,0.258,0.725c0.388,0.227,0.775,0.454,1.163,0.682c-0.211,0.174-0.421,0.349-0.632,0.523             c-0.15,0.124-0.3,0.248-0.45,0.373c-0.226,0.187-0.312,0.503-0.134,0.758c0.158,0.226,0.53,0.322,0.757,0.134             c0.484-0.401,0.969-0.802,1.453-1.203c0.42,0.246,0.84,0.493,1.26,0.739c0.16,0.094,0.32,0.188,0.481,0.282             c0.246,0.144,0.617-0.003,0.725-0.258c0.123-0.291,0.005-0.571-0.258-0.725c-0.44-0.258-0.88-0.516-1.32-0.774             c0.262-0.216,0.523-0.433,0.784-0.65c0.15-0.124,0.3-0.248,0.45-0.373C414.359,85.612,414.445,85.297,414.267,85.042z" />
                    </g>
                    <g>
                      <path style="fill:#55C67E;" d="M415.386,94.901c-0.126-0.245-0.482-0.39-0.733-0.234c-0.59,0.368-1.18,0.735-1.77,1.102             c-0.335-0.263-0.671-0.526-1.006-0.789c-0.146-0.115-0.292-0.229-0.439-0.344c-0.225-0.176-0.612-0.08-0.753,0.158             c-0.161,0.271-0.082,0.565,0.158,0.753c0.354,0.277,0.707,0.554,1.061,0.832c-0.232,0.145-0.464,0.289-0.696,0.433             c-0.165,0.103-0.331,0.206-0.496,0.309c-0.249,0.155-0.376,0.456-0.234,0.733c0.126,0.245,0.482,0.39,0.733,0.234             c0.534-0.332,1.067-0.665,1.601-0.997c0.383,0.3,0.766,0.601,1.15,0.902c0.146,0.115,0.292,0.229,0.439,0.344             c0.225,0.176,0.611,0.08,0.753-0.158c0.161-0.272,0.082-0.565-0.158-0.753c-0.401-0.315-0.803-0.629-1.204-0.944             c0.288-0.179,0.576-0.359,0.864-0.538c0.165-0.103,0.331-0.206,0.496-0.309             C415.401,95.478,415.528,95.177,415.386,94.901z" />
                    </g>
                    <g>
                      <path style="fill:#55C67E;" d="M415.588,103.929c-0.121-0.248-0.474-0.4-0.728-0.249             c-0.597,0.355-1.194,0.711-1.792,1.066c-0.33-0.27-0.66-0.54-0.99-0.81c-0.144-0.118-0.288-0.235-0.431-0.353             c-0.221-0.181-0.61-0.092-0.756,0.143c-0.167,0.268-0.093,0.563,0.143,0.756c0.348,0.284,0.696,0.569,1.043,0.853             c-0.235,0.14-0.47,0.279-0.705,0.419c-0.167,0.1-0.335,0.199-0.502,0.299c-0.252,0.15-0.386,0.449-0.249,0.728             c0.121,0.248,0.474,0.4,0.728,0.249c0.54-0.321,1.081-0.643,1.621-0.964c0.377,0.308,0.754,0.616,1.131,0.925             c0.144,0.118,0.288,0.235,0.431,0.353c0.221,0.181,0.61,0.092,0.756-0.143c0.167-0.268,0.093-0.563-0.143-0.756             c-0.395-0.323-0.79-0.646-1.184-0.969c0.292-0.174,0.583-0.347,0.875-0.521c0.167-0.1,0.335-0.199,0.502-0.299             C415.591,104.507,415.724,104.208,415.588,103.929z" />
                    </g>
                    <g>
                      <path style="fill:#55C67E;" d="M414.537,115.142c-0.095-0.259-0.431-0.447-0.698-0.322             c-0.631,0.292-1.261,0.584-1.892,0.876c-0.301-0.302-0.601-0.605-0.901-0.907c-0.131-0.132-0.262-0.263-0.393-0.395             c-0.201-0.202-0.597-0.154-0.766,0.064c-0.193,0.25-0.15,0.55,0.064,0.766c0.317,0.319,0.633,0.637,0.95,0.956             c-0.248,0.115-0.496,0.23-0.744,0.345c-0.177,0.082-0.353,0.164-0.53,0.245c-0.266,0.123-0.43,0.407-0.322,0.698             c0.095,0.259,0.43,0.447,0.698,0.323c0.571-0.264,1.141-0.529,1.712-0.793c0.343,0.345,0.687,0.691,1.03,1.036             c0.131,0.132,0.262,0.263,0.393,0.395c0.201,0.202,0.597,0.154,0.766-0.064c0.193-0.25,0.15-0.55-0.064-0.766             c-0.36-0.362-0.719-0.723-1.079-1.085c0.308-0.143,0.616-0.285,0.924-0.428c0.177-0.082,0.353-0.164,0.53-0.246             C414.481,115.717,414.644,115.434,414.537,115.142z" />
                    </g>
                  </g>
                </g>
                <g style="opacity:0.25;">
                  <path style="fill:#FFFFFF;" d="M387.786,67.618c-15.219,1.474-26.196,9.192-29.98,26.306           c-1.986,8.979-0.74,16.227,1.148,21.399c2.573,0.961,5.316,1.487,8.167,1.487c14.58,0,26.399-13.579,26.399-30.33           C393.519,79.349,391.371,72.797,387.786,67.618z" />
                </g>
              </g>
              <g style="opacity:0.43;">
                <path style="fill:#55C67E;" d="M429.233,93.924c-4.245-19.195-17.534-26.578-35.714-26.578          c-7.072,0-13.399,1.124-18.746,3.619c2.917-0.499,6.011-0.74,9.266-0.74c18.18,0,31.469,7.383,35.714,26.578          c4.245,19.195-6.275,30.48-6.275,30.48c-1.359,1.098-2.929,2.017-4.614,2.794c5.068-0.954,10.357-2.654,14.095-5.673          C422.958,124.404,433.478,113.119,429.233,93.924z" />
              </g>
            </g>
            <g>
              <g>
                <g>
                  <path style="fill:#FFFFFF;" d="M368.772,77.924c-1.194,0.965-2.175,2.269-3.043,3.519           c-2.316,3.332-3.833,7.179-4.749,11.117c-0.158,0.681,0.89,0.972,1.049,0.289c0.897-3.857,2.371-7.595,4.639-10.858           c0.818-1.176,1.75-2.39,2.873-3.299C370.085,78.253,369.311,77.488,368.772,77.924L368.772,77.924z" />
                </g>
              </g>
              <g>
                <circle style="fill:#FFFFFF;" cx="361.03" cy="94.954" r="0.533" />
              </g>
            </g>
            <g>
              <path style="fill:#152F47;" d="M391.327,131.773c-5.446,0-19.716-0.644-27.561-6.98c-0.158-0.163-10.702-11.748-6.449-30.977         c3.958-17.896,16.138-26.97,36.202-26.97c20.065,0,32.244,9.074,36.202,26.97l0,0c2.221,10.04,0.372,17.904-1.57,22.732         c-2.109,5.247-4.718,8.079-4.827,8.196c-9.687,7.83-29.008,7.025-29.828,6.988         C393.352,131.74,392.569,131.773,391.327,131.773z M393.519,67.847c-19.531,0-31.383,8.81-35.226,26.186         c-4.141,18.722,6.05,29.92,6.152,30.031c9.287,7.494,28.857,6.678,29.05,6.67c0.242,0.008,19.81,0.824,29.147-6.719         c0.052-0.063,10.236-11.288,6.102-29.983C424.902,76.657,413.051,67.847,393.519,67.847z" />
            </g>
          </g>
          <g>
            <g>
              <g>
                <path style="fill:#FF81CE;" d="M384.909,70.226c0,0-11.468-6.175-8.146-9.866c3.322-3.691,10.52,5.722,10.52,5.722          s-11.812-14.95-4.061-17.534c7.752-2.584,9.598,15.688,9.598,15.688s-1.477-12.551,3.507-13.473          c4.983-0.923,1.482,12.735,1.387,14.027c0,0,4.888-15.873,11.164-11.443s-5.299,15.69-8.859,16.88          C400.019,70.226,392.501,72.893,384.909,70.226z" />
              </g>
              <g>
                <g>
                  <path style="fill:#F460BF;" d="M396.327,53.346c1.742-0.323,2.445,1.139,2.622,3.23c0.209-3.313-0.219-6.258-2.622-5.814           c-3.516,0.651-3.816,7.086-3.688,10.822C392.773,58.021,393.538,53.862,396.327,53.346z" />
                </g>
                <g>
                  <path style="fill:#F460BF;" d="M397.714,67.373c0,0,4.888-15.873,11.164-11.443c0.895,0.632,1.417,1.406,1.661,2.267           c0.435-1.899,0.064-3.633-1.661-4.851c-4.682-3.305-8.592,4.692-10.275,8.965C398.238,64.773,397.749,66.9,397.714,67.373z           " />
                </g>
                <g>
                  <path style="fill:#F460BF;" d="M383.223,51.131c7.414-2.471,9.424,14.123,9.585,15.576c-0.045-0.42-0.2-2.038-0.191-4.018           c-0.651-4.348-3.034-16.262-9.394-14.142c-2.403,0.801-2.924,2.791-2.501,5.154           C381.007,52.531,381.772,51.614,383.223,51.131z" />
                </g>
                <g>
                  <path style="fill:#F460BF;" d="M376.763,62.943c3.135-3.483,9.719,4.699,10.451,5.632           c-0.421-0.543-2.875-3.766-4.678-7.333c-2.041-1.569-4.292-2.529-5.773-0.884c-0.778,0.864-0.739,1.864-0.233,2.889           C376.599,63.145,376.673,63.043,376.763,62.943z" />
                </g>
              </g>
            </g>
            <g>
              <path style="fill:#152F47;" d="M392.227,71.92c-2.287,0-4.873-0.306-7.483-1.223l-0.071-0.031         c-0.339-0.183-8.311-4.515-8.968-8.292c-0.153-0.882,0.078-1.672,0.687-2.349c0.645-0.715,1.454-1.054,2.41-1.021         c1.486,0.06,3.146,1.081,4.627,2.314c-2.011-3.367-3.989-7.673-3.133-10.539c0.392-1.314,1.324-2.224,2.77-2.706         c1.472-0.489,2.851-0.329,4.1,0.48c2.563,1.658,4.123,5.804,5.031,9.412c0.259-3.47,1.212-7.171,4.041-7.694         c0.851-0.157,1.589,0.045,2.128,0.589c1.434,1.446,1.304,5.085,0.708,9.062c1.429-3.095,3.612-6.726,6.278-7.635         c1.293-0.443,2.578-0.223,3.815,0.651c1.588,1.121,2.271,2.776,1.976,4.788c-0.802,5.449-8.279,12.077-10.965,12.975         C399.976,70.771,396.661,71.92,392.227,71.92z M385.112,69.767c7.314,2.555,14.666,0.013,14.739-0.012         c2.458-0.822,9.563-7.164,10.3-12.175c0.244-1.66-0.267-2.911-1.562-3.825c-0.974-0.688-1.928-0.859-2.916-0.522         c-4.279,1.459-7.45,11.602-7.482,11.705l-1.299,4.213l0.322-4.397c0.017-0.226,0.108-0.698,0.246-1.413         c0.529-2.74,1.937-10.02,0.193-11.776c-0.309-0.31-0.696-0.41-1.236-0.31c-3.602,0.667-3.506,9.048-3.136,12.614         c0.021,0.169,0.031,0.278,0.035,0.318l-0.993,0.109c-0.004-0.026-0.01-0.079-0.018-0.159         c-0.161-1.399-1.521-12.049-5.686-14.743c-0.994-0.643-2.055-0.765-3.239-0.371c-1.135,0.378-1.83,1.047-2.128,2.044         c-1.328,4.445,5.477,13.479,6.335,14.593c0.048,0.062,0.079,0.102,0.093,0.119l-0.79,0.614         c-0.015-0.019-0.046-0.058-0.09-0.116c-0.66-0.834-4.979-6.15-8.04-6.272c-0.662-0.036-1.185,0.2-1.626,0.69         c-0.399,0.443-0.545,0.937-0.445,1.508C377.162,64.928,382.895,68.567,385.112,69.767z" />
            </g>
          </g>
        </g>
        <g>
          <g>
            <g>
              <g>
                <path style="fill:#FFB7A0;" d="M429.787,129.249c-21.041,6.644-36.268,6.091-36.268,6.091s-15.227,0.554-36.268-6.091          c0,0-16.334,47.618,36.268,47.618C446.121,176.868,429.787,129.249,429.787,129.249z" />
              </g>
              <g>
                <path style="fill:#F9A791;" d="M429.787,129.249c-1.893,0.598-3.737,1.135-5.529,1.622          c2.089,13.457,1.228,39.976-38.029,39.976c-10.998,0-18.974-2.087-24.725-5.38c5.525,6.575,15.276,11.4,32.015,11.4          C446.121,176.868,429.787,129.249,429.787,129.249z" />
              </g>
              <g style="opacity:0.25;">
                <path style="fill:#FFFFFF;" d="M387.214,136.602c0-0.492-0.014-0.98-0.034-1.467c-6.365-0.452-17.054-1.82-29.928-5.886          c0,0-8.457,24.659,6.403,38.487C377.096,164.797,387.214,151.975,387.214,136.602z" />
              </g>
            </g>
            <g>
              <path style="fill:#152F47;" d="M393.519,177.368c-16.083,0-27.404-4.436-33.652-13.184         c-5.288-7.405-5.844-16.56-5.379-22.936c0.502-6.883,2.272-12.108,2.291-12.16l0.158-0.461l0.465,0.147         c20.702,6.537,35.949,6.072,36.099,6.067c0.189,0.003,15.429,0.471,36.136-6.067l0.465-0.147l0.158,0.461         c0.019,0.052,1.789,5.277,2.291,12.16c0.465,6.376-0.091,15.532-5.38,22.936         C420.924,172.932,409.602,177.368,393.519,177.368z M357.578,129.876c-0.948,3.114-5.871,21.166,3.105,33.731         c6.05,8.467,17.098,12.761,32.836,12.761c15.738,0,26.785-4.294,32.835-12.76c8.978-12.565,4.055-30.618,3.106-33.731         c-20.638,6.436-35.803,5.972-35.96,5.963C393.389,135.846,378.216,136.313,357.578,129.876z" />
            </g>
          </g>
          <g>
            <g>
              <g>
                <path style="fill:#F99B82;" d="M432.832,124.174c-0.277-3.968-3.23-5.26-5.537-4.153          c-2.307,1.107-16.611,6.091-33.776,6.091c-17.165,0-31.469-4.983-33.776-6.091c-2.307-1.107-5.26,0.185-5.537,4.153          c-0.277,3.968,3.045,5.076,3.045,5.076c14.12,6.737,36.268,6.829,36.268,6.829s22.148-0.092,36.268-6.829          C429.787,129.249,433.109,128.142,432.832,124.174z" />
              </g>
              <g>
                <path style="fill:#EF8873;" d="M432.7,123.229c-0.603,2.565-2.913,3.344-2.913,3.344          c-14.119,6.737-36.268,6.829-36.268,6.829s-22.148-0.092-36.268-6.829c0,0-2.31-0.779-2.913-3.344          c-0.06,0.298-0.109,0.608-0.133,0.945c-0.277,3.968,3.045,5.076,3.045,5.076c14.12,6.737,36.268,6.829,36.268,6.829          s22.148-0.092,36.268-6.829c0,0,3.322-1.107,3.045-5.076C432.809,123.837,432.76,123.527,432.7,123.229z" />
              </g>
            </g>
            <g>
              <path style="fill:#152F47;" d="M393.521,136.578c-0.227-0.001-22.427-0.17-36.484-6.877l0,0         c-0.011,0.001-3.629-1.274-3.33-5.562c0.145-2.063,0.992-3.646,2.387-4.458c1.158-0.674,2.605-0.717,3.866-0.111         c2.07,0.994,16.234,6.042,33.559,6.042c17.329,0,31.489-5.048,33.559-6.042c1.261-0.605,2.707-0.564,3.868,0.112         c1.393,0.811,2.241,2.394,2.385,4.457c0.301,4.305-3.349,5.572-3.386,5.584C415.943,136.408,393.744,136.577,393.521,136.578         z M358.105,120.139c-0.526,0-1.043,0.136-1.509,0.407c-1.1,0.639-1.771,1.94-1.892,3.663         c-0.245,3.517,2.586,4.526,2.707,4.567c13.909,6.632,35.889,6.801,36.109,6.802c0.217-0.001,22.195-0.17,36.051-6.78         c0.176-0.064,3.007-1.073,2.761-4.59l0,0c-0.12-1.722-0.791-3.023-1.89-3.662c-0.89-0.518-1.957-0.544-2.932-0.075         c-2.105,1.01-16.476,6.14-33.992,6.14c-17.514,0-31.888-5.13-33.993-6.14C359.064,120.249,358.58,120.139,358.105,120.139z" />
            </g>
          </g>
        </g>
        <g>
          <g>
            <g>
              <path style="fill:#FFFFFF;" d="M358.676,140.564c-0.414,1.478-0.458,3.109-0.442,4.631c0.042,4.058,1.035,8.072,2.569,11.813         c0.265,0.647,1.288,0.277,1.022-0.372c-1.503-3.664-2.467-7.564-2.508-11.538c-0.015-1.433,0.041-2.962,0.431-4.353         C359.937,140.071,358.863,139.895,358.676,140.564L358.676,140.564z" />
            </g>
          </g>
          <g>
            <path style="fill:#FFFFFF;" d="M362.665,158.621c0.171,0.24,0.114,0.573-0.126,0.743c-0.24,0.171-0.573,0.114-0.743-0.126        s-0.114-0.573,0.126-0.743C362.162,158.325,362.494,158.381,362.665,158.621z" />
          </g>
        </g>
      </g>
    </g>
    <g>
      <g>
        <g>
          <g>
            <g>
              <path style="fill:#152F47;" d="M381.649,148.465c0,3.262-1.766,5.906-3.945,5.906c-2.179,0-3.945-2.644-3.945-5.906         s1.766-5.906,3.945-5.906C379.882,142.559,381.649,145.203,381.649,148.465z" />
            </g>
            <g>
              <g>
                <path style="fill:#FFFFFF;" d="M378.509,146.043c0,0.905-0.733,1.638-1.638,1.638c-0.905,0-1.638-0.733-1.638-1.638          c0-0.905,0.733-1.638,1.638-1.638C377.776,144.405,378.509,145.138,378.509,146.043z" />
              </g>
              <g>
                <circle style="fill:#FFFFFF;" cx="379.096" cy="148.65" r="1.078" />
              </g>
            </g>
          </g>
          <g>
            <g>
              <path style="fill:#152F47;" d="M411.679,148.465c0,3.262-1.766,5.906-3.945,5.906c-2.179,0-3.945-2.644-3.945-5.906         s1.766-5.906,3.945-5.906C409.912,142.559,411.679,145.203,411.679,148.465z" />
            </g>
            <g>
              <g>
                <path style="fill:#FFFFFF;" d="M408.539,146.043c0,0.905-0.733,1.638-1.638,1.638c-0.905,0-1.638-0.733-1.638-1.638          c0-0.905,0.733-1.638,1.638-1.638C407.805,144.405,408.539,145.138,408.539,146.043z" />
              </g>
              <g>
                <path style="fill:#FFFFFF;" d="M410.204,148.65c0,0.595-0.483,1.078-1.078,1.078c-0.595,0-1.078-0.483-1.078-1.078          c0-0.595,0.483-1.078,1.078-1.078C409.722,147.572,410.204,148.054,410.204,148.65z" />
              </g>
            </g>
          </g>
        </g>
        <g>
          <g>
            <path style="fill:#152F47;" d="M399.571,154.547c-2.639-0.175-10.359-0.175-13.704,0c0,0-0.311,5.835,6.852,5.835        C399.882,160.382,399.571,154.547,399.571,154.547z" />
          </g>
          <g>
            <path style="fill:#FF81CE;" d="M392.718,160.382c1.873,0,3.223-0.402,4.214-0.991c-0.786-1.166-2.375-1.967-4.214-1.967        c-1.836,0-3.425,0.801-4.212,1.967C389.495,159.979,390.847,160.382,392.718,160.382z" />
          </g>
        </g>
      </g>
      <g>
        <g>
          <path style="fill:#FF81CE;" d="M378.932,155.222c-0.304,0.798-2.401,0.738-4.684-0.133s-3.886-2.223-3.582-3.021       c0.304-0.798,2.401-0.738,4.684,0.133C377.633,153.072,379.237,154.425,378.932,155.222z" />
        </g>
        <g>
          <path style="fill:#FF81CE;" d="M406.505,155.222c0.304,0.798,2.401,0.738,4.684-0.133c2.283-0.871,3.886-2.223,3.582-3.021       c-0.304-0.798-2.401-0.738-4.684,0.133S406.2,154.425,406.505,155.222z" />
        </g>
      </g>
    </g>
  </g>
</svg>