<?xml version='1.0' encoding='utf-8'?>
<svg xmlns="http://www.w3.org/2000/svg" version="1.1" viewBox="-54.574 -62.93 458.753 531.585" width="458.753" height="531.585">
  <g>
    <g>
      <g>
        <g>
          <g>
            <g>
              <g>
                <path style="fill:#FFB7A0;" d="M304.811,382.31c-12.326-0.308-43.257,5.045-44.574,28.762          c-1.317,23.718,15.372,48.752,47.873,46.995c32.501-1.756,45.679-32.288,40.407-52.93          C343.247,384.496,322.38,382.75,304.811,382.31z" />
              </g>
              <g>
                <path style="fill:#F9A791;" d="M348.518,405.138c-1.782-6.981-5.352-11.794-9.971-15.134c0.135,0.45,0.272,0.9,0.393,1.37          c5.27,20.642-7.905,51.174-40.408,52.93c-14.841,0.802-26.373-3.992-34.412-11.687c6.639,15.091,21.539,26.664,43.991,25.45          C340.611,456.311,353.789,425.779,348.518,405.138z" />
              </g>
              <path style="opacity:0.2;fill:#FFFFFF;" d="M260.237,411.072c-0.346,6.235,0.564,12.557,2.667,18.463         c3.087,0.535,6.294,0.827,9.591,0.827c23.992,0,43.441-14.949,43.441-33.389c0-5.153-1.521-10.033-4.234-14.391         c-2.324-0.137-4.634-0.216-6.89-0.272C292.485,382.003,261.555,387.355,260.237,411.072z" />
            </g>
            <g>
              <g>
                <g>
                  <path style="fill:#F9A791;" d="M276,394.613c0,0.452-0.367,0.819-0.819,0.819c-0.453,0-0.819-0.367-0.819-0.819           c0-0.451,0.366-0.819,0.819-0.819C275.633,393.794,276,394.162,276,394.613z" />
                </g>
                <g>
                  <path style="fill:#F9A791;" d="M277.023,398.924c0,0.565-0.458,1.025-1.023,1.025c-0.565,0-1.025-0.46-1.025-1.025           c0-0.565,0.46-1.023,1.025-1.023C276.565,397.9,277.023,398.358,277.023,398.924z" />
                </g>
                <g>
                  <path style="fill:#F9A791;" d="M272.318,399.949c0,0.884-0.717,1.6-1.6,1.6c-0.883,0-1.6-0.716-1.6-1.6           c0-0.884,0.717-1.601,1.6-1.601C271.602,398.349,272.318,399.065,272.318,399.949z" />
                </g>
                <g>
                  <path style="fill:#F9A791;" d="M275.181,406.481c0,0.452-0.368,0.819-0.819,0.819c-0.453,0-0.819-0.367-0.819-0.819           c0-0.453,0.366-0.819,0.819-0.819C274.812,405.662,275.181,406.028,275.181,406.481z" />
                </g>
                <g>
                  <path style="fill:#F9A791;" d="M267.897,406.481c0,0.452-0.366,0.819-0.819,0.819c-0.452,0-0.819-0.367-0.819-0.819           c0-0.453,0.367-0.819,0.819-0.819C267.531,405.662,267.897,406.028,267.897,406.481z" />
                </g>
                <g>
                  <path style="fill:#F9A791;" d="M271.099,413.565c0,0.883-0.717,1.6-1.601,1.6c-0.884,0-1.6-0.717-1.6-1.6           s0.717-1.6,1.6-1.6C270.382,411.966,271.099,412.683,271.099,413.565z" />
                </g>
              </g>
              <g>
                <g>
                  <path style="fill:#F9A791;" d="M283.281,407.323c0,0.451-0.367,0.819-0.819,0.819c-0.453,0-0.819-0.368-0.819-0.819           c0-0.453,0.366-0.819,0.819-0.819C282.914,406.504,283.281,406.87,283.281,407.323z" />
                </g>
                <g>
                  <path style="fill:#F9A791;" d="M284.306,411.634c0,0.565-0.459,1.023-1.024,1.023c-0.565,0-1.023-0.458-1.023-1.023           s0.458-1.024,1.023-1.024C283.847,410.609,284.306,411.068,284.306,411.634z" />
                </g>
                <g>
                  <path style="fill:#F9A791;" d="M279.602,412.657c0,0.884-0.716,1.601-1.6,1.601c-0.884,0-1.601-0.717-1.601-1.601           c0-0.883,0.717-1.6,1.601-1.6C278.886,411.058,279.602,411.774,279.602,412.657z" />
                </g>
                <g>
                  <path style="fill:#F9A791;" d="M282.462,419.19c0,0.453-0.367,0.819-0.819,0.819c-0.452,0-0.819-0.366-0.819-0.819           c0-0.452,0.367-0.819,0.819-0.819C282.095,418.37,282.462,418.737,282.462,419.19z" />
                </g>
                <g>
                  <path style="fill:#F9A791;" d="M275.181,419.19c0,0.453-0.368,0.819-0.819,0.819c-0.453,0-0.819-0.366-0.819-0.819           c0-0.452,0.366-0.819,0.819-0.819C274.812,418.37,275.181,418.737,275.181,419.19z" />
                </g>
                <g>
                  <path style="fill:#F9A791;" d="M278.381,426.274c0,0.883-0.718,1.601-1.601,1.601c-0.883,0-1.6-0.718-1.6-1.601           c0-0.883,0.717-1.6,1.6-1.6C277.663,424.675,278.381,425.392,278.381,426.274z" />
                </g>
              </g>
            </g>
          </g>
          <g>
            <path style="fill:#152F47;" d="M304.907,458.655c-12.905,0-23.999-4.31-32.237-12.561        c-8.958-8.971-13.671-21.746-12.932-35.05c0.577-10.389,6.957-18.625,18.452-23.818c9.414-4.254,20.238-5.57,26.634-5.416l0,0        c18.627,0.466,38.938,2.682,44.178,23.203c3.013,11.797,0.076,25.674-7.664,36.214c-5.423,7.385-15.585,16.388-33.2,17.339        C307.049,458.625,305.972,458.655,304.907,458.655z M303.861,382.799c-11.765,0-41.83,4.992-43.125,28.301        c-0.723,13.021,3.884,25.52,12.641,34.288c8.712,8.725,20.707,12.935,34.706,12.181c17.226-0.931,27.153-9.722,32.448-16.933        c7.568-10.306,10.442-23.86,7.502-35.374c-5.067-19.846-24.974-21.994-43.234-22.451        C304.501,382.803,304.188,382.799,303.861,382.799z" />
          </g>
        </g>
        <g>
          <g>
            <g>
              <g>
                <g>
                  <path style="fill:#CC533B;" d="M304.228,393.648c0,0-10.151-22.811,9.504-42.582c0,0,1.091,2.552,6.98,2.596           c0,0-21.925,19.893-13.008,40.011L304.228,393.648z" />
                </g>
                <g>
                  <path style="fill:#E56142;" d="M320.677,353.738c-0.817,0.772-2.986,0.777-4.854,0.018           c-1.878-0.762-2.75-2.002-1.939-2.766c0.807-0.774,2.966-0.777,4.849-0.019           C320.61,351.736,321.475,352.971,320.677,353.738z" />
                </g>
              </g>
            </g>
          </g>
          <g>
            <path style="fill:#152F47;" d="M308.476,394.179l-4.573-0.032l-0.131-0.295c-0.103-0.232-10.062-23.353,9.606-43.138l0,0        c-0.003,0,2.018-2.303,5.681-0.438v-0.001c1.371,0.696,2.27,1.646,2.403,2.54c0.072,0.485-0.083,0.941-0.439,1.283        c-0.15,0.139-0.623,0.572-0.718,0.637c-2.058,1.957-20.405,20.095-12.144,38.735L308.476,394.179z M304.564,393.15        l2.382,0.018c-7.779-19.013,10.588-37.178,12.733-39.209c0.138-0.111,0.614-0.548,0.658-0.589        c0.116-0.111,0.16-0.239,0.135-0.407c-0.068-0.456-0.672-1.188-1.867-1.795v-0.001c-2.946-1.494-4.432,0.153-4.494,0.226        C296.106,369.506,303.494,390.433,304.564,393.15z" />
          </g>
        </g>
        <g>
          <g>
            <g>
              <path style="fill:#55C67E;" d="M315.028,379.785c0,0,0.563-22.446,26.78-14.496         C341.809,365.289,337.68,383.6,315.028,379.785z" />
            </g>
            <g>
              <path style="fill:#43BA6A;" d="M339.229,364.588c-0.883,2.923-5.914,16.132-24.126,14.254         c-0.066,0.595-0.075,0.943-0.075,0.943c22.651,3.814,26.78-14.496,26.78-14.496         C340.918,365.019,340.062,364.791,339.229,364.588z" />
            </g>
            <g>
              <path style="fill:#152F47;" d="M336.511,365.75c-4.416,1.553-8.803,3.757-12.845,6.514c-0.057,0.013-0.116,0.022-0.172,0.037         c-0.156,0.04-0.237,0.143-0.271,0.262c-1.177,0.819-2.315,1.69-3.421,2.603c0.617-2.719,2.316-5.302,4.089-7.371         c0.343-0.399-0.234-0.981-0.579-0.58c-2.105,2.457-4.017,5.503-4.472,8.756c-5.36,4.662-9.683,10.444-11.935,17.125         c-0.17,0.503,0.622,0.716,0.79,0.218c2.81-8.335,8.95-15.249,16.277-20.28c2.977-0.746,6.126-1.015,9.188-0.763         c0.527,0.044,0.523-0.777,0-0.819c-2.415-0.198-4.891-0.081-7.293,0.335c3.475-2.175,7.163-3.945,10.86-5.247         C337.224,366.365,337.011,365.574,336.511,365.75z" />
            </g>
          </g>
          <g>
            <path style="fill:#152F47;" d="M320.913,380.804c-1.835,0-3.819-0.164-5.968-0.525l-0.428-0.072l0.011-0.434        c0.009-0.363,0.299-8.961,6.87-13.708c4.843-3.499,11.758-3.921,20.556-1.254l0.444,0.135l-0.103,0.454        C342.258,365.569,338.597,380.804,320.913,380.804z M315.557,379.364c19.828,3.122,24.85-10.938,25.647-13.734        c-8.257-2.418-14.719-2.002-19.212,1.24C316.63,370.737,315.708,377.582,315.557,379.364z" />
          </g>
        </g>
        <g>
          <g>
            <g>
              <path style="fill:#55C67E;" d="M296.849,381.753c0,0-0.488-19.472-23.233-12.575         C273.615,369.178,277.196,385.064,296.849,381.753z" />
            </g>
            <g>
              <path style="fill:#43BA6A;" d="M275.852,368.569c0.767,2.536,5.132,13.994,20.933,12.367         c0.057,0.515,0.064,0.816,0.064,0.816c-19.652,3.311-23.233-12.575-23.233-12.575         C274.388,368.943,275.131,368.745,275.852,368.569z" />
            </g>
            <g>
              <path style="fill:#152F47;" d="M278.212,369.577c3.831,1.348,7.638,3.26,11.145,5.65c0.048,0.012,0.1,0.02,0.148,0.033         c0.135,0.034,0.204,0.125,0.233,0.227c1.022,0.711,2.011,1.466,2.97,2.26c-0.536-2.359-2.01-4.602-3.548-6.396         c-0.297-0.347,0.201-0.852,0.502-0.504c1.825,2.132,3.484,4.775,3.88,7.597c4.649,4.045,8.399,9.062,10.354,14.857         c0.146,0.436-0.54,0.621-0.687,0.188c-2.437-7.23-7.765-13.229-14.122-17.594c-2.582-0.648-5.313-0.881-7.969-0.663         c-0.456,0.039-0.454-0.673,0-0.71c2.095-0.171,4.241-0.069,6.326,0.29c-3.016-1.887-6.214-3.424-9.422-4.551         C277.593,370.111,277.777,369.425,278.212,369.577z" />
            </g>
          </g>
          <g>
            <path style="fill:#152F47;" d="M291.751,382.701c-7.233,0-11.677-2.917-14.253-5.651c-3.406-3.615-4.333-7.595-4.37-7.762        l-0.102-0.454l0.444-0.135c7.655-2.321,13.672-1.95,17.892,1.098c5.727,4.138,5.979,11.627,5.987,11.943l0.011,0.434        l-0.428,0.072C295.063,382.56,293.34,382.701,291.751,382.701z M274.223,369.519c0.742,2.548,5.152,14.451,22.097,11.813        c-0.146-1.626-0.98-7.433-5.551-10.729C286.899,367.81,281.333,367.447,274.223,369.519z" />
          </g>
        </g>
        <g>
          <path style="fill:#E05A3B;" d="M296.611,392.448c0,0,0.363,0.015,0.917,0.054c0.566,0.031,1.347,0.08,2.219,0.155       c0.441,0.028,0.907,0.058,1.38,0.107c0.48,0.025,0.975,0.052,1.468,0.102c0.502,0.012,1.002,0.032,1.501,0.075       c0.249,0,0.498-0.01,0.746,0l0.37,0.014l0.186,0.006l0.093,0.003l0.046,0.003l0.023,0.001h0.012       c-0.09,0.003,0.212-0.007-0.202,0.007l0.007-0.001c0.594-0.032,1.203-0.063,1.777-0.072c0.387-0.075,0.768-0.087,1.197-0.12       c0.454-0.083,0.926-0.129,1.378-0.196c0.441-0.089,0.892-0.149,1.31-0.225c1.803-0.335,3.005-0.559,3.005-0.559       s-0.063,0.224-0.294,0.579c-0.122,0.174-0.277,0.384-0.486,0.615c-0.214,0.228-0.493,0.461-0.81,0.721       c-0.33,0.248-0.738,0.488-1.178,0.744c-0.463,0.233-1.003,0.45-1.57,0.667c-0.636,0.191-1.385,0.362-2.132,0.499       c-0.597,0.075-1.182,0.11-1.781,0.156l-0.223,0.007l-0.016-0.002h-0.034l-0.064-0.005l-0.132-0.006l-0.263-0.015l-0.522-0.03       c-0.348-0.016-0.691-0.054-1.033-0.082c-0.657-0.106-1.296-0.231-1.895-0.37c-0.578-0.168-1.122-0.347-1.62-0.529       c-0.477-0.207-0.917-0.41-1.3-0.613c-0.754-0.423-1.287-0.842-1.616-1.161C296.738,392.655,296.611,392.448,296.611,392.448z" />
        </g>
      </g>
      <g>
        <g>
          <g>
            <path style="fill:#152F47;" d="M293.526,412.968c0,0,0.043-0.277,0.285-0.588c0.124-0.156,0.291-0.327,0.521-0.451        c0.228-0.132,0.513-0.22,0.816-0.218c0.153-0.006,0.297,0.033,0.442,0.066c0.144,0.028,0.262,0.118,0.383,0.175        c0.223,0.15,0.389,0.322,0.49,0.5c0.121,0.157,0.155,0.327,0.194,0.432c0.031,0.11,0.04,0.177,0.04,0.177        s-0.065-0.022-0.169-0.068c-0.107-0.043-0.23-0.121-0.391-0.181c-0.15-0.074-0.322-0.128-0.49-0.189        c-0.171-0.03-0.334-0.082-0.504-0.065c-0.168-0.021-0.346,0.024-0.524,0.058c-0.181,0.039-0.354,0.1-0.518,0.149        C293.755,412.886,293.526,412.968,293.526,412.968z" />
          </g>
          <g>
            <path style="fill:#152F47;" d="M314.36,412.723c0,0,0.071-0.271,0.349-0.558c0.136-0.142,0.322-0.293,0.564-0.395        c0.236-0.104,0.531-0.164,0.832-0.131c0.152,0.01,0.292,0.066,0.435,0.108c0.139,0.046,0.246,0.148,0.362,0.215        c0.203,0.174,0.354,0.365,0.435,0.549c0.103,0.17,0.122,0.341,0.15,0.448c0.02,0.116,0.023,0.181,0.023,0.181        s-0.064-0.027-0.163-0.085c-0.1-0.049-0.219-0.145-0.37-0.219c-0.145-0.089-0.308-0.166-0.467-0.241        c-0.171-0.049-0.324-0.116-0.497-0.117c-0.166-0.035-0.347-0.009-0.527,0.004c-0.182,0.022-0.361,0.065-0.529,0.098        C314.599,412.663,314.36,412.723,314.36,412.723z" />
          </g>
        </g>
        <g>
          <g>
            <g>
              <path style="fill:#152F47;" d="M298.136,419.735c0,1.739-1.408,3.149-3.148,3.149s-3.149-1.41-3.149-3.149         c0-1.739,1.409-3.148,3.149-3.148S298.136,417.996,298.136,419.735z" />
            </g>
            <g>
              <g>
                <path style="fill:#FFFFFF;" d="M294.86,418.581c0,0.45-0.363,0.814-0.814,0.814c-0.449,0-0.813-0.364-0.813-0.814          c0-0.449,0.363-0.813,0.813-0.813C294.497,417.769,294.86,418.132,294.86,418.581z" />
              </g>
              <g>
                <path style="fill:#FFFFFF;" d="M293.645,420.147c0,0.227-0.185,0.411-0.412,0.411c-0.227,0-0.411-0.185-0.411-0.411          c0-0.228,0.184-0.412,0.411-0.412C293.461,419.735,293.645,419.92,293.645,420.147z" />
              </g>
            </g>
          </g>
          <g>
            <g>
              <path style="fill:#152F47;" d="M317.235,416.19c-0.789,0.315-1.564,0.667-2.321,1.05c-0.794,0.403-2.126,1.005-2.42,1.943         c-0.339,1.081,1.124,1.699,1.881,2.054c0.957,0.448,1.967,0.809,2.977,1.114c0.736,0.224,1.049-0.927,0.316-1.147         c-0.678-0.205-1.345-0.443-2.004-0.701c-0.498-0.195-0.983-0.422-1.452-0.68c-0.21-0.115-0.407-0.248-0.584-0.408         c0.091,0.081-0.101,0.225,0.117-0.011c0.919-0.996,2.569-1.573,3.806-2.066C318.256,417.057,317.949,415.905,317.235,416.19         L317.235,416.19z" />
            </g>
          </g>
        </g>
        <g>
          <g>
            <path style="fill:#FF81CE;" d="M296.184,426.529c0,1.402-1.137,2.539-2.541,2.539c-1.402,0-2.541-1.137-2.541-2.539        c0-1.403,1.139-2.541,2.541-2.541C295.047,423.988,296.184,425.126,296.184,426.529z" />
          </g>
          <g>
            <path style="fill:#FF81CE;" d="M319.934,426.529c0,1.402-1.136,2.539-2.54,2.539c-1.402,0-2.54-1.137-2.54-2.539        c0-1.403,1.138-2.541,2.54-2.541C318.798,423.988,319.934,425.126,319.934,426.529z" />
          </g>
        </g>
        <g>
          <g>
            <path style="fill:#152F47;" d="M301.366,420.689c0.433,1.186,1.169,2.342,2.244,3.032c2.267,1.452,4.429-1.274,5.52-2.914        c0.352-0.529-0.499-1.02-0.848-0.495c-0.997,1.501-2.825,3.894-4.687,2.164c-0.572-0.533-1.016-1.313-1.283-2.047        C302.098,419.839,301.149,420.094,301.366,420.689L301.366,420.689z" />
          </g>
        </g>
      </g>
    </g>
    <g>
      <g>
        <path style="fill:#FFFFFF;" d="M283.115,389.897c-2.17,0.865-4.245,2.039-6.193,3.319c-3.768,2.475-7.299,5.652-9.405,9.697      c-1.313,2.521-1.976,5.302-1.883,8.145c0.026,0.802,1.276,0.806,1.25,0c-0.29-8.875,7.267-15.307,14.526-19.001      c0.503-0.256,1.012-0.502,1.527-0.733c0.319-0.143,0.335-0.151,0.511-0.221C284.186,390.808,283.864,389.599,283.115,389.897      L283.115,389.897z" />
      </g>
      <path style="fill:#FFFFFF;" d="M267.806,414.513c0,0.523-0.424,0.947-0.948,0.947c-0.523,0-0.947-0.424-0.947-0.947     c0-0.523,0.424-0.948,0.947-0.948C267.382,413.565,267.806,413.99,267.806,414.513z" />
    </g>
  </g>
</svg>