<?xml version='1.0' encoding='utf-8'?>
<svg xmlns="http://www.w3.org/2000/svg" xmlns:ns1="http://www.w3.org/1999/xlink" version="1.1" viewBox="-94.889 -126.791 385.896 408.976" width="385.896" height="408.976">
  <g>
    <g>
      <g>
        <g>
          <rect x="187.475" y="87.713" transform="matrix(0.0885 -0.9961 0.9961 0.0885 133.5905 327.2452)" style="fill:#C3C5F4;" width="116.251" height="5.832" />
        </g>
        <g>
          <defs>
            <rect id="SVGID_00000145040872930774125810000016173128886419045796_" x="187.475" y="87.713" transform="matrix(0.0885 -0.9961 0.9961 0.0885 133.5905 327.2452)" width="116.251" height="5.832" />
          </defs>
          <clipPath id="SVGID_00000174599782524955546220000004933247096008033937_">
            <use ns1:href="#SVGID_00000145040872930774125810000016173128886419045796_" style="overflow:visible;" />
          </clipPath>
          <g style="clip-path:url(#SVGID_00000174599782524955546220000004933247096008033937_);">
            <g>
              <g>
                <rect x="164.175" y="134.211" transform="matrix(0.9077 -0.4197 0.4197 0.9077 -34.6833 115.1873)" style="fill:#757EEA;" width="160.566" height="4.423" />
              </g>
              <g>
                <rect x="165.457" y="119.792" transform="matrix(0.9077 -0.4197 0.4197 0.9077 -28.5133 114.3918)" style="fill:#757EEA;" width="160.566" height="4.421" />
              </g>
            </g>
            <g>
              <g>
                <rect x="166.739" y="105.371" transform="matrix(0.9077 -0.4196 0.4196 0.9077 -22.343 113.5925)" style="fill:#757EEA;" width="160.565" height="4.421" />
              </g>
              <g>
                <rect x="168.02" y="90.951" transform="matrix(0.9077 -0.4197 0.4197 0.9077 -16.173 112.8075)" style="fill:#757EEA;" width="160.565" height="4.423" />
              </g>
            </g>
            <g>
              <g>
                <rect x="169.301" y="76.53" transform="matrix(0.9077 -0.4197 0.4197 0.9077 -10.0032 112.0109)" style="fill:#757EEA;" width="160.566" height="4.423" />
              </g>
              <g>
                <rect x="170.583" y="62.11" transform="matrix(0.9077 -0.4197 0.4197 0.9077 -3.8327 111.2201)" style="fill:#757EEA;" width="160.566" height="4.423" />
              </g>
            </g>
            <g>
              <g>
                <rect x="171.864" y="47.689" transform="matrix(0.9077 -0.4197 0.4197 0.9077 2.3377 110.426)" style="fill:#757EEA;" width="160.567" height="4.422" />
              </g>
              <g>
                <rect x="173.147" y="33.268" transform="matrix(0.9077 -0.4197 0.4197 0.9077 8.5075 109.631)" style="fill:#757EEA;" width="160.565" height="4.422" />
              </g>
            </g>
          </g>
        </g>
        <g>
          <path style="fill:#152F47;" d="M243.813,149.327l-6.805-0.605l10.379-116.791l6.805,0.606l-0.044,0.498L243.813,149.327z        M238.093,147.815l4.813,0.427l10.203-114.797l-4.814-0.429L238.093,147.815z" />
        </g>
      </g>
      <g>
        <g>
          <g>
            <g>
              <g>
                <path style="fill:#F1C1F7;" d="M244.517,92.168c-12.434,0-23.646-2.083-31.611-4.595c1.385,14.738,7.589,81.067,8.28,84.89          c0.778,4.307,6.61,4.405,6.61,4.405h15.553h2.333h15.552c0,0,5.833-0.098,6.611-4.405c0.69-3.822,6.896-70.151,8.279-84.889          C268.162,90.086,256.949,92.168,244.517,92.168z" />
              </g>
              <g>
                <path style="fill:#E7B4EF;" d="M262.162,90.785c5.025,8.306,8,18.571,8,29.687c0,27.636-18.359,50.039-41.005,50.039          c-2.859,0-5.648-0.359-8.341-1.038c0.173,1.559,0.301,2.601,0.371,2.99c0.778,4.307,6.61,4.405,6.61,4.405h15.553h2.333          h15.552c0,0,5.833-0.098,6.611-4.405c0.69-3.822,6.896-70.151,8.279-84.889C272.185,88.817,267.447,89.953,262.162,90.785z" />
              </g>
              <g style="opacity:0.25;">
                <path style="fill:#FFFFFF;" d="M212.906,87.573c0.776,8.25,3.061,32.666,5.044,53.235          c15.107-2.213,26.758-16.323,26.758-33.412c0-5.502-1.215-10.69-3.357-15.278C230.188,91.803,220.188,89.87,212.906,87.573z          " />
              </g>
            </g>
            <g>
              <path style="fill:#152F47;" d="M245.683,177.368h-17.886c-0.071-0.001-6.261-0.159-7.103-4.816         c-0.646-3.576-5.937-59.916-7.928-81.126l-0.428-4.557l0.719,0.227c5.413,1.708,16.697,4.572,31.46,4.572         c14.761,0,26.045-2.864,31.458-4.571l0.719-0.227l-0.272,2.897c-4.923,52.489-7.643,80.341-8.084,82.784         c-0.842,4.657-7.032,4.815-7.095,4.816H245.683z M213.474,88.273l0.288,3.06c1.8,19.17,7.278,77.507,7.917,81.041         c0.695,3.847,6.073,3.993,6.127,3.994h33.429c0.045-0.001,5.424-0.146,6.119-3.994c0.437-2.414,3.152-30.239,8.072-82.699         l0.132-1.401c-5.711,1.739-16.77,4.395-31.041,4.395C230.243,92.668,219.184,90.012,213.474,88.273z" />
            </g>
          </g>
          <g>
            <g>
              <path style="fill:#F1C1F7;" d="M268.118,73.12c-1.644-0.329-17.786,0-23.607,0s-21.963-0.329-23.607,0         c-1.644,0.329-5.273,9.904-5.273,9.904c12.153,7.109,28.879,5.698,28.879,5.698s16.726,1.411,28.879-5.698         C273.391,83.024,269.762,73.449,268.118,73.12z" />
            </g>
            <g>
              <path style="fill:#E9B1F2;" d="M268.118,73.12c-0.232-0.046-0.761-0.079-1.501-0.102         c-1.205,7.66-15.318,13.707-32.564,13.707c-4.769,0-9.295-0.466-13.379-1.297c11.265,4.351,23.837,3.294,23.837,3.294         s16.726,1.411,28.879-5.698C273.391,83.024,269.762,73.449,268.118,73.12z" />
            </g>
            <g>
              <path style="fill:#152F47;" d="M247.946,89.327c-2.124,0-3.43-0.104-3.477-0.107c-0.083,0.015-16.939,1.343-29.089-5.764         l-0.365-0.213l0.149-0.396c0.874-2.307,3.865-9.861,5.642-10.217c1.112-0.223,7.753-0.168,16.316-0.072         c2.947,0.033,5.637,0.063,7.389,0.063c1.753,0,4.442-0.03,7.39-0.063c8.563-0.095,15.205-0.149,16.314,0.072h0.001         c1.776,0.356,4.767,7.91,5.642,10.217l0.149,0.396l-0.364,0.213C264.834,88.608,253.549,89.327,247.946,89.327z          M216.252,82.804c11.842,6.706,28.054,5.432,28.217,5.42c0.246,0.012,16.458,1.287,28.302-5.42         c-1.686-4.373-3.948-9.016-4.751-9.193c-1.099-0.219-9.772-0.123-16.108-0.053c-2.952,0.033-5.645,0.063-7.401,0.063         c-1.755,0-4.449-0.03-7.4-0.063c-6.334-0.07-15.01-0.166-16.108,0.053C220.2,73.787,217.938,78.43,216.252,82.804z" />
            </g>
          </g>
          <g>
            <g>
              <path style="fill:#F8E5E5;" d="M212.898,108.742c1.298,13.748,2.862,30.199,4.148,43.342         c23.704,7.739,45.539,2.786,54.958-0.173c1.279-13.081,2.831-29.397,4.121-43.064         C247.473,114.621,223.371,110.989,212.898,108.742z" />
            </g>
            <g>
              <g>
                <path style="fill:#F7D2D2;" d="M238.149,115.499c-0.032-0.767-1.229-0.771-1.196,0c0.469,11.149,0.937,22.298,1.406,33.447          c0.067,1.589,0.134,3.178,0.2,4.768c0.032,0.767,1.229,0.771,1.196,0c-0.469-11.149-0.937-22.298-1.406-33.447          C238.282,118.678,238.215,117.089,238.149,115.499z" />
              </g>
              <g>
                <path style="fill:#F7D2D2;" d="M230.18,114.89c-0.06-0.762-1.257-0.769-1.196,0c0.871,11.048,1.742,22.096,2.613,33.144          c0.125,1.589,0.25,3.177,0.376,4.766c0.06,0.762,1.257,0.769,1.196,0c-0.871-11.048-1.742-22.096-2.613-33.144          C230.43,118.068,230.305,116.479,230.18,114.89z" />
              </g>
              <g>
                <path style="fill:#F7D2D2;" d="M222.548,114.89c-0.087-0.756-1.284-0.765-1.196,0c1.228,10.717,2.456,21.435,3.684,32.152          c0.173,1.513,0.347,3.027,0.52,4.54c0.087,0.756,1.284,0.765,1.196,0c-1.228-10.717-2.456-21.435-3.684-32.152          C222.895,117.917,222.721,116.404,222.548,114.89z" />
              </g>
              <g>
                <path style="fill:#F7D2D2;" d="M217.187,114.89c-0.068-0.761-1.265-0.768-1.196,0c0.912,10.19,1.824,20.38,2.735,30.571          c0.131,1.465,0.262,2.93,0.393,4.394c0.068,0.761,1.265,0.768,1.196,0c-0.912-10.19-1.824-20.38-2.735-30.571          C217.449,117.82,217.318,116.355,217.187,114.89z" />
              </g>
              <g>
                <path style="fill:#F7D2D2;" d="M244.708,114.316c-0.306-0.009-0.618,0.18-0.618,0.574c0,11.548,0,23.096,0,34.644          c0,1.647,0,3.294,0,4.941c0,0.393,0.312,0.583,0.618,0.575c0.306,0.009,0.618-0.181,0.618-0.575c0-1.647,0-3.294,0-4.941          c0-11.548,0-23.096,0-34.644C245.326,114.496,245.014,114.307,244.708,114.316z" />
              </g>
              <g>
                <path style="fill:#F7D2D2;" d="M251.268,115.499c-0.067,1.589-0.134,3.179-0.2,4.768          c-0.469,11.149-0.937,22.298-1.406,33.447c-0.032,0.771,1.164,0.767,1.196,0c0.067-1.589,0.134-3.178,0.2-4.768          c0.469-11.149,0.937-22.298,1.406-33.447C252.496,114.728,251.3,114.732,251.268,115.499z" />
              </g>
              <g>
                <path style="fill:#F7D2D2;" d="M259.236,114.89c-0.125,1.589-0.25,3.177-0.376,4.766          c-0.871,11.048-1.742,22.096-2.612,33.144c-0.061,0.769,1.136,0.762,1.196,0c0.125-1.589,0.25-3.177,0.376-4.766          c0.871-11.048,1.742-22.096,2.612-33.144C260.493,114.121,259.296,114.128,259.236,114.89z" />
              </g>
              <g>
                <path style="fill:#F7D2D2;" d="M266.869,114.89c-0.173,1.513-0.347,3.027-0.52,4.54          c-1.228,10.717-2.456,21.435-3.684,32.152c-0.088,0.765,1.109,0.756,1.196,0c0.173-1.513,0.347-3.027,0.52-4.54          c1.228-10.717,2.456-21.435,3.684-32.152C268.152,114.126,266.955,114.134,266.869,114.89z" />
              </g>
              <g>
                <path style="fill:#F7D2D2;" d="M272.229,114.89c-0.131,1.465-0.262,2.93-0.393,4.394c-0.912,10.19-1.824,20.38-2.736,30.571          c-0.069,0.768,1.128,0.761,1.196,0c0.131-1.465,0.262-2.93,0.393-4.394c0.912-10.19,1.824-20.38,2.736-30.571          C273.494,114.122,272.297,114.13,272.229,114.89z" />
              </g>
            </g>
          </g>
          <g>
            <g>
              <g>
                <path style="fill:#E494F2;" d="M211.532,92.555c6.971,2.307,14.456,3.44,21.728,4.19c12.324,1.27,24.833,0.378,36.925-2.276          c2.454-0.539,4.924-1.122,7.312-1.912c2.561-0.847,4.498-3.606,3.609-6.356c-0.826-2.553-3.608-4.518-6.356-3.608          c-1.856,0.614-3.765,1.088-5.665,1.537c-2.101,0.496-4.217,0.928-6.342,1.303c-1.253,0.221-2.509,0.415-3.768,0.601          c-1.307,0.194,0.805-0.098-0.037,0.008c-0.345,0.043-0.689,0.089-1.034,0.131c-0.855,0.104-1.712,0.199-2.569,0.284          c-6.452,0.639-12.946,0.713-19.41,0.199c-1.462-0.116-2.922-0.261-4.379-0.433c-0.348-0.041-0.695-0.084-1.043-0.128          c-0.429-0.055-1.123,0.106-0.05-0.005c-0.708,0.073-1.637-0.238-2.332-0.349c-2.236-0.358-4.463-0.779-6.674-1.268          c-2.406-0.532-4.827-1.106-7.169-1.881c-2.568-0.85-5.758,0.983-6.355,3.609C207.275,89.046,208.783,91.646,211.532,92.555          L211.532,92.555z" />
              </g>
            </g>
            <g>
              <path style="fill:#D782E8;" d="M280.724,85.307c-0.677,1.248-1.86,2.246-3.226,2.698c-2.388,0.79-4.858,1.373-7.312,1.912         c-12.093,2.655-24.602,3.547-36.925,2.276c-7.273-0.75-14.757-1.883-21.728-4.19c-1.512-0.5-2.628-1.521-3.237-2.804         c-0.164,0.317-0.292,0.65-0.371,0.999c-0.648,2.846,0.859,5.446,3.609,6.355c6.971,2.307,14.456,3.44,21.728,4.19         c12.324,1.27,24.833,0.378,36.925-2.276c2.454-0.539,4.924-1.122,7.312-1.912c2.561-0.847,4.498-3.606,3.608-6.355         C281.007,85.893,280.878,85.593,280.724,85.307z" />
            </g>
          </g>
          <g style="opacity:0.1;">
            <path style="fill:#C1422D;" d="M269.914,109.962c0.009,0.327,0.029,0.653,0.029,0.982c0,22.967-21.718,41.585-48.508,41.585        c-1.111,0-2.209-0.044-3.301-0.106c23.282,7.24,44.595,2.403,53.87-0.511c1.279-13.081,2.831-29.397,4.121-43.064        C274.028,109.269,271.958,109.636,269.914,109.962z" />
          </g>
        </g>
        <g>
          <path style="fill:#152F47;" d="M243.572,156.691c-8.16,0-17.292-1.066-26.682-4.132l-0.311-0.101l-0.032-0.325       c-1.063-10.86-2.458-25.442-4.147-43.344l-0.064-0.679l0.667,0.143c11.494,2.466,34.968,5.758,63.024,0.104l0.66-0.133       l-0.064,0.67c-1.664,17.629-3.051,32.119-4.121,43.066l-0.032,0.329l-0.316,0.099       C266.92,154.032,256.457,156.691,243.572,156.691z M217.511,151.709c23.533,7.576,45.382,2.499,54.027-0.177       c1.053-10.767,2.407-24.914,4.026-42.064c-27.41,5.401-50.403,2.347-62.105-0.097       C215.104,126.785,216.466,141.023,217.511,151.709z" />
        </g>
        <g>
          <g>
            <path style="fill:#152F47;" d="M244.499,97.818c-3.798,0-7.564-0.192-11.29-0.576c-6.156-0.635-14.201-1.687-21.834-4.212l0,0        c-3.023-1-4.642-3.854-3.939-6.941c0.319-1.4,1.304-2.655,2.703-3.444c1.384-0.782,2.95-0.975,4.297-0.528        c2.359,0.78,4.816,1.359,7.12,1.867c2.165,0.479,4.401,0.903,6.646,1.263c0.222,0.036,0.466,0.09,0.72,0.147        c0.352,0.08,0.738,0.166,1.079,0.196c0.216-0.027,0.438-0.008,0.568,0.009l1.038,0.128c1.449,0.171,2.915,0.316,4.36,0.431        c6.375,0.507,12.875,0.439,19.321-0.198c0.854-0.085,1.706-0.179,2.558-0.283l0.914-0.115        c0.047-0.007,0.096-0.015,0.145-0.022c1.253-0.186,2.506-0.379,3.754-0.599c2.15-0.38,4.274-0.816,6.313-1.297        c2.123-0.501,3.892-0.952,5.623-1.525c1.272-0.421,2.663-0.305,3.915,0.33c1.43,0.725,2.579,2.07,3.074,3.599        c1.026,3.172-1.239,6.095-3.928,6.984c-2.444,0.81-4.983,1.404-7.362,1.926C261.616,96.862,252.979,97.818,244.499,97.818z         M211.689,92.081c7.541,2.495,15.517,3.538,21.623,4.167c11.938,1.232,24.308,0.468,36.766-2.267        c2.353-0.516,4.861-1.104,7.263-1.899c2.244-0.742,4.102-3.221,3.291-5.727c-0.415-1.281-1.378-2.408-2.574-3.015        c-0.716-0.363-1.844-0.704-3.149-0.273c-1.766,0.584-3.559,1.042-5.707,1.549c-2.059,0.485-4.201,0.926-6.37,1.308        c-1.204,0.212-2.411,0.399-3.62,0.58c-0.01,0.002-0.02,0.005-0.03,0.007l0.001,0.004l-0.053,0.006        c-0.083,0.017-0.17,0.028-0.254,0.04c-0.062,0.008-0.132,0.018-0.205,0.023c-0.015,0.002-0.024,0.004-0.031,0.005        l-0.001-0.003c-0.012,0.001-0.023,0.001-0.036,0.002l-0.636,0.08c-0.859,0.104-1.72,0.2-2.581,0.286        c-6.503,0.645-13.064,0.712-19.498,0.2c-1.458-0.116-2.937-0.263-4.398-0.435l-1.035-0.127        c-0.441,0.044-0.679,0.066-0.844-0.042c-0.309-0.046-0.618-0.115-0.908-0.181c-0.232-0.052-0.456-0.103-0.658-0.135        c-2.263-0.362-4.519-0.79-6.703-1.273c-2.33-0.514-4.816-1.1-7.218-1.895c-1.08-0.356-2.351-0.194-3.492,0.45        c-1.154,0.651-1.962,1.67-2.219,2.795C207.827,88.876,209.175,91.248,211.689,92.081L211.689,92.081z" />
          </g>
        </g>
      </g>
      <g>
        <g>
          <g>
            <path style="fill:#FFFFFF;" d="M217.801,100.925c0.464,4.198,0.928,8.396,1.392,12.595c0.066,0.594,0.131,1.188,0.197,1.781        c0.085,0.765,1.274,0.635,1.189-0.131c-0.464-4.198-0.928-8.396-1.392-12.595c-0.066-0.594-0.131-1.188-0.197-1.781        C218.906,100.029,217.717,100.159,217.801,100.925L217.801,100.925z" />
          </g>
        </g>
        <g>
          <path style="fill:#FFFFFF;" d="M220.765,117.447c0.032,0.293-0.179,0.556-0.471,0.588c-0.292,0.032-0.556-0.179-0.588-0.471       c-0.032-0.293,0.179-0.556,0.471-0.588C220.469,116.943,220.733,117.155,220.765,117.447z" />
        </g>
      </g>
    </g>
    <g>
      <g>
        <g>
          <g>
            <g>
              <path style="fill:#152F47;" d="M233.527,129.914c0,3.262-1.766,5.906-3.945,5.906c-2.179,0-3.945-2.644-3.945-5.906         c0-3.262,1.766-5.906,3.945-5.906C231.761,124.008,233.527,126.652,233.527,129.914z" />
            </g>
            <g>
              <g>
                <circle style="fill:#FFFFFF;" cx="228.749" cy="127.491" r="1.638" />
              </g>
              <g>
                <circle style="fill:#FFFFFF;" cx="230.975" cy="130.098" r="1.078" />
              </g>
            </g>
          </g>
          <g>
            <g>
              <path style="fill:#152F47;" d="M263.557,129.914c0,3.262-1.766,5.906-3.945,5.906c-2.179,0-3.945-2.644-3.945-5.906         c0-3.262,1.766-5.906,3.945-5.906C261.791,124.008,263.557,126.652,263.557,129.914z" />
            </g>
            <g>
              <g>
                <path style="fill:#FFFFFF;" d="M260.417,127.491c0,0.905-0.733,1.638-1.638,1.638c-0.905,0-1.638-0.733-1.638-1.638          s0.733-1.638,1.638-1.638C259.684,125.853,260.417,126.587,260.417,127.491z" />
              </g>
              <g>
                <circle style="fill:#FFFFFF;" cx="261.005" cy="130.098" r="1.078" />
              </g>
            </g>
          </g>
        </g>
        <g>
          <g>
            <path style="fill:#FFC9E2;" d="M240.897,132.335c0,0-0.965,7.884,3.734,7.884c4.698,0,3.877-7.958,3.877-7.958        S244.174,133.693,240.897,132.335z" />
          </g>
          <g>
            <g>
              <path style="fill:#152F47;" d="M239.323,131.918c3.143,2.097,7.317,1.546,10.527,0c0.422-0.203,0.054-0.828-0.366-0.626         c-2.986,1.438-6.876,1.947-9.795,0C239.298,131.031,238.935,131.66,239.323,131.918L239.323,131.918z" />
            </g>
          </g>
          <g>
            <path style="fill:#152F47;" d="M248.87,132.261c-0.033-0.464-0.758-0.467-0.727,0c0.168,2.455-0.068,7.073-3.149,7.561        c0-1.271,0-2.542,0-3.813c0-0.468-0.726-0.468-0.726,0c0,1.285,0,2.571,0,3.855c-2.991-0.2-3.33-4.889-3.141-7.196        c0.038-0.467-0.688-0.463-0.726,0c-0.247,3.003,0.414,7.753,4.146,7.888c0.045,0.009,0.09,0.011,0.135,0.005        c0.073,0.001,0.139,0.012,0.213,0.008C248.609,140.419,249.058,135.004,248.87,132.261z" />
          </g>
        </g>
      </g>
      <g>
        <g>
          <path style="fill:#FF81CE;" d="M230.764,136.671c-0.304,0.798-2.401,0.738-4.684-0.133c-2.282-0.871-3.886-2.223-3.582-3.021       c0.304-0.798,2.401-0.738,4.684,0.133S231.069,135.873,230.764,136.671z" />
        </g>
        <g>
          <path style="fill:#FF81CE;" d="M258.336,136.671c0.304,0.798,2.401,0.738,4.684-0.133s3.886-2.223,3.582-3.021       c-0.304-0.798-2.401-0.738-4.684,0.133S258.032,135.873,258.336,136.671z" />
        </g>
      </g>
    </g>
  </g>
</svg>