<?xml version='1.0' encoding='utf-8'?>
<svg xmlns="http://www.w3.org/2000/svg" xmlns:ns1="http://www.w3.org/1999/xlink" version="1.1" viewBox="-54.605 -77.823 296.339 288.082" width="296.339" height="288.082">
  <g>
    <g>
      <g>
        <g>
          <g>
            <g>
              <path style="fill:#FFB7A0;" d="M196.399,157.627c0.108,2.312-1.694,4.204-4.009,4.204h-8.416         c-2.313,0-4.117-1.893-4.009-4.204l1.707-36.123c0.109-2.312,2.092-4.203,4.406-4.203h4.208c2.314,0,4.297,1.892,4.405,4.203         L196.399,157.627z" />
            </g>
            <g>
              <defs>
                <path id="SVGID_00000081636125773121766820000013006747211338010533_" d="M196.399,157.627          c0.108,2.312-1.694,4.204-4.009,4.204h-8.416c-2.313,0-4.117-1.893-4.009-4.204l1.707-36.123          c0.109-2.312,2.092-4.203,4.406-4.203h4.208c2.314,0,4.297,1.892,4.405,4.203L196.399,157.627z" />
              </defs>
              <clipPath id="SVGID_00000083062363505192074390000001097367847669932723_">
                <use ns1:href="#SVGID_00000081636125773121766820000013006747211338010533_" style="overflow:visible;" />
              </clipPath>
              <g style="clip-path:url(#SVGID_00000083062363505192074390000001097367847669932723_);">
                <g>
                  <g>
                    <path style="fill:#E8775D;" d="M181.896,173.667c-0.331,0-0.656-0.057-0.977-0.167c-3.298-1.151-4.72-8.029-5.272-12.026            c-1.3-9.388-0.505-21.46,2.504-23.566c0.668-0.466,2-0.995,3.442,0.695c3.956,4.642,5.709,22.264,1.703,26.398            l-0.757-0.731c3.577-3.689,1.782-20.842-1.748-24.984c-0.917-1.077-1.572-0.842-2.036-0.515            c-2.389,1.671-3.412,12.847-2.066,22.56c0.872,6.304,2.583,10.482,4.576,11.178c0.898,0.311,1.921-0.076,3.048-1.151            c8.073-7.707,5.561-18.57,2.649-31.149c-0.475-2.045-0.956-4.124-1.398-6.23c-3.148-14.954-0.116-24.587,0.015-24.989            l1,0.323c-0.03,0.097-3.071,9.791,0.015,24.449c0.441,2.099,0.922,4.171,1.393,6.209            c2.86,12.356,5.561,24.027-2.946,32.146C183.958,173.148,182.905,173.667,181.896,173.667z" />
                  </g>
                </g>
                <g>
                  <g>
                    <path style="fill:#E8775D;" d="M195.326,148.483c-0.937,0-1.785-0.325-2.536-0.972c-6.528-5.622-3.187-35.32-3.042-36.582            l1.046,0.12c-0.035,0.304-3.427,30.404,2.684,35.665c0.794,0.686,1.703,0.875,2.79,0.582            c2.662-0.719,4.123-3.235,4.342-7.479c0.442-8.631-4.584-21.132-6.05-21.977c-0.591,0.409-1.635,3.926-1.604,8.678            c0.02,3.136,0.588,10.638,5.413,12.558l-0.388,0.978c-5.197-2.067-6.495-9.764-5.977-16.277            c0.054-0.674,0.574-6.587,2.375-6.989c1.962-0.457,4.884,7.984,6.02,12.589c1.245,5.045,3.359,16.987-3.858,18.936            C196.122,148.426,195.717,148.483,195.326,148.483z" />
                  </g>
                </g>
              </g>
            </g>
          </g>
          <g style="opacity:0.4;">
            <path style="fill:#E8775D;" d="M194.692,121.504c-0.108-2.312-2.092-4.203-4.405-4.203h-4.208        c-0.18,0-0.352,0.032-0.526,0.054c2.079,0.263,3.779,2.017,3.88,4.149l1.707,36.123c0.109,2.312-1.694,4.204-4.008,4.204        h5.259c2.314,0,4.117-1.893,4.009-4.204L194.692,121.504z" />
          </g>
        </g>
        <g>
          <path style="fill:#152F47;" d="M192.391,162.331h-8.416c-1.256,0-2.418-0.493-3.273-1.389       c-0.855-0.896-1.295-2.083-1.235-3.339l1.707-36.123c0.122-2.581,2.323-4.68,4.906-4.68h4.208c2.584,0,4.784,2.099,4.905,4.68       l1.707,36.123c0.059,1.257-0.38,2.442-1.235,3.339C194.81,161.838,193.647,162.331,192.391,162.331z M186.079,117.801       c-2.057,0-3.81,1.672-3.907,3.727l-1.707,36.123c-0.046,0.981,0.295,1.905,0.96,2.602c0.664,0.696,1.57,1.079,2.55,1.079h8.416       c0.98,0,1.886-0.383,2.55-1.079c0.665-0.696,1.005-1.621,0.96-2.602l-1.707-36.123c-0.096-2.055-1.849-3.727-3.906-3.727       H186.079z" />
        </g>
      </g>
      <g>
        <g>
          <g>
            <path style="fill:#FFC9E2;" d="M187.132,43.559c-44.605,0-24.953,67.372-22.146,80.16        c2.807,12.788,22.146,12.085,22.146,12.085s19.337,0.703,22.144-12.085C212.083,110.931,231.734,43.559,187.132,43.559z" />
          </g>
          <g>
            <path style="fill:#F9BDDC;" d="M187.132,43.559c-1.575,0-3.062,0.093-4.48,0.255c38.749,4.443,20.374,67.568,17.667,79.905        c-1.941,8.839-11.775,11.231-17.667,11.867c2.633,0.283,4.48,0.218,4.48,0.218s19.337,0.703,22.144-12.085        C212.083,110.931,231.734,43.559,187.132,43.559z" />
          </g>
        </g>
      </g>
      <g>
        <g>
          <path style="fill:#FF81CE;" d="M188.878,43.559c-0.514,0-1.012,0.018-1.508,0.037c-0.497-0.019-0.995-0.037-1.509-0.037       c-27.89,0-29.5,28.819-26.527,52.338c0.781,4.957,2.515,11.311,6.249,10.551c6.032-1.228-3.521-22.615,2.011-23.492       c5.53-0.876-0.839,13.85,5.865,13.85c6.704,0-3.017-21.212,3.855-21.212c6.871,0-2.85,28.049,6.2,28.049       c9.051,0-1.174-21.037,4.525-21.037c5.699,0-1.173,13.499,5.699,13.499c6.871,0-1.173-20.511,6.033-20.511       c7.206,0-3.155,19.108,4.86,19.108c8.015,0,0.568-13.323,4.692-13.323c4.124,0-0.692,19.72,2.323,19.72       c2.802,0,4.295-9.859,4.606-14.095c0.018-0.284,0.034-0.568,0.05-0.854c0-0.007,0.002-0.015,0.002-0.022       c0.025-0.639,0.082-2.392,0.157-4.816C216.659,61.932,211.146,43.559,188.878,43.559z" />
        </g>
        <g>
          <g>
            <path style="fill:#EF60C3;" d="M166.609,83.466c-2.659,2.482-2.745,7.642-1.237,14.216c1.479,6.442-1.87,8.218-2.005,8.285        c0.647,0.448,1.379,0.65,2.216,0.481c5.588-1.137-2.189-19.563,1.03-22.969L166.609,83.466z" />
          </g>
          <g>
            <path style="fill:#EF60C3;" d="M175.861,76.069l-0.001-0.006c-2.46,1.128-3.323,4.657-1.814,12.15        c1.509,7.495-1.454,8.482-1.454,8.482l0,0c0.264,0.064,0.546,0.108,0.867,0.108C179.569,96.805,172.04,79.189,175.861,76.069z        " />
          </g>
          <g>
            <path style="fill:#EF60C3;" d="M186.868,83.09l-0.001-0.005c-3.437,1.531-3.101,7.672-2.179,13.106        c0.914,5.393-1.982,7.321-2.026,7.351c0.265,0.062,0.546,0.1,0.853,0.1C191.752,103.642,184.028,86.222,186.868,83.09z" />
          </g>
          <g>
            <path style="fill:#EF60C3;" d="M198.791,75.761v-0.012c-4.25,0.856-4.633,6.856-3.879,12.378        c0.754,5.522-2.141,7.86-2.141,7.86l0,0c0.289,0.071,0.606,0.116,0.968,0.116C200.259,96.104,193.36,77.651,198.791,75.761z" />
          </g>
          <g>
            <path style="fill:#EF60C3;" d="M208.724,81.511L208.724,81.511c-2.444,0.746-3.337,4.074-2.331,8.019        c1.001,3.93-2.406,5.11-2.433,5.118c0.21,0.035,0.431,0.054,0.673,0.054C212.184,94.701,206.016,82.88,208.724,81.511z" />
          </g>
          <g>
            <path style="fill:#EF60C3;" d="M216.305,86.149c0-0.007,0.002-0.015,0.002-0.022c0.025-0.639,0.082-2.392,0.157-4.816        c0.004-0.282,0-0.563,0-0.845c-0.293,8.954-5.481,20.116-5.481,20.116l0.001,0.002c0.159,0.329,0.376,0.514,0.665,0.514        c2.802,0,4.295-9.859,4.606-14.095C216.272,86.719,216.289,86.435,216.305,86.149z" />
          </g>
        </g>
      </g>
      <g>
        <g>
          <g>
            <path style="fill:#152F47;" d="M175.323,110.045c0,0,0.047-0.299,0.306-0.631c0.133-0.168,0.313-0.351,0.558-0.484        c0.246-0.142,0.552-0.235,0.875-0.233c0.165-0.006,0.32,0.036,0.476,0.071c0.154,0.031,0.281,0.127,0.411,0.188        c0.238,0.159,0.417,0.346,0.526,0.535c0.128,0.17,0.166,0.352,0.207,0.464c0.034,0.118,0.043,0.19,0.043,0.19        s-0.07-0.025-0.182-0.073c-0.114-0.047-0.247-0.131-0.419-0.194c-0.16-0.08-0.346-0.138-0.525-0.204        c-0.183-0.032-0.357-0.088-0.54-0.069c-0.18-0.021-0.37,0.026-0.563,0.062c-0.193,0.041-0.38,0.107-0.555,0.16        C175.569,109.957,175.323,110.045,175.323,110.045z" />
          </g>
          <g>
            <path style="fill:#152F47;" d="M197.664,109.78c0,0,0.076-0.29,0.374-0.597c0.145-0.152,0.345-0.313,0.604-0.423        c0.255-0.111,0.571-0.177,0.893-0.141c0.164,0.01,0.314,0.07,0.466,0.116c0.149,0.05,0.265,0.158,0.39,0.229        c0.219,0.188,0.379,0.392,0.465,0.589c0.111,0.183,0.133,0.366,0.162,0.481c0.02,0.123,0.024,0.193,0.024,0.193        s-0.068-0.029-0.174-0.092c-0.107-0.052-0.234-0.154-0.398-0.234c-0.156-0.095-0.33-0.178-0.5-0.258        c-0.184-0.053-0.348-0.125-0.533-0.127c-0.178-0.036-0.371-0.009-0.564,0.005c-0.196,0.023-0.389,0.069-0.569,0.104        C197.919,109.718,197.664,109.78,197.664,109.78z" />
          </g>
        </g>
        <g>
          <g>
            <path style="fill:#152F47;" d="M185.67,119.068c0.362,0.523,0.89,0.977,1.481,1.214c1.35,0.543,2.563-0.159,3.5-1.129        c0.375-0.391-0.218-0.984-0.596-0.595c-0.735,0.764-1.663,1.396-2.724,0.889c-0.356-0.173-0.718-0.488-0.937-0.804        C186.089,118.202,185.358,118.622,185.67,119.068L185.67,119.068z" />
          </g>
        </g>
        <g>
          <g>
            <g>
              <path style="fill:#152F47;" d="M180.267,117.301c0,1.865-1.512,3.377-3.377,3.377c-1.865,0-3.376-1.512-3.376-3.377         c0-1.864,1.511-3.376,3.376-3.376C178.755,113.925,180.267,115.437,180.267,117.301z" />
            </g>
            <g>
              <g>
                <path style="fill:#FFFFFF;" d="M176.755,116.063c0,0.481-0.391,0.873-0.873,0.873c-0.481,0-0.872-0.392-0.872-0.873          c0-0.482,0.391-0.873,0.872-0.873C176.364,115.19,176.755,115.581,176.755,116.063z" />
              </g>
              <g>
                <circle style="fill:#FFFFFF;" cx="175.009" cy="117.742" r="0.441" />
              </g>
            </g>
          </g>
          <g>
            <g>
              <path style="fill:#152F47;" d="M202.852,117.301c0,1.865-1.512,3.377-3.377,3.377c-1.864,0-3.376-1.512-3.376-3.377         c0-1.864,1.512-3.376,3.376-3.376C201.34,113.925,202.852,115.437,202.852,117.301z" />
            </g>
            <g>
              <g>
                <path style="fill:#FFFFFF;" d="M199.34,116.063c0,0.481-0.391,0.873-0.873,0.873c-0.481,0-0.872-0.392-0.872-0.873          c0-0.482,0.391-0.873,0.872-0.873C198.949,115.19,199.34,115.581,199.34,116.063z" />
              </g>
              <g>
                <path style="fill:#FFFFFF;" d="M198.036,117.742c0,0.244-0.197,0.441-0.442,0.441c-0.243,0-0.44-0.197-0.44-0.441          c0-0.244,0.197-0.441,0.44-0.441C197.839,117.301,198.036,117.498,198.036,117.742z" />
              </g>
            </g>
          </g>
        </g>
        <g>
          <g>
            <path style="fill:#FF81CE;" d="M178.173,124.585c0,1.505-1.22,2.724-2.725,2.724c-1.505,0-2.725-1.219-2.725-2.724        c0-1.504,1.22-2.725,2.725-2.725C176.953,121.86,178.173,123.081,178.173,124.585z" />
          </g>
          <g>
            <path style="fill:#FF81CE;" d="M203.641,124.585c0,1.505-1.219,2.724-2.724,2.724c-1.505,0-2.725-1.219-2.725-2.724        c0-1.504,1.22-2.725,2.725-2.725C202.422,121.86,203.641,123.081,203.641,124.585z" />
          </g>
        </g>
      </g>
      <g>
        <g>
          <path style="fill:#EFDE89;" d="M178.538,49.793c0.115,0.326-0.055,0.686-0.382,0.802l-2.541,0.9       c-0.326,0.115-0.685-0.057-0.801-0.383l0,0c-0.115-0.327,0.056-0.685,0.383-0.801l2.541-0.9       C178.064,49.296,178.423,49.467,178.538,49.793L178.538,49.793z" />
        </g>
        <g>
          <path style="fill:#EFDE89;" d="M185.016,54.587c-0.128,0.321-0.494,0.479-0.815,0.35l-2.503-1.002       c-0.322-0.129-0.479-0.494-0.35-0.815l0,0c0.13-0.322,0.494-0.478,0.815-0.351l2.504,1.003       C184.987,53.9,185.144,54.266,185.016,54.587L185.016,54.587z" />
        </g>
        <g>
          <path style="fill:#2D8CF6;" d="M187.387,48.792c-0.024,0.346-0.324,0.605-0.67,0.581l-2.688-0.188       c-0.347-0.025-0.606-0.325-0.582-0.671l0,0c0.024-0.346,0.324-0.605,0.67-0.582l2.689,0.191       C187.15,48.146,187.411,48.445,187.387,48.792L187.387,48.792z" />
        </g>
        <g>
          <path style="fill:#FFC9E2;" d="M192.362,50.871c0.115,0.326-0.055,0.685-0.382,0.801l-2.541,0.9       c-0.327,0.116-0.686-0.055-0.801-0.382l0,0c-0.116-0.326,0.056-0.684,0.382-0.801l2.541-0.9       C191.889,50.374,192.247,50.544,192.362,50.871L192.362,50.871z" />
        </g>
        <g>
          <path style="fill:#FFC9E2;" d="M173.08,54.069c-0.129,0.322-0.494,0.479-0.816,0.351l-2.502-1.002       c-0.322-0.13-0.478-0.494-0.35-0.815l0,0c0.129-0.322,0.493-0.479,0.815-0.35l2.503,1.002       C173.053,53.383,173.209,53.748,173.08,54.069L173.08,54.069z" />
        </g>
        <g>
          <path style="fill:#2D8CF6;" d="M178.538,55.707c0.115,0.327-0.055,0.685-0.382,0.802l-2.541,0.899       c-0.326,0.116-0.685-0.055-0.801-0.382l0,0c-0.115-0.326,0.056-0.685,0.383-0.801l2.541-0.9       C178.064,55.21,178.423,55.381,178.538,55.707L178.538,55.707z" />
        </g>
        <g>
          <path style="fill:#2D8CF6;" d="M192.471,56.506c-0.024,0.345-0.324,0.606-0.67,0.582l-2.689-0.19       c-0.346-0.024-0.605-0.323-0.581-0.669l0,0c0.024-0.346,0.323-0.606,0.669-0.583l2.69,0.19       C192.234,55.861,192.495,56.16,192.471,56.506L192.471,56.506z" />
        </g>
        <g>
          <path style="fill:#EFDE89;" d="M198.987,50.515c-0.129,0.321-0.493,0.479-0.815,0.35l-2.503-1.002       c-0.322-0.129-0.477-0.493-0.349-0.814l0,0c0.128-0.322,0.493-0.479,0.815-0.35l2.502,1.001       C198.959,49.828,199.116,50.193,198.987,50.515L198.987,50.515z" />
        </g>
        <g>
          <path style="fill:#FFC9E2;" d="M199.584,53.993c-0.024,0.344-0.324,0.605-0.67,0.581l-2.688-0.19       c-0.346-0.023-0.605-0.323-0.582-0.669l0,0c0.024-0.346,0.323-0.606,0.67-0.582l2.689,0.189       C199.349,53.348,199.609,53.646,199.584,53.993L199.584,53.993z" />
        </g>
        <g>
          <path style="fill:#EFDE89;" d="M205.669,54.63c0.115,0.326-0.055,0.685-0.382,0.801l-2.541,0.9       c-0.326,0.116-0.685-0.056-0.801-0.382l0,0c-0.116-0.327,0.056-0.686,0.383-0.802l2.54-0.899       C205.195,54.132,205.554,54.303,205.669,54.63L205.669,54.63z" />
        </g>
        <g>
          <path style="fill:#EFDE89;" d="M171.228,58.778c0.116,0.327-0.055,0.686-0.381,0.802l-2.542,0.9       c-0.326,0.115-0.685-0.056-0.8-0.383l0,0c-0.116-0.326,0.055-0.685,0.381-0.801l2.542-0.899       C170.755,58.281,171.113,58.452,171.228,58.778L171.228,58.778z" />
        </g>
        <g>
          <path style="fill:#FFC9E2;" d="M183.137,60.173c-0.129,0.321-0.494,0.479-0.815,0.35l-2.503-1.002       c-0.322-0.128-0.479-0.494-0.35-0.815l0,0c0.129-0.322,0.493-0.479,0.816-0.35l2.502,1.002       C183.109,59.486,183.266,59.851,183.137,60.173L183.137,60.173z" />
        </g>
        <g>
          <path style="fill:#2D8CF6;" d="M207.557,60.655c-0.025,0.346-0.325,0.606-0.671,0.581l-2.688-0.189       c-0.347-0.024-0.606-0.324-0.581-0.67l0,0c0.023-0.346,0.323-0.605,0.669-0.582l2.689,0.191       C207.319,60.009,207.581,60.31,207.557,60.655L207.557,60.655z" />
        </g>
        <g>
          <path style="fill:#EFDE89;" d="M197.689,59.134c0.115,0.327-0.056,0.686-0.382,0.802l-2.542,0.9       c-0.326,0.115-0.684-0.056-0.8-0.383l0,0c-0.116-0.326,0.055-0.685,0.381-0.801l2.542-0.9       C197.215,58.637,197.573,58.808,197.689,59.134L197.689,59.134z" />
        </g>
      </g>
    </g>
    <path style="opacity:0.2;fill:#FFFFFF;" d="M189.068,80.426c0-14.467-6.97-27.005-17.159-33.214    c-20.872,12.256-12.678,52.129-8.487,69.9C178.03,113.795,189.068,98.636,189.068,80.426z" />
    <g>
      <path style="fill:#152F47;" d="M164.98,107.01c-0.674,0-1.313-0.207-1.907-0.62c-1.931-1.34-3.355-4.845-4.233-10.416     c-2.7-21.364-0.287-36.479,7.171-44.938c4.666-5.293,11.345-7.977,19.851-7.977c0.52,0,1.024,0.018,1.527,0.038     c0.465-0.019,0.969-0.038,1.489-0.038c7.968,0,14.341,2.357,18.943,7.005c6.213,6.275,9.289,16.79,9.143,31.251     c-0.076,2.438-0.132,4.192-0.158,4.832l-0.052,0.887c-0.011,0.151-1.117,14.564-5.105,14.564c-0.319,0-0.607-0.128-0.834-0.37     c-0.948-1.012-0.802-4.03-0.485-8.87c0.264-4.04,0.593-9.068-0.527-10.264c-0.14-0.15-0.287-0.216-0.477-0.216     c-0.325,0-0.462,0.113-0.537,0.197c-0.518,0.588-0.28,2.461-0.049,4.271c0.349,2.742,0.745,5.85-0.788,7.59     c-0.739,0.839-1.855,1.264-3.319,1.264c-1.152,0-2.052-0.364-2.674-1.084c-1.595-1.842-1.039-5.696-0.5-9.423     c0.476-3.295,0.969-6.703-0.165-8.012c-0.344-0.397-0.841-0.59-1.522-0.59c-0.671,0-1.192,0.205-1.593,0.625     c-1.424,1.496-1.229,5.458-1.041,9.289c0.202,4.116,0.393,8.004-1.242,9.722c-0.553,0.581-1.279,0.875-2.157,0.875     c-1.117,0-2.002-0.332-2.629-0.989c-1.38-1.445-1.257-4.145-1.139-6.756c0.098-2.161,0.2-4.395-0.66-5.294     c-0.296-0.31-0.712-0.46-1.272-0.46c-0.364,0-0.625,0.106-0.822,0.334c-0.92,1.063-0.424,4.49,0.055,7.805     c0.664,4.589,1.35,9.333-0.626,11.616c-0.737,0.851-1.791,1.283-3.132,1.283c-1.119,0-2.048-0.387-2.763-1.15     c-2.366-2.526-1.956-8.791-1.56-14.851c0.323-4.94,0.657-10.048-0.789-11.591c-0.292-0.312-0.638-0.457-1.089-0.457     c-0.579,0-1.015,0.177-1.333,0.543c-1.273,1.461-0.702,5.596-0.149,9.593c0.602,4.352,1.17,8.462-0.361,10.22     c-0.495,0.568-1.172,0.856-2.012,0.856c-1.034,0-1.873-0.32-2.492-0.952c-1.485-1.515-1.427-4.473-1.371-7.334     c0.044-2.26,0.09-4.597-0.763-5.34c-0.27-0.236-0.65-0.31-1.162-0.23c-0.354,0.056-0.616,0.218-0.825,0.508     c-1.094,1.522-0.357,5.9,0.355,10.135c1.003,5.959,2.041,12.122-1.52,12.846C165.445,106.986,165.21,107.01,164.98,107.01z      M185.861,44.059c-8.206,0-14.633,2.57-19.101,7.638c-7.259,8.235-9.591,23.085-6.93,44.137c0.82,5.201,2.139,8.573,3.813,9.735     c0.573,0.397,1.174,0.523,1.84,0.389c2.613-0.532,1.614-6.465,0.733-11.7c-0.781-4.641-1.519-9.024-0.181-10.884     c0.364-0.507,0.862-0.814,1.48-0.912c0.811-0.128,1.475,0.028,1.975,0.463c1.205,1.05,1.157,3.51,1.105,6.114     c-0.05,2.53-0.107,5.398,1.085,6.613c0.43,0.439,1.012,0.652,1.778,0.652c0.546,0,0.957-0.168,1.258-0.513     c1.232-1.414,0.669-5.487,0.125-9.426c-0.61-4.414-1.187-8.582,0.385-10.387c0.512-0.588,1.214-0.886,2.087-0.886     c0.727,0,1.338,0.26,1.819,0.773c1.742,1.86,1.424,6.716,1.056,12.34c-0.365,5.574-0.778,11.893,1.292,14.102     c0.525,0.561,1.191,0.834,2.033,0.834c1.053,0,1.831-0.307,2.376-0.937c1.677-1.937,0.994-6.655,0.392-10.818     c-0.558-3.86-1.04-7.195,0.179-8.603c0.39-0.45,0.921-0.679,1.578-0.679c0.836,0,1.507,0.259,1.995,0.77     c1.155,1.208,1.048,3.55,0.936,6.03c-0.109,2.401-0.222,4.884,0.863,6.02c0.437,0.458,1.061,0.68,1.906,0.68     c0.602,0,1.071-0.185,1.433-0.564c1.339-1.407,1.15-5.259,0.967-8.983c-0.208-4.228-0.404-8.221,1.316-10.027     c0.591-0.621,1.371-0.936,2.317-0.936c0.974,0,1.741,0.314,2.278,0.935c1.433,1.654,0.93,5.13,0.398,8.81     c-0.506,3.505-1.03,7.129,0.266,8.626c0.43,0.497,1.057,0.738,1.918,0.738c1.18,0,2.021-0.303,2.569-0.925     c1.234-1.401,0.869-4.271,0.546-6.803c-0.282-2.216-0.526-4.131,0.29-5.059c0.313-0.355,0.747-0.536,1.287-0.536     c0.463,0,0.88,0.184,1.206,0.532c1.417,1.512,1.115,6.127,0.795,11.013c-0.226,3.456-0.482,7.374,0.218,8.121     c0.05,0.054,0.08,0.054,0.104,0.054c1.999,0,3.698-8.06,4.108-13.631l0.049-0.844c0.027-0.653,0.084-2.404,0.158-4.827     c0.143-14.174-2.836-24.449-8.854-30.527c-4.407-4.452-10.542-6.709-18.232-6.709c-0.507,0-0.999,0.018-1.489,0.037     C186.86,44.077,186.369,44.059,185.861,44.059z" />
    </g>
    <g>
      <g>
        <path style="fill:#152F47;" d="M187.554,136.309c-0.27,0-0.424-0.004-0.44-0.005c-0.166,0.008-19.753,0.568-22.616-12.477      c-0.201-0.917-0.489-2.113-0.833-3.546c-3.321-13.812-12.143-50.501,1.509-67.823c4.914-6.236,12.302-9.398,21.959-9.398      c9.656,0,17.043,3.162,21.957,9.397c13.651,17.322,4.83,54.012,1.508,67.824c-0.344,1.433-0.632,2.63-0.833,3.546      C207.142,135.773,190.49,136.309,187.554,136.309z M187.114,135.304c0.221,0.006,18.989,0.536,21.673-11.693      c0.202-0.921,0.492-2.124,0.838-3.565c3.29-13.683,12.029-50.029-1.322-66.971c-4.714-5.982-11.838-9.016-21.171-9.016      c-9.334,0-16.458,3.034-21.173,9.017c-13.352,16.942-4.612,53.288-1.322,66.971c0.346,1.441,0.636,2.645,0.838,3.565      C168.159,135.842,186.924,135.314,187.114,135.304z" />
      </g>
    </g>
    <g>
      <g>
        <path style="fill:#FFFFFF;" d="M166.226,55.925c-1.071,1.346-1.751,3.053-2.34,4.647c-1.811,4.9-2.495,10.212-2.72,15.405      c-0.214,4.941,0.049,9.89,0.576,14.804c0.085,0.792,1.336,0.8,1.25,0c-0.798-7.441-1.049-15.069,0.198-22.478      c0.585-3.48,1.463-7.052,3.134-10.187c0.194-0.364,0.401-0.721,0.625-1.067c0.057-0.088,0.362-0.494,0.161-0.241      C167.606,56.185,166.727,55.295,166.226,55.925L166.226,55.925z" />
      </g>
      <path style="fill:#FFFFFF;" d="M163.95,94.155c0,0.437-0.354,0.792-0.792,0.792c-0.437,0-0.792-0.354-0.792-0.792     s0.354-0.792,0.792-0.792C163.596,93.363,163.95,93.718,163.95,94.155z" />
    </g>
  </g>
</svg>