<?xml version='1.0' encoding='utf-8'?>
<svg xmlns="http://www.w3.org/2000/svg" xmlns:ns1="http://www.w3.org/1999/xlink" version="1.1" viewBox="-44.481 -77.44 513.242 515.885" width="513.242" height="515.885">
  <g>
    <g>
      <g>
        <g>
          <g>
            <g>
              <g>
                <g>
                  <rect x="404.378" y="41.044" transform="matrix(0.8816 -0.4719 0.4719 0.8816 19.4805 199.1274)" style="fill:#FFB7A0;" width="4.66" height="39.37" />
                </g>
                <g>
                  <defs>
                    <rect id="SVGID_00000158710064170783392650000005021424001398987956_" x="404.378" y="41.044" transform="matrix(0.8816 -0.4719 0.4719 0.8816 19.4805 199.1274)" width="4.66" height="39.37" />
                  </defs>
                  <clipPath id="SVGID_00000163776755953134914570000006551609808179098017_">
                    <use ns1:href="#SVGID_00000158710064170783392650000005021424001398987956_" style="overflow:visible;" />
                  </clipPath>
                  <g style="clip-path:url(#SVGID_00000163776755953134914570000006551609808179098017_);">
                    <g>
                      <g>
                        <rect x="399.212" y="71.557" transform="matrix(0.5946 -0.804 0.804 0.5946 108.5384 362.317)" style="fill:#F99980;" width="28.693" height="3.94" />
                      </g>
                      <g>
                        <rect x="394.583" y="62.908" transform="matrix(0.5946 -0.804 0.804 0.5946 113.6221 355.0965)" style="fill:#F99980;" width="28.693" height="3.942" />
                      </g>
                    </g>
                    <g>
                      <g>
                        <rect x="389.954" y="54.259" transform="matrix(0.5946 -0.804 0.804 0.5946 118.7013 347.8698)" style="fill:#F99980;" width="28.692" height="3.942" />
                      </g>
                      <g>
                        <rect x="385.325" y="45.612" transform="matrix(0.5946 -0.804 0.804 0.5946 123.7701 340.6344)" style="fill:#F99980;" width="28.693" height="3.94" />
                      </g>
                    </g>
                  </g>
                </g>
              </g>
              <g style="opacity:0.3;">
                <rect x="406.571" y="40.494" transform="matrix(0.8816 -0.472 0.472 0.8816 19.8734 199.5802)" style="fill:#E8775D;" width="2.33" height="39.37" />
              </g>
            </g>
            <g>
              <path style="fill:#152F47;" d="M413.738,79.86l-19.05-35.593l4.99-2.671l19.05,35.593L413.738,79.86z M396.042,44.678         l18.106,33.829l3.227-1.728L399.269,42.95L396.042,44.678z" />
            </g>
          </g>
          <g>
            <g>
              <g>
                <g>
                  <rect x="402.63" y="46.527" transform="matrix(0.5199 -0.8542 0.8542 0.5199 137.8451 377.7014)" style="fill:#FFB7A0;" width="4.66" height="39.368" />
                </g>
                <g>
                  <defs>
                    <rect id="SVGID_00000124143010991398091620000010991032929052442020_" x="402.63" y="46.527" transform="matrix(0.5199 -0.8542 0.8542 0.5199 137.8451 377.7014)" width="4.66" height="39.368" />
                  </defs>
                  <clipPath id="SVGID_00000147211156405364628130000011045483286951124893_">
                    <use ns1:href="#SVGID_00000124143010991398091620000010991032929052442020_" style="overflow:visible;" />
                  </clipPath>
                  <g style="clip-path:url(#SVGID_00000147211156405364628130000011045483286951124893_);">
                    <g>
                      <g>
                        <rect x="403.012" y="71.79" transform="matrix(0.1041 -0.9946 0.9946 0.1041 300.5607 481.1745)" style="fill:#F99980;" width="28.692" height="3.94" />
                      </g>
                      <g>
                        <rect x="394.633" y="66.689" transform="matrix(0.104 -0.9946 0.9946 0.104 298.141 468.2766)" style="fill:#F99980;" width="28.693" height="3.941" />
                      </g>
                    </g>
                    <g>
                      <g>
                        <rect x="386.254" y="61.588" transform="matrix(0.104 -0.9946 0.9946 0.104 295.7206 455.3758)" style="fill:#F99980;" width="28.693" height="3.941" />
                      </g>
                      <g>
                        <rect x="377.876" y="56.487" transform="matrix(0.1041 -0.9946 0.9946 0.1041 293.2592 442.4647)" style="fill:#F99980;" width="28.692" height="3.941" />
                      </g>
                    </g>
                  </g>
                </g>
              </g>
              <g style="opacity:0.3;">
                <rect x="404.4" y="45.532" transform="matrix(0.5196 -0.8544 0.8544 0.5196 139.1035 377.8417)" style="fill:#E8775D;" width="2.33" height="39.369" />
              </g>
            </g>
            <g>
              <path style="fill:#152F47;" d="M420.728,79.124l-34.481-20.992l2.943-4.834l34.482,20.992L420.728,79.124z M387.622,57.799         l32.772,19.952l1.902-3.127l-32.772-19.952L387.622,57.799z" />
            </g>
          </g>
        </g>
        <g>
          <g>
            <g>
              <g>
                <path style="fill:#FFB7A0;" d="M401.986,96.408c0,0,21.608,67.44,25.789,67.44s27.183-67.44,27.183-67.44          S433.7,101.313,401.986,96.408z" />
              </g>
              <g>
                <defs>
                  <path id="SVGID_00000121988228609677505600000008082741633890602882_" d="M401.986,96.408c0,0,21.608,67.44,25.789,67.44           s27.183-67.44,27.183-67.44S433.7,101.313,401.986,96.408z" />
                </defs>
                <clipPath id="SVGID_00000127024630792708684580000009285412104421970866_">
                  <use ns1:href="#SVGID_00000121988228609677505600000008082741633890602882_" style="overflow:visible;" />
                </clipPath>
                <g style="clip-path:url(#SVGID_00000127024630792708684580000009285412104421970866_);">
                  <g>
                    <g>
                      <g>
                        <g>
                          <g>
                            <rect x="338.516" y="97.919" transform="matrix(0.7076 -0.7066 0.7066 0.7076 48.6598 314.402)" style="fill:#E8775D;" width="131.358" height="0.981" />
                          </g>
                        </g>
                        <g>
                          <g>
                            <rect x="345.452" y="104.855" transform="matrix(0.7071 -0.7071 0.7071 0.7071 45.9269 321.5688)" style="fill:#E8775D;" width="131.36" height="0.981" />
                          </g>
                        </g>
                      </g>
                      <g>
                        <g>
                          <g>
                            <rect x="352.388" y="111.792" transform="matrix(0.7066 -0.7076 0.7076 0.7066 43.2096 328.7755)" style="fill:#E8775D;" width="131.359" height="0.981" />
                          </g>
                        </g>
                        <g>
                          <g>
                            <rect x="359.325" y="118.728" transform="matrix(0.7071 -0.7072 0.7072 0.7071 40.1962 335.4693)" style="fill:#E8775D;" width="131.358" height="0.981" />
                          </g>
                        </g>
                      </g>
                    </g>
                    <g>
                      <g>
                        <g>
                          <g>
                            <rect x="366.261" y="125.665" transform="matrix(0.7076 -0.7066 0.7066 0.7076 37.1671 342.1219)" style="fill:#E8775D;" width="131.359" height="0.981" />
                          </g>
                        </g>
                        <g>
                          <g>
                            <rect x="373.197" y="132.601" transform="matrix(0.7071 -0.7071 0.7071 0.7071 34.4342 349.3142)" style="fill:#E8775D;" width="131.359" height="0.981" />
                          </g>
                        </g>
                      </g>
                      <g>
                        <g>
                          <g>
                            <rect x="380.134" y="139.537" transform="matrix(0.7066 -0.7076 0.7076 0.7066 31.7171 356.5489)" style="fill:#E8775D;" width="131.359" height="0.982" />
                          </g>
                        </g>
                        <g>
                          <g>
                            <rect x="387.071" y="146.473" transform="matrix(0.7076 -0.7066 0.7066 0.7076 28.5481 362.9118)" style="fill:#E8775D;" width="131.358" height="0.981" />
                          </g>
                        </g>
                      </g>
                    </g>
                  </g>
                  <g>
                    <g>
                      <g>
                        <g>
                          <g>
                            <rect x="452.259" y="32.731" transform="matrix(0.7072 -0.7071 0.7071 0.7072 63.0032 348.9376)" style="fill:#E8775D;" width="0.981" height="131.358" />
                          </g>
                        </g>
                        <g>
                          <g>
                            <rect x="445.323" y="39.666" transform="matrix(0.7071 -0.7072 0.7072 0.7071 56.1024 346.1207)" style="fill:#E8775D;" width="0.981" height="131.359" />
                          </g>
                        </g>
                      </g>
                      <g>
                        <g>
                          <g>
                            <rect x="438.386" y="46.603" transform="matrix(0.7071 -0.7071 0.7071 0.7071 49.1615 343.2413)" style="fill:#E8775D;" width="0.981" height="131.359" />
                          </g>
                        </g>
                        <g>
                          <g>
                            <rect x="431.45" y="53.539" transform="matrix(0.7072 -0.7071 0.7071 0.7072 42.1964 340.3185)" style="fill:#E8775D;" width="0.981" height="131.359" />
                          </g>
                        </g>
                      </g>
                    </g>
                    <g>
                      <g>
                        <g>
                          <g>
                            <rect x="424.513" y="60.476" transform="matrix(0.7072 -0.707 0.707 0.7072 35.2572 337.439)" style="fill:#E8775D;" width="0.981" height="131.359" />
                          </g>
                        </g>
                        <g>
                          <g>
                            <rect x="417.578" y="67.412" transform="matrix(0.7065 -0.7077 0.7077 0.7065 28.4994 334.9092)" style="fill:#E8775D;" width="0.981" height="131.359" />
                          </g>
                        </g>
                      </g>
                      <g>
                        <g>
                          <g>
                            <rect x="410.641" y="74.348" transform="matrix(0.7071 -0.7071 0.7071 0.7071 21.4032 331.7271)" style="fill:#E8775D;" width="0.981" height="131.359" />
                          </g>
                        </g>
                        <g>
                          <g>
                            <rect x="403.705" y="81.285" transform="matrix(0.7066 -0.7076 0.7076 0.7066 14.588 329.1127)" style="fill:#E8775D;" width="0.981" height="131.358" />
                          </g>
                        </g>
                      </g>
                    </g>
                  </g>
                </g>
              </g>
              <path style="opacity:0.2;fill:#FFFFFF;" d="M431.62,98.575c-8.196,0.089-18.234-0.404-29.634-2.167         c0,0,9.265,28.917,16.835,48.881c8.745-3.269,15.268-15.989,15.268-31.193C434.09,108.463,433.192,103.173,431.62,98.575z" />
            </g>
            <g style="opacity:0.3;">
              <path style="fill:#E8775D;" d="M445.419,97.822c-4.883,14.018-16.708,47.327-22.435,57.863         c2.152,4.979,3.882,8.163,4.791,8.163c4.182,0,27.183-67.44,27.183-67.44S451.542,97.194,445.419,97.822z" />
            </g>
          </g>
          <g>
            <path style="fill:#152F47;" d="M427.775,164.349c-0.888,0-2.968,0-14.935-34.055c-5.859-16.673-11.276-33.564-11.331-33.733        l-0.246-0.77l0.799,0.124c31.243,4.831,52.571,0.056,52.783,0.007l0.876-0.202l-0.29,0.851        c-0.058,0.168-5.824,17.059-12.028,33.733C430.736,164.349,428.661,164.349,427.775,164.349z M402.709,97.024        c10.234,31.878,22.431,65.76,25.08,66.326c2.63-0.543,15.517-34.393,26.413-66.276        C449.923,97.9,430.191,101.153,402.709,97.024z" />
          </g>
        </g>
        <g>
          <g>
            <g>
              <path style="fill:#F99980;" d="M458.064,94.072c-0.694-5.419-6.529-6.113-6.529-6.113s-9.447,4.724-23.063,4.724         c-13.616,0-23.063-4.724-23.063-4.724s-5.836,0.694-6.529,6.113c-0.696,5.418,8.474,7.919,8.474,7.919         c10.837,2.778,21.118,2.467,21.118,2.467s10.28,0.312,21.118-2.467C449.591,101.991,458.761,99.49,458.064,94.072z" />
            </g>
            <g>
              <path style="fill:#F48771;" d="M457.197,91.484c-2.191,3.146-7.606,4.626-7.606,4.626         c-10.838,2.778-21.118,2.467-21.118,2.467s-10.281,0.312-21.118-2.467c0,0-5.415-1.48-7.607-4.626         c-0.422,0.713-0.736,1.565-0.867,2.588c-0.696,5.418,8.474,7.919,8.474,7.919c10.837,2.778,21.118,2.467,21.118,2.467         s10.28,0.312,21.118-2.467c0,0,9.17-2.501,8.474-7.919C457.934,93.05,457.619,92.197,457.197,91.484z" />
            </g>
          </g>
          <g>
            <path style="fill:#152F47;" d="M427.56,104.967c-2.747,0-11.398-0.201-20.33-2.491c-0.399-0.109-9.589-2.684-8.846-8.467        c0.734-5.739,6.904-6.539,6.967-6.546l0.148-0.018l0.134,0.067c0.094,0.047,9.511,4.671,22.839,4.671        c13.328,0,22.745-4.624,22.839-4.671l0.134-0.067l0.148,0.018c0.063,0.007,6.231,0.807,6.967,6.546v0        c0.743,5.783-8.446,8.358-8.838,8.465c-10.787,2.766-21.156,2.488-21.266,2.484        C428.445,104.959,428.129,104.967,427.56,104.967z M405.331,88.476c-0.871,0.141-5.369,1.088-5.954,5.66        c-0.633,4.923,8.021,7.349,8.109,7.373c10.631,2.725,20.868,2.455,20.972,2.449c0.132,0.008,10.369,0.276,21.009-2.451        c0.08-0.022,8.734-2.448,8.102-7.371v-0.001c-0.586-4.572-5.083-5.519-5.954-5.66c-1.253,0.589-10.472,4.707-23.142,4.707        C415.802,93.183,406.584,89.064,405.331,88.476z" />
          </g>
        </g>
        <g>
          <g>
            <path style="fill:#FFC9E2;" d="M405.056,89.377c0,0-7.926-3.778-6.327-12.557c1.598-8.778,12.166-10.071,12.166-10.071        s-6.441-6.326,0.71-12.655c7.151-6.328,13.601-8.027,15.292-12.553c0,0,19.835,11.086,13.804,22.424        c0,0,12.08,2.055,13.825,11.94c1.743,9.886-3.628,13.158-3.628,13.158S426.97,99.682,405.056,89.377z" />
            <path style="opacity:0.2;fill:#FFFFFF;" d="M414.287,51.892c-0.878,0.67-1.774,1.398-2.683,2.202        c-7.151,6.329-0.71,12.655-0.71,12.655s-10.568,1.293-12.166,10.071c-1.599,8.778,6.327,12.557,6.327,12.557        c7.083,3.33,14.372,4.468,20.999,4.493c3.018-4.598,4.745-9.892,4.745-15.531C430.8,67.335,424.251,57.633,414.287,51.892z" />
          </g>
          <g>
            <g>
              <path style="fill:#F7A9D0;" d="M438.442,64.777c-6.046,10.53-16.463,1.248-24.879,1.495c-0.79,0.022-0.792,1.249,0,1.226         c6.262-0.184,11.473,4.423,17.96,3.585c3.245-0.419,6.373-2.892,7.978-5.687C439.894,64.709,438.836,64.092,438.442,64.777         L438.442,64.777z" />
            </g>
          </g>
          <g style="opacity:0.4;">
            <path style="fill:#F7A9D0;" d="M454.525,75.905c-1.745-9.886-13.825-11.94-13.825-11.94        c6.031-11.338-13.804-22.424-13.804-22.424c-0.525,1.407-1.513,2.541-2.838,3.626c5.777,4.742,14.397,16.075,10.309,23.763        c0,0,11.412-1.473,13.351,9.51c1.129,6.406-0.428,10.3-1.924,12.442c3.209-0.979,5.104-1.818,5.104-1.818        S456.269,85.791,454.525,75.905z" />
          </g>
          <g>
            <path style="fill:#152F47;" d="M426.194,94.343c-6.747,0-14.171-1.137-21.352-4.513l-0.002-0.001        c-0.083-0.039-8.252-4.047-6.605-13.097c1.363-7.492,9.051-9.754,11.7-10.316c-0.849-1.068-2.274-3.281-2.203-6.028        c0.063-2.4,1.253-4.644,3.54-6.667c2.999-2.653,5.824-4.468,8.317-6.069c3.429-2.203,5.906-3.794,6.837-6.284l0.204-0.546        l0.509,0.284c0.05,0.028,5.067,2.854,9.272,7.042c5.445,5.424,7.171,10.756,5.02,15.464        c2.579,0.613,12.038,3.442,13.585,12.207c1.782,10.106-3.629,13.531-3.86,13.672        C450.957,89.582,439.995,94.343,426.194,94.343z M405.269,88.924c21.446,10.086,45.188-0.213,45.426-0.318        c0.148-0.097,4.995-3.22,3.339-12.614c-1.665-9.43-13.3-11.515-13.417-11.534l-0.683-0.116l0.325-0.612        c5.216-9.804-10.165-19.687-13.125-21.469c-1.182,2.492-3.775,4.158-7.003,6.23c-2.463,1.582-5.254,3.375-8.195,5.977        c-2.067,1.83-3.145,3.827-3.202,5.935c-0.092,3.378,2.486,5.964,2.512,5.989l0.735,0.726l-1.025,0.127        c-0.102,0.013-10.223,1.358-11.734,9.665c-1.508,8.276,5.723,11.858,6.05,12.016L405.269,88.924z" />
          </g>
        </g>
      </g>
      <g>
        <g>
          <g>
            <path style="fill:#152F47;" d="M412.34,80.44c-0.283,0.563-0.467,1.177-0.536,1.759c-0.082,0.711,1.031,0.703,1.111,0        c0.183-1.557,1.243-2.852,2.888-2.83c1.666,0.021,2.416,1.899,2.382,3.28c-0.018,0.717,1.094,0.715,1.112,0        c0.054-2.207-1.107-4.416-3.494-4.391c-0.792,0.008-1.559,0.285-2.142,0.682C412.829,79.575,412.34,80.44,412.34,80.44z" />
          </g>
          <g>
            <path style="fill:#152F47;" d="M441.049,80.44c0.283,0.563,0.467,1.177,0.536,1.759c0.082,0.711-1.031,0.703-1.111,0        c-0.182-1.557-1.243-2.852-2.888-2.83c-1.666,0.021-2.415,1.899-2.381,3.28c0.018,0.717-1.094,0.715-1.113,0        c-0.054-2.207,1.105-4.416,3.494-4.391c0.792,0.008,1.561,0.285,2.142,0.682C440.56,79.575,441.049,80.44,441.049,80.44z" />
          </g>
        </g>
        <g>
          <g>
            <path style="fill:#152F47;" d="M414.701,74.484c0,0,0.044-0.278,0.286-0.589c0.123-0.156,0.291-0.326,0.521-0.452        c0.228-0.131,0.514-0.218,0.815-0.217c0.153-0.006,0.299,0.034,0.442,0.066c0.145,0.029,0.263,0.118,0.384,0.175        c0.222,0.148,0.389,0.322,0.491,0.5c0.119,0.157,0.154,0.327,0.194,0.432c0.031,0.11,0.039,0.178,0.039,0.178        s-0.065-0.023-0.169-0.069c-0.107-0.042-0.232-0.12-0.392-0.18c-0.148-0.075-0.321-0.129-0.49-0.19        c-0.17-0.03-0.333-0.081-0.504-0.065c-0.167-0.02-0.345,0.024-0.523,0.058c-0.182,0.039-0.353,0.101-0.518,0.15        C414.932,74.402,414.701,74.484,414.701,74.484z" />
          </g>
          <g>
            <path style="fill:#152F47;" d="M435.537,74.237c0,0,0.07-0.27,0.348-0.557c0.137-0.142,0.322-0.292,0.563-0.395        c0.238-0.104,0.533-0.164,0.832-0.131c0.153,0.01,0.292,0.065,0.435,0.108c0.14,0.047,0.247,0.147,0.362,0.215        c0.205,0.174,0.354,0.364,0.435,0.549c0.103,0.17,0.124,0.342,0.151,0.448c0.018,0.116,0.022,0.181,0.022,0.181        s-0.063-0.027-0.162-0.086c-0.1-0.048-0.219-0.143-0.369-0.218c-0.146-0.088-0.31-0.166-0.469-0.24        c-0.17-0.05-0.323-0.117-0.496-0.118c-0.166-0.034-0.346-0.01-0.526,0.004c-0.184,0.021-0.361,0.064-0.531,0.098        C435.774,74.18,435.537,74.237,435.537,74.237z" />
          </g>
        </g>
        <g>
          <g>
            <path style="fill:#FF81CE;" d="M417.36,86.082c0,1.403-1.139,2.541-2.542,2.541c-1.403,0-2.54-1.138-2.54-2.541        c0-1.402,1.137-2.54,2.54-2.54C416.222,83.542,417.36,84.68,417.36,86.082z" />
          </g>
          <g>
            <path style="fill:#FF81CE;" d="M441.111,86.082c0,1.403-1.138,2.541-2.541,2.541s-2.541-1.138-2.541-2.541        c0-1.402,1.138-2.54,2.541-2.54S441.111,84.68,441.111,86.082z" />
          </g>
        </g>
        <g>
          <g>
            <g>
              <path style="fill:#FF81CE;" d="M426.559,83.728c0,0,1-1.719,1.927-1.845c0.928-0.126,2.223,1.191,2.314,1.463         C430.8,83.346,428.263,84.175,426.559,83.728z" />
            </g>
            <g>
              <g>
                <path style="fill:#152F47;" d="M426.936,83.868c0.181-0.423,0.444-0.816,0.758-1.151c0.966-1.032,2.033-0.323,2.784,0.579          c0.231,0.277,0.623-0.12,0.396-0.396c-0.774-0.93-1.846-1.684-3.034-1.015c-0.623,0.35-1.109,1.056-1.387,1.7          C426.313,83.914,426.794,84.198,426.936,83.868L426.936,83.868z" />
              </g>
            </g>
          </g>
          <g>
            <g>
              <path style="fill:#152F47;" d="M422.005,83.438c2.986,0.956,6.438,1.136,9.385,0c0.333-0.128,0.189-0.668-0.147-0.538         c-2.863,1.102-6.189,0.928-9.09,0C421.809,82.789,421.662,83.329,422.005,83.438L422.005,83.438z" />
            </g>
          </g>
        </g>
      </g>
    </g>
    <g>
      <g>
        <g>
          <path style="fill:#FFFFFF;" d="M410.948,109.804c3.091,9.655,6.182,19.31,9.272,28.965c0.438,1.367,0.875,2.734,1.313,4.1       c0.242,0.756,1.474,0.535,1.229-0.231c-3.091-9.655-6.182-19.31-9.273-28.966c-0.438-1.367-0.875-2.733-1.313-4.1       C411.934,108.817,410.703,109.039,410.948,109.804L410.948,109.804z" />
        </g>
        <path style="fill:#FFFFFF;" d="M424.119,145.546c0.081,0.43-0.202,0.844-0.632,0.924c-0.43,0.081-0.844-0.202-0.924-0.632      c-0.081-0.43,0.202-0.844,0.632-0.924C423.624,144.833,424.038,145.116,424.119,145.546z" />
      </g>
      <g>
        <path style="fill:#FFFFFF;" d="M407.42,71.117c-2.922,1.276-5.37,4.134-5.673,7.351c-0.154,1.635,0.272,3.241,0.923,4.728      c0.322,0.735,1.399,0.1,1.079-0.631c-0.945-2.16-1.114-4.573,0.094-6.661c0.783-1.354,1.987-2.435,3.32-3.234      c0.286-0.172,0.581-0.339,0.887-0.473C408.787,71.875,408.151,70.797,407.42,71.117L407.42,71.117z" />
      </g>
    </g>
  </g>
</svg>