<?xml version='1.0' encoding='utf-8'?>
<svg xmlns="http://www.w3.org/2000/svg" xmlns:ns1="http://www.w3.org/1999/xlink" version="1.1" viewBox="-48.118 -52.126 178.17000000000002 534.37" width="178.17000000000002" height="534.37">
  <g>
    <g>
      <g>
        <g>
          <g>
            <g>
              <path style="fill:#FFB7A0;" d="M87.194,456.205c0.108,2.31-1.695,4.203-4.01,4.203h-8.415c-2.313,0-4.117-1.893-4.009-4.203         l1.707-36.124c0.109-2.311,2.092-4.202,4.405-4.202h4.208c2.314,0,4.297,1.892,4.405,4.202L87.194,456.205z" />
            </g>
            <g>
              <defs>
                <path id="SVGID_00000161598211318019569850000009990046426652116159_" d="M87.194,456.205          c0.108,2.31-1.695,4.203-4.01,4.203h-8.415c-2.313,0-4.117-1.893-4.009-4.203l1.707-36.124          c0.109-2.311,2.092-4.202,4.405-4.202h4.208c2.314,0,4.297,1.892,4.405,4.202L87.194,456.205z" />
              </defs>
              <clipPath id="SVGID_00000146500049752752233040000018437929780334938245_">
                <use ns1:href="#SVGID_00000161598211318019569850000009990046426652116159_" style="overflow:visible;" />
              </clipPath>
              <g style="clip-path:url(#SVGID_00000146500049752752233040000018437929780334938245_);">
                <g>
                  <g>
                    <path style="fill:#E8775D;" d="M72.691,472.244c-0.331,0-0.657-0.057-0.977-0.167c-3.298-1.15-4.72-8.029-5.273-12.025            c-1.3-9.388-0.504-21.461,2.505-23.566c0.667-0.467,1.999-0.996,3.441,0.693c3.956,4.643,5.709,22.266,1.704,26.399            l-0.757-0.731c3.576-3.69,1.781-20.843-1.749-24.984c-0.917-1.078-1.571-0.843-2.036-0.516            c-2.389,1.671-3.411,12.847-2.065,22.56c0.872,6.305,2.582,10.482,4.576,11.178c0.898,0.311,1.92-0.075,3.048-1.151            c8.073-7.707,5.56-18.57,2.649-31.149c-0.475-2.045-0.956-4.124-1.399-6.229c-3.147-14.954-0.115-24.587,0.016-24.989            l1,0.324c-0.031,0.097-3.071,9.79,0.015,24.448c0.441,2.099,0.921,4.171,1.392,6.209            c2.861,12.356,5.562,24.027-2.946,32.147C74.752,471.727,73.699,472.244,72.691,472.244z" />
                  </g>
                </g>
                <g>
                  <g>
                    <path style="fill:#E8775D;" d="M86.12,447.06c-0.936,0-1.785-0.325-2.535-0.972c-6.528-5.621-3.187-35.32-3.042-36.581            l1.046,0.12c-0.035,0.303-3.427,30.402,2.683,35.664c0.794,0.686,1.703,0.875,2.792,0.583            c2.661-0.721,4.122-3.236,4.341-7.479c0.442-8.63-4.585-21.132-6.051-21.978c-0.59,0.41-1.634,3.927-1.603,8.679            c0.02,3.136,0.588,10.639,5.414,12.558l-0.388,0.978c-5.198-2.067-6.495-9.764-5.979-16.277            c0.054-0.674,0.575-6.587,2.375-6.989c1.963-0.456,4.885,7.984,6.021,12.59c1.244,5.044,3.358,16.985-3.858,18.934            C86.916,447.003,86.511,447.06,86.12,447.06z" />
                  </g>
                </g>
              </g>
            </g>
          </g>
          <g style="opacity:0.4;">
            <path style="fill:#E8775D;" d="M85.486,420.081c-0.108-2.311-2.091-4.202-4.405-4.202h-4.208c-0.18,0-0.351,0.031-0.525,0.052        c2.079,0.264,3.779,2.018,3.88,4.15l1.708,36.124c0.108,2.31-1.696,4.203-4.01,4.203h5.259c2.314,0,4.118-1.893,4.01-4.203        L85.486,420.081z" />
          </g>
        </g>
        <g>
          <path style="fill:#152F47;" d="M83.185,460.908h-8.415c-1.256,0-2.419-0.493-3.273-1.389c-0.855-0.897-1.294-2.082-1.235-3.338       l1.707-36.124c0.122-2.58,2.322-4.679,4.905-4.679h4.208c2.584,0,4.784,2.099,4.905,4.679l1.708,36.124       c0.059,1.256-0.379,2.441-1.235,3.337C85.604,460.415,84.441,460.908,83.185,460.908z M76.873,416.379       c-2.057,0-3.809,1.671-3.906,3.726l-1.707,36.124c-0.046,0.981,0.294,1.903,0.959,2.601c0.664,0.695,1.569,1.079,2.55,1.079       h8.415c0.981,0,1.887-0.384,2.551-1.079c0.665-0.697,1.005-1.62,0.959-2.601l-1.708-36.124       c-0.096-2.055-1.849-3.726-3.906-3.726H76.873z" />
        </g>
      </g>
      <g>
        <g>
          <path style="fill:#76DD9F;" d="M99.426,375.185c-10.904-28.633-20.448-27.388-20.448-27.388s-9.545-1.245-20.449,27.388       c-10.905,28.632-20.626,46.521-17.321,49.714c3.305,3.193,14.35,12.037,37.77,12.037c23.42,0,34.466-8.844,37.771-12.037       C120.052,421.706,110.331,403.816,99.426,375.185z" />
        </g>
        <g>
          <path style="fill:#F2A5CC;" d="M116.26,417.31c-2.627-8.311-9.456-22.757-16.834-42.126       c-10.904-28.633-20.448-27.388-20.448-27.388s-9.545-1.245-20.449,27.388c-7.377,19.369-14.206,33.814-16.834,42.126       c3.819,3.502,14.894,11.581,37.283,11.581C101.366,428.892,112.44,420.813,116.26,417.31z" />
        </g>
        <g>
          <path style="fill:#F8E5E5;" d="M78.977,423.445c-20.012,0-30.979-6.452-35.81-10.323c-0.574,1.527-1.077,2.936-1.473,4.188       c3.819,3.502,14.894,11.581,37.283,11.581c22.389,0,33.463-8.079,37.282-11.581c-0.396-1.252-0.897-2.661-1.472-4.188       C109.956,416.993,98.989,423.445,78.977,423.445z" />
        </g>
        <path style="opacity:0.2;fill:#FFFFFF;" d="M73.503,350.203c-3.797,3.023-9.195,9.804-14.975,24.982      c-4.732,12.424-9.239,22.821-12.558,30.877c4.158,4.737,9.449,7.578,15.214,7.578c13.371,0,24.211-15.263,24.211-34.091      C85.396,367.057,80.621,356.139,73.503,350.203z" />
      </g>
      <g>
        <g>
          <g>
            <path style="fill:#152F47;" d="M67.552,381.047c0,0,0.043-0.275,0.281-0.58c0.122-0.155,0.288-0.323,0.514-0.446        c0.227-0.13,0.509-0.218,0.808-0.216c0.151-0.005,0.294,0.033,0.437,0.066c0.143,0.028,0.26,0.117,0.379,0.173        c0.22,0.146,0.384,0.317,0.485,0.493c0.118,0.155,0.153,0.324,0.191,0.427c0.031,0.109,0.039,0.176,0.039,0.176        s-0.064-0.023-0.167-0.068c-0.105-0.043-0.228-0.119-0.387-0.179c-0.147-0.073-0.317-0.126-0.483-0.188        c-0.169-0.03-0.33-0.081-0.498-0.065c-0.165-0.02-0.342,0.024-0.518,0.057c-0.179,0.038-0.351,0.099-0.512,0.148        C67.778,380.967,67.552,381.047,67.552,381.047z" />
          </g>
          <g>
            <path style="fill:#152F47;" d="M88.137,380.805c0,0,0.069-0.268,0.345-0.55c0.134-0.142,0.317-0.29,0.556-0.391        c0.234-0.103,0.526-0.163,0.822-0.129c0.15,0.009,0.288,0.064,0.43,0.106c0.138,0.047,0.244,0.147,0.359,0.212        c0.2,0.173,0.349,0.361,0.428,0.541c0.102,0.17,0.122,0.339,0.15,0.445c0.019,0.113,0.022,0.178,0.022,0.178        s-0.064-0.027-0.162-0.085c-0.099-0.047-0.216-0.142-0.364-0.215c-0.145-0.088-0.306-0.165-0.461-0.237        c-0.17-0.05-0.321-0.116-0.491-0.117c-0.165-0.033-0.344-0.01-0.521,0.004c-0.18,0.021-0.356,0.063-0.524,0.097        C88.371,380.747,88.137,380.805,88.137,380.805z" />
          </g>
        </g>
        <g>
          <g>
            <path style="fill:#152F47;" d="M64.624,388.542c-0.285,0.564-0.469,1.177-0.538,1.76c-0.081,0.711,1.031,0.703,1.111,0        c0.183-1.557,1.244-2.852,2.888-2.83c1.667,0.021,2.416,1.898,2.382,3.28c-0.018,0.717,1.094,0.715,1.111,0        c0.056-2.207-1.104-4.416-3.493-4.392c-0.792,0.008-1.56,0.285-2.142,0.682C65.111,387.677,64.624,388.542,64.624,388.542z" />
          </g>
          <g>
            <path style="fill:#152F47;" d="M93.332,388.542c0.283,0.564,0.468,1.177,0.536,1.76c0.082,0.711-1.03,0.703-1.112,0        c-0.182-1.557-1.242-2.852-2.888-2.83c-1.665,0.021-2.415,1.898-2.382,3.28c0.018,0.717-1.093,0.715-1.112,0        c-0.054-2.207,1.107-4.416,3.494-4.392c0.793,0.008,1.561,0.285,2.142,0.682C92.844,387.677,93.332,388.542,93.332,388.542z" />
          </g>
        </g>
        <g>
          <g>
            <path style="fill:#FF81CE;" d="M70.177,394.446c0,1.386-1.124,2.508-2.511,2.508c-1.387,0-2.51-1.122-2.51-2.508        c0-1.388,1.123-2.511,2.51-2.511C69.053,391.935,70.177,393.059,70.177,394.446z" />
          </g>
          <g>
            <path style="fill:#FF81CE;" d="M93.643,394.446c0,1.386-1.122,2.508-2.509,2.508c-1.387,0-2.511-1.122-2.511-2.508        c0-1.388,1.124-2.511,2.511-2.511C92.52,391.935,93.643,393.059,93.643,394.446z" />
          </g>
        </g>
        <g>
          <path style="fill:#152F47;" d="M80.084,390.865c0.643-0.281,1.06-0.766,1.106-1.365c0.069-0.919-1.111-1.582-2.314-1.627       c-0.483-0.018-0.481,0.51,0,0.527c2.013,0.076,2.015,2.118,0.007,2.199c-0.002,0-0.005-0.002-0.007-0.002       c-0.251-0.008-0.368,0.13-0.358,0.266c-0.01,0.137,0.107,0.275,0.358,0.265c0.002,0,0.005,0,0.007,0       c2.007,0.08,2.006,2.122-0.007,2.198c-0.481,0.02-0.483,0.547,0,0.528c1.309-0.05,2.243-0.706,2.314-1.628       C81.234,391.631,80.753,391.147,80.084,390.865z" />
        </g>
      </g>
      <g>
        <g>
          <path style="fill:#FF81CE;" d="M77.004,352.901c0,0-2.736,5.617-0.864,6.338C78.012,359.959,78.156,354.63,77.004,352.901z" />
        </g>
        <g>
          <path style="fill:#FF81CE;" d="M84.439,367.061c2.003,0.103,0.487-5.008-1.145-6.294       C83.295,360.768,82.435,366.957,84.439,367.061" />
        </g>
        <g>
          <path style="fill:#FF81CE;" d="M77.411,373.624c1.933,0.535,1.561-4.782,0.246-6.392       C77.657,367.232,75.477,373.088,77.411,373.624" />
        </g>
        <g>
          <path style="fill:#FF81CE;" d="M68.225,366.387c0,0-2.736,5.617-0.864,6.338C69.232,373.444,69.377,368.115,68.225,366.387z" />
        </g>
        <g>
          <path style="fill:#FF81CE;" d="M91.533,369.625c0,0-1.067,6.156,0.932,6.328C94.464,376.125,93.12,370.965,91.533,369.625z" />
        </g>
        <g>
          <path style="fill:#FF81CE;" d="M55.296,400.658c1.701,1.064,2.858-4.139,2.058-6.056       C57.353,394.603,53.596,399.595,55.296,400.658" />
        </g>
        <g>
          <path style="fill:#FF81CE;" d="M67.475,402.317c0,0-2.736,5.617-0.864,6.338C68.482,409.375,68.627,404.047,67.475,402.317z" />
        </g>
        <g>
          <path style="fill:#FF81CE;" d="M54.584,413.603c1.934,0.534,1.56-4.782,0.246-6.393C54.83,407.21,52.65,413.066,54.584,413.603       " />
        </g>
        <g>
          <path style="fill:#FF81CE;" d="M75.324,419.064c1.961,0.427,1.29-4.861-0.111-6.395       C75.213,412.669,73.364,418.637,75.324,419.064" />
        </g>
        <g>
          <path style="fill:#FF81CE;" d="M84.406,401.968c0,0-0.81,6.196,1.194,6.284C87.604,408.339,86.048,403.241,84.406,401.968z" />
        </g>
        <g>
          <path style="fill:#FF81CE;" d="M96.693,410.057c0,0-0.207,6.245,1.797,6.14C100.493,416.089,98.45,411.166,96.693,410.057z" />
        </g>
        <g>
          <path style="fill:#FF81CE;" d="M102.725,400.405c0,0-0.207,6.245,1.797,6.14C106.524,406.438,104.481,401.515,102.725,400.405z       " />
        </g>
      </g>
      <g>
        <path style="fill:#152F47;" d="M78.977,437.435c-23.03,0-34.329-8.517-38.118-12.178c-2.476-2.392,1.016-10.737,7.356-25.889      c2.955-7.061,6.304-15.064,9.845-24.362c10.578-27.777,19.964-27.792,20.916-27.712c0.945-0.087,10.337-0.067,20.916,27.712l0,0      c3.542,9.299,6.891,17.303,9.846,24.365c6.34,15.148,9.831,23.494,7.356,25.886C113.307,428.919,102.007,437.435,78.977,437.435      z M78.827,348.29c-0.963,0-9.81,0.758-19.831,27.072c-3.547,9.314-6.9,17.325-9.857,24.394      c-5.555,13.274-9.568,22.865-7.584,24.783c3.702,3.577,14.759,11.896,37.423,11.896c22.665,0,33.721-8.319,37.423-11.896      c1.984-1.917-2.029-11.508-7.584-24.781c-2.958-7.068-6.311-15.081-9.858-24.396l0,0      c-10.569-27.753-19.832-27.074-19.921-27.069l-0.06,0.007l-0.064-0.007C78.908,348.292,78.879,348.29,78.827,348.29z" />
      </g>
    </g>
    <g>
      <g>
        <path style="fill:#FFFFFF;" d="M71.753,357.075c-5.164,7.4-9.354,15.965-11.677,24.68c-0.208,0.778,0.998,1.11,1.205,0.332      c2.297-8.616,6.445-17.064,11.551-24.382C73.294,357.045,72.21,356.419,71.753,357.075L71.753,357.075z" />
      </g>
      <path style="fill:#FFFFFF;" d="M60.599,385.272c0,0.461-0.374,0.835-0.835,0.835s-0.835-0.374-0.835-0.835     c0-0.461,0.374-0.835,0.835-0.835S60.599,384.811,60.599,385.272z" />
    </g>
  </g>
</svg>